  0
SECTION
  2
HEADER
  9
$ACADVER
  1
AC1009
  9
$DWGCODEPAGE
  3
ansi_1252
  9
$INSBASE
 10
0.0
 20
0.0
 30
0.0
  9
$EXTMIN
 10
-887.0
 20
-129.4007618245268
 30
-4.450001716613788
  9
$EXTMAX
 10
-224.9999999999999
 20
77.35561707558605
 30
61.54999828338632
  9
$LIMMIN
 10
0.0
 20
0.0
  9
$LIMMAX
 10
12.0
 20
9.0
  9
$ORTHOMODE
 70
     0
  9
$REGENMODE
 70
     1
  9
$FILLMODE
 70
     1
  9
$QTEXTMODE
 70
     0
  9
$MIRRTEXT
 70
     1
  9
$DRAGMODE
 70
     2
  9
$LTSCALE
 40
1.0
  9
$OSMODE
 70
    37
  9
$ATTMODE
 70
     1
  9
$TEXTSIZE
 40
0.2
  9
$TRACEWID
 40
0.05
  9
$TEXTSTYLE
  7
STANDARD
  9
$CLAYER
  8
DEFAULT
  9
$CELTYPE
  6
BYLAYER
  9
$CECOLOR
 62
   256
  9
$DIMSCALE
 40
1.0
  9
$DIMASZ
 40
0.18
  9
$DIMEXO
 40
0.0625
  9
$DIMDLI
 40
0.38
  9
$DIMRND
 40
0.0
  9
$DIMDLE
 40
0.0
  9
$DIMEXE
 40
0.18
  9
$DIMTP
 40
0.0
  9
$DIMTM
 40
0.0
  9
$DIMTXT
 40
0.18
  9
$DIMCEN
 40
0.09
  9
$DIMTSZ
 40
0.0
  9
$DIMTOL
 70
     0
  9
$DIMLIM
 70
     0
  9
$DIMTIH
 70
     1
  9
$DIMTOH
 70
     1
  9
$DIMSE1
 70
     0
  9
$DIMSE2
 70
     0
  9
$DIMTAD
 70
     0
  9
$DIMZIN
 70
     0
  9
$DIMBLK
  1

  9
$DIMASO
 70
     1
  9
$DIMSHO
 70
     1
  9
$DIMPOST
  1

  9
$DIMAPOST
  1

  9
$DIMALT
 70
     0
  9
$DIMALTD
 70
     2
  9
$DIMALTF
 40
25.4
  9
$DIMLFAC
 40
1.0
  9
$DIMTOFL
 70
     0
  9
$DIMTVP
 40
0.0
  9
$DIMTIX
 70
     0
  9
$DIMSOXD
 70
     0
  9
$DIMSAH
 70
     0
  9
$DIMBLK1
  1

  9
$DIMBLK2
  1

  9
$DIMSTYLE
  2
STANDARD_ACAD
  9
$DIMCLRD
 70
     0
  9
$DIMCLRE
 70
     0
  9
$DIMCLRT
 70
     0
  9
$DIMTFAC
 40
1.0
  9
$DIMGAP
 40
0.09
  9
$LUNITS
 70
     2
  9
$LUPREC
 70
     3
  9
$SKETCHINC
 40
0.1
  9
$FILLETRAD
 40
0.0
  9
$AUNITS
 70
     0
  9
$AUPREC
 70
     0
  9
$MENU
  1
.
  9
$ELEVATION
 40
0.0
  9
$PELEVATION
 40
0.0
  9
$THICKNESS
 40
0.0
  9
$LIMCHECK
 70
     0
  9
$CHAMFERA
 40
0.0
  9
$CHAMFERB
 40
0.0
  9
$SKPOLY
 70
     0
  9
$TDCREATE
 40
2460774.736871146
  9
$TDUPDATE
 40
2460774.736930984
  9
$TDINDWG
 40
0.0000000116
  9
$TDUSRTIMER
 40
0.0000000116
  9
$USRTIMER
 70
     1
  9
$ANGBASE
 50
0.0
  9
$ANGDIR
 70
     0
  9
$PDMODE
 70
     0
  9
$PDSIZE
 40
0.0
  9
$PLINEWID
 40
0.0
  9
$COORDS
 70
     1
  9
$SPLFRAME
 70
     0
  9
$SPLINETYPE
 70
     6
  9
$SPLINESEGS
 70
     8
  9
$ATTDIA
 70
     0
  9
$ATTREQ
 70
     1
  9
$HANDLING
 70
     1
  9
$HANDSEED
  5
127
  9
$SURFTAB1
 70
     6
  9
$SURFTAB2
 70
     6
  9
$SURFTYPE
 70
     6
  9
$SURFU
 70
     6
  9
$SURFV
 70
     6
  9
$UCSNAME
  2

  9
$UCSORG
 10
0.0
 20
0.0
 30
0.0
  9
$UCSXDIR
 10
1.0
 20
0.0
 30
0.0
  9
$UCSYDIR
 10
0.0
 20
1.0
 30
0.0
  9
$PUCSNAME
  2

  9
$PUCSORG
 10
0.0
 20
0.0
 30
0.0
  9
$PUCSXDIR
 10
1.0
 20
0.0
 30
0.0
  9
$PUCSYDIR
 10
0.0
 20
1.0
 30
0.0
  9
$USERI1
 70
     0
  9
$USERI2
 70
     0
  9
$USERI3
 70
     0
  9
$USERI4
 70
     0
  9
$USERI5
 70
     0
  9
$USERR1
 40
0.0
  9
$USERR2
 40
0.0
  9
$USERR3
 40
0.0
  9
$USERR4
 40
0.0
  9
$USERR5
 40
0.0
  9
$WORLDVIEW
 70
     1
  9
$SHADEDGE
 70
     3
  9
$SHADEDIF
 70
    70
  9
$TILEMODE
 70
     1
  9
$MAXACTVP
 70
    64
  9
$PLIMCHECK
 70
     0
  9
$PEXTMIN
 10
1.000000000000000E+20
 20
1.000000000000000E+20
 30
1.000000000000000E+20
  9
$PEXTMAX
 10
-1.000000000000000E+20
 20
-1.000000000000000E+20
 30
-1.000000000000000E+20
  9
$PLIMMIN
 10
0.0
 20
0.0
  9
$PLIMMAX
 10
12.0
 20
9.0
  9
$UNITMODE
 70
     0
  9
$VISRETAIN
 70
     1
  9
$PLINEGEN
 70
     0
  9
$PSLTSCALE
 70
     1
  0
ENDSEC
  0
SECTION
  2
TABLES
  0
TABLE
  2
VPORT
 70
     1
  0
VPORT
  2
*ACTIVE
 70
     0
 10
0.0
 20
0.0
 11
1.0
 21
1.0
 12
10.42990654205607
 22
4.5
 13
0.0
 23
0.0
 14
0.5
 24
0.5
 15
0.5
 25
0.5
 16
0.0
 26
0.0
 36
1.0
 17
0.0
 27
0.0
 37
0.0
 40
9.0
 41
1.972972972850329
 42
50.0
 43
0.0
 44
0.0
 50
0.0
 51
0.0
 71
     0
 72
   100
 73
     1
 74
     3
 75
     0
 76
     0
 77
     0
 78
     0
  0
ENDTAB
  0
TABLE
  2
LTYPE
 70
     1
  0
LTYPE
  2
CONTINUOUS
 70
     0
  3
Solid line
 72
    65
 73
     0
 40
0.0
  0
ENDTAB
  0
TABLE
  2
LAYER
 70
     2
  0
LAYER
  2
0
 70
     0
 62
     7
  6
CONTINUOUS
  0
LAYER
  2
DEFAULT
 70
     0
 62
     7
  6
CONTINUOUS
  0
ENDTAB
  0
TABLE
  2
STYLE
 70
     1
  0
STYLE
  2
STANDARD
 70
     0
 40
0.0
 41
1.0
 50
0.0
 71
     0
 42
0.2
  3
txt
  4

  0
ENDTAB
  0
TABLE
  2
VIEW
 70
     0
  0
ENDTAB
  0
TABLE
  2
UCS
 70
     0
  0
ENDTAB
  0
TABLE
  2
APPID
 70
     2
  0
APPID
  2
ACAD
 70
     0
  0
APPID
  2
RHINO
 70
     0
  0
ENDTAB
  0
TABLE
  2
DIMSTYLE
 70
     1
  0
DIMSTYLE
  2
STANDARD_ACAD
 70
     0
  3

  4

  5

  6

  7

 40
1.0
 41
0.18
 42
0.0625
 43
0.38
 44
0.18
 45
0.0
 46
0.0
 47
0.0
 48
0.0
140
0.18
141
0.09
142
0.0
143
25.4
144
1.0
145
0.0
146
1.0
147
0.09
 71
     0
 72
     0
 73
     1
 74
     1
 75
     0
 76
     0
 77
     0
 78
     0
170
     0
171
     2
172
     0
173
     0
174
     0
175
     0
176
     0
177
     0
178
     0
  0
ENDTAB
  0
ENDSEC
  0
SECTION
  2
BLOCKS
  0
BLOCK
  8
0
  2
$MODEL_SPACE
 70
     0
 10
0.0
 20
0.0
 30
0.0
  3
$MODEL_SPACE
  1

  0
ENDBLK
  5
21
  8
0
  0
BLOCK
 67
     1
  8
0
  2
$PAPER_SPACE
 70
     0
 10
0.0
 20
0.0
 30
0.0
  3
$PAPER_SPACE
  1

  0
ENDBLK
  5
1D
 67
     1
  8
0
  0
ENDSEC
  0
SECTION
  2
ENTITIES
  0
LINE
  5
60
  8
DEFAULT
 10
-527.0
 20
-119.4007618245268
 30
-4.450001716613787
 11
-475.0
 21
-119.4007618245268
 31
-4.450001716613787
  0
LINE
  5
61
  8
DEFAULT
 10
-475.0
 20
-119.4007618245268
 30
-4.450001716613787
 11
-475.0
 21
-122.4007618245267
 31
-4.450001716613784
  0
LINE
  5
62
  8
DEFAULT
 10
-475.0
 20
-122.4007618245267
 30
-4.450001716613784
 11
-414.9999999999999
 21
-122.4007618245267
 31
-4.450001716613784
  0
LINE
  5
63
  8
DEFAULT
 10
-414.9999999999999
 20
-122.4007618245267
 30
-4.450001716613784
 11
-415.0
 21
-119.4007618245268
 31
-4.450001716613787
  0
LINE
  5
64
  8
DEFAULT
 10
-415.0
 20
-119.4007618245268
 30
-4.450001716613787
 11
-362.9999999999999
 21
-119.4007618245268
 31
-4.450001716613787
  0
LINE
  5
65
  8
DEFAULT
 10
-362.9999999999999
 20
-119.4007618245268
 30
-4.450001716613787
 11
-362.9999999999999
 21
-126.4007618245268
 31
-4.450001716613787
  0
LINE
  5
66
  8
DEFAULT
 10
-362.9999999999999
 20
-126.4007618245268
 30
-4.450001716613787
 11
-378.3253803253174
 21
-126.4007618245268
 31
-4.450001716613786
  0
LINE
  5
67
  8
DEFAULT
 10
-378.3253803253174
 20
-126.4007618245268
 30
-4.450001716613786
 11
-378.3253803253174
 21
-122.6999998092651
 31
-4.450001716613787
  0
LINE
  5
68
  8
DEFAULT
 10
-378.3253803253174
 20
-122.6999998092651
 30
-4.450001716613787
 11
-381.3253803253174
 21
-122.6999998092651
 31
-4.450001716613788
  0
LINE
  5
69
  8
DEFAULT
 10
-381.3253803253174
 20
-122.6999998092651
 30
-4.450001716613788
 11
-381.3253803253174
 21
-129.4007618245268
 31
-4.450001716613788
  0
LINE
  5
6A
  8
DEFAULT
 10
-381.3253803253174
 20
-129.4007618245268
 30
-4.450001716613788
 11
-508.6746196746826
 21
-129.4007618245268
 31
-4.450001716613787
  0
LINE
  5
6B
  8
DEFAULT
 10
-508.6746196746826
 20
-129.4007618245268
 30
-4.450001716613787
 11
-508.6746196746826
 21
-122.6999998092651
 31
-4.450001716613787
  0
LINE
  5
6C
  8
DEFAULT
 10
-508.6746196746826
 20
-122.6999998092651
 30
-4.450001716613787
 11
-511.6746196746826
 21
-122.6999998092651
 31
-4.450001716613787
  0
LINE
  5
6D
  8
DEFAULT
 10
-511.6746196746826
 20
-122.6999998092651
 30
-4.450001716613787
 11
-511.6746196746826
 21
-126.4007618245268
 31
-4.450001716613787
  0
LINE
  5
6E
  8
DEFAULT
 10
-511.6746196746826
 20
-126.4007618245268
 30
-4.450001716613787
 11
-527.0
 21
-126.4007618245268
 31
-4.450001716613787
  0
LINE
  5
6F
  8
DEFAULT
 10
-527.0
 20
-126.4007618245268
 30
-4.450001716613787
 11
-527.0
 21
-119.4007618245268
 31
-4.450001716613787
  0
LINE
  5
70
  8
DEFAULT
 10
-490.6746196746826
 20
-92.20076201526163
 30
-1.450001716613787
 11
-490.6746196746826
 21
-95.90152403052326
 31
-1.450001716613787
  0
LINE
  5
71
  8
DEFAULT
 10
-490.6746196746826
 20
-95.90152403052326
 30
-1.450001716613787
 11
-493.6746196746826
 21
-95.90152403052326
 31
-1.450001716613787
  0
LINE
  5
72
  8
DEFAULT
 10
-493.6746196746826
 20
-95.90152403052326
 30
-1.450001716613787
 11
-493.6746196746826
 21
-92.20076201526163
 31
-1.450001716613787
  0
LINE
  5
73
  8
DEFAULT
 10
-493.6746196746826
 20
-92.20076201526163
 30
-1.450001716613787
 11
-509.0
 21
-92.20076201526163
 31
-1.450001716613787
  0
LINE
  5
74
  8
DEFAULT
 10
-509.0
 20
-92.20076201526163
 30
-1.450001716613787
 11
-509.0
 21
-99.20076201526163
 31
-1.450001716613787
  0
LINE
  5
75
  8
DEFAULT
 10
-509.0
 20
-99.20076201526163
 30
-1.450001716613787
 11
-455.0
 21
-99.20076201526163
 31
-1.450001716613787
  0
LINE
  5
76
  8
DEFAULT
 10
-455.0
 20
-99.20076201526163
 30
-1.450001716613787
 11
-455.0
 21
-109.0
 31
-1.450001716613787
  0
LINE
  5
77
  8
DEFAULT
 10
-455.0
 20
-109.0
 30
-1.450001716613787
 11
-437.0
 21
-109.0
 31
-1.450001716613787
  0
LINE
  5
78
  8
DEFAULT
 10
-437.0
 20
-109.0
 30
-1.450001716613787
 11
-437.0
 21
-106.0
 31
-1.450001716613787
  0
LINE
  5
79
  8
DEFAULT
 10
-437.0
 20
-106.0
 30
-1.450001716613787
 11
-442.0
 21
-106.0
 31
-1.450001716613787
  0
LINE
  5
7A
  8
DEFAULT
 10
-442.0
 20
-106.0
 30
-1.450001716613787
 11
-442.0
 21
-97.20076201526163
 31
-1.450001716613787
  0
LINE
  5
7B
  8
DEFAULT
 10
-442.0
 20
-97.20076201526163
 30
-1.450001716613787
 11
-412.0
 21
-97.20076201526163
 31
-1.450001716613787
  0
LINE
  5
7C
  8
DEFAULT
 10
-412.0
 20
-97.20076201526163
 30
-1.450001716613787
 11
-412.0
 21
-106.0
 31
-1.450001716613787
  0
LINE
  5
7D
  8
DEFAULT
 10
-412.0
 20
-106.0
 30
-1.450001716613787
 11
-417.0
 21
-106.0
 31
-1.450001716613787
  0
LINE
  5
7E
  8
DEFAULT
 10
-417.0
 20
-106.0
 30
-1.450001716613787
 11
-417.0
 21
-109.0
 31
-1.450001716613787
  0
LINE
  5
7F
  8
DEFAULT
 10
-417.0
 20
-109.0
 30
-1.450001716613787
 11
-399.0
 21
-109.0
 31
-1.450001716613787
  0
LINE
  5
80
  8
DEFAULT
 10
-399.0
 20
-109.0
 30
-1.450001716613787
 11
-399.0
 21
-99.20076201526163
 31
-1.450001716613787
  0
LINE
  5
81
  8
DEFAULT
 10
-399.0
 20
-99.20076201526163
 30
-1.450001716613787
 11
-344.9999999999999
 21
-99.20076201526163
 31
-1.450001716613787
  0
LINE
  5
82
  8
DEFAULT
 10
-344.9999999999999
 20
-99.20076201526163
 30
-1.450001716613787
 11
-344.9999999999999
 21
-92.20076201526163
 31
-1.450001716613787
  0
LINE
  5
83
  8
DEFAULT
 10
-344.9999999999999
 20
-92.20076201526163
 30
-1.450001716613787
 11
-360.3253803253174
 21
-92.20076201526163
 31
-1.450001716613787
  0
LINE
  5
84
  8
DEFAULT
 10
-360.3253803253174
 20
-92.20076201526163
 30
-1.450001716613787
 11
-360.3253803253174
 21
-95.90152403052328
 31
-1.450001716613787
  0
LINE
  5
85
  8
DEFAULT
 10
-360.3253803253174
 20
-95.90152403052328
 30
-1.450001716613787
 11
-363.3253803253174
 21
-95.90152403052328
 31
-1.450001716613787
  0
LINE
  5
86
  8
DEFAULT
 10
-363.3253803253174
 20
-95.90152403052328
 30
-1.450001716613787
 11
-363.3253803253174
 21
-92.20076201526163
 31
-1.450001716613787
  0
LINE
  5
87
  8
DEFAULT
 10
-363.3253803253174
 20
-92.20076201526163
 30
-1.450001716613787
 11
-490.6746196746826
 21
-92.20076201526163
 31
-1.450001716613787
  0
LINE
  5
88
  8
DEFAULT
 10
-627.3253803253174
 20
6.000000000000004
 30
14.04999732963893
 11
-627.3253803253174
 21
-10.0
 31
14.04999732963893
  0
LINE
  5
89
  8
DEFAULT
 10
-627.3253803253174
 20
-10.0
 30
14.04999732963893
 11
-637.0
 21
-10.0
 31
14.04999732963893
  0
LINE
  5
8A
  8
DEFAULT
 10
-637.0
 20
-10.0
 30
14.04999732963893
 11
-637.0
 21
6.000000000000004
 31
14.04999732963893
  0
LINE
  5
8B
  8
DEFAULT
 10
-637.0
 20
6.000000000000004
 30
14.04999732963893
 11
-627.3253803253174
 21
6.000000000000004
 31
14.04999732963893
  0
LINE
  5
8C
  8
DEFAULT
 10
-681.0
 20
-10.0
 30
14.04999732963893
 11
-690.6746196746826
 21
-10.0
 31
14.04999732963893
  0
LINE
  5
8D
  8
DEFAULT
 10
-690.6746196746826
 20
-10.0
 30
14.04999732963893
 11
-690.6746196746826
 21
6.000000000000004
 31
14.04999732963893
  0
LINE
  5
8E
  8
DEFAULT
 10
-690.6746196746826
 20
6.000000000000004
 30
14.04999732963893
 11
-681.0
 21
6.000000000000004
 31
14.04999732963893
  0
LINE
  5
8F
  8
DEFAULT
 10
-681.0
 20
6.000000000000004
 30
14.04999732963893
 11
-681.0
 21
-10.0
 31
14.04999732963893
  0
LINE
  5
90
  8
DEFAULT
 10
-629.0
 20
21.59923817547327
 30
14.04999732963893
 11
-629.0
 21
24.59923817547327
 31
14.04999732963893
  0
LINE
  5
91
  8
DEFAULT
 10
-629.0
 20
24.59923817547327
 30
14.04999732963893
 11
-595.3253803253174
 21
24.59923817547323
 31
14.04999732963893
  0
LINE
  5
92
  8
DEFAULT
 10
-595.3253803253174
 20
24.59923817547323
 30
14.04999732963893
 11
-595.3253803253174
 21
15.3984761602116
 31
14.0499973297119
  0
LINE
  5
93
  8
DEFAULT
 10
-595.3253803253174
 20
15.3984761602116
 30
14.0499973297119
 11
-592.3253803253174
 21
15.3984761602116
 31
14.04999732963893
  0
LINE
  5
94
  8
DEFAULT
 10
-592.3253803253174
 20
15.3984761602116
 30
14.04999732963893
 11
-592.3253803253174
 21
4.398476160211615
 31
14.04999732963893
  0
LINE
  5
95
  8
DEFAULT
 10
-592.3253803253174
 20
4.398476160211615
 30
14.04999732963893
 11
-595.3253803253174
 21
4.3984761602116
 31
14.0499973297119
  0
LINE
  5
96
  8
DEFAULT
 10
-595.3253803253174
 20
4.3984761602116
 30
14.0499973297119
 11
-595.3253803253174
 21
-19.0
 31
14.0499973297119
  0
LINE
  5
97
  8
DEFAULT
 10
-595.3253803253174
 20
-19.0
 30
14.0499973297119
 11
-592.3253803253174
 21
-19.00000000000001
 31
14.04999732963893
  0
LINE
  5
98
  8
DEFAULT
 10
-592.3253803253174
 20
-19.00000000000001
 30
14.04999732963893
 11
-592.3253803253174
 21
-30.0
 31
14.04999732963893
  0
LINE
  5
99
  8
DEFAULT
 10
-592.3253803253174
 20
-30.0
 30
14.04999732963893
 11
-595.3253803253174
 21
-30.0
 31
14.04999732971189
  0
LINE
  5
9A
  8
DEFAULT
 10
-595.3253803253174
 20
-30.0
 30
14.04999732971189
 11
-595.3253803253174
 21
-39.20076201526162
 31
14.04999732963893
  0
LINE
  5
9B
  8
DEFAULT
 10
-595.3253803253174
 20
-39.20076201526162
 30
14.04999732963893
 11
-722.6746196746826
 21
-39.20076201526162
 31
14.04999732963893
  0
LINE
  5
9C
  8
DEFAULT
 10
-722.6746196746826
 20
-39.20076201526162
 30
14.04999732963893
 11
-722.6746196746826
 21
-30.0
 31
14.04999732971189
  0
LINE
  5
9D
  8
DEFAULT
 10
-722.6746196746826
 20
-30.0
 30
14.04999732971189
 11
-725.6746196746826
 21
-30.0
 31
14.04999732963893
  0
LINE
  5
9E
  8
DEFAULT
 10
-725.6746196746826
 20
-30.0
 30
14.04999732963893
 11
-725.6746196746826
 21
-18.99999999999999
 31
14.04999732963893
  0
LINE
  5
9F
  8
DEFAULT
 10
-725.6746196746826
 20
-18.99999999999999
 30
14.04999732963893
 11
-722.6746196746826
 21
-19.0
 31
14.0499973297119
  0
LINE
  5
A0
  8
DEFAULT
 10
-722.6746196746826
 20
-19.0
 30
14.0499973297119
 11
-722.6746196746826
 21
4.398476160211599
 31
14.0499973297119
  0
LINE
  5
A1
  8
DEFAULT
 10
-722.6746196746826
 20
4.398476160211599
 30
14.0499973297119
 11
-725.6746196746826
 21
4.398476160211603
 31
14.04999732963893
  0
LINE
  5
A2
  8
DEFAULT
 10
-725.6746196746826
 20
4.398476160211603
 30
14.04999732963893
 11
-725.6746196746826
 21
15.39847616021159
 31
14.04999732963893
  0
LINE
  5
A3
  8
DEFAULT
 10
-725.6746196746826
 20
15.39847616021159
 30
14.04999732963893
 11
-722.6746196746826
 21
15.39847616021159
 31
14.0499973297119
  0
LINE
  5
A4
  8
DEFAULT
 10
-722.6746196746826
 20
15.39847616021159
 30
14.0499973297119
 11
-722.6746196746826
 21
24.59923817547323
 31
14.04999732963892
  0
LINE
  5
A5
  8
DEFAULT
 10
-722.6746196746826
 20
24.59923817547323
 30
14.04999732963892
 11
-689.0
 21
24.59923817547323
 31
14.04999732963892
  0
LINE
  5
A6
  8
DEFAULT
 10
-689.0
 20
24.59923817547323
 30
14.04999732963892
 11
-689.0
 21
21.59923817547327
 31
14.04999732963893
  0
LINE
  5
A7
  8
DEFAULT
 10
-689.0
 20
21.59923817547327
 30
14.04999732963893
 11
-629.0
 21
21.59923817547327
 31
14.04999732963893
  0
LINE
  5
A8
  8
DEFAULT
 10
-831.0
 20
-50.20076201526163
 30
28.54999828338623
 11
-887.0
 21
-50.20076201526163
 31
28.54999828338623
  0
LINE
  5
A9
  8
DEFAULT
 10
-887.0
 20
-50.20076201526163
 30
28.54999828338623
 11
-887.0
 21
-39.20076201526163
 31
28.54999828338623
  0
LINE
  5
AA
  8
DEFAULT
 10
-887.0
 20
-39.20076201526163
 30
28.54999828338623
 11
-884.0
 21
-39.20076201526163
 31
28.54999828338623
  0
LINE
  5
AB
  8
DEFAULT
 10
-884.0
 20
-39.20076201526163
 30
28.54999828338623
 11
-884.0
 21
-32.20076201526163
 31
28.54999828338623
  0
LINE
  5
AC
  8
DEFAULT
 10
-884.0
 20
-32.20076201526163
 30
28.54999828338623
 11
-887.0
 21
-32.20076201526163
 31
28.54999828338623
  0
LINE
  5
AD
  8
DEFAULT
 10
-887.0
 20
-32.20076201526163
 30
28.54999828338623
 11
-887.0
 21
17.59923817547323
 31
28.54999828338623
  0
LINE
  5
AE
  8
DEFAULT
 10
-887.0
 20
17.59923817547323
 30
28.54999828338623
 11
-884.0
 21
17.59923817547323
 31
28.54999828338623
  0
LINE
  5
AF
  8
DEFAULT
 10
-884.0
 20
17.59923817547323
 30
28.54999828338623
 11
-884.0
 21
24.59923817547323
 31
28.54999828338623
  0
LINE
  5
B0
  8
DEFAULT
 10
-884.0
 20
24.59923817547323
 30
28.54999828338623
 11
-854.0
 21
24.59923817547323
 31
28.54999828338623
  0
LINE
  5
B1
  8
DEFAULT
 10
-854.0
 20
24.59923817547323
 30
28.54999828338623
 11
-854.0
 21
21.59923817547327
 31
28.54999828338623
  0
LINE
  5
B2
  8
DEFAULT
 10
-854.0
 20
21.59923817547327
 30
28.54999828338623
 11
-841.2471335598627
 21
21.59923817547327
 31
28.54999828338623
  0
LINE
  5
B3
  8
DEFAULT
 10
-841.2471335598627
 20
21.59923817547327
 30
28.54999828338623
 11
-841.2471335598627
 21
24.59923817547323
 31
28.54999828338623
  0
LINE
  5
B4
  8
DEFAULT
 10
-841.2471335598627
 20
24.59923817547323
 30
28.54999828338623
 11
-824.0
 21
24.59923817547323
 31
28.54999828338623
  0
LINE
  5
B5
  8
DEFAULT
 10
-824.0
 20
24.59923817547323
 30
28.54999828338623
 11
-824.0
 21
10.2007620152616
 31
28.54999828338623
  0
LINE
  5
B6
  8
DEFAULT
 10
-824.0
 20
10.2007620152616
 30
28.54999828338623
 11
-821.0
 21
10.2007620152616
 31
28.54999828338623
  0
LINE
  5
B7
  8
DEFAULT
 10
-821.0
 20
10.2007620152616
 30
28.54999828338623
 11
-821.0
 21
-5.601523839788328
 31
28.54999828338623
  0
LINE
  5
B8
  8
DEFAULT
 10
-821.0
 20
-5.601523839788328
 30
28.54999828338623
 11
-824.0
 21
-5.601523839788328
 31
28.54999828338623
  0
LINE
  5
B9
  8
DEFAULT
 10
-824.0
 20
-5.601523839788328
 30
28.54999828338623
 11
-824.0
 21
-20.0
 31
28.54999828338623
  0
LINE
  5
BA
  8
DEFAULT
 10
-824.0
 20
-20.0
 30
28.54999828338623
 11
-821.0
 21
-20.0
 31
28.54999828338623
  0
LINE
  5
BB
  8
DEFAULT
 10
-821.0
 20
-20.0
 30
28.54999828338623
 11
-821.0
 21
-35.80228585504992
 31
28.54999828338623
  0
LINE
  5
BC
  8
DEFAULT
 10
-821.0
 20
-35.80228585504992
 30
28.54999828338623
 11
-824.0
 21
-35.80228585504992
 31
28.54999828338623
  0
LINE
  5
BD
  8
DEFAULT
 10
-824.0
 20
-35.80228585504992
 30
28.54999828338623
 11
-824.0
 21
-47.2007620152616
 31
28.54999828338623
  0
LINE
  5
BE
  8
DEFAULT
 10
-824.0
 20
-47.2007620152616
 30
28.54999828338623
 11
-831.0
 21
-47.2007620152616
 31
28.54999828338623
  0
LINE
  5
BF
  8
DEFAULT
 10
-831.0
 20
-47.2007620152616
 30
28.54999828338623
 11
-831.0
 21
-50.20076201526163
 31
28.54999828338623
  0
CIRCLE
  5
C0
  8
DEFAULT
 10
880.5
 20
17.5492379847384
 30
-28.54999828338623
 40
1.499999999999975
210
0.0
220
0.0
230
-1.0
  0
CIRCLE
  5
C1
  8
DEFAULT
 10
880.5000000000002
 20
-29.45076201526172
 30
-28.54999828338623
 40
1.500000000000089
210
0.0
220
0.0
230
-1.0
  0
LINE
  5
C2
  8
DEFAULT
 10
-746.9999999999995
 20
-50.2007620152616
 30
28.54999828338646
 11
-746.9999999999995
 21
-47.2007620152616
 31
28.54999828338578
  0
LINE
  5
C3
  8
DEFAULT
 10
-746.9999999999995
 20
-47.2007620152616
 30
28.54999828338578
 11
-739.9999999999995
 21
-47.20076201526159
 31
28.54999828338646
  0
LINE
  5
C4
  8
DEFAULT
 10
-739.9999999999995
 20
-47.20076201526159
 30
28.54999828338646
 11
-739.9999999999995
 21
-35.80228585504992
 31
28.54999828338646
  0
LINE
  5
C5
  8
DEFAULT
 10
-739.9999999999995
 20
-35.80228585504992
 30
28.54999828338646
 11
-736.9999999999995
 21
-35.80228585504994
 31
28.54999828338646
  0
LINE
  5
C6
  8
DEFAULT
 10
-736.9999999999995
 20
-35.80228585504994
 30
28.54999828338646
 11
-736.9999999999995
 21
-20.0
 31
28.54999828338646
  0
LINE
  5
C7
  8
DEFAULT
 10
-736.9999999999995
 20
-20.0
 30
28.54999828338646
 11
-739.9999999999995
 21
-20.0
 31
28.54999828338646
  0
LINE
  5
C8
  8
DEFAULT
 10
-739.9999999999995
 20
-20.0
 30
28.54999828338646
 11
-739.9999999999995
 21
-5.601523839788328
 31
28.54999828338646
  0
LINE
  5
C9
  8
DEFAULT
 10
-739.9999999999995
 20
-5.601523839788328
 30
28.54999828338646
 11
-736.9999999999995
 21
-5.601523839788337
 31
28.54999828338669
  0
LINE
  5
CA
  8
DEFAULT
 10
-736.9999999999995
 20
-5.601523839788337
 30
28.54999828338669
 11
-736.9999999999995
 21
10.2007620152616
 31
28.54999828338669
  0
LINE
  5
CB
  8
DEFAULT
 10
-736.9999999999995
 20
10.2007620152616
 30
28.54999828338669
 11
-739.9999999999995
 21
10.2007620152616
 31
28.54999828338669
  0
LINE
  5
CC
  8
DEFAULT
 10
-739.9999999999995
 20
10.2007620152616
 30
28.54999828338669
 11
-739.9999999999995
 21
24.59923817547327
 31
28.54999828338669
  0
LINE
  5
CD
  8
DEFAULT
 10
-739.9999999999995
 20
24.59923817547327
 30
28.54999828338669
 11
-757.2471335598622
 21
24.59923817547327
 31
28.54999828338669
  0
LINE
  5
CE
  8
DEFAULT
 10
-757.2471335598622
 20
24.59923817547327
 30
28.54999828338669
 11
-757.2471335598622
 21
21.59923817547327
 31
28.54999828338646
  0
LINE
  5
CF
  8
DEFAULT
 10
-757.2471335598622
 20
21.59923817547327
 30
28.54999828338646
 11
-769.9999999999995
 21
21.59923817547327
 31
28.54999828338646
  0
LINE
  5
D0
  8
DEFAULT
 10
-769.9999999999995
 20
21.59923817547327
 30
28.54999828338646
 11
-769.9999999999995
 21
24.59923817547327
 31
28.54999828338669
  0
LINE
  5
D1
  8
DEFAULT
 10
-769.9999999999995
 20
24.59923817547327
 30
28.54999828338669
 11
-799.9999999999995
 21
24.59923817547327
 31
28.54999828338669
  0
LINE
  5
D2
  8
DEFAULT
 10
-799.9999999999995
 20
24.59923817547327
 30
28.54999828338669
 11
-799.9999999999995
 21
17.59923817547327
 31
28.54999828338669
  0
LINE
  5
D3
  8
DEFAULT
 10
-799.9999999999995
 20
17.59923817547327
 30
28.54999828338669
 11
-802.9999999999995
 21
17.59923817547327
 31
28.54999828338669
  0
LINE
  5
D4
  8
DEFAULT
 10
-802.9999999999995
 20
17.59923817547327
 30
28.54999828338669
 11
-802.9999999999995
 21
-32.2007620152616
 31
28.54999828338646
  0
LINE
  5
D5
  8
DEFAULT
 10
-802.9999999999995
 20
-32.2007620152616
 30
28.54999828338646
 11
-799.9999999999995
 21
-32.2007620152616
 31
28.54999828338646
  0
LINE
  5
D6
  8
DEFAULT
 10
-799.9999999999995
 20
-32.2007620152616
 30
28.54999828338646
 11
-799.9999999999995
 21
-39.2007620152616
 31
28.54999828338646
  0
LINE
  5
D7
  8
DEFAULT
 10
-799.9999999999995
 20
-39.2007620152616
 30
28.54999828338646
 11
-802.9999999999995
 21
-39.2007620152616
 31
28.54999828338646
  0
LINE
  5
D8
  8
DEFAULT
 10
-802.9999999999995
 20
-39.2007620152616
 30
28.54999828338646
 11
-802.9999999999995
 21
-50.2007620152616
 31
28.54999828338646
  0
LINE
  5
D9
  8
DEFAULT
 10
-802.9999999999995
 20
-50.2007620152616
 30
28.54999828338646
 11
-746.9999999999995
 21
-50.2007620152616
 31
28.54999828338646
  0
CIRCLE
  5
DA
  8
DEFAULT
 10
796.4999999999995
 20
17.54923798473828
 30
-28.54999828338669
 40
1.500000000000089
210
0.0
220
0.0
230
-1.0
  0
CIRCLE
  5
DB
  8
DEFAULT
 10
796.4999999999995
 20
-29.4507620152616
 30
-28.54999828338669
 40
1.499999999999975
210
0.0
220
0.0
230
-1.0
  0
LINE
  5
DC
  8
DEFAULT
 10
-461.0
 20
34.60275063544869
 30
51.30637718349898
 11
-460.9999999999999
 21
14.35561707558599
 31
51.30637718349898
  0
LINE
  5
DD
  8
DEFAULT
 10
-460.9999999999999
 20
14.35561707558599
 30
51.30637718349898
 11
-434.2067375895375
 21
14.35561707558598
 31
51.30637718349898
  0
LINE
  5
DE
  8
DEFAULT
 10
-434.2067375895375
 20
14.35561707558598
 30
51.30637718349898
 11
-434.2067375895375
 21
17.35561707558601
 31
51.30637718349898
  0
LINE
  5
DF
  8
DEFAULT
 10
-434.2067375895375
 20
17.35561707558601
 30
51.30637718349898
 11
-412.0000000000001
 21
17.35561707558601
 31
51.30637718349898
  0
LINE
  5
E0
  8
DEFAULT
 10
-412.0000000000001
 20
17.35561707558601
 30
51.30637718349898
 11
-412.0000000000001
 21
14.35561707558598
 31
51.30637718349898
  0
LINE
  5
E1
  8
DEFAULT
 10
-412.0000000000001
 20
14.35561707558598
 30
51.30637718349898
 11
-409.0
 21
14.35561707558598
 31
51.30637718349898
  0
LINE
  5
E2
  8
DEFAULT
 10
-409.0
 20
14.35561707558598
 30
51.30637718349898
 11
-409.0
 21
-28.15714072463949
 31
51.30637718349898
  0
LINE
  5
E3
  8
DEFAULT
 10
-409.0
 20
-28.15714072463949
 30
51.30637718349898
 11
-573.0
 21
-28.15714072463949
 31
51.30637718349898
  0
LINE
  5
E4
  8
DEFAULT
 10
-573.0
 20
-28.15714072463949
 30
51.30637718349898
 11
-573.0
 21
14.35561707558598
 31
51.30637718349898
  0
LINE
  5
E5
  8
DEFAULT
 10
-573.0
 20
14.35561707558598
 30
51.30637718349898
 11
-569.9999999999999
 21
14.35561707558598
 31
51.306377183499
  0
LINE
  5
E6
  8
DEFAULT
 10
-569.9999999999999
 20
14.35561707558598
 30
51.306377183499
 11
-569.9999999999999
 21
17.35561707558601
 31
51.306377183499
  0
LINE
  5
E7
  8
DEFAULT
 10
-569.9999999999999
 20
17.35561707558601
 30
51.306377183499
 11
-547.7932624104624
 21
17.35561707558601
 31
51.306377183499
  0
LINE
  5
E8
  8
DEFAULT
 10
-547.7932624104624
 20
17.35561707558601
 30
51.306377183499
 11
-547.7932624104624
 21
14.35561707558598
 31
51.306377183499
  0
LINE
  5
E9
  8
DEFAULT
 10
-547.7932624104624
 20
14.35561707558598
 30
51.306377183499
 11
-521.0
 21
14.35561707558599
 31
51.30637718349898
  0
LINE
  5
EA
  8
DEFAULT
 10
-521.0
 20
14.35561707558599
 30
51.30637718349898
 11
-521.0
 21
34.60275063544871
 31
51.30637718349898
  0
LINE
  5
EB
  8
DEFAULT
 10
-521.0
 20
34.60275063544871
 30
51.30637718349898
 11
-573.0
 21
34.60275063544871
 31
51.30637718349898
  0
LINE
  5
EC
  8
DEFAULT
 10
-573.0
 20
34.60275063544871
 30
51.30637718349898
 11
-573.0
 21
47.35561707558603
 31
51.30637718349898
  0
LINE
  5
ED
  8
DEFAULT
 10
-573.0
 20
47.35561707558603
 30
51.30637718349898
 11
-570.0
 21
47.35561707558603
 31
51.30637718349898
  0
LINE
  5
EE
  8
DEFAULT
 10
-570.0
 20
47.35561707558603
 30
51.30637718349898
 11
-570.0
 21
61.85561802933336
 31
51.30637718349898
  0
LINE
  5
EF
  8
DEFAULT
 10
-570.0
 20
61.85561802933336
 30
51.30637718349898
 11
-521.0
 21
61.85561802933336
 31
51.30637718349898
  0
LINE
  5
F0
  8
DEFAULT
 10
-521.0
 20
61.85561802933336
 30
51.30637718349898
 11
-521.0
 21
77.35561707558605
 31
51.30637718349898
  0
LINE
  5
F1
  8
DEFAULT
 10
-521.0
 20
77.35561707558605
 30
51.30637718349898
 11
-500.0
 21
77.35561707558605
 31
51.30637718349898
  0
LINE
  5
F2
  8
DEFAULT
 10
-500.0
 20
77.35561707558605
 30
51.30637718349898
 11
-500.0
 21
64.56859933183173
 31
51.30637718349898
  0
LINE
  5
F3
  8
DEFAULT
 10
-500.0
 20
64.56859933183173
 30
51.30637718349898
 11
-482.0
 21
64.56859933156956
 31
51.30637718349898
  0
LINE
  5
F4
  8
DEFAULT
 10
-482.0
 20
64.56859933156956
 30
51.30637718349898
 11
-481.9999999999999
 21
77.35561707558605
 31
51.30637718349898
  0
LINE
  5
F5
  8
DEFAULT
 10
-481.9999999999999
 20
77.35561707558605
 30
51.30637718349898
 11
-460.9999999999999
 21
77.35561707558605
 31
51.30637718349898
  0
LINE
  5
F6
  8
DEFAULT
 10
-460.9999999999999
 20
77.35561707558605
 30
51.30637718349898
 11
-460.9999999999999
 21
61.85561802933334
 31
51.30637718349898
  0
LINE
  5
F7
  8
DEFAULT
 10
-460.9999999999999
 20
61.85561802933334
 30
51.30637718349898
 11
-412.0
 21
61.85561802933334
 31
51.30637718349898
  0
LINE
  5
F8
  8
DEFAULT
 10
-412.0
 20
61.85561802933334
 30
51.30637718349898
 11
-412.0
 21
47.355617075586
 31
51.30637718349898
  0
LINE
  5
F9
  8
DEFAULT
 10
-412.0
 20
47.355617075586
 30
51.30637718349898
 11
-409.0
 21
47.355617075586
 31
51.30637718349898
  0
LINE
  5
FA
  8
DEFAULT
 10
-409.0
 20
47.355617075586
 30
51.30637718349898
 11
-409.0
 21
34.60275063544869
 31
51.30637718349898
  0
LINE
  5
FB
  8
DEFAULT
 10
-409.0
 20
34.60275063544869
 30
51.30637718349898
 11
-461.0
 21
34.60275063544869
 31
51.30637718349898
  0
LINE
  5
FC
  8
DEFAULT
 10
-347.9999999999998
 20
-50.2007620152616
 30
61.54999828338632
 11
-347.9999999999998
 21
-47.2007620152616
 31
61.54999828338632
  0
LINE
  5
FD
  8
DEFAULT
 10
-347.9999999999998
 20
-47.2007620152616
 30
61.54999828338632
 11
-265.9999999999994
 21
-47.2007620152616
 31
61.54999828338632
  0
LINE
  5
FE
  8
DEFAULT
 10
-265.9999999999994
 20
-47.2007620152616
 30
61.54999828338632
 11
-265.9999999999994
 21
-50.2007620152616
 31
61.5499982833863
  0
LINE
  5
FF
  8
DEFAULT
 10
-265.9999999999994
 20
-50.2007620152616
 30
61.5499982833863
 11
-224.9999999999999
 21
-50.2007620152616
 31
61.5499982833863
  0
LINE
  5
100
  8
DEFAULT
 10
-224.9999999999999
 20
-50.2007620152616
 30
61.5499982833863
 11
-224.9999999999999
 21
-35.80228585504992
 31
61.5499982833863
  0
LINE
  5
101
  8
DEFAULT
 10
-224.9999999999999
 20
-35.80228585504992
 30
61.5499982833863
 11
-228.0
 21
-35.80228585504992
 31
61.5499982833863
  0
LINE
  5
102
  8
DEFAULT
 10
-228.0
 20
-35.80228585504992
 30
61.5499982833863
 11
-228.0
 21
-20.0
 31
61.5499982833863
  0
LINE
  5
103
  8
DEFAULT
 10
-228.0
 20
-20.0
 30
61.5499982833863
 11
-224.9999999999999
 21
-20.0
 31
61.5499982833863
  0
LINE
  5
104
  8
DEFAULT
 10
-224.9999999999999
 20
-20.0
 30
61.5499982833863
 11
-224.9999999999999
 21
-5.601523839788328
 31
61.5499982833863
  0
LINE
  5
105
  8
DEFAULT
 10
-224.9999999999999
 20
-5.601523839788328
 30
61.5499982833863
 11
-228.0
 21
-5.601523839788328
 31
61.5499982833863
  0
LINE
  5
106
  8
DEFAULT
 10
-228.0
 20
-5.601523839788328
 30
61.5499982833863
 11
-228.0000000000001
 21
10.2007620152616
 31
61.5499982833863
  0
LINE
  5
107
  8
DEFAULT
 10
-228.0000000000001
 20
10.2007620152616
 30
61.5499982833863
 11
-225.0
 21
10.2007620152616
 31
61.5499982833863
  0
LINE
  5
108
  8
DEFAULT
 10
-225.0
 20
10.2007620152616
 30
61.5499982833863
 11
-225.0
 21
24.59923817547327
 31
61.5499982833863
  0
LINE
  5
109
  8
DEFAULT
 10
-225.0
 20
24.59923817547327
 30
61.5499982833863
 11
-228.0000000000001
 21
24.59923817547327
 31
61.5499982833863
  0
LINE
  5
10A
  8
DEFAULT
 10
-228.0000000000001
 20
24.59923817547327
 30
61.5499982833863
 11
-228.0000000000001
 21
21.59923817547327
 31
61.54999828338629
  0
LINE
  5
10B
  8
DEFAULT
 10
-228.0000000000001
 20
21.59923817547327
 30
61.54999828338629
 11
-250.2067375895375
 21
21.59923817547327
 31
61.54999828338629
  0
LINE
  5
10C
  8
DEFAULT
 10
-250.2067375895375
 20
21.59923817547327
 30
61.54999828338629
 11
-250.2067375895375
 21
24.59923817547327
 31
61.54999828338629
  0
LINE
  5
10D
  8
DEFAULT
 10
-250.2067375895375
 20
24.59923817547327
 30
61.54999828338629
 11
-276.9999999999999
 21
24.59923817547327
 31
61.54999828338628
  0
LINE
  5
10E
  8
DEFAULT
 10
-276.9999999999999
 20
24.59923817547327
 30
61.54999828338628
 11
-276.9999999999999
 21
21.59923817547327
 31
61.54999828338628
  0
LINE
  5
10F
  8
DEFAULT
 10
-276.9999999999999
 20
21.59923817547327
 30
61.54999828338628
 11
-337.0
 21
21.59923817547327
 31
61.54999828338628
  0
LINE
  5
110
  8
DEFAULT
 10
-337.0
 20
21.59923817547327
 30
61.54999828338628
 11
-337.0
 21
24.59923817547327
 31
61.54999828338629
  0
LINE
  5
111
  8
DEFAULT
 10
-337.0
 20
24.59923817547327
 30
61.54999828338629
 11
-363.7932624104624
 21
24.59923817547329
 31
61.54999828338629
  0
LINE
  5
112
  8
DEFAULT
 10
-363.7932624104624
 20
24.59923817547329
 30
61.54999828338629
 11
-363.7932624104624
 21
21.59923817547329
 31
61.54999828338629
  0
LINE
  5
113
  8
DEFAULT
 10
-363.7932624104624
 20
21.59923817547329
 30
61.54999828338629
 11
-385.9999999999999
 21
21.59923817547329
 31
61.54999828338629
  0
LINE
  5
114
  8
DEFAULT
 10
-385.9999999999999
 20
21.59923817547329
 30
61.54999828338629
 11
-385.9999999999999
 21
24.59923817547327
 31
61.5499982833863
  0
LINE
  5
115
  8
DEFAULT
 10
-385.9999999999999
 20
24.59923817547327
 30
61.5499982833863
 11
-389.0
 21
24.59923817547327
 31
61.5499982833863
  0
LINE
  5
116
  8
DEFAULT
 10
-389.0
 20
24.59923817547327
 30
61.5499982833863
 11
-389.0
 21
10.2007620152616
 31
61.5499982833863
  0
LINE
  5
117
  8
DEFAULT
 10
-389.0
 20
10.2007620152616
 30
61.5499982833863
 11
-385.9999999999999
 21
10.2007620152616
 31
61.5499982833863
  0
LINE
  5
118
  8
DEFAULT
 10
-385.9999999999999
 20
10.2007620152616
 30
61.5499982833863
 11
-386.0
 21
-5.601523839788328
 31
61.5499982833863
  0
LINE
  5
119
  8
DEFAULT
 10
-386.0
 20
-5.601523839788328
 30
61.5499982833863
 11
-389.0000000000001
 21
-5.601523839788328
 31
61.5499982833863
  0
LINE
  5
11A
  8
DEFAULT
 10
-389.0000000000001
 20
-5.601523839788328
 30
61.5499982833863
 11
-389.0000000000001
 21
-20.0
 31
61.5499982833863
  0
LINE
  5
11B
  8
DEFAULT
 10
-389.0000000000001
 20
-20.0
 30
61.5499982833863
 11
-386.0
 21
-20.0
 31
61.5499982833863
  0
LINE
  5
11C
  8
DEFAULT
 10
-386.0
 20
-20.0
 30
61.5499982833863
 11
-386.0
 21
-35.80228585504992
 31
61.5499982833863
  0
LINE
  5
11D
  8
DEFAULT
 10
-386.0
 20
-35.80228585504992
 30
61.5499982833863
 11
-389.0000000000001
 21
-35.80228585504992
 31
61.5499982833863
  0
LINE
  5
11E
  8
DEFAULT
 10
-389.0000000000001
 20
-35.80228585504992
 30
61.5499982833863
 11
-389.0000000000001
 21
-50.2007620152616
 31
61.5499982833863
  0
LINE
  5
11F
  8
DEFAULT
 10
-389.0000000000001
 20
-50.2007620152616
 30
61.5499982833863
 11
-347.9999999999998
 21
-50.2007620152616
 31
61.54999828338632
  0
ENDSEC
  0
EOF
