  0
SECTION
  2
HEADER
  9
$ACADVER
  1
AC1009
  9
$DWGCODEPAGE
  3
ansi_1252
  9
$INSBASE
 10
0.0
 20
0.0
 30
0.0
  9
$EXTMIN
 10
-17.00000000000001
 20
-30.0
 30
0.0
  9
$EXTMAX
 10
36.0
 20
17.0
 30
0.0
  9
$LIMMIN
 10
0.0
 20
0.0
  9
$LIMMAX
 10
12.0
 20
9.0
  9
$ORTHOMODE
 70
     0
  9
$REGENMODE
 70
     1
  9
$FILLMODE
 70
     1
  9
$QTEXTMODE
 70
     0
  9
$MIRRTEXT
 70
     1
  9
$DRAGMODE
 70
     2
  9
$LTSCALE
 40
1.0
  9
$OSMODE
 70
    37
  9
$ATTMODE
 70
     1
  9
$TEXTSIZE
 40
0.2
  9
$TRACEWID
 40
0.05
  9
$TEXTSTYLE
  7
STANDARD
  9
$CLAYER
  8
DEFAULT
  9
$CELTYPE
  6
BYLAYER
  9
$CECOLOR
 62
   256
  9
$DIMSCALE
 40
1.0
  9
$DIMASZ
 40
0.18
  9
$DIMEXO
 40
0.0625
  9
$DIMDLI
 40
0.38
  9
$DIMRND
 40
0.0
  9
$DIMDLE
 40
0.0
  9
$DIMEXE
 40
0.18
  9
$DIMTP
 40
0.0
  9
$DIMTM
 40
0.0
  9
$DIMTXT
 40
0.18
  9
$DIMCEN
 40
0.09
  9
$DIMTSZ
 40
0.0
  9
$DIMTOL
 70
     0
  9
$DIMLIM
 70
     0
  9
$DIMTIH
 70
     1
  9
$DIMTOH
 70
     1
  9
$DIMSE1
 70
     0
  9
$DIMSE2
 70
     0
  9
$DIMTAD
 70
     0
  9
$DIMZIN
 70
     0
  9
$DIMBLK
  1

  9
$DIMASO
 70
     1
  9
$DIMSHO
 70
     1
  9
$DIMPOST
  1

  9
$DIMAPOST
  1

  9
$DIMALT
 70
     0
  9
$DIMALTD
 70
     2
  9
$DIMALTF
 40
25.4
  9
$DIMLFAC
 40
1.0
  9
$DIMTOFL
 70
     0
  9
$DIMTVP
 40
0.0
  9
$DIMTIX
 70
     0
  9
$DIMSOXD
 70
     0
  9
$DIMSAH
 70
     0
  9
$DIMBLK1
  1

  9
$DIMBLK2
  1

  9
$DIMSTYLE
  2
STANDARD_ACAD
  9
$DIMCLRD
 70
     0
  9
$DIMCLRE
 70
     0
  9
$DIMCLRT
 70
     0
  9
$DIMTFAC
 40
1.0
  9
$DIMGAP
 40
0.09
  9
$LUNITS
 70
     2
  9
$LUPREC
 70
     3
  9
$SKETCHINC
 40
0.1
  9
$FILLETRAD
 40
0.0
  9
$AUNITS
 70
     0
  9
$AUPREC
 70
     0
  9
$MENU
  1
.
  9
$ELEVATION
 40
0.0
  9
$PELEVATION
 40
0.0
  9
$THICKNESS
 40
0.0
  9
$LIMCHECK
 70
     0
  9
$CHAMFERA
 40
0.0
  9
$CHAMFERB
 40
0.0
  9
$SKPOLY
 70
     0
  9
$TDCREATE
 40
2461067.730567905
  9
$TDUPDATE
 40
2461067.730579792
  9
$TDINDWG
 40
0.0000000116
  9
$TDUSRTIMER
 40
0.0000000116
  9
$USRTIMER
 70
     1
  9
$ANGBASE
 50
0.0
  9
$ANGDIR
 70
     0
  9
$PDMODE
 70
     0
  9
$PDSIZE
 40
0.0
  9
$PLINEWID
 40
0.0
  9
$COORDS
 70
     1
  9
$SPLFRAME
 70
     0
  9
$SPLINETYPE
 70
     6
  9
$SPLINESEGS
 70
     8
  9
$ATTDIA
 70
     0
  9
$ATTREQ
 70
     1
  9
$HANDLING
 70
     1
  9
$HANDSEED
  5
185
  9
$SURFTAB1
 70
     6
  9
$SURFTAB2
 70
     6
  9
$SURFTYPE
 70
     6
  9
$SURFU
 70
     6
  9
$SURFV
 70
     6
  9
$UCSNAME
  2

  9
$UCSORG
 10
0.0
 20
0.0
 30
0.0
  9
$UCSXDIR
 10
1.0
 20
0.0
 30
0.0
  9
$UCSYDIR
 10
0.0
 20
1.0
 30
0.0
  9
$PUCSNAME
  2

  9
$PUCSORG
 10
0.0
 20
0.0
 30
0.0
  9
$PUCSXDIR
 10
1.0
 20
0.0
 30
0.0
  9
$PUCSYDIR
 10
0.0
 20
1.0
 30
0.0
  9
$USERI1
 70
     0
  9
$USERI2
 70
     0
  9
$USERI3
 70
     0
  9
$USERI4
 70
     0
  9
$USERI5
 70
     0
  9
$USERR1
 40
0.0
  9
$USERR2
 40
0.0
  9
$USERR3
 40
0.0
  9
$USERR4
 40
0.0
  9
$USERR5
 40
0.0
  9
$WORLDVIEW
 70
     1
  9
$SHADEDGE
 70
     3
  9
$SHADEDIF
 70
    70
  9
$TILEMODE
 70
     1
  9
$MAXACTVP
 70
    64
  9
$PLIMCHECK
 70
     0
  9
$PEXTMIN
 10
1.000000000000000E+20
 20
1.000000000000000E+20
 30
1.000000000000000E+20
  9
$PEXTMAX
 10
-1.000000000000000E+20
 20
-1.000000000000000E+20
 30
-1.000000000000000E+20
  9
$PLIMMIN
 10
0.0
 20
0.0
  9
$PLIMMAX
 10
12.0
 20
9.0
  9
$UNITMODE
 70
     0
  9
$VISRETAIN
 70
     1
  9
$PLINEGEN
 70
     0
  9
$PSLTSCALE
 70
     1
  0
ENDSEC
  0
SECTION
  2
TABLES
  0
TABLE
  2
VPORT
 70
     1
  0
VPORT
  2
*ACTIVE
 70
     0
 10
0.0
 20
0.0
 11
1.0
 21
1.0
 12
10.42990654205607
 22
4.5
 13
0.0
 23
0.0
 14
0.5
 24
0.5
 15
0.5
 25
0.5
 16
0.0
 26
0.0
 36
1.0
 17
0.0
 27
0.0
 37
0.0
 40
9.0
 41
1.972972972850329
 42
50.0
 43
0.0
 44
0.0
 50
0.0
 51
0.0
 71
     0
 72
   100
 73
     1
 74
     3
 75
     0
 76
     0
 77
     0
 78
     0
  0
ENDTAB
  0
TABLE
  2
LTYPE
 70
     1
  0
LTYPE
  2
CONTINUOUS
 70
     0
  3
Solid line
 72
    65
 73
     0
 40
0.0
  0
ENDTAB
  0
TABLE
  2
LAYER
 70
     2
  0
LAYER
  2
0
 70
     0
 62
     7
  6
CONTINUOUS
  0
LAYER
  2
DEFAULT
 70
     0
 62
     7
  6
CONTINUOUS
  0
ENDTAB
  0
TABLE
  2
STYLE
 70
     1
  0
STYLE
  2
STANDARD
 70
     0
 40
0.0
 41
1.0
 50
0.0
 71
     0
 42
0.2
  3
txt
  4

  0
ENDTAB
  0
TABLE
  2
VIEW
 70
     0
  0
ENDTAB
  0
TABLE
  2
UCS
 70
     0
  0
ENDTAB
  0
TABLE
  2
APPID
 70
     2
  0
APPID
  2
ACAD
 70
     0
  0
APPID
  2
RHINO
 70
     0
  0
ENDTAB
  0
TABLE
  2
DIMSTYLE
 70
     1
  0
DIMSTYLE
  2
STANDARD_ACAD
 70
     0
  3

  4

  5

  6

  7

 40
1.0
 41
0.18
 42
0.0625
 43
0.38
 44
0.18
 45
0.0
 46
0.0
 47
0.0
 48
0.0
140
0.18
141
0.09
142
0.0
143
25.4
144
1.0
145
0.0
146
1.0
147
0.09
 71
     0
 72
     0
 73
     1
 74
     1
 75
     0
 76
     0
 77
     0
 78
     0
170
     0
171
     2
172
     0
173
     0
174
     0
175
     0
176
     0
177
     0
178
     0
  0
ENDTAB
  0
ENDSEC
  0
SECTION
  2
BLOCKS
  0
BLOCK
  8
0
  2
$MODEL_SPACE
 70
     0
 10
0.0
 20
0.0
 30
0.0
  3
$MODEL_SPACE
  1

  0
ENDBLK
  5
21
  8
0
  0
BLOCK
 67
     1
  8
0
  2
$PAPER_SPACE
 70
     0
 10
0.0
 20
0.0
 30
0.0
  3
$PAPER_SPACE
  1

  0
ENDBLK
  5
1D
 67
     1
  8
0
  0
ENDSEC
  0
SECTION
  2
ENTITIES
  0
CIRCLE
  5
60
  8
DEFAULT
 10
31.0
 20
-13.0
 30
0.0
 40
1.5
  0
CIRCLE
  5
61
  8
DEFAULT
 10
31.0
 20
-13.0
 30
0.0
 40
5.0
  0
CIRCLE
  5
62
  8
DEFAULT
 10
20.0
 20
-11.0
 30
0.0
 40
1.5
  0
CIRCLE
  5
63
  8
DEFAULT
 10
20.0
 20
-11.0
 30
0.0
 40
5.0
  0
POLYLINE
  5
64
  8
DEFAULT
 66
     1
 10
0.0
 20
0.0
 30
0.0
 70
     1
  0
VERTEX
  5
65
  8
DEFAULT
 10
-0.9375631507476747
 20
-30.0
 30
0.0
  0
VERTEX
  5
66
  8
DEFAULT
 10
22.93756315074767
 20
-30.0
 30
0.0
 42
0.4142135623730942
  0
VERTEX
  5
67
  8
DEFAULT
 10
28.48740969950637
 20
-24.4501534512413
 30
0.0
  0
VERTEX
  5
68
  8
DEFAULT
 10
28.48740969950638
 20
-23.5498465487587
 30
0.0
 42
0.4142135623730961
  0
VERTEX
  5
69
  8
DEFAULT
 10
22.93756315074767
 20
-18.0
 30
0.0
  0
VERTEX
  5
6A
  8
DEFAULT
 10
-0.9375631507476747
 20
-18.0
 30
0.0
 42
0.4142135623730952
  0
VERTEX
  5
6B
  8
DEFAULT
 10
-6.487409699506376
 20
-23.5498465487587
 30
0.0
  0
VERTEX
  5
6C
  8
DEFAULT
 10
-6.487409699506376
 20
-24.4501534512413
 30
0.0
 42
0.4142135623730956
  0
SEQEND
  5
6D
  8
DEFAULT
  0
POLYLINE
  5
6E
  8
DEFAULT
 66
     1
 10
0.0
 20
0.0
 30
0.0
 70
     1
  0
VERTEX
  5
6F
  8
DEFAULT
 10
31.49857609843004
 20
-4.421398563761885
 30
0.0
 42
-0.1445588934219147
  0
VERTEX
  5
70
  8
DEFAULT
 10
31.76532720234275
 20
-5.901043217880861
 30
0.0
 42
-0.022178575599218
  0
VERTEX
  5
71
  8
DEFAULT
 10
31.22778973434332
 20
-6.211390619729841
 30
0.0
 42
-0.1445588934219174
  0
VERTEX
  5
72
  8
DEFAULT
 10
30.07975542725881
 20
-5.240555060194402
 30
0.0
  0
VERTEX
  5
73
  8
DEFAULT
 10
29.78275636053828
 20
-4.492178620553762
 30
0.0
 42
-0.0580627720770822
  0
VERTEX
  5
74
  8
DEFAULT
 10
28.70217701329244
 20
-4.781718984006035
 30
0.0
  0
VERTEX
  5
75
  8
DEFAULT
 10
28.81915649643252
 20
-5.578331525688843
 30
0.0
 42
-0.1445588934219185
  0
VERTEX
  5
76
  8
DEFAULT
 10
28.31034740184898
 20
-6.993116936686071
 30
0.0
 42
-0.0221785755992156
  0
VERTEX
  5
77
  8
DEFAULT
 10
27.68965259815102
 20
-6.993116936686071
 30
0.0
 42
-0.1445588934219237
  0
VERTEX
  5
78
  8
DEFAULT
 10
27.18084350356748
 20
-5.578331525688843
 30
0.0
  0
VERTEX
  5
79
  8
DEFAULT
 10
27.29782298670756
 20
-4.781718984006036
 30
0.0
 42
-0.0580627720770824
  0
VERTEX
  5
7A
  8
DEFAULT
 10
26.21724363946171
 20
-4.492178620553761
 30
0.0
  0
VERTEX
  5
7B
  8
DEFAULT
 10
25.92024457274119
 20
-5.240555060194402
 30
0.0
 42
-0.1445588934219136
  0
VERTEX
  5
7C
  8
DEFAULT
 10
24.77221026565667
 20
-6.211390619729841
 30
0.0
 42
-0.022178575599218
  0
VERTEX
  5
7D
  8
DEFAULT
 10
24.23467279765725
 20
-5.901043217880862
 30
0.0
 42
-0.1445588934219125
  0
VERTEX
  5
7E
  8
DEFAULT
 10
24.50142390156996
 20
-4.421398563761885
 30
0.0
  0
VERTEX
  5
7F
  8
DEFAULT
 10
25.00103737653225
 20
-3.790001607261323
 30
0.0
 42
-0.0580627720770822
  0
VERTEX
  5
80
  8
DEFAULT
 10
24.20999839273868
 20
-2.998962623467752
 30
0.0
  0
VERTEX
  5
81
  8
DEFAULT
 10
23.57860143623812
 20
-3.498576098430037
 30
0.0
 42
-0.1445588934219134
  0
VERTEX
  5
82
  8
DEFAULT
 10
22.09895678211914
 20
-3.76532720234275
 30
0.0
 42
-0.0221785755992133
  0
VERTEX
  5
83
  8
DEFAULT
 10
21.78860938027016
 20
-3.227789734343319
 30
0.0
 42
-0.1445588934219084
  0
VERTEX
  5
84
  8
DEFAULT
 10
22.7594449398056
 20
-2.079755427258803
 30
0.0
  0
VERTEX
  5
85
  8
DEFAULT
 10
23.50782137944624
 20
-1.782756360538282
 30
0.0
 42
-0.0580627720770823
  0
VERTEX
  5
86
  8
DEFAULT
 10
23.21828101599397
 20
-0.702177013292438
 30
0.0
  0
VERTEX
  5
87
  8
DEFAULT
 10
22.42166847431116
 20
-0.8191564964325206
 30
0.0
 42
-0.1445588934219136
  0
VERTEX
  5
88
  8
DEFAULT
 10
21.00688306331393
 20
-0.3103474018489782
 30
0.0
 42
-0.02217857559922
  0
VERTEX
  5
89
  8
DEFAULT
 10
21.00688306331393
 20
0.310347401848982
 30
0.0
 42
-0.1445588934219135
  0
VERTEX
  5
8A
  8
DEFAULT
 10
22.42166847431116
 20
0.8191564964325173
 30
0.0
  0
VERTEX
  5
8B
  8
DEFAULT
 10
23.21828101599396
 20
0.7021770132924396
 30
0.0
 42
-0.0580627720770797
  0
VERTEX
  5
8C
  8
DEFAULT
 10
23.50782137944624
 20
1.782756360538284
 30
0.0
  0
VERTEX
  5
8D
  8
DEFAULT
 10
22.7594449398056
 20
2.079755427258805
 30
0.0
 42
-0.1445588934219194
  0
VERTEX
  5
8E
  8
DEFAULT
 10
21.78860938027016
 20
3.227789734343323
 30
0.0
 42
-0.0221785755992159
  0
VERTEX
  5
8F
  8
DEFAULT
 10
22.09895678211914
 20
3.765327202342754
 30
0.0
 42
-0.1445588934219127
  0
VERTEX
  5
90
  8
DEFAULT
 10
23.57860143623812
 20
3.498576098430039
 30
0.0
  0
VERTEX
  5
91
  8
DEFAULT
 10
24.20999839273868
 20
2.998962623467754
 30
0.0
 42
-0.0580627720770825
  0
VERTEX
  5
92
  8
DEFAULT
 10
25.00103737653225
 20
3.790001607261324
 30
0.0
  0
VERTEX
  5
93
  8
DEFAULT
 10
24.50142390156996
 20
4.421398563761885
 30
0.0
 42
-0.1445588934219196
  0
VERTEX
  5
94
  8
DEFAULT
 10
24.23467279765725
 20
5.901043217880861
 30
0.0
 42
-0.022178575599218
  0
VERTEX
  5
95
  8
DEFAULT
 10
24.77221026565668
 20
6.211390619729842
 30
0.0
 42
-0.1445588934219076
  0
VERTEX
  5
96
  8
DEFAULT
 10
25.9202445727412
 20
5.240555060194403
 30
0.0
  0
VERTEX
  5
97
  8
DEFAULT
 10
26.21724363946172
 20
4.492178620553762
 30
0.0
 42
-0.0580627720770822
  0
VERTEX
  5
98
  8
DEFAULT
 10
27.29782298670756
 20
4.781718984006035
 30
0.0
  0
VERTEX
  5
99
  8
DEFAULT
 10
27.18084350356748
 20
5.578331525688843
 30
0.0
 42
-0.1445588934219274
  0
VERTEX
  5
9A
  8
DEFAULT
 10
27.68965259815102
 20
6.993116936686071
 30
0.0
 42
-0.0221785755992158
  0
VERTEX
  5
9B
  8
DEFAULT
 10
28.31034740184898
 20
6.993116936686071
 30
0.0
 42
-0.1445588934219043
  0
VERTEX
  5
9C
  8
DEFAULT
 10
28.81915649643252
 20
5.578331525688843
 30
0.0
  0
VERTEX
  5
9D
  8
DEFAULT
 10
28.70217701329244
 20
4.781718984006035
 30
0.0
 42
-0.0580627720770824
  0
VERTEX
  5
9E
  8
DEFAULT
 10
29.78275636053829
 20
4.49217862055376
 30
0.0
  0
VERTEX
  5
9F
  8
DEFAULT
 10
30.07975542725881
 20
5.240555060194401
 30
0.0
 42
-0.1445588934219118
  0
VERTEX
  5
A0
  8
DEFAULT
 10
31.22778973434332
 20
6.211390619729836
 30
0.0
 42
-0.0221785755992155
  0
VERTEX
  5
A1
  8
DEFAULT
 10
31.76532720234275
 20
5.901043217880861
 30
0.0
 42
-0.1445588934219008
  0
VERTEX
  5
A2
  8
DEFAULT
 10
31.49857609843004
 20
4.421398563761883
 30
0.0
  0
VERTEX
  5
A3
  8
DEFAULT
 10
30.99896262346776
 20
3.790001607261322
 30
0.0
 42
-0.0580627720770824
  0
VERTEX
  5
A4
  8
DEFAULT
 10
31.79000160726133
 20
2.99896262346775
 30
0.0
  0
VERTEX
  5
A5
  8
DEFAULT
 10
32.42139856376188
 20
3.498576098430036
 30
0.0
 42
-0.1445588934219118
  0
VERTEX
  5
A6
  8
DEFAULT
 10
33.90104321788087
 20
3.765327202342745
 30
0.0
 42
-0.0221785755992172
  0
VERTEX
  5
A7
  8
DEFAULT
 10
34.21139061972985
 20
3.227789734343317
 30
0.0
 42
-0.1445588934219126
  0
VERTEX
  5
A8
  8
DEFAULT
 10
33.2405550601944
 20
2.079755427258801
 30
0.0
  0
VERTEX
  5
A9
  8
DEFAULT
 10
32.49217862055376
 20
1.782756360538282
 30
0.0
 42
-0.0580627720770824
  0
VERTEX
  5
AA
  8
DEFAULT
 10
32.78171898400603
 20
0.702177013292438
 30
0.0
  0
VERTEX
  5
AB
  8
DEFAULT
 10
33.57833152568884
 20
0.819156496432519
 30
0.0
 42
-0.1445588934219134
  0
VERTEX
  5
AC
  8
DEFAULT
 10
34.99311693668607
 20
0.3103474018489797
 30
0.0
 42
-0.0221785755992198
  0
VERTEX
  5
AD
  8
DEFAULT
 10
34.99311693668607
 20
-0.3103474018489773
 30
0.0
 42
-0.1445588934219132
  0
VERTEX
  5
AE
  8
DEFAULT
 10
33.57833152568884
 20
-0.8191564964325173
 30
0.0
  0
VERTEX
  5
AF
  8
DEFAULT
 10
32.78171898400603
 20
-0.7021770132924381
 30
0.0
 42
-0.058062772077085
  0
VERTEX
  5
B0
  8
DEFAULT
 10
32.49217862055376
 20
-1.782756360538285
 30
0.0
  0
VERTEX
  5
B1
  8
DEFAULT
 10
33.2405550601944
 20
-2.079755427258807
 30
0.0
 42
-0.1445588934219179
  0
VERTEX
  5
B2
  8
DEFAULT
 10
34.21139061972984
 20
-3.227789734343326
 30
0.0
 42
-0.0221785755992205
  0
VERTEX
  5
B3
  8
DEFAULT
 10
33.90104321788086
 20
-3.765327202342753
 30
0.0
 42
-0.1445588934219114
  0
VERTEX
  5
B4
  8
DEFAULT
 10
32.42139856376188
 20
-3.49857609843004
 30
0.0
  0
VERTEX
  5
B5
  8
DEFAULT
 10
31.79000160726132
 20
-2.998962623467753
 30
0.0
 42
-0.0580627720770822
  0
VERTEX
  5
B6
  8
DEFAULT
 10
30.99896262346775
 20
-3.790001607261324
 30
0.0
  0
SEQEND
  5
B7
  8
DEFAULT
  0
CIRCLE
  5
B8
  8
DEFAULT
 10
28.0
 20
0.0
 30
0.0
 40
1.5
  0
CIRCLE
  5
B9
  8
DEFAULT
 10
0.0
 20
-24.0
 30
0.0
 40
1.5
  0
CIRCLE
  5
BA
  8
DEFAULT
 10
22.0
 20
-24.0
 30
0.0
 40
1.5
  0
CIRCLE
  5
BB
  8
DEFAULT
 10
0.0
 20
0.0
 30
0.0
 40
1.5
  0
POLYLINE
  5
BC
  8
DEFAULT
 66
     1
 10
0.0
 20
0.0
 30
0.0
 70
     1
  0
VERTEX
  5
BD
  8
DEFAULT
 10
14.23011025093495
 20
-4.853622458068328
 30
0.0
 42
-0.1033473369816174
  0
VERTEX
  5
BE
  8
DEFAULT
 10
15.8443707550533
 20
-6.160837230150759
 30
0.0
 42
-0.0109279744031933
  0
VERTEX
  5
BF
  8
DEFAULT
 10
15.56003178775815
 20
-6.847292221305877
 30
0.0
 42
-0.1033473369816164
  0
VERTEX
  5
C0
  8
DEFAULT
 10
13.49423680888773
 20
-6.63017810204889
 30
0.0
  0
VERTEX
  5
C1
  8
DEFAULT
 10
13.31286490382014
 20
-6.541063908312928
 30
0.0
 42
-0.0170931651199371
  0
VERTEX
  5
C2
  8
DEFAULT
 10
12.83492732866496
 20
-7.435222220477971
 30
0.0
  0
VERTEX
  5
C3
  8
DEFAULT
 10
13.00978790434286
 20
-7.536518254687861
 30
0.0
 42
-0.1033473369816168
  0
VERTEX
  5
C4
  8
DEFAULT
 10
14.33800589468864
 20
-9.13354186303834
 30
0.0
 42
-0.0109279744031913
  0
VERTEX
  5
C5
  8
DEFAULT
 10
13.92520969564647
 20
-9.751335033331264
 30
0.0
 42
-0.1033473369816174
  0
VERTEX
  5
C6
  8
DEFAULT
 10
11.94146525147955
 20
-9.13537609334917
 30
0.0
  0
VERTEX
  5
C7
  8
DEFAULT
 10
11.78096367346271
 20
-9.012590300493631
 30
0.0
 42
-0.017093165119937
  0
VERTEX
  5
C8
  8
DEFAULT
 10
11.13776790174523
 20
-9.796326615974671
 30
0.0
  0
VERTEX
  5
C9
  8
DEFAULT
 10
11.28950670455999
 20
-9.92978988130788
 30
0.0
 42
-0.1033473369816187
  0
VERTEX
  5
CA
  8
DEFAULT
 10
12.28063950863743
 20
-11.75524960427866
 30
0.0
 42
-0.0109279744031876
  0
VERTEX
  5
CB
  8
DEFAULT
 10
11.75524960427865
 20
-12.28063950863743
 30
0.0
 42
-0.1033473369816158
  0
VERTEX
  5
CC
  8
DEFAULT
 10
9.929789881307876
 20
-11.28950670455999
 30
0.0
  0
VERTEX
  5
CD
  8
DEFAULT
 10
9.796326615974662
 20
-11.13776790174523
 30
0.0
 42
-0.017093165119937
  0
VERTEX
  5
CE
  8
DEFAULT
 10
9.012590300493624
 20
-11.78096367346272
 30
0.0
  0
VERTEX
  5
CF
  8
DEFAULT
 10
9.135376093349167
 20
-11.94146525147956
 30
0.0
 42
-0.1033473369816189
  0
VERTEX
  5
D0
  8
DEFAULT
 10
9.75133503333126
 20
-13.92520969564647
 30
0.0
 42
-0.0109279744031933
  0
VERTEX
  5
D1
  8
DEFAULT
 10
9.133541863038337
 20
-14.33800589468864
 30
0.0
 42
-0.1033473369816165
  0
VERTEX
  5
D2
  8
DEFAULT
 10
7.536518254687856
 20
-13.00978790434287
 30
0.0
  0
VERTEX
  5
D3
  8
DEFAULT
 10
7.435222220477968
 20
-12.83492732866496
 30
0.0
 42
-0.017093165119937
  0
VERTEX
  5
D4
  8
DEFAULT
 10
6.541063908312927
 20
-13.31286490382014
 30
0.0
  0
VERTEX
  5
D5
  8
DEFAULT
 10
6.63017810204888
 20
-13.49423680888774
 30
0.0
 42
-0.1033473369816182
  0
VERTEX
  5
D6
  8
DEFAULT
 10
6.847292221305868
 20
-15.56003178775816
 30
0.0
 42
-0.0109279744031935
  0
VERTEX
  5
D7
  8
DEFAULT
 10
6.160837230150747
 20
-15.8443707550533
 30
0.0
 42
-0.1033473369816172
  0
VERTEX
  5
D8
  8
DEFAULT
 10
4.853622458068316
 20
-14.23011025093496
 30
0.0
  0
VERTEX
  5
D9
  8
DEFAULT
 10
4.788386404768963
 20
-14.03884769625427
 30
0.0
 42
-0.017093165119937
  0
VERTEX
  5
DA
  8
DEFAULT
 10
3.818168098406663
 20
-14.3331602018644
 30
0.0
  0
VERTEX
  5
DB
  8
DEFAULT
 10
3.870186084533572
 20
-14.52843241338555
 30
0.0
 42
-0.1033473369816172
  0
VERTEX
  5
DC
  8
DEFAULT
 10
3.680111809221406
 20
-16.59689058443265
 30
0.0
 42
-0.0109279744031943
  0
VERTEX
  5
DD
  8
DEFAULT
 10
2.951375077545793
 20
-16.74184533292676
 30
0.0
 42
-0.1033473369816165
  0
VERTEX
  5
DE
  8
DEFAULT
 10
1.984204672328046
 20
-14.90357744092138
 30
0.0
  0
VERTEX
  5
DF
  8
DEFAULT
 10
1.957535584882718
 20
-14.70326301995301
 30
0.0
 42
-0.0170931651199371
  0
VERTEX
  5
E0
  8
DEFAULT
 10
0.9485422297319658
 20
-14.80264019147987
 30
0.0
  0
VERTEX
  5
E1
  8
DEFAULT
 10
0.961464986214995
 20
-15.00430850787572
 30
0.0
 42
-0.1033473369816154
  0
VERTEX
  5
E2
  8
DEFAULT
 10
0.3715067641390409
 20
-16.99594018359087
 30
0.0
 42
-0.0109279744031984
  0
VERTEX
  5
E3
  8
DEFAULT
 10
-0.3715067641390417
 20
-16.99594018359087
 30
0.0
 42
-0.103347336981617
  0
VERTEX
  5
E4
  8
DEFAULT
 10
-0.9614649862149962
 20
-15.00430850787572
 30
0.0
  0
VERTEX
  5
E5
  8
DEFAULT
 10
-0.9485422297319714
 20
-14.80264019147987
 30
0.0
 42
-0.0170931651199371
  0
VERTEX
  5
E6
  8
DEFAULT
 10
-1.957535584882724
 20
-14.70326301995301
 30
0.0
  0
VERTEX
  5
E7
  8
DEFAULT
 10
-1.98420467232805
 20
-14.90357744092138
 30
0.0
 42
-0.1033473369816179
  0
VERTEX
  5
E8
  8
DEFAULT
 10
-2.951375077545796
 20
-16.74184533292676
 30
0.0
 42
-0.0109279744031984
  0
VERTEX
  5
E9
  8
DEFAULT
 10
-3.680111809221408
 20
-16.59689058443265
 30
0.0
 42
-0.1033473369816179
  0
VERTEX
  5
EA
  8
DEFAULT
 10
-3.870186084533576
 20
-14.52843241338555
 30
0.0
  0
VERTEX
  5
EB
  8
DEFAULT
 10
-3.818168098406663
 20
-14.3331602018644
 30
0.0
 42
-0.0170931651199371
  0
VERTEX
  5
EC
  8
DEFAULT
 10
-4.788386404768965
 20
-14.03884769625427
 30
0.0
  0
VERTEX
  5
ED
  8
DEFAULT
 10
-4.853622458068321
 20
-14.23011025093495
 30
0.0
 42
-0.1033473369816159
  0
VERTEX
  5
EE
  8
DEFAULT
 10
-6.160837230150753
 20
-15.84437075505331
 30
0.0
 42
-0.0109279744031938
  0
VERTEX
  5
EF
  8
DEFAULT
 10
-6.847292221305875
 20
-15.56003178775815
 30
0.0
 42
-0.1033473369816155
  0
VERTEX
  5
F0
  8
DEFAULT
 10
-6.630178102048883
 20
-13.49423680888774
 30
0.0
  0
VERTEX
  5
F1
  8
DEFAULT
 10
-6.541063908312928
 20
-13.31286490382014
 30
0.0
 42
-0.017093165119937
  0
VERTEX
  5
F2
  8
DEFAULT
 10
-7.435222220477971
 20
-12.83492732866496
 30
0.0
  0
VERTEX
  5
F3
  8
DEFAULT
 10
-7.536518254687861
 20
-13.00978790434286
 30
0.0
 42
-0.1033473369816194
  0
VERTEX
  5
F4
  8
DEFAULT
 10
-9.13354186303834
 20
-14.33800589468864
 30
0.0
 42
-0.0109279744031858
  0
VERTEX
  5
F5
  8
DEFAULT
 10
-9.751335033331264
 20
-13.92520969564647
 30
0.0
 42
-0.1033473369816173
  0
VERTEX
  5
F6
  8
DEFAULT
 10
-9.135376093349171
 20
-11.94146525147956
 30
0.0
  0
VERTEX
  5
F7
  8
DEFAULT
 10
-9.01259030049363
 20
-11.78096367346271
 30
0.0
 42
-0.0170931651199371
  0
VERTEX
  5
F8
  8
DEFAULT
 10
-9.79632661597467
 20
-11.13776790174523
 30
0.0
  0
VERTEX
  5
F9
  8
DEFAULT
 10
-9.929789881307878
 20
-11.28950670455999
 30
0.0
 42
-0.1033473369816188
  0
VERTEX
  5
FA
  8
DEFAULT
 10
-11.75524960427866
 20
-12.28063950863743
 30
0.0
 42
-0.0109279744031942
  0
VERTEX
  5
FB
  8
DEFAULT
 10
-12.28063950863743
 20
-11.75524960427865
 30
0.0
 42
-0.1033473369816199
  0
VERTEX
  5
FC
  8
DEFAULT
 10
-11.28950670455999
 20
-9.929789881307874
 30
0.0
  0
VERTEX
  5
FD
  8
DEFAULT
 10
-11.13776790174523
 20
-9.796326615974662
 30
0.0
 42
-0.017093165119937
  0
VERTEX
  5
FE
  8
DEFAULT
 10
-11.78096367346272
 20
-9.012590300493624
 30
0.0
  0
VERTEX
  5
FF
  8
DEFAULT
 10
-11.94146525147956
 20
-9.135376093349167
 30
0.0
 42
-0.1033473369816174
  0
VERTEX
  5
100
  8
DEFAULT
 10
-13.92520969564647
 20
-9.75133503333126
 30
0.0
 42
-0.0109279744031972
  0
VERTEX
  5
101
  8
DEFAULT
 10
-14.33800589468864
 20
-9.133541863038337
 30
0.0
 42
-0.1033473369816178
  0
VERTEX
  5
102
  8
DEFAULT
 10
-13.00978790434287
 20
-7.536518254687858
 30
0.0
  0
VERTEX
  5
103
  8
DEFAULT
 10
-12.83492732866496
 20
-7.435222220477969
 30
0.0
 42
-0.0170931651199371
  0
VERTEX
  5
104
  8
DEFAULT
 10
-13.31286490382014
 20
-6.541063908312927
 30
0.0
  0
VERTEX
  5
105
  8
DEFAULT
 10
-13.49423680888774
 20
-6.630178102048881
 30
0.0
 42
-0.1033473369816181
  0
VERTEX
  5
106
  8
DEFAULT
 10
-15.56003178775815
 20
-6.847292221305868
 30
0.0
 42
-0.0109279744031956
  0
VERTEX
  5
107
  8
DEFAULT
 10
-15.8443707550533
 20
-6.16083723015075
 30
0.0
 42
-0.1033473369816155
  0
VERTEX
  5
108
  8
DEFAULT
 10
-14.23011025093495
 20
-4.853622458068319
 30
0.0
  0
VERTEX
  5
109
  8
DEFAULT
 10
-14.03884769625427
 20
-4.788386404768961
 30
0.0
 42
-0.017093165119937
  0
VERTEX
  5
10A
  8
DEFAULT
 10
-14.3331602018644
 20
-3.818168098406661
 30
0.0
  0
VERTEX
  5
10B
  8
DEFAULT
 10
-14.52843241338555
 20
-3.870186084533571
 30
0.0
 42
-0.1033473369816166
  0
VERTEX
  5
10C
  8
DEFAULT
 10
-16.59689058443265
 20
-3.680111809221405
 30
0.0
 42
-0.0109279744031935
  0
VERTEX
  5
10D
  8
DEFAULT
 10
-16.74184533292676
 20
-2.951375077545789
 30
0.0
 42
-0.103347336981619
  0
VERTEX
  5
10E
  8
DEFAULT
 10
-14.90357744092138
 20
-1.984204672328043
 30
0.0
  0
VERTEX
  5
10F
  8
DEFAULT
 10
-14.70326301995301
 20
-1.957535584882718
 30
0.0
 42
-0.0170931651199371
  0
VERTEX
  5
110
  8
DEFAULT
 10
-14.80264019147987
 20
-0.9485422297319658
 30
0.0
  0
VERTEX
  5
111
  8
DEFAULT
 10
-15.00430850787572
 20
-0.9614649862149958
 30
0.0
 42
-0.1033473369816161
  0
VERTEX
  5
112
  8
DEFAULT
 10
-16.99594018359087
 20
-0.3715067641390409
 30
0.0
 42
-0.0109279744031984
  0
VERTEX
  5
113
  8
DEFAULT
 10
-16.99594018359087
 20
0.3715067641390417
 30
0.0
 42
-0.103347336981617
  0
VERTEX
  5
114
  8
DEFAULT
 10
-15.00430850787572
 20
0.9614649862149962
 30
0.0
  0
VERTEX
  5
115
  8
DEFAULT
 10
-14.80264019147986
 20
0.9485422297319672
 30
0.0
 42
-0.017093165119937
  0
VERTEX
  5
116
  8
DEFAULT
 10
-14.70326301995301
 20
1.957535584882719
 30
0.0
  0
VERTEX
  5
117
  8
DEFAULT
 10
-14.90357744092139
 20
1.984204672328046
 30
0.0
 42
-0.103347336981618
  0
VERTEX
  5
118
  8
DEFAULT
 10
-16.74184533292676
 20
2.951375077545793
 30
0.0
 42
-0.0109279744031989
  0
VERTEX
  5
119
  8
DEFAULT
 10
-16.59689058443265
 20
3.680111809221404
 30
0.0
 42
-0.1033473369816178
  0
VERTEX
  5
11A
  8
DEFAULT
 10
-14.52843241338555
 20
3.870186084533572
 30
0.0
  0
VERTEX
  5
11B
  8
DEFAULT
 10
-14.3331602018644
 20
3.818168098406662
 30
0.0
 42
-0.0170931651199371
  0
VERTEX
  5
11C
  8
DEFAULT
 10
-14.03884769625427
 20
4.788386404768964
 30
0.0
  0
VERTEX
  5
11D
  8
DEFAULT
 10
-14.23011025093495
 20
4.85362245806832
 30
0.0
 42
-0.1033473369816159
  0
VERTEX
  5
11E
  8
DEFAULT
 10
-15.8443707550533
 20
6.160837230150752
 30
0.0
 42
-0.0109279744031892
  0
VERTEX
  5
11F
  8
DEFAULT
 10
-15.56003178775815
 20
6.847292221305873
 30
0.0
 42
-0.1033473369816174
  0
VERTEX
  5
120
  8
DEFAULT
 10
-13.49423680888774
 20
6.630178102048882
 30
0.0
  0
VERTEX
  5
121
  8
DEFAULT
 10
-13.31286490382014
 20
6.541063908312928
 30
0.0
 42
-0.0170931651199371
  0
VERTEX
  5
122
  8
DEFAULT
 10
-12.83492732866496
 20
7.435222220477971
 30
0.0
  0
VERTEX
  5
123
  8
DEFAULT
 10
-13.00978790434286
 20
7.536518254687861
 30
0.0
 42
-0.103347336981618
  0
VERTEX
  5
124
  8
DEFAULT
 10
-14.33800589468864
 20
9.133541863038342
 30
0.0
 42
-0.0109279744031943
  0
VERTEX
  5
125
  8
DEFAULT
 10
-13.92520969564647
 20
9.751335033331266
 30
0.0
 42
-0.1033473369816165
  0
VERTEX
  5
126
  8
DEFAULT
 10
-11.94146525147955
 20
9.135376093349171
 30
0.0
  0
VERTEX
  5
127
  8
DEFAULT
 10
-11.78096367346271
 20
9.01259030049363
 30
0.0
 42
-0.0170931651199371
  0
VERTEX
  5
128
  8
DEFAULT
 10
-11.13776790174523
 20
9.79632661597467
 30
0.0
  0
VERTEX
  5
129
  8
DEFAULT
 10
-11.28950670455999
 20
9.929789881307878
 30
0.0
 42
-0.1033473369816183
  0
VERTEX
  5
12A
  8
DEFAULT
 10
-12.28063950863743
 20
11.75524960427865
 30
0.0
 42
-0.0109279744031933
  0
VERTEX
  5
12B
  8
DEFAULT
 10
-11.75524960427865
 20
12.28063950863743
 30
0.0
 42
-0.1033473369816179
  0
VERTEX
  5
12C
  8
DEFAULT
 10
-9.929789881307876
 20
11.28950670455999
 30
0.0
  0
VERTEX
  5
12D
  8
DEFAULT
 10
-9.796326615974666
 20
11.13776790174523
 30
0.0
 42
-0.017093165119937
  0
VERTEX
  5
12E
  8
DEFAULT
 10
-9.012590300493628
 20
11.78096367346272
 30
0.0
  0
VERTEX
  5
12F
  8
DEFAULT
 10
-9.135376093349171
 20
11.94146525147955
 30
0.0
 42
-0.1033473369816174
  0
VERTEX
  5
130
  8
DEFAULT
 10
-9.751335033331266
 20
13.92520969564647
 30
0.0
 42
-0.0109279744031938
  0
VERTEX
  5
131
  8
DEFAULT
 10
-9.133541863038339
 20
14.33800589468864
 30
0.0
 42
-0.103347336981621
  0
VERTEX
  5
132
  8
DEFAULT
 10
-7.536518254687861
 20
13.00978790434286
 30
0.0
  0
VERTEX
  5
133
  8
DEFAULT
 10
-7.43522222047797
 20
12.83492732866496
 30
0.0
 42
-0.0170931651199371
  0
VERTEX
  5
134
  8
DEFAULT
 10
-6.541063908312928
 20
13.31286490382014
 30
0.0
  0
VERTEX
  5
135
  8
DEFAULT
 10
-6.630178102048882
 20
13.49423680888774
 30
0.0
 42
-0.1033473369816171
  0
VERTEX
  5
136
  8
DEFAULT
 10
-6.84729222130587
 20
15.56003178775816
 30
0.0
 42
-0.0109279744031958
  0
VERTEX
  5
137
  8
DEFAULT
 10
-6.160837230150751
 20
15.8443707550533
 30
0.0
 42
-0.1033473369816167
  0
VERTEX
  5
138
  8
DEFAULT
 10
-4.853622458068319
 20
14.23011025093495
 30
0.0
  0
VERTEX
  5
139
  8
DEFAULT
 10
-4.788386404768961
 20
14.03884769625427
 30
0.0
 42
-0.017093165119937
  0
VERTEX
  5
13A
  8
DEFAULT
 10
-3.818168098406661
 20
14.3331602018644
 30
0.0
  0
VERTEX
  5
13B
  8
DEFAULT
 10
-3.870186084533572
 20
14.52843241338555
 30
0.0
 42
-0.1033473369816172
  0
VERTEX
  5
13C
  8
DEFAULT
 10
-3.680111809221405
 20
16.59689058443265
 30
0.0
 42
-0.0109279744031979
  0
VERTEX
  5
13D
  8
DEFAULT
 10
-2.951375077545791
 20
16.74184533292676
 30
0.0
 42
-0.1033473369816193
  0
VERTEX
  5
13E
  8
DEFAULT
 10
-1.984204672328044
 20
14.90357744092139
 30
0.0
  0
VERTEX
  5
13F
  8
DEFAULT
 10
-1.957535584882718
 20
14.70326301995301
 30
0.0
 42
-0.0170931651199371
  0
VERTEX
  5
140
  8
DEFAULT
 10
-0.9485422297319658
 20
14.80264019147987
 30
0.0
  0
VERTEX
  5
141
  8
DEFAULT
 10
-0.9614649862149973
 20
15.00430850787572
 30
0.0
 42
-0.1033473369816184
  0
VERTEX
  5
142
  8
DEFAULT
 10
-0.3715067641390428
 20
16.99594018359087
 30
0.0
 42
-0.0109279744031892
  0
VERTEX
  5
143
  8
DEFAULT
 10
0.3715067641390426
 20
16.99594018359087
 30
0.0
 42
-0.1033473369816181
  0
VERTEX
  5
144
  8
DEFAULT
 10
0.9614649862149953
 20
15.00430850787573
 30
0.0
  0
VERTEX
  5
145
  8
DEFAULT
 10
0.9485422297319732
 20
14.80264019147986
 30
0.0
 42
-0.0170931651199371
  0
VERTEX
  5
146
  8
DEFAULT
 10
1.957535584882725
 20
14.70326301995301
 30
0.0
  0
VERTEX
  5
147
  8
DEFAULT
 10
1.984204672328051
 20
14.90357744092138
 30
0.0
 42
-0.1033473369816161
  0
VERTEX
  5
148
  8
DEFAULT
 10
2.951375077545798
 20
16.74184533292676
 30
0.0
 42
-0.0109279744031915
  0
VERTEX
  5
149
  8
DEFAULT
 10
3.680111809221413
 20
16.59689058443265
 30
0.0
 42
-0.103347336981617
  0
VERTEX
  5
14A
  8
DEFAULT
 10
3.870186084533578
 20
14.52843241338555
 30
0.0
  0
VERTEX
  5
14B
  8
DEFAULT
 10
3.818168098406671
 20
14.3331602018644
 30
0.0
 42
-0.0170931651199371
  0
VERTEX
  5
14C
  8
DEFAULT
 10
4.788386404768972
 20
14.03884769625427
 30
0.0
  0
VERTEX
  5
14D
  8
DEFAULT
 10
4.853622458068328
 20
14.23011025093495
 30
0.0
 42
-0.1033473369816177
  0
VERTEX
  5
14E
  8
DEFAULT
 10
6.160837230150762
 20
15.84437075505331
 30
0.0
 42
-0.0109279744031944
  0
VERTEX
  5
14F
  8
DEFAULT
 10
6.847292221305878
 20
15.56003178775815
 30
0.0
 42
-0.1033473369816165
  0
VERTEX
  5
150
  8
DEFAULT
 10
6.63017810204889
 20
13.49423680888773
 30
0.0
  0
VERTEX
  5
151
  8
DEFAULT
 10
6.541063908312928
 20
13.31286490382014
 30
0.0
 42
-0.0170931651199371
  0
VERTEX
  5
152
  8
DEFAULT
 10
7.435222220477971
 20
12.83492732866496
 30
0.0
  0
VERTEX
  5
153
  8
DEFAULT
 10
7.536518254687861
 20
13.00978790434286
 30
0.0
 42
-0.1033473369816192
  0
VERTEX
  5
154
  8
DEFAULT
 10
9.133541863038342
 20
14.33800589468864
 30
0.0
 42
-0.0109279744031945
  0
VERTEX
  5
155
  8
DEFAULT
 10
9.751335033331264
 20
13.92520969564647
 30
0.0
 42
-0.1033473369816174
  0
VERTEX
  5
156
  8
DEFAULT
 10
9.13537609334917
 20
11.94146525147955
 30
0.0
  0
VERTEX
  5
157
  8
DEFAULT
 10
9.012590300493633
 20
11.78096367346271
 30
0.0
 42
-0.017093165119937
  0
VERTEX
  5
158
  8
DEFAULT
 10
9.796326615974671
 20
11.13776790174523
 30
0.0
  0
VERTEX
  5
159
  8
DEFAULT
 10
9.92978988130788
 20
11.28950670455998
 30
0.0
 42
-0.1033473369816185
  0
VERTEX
  5
15A
  8
DEFAULT
 10
11.75524960427866
 20
12.28063950863743
 30
0.0
 42
-0.0109279744031981
  0
VERTEX
  5
15B
  8
DEFAULT
 10
12.28063950863743
 20
11.75524960427865
 30
0.0
 42
-0.1033473369816164
  0
VERTEX
  5
15C
  8
DEFAULT
 10
11.28950670455999
 20
9.929789881307876
 30
0.0
  0
VERTEX
  5
15D
  8
DEFAULT
 10
11.13776790174523
 20
9.79632661597466
 30
0.0
 42
-0.017093165119937
  0
VERTEX
  5
15E
  8
DEFAULT
 10
11.78096367346272
 20
9.012590300493622
 30
0.0
  0
VERTEX
  5
15F
  8
DEFAULT
 10
11.94146525147956
 20
9.135376093349166
 30
0.0
 42
-0.1033473369816175
  0
VERTEX
  5
160
  8
DEFAULT
 10
13.92520969564647
 20
9.751335033331259
 30
0.0
 42
-0.0109279744031978
  0
VERTEX
  5
161
  8
DEFAULT
 10
14.33800589468864
 20
9.133541863038333
 30
0.0
 42
-0.1033473369816173
  0
VERTEX
  5
162
  8
DEFAULT
 10
13.00978790434287
 20
7.536518254687856
 30
0.0
  0
VERTEX
  5
163
  8
DEFAULT
 10
12.83492732866497
 20
7.435222220477964
 30
0.0
 42
-0.0170931651199321
  0
VERTEX
  5
164
  8
DEFAULT
 10
13.31286490382014
 20
6.541063908312931
 30
0.0
  0
VERTEX
  5
165
  8
DEFAULT
 10
13.49423680888773
 20
6.630178102048886
 30
0.0
 42
-0.1033473369816167
  0
VERTEX
  5
166
  8
DEFAULT
 10
15.56003178775815
 20
6.847292221305874
 30
0.0
 42
-0.0109279744031933
  0
VERTEX
  5
167
  8
DEFAULT
 10
15.84437075505331
 20
6.160837230150756
 30
0.0
 42
-0.1033473369816182
  0
VERTEX
  5
168
  8
DEFAULT
 10
14.23011025093495
 20
4.853622458068322
 30
0.0
  0
VERTEX
  5
169
  8
DEFAULT
 10
14.03884769625427
 20
4.788386404768962
 30
0.0
 42
-0.017093165119937
  0
VERTEX
  5
16A
  8
DEFAULT
 10
14.3331602018644
 20
3.818168098406662
 30
0.0
  0
VERTEX
  5
16B
  8
DEFAULT
 10
14.52843241338555
 20
3.870186084533572
 30
0.0
 42
-0.1033473369816172
  0
VERTEX
  5
16C
  8
DEFAULT
 10
16.59689058443265
 20
3.680111809221406
 30
0.0
 42
-0.0109279744031936
  0
VERTEX
  5
16D
  8
DEFAULT
 10
16.74184533292676
 20
2.951375077545792
 30
0.0
 42
-0.1033473369816188
  0
VERTEX
  5
16E
  8
DEFAULT
 10
14.90357744092139
 20
1.984204672328046
 30
0.0
  0
VERTEX
  5
16F
  8
DEFAULT
 10
14.70326301995301
 20
1.957535584882718
 30
0.0
 42
-0.0170931651199371
  0
VERTEX
  5
170
  8
DEFAULT
 10
14.80264019147987
 20
0.9485422297319658
 30
0.0
  0
VERTEX
  5
171
  8
DEFAULT
 10
15.00430850787572
 20
0.9614649862149954
 30
0.0
 42
-0.1033473369816179
  0
VERTEX
  5
172
  8
DEFAULT
 10
16.99594018359087
 20
0.3715067641390429
 30
0.0
 42
-0.0109279744031938
  0
VERTEX
  5
173
  8
DEFAULT
 10
16.99594018359087
 20
-0.3715067641390426
 30
0.0
 42
-0.1033473369816181
  0
VERTEX
  5
174
  8
DEFAULT
 10
15.00430850787573
 20
-0.9614649862149953
 30
0.0
  0
VERTEX
  5
175
  8
DEFAULT
 10
14.80264019147986
 20
-0.9485422297319723
 30
0.0
 42
-0.0170931651199371
  0
VERTEX
  5
176
  8
DEFAULT
 10
14.70326301995301
 20
-1.957535584882724
 30
0.0
  0
VERTEX
  5
177
  8
DEFAULT
 10
14.90357744092138
 20
-1.984204672328052
 30
0.0
 42
-0.1033473369816153
  0
VERTEX
  5
178
  8
DEFAULT
 10
16.74184533292676
 20
-2.951375077545798
 30
0.0
 42
-0.0109279744032009
  0
VERTEX
  5
179
  8
DEFAULT
 10
16.59689058443265
 20
-3.680111809221412
 30
0.0
 42
-0.1033473369816164
  0
VERTEX
  5
17A
  8
DEFAULT
 10
14.52843241338555
 20
-3.870186084533577
 30
0.0
  0
VERTEX
  5
17B
  8
DEFAULT
 10
14.3331602018644
 20
-3.81816809840667
 30
0.0
 42
-0.0170931651199371
  0
VERTEX
  5
17C
  8
DEFAULT
 10
14.03884769625427
 20
-4.788386404768971
 30
0.0
  0
SEQEND
  5
17D
  8
DEFAULT
  0
ENDSEC
  0
EOF
