  0
SECTION
  2
HEADER
  9
$ACADVER
  1
AC1009
  9
$DWGCODEPAGE
  3
ansi_1252
  9
$INSBASE
 10
0.0
 20
0.0
 30
0.0
  9
$EXTMIN
 10
-675.0
 20
-90.0
 30
0.0
  9
$EXTMAX
 10
-216.0
 20
90.0
 30
0.0
  9
$LIMMIN
 10
0.0
 20
0.0
  9
$LIMMAX
 10
12.0
 20
9.0
  9
$ORTHOMODE
 70
     0
  9
$REGENMODE
 70
     1
  9
$FILLMODE
 70
     1
  9
$QTEXTMODE
 70
     0
  9
$MIRRTEXT
 70
     1
  9
$DRAGMODE
 70
     2
  9
$LTSCALE
 40
1.0
  9
$OSMODE
 70
    37
  9
$ATTMODE
 70
     1
  9
$TEXTSIZE
 40
0.2
  9
$TRACEWID
 40
0.05
  9
$TEXTSTYLE
  7
STANDARD
  9
$CLAYER
  8
DEFAULT
  9
$CELTYPE
  6
BYLAYER
  9
$CECOLOR
 62
   256
  9
$DIMSCALE
 40
1.0
  9
$DIMASZ
 40
0.18
  9
$DIMEXO
 40
0.0625
  9
$DIMDLI
 40
0.38
  9
$DIMRND
 40
0.0
  9
$DIMDLE
 40
0.0
  9
$DIMEXE
 40
0.18
  9
$DIMTP
 40
0.0
  9
$DIMTM
 40
0.0
  9
$DIMTXT
 40
0.18
  9
$DIMCEN
 40
0.09
  9
$DIMTSZ
 40
0.0
  9
$DIMTOL
 70
     0
  9
$DIMLIM
 70
     0
  9
$DIMTIH
 70
     1
  9
$DIMTOH
 70
     1
  9
$DIMSE1
 70
     0
  9
$DIMSE2
 70
     0
  9
$DIMTAD
 70
     0
  9
$DIMZIN
 70
     0
  9
$DIMBLK
  1

  9
$DIMASO
 70
     1
  9
$DIMSHO
 70
     1
  9
$DIMPOST
  1

  9
$DIMAPOST
  1

  9
$DIMALT
 70
     0
  9
$DIMALTD
 70
     2
  9
$DIMALTF
 40
25.4
  9
$DIMLFAC
 40
1.0
  9
$DIMTOFL
 70
     0
  9
$DIMTVP
 40
0.0
  9
$DIMTIX
 70
     0
  9
$DIMSOXD
 70
     0
  9
$DIMSAH
 70
     0
  9
$DIMBLK1
  1

  9
$DIMBLK2
  1

  9
$DIMSTYLE
  2
STANDARD_ACAD
  9
$DIMCLRD
 70
     0
  9
$DIMCLRE
 70
     0
  9
$DIMCLRT
 70
     0
  9
$DIMTFAC
 40
1.0
  9
$DIMGAP
 40
0.09
  9
$LUNITS
 70
     2
  9
$LUPREC
 70
     3
  9
$SKETCHINC
 40
0.1
  9
$FILLETRAD
 40
0.0
  9
$AUNITS
 70
     0
  9
$AUPREC
 70
     0
  9
$MENU
  1
.
  9
$ELEVATION
 40
0.0
  9
$PELEVATION
 40
0.0
  9
$THICKNESS
 40
0.0
  9
$LIMCHECK
 70
     0
  9
$CHAMFERA
 40
0.0
  9
$CHAMFERB
 40
0.0
  9
$SKPOLY
 70
     0
  9
$TDCREATE
 40
2460826.742722384
  9
$TDUPDATE
 40
2460826.742733889
  9
$TDINDWG
 40
0.0000000116
  9
$TDUSRTIMER
 40
0.0000000116
  9
$USRTIMER
 70
     1
  9
$ANGBASE
 50
0.0
  9
$ANGDIR
 70
     0
  9
$PDMODE
 70
     0
  9
$PDSIZE
 40
0.0
  9
$PLINEWID
 40
0.0
  9
$COORDS
 70
     1
  9
$SPLFRAME
 70
     0
  9
$SPLINETYPE
 70
     6
  9
$SPLINESEGS
 70
     8
  9
$ATTDIA
 70
     0
  9
$ATTREQ
 70
     1
  9
$HANDLING
 70
     1
  9
$HANDSEED
  5
B3
  9
$SURFTAB1
 70
     6
  9
$SURFTAB2
 70
     6
  9
$SURFTYPE
 70
     6
  9
$SURFU
 70
     6
  9
$SURFV
 70
     6
  9
$UCSNAME
  2

  9
$UCSORG
 10
0.0
 20
0.0
 30
0.0
  9
$UCSXDIR
 10
1.0
 20
0.0
 30
0.0
  9
$UCSYDIR
 10
0.0
 20
1.0
 30
0.0
  9
$PUCSNAME
  2

  9
$PUCSORG
 10
0.0
 20
0.0
 30
0.0
  9
$PUCSXDIR
 10
1.0
 20
0.0
 30
0.0
  9
$PUCSYDIR
 10
0.0
 20
1.0
 30
0.0
  9
$USERI1
 70
     0
  9
$USERI2
 70
     0
  9
$USERI3
 70
     0
  9
$USERI4
 70
     0
  9
$USERI5
 70
     0
  9
$USERR1
 40
0.0
  9
$USERR2
 40
0.0
  9
$USERR3
 40
0.0
  9
$USERR4
 40
0.0
  9
$USERR5
 40
0.0
  9
$WORLDVIEW
 70
     1
  9
$SHADEDGE
 70
     3
  9
$SHADEDIF
 70
    70
  9
$TILEMODE
 70
     1
  9
$MAXACTVP
 70
    64
  9
$PLIMCHECK
 70
     0
  9
$PEXTMIN
 10
1.000000000000000E+20
 20
1.000000000000000E+20
 30
1.000000000000000E+20
  9
$PEXTMAX
 10
-1.000000000000000E+20
 20
-1.000000000000000E+20
 30
-1.000000000000000E+20
  9
$PLIMMIN
 10
0.0
 20
0.0
  9
$PLIMMAX
 10
12.0
 20
9.0
  9
$UNITMODE
 70
     0
  9
$VISRETAIN
 70
     1
  9
$PLINEGEN
 70
     0
  9
$PSLTSCALE
 70
     1
  0
ENDSEC
  0
SECTION
  2
TABLES
  0
TABLE
  2
VPORT
 70
     1
  0
VPORT
  2
*ACTIVE
 70
     0
 10
0.0
 20
0.0
 11
1.0
 21
1.0
 12
10.42990654205607
 22
4.5
 13
0.0
 23
0.0
 14
0.5
 24
0.5
 15
0.5
 25
0.5
 16
0.0
 26
0.0
 36
1.0
 17
0.0
 27
0.0
 37
0.0
 40
9.0
 41
1.972972972850329
 42
50.0
 43
0.0
 44
0.0
 50
0.0
 51
0.0
 71
     0
 72
   100
 73
     1
 74
     3
 75
     0
 76
     0
 77
     0
 78
     0
  0
ENDTAB
  0
TABLE
  2
LTYPE
 70
     1
  0
LTYPE
  2
CONTINUOUS
 70
     0
  3
Solid line
 72
    65
 73
     0
 40
0.0
  0
ENDTAB
  0
TABLE
  2
LAYER
 70
     2
  0
LAYER
  2
0
 70
     0
 62
     7
  6
CONTINUOUS
  0
LAYER
  2
DEFAULT
 70
     0
 62
     7
  6
CONTINUOUS
  0
ENDTAB
  0
TABLE
  2
STYLE
 70
     1
  0
STYLE
  2
STANDARD
 70
     0
 40
0.0
 41
1.0
 50
0.0
 71
     0
 42
0.2
  3
txt
  4

  0
ENDTAB
  0
TABLE
  2
VIEW
 70
     0
  0
ENDTAB
  0
TABLE
  2
UCS
 70
     0
  0
ENDTAB
  0
TABLE
  2
APPID
 70
     2
  0
APPID
  2
ACAD
 70
     0
  0
APPID
  2
RHINO
 70
     0
  0
ENDTAB
  0
TABLE
  2
DIMSTYLE
 70
     1
  0
DIMSTYLE
  2
STANDARD_ACAD
 70
     0
  3

  4

  5

  6

  7

 40
1.0
 41
0.18
 42
0.0625
 43
0.38
 44
0.18
 45
0.0
 46
0.0
 47
0.0
 48
0.0
140
0.18
141
0.09
142
0.0
143
25.4
144
1.0
145
0.0
146
1.0
147
0.09
 71
     0
 72
     0
 73
     1
 74
     1
 75
     0
 76
     0
 77
     0
 78
     0
170
     0
171
     2
172
     0
173
     0
174
     0
175
     0
176
     0
177
     0
178
     0
  0
ENDTAB
  0
ENDSEC
  0
SECTION
  2
BLOCKS
  0
BLOCK
  8
0
  2
$MODEL_SPACE
 70
     0
 10
0.0
 20
0.0
 30
0.0
  3
$MODEL_SPACE
  1

  0
ENDBLK
  5
21
  8
0
  0
BLOCK
 67
     1
  8
0
  2
$PAPER_SPACE
 70
     0
 10
0.0
 20
0.0
 30
0.0
  3
$PAPER_SPACE
  1

  0
ENDBLK
  5
1D
 67
     1
  8
0
  0
ENDSEC
  0
SECTION
  2
ENTITIES
  0
POLYLINE
  5
60
  8
DEFAULT
 66
     1
 10
0.0
 20
0.0
 30
0.0
 70
     1
  0
VERTEX
  5
61
  8
DEFAULT
 10
-616.8454094833821
 20
-51.46300000004689
 30
0.0
 42
0.8088632262476912
  0
VERTEX
  5
62
  8
DEFAULT
 10
-603.1545905159136
 20
-51.4629999999532
 30
0.0
 42
-0.3024108236484047
  0
VERTEX
  5
63
  8
DEFAULT
 10
-600.774380749348
 20
-49.14150943389925
 30
0.0
 42
0.3092389867189729
  0
VERTEX
  5
64
  8
DEFAULT
 10
-560.8584905659746
 20
-9.225619249979601
 30
0.0
 42
-0.3024108236484771
  0
VERTEX
  5
65
  8
DEFAULT
 10
-558.536999999953
 20
-6.845409483382141
 30
0.0
 42
0.8088632262476576
  0
VERTEX
  5
66
  8
DEFAULT
 10
-558.5370000000468
 20
6.845409484086527
 30
0.0
 42
-0.3024108236484836
  0
VERTEX
  5
67
  8
DEFAULT
 10
-560.858490566101
 20
9.225619250652127
 30
0.0
 42
0.309238986718966
  0
VERTEX
  5
68
  8
DEFAULT
 10
-600.7743807500204
 20
49.14150943402539
 30
0.0
 42
-0.3024108236484829
  0
VERTEX
  5
69
  8
DEFAULT
 10
-603.1545905166179
 20
51.46300000004682
 30
0.0
 42
0.8088632262477018
  0
VERTEX
  5
6A
  8
DEFAULT
 10
-616.8454094840865
 20
51.4629999999531
 30
0.0
 42
-0.3024108236484749
  0
VERTEX
  5
6B
  8
DEFAULT
 10
-619.2256192506521
 20
49.141509433899
 30
0.0
 42
0.3092389867189744
  0
VERTEX
  5
6C
  8
DEFAULT
 10
-659.1415094340252
 20
9.225619249979447
 30
0.0
 42
-0.3024108236484864
  0
VERTEX
  5
6D
  8
DEFAULT
 10
-661.4630000000468
 20
6.845409483382131
 30
0.0
 42
0.8088632262476839
  0
VERTEX
  5
6E
  8
DEFAULT
 10
-661.4629999999531
 20
-6.845409484086548
 30
0.0
 42
-0.3024108236484866
  0
VERTEX
  5
6F
  8
DEFAULT
 10
-659.141509433899
 20
-9.225619250652223
 30
0.0
 42
0.3092389867189642
  0
VERTEX
  5
70
  8
DEFAULT
 10
-619.2256192499794
 20
-49.14150943402542
 30
0.0
 42
-0.3024108236484785
  0
SEQEND
  5
71
  8
DEFAULT
  0
POLYLINE
  5
72
  8
DEFAULT
 66
     1
 10
0.0
 20
0.0
 30
0.0
 70
     1
  0
VERTEX
  5
73
  8
DEFAULT
 10
-663.1010205144337
 20
-65.0
 30
0.0
  0
VERTEX
  5
74
  8
DEFAULT
 10
-556.8989794855663
 20
-65.0
 30
0.0
 42
0.4142135623730945
  0
VERTEX
  5
75
  8
DEFAULT
 10
-545.0
 20
-53.10102051443364
 30
0.0
  0
VERTEX
  5
76
  8
DEFAULT
 10
-545.0
 20
53.10102051443364
 30
0.0
 42
0.4142135623730933
  0
VERTEX
  5
77
  8
DEFAULT
 10
-556.8989794855663
 20
65.0
 30
0.0
  0
VERTEX
  5
78
  8
DEFAULT
 10
-663.1010205144337
 20
65.0
 30
0.0
 42
0.4142135623730945
  0
VERTEX
  5
79
  8
DEFAULT
 10
-675.0
 20
53.10102051443364
 30
0.0
  0
VERTEX
  5
7A
  8
DEFAULT
 10
-675.0
 20
-53.10102051443364
 30
0.0
 42
0.4142135623730933
  0
SEQEND
  5
7B
  8
DEFAULT
  0
POLYLINE
  5
7C
  8
DEFAULT
 66
     1
 10
0.0
 20
0.0
 30
0.0
 70
     1
  0
VERTEX
  5
7D
  8
DEFAULT
 10
-359.1010205144336
 20
-65.0
 30
0.0
  0
VERTEX
  5
7E
  8
DEFAULT
 10
-252.8989794855664
 20
-65.0
 30
0.0
 42
0.4142135623730948
  0
VERTEX
  5
7F
  8
DEFAULT
 10
-241.0
 20
-53.10102051443364
 30
0.0
  0
VERTEX
  5
80
  8
DEFAULT
 10
-241.0
 20
53.10102051443364
 30
0.0
 42
0.4142135623730948
  0
VERTEX
  5
81
  8
DEFAULT
 10
-252.8989794855664
 20
65.0
 30
0.0
  0
VERTEX
  5
82
  8
DEFAULT
 10
-359.1010205144336
 20
65.0
 30
0.0
 42
0.4142135623730959
  0
VERTEX
  5
83
  8
DEFAULT
 10
-371.0
 20
53.10102051443364
 30
0.0
  0
VERTEX
  5
84
  8
DEFAULT
 10
-371.0
 20
-53.10102051443364
 30
0.0
 42
0.4142135623730948
  0
SEQEND
  5
85
  8
DEFAULT
  0
POLYLINE
  5
86
  8
DEFAULT
 66
     1
 10
0.0
 20
0.0
 30
0.0
 70
     1
  0
VERTEX
  5
87
  8
DEFAULT
 10
-523.1010205144337
 20
-65.0
 30
0.0
  0
VERTEX
  5
88
  8
DEFAULT
 10
-416.8989794855664
 20
-65.0
 30
0.0
 42
0.4142135623730959
  0
VERTEX
  5
89
  8
DEFAULT
 10
-405.0
 20
-53.10102051443364
 30
0.0
  0
VERTEX
  5
8A
  8
DEFAULT
 10
-405.0
 20
53.10102051443364
 30
0.0
 42
0.4142135623730948
  0
VERTEX
  5
8B
  8
DEFAULT
 10
-416.8989794855664
 20
65.0
 30
0.0
  0
VERTEX
  5
8C
  8
DEFAULT
 10
-523.1010205144337
 20
65.0
 30
0.0
 42
0.4142135623730945
  0
VERTEX
  5
8D
  8
DEFAULT
 10
-535.0
 20
53.10102051443364
 30
0.0
  0
VERTEX
  5
8E
  8
DEFAULT
 10
-535.0
 20
-53.10102051443364
 30
0.0
 42
0.4142135623730933
  0
SEQEND
  5
8F
  8
DEFAULT
  0
POLYLINE
  5
90
  8
DEFAULT
 66
     1
 10
0.0
 20
0.0
 30
0.0
 70
     1
  0
VERTEX
  5
91
  8
DEFAULT
 10
-425.9479166666666
 20
9.18770667756932
 30
0.0
 42
0.2982935963137932
  0
VERTEX
  5
92
  8
DEFAULT
 10
-460.8122933224304
 20
44.05208333333333
 30
0.0
 42
-0.2997624121952656
  0
VERTEX
  5
93
  8
DEFAULT
 10
-463.1398456807481
 20
46.39222222222223
 30
0.0
 42
0.8174419286808887
  0
VERTEX
  5
94
  8
DEFAULT
 10
-476.8601543192519
 20
46.39222222222223
 30
0.0
 42
-0.2997624121952723
  0
VERTEX
  5
95
  8
DEFAULT
 10
-479.1877066775695
 20
44.05208333333332
 30
0.0
 42
0.2982935963137929
  0
VERTEX
  5
96
  8
DEFAULT
 10
-514.0520833333334
 20
9.187706677569436
 30
0.0
 42
-0.2997624121952466
  0
VERTEX
  5
97
  8
DEFAULT
 10
-516.3922222222224
 20
6.860154319251881
 30
0.0
 42
0.817441928680881
  0
VERTEX
  5
98
  8
DEFAULT
 10
-516.3922222222222
 20
-6.860154319251862
 30
0.0
 42
-0.2997624121952466
  0
VERTEX
  5
99
  8
DEFAULT
 10
-514.0520833333334
 20
-9.187706677569539
 30
0.0
 42
0.2982935963137904
  0
VERTEX
  5
9A
  8
DEFAULT
 10
-479.1877066775697
 20
-44.05208333333331
 30
0.0
 42
-0.2997624121952737
  0
VERTEX
  5
9B
  8
DEFAULT
 10
-476.8601543192519
 20
-46.3922222222222
 30
0.0
 42
0.8174419286808883
  0
VERTEX
  5
9C
  8
DEFAULT
 10
-463.1398456807481
 20
-46.39222222222223
 30
0.0
 42
-0.2997624121952556
  0
VERTEX
  5
9D
  8
DEFAULT
 10
-460.8122933224304
 20
-44.05208333333338
 30
0.0
 42
0.2982935963137944
  0
VERTEX
  5
9E
  8
DEFAULT
 10
-425.9479166666666
 20
-9.187706677569423
 30
0.0
 42
-0.299762412195255
  0
VERTEX
  5
9F
  8
DEFAULT
 10
-423.6077777777779
 20
-6.860154319251896
 30
0.0
 42
0.8174419286809046
  0
VERTEX
  5
A0
  8
DEFAULT
 10
-423.6077777777779
 20
6.860154319251869
 30
0.0
 42
-0.299762412195236
  0
SEQEND
  5
A1
  8
DEFAULT
  0
POLYLINE
  5
A2
  8
DEFAULT
 66
     1
 10
0.0
 20
0.0
 30
0.0
 70
     1
  0
VERTEX
  5
A3
  8
DEFAULT
 10
-379.1803661118255
 20
-90.0
 30
0.0
  0
VERTEX
  5
A4
  8
DEFAULT
 10
-232.8196338881745
 20
-90.0
 30
0.0
 42
0.4142135623730952
  0
VERTEX
  5
A5
  8
DEFAULT
 10
-216.0
 20
-73.1803661118255
 30
0.0
  0
VERTEX
  5
A6
  8
DEFAULT
 10
-216.0
 20
73.1803661118255
 30
0.0
 42
0.414213562373095
  0
VERTEX
  5
A7
  8
DEFAULT
 10
-232.8196338881745
 20
90.0
 30
0.0
  0
VERTEX
  5
A8
  8
DEFAULT
 10
-379.1803661118255
 20
90.0
 30
0.0
 42
0.4142135623730955
  0
VERTEX
  5
A9
  8
DEFAULT
 10
-396.0
 20
73.1803661118255
 30
0.0
  0
VERTEX
  5
AA
  8
DEFAULT
 10
-396.0
 20
-73.1803661118255
 30
0.0
 42
0.4142135623730946
  0
SEQEND
  5
AB
  8
DEFAULT
  0
ENDSEC
  0
EOF
