  0
SECTION
  2
HEADER
  9
$ACADVER
  1
AC1009
  9
$DWGCODEPAGE
  3
ansi_1252
  9
$INSBASE
 10
0.0
 20
0.0
 30
0.0
  9
$EXTMIN
 10
403.3999999999997
 20
-99.99177440587022
 30
5.999999999999886
  9
$EXTMAX
 10
822.6000000000001
 20
129.7500000000001
 30
6.000000000000023
  9
$LIMMIN
 10
0.0
 20
0.0
  9
$LIMMAX
 10
12.0
 20
9.0
  9
$ORTHOMODE
 70
     0
  9
$REGENMODE
 70
     1
  9
$FILLMODE
 70
     1
  9
$QTEXTMODE
 70
     0
  9
$MIRRTEXT
 70
     1
  9
$DRAGMODE
 70
     2
  9
$LTSCALE
 40
1.0
  9
$OSMODE
 70
    37
  9
$ATTMODE
 70
     1
  9
$TEXTSIZE
 40
0.2
  9
$TRACEWID
 40
0.05
  9
$TEXTSTYLE
  7
STANDARD
  9
$CLAYER
  8
DEFAULT
  9
$CELTYPE
  6
BYLAYER
  9
$CECOLOR
 62
   256
  9
$DIMSCALE
 40
1.0
  9
$DIMASZ
 40
0.18
  9
$DIMEXO
 40
0.0625
  9
$DIMDLI
 40
0.38
  9
$DIMRND
 40
0.0
  9
$DIMDLE
 40
0.0
  9
$DIMEXE
 40
0.18
  9
$DIMTP
 40
0.0
  9
$DIMTM
 40
0.0
  9
$DIMTXT
 40
0.18
  9
$DIMCEN
 40
0.09
  9
$DIMTSZ
 40
0.0
  9
$DIMTOL
 70
     0
  9
$DIMLIM
 70
     0
  9
$DIMTIH
 70
     1
  9
$DIMTOH
 70
     1
  9
$DIMSE1
 70
     0
  9
$DIMSE2
 70
     0
  9
$DIMTAD
 70
     0
  9
$DIMZIN
 70
     0
  9
$DIMBLK
  1

  9
$DIMASO
 70
     1
  9
$DIMSHO
 70
     1
  9
$DIMPOST
  1

  9
$DIMAPOST
  1

  9
$DIMALT
 70
     0
  9
$DIMALTD
 70
     2
  9
$DIMALTF
 40
25.4
  9
$DIMLFAC
 40
1.0
  9
$DIMTOFL
 70
     0
  9
$DIMTVP
 40
0.0
  9
$DIMTIX
 70
     0
  9
$DIMSOXD
 70
     0
  9
$DIMSAH
 70
     0
  9
$DIMBLK1
  1

  9
$DIMBLK2
  1

  9
$DIMSTYLE
  2
STANDARD_ACAD
  9
$DIMCLRD
 70
     0
  9
$DIMCLRE
 70
     0
  9
$DIMCLRT
 70
     0
  9
$DIMTFAC
 40
1.0
  9
$DIMGAP
 40
0.09
  9
$LUNITS
 70
     2
  9
$LUPREC
 70
     3
  9
$SKETCHINC
 40
0.1
  9
$FILLETRAD
 40
0.0
  9
$AUNITS
 70
     0
  9
$AUPREC
 70
     0
  9
$MENU
  1
.
  9
$ELEVATION
 40
0.0
  9
$PELEVATION
 40
0.0
  9
$THICKNESS
 40
0.0
  9
$LIMCHECK
 70
     0
  9
$CHAMFERA
 40
0.0
  9
$CHAMFERB
 40
0.0
  9
$SKPOLY
 70
     0
  9
$TDCREATE
 40
2460812.558261482
  9
$TDUPDATE
 40
2460812.558277627
  9
$TDINDWG
 40
0.0000000116
  9
$TDUSRTIMER
 40
0.0000000116
  9
$USRTIMER
 70
     1
  9
$ANGBASE
 50
0.0
  9
$ANGDIR
 70
     0
  9
$PDMODE
 70
     0
  9
$PDSIZE
 40
0.0
  9
$PLINEWID
 40
0.0
  9
$COORDS
 70
     1
  9
$SPLFRAME
 70
     0
  9
$SPLINETYPE
 70
     6
  9
$SPLINESEGS
 70
     8
  9
$ATTDIA
 70
     0
  9
$ATTREQ
 70
     1
  9
$HANDLING
 70
     1
  9
$HANDSEED
  5
141
  9
$SURFTAB1
 70
     6
  9
$SURFTAB2
 70
     6
  9
$SURFTYPE
 70
     6
  9
$SURFU
 70
     6
  9
$SURFV
 70
     6
  9
$UCSNAME
  2

  9
$UCSORG
 10
0.0
 20
0.0
 30
0.0
  9
$UCSXDIR
 10
1.0
 20
0.0
 30
0.0
  9
$UCSYDIR
 10
0.0
 20
1.0
 30
0.0
  9
$PUCSNAME
  2

  9
$PUCSORG
 10
0.0
 20
0.0
 30
0.0
  9
$PUCSXDIR
 10
1.0
 20
0.0
 30
0.0
  9
$PUCSYDIR
 10
0.0
 20
1.0
 30
0.0
  9
$USERI1
 70
     0
  9
$USERI2
 70
     0
  9
$USERI3
 70
     0
  9
$USERI4
 70
     0
  9
$USERI5
 70
     0
  9
$USERR1
 40
0.0
  9
$USERR2
 40
0.0
  9
$USERR3
 40
0.0
  9
$USERR4
 40
0.0
  9
$USERR5
 40
0.0
  9
$WORLDVIEW
 70
     1
  9
$SHADEDGE
 70
     3
  9
$SHADEDIF
 70
    70
  9
$TILEMODE
 70
     1
  9
$MAXACTVP
 70
    64
  9
$PLIMCHECK
 70
     0
  9
$PEXTMIN
 10
1.000000000000000E+20
 20
1.000000000000000E+20
 30
1.000000000000000E+20
  9
$PEXTMAX
 10
-1.000000000000000E+20
 20
-1.000000000000000E+20
 30
-1.000000000000000E+20
  9
$PLIMMIN
 10
0.0
 20
0.0
  9
$PLIMMAX
 10
12.0
 20
9.0
  9
$UNITMODE
 70
     0
  9
$VISRETAIN
 70
     1
  9
$PLINEGEN
 70
     0
  9
$PSLTSCALE
 70
     1
  0
ENDSEC
  0
SECTION
  2
TABLES
  0
TABLE
  2
VPORT
 70
     1
  0
VPORT
  2
*ACTIVE
 70
     0
 10
0.0
 20
0.0
 11
1.0
 21
1.0
 12
10.42990654205607
 22
4.5
 13
0.0
 23
0.0
 14
0.5
 24
0.5
 15
0.5
 25
0.5
 16
0.0
 26
0.0
 36
1.0
 17
0.0
 27
0.0
 37
0.0
 40
9.0
 41
1.972972972850329
 42
50.0
 43
0.0
 44
0.0
 50
0.0
 51
0.0
 71
     0
 72
   100
 73
     1
 74
     3
 75
     0
 76
     0
 77
     0
 78
     0
  0
ENDTAB
  0
TABLE
  2
LTYPE
 70
     1
  0
LTYPE
  2
CONTINUOUS
 70
     0
  3
Solid line
 72
    65
 73
     0
 40
0.0
  0
ENDTAB
  0
TABLE
  2
LAYER
 70
     2
  0
LAYER
  2
0
 70
     0
 62
     7
  6
CONTINUOUS
  0
LAYER
  2
DEFAULT
 70
     0
 62
     7
  6
CONTINUOUS
  0
ENDTAB
  0
TABLE
  2
STYLE
 70
     1
  0
STYLE
  2
STANDARD
 70
     0
 40
0.0
 41
1.0
 50
0.0
 71
     0
 42
0.2
  3
txt
  4

  0
ENDTAB
  0
TABLE
  2
VIEW
 70
     0
  0
ENDTAB
  0
TABLE
  2
UCS
 70
     0
  0
ENDTAB
  0
TABLE
  2
APPID
 70
     2
  0
APPID
  2
ACAD
 70
     0
  0
APPID
  2
RHINO
 70
     0
  0
ENDTAB
  0
TABLE
  2
DIMSTYLE
 70
     1
  0
DIMSTYLE
  2
STANDARD_ACAD
 70
     0
  3

  4

  5

  6

  7

 40
1.0
 41
0.18
 42
0.0625
 43
0.38
 44
0.18
 45
0.0
 46
0.0
 47
0.0
 48
0.0
140
0.18
141
0.09
142
0.0
143
25.4
144
1.0
145
0.0
146
1.0
147
0.09
 71
     0
 72
     0
 73
     1
 74
     1
 75
     0
 76
     0
 77
     0
 78
     0
170
     0
171
     2
172
     0
173
     0
174
     0
175
     0
176
     0
177
     0
178
     0
  0
ENDTAB
  0
ENDSEC
  0
SECTION
  2
BLOCKS
  0
BLOCK
  8
0
  2
$MODEL_SPACE
 70
     0
 10
0.0
 20
0.0
 30
0.0
  3
$MODEL_SPACE
  1

  0
ENDBLK
  5
21
  8
0
  0
BLOCK
 67
     1
  8
0
  2
$PAPER_SPACE
 70
     0
 10
0.0
 20
0.0
 30
0.0
  3
$PAPER_SPACE
  1

  0
ENDBLK
  5
1D
 67
     1
  8
0
  0
ENDSEC
  0
SECTION
  2
ENTITIES
  0
POLYLINE
  5
60
  8
DEFAULT
 66
     1
 10
0.0
 20
0.0
 30
5.999999999999886
 70
     1
  0
VERTEX
  5
61
  8
DEFAULT
 10
691.3582255941303
 20
63.49177440586962
 30
5.999999999999886
  0
VERTEX
  5
62
  8
DEFAULT
 10
691.3582255941301
 20
97.49177440586985
 30
5.999999999999886
  0
VERTEX
  5
63
  8
DEFAULT
 10
615.1000000022176
 20
97.49177440586962
 30
5.999999999999886
  0
VERTEX
  5
64
  8
DEFAULT
 10
615.1000000022176
 20
84.49177440586962
 30
5.999999999999886
  0
VERTEX
  5
65
  8
DEFAULT
 10
687.1000000022176
 20
84.49177440586985
 30
5.999999999999886
  0
VERTEX
  5
66
  8
DEFAULT
 10
687.1000000022176
 20
78.49177440586985
 30
5.999999999999886
  0
VERTEX
  5
67
  8
DEFAULT
 10
615.1000000022176
 20
78.49177440586962
 30
5.999999999999886
  0
VERTEX
  5
68
  8
DEFAULT
 10
615.1000000022176
 20
58.49177440586962
 30
5.999999999999886
  0
VERTEX
  5
69
  8
DEFAULT
 10
609.1000000022176
 20
58.49177440586962
 30
5.999999999999886
  0
VERTEX
  5
6A
  8
DEFAULT
 10
609.1000000022176
 20
78.49177440586962
 30
5.999999999999886
  0
VERTEX
  5
6B
  8
DEFAULT
 10
537.1000000022176
 20
78.4917744058695
 30
5.999999999999886
  0
VERTEX
  5
6C
  8
DEFAULT
 10
537.1000000022176
 20
84.4917744058695
 30
5.999999999999886
  0
VERTEX
  5
6D
  8
DEFAULT
 10
609.1000000022176
 20
84.49177440586962
 30
5.999999999999886
  0
VERTEX
  5
6E
  8
DEFAULT
 10
609.1000000022176
 20
97.49177440586962
 30
5.999999999999886
  0
VERTEX
  5
6F
  8
DEFAULT
 10
532.8417744058702
 20
97.4917744058695
 30
5.999999999999886
  0
VERTEX
  5
70
  8
DEFAULT
 10
532.8417744058703
 20
63.49177440586928
 30
5.999999999999886
  0
VERTEX
  5
71
  8
DEFAULT
 10
593.0
 20
8.491774405869506
 30
5.999999999999886
  0
VERTEX
  5
72
  8
DEFAULT
 10
631.2000000000007
 20
8.491774405869393
 30
5.999999999999886
  0
SEQEND
  5
73
  8
DEFAULT
  0
POLYLINE
  5
74
  8
DEFAULT
 66
     1
 10
0.0
 20
0.0
 30
6.0
 70
     1
  0
VERTEX
  5
75
  8
DEFAULT
 10
751.7991525423732
 20
85.24999999999997
 30
6.0
  0
VERTEX
  5
76
  8
DEFAULT
 10
769.6000000000004
 20
85.24999999999986
 30
6.0
  0
VERTEX
  5
77
  8
DEFAULT
 10
769.6
 20
-64.75000000000014
 30
6.0
  0
VERTEX
  5
78
  8
DEFAULT
 10
751.7991525423728
 20
-64.75000000000003
 30
6.0
  0
VERTEX
  5
79
  8
DEFAULT
 10
669.6000000000001
 20
-13.70000000000064
 30
6.0
  0
VERTEX
  5
7A
  8
DEFAULT
 10
669.6000000000001
 20
7.250000000000085
 30
6.0
  0
VERTEX
  5
7B
  8
DEFAULT
 10
719.6000000000001
 20
7.249999999999972
 30
6.0
  0
VERTEX
  5
7C
  8
DEFAULT
 10
719.6000000000003
 20
13.24999999999997
 30
6.0
  0
VERTEX
  5
7D
  8
DEFAULT
 10
669.6000000000001
 20
13.25000000000009
 30
6.0
  0
VERTEX
  5
7E
  8
DEFAULT
 10
669.6000000000003
 20
34.20000000000013
 30
6.0
  0
SEQEND
  5
7F
  8
DEFAULT
  0
POLYLINE
  5
80
  8
DEFAULT
 66
     1
 10
0.0
 20
0.0
 30
6.0
 70
     1
  0
VERTEX
  5
81
  8
DEFAULT
 10
476.2008474576266
 20
-63.25000000000007
 30
6.0
  0
VERTEX
  5
82
  8
DEFAULT
 10
458.3999999999995
 20
-63.24999999999996
 30
6.0
  0
VERTEX
  5
83
  8
DEFAULT
 10
458.4
 20
86.74999999999999
 30
6.0
  0
VERTEX
  5
84
  8
DEFAULT
 10
476.2008474576272
 20
86.74999999999993
 30
6.0
  0
VERTEX
  5
85
  8
DEFAULT
 10
558.3999999999999
 20
35.70000000000032
 30
6.0
  0
VERTEX
  5
86
  8
DEFAULT
 10
558.3999999999996
 20
14.74999999999959
 30
6.0
  0
VERTEX
  5
87
  8
DEFAULT
 10
508.3999999999997
 20
14.74999999999982
 30
6.0
  0
VERTEX
  5
88
  8
DEFAULT
 10
508.3999999999997
 20
8.749999999999815
 30
6.0
  0
VERTEX
  5
89
  8
DEFAULT
 10
558.3999999999996
 20
8.749999999999588
 30
6.0
  0
VERTEX
  5
8A
  8
DEFAULT
 10
558.3999999999996
 20
-12.20000000000046
 30
6.0
  0
SEQEND
  5
8B
  8
DEFAULT
  0
POLYLINE
  5
8C
  8
DEFAULT
 66
     1
 10
0.0
 20
0.0
 30
5.999999999999886
 70
     1
  0
VERTEX
  5
8D
  8
DEFAULT
 10
691.3582255941303
 20
-33.99177440587022
 30
5.999999999999886
  0
VERTEX
  5
8E
  8
DEFAULT
 10
691.3582255941301
 20
-99.99177440587022
 30
5.999999999999886
  0
VERTEX
  5
8F
  8
DEFAULT
 10
615.1000000022176
 20
-99.99177440586999
 30
5.999999999999886
  0
VERTEX
  5
90
  8
DEFAULT
 10
615.1000000022176
 20
-75.99177440586999
 30
5.999999999999886
  0
VERTEX
  5
91
  8
DEFAULT
 10
687.1000000022176
 20
-75.99177440587022
 30
5.999999999999886
  0
VERTEX
  5
92
  8
DEFAULT
 10
687.1000000022176
 20
-69.99177440587022
 30
5.999999999999886
  0
VERTEX
  5
93
  8
DEFAULT
 10
615.1000000022176
 20
-69.99177440586999
 30
5.999999999999886
  0
VERTEX
  5
94
  8
DEFAULT
 10
615.1000000022176
 20
-49.99177440586999
 30
5.999999999999886
  0
VERTEX
  5
95
  8
DEFAULT
 10
609.1000000022176
 20
-49.99177440586999
 30
5.999999999999886
  0
VERTEX
  5
96
  8
DEFAULT
 10
609.1000000022176
 20
-69.99177440586999
 30
5.999999999999886
  0
VERTEX
  5
97
  8
DEFAULT
 10
537.1000000022176
 20
-69.99177440586988
 30
5.999999999999886
  0
VERTEX
  5
98
  8
DEFAULT
 10
537.1000000022176
 20
-75.99177440586988
 30
5.999999999999886
  0
VERTEX
  5
99
  8
DEFAULT
 10
609.1000000022176
 20
-75.99177440586999
 30
5.999999999999886
  0
VERTEX
  5
9A
  8
DEFAULT
 10
609.1000000022176
 20
-99.99177440586999
 30
5.999999999999886
  0
VERTEX
  5
9B
  8
DEFAULT
 10
532.8417744058702
 20
-99.99177440586988
 30
5.999999999999886
  0
VERTEX
  5
9C
  8
DEFAULT
 10
532.8417744058703
 20
-33.99177440586988
 30
5.999999999999886
  0
VERTEX
  5
9D
  8
DEFAULT
 10
577.84177440587
 20
0.0082255941301241
 30
5.999999999999886
  0
VERTEX
  5
9E
  8
DEFAULT
 10
646.3582255941308
 20
0.0082255941302378
 30
5.999999999999886
  0
SEQEND
  5
9F
  8
DEFAULT
  0
POLYLINE
  5
A0
  8
DEFAULT
 66
     1
 10
0.0
 20
0.0
 30
6.000000000000023
 70
     1
  0
VERTEX
  5
A1
  8
DEFAULT
 10
403.3999999999997
 20
117.7499999999998
 30
6.000000000000023
  0
VERTEX
  5
A2
  8
DEFAULT
 10
403.3999999999999
 20
-99.74999999999999
 30
6.000000000000023
  0
VERTEX
  5
A3
  8
DEFAULT
 10
423.3999999999999
 20
-99.75
 30
6.000000000000023
  0
VERTEX
  5
A4
  8
DEFAULT
 10
423.3999999999999
 20
-49.75
 30
6.000000000000023
  0
VERTEX
  5
A5
  8
DEFAULT
 10
429.3999999999999
 20
-49.75
 30
6.000000000000023
  0
VERTEX
  5
A6
  8
DEFAULT
 10
429.3999999999999
 20
-99.74999999999999
 30
6.000000000000023
  0
VERTEX
  5
A7
  8
DEFAULT
 10
453.3999999999999
 20
-99.74999999999999
 30
6.000000000000023
  0
VERTEX
  5
A8
  8
DEFAULT
 10
453.4
 20
99.74999999999999
 30
6.000000000000023
  0
VERTEX
  5
A9
  8
DEFAULT
 10
772.6
 20
99.74999999999999
 30
6.000000000000023
  0
VERTEX
  5
AA
  8
DEFAULT
 10
772.6
 20
-99.74999999999999
 30
6.000000000000023
  0
VERTEX
  5
AB
  8
DEFAULT
 10
796.6000000000001
 20
-99.74999999999999
 30
6.000000000000023
  0
VERTEX
  5
AC
  8
DEFAULT
 10
796.6000000000001
 20
-49.75
 30
6.000000000000023
  0
VERTEX
  5
AD
  8
DEFAULT
 10
802.6000000000001
 20
-49.75
 30
6.000000000000023
  0
VERTEX
  5
AE
  8
DEFAULT
 10
802.6000000000001
 20
-99.75
 30
6.000000000000023
  0
VERTEX
  5
AF
  8
DEFAULT
 10
822.6000000000001
 20
-99.74999999999999
 30
6.000000000000023
  0
VERTEX
  5
B0
  8
DEFAULT
 10
822.6
 20
117.7499999999999
 30
6.000000000000023
  0
VERTEX
  5
B1
  8
DEFAULT
 10
822.5943237304689
 20
119.2443237304688
 30
6.000000000000023
  0
VERTEX
  5
B2
  8
DEFAULT
 10
822.5560546875001
 20
120.7060546875002
 30
6.000000000000023
  0
VERTEX
  5
B3
  8
DEFAULT
 10
822.5155998229982
 20
121.4155998229983
 30
6.000000000000023
  0
VERTEX
  5
B4
  8
DEFAULT
 10
822.4566284179689
 20
122.106628417969
 30
6.000000000000023
  0
VERTEX
  5
B5
  8
DEFAULT
 10
822.4192870616914
 20
122.4442870616916
 30
6.000000000000023
  0
VERTEX
  5
B6
  8
DEFAULT
 10
822.3762565612794
 20
122.7762565612796
 30
6.000000000000023
  0
VERTEX
  5
B7
  8
DEFAULT
 10
822.3272193431856
 20
123.1022193431857
 30
6.000000000000023
  0
VERTEX
  5
B8
  8
DEFAULT
 10
822.2718750000001
 20
123.4218750000003
 30
6.000000000000023
  0
VERTEX
  5
B9
  8
DEFAULT
 10
822.2099402904512
 20
123.7349402904514
 30
6.000000000000023
  0
VERTEX
  5
BA
  8
DEFAULT
 10
822.1411491394044
 20
124.0411491394047
 30
6.000000000000023
  0
VERTEX
  5
BB
  8
DEFAULT
 10
822.0652526378633
 20
124.3402526378635
 30
6.000000000000023
  0
VERTEX
  5
BC
  8
DEFAULT
 10
821.9820190429688
 20
124.6320190429691
 30
6.000000000000023
  0
VERTEX
  5
BD
  8
DEFAULT
 10
821.8912337779998
 20
124.9162337780003
 30
6.000000000000023
  0
VERTEX
  5
BE
  8
DEFAULT
 10
821.792699432373
 20
125.1926994323734
 30
6.000000000000023
  0
VERTEX
  5
BF
  8
DEFAULT
 10
821.7404693573712
 20
125.3279693573717
 30
6.000000000000023
  0
VERTEX
  5
C0
  8
DEFAULT
 10
821.6862357616424
 20
125.4612357616429
 30
6.000000000000023
  0
VERTEX
  5
C1
  8
DEFAULT
 10
821.6299787968396
 20
125.5924787968401
 30
6.000000000000023
  0
VERTEX
  5
C2
  8
DEFAULT
 10
821.5716796874999
 20
125.7216796875004
 30
6.000000000000023
  0
VERTEX
  5
C3
  8
DEFAULT
 10
821.5113207310437
 20
125.8488207310442
 30
6.000000000000023
  0
VERTEX
  5
C4
  8
DEFAULT
 10
821.4488852977752
 20
125.9738852977757
 30
6.000000000000023
  0
VERTEX
  5
C5
  8
DEFAULT
 10
821.384357830882
 20
126.0968578308824
 30
6.000000000000023
  0
VERTEX
  5
C6
  8
DEFAULT
 10
821.3177238464355
 20
126.2177238464359
 30
6.000000000000023
  0
VERTEX
  5
C7
  8
DEFAULT
 10
821.2489699333905
 20
126.336469933391
 30
6.000000000000023
  0
VERTEX
  5
C8
  8
DEFAULT
 10
821.1780837535857
 20
126.4530837535862
 30
6.000000000000023
  0
VERTEX
  5
C9
  8
DEFAULT
 10
821.1050540417432
 20
126.5675540417436
 30
6.000000000000023
  0
VERTEX
  5
CA
  8
DEFAULT
 10
821.0298706054687
 20
126.6798706054691
 30
6.000000000000023
  0
VERTEX
  5
CB
  8
DEFAULT
 10
820.9525243252515
 20
126.7900243252519
 30
6.000000000000023
  0
VERTEX
  5
CC
  8
DEFAULT
 10
820.8730071544646
 20
126.8980071544651
 30
6.000000000000023
  0
VERTEX
  5
CD
  8
DEFAULT
 10
820.7913121193646
 20
127.0038121193651
 30
6.000000000000023
  0
VERTEX
  5
CE
  8
DEFAULT
 10
820.7074333190916
 20
127.1074333190921
 30
6.000000000000023
  0
VERTEX
  5
CF
  8
DEFAULT
 10
820.6213659256694
 20
127.20886592567
 30
6.000000000000023
  0
VERTEX
  5
D0
  8
DEFAULT
 10
820.5331061840054
 20
127.3081061840061
 30
6.000000000000023
  0
VERTEX
  5
D1
  8
DEFAULT
 10
820.4426514118907
 20
127.4051514118913
 30
6.000000000000023
  0
VERTEX
  5
D2
  8
DEFAULT
 10
820.3499999999998
 20
127.5000000000003
 30
6.000000000000023
  0
VERTEX
  5
D3
  8
DEFAULT
 10
820.2551514118908
 20
127.5926514118913
 30
6.000000000000023
  0
VERTEX
  5
D4
  8
DEFAULT
 10
820.1581061840056
 20
127.6831061840061
 30
6.000000000000023
  0
VERTEX
  5
D5
  8
DEFAULT
 10
820.0588659256694
 20
127.77136592567
 30
6.000000000000023
  0
VERTEX
  5
D6
  8
DEFAULT
 10
819.9574333190915
 20
127.8574333190921
 30
6.000000000000023
  0
VERTEX
  5
D7
  8
DEFAULT
 10
819.8538121193644
 20
127.9413121193651
 30
6.000000000000023
  0
VERTEX
  5
D8
  8
DEFAULT
 10
819.7480071544644
 20
128.0230071544651
 30
6.000000000000023
  0
VERTEX
  5
D9
  8
DEFAULT
 10
819.6400243252513
 20
128.1025243252519
 30
6.000000000000023
  0
VERTEX
  5
DA
  8
DEFAULT
 10
819.5298706054684
 20
128.1798706054691
 30
6.000000000000023
  0
VERTEX
  5
DB
  8
DEFAULT
 10
819.417554041743
 20
128.2550540417436
 30
6.000000000000023
  0
VERTEX
  5
DC
  8
DEFAULT
 10
819.3030837535855
 20
128.3280837535861
 30
6.000000000000023
  0
VERTEX
  5
DD
  8
DEFAULT
 10
819.1864699333903
 20
128.3989699333909
 30
6.000000000000023
  0
VERTEX
  5
DE
  8
DEFAULT
 10
819.0677238464352
 20
128.4677238464358
 30
6.000000000000023
  0
VERTEX
  5
DF
  8
DEFAULT
 10
818.9468578308818
 20
128.5343578308823
 30
6.000000000000023
  0
VERTEX
  5
E0
  8
DEFAULT
 10
818.823885297775
 20
128.5988852977755
 30
6.000000000000023
  0
VERTEX
  5
E1
  8
DEFAULT
 10
818.6988207310435
 20
128.6613207310441
 30
6.000000000000023
  0
VERTEX
  5
E2
  8
DEFAULT
 10
818.5716796874997
 20
128.7216796875002
 30
6.000000000000023
  0
VERTEX
  5
E3
  8
DEFAULT
 10
818.4424787968394
 20
128.7799787968399
 30
6.000000000000023
  0
VERTEX
  5
E4
  8
DEFAULT
 10
818.3112357616421
 20
128.8362357616426
 30
6.000000000000023
  0
VERTEX
  5
E5
  8
DEFAULT
 10
818.177969357371
 20
128.8904693573715
 30
6.000000000000023
  0
VERTEX
  5
E6
  8
DEFAULT
 10
818.0426994323727
 20
128.9426994323732
 30
6.000000000000023
  0
VERTEX
  5
E7
  8
DEFAULT
 10
817.7662337779996
 20
129.041233778
 30
6.000000000000023
  0
VERTEX
  5
E8
  8
DEFAULT
 10
817.4820190429684
 20
129.1320190429689
 30
6.000000000000023
  0
VERTEX
  5
E9
  8
DEFAULT
 10
817.1902526378628
 20
129.2152526378633
 30
6.000000000000023
  0
VERTEX
  5
EA
  8
DEFAULT
 10
816.891149139404
 20
129.2911491394045
 30
6.000000000000023
  0
VERTEX
  5
EB
  8
DEFAULT
 10
816.5849402904506
 20
129.3599402904512
 30
6.000000000000023
  0
VERTEX
  5
EC
  8
DEFAULT
 10
816.2718749999996
 20
129.4218750000001
 30
6.000000000000023
  0
VERTEX
  5
ED
  8
DEFAULT
 10
815.9522193431849
 20
129.4772193431855
 30
6.000000000000023
  0
VERTEX
  5
EE
  8
DEFAULT
 10
815.6262565612788
 20
129.5262565612794
 30
6.000000000000023
  0
VERTEX
  5
EF
  8
DEFAULT
 10
815.2942870616907
 20
129.5692870616913
 30
6.000000000000023
  0
VERTEX
  5
F0
  8
DEFAULT
 10
814.9566284179683
 20
129.6066284179688
 30
6.000000000000023
  0
VERTEX
  5
F1
  8
DEFAULT
 10
814.2655998229975
 20
129.6655998229981
 30
6.000000000000023
  0
VERTEX
  5
F2
  8
DEFAULT
 10
813.5560546874995
 20
129.7060546875001
 30
6.000000000000023
  0
VERTEX
  5
F3
  8
DEFAULT
 10
812.0943237304682
 20
129.7443237304688
 30
6.000000000000023
  0
VERTEX
  5
F4
  8
DEFAULT
 10
810.5999999999996
 20
129.7500000000001
 30
6.000000000000023
  0
VERTEX
  5
F5
  8
DEFAULT
 10
415.3999999999994
 20
129.75
 30
6.000000000000023
  0
VERTEX
  5
F6
  8
DEFAULT
 10
413.9056762695305
 20
129.7443237304688
 30
6.000000000000023
  0
VERTEX
  5
F7
  8
DEFAULT
 10
412.4439453124993
 20
129.7060546875
 30
6.000000000000023
  0
VERTEX
  5
F8
  8
DEFAULT
 10
411.7344001770012
 20
129.6655998229981
 30
6.000000000000023
  0
VERTEX
  5
F9
  8
DEFAULT
 10
411.0433715820305
 20
129.6066284179688
 30
6.000000000000023
  0
VERTEX
  5
FA
  8
DEFAULT
 10
410.705712938308
 20
129.5692870616913
 30
6.000000000000023
  0
VERTEX
  5
FB
  8
DEFAULT
 10
410.37374343872
 20
129.5262565612793
 30
6.000000000000023
  0
VERTEX
  5
FC
  8
DEFAULT
 10
410.0477806568139
 20
129.4772193431854
 30
6.000000000000023
  0
VERTEX
  5
FD
  8
DEFAULT
 10
409.7281249999993
 20
129.421875
 30
6.000000000000023
  0
VERTEX
  5
FE
  8
DEFAULT
 10
409.4150597095482
 20
129.359940290451
 30
6.000000000000023
  0
VERTEX
  5
FF
  8
DEFAULT
 10
409.108850860595
 20
129.2911491394043
 30
6.000000000000023
  0
VERTEX
  5
100
  8
DEFAULT
 10
408.8097473621361
 20
129.2152526378632
 30
6.000000000000023
  0
VERTEX
  5
101
  8
DEFAULT
 10
408.5179809570305
 20
129.1320190429688
 30
6.000000000000023
  0
VERTEX
  5
102
  8
DEFAULT
 10
408.2337662219994
 20
129.0412337779999
 30
6.000000000000023
  0
VERTEX
  5
103
  8
DEFAULT
 10
407.9573005676262
 20
128.942699432373
 30
6.000000000000023
  0
VERTEX
  5
104
  8
DEFAULT
 10
407.822030642628
 20
128.8904693573713
 30
6.000000000000023
  0
VERTEX
  5
105
  8
DEFAULT
 10
407.6887642383568
 20
128.8362357616424
 30
6.000000000000023
  0
VERTEX
  5
106
  8
DEFAULT
 10
407.5575212031596
 20
128.7799787968397
 30
6.000000000000023
  0
VERTEX
  5
107
  8
DEFAULT
 10
407.4283203124993
 20
128.7216796875
 30
6.000000000000023
  0
VERTEX
  5
108
  8
DEFAULT
 10
407.3011792689555
 20
128.6613207310438
 30
6.000000000000023
  0
VERTEX
  5
109
  8
DEFAULT
 10
407.176114702224
 20
128.5988852977753
 30
6.000000000000023
  0
VERTEX
  5
10A
  8
DEFAULT
 10
407.0531421691172
 20
128.5343578308821
 30
6.000000000000023
  0
VERTEX
  5
10B
  8
DEFAULT
 10
406.9322761535637
 20
128.4677238464355
 30
6.000000000000023
  0
VERTEX
  5
10C
  8
DEFAULT
 10
406.8135300666087
 20
128.3989699333906
 30
6.000000000000023
  0
VERTEX
  5
10D
  8
DEFAULT
 10
406.6969162464136
 20
128.3280837535858
 30
6.000000000000023
  0
VERTEX
  5
10E
  8
DEFAULT
 10
406.5824459582561
 20
128.2550540417433
 30
6.000000000000023
  0
VERTEX
  5
10F
  8
DEFAULT
 10
406.4701293945307
 20
128.1798706054687
 30
6.000000000000023
  0
VERTEX
  5
110
  8
DEFAULT
 10
406.3599756747478
 20
128.1025243252515
 30
6.000000000000023
  0
VERTEX
  5
111
  8
DEFAULT
 10
406.2519928455347
 20
128.0230071544646
 30
6.000000000000023
  0
VERTEX
  5
112
  8
DEFAULT
 10
406.1461878806347
 20
127.9413121193646
 30
6.000000000000023
  0
VERTEX
  5
113
  8
DEFAULT
 10
406.0425666809076
 20
127.8574333190917
 30
6.000000000000023
  0
VERTEX
  5
114
  8
DEFAULT
 10
405.9411340743297
 20
127.7713659256696
 30
6.000000000000023
  0
VERTEX
  5
115
  8
DEFAULT
 10
405.8418938159937
 20
127.6831061840056
 30
6.000000000000023
  0
VERTEX
  5
116
  8
DEFAULT
 10
405.7448485881084
 20
127.5926514118908
 30
6.000000000000023
  0
VERTEX
  5
117
  8
DEFAULT
 10
405.6499999999994
 20
127.4999999999999
 30
6.000000000000023
  0
VERTEX
  5
118
  8
DEFAULT
 10
405.5573485881084
 20
127.4051514118908
 30
6.000000000000023
  0
VERTEX
  5
119
  8
DEFAULT
 10
405.4668938159937
 20
127.3081061840056
 30
6.000000000000023
  0
VERTEX
  5
11A
  8
DEFAULT
 10
405.3786340743297
 20
127.2088659256695
 30
6.000000000000023
  0
VERTEX
  5
11B
  8
DEFAULT
 10
405.2925666809076
 20
127.1074333190916
 30
6.000000000000023
  0
VERTEX
  5
11C
  8
DEFAULT
 10
405.2086878806347
 20
127.0038121193646
 30
6.000000000000023
  0
VERTEX
  5
11D
  8
DEFAULT
 10
405.1269928455347
 20
126.8980071544646
 30
6.000000000000023
  0
VERTEX
  5
11E
  8
DEFAULT
 10
405.0474756747479
 20
126.7900243252514
 30
6.000000000000023
  0
VERTEX
  5
11F
  8
DEFAULT
 10
404.9701293945308
 20
126.6798706054686
 30
6.000000000000023
  0
VERTEX
  5
120
  8
DEFAULT
 10
404.8949459582562
 20
126.5675540417431
 30
6.000000000000023
  0
VERTEX
  5
121
  8
DEFAULT
 10
404.8219162464137
 20
126.4530837535856
 30
6.000000000000023
  0
VERTEX
  5
122
  8
DEFAULT
 10
404.7510300666089
 20
126.3364699333904
 30
6.000000000000023
  0
VERTEX
  5
123
  8
DEFAULT
 10
404.682276153564
 20
126.2177238464353
 30
6.000000000000023
  0
VERTEX
  5
124
  8
DEFAULT
 10
404.6156421691175
 20
126.0968578308819
 30
6.000000000000023
  0
VERTEX
  5
125
  8
DEFAULT
 10
404.5511147022243
 20
125.973885297775
 30
6.000000000000023
  0
VERTEX
  5
126
  8
DEFAULT
 10
404.4886792689557
 20
125.8488207310436
 30
6.000000000000023
  0
VERTEX
  5
127
  8
DEFAULT
 10
404.4283203124995
 20
125.7216796874998
 30
6.000000000000023
  0
VERTEX
  5
128
  8
DEFAULT
 10
404.3700212031598
 20
125.5924787968395
 30
6.000000000000023
  0
VERTEX
  5
129
  8
DEFAULT
 10
404.3137642383571
 20
125.4612357616422
 30
6.000000000000023
  0
VERTEX
  5
12A
  8
DEFAULT
 10
404.2595306426282
 20
125.3279693573711
 30
6.000000000000023
  0
VERTEX
  5
12B
  8
DEFAULT
 10
404.2073005676265
 20
125.1926994323728
 30
6.000000000000023
  0
VERTEX
  5
12C
  8
DEFAULT
 10
404.1087662219996
 20
124.9162337779996
 30
6.000000000000023
  0
VERTEX
  5
12D
  8
DEFAULT
 10
404.0179809570308
 20
124.6320190429685
 30
6.000000000000023
  0
VERTEX
  5
12E
  8
DEFAULT
 10
403.9347473621365
 20
124.3402526378629
 30
6.000000000000023
  0
VERTEX
  5
12F
  8
DEFAULT
 10
403.8588508605953
 20
124.041149139404
 30
6.000000000000023
  0
VERTEX
  5
130
  8
DEFAULT
 10
403.7900597095486
 20
123.7349402904508
 30
6.000000000000023
  0
VERTEX
  5
131
  8
DEFAULT
 10
403.7281249999996
 20
123.4218749999997
 30
6.000000000000023
  0
VERTEX
  5
132
  8
DEFAULT
 10
403.6727806568142
 20
123.1022193431852
 30
6.000000000000023
  0
VERTEX
  5
133
  8
DEFAULT
 10
403.6237434387203
 20
122.776256561279
 30
6.000000000000023
  0
VERTEX
  5
134
  8
DEFAULT
 10
403.5807129383084
 20
122.444287061691
 30
6.000000000000023
  0
VERTEX
  5
135
  8
DEFAULT
 10
403.5433715820309
 20
122.1066284179685
 30
6.000000000000023
  0
VERTEX
  5
136
  8
DEFAULT
 10
403.4844001770016
 20
121.4155998229978
 30
6.000000000000023
  0
VERTEX
  5
137
  8
DEFAULT
 10
403.4439453124997
 20
120.7060546874998
 30
6.000000000000023
  0
VERTEX
  5
138
  8
DEFAULT
 10
403.405676269531
 20
119.2443237304685
 30
6.000000000000023
  0
SEQEND
  5
139
  8
DEFAULT
  0
ENDSEC
  0
EOF
