  0
SECTION
  2
HEADER
  9
$ACADVER
  1
AC1009
  9
$DWGCODEPAGE
  3
ansi_1252
  9
$INSBASE
 10
0.0
 20
0.0
 30
0.0
  9
$EXTMIN
 10
-179.0
 20
115.0000000000266
 30
-31.5
  9
$EXTMAX
 10
75.00000000000003
 20
363.0000000000268
 30
16.8
  9
$LIMMIN
 10
0.0
 20
0.0
  9
$LIMMAX
 10
12.0
 20
9.0
  9
$ORTHOMODE
 70
     0
  9
$REGENMODE
 70
     1
  9
$FILLMODE
 70
     1
  9
$QTEXTMODE
 70
     0
  9
$MIRRTEXT
 70
     1
  9
$DRAGMODE
 70
     2
  9
$LTSCALE
 40
1.0
  9
$OSMODE
 70
    37
  9
$ATTMODE
 70
     1
  9
$TEXTSIZE
 40
0.2
  9
$TRACEWID
 40
0.05
  9
$TEXTSTYLE
  7
STANDARD
  9
$CLAYER
  8
DEFAULT
  9
$CELTYPE
  6
BYLAYER
  9
$CECOLOR
 62
   256
  9
$DIMSCALE
 40
1.0
  9
$DIMASZ
 40
0.18
  9
$DIMEXO
 40
0.0625
  9
$DIMDLI
 40
0.38
  9
$DIMRND
 40
0.0
  9
$DIMDLE
 40
0.0
  9
$DIMEXE
 40
0.18
  9
$DIMTP
 40
0.0
  9
$DIMTM
 40
0.0
  9
$DIMTXT
 40
0.18
  9
$DIMCEN
 40
0.09
  9
$DIMTSZ
 40
0.0
  9
$DIMTOL
 70
     0
  9
$DIMLIM
 70
     0
  9
$DIMTIH
 70
     1
  9
$DIMTOH
 70
     1
  9
$DIMSE1
 70
     0
  9
$DIMSE2
 70
     0
  9
$DIMTAD
 70
     0
  9
$DIMZIN
 70
     0
  9
$DIMBLK
  1

  9
$DIMASO
 70
     1
  9
$DIMSHO
 70
     1
  9
$DIMPOST
  1

  9
$DIMAPOST
  1

  9
$DIMALT
 70
     0
  9
$DIMALTD
 70
     2
  9
$DIMALTF
 40
25.4
  9
$DIMLFAC
 40
1.0
  9
$DIMTOFL
 70
     0
  9
$DIMTVP
 40
0.0
  9
$DIMTIX
 70
     0
  9
$DIMSOXD
 70
     0
  9
$DIMSAH
 70
     0
  9
$DIMBLK1
  1

  9
$DIMBLK2
  1

  9
$DIMSTYLE
  2
STANDARD_ACAD
  9
$DIMCLRD
 70
     0
  9
$DIMCLRE
 70
     0
  9
$DIMCLRT
 70
     0
  9
$DIMTFAC
 40
1.0
  9
$DIMGAP
 40
0.09
  9
$LUNITS
 70
     2
  9
$LUPREC
 70
     3
  9
$SKETCHINC
 40
0.1
  9
$FILLETRAD
 40
0.0
  9
$AUNITS
 70
     0
  9
$AUPREC
 70
     0
  9
$MENU
  1
.
  9
$ELEVATION
 40
0.0
  9
$PELEVATION
 40
0.0
  9
$THICKNESS
 40
0.0
  9
$LIMCHECK
 70
     0
  9
$CHAMFERA
 40
0.0
  9
$CHAMFERB
 40
0.0
  9
$SKPOLY
 70
     0
  9
$TDCREATE
 40
2460594.788068056
  9
$TDUPDATE
 40
2460594.788114907
  9
$TDINDWG
 40
0.0000000116
  9
$TDUSRTIMER
 40
0.0000000116
  9
$USRTIMER
 70
     1
  9
$ANGBASE
 50
0.0
  9
$ANGDIR
 70
     0
  9
$PDMODE
 70
     0
  9
$PDSIZE
 40
0.0
  9
$PLINEWID
 40
0.0
  9
$COORDS
 70
     1
  9
$SPLFRAME
 70
     0
  9
$SPLINETYPE
 70
     6
  9
$SPLINESEGS
 70
     8
  9
$ATTDIA
 70
     0
  9
$ATTREQ
 70
     1
  9
$HANDLING
 70
     1
  9
$HANDSEED
  5
D1
  9
$SURFTAB1
 70
     6
  9
$SURFTAB2
 70
     6
  9
$SURFTYPE
 70
     6
  9
$SURFU
 70
     6
  9
$SURFV
 70
     6
  9
$UCSNAME
  2

  9
$UCSORG
 10
0.0
 20
0.0
 30
0.0
  9
$UCSXDIR
 10
1.0
 20
0.0
 30
0.0
  9
$UCSYDIR
 10
0.0
 20
1.0
 30
0.0
  9
$PUCSNAME
  2

  9
$PUCSORG
 10
0.0
 20
0.0
 30
0.0
  9
$PUCSXDIR
 10
1.0
 20
0.0
 30
0.0
  9
$PUCSYDIR
 10
0.0
 20
1.0
 30
0.0
  9
$USERI1
 70
     0
  9
$USERI2
 70
     0
  9
$USERI3
 70
     0
  9
$USERI4
 70
     0
  9
$USERI5
 70
     0
  9
$USERR1
 40
0.0
  9
$USERR2
 40
0.0
  9
$USERR3
 40
0.0
  9
$USERR4
 40
0.0
  9
$USERR5
 40
0.0
  9
$WORLDVIEW
 70
     1
  9
$SHADEDGE
 70
     3
  9
$SHADEDIF
 70
    70
  9
$TILEMODE
 70
     1
  9
$MAXACTVP
 70
    64
  9
$PLIMCHECK
 70
     0
  9
$PEXTMIN
 10
1.000000000000000E+20
 20
1.000000000000000E+20
 30
1.000000000000000E+20
  9
$PEXTMAX
 10
-1.000000000000000E+20
 20
-1.000000000000000E+20
 30
-1.000000000000000E+20
  9
$PLIMMIN
 10
0.0
 20
0.0
  9
$PLIMMAX
 10
12.0
 20
9.0
  9
$UNITMODE
 70
     0
  9
$VISRETAIN
 70
     1
  9
$PLINEGEN
 70
     0
  9
$PSLTSCALE
 70
     1
  0
ENDSEC
  0
SECTION
  2
TABLES
  0
TABLE
  2
VPORT
 70
     1
  0
VPORT
  2
*ACTIVE
 70
     0
 10
0.0
 20
0.0
 11
1.0
 21
1.0
 12
10.42990654205607
 22
4.5
 13
0.0
 23
0.0
 14
0.5
 24
0.5
 15
0.5
 25
0.5
 16
0.0
 26
0.0
 36
1.0
 17
0.0
 27
0.0
 37
0.0
 40
9.0
 41
1.972972972850329
 42
50.0
 43
0.0
 44
0.0
 50
0.0
 51
0.0
 71
     0
 72
   100
 73
     1
 74
     3
 75
     0
 76
     0
 77
     0
 78
     0
  0
ENDTAB
  0
TABLE
  2
LTYPE
 70
     1
  0
LTYPE
  2
CONTINUOUS
 70
     0
  3
Solid line
 72
    65
 73
     0
 40
0.0
  0
ENDTAB
  0
TABLE
  2
LAYER
 70
     2
  0
LAYER
  2
0
 70
     0
 62
     7
  6
CONTINUOUS
  0
LAYER
  2
DEFAULT
 70
     0
 62
     7
  6
CONTINUOUS
  0
ENDTAB
  0
TABLE
  2
STYLE
 70
     1
  0
STYLE
  2
STANDARD
 70
     0
 40
0.0
 41
1.0
 50
0.0
 71
     0
 42
0.2
  3
txt
  4

  0
ENDTAB
  0
TABLE
  2
VIEW
 70
     0
  0
ENDTAB
  0
TABLE
  2
UCS
 70
     0
  0
ENDTAB
  0
TABLE
  2
APPID
 70
     2
  0
APPID
  2
ACAD
 70
     0
  0
APPID
  2
RHINO
 70
     0
  0
ENDTAB
  0
TABLE
  2
DIMSTYLE
 70
     1
  0
DIMSTYLE
  2
STANDARD_ACAD
 70
     0
  3

  4

  5

  6

  7

 40
1.0
 41
0.18
 42
0.0625
 43
0.38
 44
0.18
 45
0.0
 46
0.0
 47
0.0
 48
0.0
140
0.18
141
0.09
142
0.0
143
25.4
144
1.0
145
0.0
146
1.0
147
0.09
 71
     0
 72
     0
 73
     1
 74
     1
 75
     0
 76
     0
 77
     0
 78
     0
170
     0
171
     2
172
     0
173
     0
174
     0
175
     0
176
     0
177
     0
178
     0
  0
ENDTAB
  0
ENDSEC
  0
SECTION
  2
BLOCKS
  0
BLOCK
  8
0
  2
$MODEL_SPACE
 70
     0
 10
0.0
 20
0.0
 30
0.0
  3
$MODEL_SPACE
  1

  0
ENDBLK
  5
21
  8
0
  0
BLOCK
 67
     1
  8
0
  2
$PAPER_SPACE
 70
     0
 10
0.0
 20
0.0
 30
0.0
  3
$PAPER_SPACE
  1

  0
ENDBLK
  5
1D
 67
     1
  8
0
  0
ENDSEC
  0
SECTION
  2
ENTITIES
  0
POLYLINE
  5
60
  8
DEFAULT
 66
     1
 10
0.0
 20
0.0
 30
-31.49999999999999
 70
     1
  0
VERTEX
  5
61
  8
DEFAULT
 10
-86.96942416022583
 20
246.0000000004118
 30
-31.49999999999999
  0
VERTEX
  5
62
  8
DEFAULT
 10
-86.96942415990519
 20
248.4999999993736
 30
-31.49999999999999
 42
1.000000061039682
  0
VERTEX
  5
63
  8
DEFAULT
 10
-97.69999999999983
 20
248.4999993457634
 30
-31.49999999999999
  0
VERTEX
  5
64
  8
DEFAULT
 10
-97.69999999999959
 20
246.000000000027
 30
-31.49999999999999
 42
-0.4142135623731324
  0
VERTEX
  5
65
  8
DEFAULT
 10
-100.6999999999997
 20
243.0000000000267
 30
-31.49999999999999
  0
VERTEX
  5
66
  8
DEFAULT
 10
-137.6823033913695
 20
243.0000000000267
 30
-31.49999999999999
 42
-0.5061707018741841
  0
VERTEX
  5
67
  8
DEFAULT
 10
-140.5451999007222
 20
246.8965620875241
 30
-31.49999999999999
 42
1.361055865892385
  0
VERTEX
  5
68
  8
DEFAULT
 10
-150.7853759393724
 20
246.8965620875237
 30
-31.49999999999999
 42
-0.5061707018741376
  0
VERTEX
  5
69
  8
DEFAULT
 10
-153.6482724487249
 20
243.0000000000265
 30
-31.49999999999999
  0
VERTEX
  5
6A
  8
DEFAULT
 10
-165.6517275512751
 20
243.0000000000267
 30
-31.49999999999999
 42
-0.5061707018741486
  0
VERTEX
  5
6B
  8
DEFAULT
 10
-168.5146240606276
 20
246.896562087524
 30
-31.49999999999999
 42
0.599751874976339
  0
VERTEX
  5
6C
  8
DEFAULT
 10
-175.1517490099607
 20
253.646349523561
 30
-31.49999999999999
 42
-0.500895986466357
  0
VERTEX
  5
6D
  8
DEFAULT
 10
-178.9999999999999
 20
256.5239301493465
 30
-31.49999999999999
  0
VERTEX
  5
6E
  8
DEFAULT
 10
-179.0
 20
349.4760698507068
 30
-31.49999999999999
 42
-0.5008959864663975
  0
VERTEX
  5
6F
  8
DEFAULT
 10
-175.1517490099607
 20
352.3536504764925
 30
-31.49999999999999
 42
0.599751874976351
  0
VERTEX
  5
70
  8
DEFAULT
 10
-168.5146240606277
 20
359.1034379125297
 30
-31.49999999999999
 42
-0.5061707018741148
  0
VERTEX
  5
71
  8
DEFAULT
 10
-165.6517275512751
 20
363.0000000000267
 30
-31.49999999999999
  0
VERTEX
  5
72
  8
DEFAULT
 10
-154.0305758400939
 20
363.0000000000267
 30
-31.49999999999999
 42
-0.4142135623732606
  0
VERTEX
  5
73
  8
DEFAULT
 10
-151.0305758400939
 20
360.000000000025
 30
-31.49999999999999
  0
VERTEX
  5
74
  8
DEFAULT
 10
-151.0305758400952
 20
357.5000005744363
 30
-31.49999999999999
 42
1.000000121644175
  0
VERTEX
  5
75
  8
DEFAULT
 10
-140.3000000000003
 20
357.5000007308544
 30
-31.49999999999999
  0
VERTEX
  5
76
  8
DEFAULT
 10
-140.299999999848
 20
360.0000000002095
 30
-31.49999999999999
 42
-0.4142135623552553
  0
VERTEX
  5
77
  8
DEFAULT
 10
-137.299999999848
 20
363.0000000000268
 30
-31.49999999999999
  0
VERTEX
  5
78
  8
DEFAULT
 10
-100.6999999999997
 20
363.0000000000267
 30
-31.49999999999999
 42
-0.4142135623731061
  0
VERTEX
  5
79
  8
DEFAULT
 10
-97.6999999999997
 20
360.0000000000267
 30
-31.49999999999999
  0
VERTEX
  5
7A
  8
DEFAULT
 10
-97.69999999999975
 20
357.4999999999898
 30
-31.49999999999999
 42
1.000000051921648
  0
VERTEX
  5
7B
  8
DEFAULT
 10
-86.96942415990536
 20
357.5000005571388
 30
-31.49999999999999
  0
VERTEX
  5
7C
  8
DEFAULT
 10
-86.96942415990534
 20
360.0000000000267
 30
-31.49999999999999
 42
-0.4142135623730944
  0
VERTEX
  5
7D
  8
DEFAULT
 10
-83.9694241599054
 20
363.0000000000267
 30
-31.49999999999999
  0
VERTEX
  5
7E
  8
DEFAULT
 10
-72.34827244872554
 20
363.0000000000267
 30
-31.49999999999999
 42
-0.5061707018741437
  0
VERTEX
  5
7F
  8
DEFAULT
 10
-69.48537593937273
 20
359.1034379125297
 30
-31.49999999999999
 42
0.5997518749763615
  0
VERTEX
  5
80
  8
DEFAULT
 10
-62.84825099003896
 20
352.3536504764926
 30
-31.49999999999999
 42
-0.5008959864665454
  0
VERTEX
  5
81
  8
DEFAULT
 10
-58.99999999999945
 20
349.4760698507056
 30
-31.49999999999999
  0
VERTEX
  5
82
  8
DEFAULT
 10
-59.00000000000006
 20
256.5239301493469
 30
-31.49999999999999
 42
-0.5008959864664302
  0
VERTEX
  5
83
  8
DEFAULT
 10
-62.84825099003976
 20
253.6463495235613
 30
-31.49999999999999
 42
0.5997518749763189
  0
VERTEX
  5
84
  8
DEFAULT
 10
-69.4853759393724
 20
246.8965620875239
 30
-31.49999999999999
 42
-0.506170701874089
  0
VERTEX
  5
85
  8
DEFAULT
 10
-72.34827244872483
 20
243.0000000000269
 30
-31.49999999999999
  0
VERTEX
  5
86
  8
DEFAULT
 10
-83.9694241602258
 20
243.0000000000268
 30
-31.49999999999999
 42
-0.4142135624106907
  0
SEQEND
  5
87
  8
DEFAULT
  0
POLYLINE
  5
88
  8
DEFAULT
 66
     1
 10
0.0
 20
0.0
 30
-31.49999999999999
 70
     1
  0
VERTEX
  5
89
  8
DEFAULT
 10
-44.99999999999997
 20
246.0000000000267
 30
-31.49999999999999
  0
VERTEX
  5
8A
  8
DEFAULT
 10
-45.0
 20
360.0000000000267
 30
-31.49999999999999
 42
-0.414213562373097
  0
VERTEX
  5
8B
  8
DEFAULT
 10
-42.0
 20
363.0000000000267
 30
-31.49999999999999
  0
VERTEX
  5
8C
  8
DEFAULT
 10
72.0
 20
363.0000000000267
 30
-31.49999999999999
 42
-0.4142135623730927
  0
VERTEX
  5
8D
  8
DEFAULT
 10
75.0
 20
360.0000000000267
 30
-31.49999999999999
  0
VERTEX
  5
8E
  8
DEFAULT
 10
75.0
 20
246.0000000000267
 30
-31.49999999999999
 42
-0.4142135623730976
  0
VERTEX
  5
8F
  8
DEFAULT
 10
72.0
 20
243.0000000000267
 30
-31.49999999999999
  0
VERTEX
  5
90
  8
DEFAULT
 10
-41.99999999999999
 20
243.0000000000267
 30
-31.49999999999999
 42
-0.4142135623730981
  0
SEQEND
  5
91
  8
DEFAULT
  0
CIRCLE
  5
92
  8
DEFAULT
 10
39.63471207995252
 20
357.4999999999895
 30
31.49999999999999
 40
1.599999999999966
210
0.0
220
0.0
230
-1.0
  0
CIRCLE
  5
93
  8
DEFAULT
 10
11.66528792004745
 20
357.4999999999895
 30
31.49999999999999
 40
1.60000000000008
210
0.0
220
0.0
230
-1.0
  0
CIRCLE
  5
94
  8
DEFAULT
 10
-41.66528792004749
 20
357.4999999999895
 30
31.49999999999999
 40
1.600000000000023
210
0.0
220
0.0
230
-1.0
  0
CIRCLE
  5
95
  8
DEFAULT
 10
-69.63471207995258
 20
357.4999999999895
 30
31.5
 40
1.599999999999966
210
0.0
220
0.0
230
-1.0
  0
CIRCLE
  5
96
  8
DEFAULT
 10
-69.63471207995258
 20
248.500000000064
 30
31.5
 40
1.599999999999994
210
0.0
220
0.0
230
-1.0
  0
CIRCLE
  5
97
  8
DEFAULT
 10
39.63471207995259
 20
248.500000000064
 30
31.5
 40
1.599999999999994
210
0.0
220
0.0
230
-1.0
  0
CIRCLE
  5
98
  8
DEFAULT
 10
11.66528792004744
 20
248.500000000064
 30
31.49999999999999
 40
1.599999999999994
210
0.0
220
0.0
230
-1.0
  0
CIRCLE
  5
99
  8
DEFAULT
 10
-41.66528792004743
 20
248.500000000064
 30
31.49999999999999
 40
1.599999999999994
210
0.0
220
0.0
230
-1.0
  0
POLYLINE
  5
9A
  8
DEFAULT
 66
     1
 10
0.0
 20
0.0
 30
16.8
 70
     1
  0
VERTEX
  5
9B
  8
DEFAULT
 10
-42.00000000000001
 20
115.0000000000266
 30
16.8
  0
VERTEX
  5
9C
  8
DEFAULT
 10
72.00000000000023
 20
115.0000000000267
 30
16.8
 42
0.4142135623730759
  0
VERTEX
  5
9D
  8
DEFAULT
 10
75.00000000000003
 20
118.0000000000267
 30
16.8
  0
VERTEX
  5
9E
  8
DEFAULT
 10
75.00000000000001
 20
232.0000000000267
 30
16.8
 42
0.4142135623731106
  0
VERTEX
  5
9F
  8
DEFAULT
 10
71.99999999999987
 20
235.0000000000267
 30
16.8
  0
VERTEX
  5
A0
  8
DEFAULT
 10
-42.0
 20
235.0000000000267
 30
16.8
 42
0.414213562373095
  0
VERTEX
  5
A1
  8
DEFAULT
 10
-44.99999999999999
 20
232.0000000000266
 30
16.8
  0
VERTEX
  5
A2
  8
DEFAULT
 10
-45.0
 20
118.0000000000267
 30
16.8
 42
0.4142135623730972
  0
SEQEND
  5
A3
  8
DEFAULT
  0
POLYLINE
  5
A4
  8
DEFAULT
 66
     1
 10
0.0
 20
0.0
 30
16.8
 70
     1
  0
VERTEX
  5
A5
  8
DEFAULT
 10
-7.0
 20
169.0
 30
16.8
  0
VERTEX
  5
A6
  8
DEFAULT
 10
-7.0
 20
181.0
 30
16.8
  0
VERTEX
  5
A7
  8
DEFAULT
 10
1.999999999999996
 20
181.0
 30
16.8
  0
VERTEX
  5
A8
  8
DEFAULT
 10
1.999999999999996
 20
169.0
 30
16.8
  0
SEQEND
  5
A9
  8
DEFAULT
  0
POLYLINE
  5
AA
  8
DEFAULT
 66
     1
 10
0.0
 20
0.0
 30
16.8
 70
     1
  0
VERTEX
  5
AB
  8
DEFAULT
 10
2.5
 20
163.0
 30
16.8
  0
VERTEX
  5
AC
  8
DEFAULT
 10
9.499999999999996
 20
163.0
 30
16.8
 42
-0.9999999999999923
  0
VERTEX
  5
AD
  8
DEFAULT
 10
9.500000000000004
 20
160.0
 30
16.8
  0
VERTEX
  5
AE
  8
DEFAULT
 10
2.500000000000004
 20
160.0
 30
16.8
 42
-0.9999999999999739
  0
SEQEND
  5
AF
  8
DEFAULT
  0
POLYLINE
  5
B0
  8
DEFAULT
 66
     1
 10
0.0
 20
0.0
 30
16.8
 70
     1
  0
VERTEX
  5
B1
  8
DEFAULT
 10
22.5
 20
163.0
 30
16.8
  0
VERTEX
  5
B2
  8
DEFAULT
 10
29.49999999999999
 20
163.0
 30
16.8
 42
-1.000000000000024
  0
VERTEX
  5
B3
  8
DEFAULT
 10
29.5
 20
160.0
 30
16.8
  0
VERTEX
  5
B4
  8
DEFAULT
 10
22.5
 20
160.0
 30
16.8
 42
-0.9999999999999966
  0
SEQEND
  5
B5
  8
DEFAULT
  0
POLYLINE
  5
B6
  8
DEFAULT
 66
     1
 10
0.0
 20
0.0
 30
16.8
 70
     1
  0
VERTEX
  5
B7
  8
DEFAULT
 10
22.5
 20
187.0
 30
16.8
 42
-0.9999999999999903
  0
VERTEX
  5
B8
  8
DEFAULT
 10
22.5
 20
190.0
 30
16.8
  0
VERTEX
  5
B9
  8
DEFAULT
 10
29.5
 20
190.0
 30
16.8
 42
-1.000000000000009
  0
VERTEX
  5
BA
  8
DEFAULT
 10
29.5
 20
186.9999999999999
 30
16.8
  0
SEQEND
  5
BB
  8
DEFAULT
  0
POLYLINE
  5
BC
  8
DEFAULT
 66
     1
 10
0.0
 20
0.0
 30
16.8
 70
     1
  0
VERTEX
  5
BD
  8
DEFAULT
 10
2.500000000000004
 20
187.0
 30
16.8
 42
-0.9999999999999992
  0
VERTEX
  5
BE
  8
DEFAULT
 10
2.499999999999996
 20
190.0
 30
16.8
  0
VERTEX
  5
BF
  8
DEFAULT
 10
9.499999999999996
 20
190.0
 30
16.8
 42
-1.000000000000021
  0
VERTEX
  5
C0
  8
DEFAULT
 10
9.500000000000004
 20
187.0
 30
16.8
  0
SEQEND
  5
C1
  8
DEFAULT
  0
CIRCLE
  5
C2
  8
DEFAULT
 10
-69.63471207995259
 20
120.5000000000639
 30
-16.8
 40
1.599999999999994
210
0.0
220
0.0
230
-1.0
  0
CIRCLE
  5
C3
  8
DEFAULT
 10
-41.66528792004748
 20
120.5000000000639
 30
-16.8
 40
1.600000000000023
210
0.0
220
0.0
230
-1.0
  0
CIRCLE
  5
C4
  8
DEFAULT
 10
11.66528792004747
 20
120.500000000064
 30
-16.8
 40
1.599999999999994
210
0.0
220
0.0
230
-1.0
  0
CIRCLE
  5
C5
  8
DEFAULT
 10
39.63471207995259
 20
120.5000000000639
 30
-16.8
 40
1.600000000000023
210
0.0
220
0.0
230
-1.0
  0
CIRCLE
  5
C6
  8
DEFAULT
 10
-69.63471207995258
 20
229.4999999999895
 30
-16.8
 40
1.599999999999994
210
0.0
220
0.0
230
-1.0
  0
CIRCLE
  5
C7
  8
DEFAULT
 10
-41.66528792004749
 20
229.4999999999894
 30
-16.8
 40
1.599999999999994
210
0.0
220
0.0
230
-1.0
  0
CIRCLE
  5
C8
  8
DEFAULT
 10
11.66528792004746
 20
229.4999999999895
 30
-16.8
 40
1.600000000000023
210
0.0
220
0.0
230
-1.0
  0
CIRCLE
  5
C9
  8
DEFAULT
 10
39.6347120799526
 20
229.4999999999895
 30
-16.8
 40
1.599999999999994
210
0.0
220
0.0
230
-1.0
  0
ENDSEC
  0
EOF
