  0
SECTION
  2
HEADER
  9
$ACADVER
  1
AC1009
  9
$DWGCODEPAGE
  3
ansi_1252
  9
$INSBASE
 10
0.0
 20
0.0
 30
0.0
  9
$EXTMIN
 10
-6.000000000000028
 20
126.0
 30
0.0
  9
$EXTMAX
 10
133.1299930960449
 20
166.0
 30
0.0
  9
$LIMMIN
 10
0.0
 20
0.0
  9
$LIMMAX
 10
12.0
 20
9.0
  9
$ORTHOMODE
 70
     0
  9
$REGENMODE
 70
     1
  9
$FILLMODE
 70
     1
  9
$QTEXTMODE
 70
     0
  9
$MIRRTEXT
 70
     1
  9
$DRAGMODE
 70
     2
  9
$LTSCALE
 40
1.0
  9
$OSMODE
 70
    37
  9
$ATTMODE
 70
     1
  9
$TEXTSIZE
 40
0.2
  9
$TRACEWID
 40
0.05
  9
$TEXTSTYLE
  7
STANDARD
  9
$CLAYER
  8
DEFAULT
  9
$CELTYPE
  6
BYLAYER
  9
$CECOLOR
 62
   256
  9
$DIMSCALE
 40
1.0
  9
$DIMASZ
 40
0.18
  9
$DIMEXO
 40
0.0625
  9
$DIMDLI
 40
0.38
  9
$DIMRND
 40
0.0
  9
$DIMDLE
 40
0.0
  9
$DIMEXE
 40
0.18
  9
$DIMTP
 40
0.0
  9
$DIMTM
 40
0.0
  9
$DIMTXT
 40
0.18
  9
$DIMCEN
 40
0.09
  9
$DIMTSZ
 40
0.0
  9
$DIMTOL
 70
     0
  9
$DIMLIM
 70
     0
  9
$DIMTIH
 70
     1
  9
$DIMTOH
 70
     1
  9
$DIMSE1
 70
     0
  9
$DIMSE2
 70
     0
  9
$DIMTAD
 70
     0
  9
$DIMZIN
 70
     0
  9
$DIMBLK
  1

  9
$DIMASO
 70
     1
  9
$DIMSHO
 70
     1
  9
$DIMPOST
  1

  9
$DIMAPOST
  1

  9
$DIMALT
 70
     0
  9
$DIMALTD
 70
     2
  9
$DIMALTF
 40
25.4
  9
$DIMLFAC
 40
1.0
  9
$DIMTOFL
 70
     0
  9
$DIMTVP
 40
0.0
  9
$DIMTIX
 70
     0
  9
$DIMSOXD
 70
     0
  9
$DIMSAH
 70
     0
  9
$DIMBLK1
  1

  9
$DIMBLK2
  1

  9
$DIMSTYLE
  2
STANDARD_ACAD
  9
$DIMCLRD
 70
     0
  9
$DIMCLRE
 70
     0
  9
$DIMCLRT
 70
     0
  9
$DIMTFAC
 40
1.0
  9
$DIMGAP
 40
0.09
  9
$LUNITS
 70
     2
  9
$LUPREC
 70
     3
  9
$SKETCHINC
 40
0.1
  9
$FILLETRAD
 40
0.0
  9
$AUNITS
 70
     0
  9
$AUPREC
 70
     0
  9
$MENU
  1
.
  9
$ELEVATION
 40
0.0
  9
$PELEVATION
 40
0.0
  9
$THICKNESS
 40
0.0
  9
$LIMCHECK
 70
     0
  9
$CHAMFERA
 40
0.0
  9
$CHAMFERB
 40
0.0
  9
$SKPOLY
 70
     0
  9
$TDCREATE
 40
2460722.83481434
  9
$TDUPDATE
 40
2460722.834825313
  9
$TDINDWG
 40
0.0000000116
  9
$TDUSRTIMER
 40
0.0000000116
  9
$USRTIMER
 70
     1
  9
$ANGBASE
 50
0.0
  9
$ANGDIR
 70
     0
  9
$PDMODE
 70
     0
  9
$PDSIZE
 40
0.0
  9
$PLINEWID
 40
0.0
  9
$COORDS
 70
     1
  9
$SPLFRAME
 70
     0
  9
$SPLINETYPE
 70
     6
  9
$SPLINESEGS
 70
     8
  9
$ATTDIA
 70
     0
  9
$ATTREQ
 70
     1
  9
$HANDLING
 70
     1
  9
$HANDSEED
  5
171
  9
$SURFTAB1
 70
     6
  9
$SURFTAB2
 70
     6
  9
$SURFTYPE
 70
     6
  9
$SURFU
 70
     6
  9
$SURFV
 70
     6
  9
$UCSNAME
  2

  9
$UCSORG
 10
0.0
 20
0.0
 30
0.0
  9
$UCSXDIR
 10
1.0
 20
0.0
 30
0.0
  9
$UCSYDIR
 10
0.0
 20
1.0
 30
0.0
  9
$PUCSNAME
  2

  9
$PUCSORG
 10
0.0
 20
0.0
 30
0.0
  9
$PUCSXDIR
 10
1.0
 20
0.0
 30
0.0
  9
$PUCSYDIR
 10
0.0
 20
1.0
 30
0.0
  9
$USERI1
 70
     0
  9
$USERI2
 70
     0
  9
$USERI3
 70
     0
  9
$USERI4
 70
     0
  9
$USERI5
 70
     0
  9
$USERR1
 40
0.0
  9
$USERR2
 40
0.0
  9
$USERR3
 40
0.0
  9
$USERR4
 40
0.0
  9
$USERR5
 40
0.0
  9
$WORLDVIEW
 70
     1
  9
$SHADEDGE
 70
     3
  9
$SHADEDIF
 70
    70
  9
$TILEMODE
 70
     1
  9
$MAXACTVP
 70
    64
  9
$PLIMCHECK
 70
     0
  9
$PEXTMIN
 10
1.000000000000000E+20
 20
1.000000000000000E+20
 30
1.000000000000000E+20
  9
$PEXTMAX
 10
-1.000000000000000E+20
 20
-1.000000000000000E+20
 30
-1.000000000000000E+20
  9
$PLIMMIN
 10
0.0
 20
0.0
  9
$PLIMMAX
 10
12.0
 20
9.0
  9
$UNITMODE
 70
     0
  9
$VISRETAIN
 70
     1
  9
$PLINEGEN
 70
     0
  9
$PSLTSCALE
 70
     1
  0
ENDSEC
  0
SECTION
  2
TABLES
  0
TABLE
  2
VPORT
 70
     1
  0
VPORT
  2
*ACTIVE
 70
     0
 10
0.0
 20
0.0
 11
1.0
 21
1.0
 12
10.42990654205607
 22
4.5
 13
0.0
 23
0.0
 14
0.5
 24
0.5
 15
0.5
 25
0.5
 16
0.0
 26
0.0
 36
1.0
 17
0.0
 27
0.0
 37
0.0
 40
9.0
 41
1.972972972850329
 42
50.0
 43
0.0
 44
0.0
 50
0.0
 51
0.0
 71
     0
 72
   100
 73
     1
 74
     3
 75
     0
 76
     0
 77
     0
 78
     0
  0
ENDTAB
  0
TABLE
  2
LTYPE
 70
     1
  0
LTYPE
  2
CONTINUOUS
 70
     0
  3
Solid line
 72
    65
 73
     0
 40
0.0
  0
ENDTAB
  0
TABLE
  2
LAYER
 70
     2
  0
LAYER
  2
0
 70
     0
 62
     7
  6
CONTINUOUS
  0
LAYER
  2
DEFAULT
 70
     0
 62
     7
  6
CONTINUOUS
  0
ENDTAB
  0
TABLE
  2
STYLE
 70
     1
  0
STYLE
  2
STANDARD
 70
     0
 40
0.0
 41
1.0
 50
0.0
 71
     0
 42
0.2
  3
txt
  4

  0
ENDTAB
  0
TABLE
  2
VIEW
 70
     0
  0
ENDTAB
  0
TABLE
  2
UCS
 70
     0
  0
ENDTAB
  0
TABLE
  2
APPID
 70
     2
  0
APPID
  2
ACAD
 70
     0
  0
APPID
  2
RHINO
 70
     0
  0
ENDTAB
  0
TABLE
  2
DIMSTYLE
 70
     1
  0
DIMSTYLE
  2
STANDARD_ACAD
 70
     0
  3

  4

  5

  6

  7

 40
1.0
 41
0.18
 42
0.0625
 43
0.38
 44
0.18
 45
0.0
 46
0.0
 47
0.0
 48
0.0
140
0.18
141
0.09
142
0.0
143
25.4
144
1.0
145
0.0
146
1.0
147
0.09
 71
     0
 72
     0
 73
     1
 74
     1
 75
     0
 76
     0
 77
     0
 78
     0
170
     0
171
     2
172
     0
173
     0
174
     0
175
     0
176
     0
177
     0
178
     0
  0
ENDTAB
  0
ENDSEC
  0
SECTION
  2
BLOCKS
  0
BLOCK
  8
0
  2
$MODEL_SPACE
 70
     0
 10
0.0
 20
0.0
 30
0.0
  3
$MODEL_SPACE
  1

  0
ENDBLK
  5
21
  8
0
  0
BLOCK
 67
     1
  8
0
  2
$PAPER_SPACE
 70
     0
 10
0.0
 20
0.0
 30
0.0
  3
$PAPER_SPACE
  1

  0
ENDBLK
  5
1D
 67
     1
  8
0
  0
ENDSEC
  0
SECTION
  2
ENTITIES
  0
POLYLINE
  5
60
  8
DEFAULT
 66
     1
 10
0.0
 20
0.0
 30
0.0
 70
     1
  0
VERTEX
  5
61
  8
DEFAULT
 10
13.99663154795414
 20
159.5076864037653
 30
0.0
 42
0.4019405198271738
  0
VERTEX
  5
62
  8
DEFAULT
 10
14.99663154795414
 20
160.2543059502066
 30
0.0
  0
VERTEX
  5
63
  8
DEFAULT
 10
14.99663154795414
 20
161.7529992435041
 30
0.0
 42
0.4019405198271847
  0
VERTEX
  5
64
  8
DEFAULT
 10
13.99663154795413
 20
162.4996187899454
 30
0.0
  0
VERTEX
  5
65
  8
DEFAULT
 10
-5.0
 20
163.0073051937107
 30
0.0
 42
-0.4142135623730867
  0
VERTEX
  5
66
  8
DEFAULT
 10
-6.000000000000028
 20
164.0073051937107
 30
0.0
  0
VERTEX
  5
67
  8
DEFAULT
 10
-6.0
 20
166.0
 30
0.0
  0
VERTEX
  5
68
  8
DEFAULT
 10
-4.211005203340392
 20
166.0
 30
0.0
 42
-0.4962263674861849
  0
VERTEX
  5
69
  8
DEFAULT
 10
-4.018342005565954
 20
165.7463260563839
 30
0.0
  0
VERTEX
  5
6A
  8
DEFAULT
 10
-4.166666666667407
 20
165.5078329191754
 30
0.0
 42
1.057279696265484
  0
VERTEX
  5
6B
  8
DEFAULT
 10
-3.813661001875001
 20
165.1548272543844
 30
0.0
 42
-0.2134217652836726
  0
VERTEX
  5
6C
  8
DEFAULT
 10
-3.440983005625071
 20
165.3214939210511
 30
0.0
  0
VERTEX
  5
6D
  8
DEFAULT
 10
-1.559016994374929
 20
165.3214939210511
 30
0.0
 42
-0.2134217652833887
  0
VERTEX
  5
6E
  8
DEFAULT
 10
-1.186338998124971
 20
165.1548272543845
 30
0.0
 42
1.057279696267296
  0
VERTEX
  5
6F
  8
DEFAULT
 10
-0.8333333333332963
 20
165.5078329191761
 30
0.0
  0
VERTEX
  5
70
  8
DEFAULT
 10
-0.9816579944353383
 20
165.7463260563825
 30
0.0
 42
-0.4962263674884497
  0
VERTEX
  5
71
  8
DEFAULT
 10
-0.78899479666119
 20
166.0
 30
0.0
  0
VERTEX
  5
72
  8
DEFAULT
 10
108.199688554099
 20
166.0
 30
0.0
  0
VERTEX
  5
73
  8
DEFAULT
 10
108.4108183151029
 20
165.9975500672957
 30
0.0
  0
VERTEX
  5
74
  8
DEFAULT
 10
108.6234478541204
 20
165.9901462366943
 30
0.0
  0
VERTEX
  5
75
  8
DEFAULT
 10
108.8374861787361
 20
165.977710163212
 30
0.0
  0
VERTEX
  5
76
  8
DEFAULT
 10
109.0528387574683
 20
165.9601673003999
 30
0.0
  0
VERTEX
  5
77
  8
DEFAULT
 10
109.269407597494
 20
165.9374471400976
 30
0.0
  0
VERTEX
  5
78
  8
DEFAULT
 10
109.4870913344477
 20
165.9094834487078
 30
0.0
  0
VERTEX
  5
79
  8
DEFAULT
 10
109.7057853343938
 20
165.8762144989431
 30
0.0
  0
VERTEX
  5
7A
  8
DEFAULT
 10
109.9253818080076
 20
165.8375832959751
 30
0.0
  0
VERTEX
  5
7B
  8
DEFAULT
 10
110.1457699369424
 20
165.7935377969064
 30
0.0
  0
VERTEX
  5
7C
  8
DEFAULT
 10
110.3668360122905
 20
165.7440311224726
 30
0.0
  0
VERTEX
  5
7D
  8
DEFAULT
 10
110.5884635849827
 20
165.6890217598856
 30
0.0
  0
VERTEX
  5
7E
  8
DEFAULT
 10
110.8105336278994
 20
165.6284737557373
 30
0.0
  0
VERTEX
  5
7F
  8
DEFAULT
 10
111.0329247093968
 20
165.5623568978938
 30
0.0
  0
VERTEX
  5
80
  8
DEFAULT
 10
111.2555131778813
 20
165.4906468853378
 30
0.0
  0
VERTEX
  5
81
  8
DEFAULT
 10
111.4781733569927
 20
165.4133254849443
 30
0.0
  0
VERTEX
  5
82
  8
DEFAULT
 10
111.7007777508898
 20
165.3303806742171
 30
0.0
  0
VERTEX
  5
83
  8
DEFAULT
 10
111.9231972590571
 20
165.2418067690564
 30
0.0
  0
VERTEX
  5
84
  8
DEFAULT
 10
112.1453013999898
 20
165.1476045356882
 30
0.0
  0
VERTEX
  5
85
  8
DEFAULT
 10
112.366958543044
 20
165.0477812859445
 30
0.0
  0
VERTEX
  5
86
  8
DEFAULT
 10
112.5880361476812
 20
164.9423509551562
 30
0.0
  0
VERTEX
  5
87
  8
DEFAULT
 10
112.8084010092748
 20
164.8313341619981
 30
0.0
  0
VERTEX
  5
88
  8
DEFAULT
 10
113.0279195105938
 20
164.714758249707
 30
0.0
  0
VERTEX
  5
89
  8
DEFAULT
 10
113.24645787803
 20
164.5926573081882
 30
0.0
  0
VERTEX
  5
8A
  8
DEFAULT
 10
113.4638824415906
 20
164.4650721766159
 30
0.0
  0
VERTEX
  5
8B
  8
DEFAULT
 10
113.6800598976416
 20
164.3320504262383
 30
0.0
  0
VERTEX
  5
8C
  8
DEFAULT
 10
113.8948575733559
 20
164.1936463231991
 30
0.0
  0
VERTEX
  5
8D
  8
DEFAULT
 10
114.1081436917957
 20
164.0499207712959
 30
0.0
  0
VERTEX
  5
8E
  8
DEFAULT
 10
114.3197876365414
 20
163.9009412347028
 30
0.0
  0
VERTEX
  5
8F
  8
DEFAULT
 10
114.5296602147722
 20
163.7467816408004
 30
0.0
  0
VERTEX
  5
90
  8
DEFAULT
 10
114.7376339176974
 20
163.5875222633606
 30
0.0
  0
VERTEX
  5
91
  8
DEFAULT
 10
114.9435831772484
 20
163.4232495864491
 30
0.0
  0
VERTEX
  5
92
  8
DEFAULT
 10
115.1473846179504
 20
163.2540561495143
 30
0.0
  0
VERTEX
  5
93
  8
DEFAULT
 10
115.3489173029181
 20
163.0800403742384
 30
0.0
  0
VERTEX
  5
94
  8
DEFAULT
 10
115.5480629729458
 20
162.9013063738277
 30
0.0
  0
VERTEX
  5
95
  8
DEFAULT
 10
115.7447062777015
 20
162.7179637455178
 30
0.0
  0
VERTEX
  5
96
  8
DEFAULT
 10
115.9387349980744
 20
162.5301273471617
 30
0.0
  0
VERTEX
  5
97
  8
DEFAULT
 10
116.13004025878
 20
162.3379170588533
 30
0.0
  0
VERTEX
  5
98
  8
DEFAULT
 10
116.3185167303784
 20
162.1414575306207
 30
0.0
  0
VERTEX
  5
99
  8
DEFAULT
 10
116.5040628199277
 20
161.9408779172934
 30
0.0
  0
VERTEX
  5
9A
  8
DEFAULT
 10
116.6865808495577
 20
161.7363116017108
 30
0.0
  0
VERTEX
  5
9B
  8
DEFAULT
 10
116.865977222324
 20
161.5278959074942
 30
0.0
  0
VERTEX
  5
9C
  8
DEFAULT
 10
117.0421625747768
 20
161.3157718026511
 30
0.0
  0
VERTEX
  5
9D
  8
DEFAULT
 10
117.3845647510009
 20
160.880978622956
 30
0.0
  0
VERTEX
  5
9E
  8
DEFAULT
 10
117.7131620577056
 20
160.4331209799887
 30
0.0
  0
VERTEX
  5
9F
  8
DEFAULT
 10
118.0274042933293
 20
159.9734260679537
 30
0.0
  0
VERTEX
  5
A0
  8
DEFAULT
 10
118.3268187099955
 20
159.5031490476752
 30
0.0
  0
VERTEX
  5
A1
  8
DEFAULT
 10
118.6110113941015
 20
159.0235627466233
 30
0.0
  0
VERTEX
  5
A2
  8
DEFAULT
 10
118.8796677086269
 20
158.5359475313001
 30
0.0
  0
VERTEX
  5
A3
  8
DEFAULT
 10
119.1325518318283
 20
158.0415815027765
 30
0.0
  0
VERTEX
  5
A4
  8
DEFAULT
 10
119.3695054438217
 20
157.5417311514781
 30
0.0
  0
VERTEX
  5
A5
  8
DEFAULT
 10
119.5904456269749
 20
157.0376425899672
 30
0.0
  0
VERTEX
  5
A6
  8
DEFAULT
 10
119.7953620577574
 20
156.5305334632057
 30
0.0
  0
VERTEX
  5
A7
  8
DEFAULT
 10
119.9843135765515
 20
156.0215856153932
 30
0.0
  0
VERTEX
  5
A8
  8
DEFAULT
 10
128.3926870194208
 20
136.6200376095088
 30
0.0
  0
VERTEX
  5
A9
  8
DEFAULT
 10
129.7716246269271
 20
133.6622944972689
 30
0.0
  0
VERTEX
  5
AA
  8
DEFAULT
 10
130.3444867158769
 20
132.4862303775679
 30
0.0
  0
VERTEX
  5
AB
  8
DEFAULT
 10
130.8384079680632
 20
131.5146108686014
 30
0.0
  0
VERTEX
  5
AC
  8
DEFAULT
 10
131.2527460261679
 20
130.7486917842186
 30
0.0
  0
VERTEX
  5
AD
  8
DEFAULT
 10
131.4299284173505
 20
130.4431130272682
 30
0.0
  0
VERTEX
  5
AE
  8
DEFAULT
 10
131.5870700762463
 20
130.1891826002202
 30
0.0
  0
VERTEX
  5
AF
  8
DEFAULT
 10
131.65811868184
 20
130.0815877925749
 30
0.0
  0
VERTEX
  5
B0
  8
DEFAULT
 10
131.7241504307511
 20
129.9869035302903
 30
0.0
  0
VERTEX
  5
B1
  8
DEFAULT
 10
131.7552847980863
 20
129.9444013868179
 30
0.0
  0
VERTEX
  5
B2
  8
DEFAULT
 10
131.7851648320567
 20
129.9051248533793
 30
0.0
  0
VERTEX
  5
B3
  8
DEFAULT
 10
131.8137906010238
 20
129.8690729776447
 30
0.0
  0
VERTEX
  5
B4
  8
DEFAULT
 10
131.8411622251473
 20
129.8362446746893
 30
0.0
  0
VERTEX
  5
B5
  8
DEFAULT
 10
131.8672798763289
 20
129.8066387271938
 30
0.0
  0
VERTEX
  5
B6
  8
DEFAULT
 10
131.8798685299184
 20
129.7930437201816
 30
0.0
  0
VERTEX
  5
B7
  8
DEFAULT
 10
131.8921437781487
 20
129.7802537856572
 30
0.0
  0
VERTEX
  5
B8
  8
DEFAULT
 10
131.9041056570311
 20
129.7682687343168
 30
0.0
  0
VERTEX
  5
B9
  8
DEFAULT
 10
131.9157542057979
 20
129.7570883686247
 30
0.0
  0
VERTEX
  5
BA
  8
DEFAULT
 10
131.9270894669003
 20
129.7467124828204
 30
0.0
  0
VERTEX
  5
BB
  8
DEFAULT
 10
131.9381114860056
 20
129.7371408629274
 30
0.0
  0
VERTEX
  5
BC
  8
DEFAULT
 10
131.9488203119951
 20
129.7283732867607
 30
0.0
  0
VERTEX
  5
BD
  8
DEFAULT
 10
131.9592159969608
 20
129.720409523936
 30
0.0
  0
VERTEX
  5
BE
  8
DEFAULT
 10
131.9692985962031
 20
129.7132493358776
 30
0.0
  0
VERTEX
  5
BF
  8
DEFAULT
 10
131.9790681682282
 20
129.7068924758278
 30
0.0
  0
VERTEX
  5
C0
  8
DEFAULT
 10
131.9885247747446
 20
129.7013386888557
 30
0.0
  0
VERTEX
  5
C1
  8
DEFAULT
 10
131.9976684806605
 20
129.6965877118666
 30
0.0
  0
VERTEX
  5
C2
  8
DEFAULT
 10
132.0064993540809
 20
129.6926392736113
 30
0.0
  0
VERTEX
  5
C3
  8
DEFAULT
 10
132.015017466304
 20
129.689493094696
 30
0.0
  0
VERTEX
  5
C4
  8
DEFAULT
 10
132.109467401522
 20
129.6132416362762
 30
0.0
  0
VERTEX
  5
C5
  8
DEFAULT
 10
132.2004692532321
 20
129.5362266929486
 30
0.0
  0
VERTEX
  5
C6
  8
DEFAULT
 10
132.2878811931779
 20
129.4585199694027
 30
0.0
  0
VERTEX
  5
C7
  8
DEFAULT
 10
132.3715666495723
 20
129.3801958525639
 30
0.0
  0
VERTEX
  5
C8
  8
DEFAULT
 10
132.4513949000222
 20
129.3013312009315
 30
0.0
  0
VERTEX
  5
C9
  8
DEFAULT
 10
132.5272416469212
 20
129.2220051157641
 30
0.0
  0
VERTEX
  5
CA
  8
DEFAULT
 10
132.5989895705245
 20
129.1422986953602
 30
0.0
  0
VERTEX
  5
CB
  8
DEFAULT
 10
132.6665288550122
 20
129.0622947738877
 30
0.0
  0
VERTEX
  5
CC
  8
DEFAULT
 10
132.7297576829962
 20
128.9820776464117
 30
0.0
  0
VERTEX
  5
CD
  8
DEFAULT
 10
132.7597261586032
 20
128.9419158016917
 30
0.0
  0
VERTEX
  5
CE
  8
DEFAULT
 10
132.7885826941436
 20
128.9017327819435
 30
0.0
  0
VERTEX
  5
CF
  8
DEFAULT
 10
132.8163170096919
 20
128.8615394054982
 30
0.0
  0
VERTEX
  5
D0
  8
DEFAULT
 10
132.8429194038643
 20
128.8213465264913
 30
0.0
  0
VERTEX
  5
D1
  8
DEFAULT
 10
132.8683807644604
 20
128.7811650251866
 30
0.0
  0
VERTEX
  5
D2
  8
DEFAULT
 10
132.8926925783474
 20
128.7410057982293
 30
0.0
  0
VERTEX
  5
D3
  8
DEFAULT
 10
132.915846940563
 20
128.7008797488459
 30
0.0
  0
VERTEX
  5
D4
  8
DEFAULT
 10
132.9378365626181
 20
128.6607977770111
 30
0.0
  0
VERTEX
  5
D5
  8
DEFAULT
 10
132.9586547799809
 20
128.6207707695979
 30
0.0
  0
VERTEX
  5
D6
  8
DEFAULT
 10
132.9782955587272
 20
128.5808095905324
 30
0.0
  0
VERTEX
  5
D7
  8
DEFAULT
 10
132.9967535013421
 20
128.540925070969
 30
0.0
  0
VERTEX
  5
D8
  8
DEFAULT
 10
133.0140238516628
 20
128.5011279995065
 30
0.0
  0
VERTEX
  5
D9
  8
DEFAULT
 10
133.0301024989517
 20
128.4614291124639
 30
0.0
  0
VERTEX
  5
DA
  8
DEFAULT
 10
133.0449859810928
 20
128.4218390842325
 30
0.0
  0
VERTEX
  5
DB
  8
DEFAULT
 10
133.0586714869075
 20
128.3823685177245
 30
0.0
  0
VERTEX
  5
DC
  8
DEFAULT
 10
133.071156857585
 20
128.3430279349345
 30
0.0
  0
VERTEX
  5
DD
  8
DEFAULT
 10
133.0824405872279
 20
128.3038277676324
 30
0.0
  0
VERTEX
  5
DE
  8
DEFAULT
 10
133.0925218225154
 20
128.2647783482047
 30
0.0
  0
VERTEX
  5
DF
  8
DEFAULT
 10
133.1014003614852
 20
128.2258899006608
 30
0.0
  0
VERTEX
  5
E0
  8
DEFAULT
 10
133.1090766514435
 20
128.1871725318203
 30
0.0
  0
VERTEX
  5
E1
  8
DEFAULT
 10
133.1155517860088
 20
128.1486362226981
 30
0.0
  0
VERTEX
  5
E2
  8
DEFAULT
 10
133.1208275013012
 20
128.1102908201009
 30
0.0
  0
VERTEX
  5
E3
  8
DEFAULT
 10
133.1249061712887
 20
128.0721460284515
 30
0.0
  0
VERTEX
  5
E4
  8
DEFAULT
 10
133.1277908023058
 20
128.0342114018522
 30
0.0
  0
VERTEX
  5
E5
  8
DEFAULT
 10
133.1294850267599
 20
127.9964963364037
 30
0.0
  0
VERTEX
  5
E6
  8
DEFAULT
 10
133.1299930960449
 20
127.9590100627885
 30
0.0
  0
VERTEX
  5
E7
  8
DEFAULT
 10
133.1293198726805
 20
127.9217616391329
 30
0.0
  0
VERTEX
  5
E8
  8
DEFAULT
 10
133.1274708217006
 20
127.8847599441572
 30
0.0
  0
VERTEX
  5
E9
  8
DEFAULT
 10
133.1244520013131
 20
127.8480136706244
 30
0.0
  0
VERTEX
  5
EA
  8
DEFAULT
 10
133.1202700528568
 20
127.8115313190962
 30
0.0
  0
VERTEX
  5
EB
  8
DEFAULT
 10
133.1149321900812
 20
127.7753211920049
 30
0.0
  0
VERTEX
  5
EC
  8
DEFAULT
 10
133.1084461877777
 20
127.7393913880484
 30
0.0
  0
VERTEX
  5
ED
  8
DEFAULT
 10
133.1008203697897
 20
127.7037497969146
 30
0.0
  0
VERTEX
  5
EE
  8
DEFAULT
 10
133.0920635964341
 20
127.6684040943409
 30
0.0
  0
VERTEX
  5
EF
  8
DEFAULT
 10
133.0821852513628
 20
127.6333617375134
 30
0.0
  0
VERTEX
  5
F0
  8
DEFAULT
 10
133.0711952278972
 20
127.5986299608094
 30
0.0
  0
VERTEX
  5
F1
  8
DEFAULT
 10
133.0591039148693
 20
127.5642157718861
 30
0.0
  0
VERTEX
  5
F2
  8
DEFAULT
 10
133.0459221820013
 20
127.5301259481175
 30
0.0
  0
VERTEX
  5
F3
  8
DEFAULT
 10
133.0316613648583
 20
127.4963670333806
 30
0.0
  0
VERTEX
  5
F4
  8
DEFAULT
 10
133.0163332494088
 20
127.4629453351907
 30
0.0
  0
VERTEX
  5
F5
  8
DEFAULT
 10
132.9999500562266
 20
127.4298669221857
 30
0.0
  0
VERTEX
  5
F6
  8
DEFAULT
 10
132.9825244243702
 20
127.3971376219572
 30
0.0
  0
VERTEX
  5
F7
  8
DEFAULT
 10
132.9640693949741
 20
127.3647630192271
 30
0.0
  0
VERTEX
  5
F8
  8
DEFAULT
 10
132.944598394586
 20
127.3327484543654
 30
0.0
  0
VERTEX
  5
F9
  8
DEFAULT
 10
132.9241252182863
 20
127.3010990222462
 30
0.0
  0
VERTEX
  5
FA
  8
DEFAULT
 10
132.9026640126228
 20
127.2698195714371
 30
0.0
  0
VERTEX
  5
FB
  8
DEFAULT
 10
132.8899966988533
 20
127.2522324047937
 30
0.0
  0
VERTEX
  5
FC
  8
DEFAULT
 10
132.8768673518826
 20
127.234705533225
 30
0.0
  0
VERTEX
  5
FD
  8
DEFAULT
 10
132.8632746720629
 20
127.2172407142172
 30
0.0
  0
VERTEX
  5
FE
  8
DEFAULT
 10
132.849217427469
 20
127.1998397070072
 30
0.0
  0
VERTEX
  5
FF
  8
DEFAULT
 10
132.8346944548138
 20
127.1825042721122
 30
0.0
  0
VERTEX
  5
100
  8
DEFAULT
 10
132.8197046603433
 20
127.1652361708537
 30
0.0
  0
VERTEX
  5
101
  8
DEFAULT
 10
132.7883205838415
 20
127.130909015661
 30
0.0
  0
VERTEX
  5
102
  8
DEFAULT
 10
132.7550578713519
 20
127.0968723296841
 30
0.0
  0
VERTEX
  5
103
  8
DEFAULT
 10
132.719910362622
 20
127.0631401827715
 30
0.0
  0
VERTEX
  5
104
  8
DEFAULT
 10
132.6828730886022
 20
127.0297266103354
 30
0.0
  0
VERTEX
  5
105
  8
DEFAULT
 10
132.6439422947346
 20
126.9966455970884
 30
0.0
  0
VERTEX
  5
106
  8
DEFAULT
 10
132.6031154626028
 20
126.9639110605795
 30
0.0
  0
VERTEX
  5
107
  8
DEFAULT
 10
132.5603913298548
 20
126.9315368345666
 30
0.0
  0
VERTEX
  5
108
  8
DEFAULT
 10
132.5157699083195
 20
126.8995366522585
 30
0.0
  0
VERTEX
  5
109
  8
DEFAULT
 10
132.4692525002419
 20
126.8679241294676
 30
0.0
  0
VERTEX
  5
10A
  8
DEFAULT
 10
132.4208417125613
 20
126.836712747709
 30
0.0
  0
VERTEX
  5
10B
  8
DEFAULT
 10
132.3705414691673
 20
126.8059158372861
 30
0.0
  0
VERTEX
  5
10C
  8
DEFAULT
 10
132.3183570210702
 20
126.7755465604049
 30
0.0
  0
VERTEX
  5
10D
  8
DEFAULT
 10
132.2642949544283
 20
126.7456178943546
 30
0.0
  0
VERTEX
  5
10E
  8
DEFAULT
 10
132.2083631963833
 20
126.7161426147993
 30
0.0
  0
VERTEX
  5
10F
  8
DEFAULT
 10
132.1505710186554
 20
126.6871332792205
 30
0.0
  0
VERTEX
  5
110
  8
DEFAULT
 10
132.0909290388633
 20
126.6586022105526
 30
0.0
  0
VERTEX
  5
111
  8
DEFAULT
 10
132.0294492195349
 20
126.6305614810542
 30
0.0
  0
VERTEX
  5
112
  8
DEFAULT
 10
131.9010306146459
 20
126.5759979804276
 30
0.0
  0
VERTEX
  5
113
  8
DEFAULT
 10
131.7654376173381
 20
126.5235337478059
 30
0.0
  0
VERTEX
  5
114
  8
DEFAULT
 10
131.6228137019129
 20
126.4732547649986
 30
0.0
  0
VERTEX
  5
115
  8
DEFAULT
 10
131.4733229582891
 20
126.4252415746383
 30
0.0
  0
VERTEX
  5
116
  8
DEFAULT
 10
131.3171494982912
 20
126.3795688624845
 30
0.0
  0
VERTEX
  5
117
  8
DEFAULT
 10
131.1544967176582
 20
126.3363050769947
 30
0.0
  0
VERTEX
  5
118
  8
DEFAULT
 10
130.9855864197887
 20
126.2955120901696
 30
0.0
  0
VERTEX
  5
119
  8
DEFAULT
 10
130.8106578090795
 20
126.2572449031763
 30
0.0
  0
VERTEX
  5
11A
  8
DEFAULT
 10
130.6299663634312
 20
126.2215513996808
 30
0.0
  0
VERTEX
  5
11B
  8
DEFAULT
 10
130.4437825970597
 20
126.1884721492101
 30
0.0
  0
VERTEX
  5
11C
  8
DEFAULT
 10
130.0560872508819
 20
126.1302812977385
 30
0.0
  0
VERTEX
  5
11D
  8
DEFAULT
 10
129.6499839344367
 20
126.0828464327061
 30
0.0
  0
VERTEX
  5
11E
  8
DEFAULT
 10
129.2280326178295
 20
126.0462208116284
 30
0.0
  0
VERTEX
  5
11F
  8
DEFAULT
 10
128.7928904654331
 20
126.020339706063
 30
0.0
  0
VERTEX
  5
120
  8
DEFAULT
 10
128.3472607922349
 20
126.0050262622918
 30
0.0
  0
VERTEX
  5
121
  8
DEFAULT
 10
127.8938434898562
 20
126.0
 30
0.0
 42
-0.317417051442029
  0
VERTEX
  5
122
  8
DEFAULT
 10
123.1823483519894
 20
129.3261381282023
 30
0.0
  0
VERTEX
  5
123
  8
DEFAULT
 10
116.5419147864664
 20
148.0172684923146
 30
0.0
  0
VERTEX
  5
124
  8
DEFAULT
 10
116.38889716682
 20
148.5723104105234
 30
0.0
  0
VERTEX
  5
125
  8
DEFAULT
 10
116.2193161256643
 20
149.1253470795429
 30
0.0
  0
VERTEX
  5
126
  8
DEFAULT
 10
116.033015369836
 20
149.6750896186473
 30
0.0
  0
VERTEX
  5
127
  8
DEFAULT
 10
115.8299068154082
 20
150.220210103967
 30
0.0
  0
VERTEX
  5
128
  8
DEFAULT
 10
115.6099747088529
 20
150.7593495657968
 30
0.0
  0
VERTEX
  5
129
  8
DEFAULT
 10
115.3732791699764
 20
151.2911268109979
 30
0.0
  0
VERTEX
  5
12A
  8
DEFAULT
 10
115.1199590612789
 20
151.8141479842411
 30
0.0
  0
VERTEX
  5
12B
  8
DEFAULT
 10
114.8502340958405
 20
152.3270167595917
 30
0.0
  0
VERTEX
  5
12C
  8
DEFAULT
 10
114.5644061063296
 20
152.8283450329372
 30
0.0
  0
VERTEX
  5
12D
  8
DEFAULT
 10
114.4155703642784
 20
153.0742526604265
 30
0.0
  0
VERTEX
  5
12E
  8
DEFAULT
 10
114.2628594111511
 20
153.3167639668327
 30
0.0
  0
VERTEX
  5
12F
  8
DEFAULT
 10
114.1063340793027
 20
153.5557127013061
 30
0.0
  0
VERTEX
  5
130
  8
DEFAULT
 10
113.9460602298704
 20
153.7909352233168
 30
0.0
  0
VERTEX
  5
131
  8
DEFAULT
 10
113.7821086806444
 20
154.0222708514297
 30
0.0
  0
VERTEX
  5
132
  8
DEFAULT
 10
113.6145551184702
 20
154.2495622079017
 30
0.0
  0
VERTEX
  5
133
  8
DEFAULT
 10
113.4434799963165
 20
154.4726555576229
 30
0.0
  0
VERTEX
  5
134
  8
DEFAULT
 10
113.2689684152358
 20
154.6914011399321
 30
0.0
  0
VERTEX
  5
135
  8
DEFAULT
 10
113.0911099915252
 20
154.9056534918563
 30
0.0
  0
VERTEX
  5
136
  8
DEFAULT
 10
112.9099987094849
 20
155.1152717613524
 30
0.0
  0
VERTEX
  5
137
  8
DEFAULT
 10
112.7257327602521
 20
155.3201200091663
 30
0.0
  0
VERTEX
  5
138
  8
DEFAULT
 10
112.5384143672714
 20
155.5200674979785
 30
0.0
  0
VERTEX
  5
139
  8
DEFAULT
 10
112.3481495990397
 20
155.7149889675623
 30
0.0
  0
VERTEX
  5
13A
  8
DEFAULT
 10
112.1550481698378
 20
155.9047648947479
 30
0.0
  0
VERTEX
  5
13B
  8
DEFAULT
 10
111.9592232292317
 20
156.0892817370693
 30
0.0
  0
VERTEX
  5
13C
  8
DEFAULT
 10
111.7607911411888
 20
156.2684321590509
 30
0.0
  0
VERTEX
  5
13D
  8
DEFAULT
 10
111.5598712537142
 20
156.4421152401895
 30
0.0
  0
VERTEX
  5
13E
  8
DEFAULT
 10
111.3565856599648
 20
156.6102366637845
 30
0.0
  0
VERTEX
  5
13F
  8
DEFAULT
 10
111.1510589518427
 20
156.7727088858794
 30
0.0
  0
VERTEX
  5
140
  8
DEFAULT
 10
110.9434179671084
 20
156.9294512836848
 30
0.0
  0
VERTEX
  5
141
  8
DEFAULT
 10
110.7337915310854
 20
157.0803902829732
 30
0.0
  0
VERTEX
  5
142
  8
DEFAULT
 10
110.5223101940499
 20
157.2254594640502
 30
0.0
  0
VERTEX
  5
143
  8
DEFAULT
 10
110.3091059654153
 20
157.36459964603
 30
0.0
  0
VERTEX
  5
144
  8
DEFAULT
 10
110.0943120458262
 20
157.4977589492611
 30
0.0
  0
VERTEX
  5
145
  8
DEFAULT
 10
109.8780625582793
 20
157.6248928358726
 30
0.0
  0
VERTEX
  5
146
  8
DEFAULT
 10
109.660492279376
 20
157.7459641285261
 30
0.0
  0
VERTEX
  5
147
  8
DEFAULT
 10
109.4417363717997
 20
157.8609430075795
 30
0.0
  0
VERTEX
  5
148
  8
DEFAULT
 10
109.2219301190833
 20
157.9698069869789
 30
0.0
  0
VERTEX
  5
149
  8
DEFAULT
 10
109.0012086637035
 20
158.0725408693069
 30
0.0
  0
VERTEX
  5
14A
  8
DEFAULT
 10
108.7797067495035
 20
158.169136680518
 30
0.0
  0
VERTEX
  5
14B
  8
DEFAULT
 10
108.5575584693999
 20
158.2595935849913
 30
0.0
  0
VERTEX
  5
14C
  8
DEFAULT
 10
108.3348970192808
 20
158.3439177816206
 30
0.0
  0
VERTEX
  5
14D
  8
DEFAULT
 10
108.1118544589518
 20
158.4221223817481
 30
0.0
  0
VERTEX
  5
14E
  8
DEFAULT
 10
107.8885614809242
 20
158.4942272698248
 30
0.0
  0
VERTEX
  5
14F
  8
DEFAULT
 10
107.6651471877811
 20
158.5602589477474
 30
0.0
  0
VERTEX
  5
150
  8
DEFAULT
 10
107.441738878791
 20
158.6202503638835
 30
0.0
  0
VERTEX
  5
151
  8
DEFAULT
 10
107.2184618463701
 20
158.6742407278471
 30
0.0
  0
VERTEX
  5
152
  8
DEFAULT
 10
106.9954391829271
 20
158.7222753121304
 30
0.0
  0
VERTEX
  5
153
  8
DEFAULT
 10
106.7727915985518
 20
158.7644052417297
 30
0.0
  0
VERTEX
  5
154
  8
DEFAULT
 10
106.5506372499401
 20
158.8006872729312
 30
0.0
  0
VERTEX
  5
155
  8
DEFAULT
 10
106.329091580874
 20
158.8311835624348
 30
0.0
  0
VERTEX
  5
156
  8
DEFAULT
 10
106.1082671745084
 20
158.8559614280067
 30
0.0
  0
VERTEX
  5
157
  8
DEFAULT
 10
105.8882736176434
 20
158.8750931018471
 30
0.0
  0
VERTEX
  5
158
  8
DEFAULT
 10
105.6692173770976
 20
158.8886554778553
 30
0.0
  0
VERTEX
  5
159
  8
DEFAULT
 10
105.4512016882285
 20
158.8967298539565
 30
0.0
  0
VERTEX
  5
15A
  8
DEFAULT
 10
105.2343264555863
 20
158.8994016706338
 30
0.0
  0
VERTEX
  5
15B
  8
DEFAULT
 10
6.999999999999942
 20
156.2433419959654
 30
0.0
  0
VERTEX
  5
15C
  8
DEFAULT
 10
-0.7751490046537205
 20
156.0331175206631
 30
0.0
 42
-0.5333403629950234
  0
VERTEX
  5
15D
  8
DEFAULT
 10
-0.9675910483748442
 20
156.3038779067763
 30
0.0
  0
VERTEX
  5
15E
  8
DEFAULT
 10
-0.8333333333333467
 20
156.4994722745347
 30
0.0
 42
1.057279696267639
  0
VERTEX
  5
15F
  8
DEFAULT
 10
-1.186338998125014
 20
156.8524779393263
 30
0.0
 42
-0.2134217652835242
  0
VERTEX
  5
160
  8
DEFAULT
 10
-1.559016994374929
 20
156.6858112726596
 30
0.0
  0
VERTEX
  5
161
  8
DEFAULT
 10
-3.440983005625071
 20
156.6858112726596
 30
0.0
 42
-0.2134217652834128
  0
VERTEX
  5
162
  8
DEFAULT
 10
-3.813661001875021
 20
156.8524779393263
 30
0.0
 42
1.057279696267532
  0
VERTEX
  5
163
  8
DEFAULT
 10
-4.16666666666665
 20
156.4994722745346
 30
0.0
  0
VERTEX
  5
164
  8
DEFAULT
 10
-4.018342005564657
 20
156.260979137328
 30
0.0
 42
-0.4962263674883701
  0
VERTEX
  5
165
  8
DEFAULT
 10
-4.2110052033388
 20
156.0073051937107
 30
0.0
  0
VERTEX
  5
166
  8
DEFAULT
 10
-6.0
 20
156.0073051937107
 30
0.0
  0
VERTEX
  5
167
  8
DEFAULT
 10
-6.0
 20
158.0000000000001
 30
0.0
 42
-0.4142135623730747
  0
VERTEX
  5
168
  8
DEFAULT
 10
-4.999999999999999
 20
159.0
 30
0.0
  0
SEQEND
  5
169
  8
DEFAULT
  0
ENDSEC
  0
EOF
