  0
SECTION
  2
HEADER
  9
$ACADVER
  1
AC1009
  9
$DWGCODEPAGE
  3
ansi_1252
  9
$INSBASE
 10
0.0
 20
0.0
 30
0.0
  9
$EXTMIN
 10
-495.0
 20
60.99999999999999
 30
0.0
  9
$EXTMAX
 10
-288.5049228856401
 20
176.0
 30
58.99999999999999
  9
$LIMMIN
 10
0.0
 20
0.0
  9
$LIMMAX
 10
12.0
 20
9.0
  9
$ORTHOMODE
 70
     0
  9
$REGENMODE
 70
     1
  9
$FILLMODE
 70
     1
  9
$QTEXTMODE
 70
     0
  9
$MIRRTEXT
 70
     1
  9
$DRAGMODE
 70
     2
  9
$LTSCALE
 40
1.0
  9
$OSMODE
 70
    37
  9
$ATTMODE
 70
     1
  9
$TEXTSIZE
 40
0.2
  9
$TRACEWID
 40
0.05
  9
$TEXTSTYLE
  7
STANDARD
  9
$CLAYER
  8
SOLIDS
  9
$CELTYPE
  6
BYLAYER
  9
$CECOLOR
 62
   256
  9
$DIMSCALE
 40
1.0
  9
$DIMASZ
 40
0.18
  9
$DIMEXO
 40
0.0625
  9
$DIMDLI
 40
0.38
  9
$DIMRND
 40
0.0
  9
$DIMDLE
 40
0.0
  9
$DIMEXE
 40
0.18
  9
$DIMTP
 40
0.0
  9
$DIMTM
 40
0.0
  9
$DIMTXT
 40
0.18
  9
$DIMCEN
 40
0.09
  9
$DIMTSZ
 40
0.0
  9
$DIMTOL
 70
     0
  9
$DIMLIM
 70
     0
  9
$DIMTIH
 70
     1
  9
$DIMTOH
 70
     1
  9
$DIMSE1
 70
     0
  9
$DIMSE2
 70
     0
  9
$DIMTAD
 70
     0
  9
$DIMZIN
 70
     0
  9
$DIMBLK
  1

  9
$DIMASO
 70
     1
  9
$DIMSHO
 70
     1
  9
$DIMPOST
  1

  9
$DIMAPOST
  1

  9
$DIMALT
 70
     0
  9
$DIMALTD
 70
     2
  9
$DIMALTF
 40
25.4
  9
$DIMLFAC
 40
1.0
  9
$DIMTOFL
 70
     0
  9
$DIMTVP
 40
0.0
  9
$DIMTIX
 70
     0
  9
$DIMSOXD
 70
     0
  9
$DIMSAH
 70
     0
  9
$DIMBLK1
  1

  9
$DIMBLK2
  1

  9
$DIMSTYLE
  2
STANDARD_ACAD
  9
$DIMCLRD
 70
     0
  9
$DIMCLRE
 70
     0
  9
$DIMCLRT
 70
     0
  9
$DIMTFAC
 40
1.0
  9
$DIMGAP
 40
0.09
  9
$LUNITS
 70
     2
  9
$LUPREC
 70
     3
  9
$SKETCHINC
 40
0.1
  9
$FILLETRAD
 40
0.0
  9
$AUNITS
 70
     0
  9
$AUPREC
 70
     0
  9
$MENU
  1
.
  9
$ELEVATION
 40
0.0
  9
$PELEVATION
 40
0.0
  9
$THICKNESS
 40
0.0
  9
$LIMCHECK
 70
     0
  9
$CHAMFERA
 40
0.0
  9
$CHAMFERB
 40
0.0
  9
$SKPOLY
 70
     0
  9
$TDCREATE
 40
2461090.716494502
  9
$TDUPDATE
 40
2461090.716506539
  9
$TDINDWG
 40
0.0000000116
  9
$TDUSRTIMER
 40
0.0000000116
  9
$USRTIMER
 70
     1
  9
$ANGBASE
 50
0.0
  9
$ANGDIR
 70
     0
  9
$PDMODE
 70
     0
  9
$PDSIZE
 40
0.0
  9
$PLINEWID
 40
0.0
  9
$COORDS
 70
     1
  9
$SPLFRAME
 70
     0
  9
$SPLINETYPE
 70
     6
  9
$SPLINESEGS
 70
     8
  9
$ATTDIA
 70
     0
  9
$ATTREQ
 70
     1
  9
$HANDLING
 70
     1
  9
$HANDSEED
  5
43B
  9
$SURFTAB1
 70
     6
  9
$SURFTAB2
 70
     6
  9
$SURFTYPE
 70
     6
  9
$SURFU
 70
     6
  9
$SURFV
 70
     6
  9
$UCSNAME
  2

  9
$UCSORG
 10
0.0
 20
0.0
 30
0.0
  9
$UCSXDIR
 10
1.0
 20
0.0
 30
0.0
  9
$UCSYDIR
 10
0.0
 20
1.0
 30
0.0
  9
$PUCSNAME
  2

  9
$PUCSORG
 10
0.0
 20
0.0
 30
0.0
  9
$PUCSXDIR
 10
1.0
 20
0.0
 30
0.0
  9
$PUCSYDIR
 10
0.0
 20
1.0
 30
0.0
  9
$USERI1
 70
     0
  9
$USERI2
 70
     0
  9
$USERI3
 70
     0
  9
$USERI4
 70
     0
  9
$USERI5
 70
     0
  9
$USERR1
 40
0.0
  9
$USERR2
 40
0.0
  9
$USERR3
 40
0.0
  9
$USERR4
 40
0.0
  9
$USERR5
 40
0.0
  9
$WORLDVIEW
 70
     1
  9
$SHADEDGE
 70
     3
  9
$SHADEDIF
 70
    70
  9
$TILEMODE
 70
     1
  9
$MAXACTVP
 70
    64
  9
$PLIMCHECK
 70
     0
  9
$PEXTMIN
 10
1.000000000000000E+20
 20
1.000000000000000E+20
 30
1.000000000000000E+20
  9
$PEXTMAX
 10
-1.000000000000000E+20
 20
-1.000000000000000E+20
 30
-1.000000000000000E+20
  9
$PLIMMIN
 10
0.0
 20
0.0
  9
$PLIMMAX
 10
12.0
 20
9.0
  9
$UNITMODE
 70
     0
  9
$VISRETAIN
 70
     1
  9
$PLINEGEN
 70
     0
  9
$PSLTSCALE
 70
     1
  0
ENDSEC
  0
SECTION
  2
TABLES
  0
TABLE
  2
VPORT
 70
     1
  0
VPORT
  2
*ACTIVE
 70
     0
 10
0.0
 20
0.0
 11
1.0
 21
1.0
 12
10.42990654205607
 22
4.5
 13
0.0
 23
0.0
 14
0.5
 24
0.5
 15
0.5
 25
0.5
 16
0.0
 26
0.0
 36
1.0
 17
0.0
 27
0.0
 37
0.0
 40
9.0
 41
1.972972972850329
 42
50.0
 43
0.0
 44
0.0
 50
0.0
 51
0.0
 71
     0
 72
   100
 73
     1
 74
     3
 75
     0
 76
     0
 77
     0
 78
     0
  0
ENDTAB
  0
TABLE
  2
LTYPE
 70
     1
  0
LTYPE
  2
CONTINUOUS
 70
     0
  3
Solid line
 72
    65
 73
     0
 40
0.0
  0
ENDTAB
  0
TABLE
  2
LAYER
 70
     2
  0
LAYER
  2
0
 70
     0
 62
     7
  6
CONTINUOUS
  0
LAYER
  2
SOLIDS
 70
     0
 62
     7
  6
CONTINUOUS
  0
ENDTAB
  0
TABLE
  2
STYLE
 70
     1
  0
STYLE
  2
STANDARD
 70
     0
 40
0.0
 41
1.0
 50
0.0
 71
     0
 42
0.2
  3
txt
  4

  0
ENDTAB
  0
TABLE
  2
VIEW
 70
     0
  0
ENDTAB
  0
TABLE
  2
UCS
 70
     0
  0
ENDTAB
  0
TABLE
  2
APPID
 70
     2
  0
APPID
  2
ACAD
 70
     0
  0
APPID
  2
RHINO
 70
     0
  0
ENDTAB
  0
TABLE
  2
DIMSTYLE
 70
     1
  0
DIMSTYLE
  2
STANDARD_ACAD
 70
     0
  3

  4

  5

  6

  7

 40
1.0
 41
0.18
 42
0.0625
 43
0.38
 44
0.18
 45
0.0
 46
0.0
 47
0.0
 48
0.0
140
0.18
141
0.09
142
0.0
143
25.4
144
1.0
145
0.0
146
1.0
147
0.09
 71
     0
 72
     0
 73
     1
 74
     1
 75
     0
 76
     0
 77
     0
 78
     0
170
     0
171
     2
172
     0
173
     0
174
     0
175
     0
176
     0
177
     0
178
     0
  0
ENDTAB
  0
ENDSEC
  0
SECTION
  2
BLOCKS
  0
BLOCK
  8
0
  2
$MODEL_SPACE
 70
     0
 10
0.0
 20
0.0
 30
0.0
  3
$MODEL_SPACE
  1

  0
ENDBLK
  5
21
  8
0
  0
BLOCK
 67
     1
  8
0
  2
$PAPER_SPACE
 70
     0
 10
0.0
 20
0.0
 30
0.0
  3
$PAPER_SPACE
  1

  0
ENDBLK
  5
1D
 67
     1
  8
0
  0
ENDSEC
  0
SECTION
  2
ENTITIES
  0
POLYLINE
  5
60
  8
SOLIDS
 66
     1
 10
0.0
 20
0.0
 30
57.49999999999997
 70
     1
  0
VERTEX
  5
61
  8
SOLIDS
 10
-296.6638975778326
 20
85.6866242331242
 30
57.49999999999997
 42
-0.1124176414147637
  0
VERTEX
  5
62
  8
SOLIDS
 10
-295.3122647576506
 20
86.93293193238671
 30
57.49999999999997
  0
VERTEX
  5
63
  8
SOLIDS
 10
-294.6926581279895
 20
86.57520187796018
 30
57.49999999999997
 42
-0.1124176414147115
  0
VERTEX
  5
64
  8
SOLIDS
 10
-295.0961758463919
 20
84.7814996694625
 30
57.49999999999997
  0
VERTEX
  5
65
  8
SOLIDS
 10
-295.3479326890588
 20
84.41661128465566
 30
57.49999999999997
  0
VERTEX
  5
66
  8
SOLIDS
 10
-294.4794870639948
 20
83.75022951895181
 30
57.49999999999997
  0
VERTEX
  5
67
  8
SOLIDS
 10
-294.192191415014
 20
84.08784801855339
 30
57.49999999999997
 42
-0.11241764141476
  0
VERTEX
  5
68
  8
SOLIDS
 10
-292.5640461977132
 20
84.94186049692524
 30
57.49999999999997
  0
VERTEX
  5
69
  8
SOLIDS
 10
-292.0581395030748
 20
84.43595380228675
 30
57.49999999999997
 42
-0.1124176414148536
  0
VERTEX
  5
6A
  8
SOLIDS
 10
-292.9121519814466
 20
82.80780858498599
 30
57.49999999999997
  0
VERTEX
  5
6B
  8
SOLIDS
 10
-293.2497704810482
 20
82.52051293600522
 30
57.49999999999997
  0
VERTEX
  5
6C
  8
SOLIDS
 10
-292.5833887153443
 20
81.65206731094122
 30
57.49999999999997
  0
VERTEX
  5
6D
  8
SOLIDS
 10
-292.2185003305375
 20
81.90382415360807
 30
57.49999999999997
 42
-0.1124176414147501
  0
VERTEX
  5
6E
  8
SOLIDS
 10
-290.4247981220399
 20
82.3073418720105
 30
57.49999999999997
  0
VERTEX
  5
6F
  8
SOLIDS
 10
-290.0670680676133
 20
81.68773524234939
 30
57.49999999999997
 42
-0.1124176414147946
  0
VERTEX
  5
70
  8
SOLIDS
 10
-291.3133757668758
 20
80.33610242216734
 30
57.49999999999997
  0
VERTEX
  5
71
  8
SOLIDS
 10
-291.7138477806052
 20
80.1459782327122
 30
57.49999999999997
  0
VERTEX
  5
72
  8
SOLIDS
 10
-291.2949426903463
 20
79.13465188246192
 30
57.49999999999997
  0
VERTEX
  5
73
  8
SOLIDS
 10
-290.8773281101314
 20
79.2833902554141
 30
57.49999999999997
 42
-0.1124176414147554
  0
VERTEX
  5
74
  8
SOLIDS
 10
-289.0403067517129
 20
79.20891414818264
 30
57.49999999999997
  0
VERTEX
  5
75
  8
SOLIDS
 10
-288.8551320495307
 20
78.51783275136188
 30
57.49999999999997
 42
-0.1124176414148043
  0
VERTEX
  5
76
  8
SOLIDS
 10
-290.4088011595999
 20
77.5348238713152
 30
57.49999999999997
  0
VERTEX
  5
77
  8
SOLIDS
 10
-290.8448351815329
 20
77.45482779070187
 30
57.49999999999997
  0
VERTEX
  5
78
  8
SOLIDS
 10
-290.7019544563466
 20
76.36954093473909
 30
57.49999999999997
  0
VERTEX
  5
79
  8
SOLIDS
 10
-290.2600734242246
 20
76.40512456366167
 30
57.49999999999997
 42
-0.112417641414765
  0
VERTEX
  5
7A
  8
SOLIDS
 10
-288.5049228856401
 20
75.85773005442657
 30
57.49999999999997
  0
VERTEX
  5
7B
  8
SOLIDS
 10
-288.5049228856401
 20
75.14226994557345
 30
57.49999999999997
 42
-0.1124176414147837
  0
VERTEX
  5
7C
  8
SOLIDS
 10
-290.2600734242246
 20
74.59487543633828
 30
57.49999999999997
  0
VERTEX
  5
7D
  8
SOLIDS
 10
-290.7019544563466
 20
74.63045906526091
 30
57.49999999999997
  0
VERTEX
  5
7E
  8
SOLIDS
 10
-290.8448351815329
 20
73.54517220929813
 30
57.49999999999997
  0
VERTEX
  5
7F
  8
SOLIDS
 10
-290.4088011595999
 20
73.46517612868482
 30
57.49999999999997
 42
-0.1124176414147704
  0
VERTEX
  5
80
  8
SOLIDS
 10
-288.8551320495306
 20
72.48216724863812
 30
57.49999999999997
  0
VERTEX
  5
81
  8
SOLIDS
 10
-289.0403067517129
 20
71.79108585181737
 30
57.49999999999997
 42
-0.1124176414147619
  0
VERTEX
  5
82
  8
SOLIDS
 10
-290.8773281101314
 20
71.71660974458591
 30
57.49999999999997
  0
VERTEX
  5
83
  8
SOLIDS
 10
-291.2949426903463
 20
71.86534811753808
 30
57.49999999999997
  0
VERTEX
  5
84
  8
SOLIDS
 10
-291.7138477806052
 20
70.8540217672878
 30
57.49999999999997
  0
VERTEX
  5
85
  8
SOLIDS
 10
-291.3133757668758
 20
70.66389757783261
 30
57.49999999999997
 42
-0.1124176414148017
  0
VERTEX
  5
86
  8
SOLIDS
 10
-290.0670680676133
 20
69.31226475765061
 30
57.49999999999997
  0
VERTEX
  5
87
  8
SOLIDS
 10
-290.4247981220398
 20
68.69265812798949
 30
57.49999999999997
 42
-0.1124176414147878
  0
VERTEX
  5
88
  8
SOLIDS
 10
-292.2185003305375
 20
69.09617584639197
 30
57.49999999999997
  0
VERTEX
  5
89
  8
SOLIDS
 10
-292.5833887153443
 20
69.34793268905878
 30
57.49999999999997
  0
VERTEX
  5
8A
  8
SOLIDS
 10
-293.2497704810482
 20
68.47948706399478
 30
57.49999999999997
  0
VERTEX
  5
8B
  8
SOLIDS
 10
-292.9121519814466
 20
68.19219141501401
 30
57.49999999999997
 42
-0.1124176414147864
  0
VERTEX
  5
8C
  8
SOLIDS
 10
-292.0581395030747
 20
66.56404619771325
 30
57.49999999999997
  0
VERTEX
  5
8D
  8
SOLIDS
 10
-292.5640461977132
 20
66.05813950307476
 30
57.49999999999997
 42
-0.1124176414147713
  0
VERTEX
  5
8E
  8
SOLIDS
 10
-294.192191415014
 20
66.91215198144657
 30
57.49999999999997
  0
VERTEX
  5
8F
  8
SOLIDS
 10
-294.4794870639948
 20
67.24977048104819
 30
57.49999999999997
  0
VERTEX
  5
90
  8
SOLIDS
 10
-295.3479326890588
 20
66.58338871534434
 30
57.49999999999997
  0
VERTEX
  5
91
  8
SOLIDS
 10
-295.0961758463919
 20
66.2185003305375
 30
57.49999999999997
 42
-0.1124176414148344
  0
VERTEX
  5
92
  8
SOLIDS
 10
-294.6926581279895
 20
64.42479812203982
 30
57.49999999999997
  0
VERTEX
  5
93
  8
SOLIDS
 10
-295.3122647576506
 20
64.06706806761329
 30
57.49999999999997
 42
-0.1124176414147467
  0
VERTEX
  5
94
  8
SOLIDS
 10
-296.6638975778325
 20
65.3133757668758
 30
57.49999999999997
  0
VERTEX
  5
95
  8
SOLIDS
 10
-296.8540217672878
 20
65.71384778060525
 30
57.49999999999997
  0
VERTEX
  5
96
  8
SOLIDS
 10
-297.8653481175381
 20
65.29494269034632
 30
57.49999999999997
  0
VERTEX
  5
97
  8
SOLIDS
 10
-297.7166097445859
 20
64.87732811013143
 30
57.49999999999997
 42
-0.1124176414147762
  0
VERTEX
  5
98
  8
SOLIDS
 10
-297.7910858518173
 20
63.04030675171294
 30
57.49999999999997
  0
VERTEX
  5
99
  8
SOLIDS
 10
-298.4821672486381
 20
62.85513204953062
 30
57.49999999999997
 42
-0.1124176414148291
  0
VERTEX
  5
9A
  8
SOLIDS
 10
-299.4651761286848
 20
64.4088011595999
 30
57.49999999999997
  0
VERTEX
  5
9B
  8
SOLIDS
 10
-299.5451722092981
 20
64.84483518153286
 30
57.49999999999997
  0
VERTEX
  5
9C
  8
SOLIDS
 10
-300.6304590652609
 20
64.70195445634658
 30
57.49999999999997
  0
VERTEX
  5
9D
  8
SOLIDS
 10
-300.5948754363383
 20
64.26007342422457
 30
57.49999999999997
 42
-0.1124176414146504
  0
VERTEX
  5
9E
  8
SOLIDS
 10
-301.1422699455734
 20
62.50492288564011
 30
57.49999999999997
  0
VERTEX
  5
9F
  8
SOLIDS
 10
-301.8577300544266
 20
62.5049228856401
 30
57.49999999999997
 42
-0.1124176414146489
  0
VERTEX
  5
A0
  8
SOLIDS
 10
-302.4051245636617
 20
64.26007342422457
 30
57.49999999999997
  0
VERTEX
  5
A1
  8
SOLIDS
 10
-302.369540934739
 20
64.70195445634658
 30
57.49999999999997
  0
VERTEX
  5
A2
  8
SOLIDS
 10
-303.4548277907019
 20
64.84483518153286
 30
57.49999999999997
  0
VERTEX
  5
A3
  8
SOLIDS
 10
-303.5348238713152
 20
64.4088011595999
 30
57.49999999999997
 42
-0.1124176414148298
  0
VERTEX
  5
A4
  8
SOLIDS
 10
-304.5178327513619
 20
62.85513204953062
 30
57.49999999999997
  0
VERTEX
  5
A5
  8
SOLIDS
 10
-305.2089141481827
 20
63.0403067517129
 30
57.49999999999997
 42
-0.1124176414147755
  0
VERTEX
  5
A6
  8
SOLIDS
 10
-305.2833902554141
 20
64.87732811013143
 30
57.49999999999997
  0
VERTEX
  5
A7
  8
SOLIDS
 10
-305.1346518824619
 20
65.29494269034632
 30
57.49999999999997
  0
VERTEX
  5
A8
  8
SOLIDS
 10
-306.1459782327122
 20
65.71384778060525
 30
57.49999999999997
  0
VERTEX
  5
A9
  8
SOLIDS
 10
-306.3361024221674
 20
65.3133757668758
 30
57.49999999999997
 42
-0.1124176414147861
  0
VERTEX
  5
AA
  8
SOLIDS
 10
-307.6877352423494
 20
64.06706806761329
 30
57.49999999999997
  0
VERTEX
  5
AB
  8
SOLIDS
 10
-308.3073418720105
 20
64.42479812203982
 30
57.49999999999997
 42
-0.1124176414147757
  0
VERTEX
  5
AC
  8
SOLIDS
 10
-307.9038241536081
 20
66.2185003305375
 30
57.49999999999997
  0
VERTEX
  5
AD
  8
SOLIDS
 10
-307.6520673109412
 20
66.58338871534434
 30
57.49999999999997
  0
VERTEX
  5
AE
  8
SOLIDS
 10
-308.5205129360052
 20
67.24977048104819
 30
57.49999999999997
  0
VERTEX
  5
AF
  8
SOLIDS
 10
-308.807808584986
 20
66.91215198144658
 30
57.49999999999997
 42
-0.1124176414147658
  0
VERTEX
  5
B0
  8
SOLIDS
 10
-310.4359538022868
 20
66.05813950307476
 30
57.49999999999997
  0
VERTEX
  5
B1
  8
SOLIDS
 10
-310.9418604969253
 20
66.56404619771325
 30
57.49999999999997
 42
-0.1124176414147904
  0
VERTEX
  5
B2
  8
SOLIDS
 10
-310.0878480185534
 20
68.19219141501401
 30
57.49999999999997
  0
VERTEX
  5
B3
  8
SOLIDS
 10
-309.7502295189518
 20
68.47948706399478
 30
57.49999999999997
  0
VERTEX
  5
B4
  8
SOLIDS
 10
-310.4166112846556
 20
69.34793268905878
 30
57.49999999999997
  0
VERTEX
  5
B5
  8
SOLIDS
 10
-310.7814996694625
 20
69.09617584639193
 30
57.49999999999997
 42
-0.1124176414147498
  0
VERTEX
  5
B6
  8
SOLIDS
 10
-312.5752018779601
 20
68.69265812798947
 30
57.49999999999997
  0
VERTEX
  5
B7
  8
SOLIDS
 10
-312.9329319323867
 20
69.31226475765061
 30
57.49999999999997
 42
-0.1124176414147031
  0
VERTEX
  5
B8
  8
SOLIDS
 10
-311.6866242331242
 20
70.66389757783264
 30
57.49999999999997
  0
VERTEX
  5
B9
  8
SOLIDS
 10
-311.2861522193948
 20
70.8540217672878
 30
57.49999999999997
  0
VERTEX
  5
BA
  8
SOLIDS
 10
-311.7050573096537
 20
71.86534811753808
 30
57.49999999999997
  0
VERTEX
  5
BB
  8
SOLIDS
 10
-312.1226718898686
 20
71.7166097445859
 30
57.49999999999997
 42
-0.1124176414147741
  0
VERTEX
  5
BC
  8
SOLIDS
 10
-313.9596932482871
 20
71.79108585181736
 30
57.49999999999997
  0
VERTEX
  5
BD
  8
SOLIDS
 10
-314.1448679504693
 20
72.48216724863812
 30
57.49999999999997
 42
-0.1124176414148039
  0
VERTEX
  5
BE
  8
SOLIDS
 10
-312.5911988404
 20
73.46517612868482
 30
57.49999999999997
  0
VERTEX
  5
BF
  8
SOLIDS
 10
-312.1551648184671
 20
73.54517220929813
 30
57.49999999999997
  0
VERTEX
  5
C0
  8
SOLIDS
 10
-312.2980455436534
 20
74.63045906526091
 30
57.49999999999997
  0
VERTEX
  5
C1
  8
SOLIDS
 10
-312.7399265757754
 20
74.5948754363383
 30
57.49999999999997
 42
-0.1124176414147879
  0
VERTEX
  5
C2
  8
SOLIDS
 10
-314.4950771143599
 20
75.14226994557345
 30
57.49999999999997
  0
VERTEX
  5
C3
  8
SOLIDS
 10
-314.4950771143599
 20
75.85773005442655
 30
57.49999999999997
 42
-0.1124176414147609
  0
VERTEX
  5
C4
  8
SOLIDS
 10
-312.7399265757754
 20
76.40512456366169
 30
57.49999999999997
  0
VERTEX
  5
C5
  8
SOLIDS
 10
-312.2980455436534
 20
76.36954093473906
 30
57.49999999999997
  0
VERTEX
  5
C6
  8
SOLIDS
 10
-312.1551648184671
 20
77.45482779070187
 30
57.49999999999997
  0
VERTEX
  5
C7
  8
SOLIDS
 10
-312.5911988404001
 20
77.53482387131518
 30
57.49999999999997
 42
-0.1124176414147598
  0
VERTEX
  5
C8
  8
SOLIDS
 10
-314.1448679504695
 20
78.51783275136184
 30
57.49999999999997
  0
VERTEX
  5
C9
  8
SOLIDS
 10
-313.9596932482871
 20
79.20891414818263
 30
57.49999999999997
 42
-0.1124176414147701
  0
VERTEX
  5
CA
  8
SOLIDS
 10
-312.1226718898686
 20
79.2833902554141
 30
57.49999999999997
  0
VERTEX
  5
CB
  8
SOLIDS
 10
-311.7050573096537
 20
79.13465188246192
 30
57.49999999999997
  0
VERTEX
  5
CC
  8
SOLIDS
 10
-311.2861522193948
 20
80.1459782327122
 30
57.49999999999997
  0
VERTEX
  5
CD
  8
SOLIDS
 10
-311.6866242331242
 20
80.33610242216736
 30
57.49999999999997
 42
-0.1124176414147546
  0
VERTEX
  5
CE
  8
SOLIDS
 10
-312.9329319323867
 20
81.68773524234939
 30
57.49999999999997
  0
VERTEX
  5
CF
  8
SOLIDS
 10
-312.5752018779601
 20
82.30734187201051
 30
57.49999999999997
 42
-0.112417641414769
  0
VERTEX
  5
D0
  8
SOLIDS
 10
-310.7814996694625
 20
81.90382415360806
 30
57.49999999999997
  0
VERTEX
  5
D1
  8
SOLIDS
 10
-310.4166112846556
 20
81.65206731094122
 30
57.49999999999997
  0
VERTEX
  5
D2
  8
SOLIDS
 10
-309.7502295189518
 20
82.52051293600522
 30
57.49999999999997
  0
VERTEX
  5
D3
  8
SOLIDS
 10
-310.0878480185534
 20
82.80780858498599
 30
57.49999999999997
 42
-0.1124176414147415
  0
VERTEX
  5
D4
  8
SOLIDS
 10
-310.9418604969253
 20
84.43595380228675
 30
57.49999999999997
  0
VERTEX
  5
D5
  8
SOLIDS
 10
-310.4359538022868
 20
84.94186049692522
 30
57.49999999999997
 42
-0.1124176414147862
  0
VERTEX
  5
D6
  8
SOLIDS
 10
-308.807808584986
 20
84.0878480185534
 30
57.49999999999997
  0
VERTEX
  5
D7
  8
SOLIDS
 10
-308.5205129360052
 20
83.75022951895178
 30
57.49999999999997
  0
VERTEX
  5
D8
  8
SOLIDS
 10
-307.6520673109412
 20
84.41661128465563
 30
57.49999999999997
  0
VERTEX
  5
D9
  8
SOLIDS
 10
-307.9038241536081
 20
84.7814996694625
 30
57.49999999999997
 42
-0.1124176414147801
  0
VERTEX
  5
DA
  8
SOLIDS
 10
-308.3073418720105
 20
86.57520187796018
 30
57.49999999999997
  0
VERTEX
  5
DB
  8
SOLIDS
 10
-307.6877352423494
 20
86.93293193238671
 30
57.49999999999997
 42
-0.1124176414147817
  0
VERTEX
  5
DC
  8
SOLIDS
 10
-306.3361024221674
 20
85.6866242331242
 30
57.49999999999997
  0
VERTEX
  5
DD
  8
SOLIDS
 10
-306.1459782327122
 20
85.28615221939475
 30
57.49999999999997
  0
VERTEX
  5
DE
  8
SOLIDS
 10
-305.1346518824619
 20
85.70505730965368
 30
57.49999999999997
  0
VERTEX
  5
DF
  8
SOLIDS
 10
-305.2833902554141
 20
86.12267188986857
 30
57.49999999999997
 42
-0.1124176414147808
  0
VERTEX
  5
E0
  8
SOLIDS
 10
-305.2089141481827
 20
87.95969324828707
 30
57.49999999999997
  0
VERTEX
  5
E1
  8
SOLIDS
 10
-304.5178327513619
 20
88.14486795046938
 30
57.49999999999997
 42
-0.1124176414148293
  0
VERTEX
  5
E2
  8
SOLIDS
 10
-303.5348238713152
 20
86.5911988404001
 30
57.49999999999997
  0
VERTEX
  5
E3
  8
SOLIDS
 10
-303.4548277907019
 20
86.15516481846714
 30
57.49999999999997
  0
VERTEX
  5
E4
  8
SOLIDS
 10
-302.3695409347391
 20
86.29804554365342
 30
57.49999999999997
  0
VERTEX
  5
E5
  8
SOLIDS
 10
-302.4051245636617
 20
86.73992657577543
 30
57.49999999999997
 42
-0.1124176414146544
  0
VERTEX
  5
E6
  8
SOLIDS
 10
-301.8577300544266
 20
88.49507711435987
 30
57.49999999999997
  0
VERTEX
  5
E7
  8
SOLIDS
 10
-301.1422699455734
 20
88.4950771143599
 30
57.49999999999997
 42
-0.1124176414146443
  0
VERTEX
  5
E8
  8
SOLIDS
 10
-300.5948754363383
 20
86.73992657577543
 30
57.49999999999997
  0
VERTEX
  5
E9
  8
SOLIDS
 10
-300.6304590652609
 20
86.29804554365342
 30
57.49999999999997
  0
VERTEX
  5
EA
  8
SOLIDS
 10
-299.5451722092981
 20
86.15516481846714
 30
57.49999999999997
  0
VERTEX
  5
EB
  8
SOLIDS
 10
-299.4651761286848
 20
86.5911988404001
 30
57.49999999999997
 42
-0.1124176414148306
  0
VERTEX
  5
EC
  8
SOLIDS
 10
-298.4821672486381
 20
88.14486795046938
 30
57.49999999999997
  0
VERTEX
  5
ED
  8
SOLIDS
 10
-297.7910858518173
 20
87.9596932482871
 30
57.49999999999997
 42
-0.1124176414147779
  0
VERTEX
  5
EE
  8
SOLIDS
 10
-297.7166097445859
 20
86.12267188986857
 30
57.49999999999997
  0
VERTEX
  5
EF
  8
SOLIDS
 10
-297.8653481175381
 20
85.70505730965368
 30
57.49999999999997
  0
VERTEX
  5
F0
  8
SOLIDS
 10
-296.8540217672878
 20
85.28615221939475
 30
57.49999999999997
  0
SEQEND
  5
F1
  8
SOLIDS
  0
POLYLINE
  5
F2
  8
SOLIDS
 66
     1
 10
0.0
 20
0.0
 30
57.49999999999997
 70
     1
  0
VERTEX
  5
F3
  8
SOLIDS
 10
-298.0289364696986
 20
76.95000000000073
 30
57.49999999999997
  0
VERTEX
  5
F4
  8
SOLIDS
 10
-298.0289364696986
 20
74.05000000000075
 30
57.49999999999997
  0
VERTEX
  5
F5
  8
SOLIDS
 10
-300.0
 20
74.05000000000075
 30
57.49999999999997
  0
VERTEX
  5
F6
  8
SOLIDS
 10
-300.0
 20
72.0
 30
57.49999999999997
  0
VERTEX
  5
F7
  8
SOLIDS
 10
-303.0
 20
72.0
 30
57.49999999999997
  0
VERTEX
  5
F8
  8
SOLIDS
 10
-303.0
 20
74.05000000000075
 30
57.49999999999997
  0
VERTEX
  5
F9
  8
SOLIDS
 10
-304.9710635302979
 20
74.05000000000075
 30
57.49999999999997
  0
VERTEX
  5
FA
  8
SOLIDS
 10
-304.9710635302979
 20
76.95000000000073
 30
57.49999999999997
  0
VERTEX
  5
FB
  8
SOLIDS
 10
-303.0
 20
76.95000000000073
 30
57.49999999999997
  0
VERTEX
  5
FC
  8
SOLIDS
 10
-303.0
 20
79.0
 30
57.49999999999997
  0
VERTEX
  5
FD
  8
SOLIDS
 10
-300.0
 20
79.0
 30
57.49999999999997
  0
VERTEX
  5
FE
  8
SOLIDS
 10
-300.0
 20
76.95000000000073
 30
57.49999999999997
  0
SEQEND
  5
FF
  8
SOLIDS
  0
POLYLINE
  5
100
  8
SOLIDS
 66
     1
 10
0.0
 20
0.0
 30
0.0
 70
     1
  0
VERTEX
  5
101
  8
SOLIDS
 10
-439.0
 20
109.0
 30
0.0
  0
VERTEX
  5
102
  8
SOLIDS
 10
-442.0
 20
109.0
 30
0.0
  0
VERTEX
  5
103
  8
SOLIDS
 10
-442.0
 20
114.0
 30
0.0
  0
VERTEX
  5
104
  8
SOLIDS
 10
-447.0
 20
114.0
 30
0.0
  0
VERTEX
  5
105
  8
SOLIDS
 10
-447.0
 20
117.0
 30
0.0
  0
VERTEX
  5
106
  8
SOLIDS
 10
-455.0
 20
117.0
 30
0.0
  0
VERTEX
  5
107
  8
SOLIDS
 10
-455.0
 20
114.0
 30
0.0
  0
VERTEX
  5
108
  8
SOLIDS
 10
-463.0
 20
114.0
 30
0.0
  0
VERTEX
  5
109
  8
SOLIDS
 10
-463.0
 20
117.0
 30
0.0
  0
VERTEX
  5
10A
  8
SOLIDS
 10
-471.0
 20
117.0
 30
0.0
  0
VERTEX
  5
10B
  8
SOLIDS
 10
-471.0
 20
114.0
 30
0.0
  0
VERTEX
  5
10C
  8
SOLIDS
 10
-479.0
 20
114.0
 30
0.0
  0
VERTEX
  5
10D
  8
SOLIDS
 10
-479.0
 20
117.0
 30
0.0
  0
VERTEX
  5
10E
  8
SOLIDS
 10
-487.0
 20
117.0
 30
0.0
  0
VERTEX
  5
10F
  8
SOLIDS
 10
-487.0
 20
114.0
 30
0.0
  0
VERTEX
  5
110
  8
SOLIDS
 10
-492.0
 20
114.0
 30
0.0
  0
VERTEX
  5
111
  8
SOLIDS
 10
-492.0
 20
109.0
 30
0.0
  0
VERTEX
  5
112
  8
SOLIDS
 10
-495.0
 20
109.0
 30
0.0
  0
VERTEX
  5
113
  8
SOLIDS
 10
-495.0
 20
101.0
 30
0.0
  0
VERTEX
  5
114
  8
SOLIDS
 10
-492.0
 20
101.0
 30
0.0
  0
VERTEX
  5
115
  8
SOLIDS
 10
-492.0
 20
93.0
 30
0.0
  0
VERTEX
  5
116
  8
SOLIDS
 10
-495.0
 20
93.0
 30
0.0
  0
VERTEX
  5
117
  8
SOLIDS
 10
-495.0
 20
85.0
 30
0.0
  0
VERTEX
  5
118
  8
SOLIDS
 10
-492.0
 20
85.0
 30
0.0
  0
VERTEX
  5
119
  8
SOLIDS
 10
-492.0
 20
77.0
 30
0.0
  0
VERTEX
  5
11A
  8
SOLIDS
 10
-495.0
 20
77.0
 30
0.0
  0
VERTEX
  5
11B
  8
SOLIDS
 10
-495.0
 20
69.0
 30
0.0
  0
VERTEX
  5
11C
  8
SOLIDS
 10
-492.0
 20
69.0
 30
0.0
  0
VERTEX
  5
11D
  8
SOLIDS
 10
-492.0
 20
64.0
 30
0.0
  0
VERTEX
  5
11E
  8
SOLIDS
 10
-487.0
 20
64.0
 30
0.0
  0
VERTEX
  5
11F
  8
SOLIDS
 10
-487.0
 20
61.0
 30
0.0
  0
VERTEX
  5
120
  8
SOLIDS
 10
-479.0
 20
61.0
 30
0.0
  0
VERTEX
  5
121
  8
SOLIDS
 10
-479.0
 20
64.0
 30
0.0
  0
VERTEX
  5
122
  8
SOLIDS
 10
-471.0
 20
64.0
 30
0.0
  0
VERTEX
  5
123
  8
SOLIDS
 10
-471.0
 20
61.0
 30
0.0
  0
VERTEX
  5
124
  8
SOLIDS
 10
-463.0
 20
61.0
 30
0.0
  0
VERTEX
  5
125
  8
SOLIDS
 10
-463.0
 20
64.0
 30
0.0
  0
VERTEX
  5
126
  8
SOLIDS
 10
-455.0
 20
64.0
 30
0.0
  0
VERTEX
  5
127
  8
SOLIDS
 10
-455.0
 20
61.0
 30
0.0
  0
VERTEX
  5
128
  8
SOLIDS
 10
-447.0
 20
61.0
 30
0.0
  0
VERTEX
  5
129
  8
SOLIDS
 10
-447.0
 20
64.0
 30
0.0
  0
VERTEX
  5
12A
  8
SOLIDS
 10
-442.0
 20
64.0
 30
0.0
  0
VERTEX
  5
12B
  8
SOLIDS
 10
-442.0
 20
69.0
 30
0.0
  0
VERTEX
  5
12C
  8
SOLIDS
 10
-439.0
 20
69.0
 30
0.0
  0
VERTEX
  5
12D
  8
SOLIDS
 10
-439.0
 20
77.0
 30
0.0
  0
VERTEX
  5
12E
  8
SOLIDS
 10
-442.0
 20
77.0
 30
0.0
  0
VERTEX
  5
12F
  8
SOLIDS
 10
-442.0
 20
85.0
 30
0.0
  0
VERTEX
  5
130
  8
SOLIDS
 10
-439.0
 20
85.0
 30
0.0
  0
VERTEX
  5
131
  8
SOLIDS
 10
-439.0
 20
93.0
 30
0.0
  0
VERTEX
  5
132
  8
SOLIDS
 10
-442.0
 20
93.0
 30
0.0
  0
VERTEX
  5
133
  8
SOLIDS
 10
-442.0
 20
101.0
 30
0.0
  0
VERTEX
  5
134
  8
SOLIDS
 10
-439.0
 20
101.0
 30
0.0
  0
SEQEND
  5
135
  8
SOLIDS
  0
POLYLINE
  5
136
  8
SOLIDS
 66
     1
 10
0.0
 20
0.0
 30
26.0
 70
     1
  0
VERTEX
  5
137
  8
SOLIDS
 10
-393.0
 20
113.0
 30
26.0
  0
VERTEX
  5
138
  8
SOLIDS
 10
-395.0
 20
113.0
 30
26.0
  0
VERTEX
  5
139
  8
SOLIDS
 10
-395.0
 20
109.0
 30
26.0
  0
VERTEX
  5
13A
  8
SOLIDS
 10
-385.0
 20
109.0
 30
26.0
  0
VERTEX
  5
13B
  8
SOLIDS
 10
-385.0
 20
116.0
 30
26.0
  0
VERTEX
  5
13C
  8
SOLIDS
 10
-380.0
 20
116.0
 30
26.0
  0
VERTEX
  5
13D
  8
SOLIDS
 10
-380.0
 20
108.0
 30
26.0
  0
VERTEX
  5
13E
  8
SOLIDS
 10
-377.0
 20
108.0
 30
26.0
  0
VERTEX
  5
13F
  8
SOLIDS
 10
-377.0
 20
100.0
 30
26.0
  0
VERTEX
  5
140
  8
SOLIDS
 10
-380.0
 20
100.0
 30
26.0
  0
VERTEX
  5
141
  8
SOLIDS
 10
-380.0
 20
92.0
 30
26.0
  0
VERTEX
  5
142
  8
SOLIDS
 10
-377.0
 20
92.0
 30
26.0
  0
VERTEX
  5
143
  8
SOLIDS
 10
-377.0
 20
84.0
 30
26.0
  0
VERTEX
  5
144
  8
SOLIDS
 10
-380.0
 20
84.0
 30
26.0
  0
VERTEX
  5
145
  8
SOLIDS
 10
-380.0
 20
76.0
 30
26.0
  0
VERTEX
  5
146
  8
SOLIDS
 10
-377.0
 20
76.0
 30
26.0
  0
VERTEX
  5
147
  8
SOLIDS
 10
-377.0
 20
68.0
 30
26.0
  0
VERTEX
  5
148
  8
SOLIDS
 10
-380.0
 20
68.0
 30
26.0
  0
VERTEX
  5
149
  8
SOLIDS
 10
-380.0
 20
64.0
 30
26.0
  0
VERTEX
  5
14A
  8
SOLIDS
 10
-430.0
 20
64.0
 30
26.0
  0
VERTEX
  5
14B
  8
SOLIDS
 10
-430.0
 20
68.0
 30
26.0
  0
VERTEX
  5
14C
  8
SOLIDS
 10
-433.0
 20
68.0
 30
26.0
  0
VERTEX
  5
14D
  8
SOLIDS
 10
-433.0
 20
76.0
 30
26.0
  0
VERTEX
  5
14E
  8
SOLIDS
 10
-430.0
 20
76.0
 30
26.0
  0
VERTEX
  5
14F
  8
SOLIDS
 10
-430.0
 20
84.0
 30
26.0
  0
VERTEX
  5
150
  8
SOLIDS
 10
-433.0
 20
84.0
 30
26.0
  0
VERTEX
  5
151
  8
SOLIDS
 10
-433.0
 20
92.0
 30
26.0
  0
VERTEX
  5
152
  8
SOLIDS
 10
-430.0
 20
92.0
 30
26.0
  0
VERTEX
  5
153
  8
SOLIDS
 10
-430.0
 20
100.0
 30
26.0
  0
VERTEX
  5
154
  8
SOLIDS
 10
-433.0
 20
100.0
 30
26.0
  0
VERTEX
  5
155
  8
SOLIDS
 10
-433.0
 20
108.0
 30
26.0
  0
VERTEX
  5
156
  8
SOLIDS
 10
-430.0
 20
108.0
 30
26.0
  0
VERTEX
  5
157
  8
SOLIDS
 10
-430.0
 20
116.0
 30
26.0
  0
VERTEX
  5
158
  8
SOLIDS
 10
-425.0
 20
116.0
 30
26.0
  0
VERTEX
  5
159
  8
SOLIDS
 10
-425.0
 20
113.0
 30
26.0
  0
VERTEX
  5
15A
  8
SOLIDS
 10
-417.0
 20
113.0
 30
26.0
  0
VERTEX
  5
15B
  8
SOLIDS
 10
-417.0
 20
116.0
 30
26.0
  0
VERTEX
  5
15C
  8
SOLIDS
 10
-409.0
 20
116.0
 30
26.0
  0
VERTEX
  5
15D
  8
SOLIDS
 10
-409.0
 20
113.0
 30
26.0
  0
VERTEX
  5
15E
  8
SOLIDS
 10
-401.0
 20
113.0
 30
26.0
  0
VERTEX
  5
15F
  8
SOLIDS
 10
-401.0
 20
116.0
 30
26.0
  0
VERTEX
  5
160
  8
SOLIDS
 10
-393.0
 20
116.0
 30
26.0
  0
SEQEND
  5
161
  8
SOLIDS
  0
CIRCLE
  5
162
  8
SOLIDS
 10
315.0000000000001
 20
103.5
 30
-33.49999999999996
 40
3.807886552931977
210
0.0
220
0.0
230
-1.0
  0
POLYLINE
  5
163
  8
SOLIDS
 66
     1
 10
0.0
 20
0.0
 30
33.49999999999994
 70
     1
  0
VERTEX
  5
164
  8
SOLIDS
 10
-310.5000000000001
 20
117.0
 30
33.49999999999994
  0
VERTEX
  5
165
  8
SOLIDS
 10
-309.8773651123048
 20
116.9976348876953
 30
33.49999999999994
  0
VERTEX
  5
166
  8
SOLIDS
 10
-309.2683105468751
 20
116.981689453125
 30
33.49999999999994
  0
VERTEX
  5
167
  8
SOLIDS
 10
-308.9726667404176
 20
116.9648332595825
 30
33.49999999999994
  0
VERTEX
  5
168
  8
SOLIDS
 10
-308.6847381591798
 20
116.9402618408203
 30
33.49999999999994
  0
VERTEX
  5
169
  8
SOLIDS
 10
-308.5440470576287
 20
116.9247029423714
 30
33.49999999999994
  0
VERTEX
  5
16A
  8
SOLIDS
 10
-308.4057264328004
 20
116.9067735671997
 30
33.49999999999994
  0
VERTEX
  5
16B
  8
SOLIDS
 10
-308.2699086070062
 20
116.8863413929939
 30
33.49999999999994
  0
VERTEX
  5
16C
  8
SOLIDS
 10
-308.1367187500001
 20
116.86328125
 30
33.49999999999994
  0
VERTEX
  5
16D
  8
SOLIDS
 10
-308.0062748789788
 20
116.8374751210213
 30
33.49999999999994
  0
VERTEX
  5
16E
  8
SOLIDS
 10
-307.8786878585817
 20
116.8088121414185
 30
33.49999999999994
  0
VERTEX
  5
16F
  8
SOLIDS
 10
-307.7540614008905
 20
116.7771885991096
 30
33.49999999999994
  0
VERTEX
  5
170
  8
SOLIDS
 10
-307.6324920654298
 20
116.7425079345703
 30
33.49999999999994
  0
VERTEX
  5
171
  8
SOLIDS
 10
-307.5140692591668
 20
116.7046807408333
 30
33.49999999999994
  0
VERTEX
  5
172
  8
SOLIDS
 10
-307.3988752365113
 20
116.6636247634888
 30
33.49999999999994
  0
VERTEX
  5
173
  8
SOLIDS
 10
-307.3425127677621
 20
116.6418622322381
 30
33.49999999999994
  0
VERTEX
  5
174
  8
SOLIDS
 10
-307.2869850993158
 20
116.6192649006844
 30
33.49999999999994
  0
VERTEX
  5
175
  8
SOLIDS
 10
-307.2323005013169
 20
116.5958244986832
 30
33.49999999999994
  0
VERTEX
  5
176
  8
SOLIDS
 10
-307.1784667968751
 20
116.571533203125
 30
33.49999999999994
  0
VERTEX
  5
177
  8
SOLIDS
 10
-307.1254913620652
 20
116.546383637935
 30
33.49999999999994
  0
VERTEX
  5
178
  8
SOLIDS
 10
-307.0733811259271
 20
116.5203688740731
 30
33.49999999999994
  0
VERTEX
  5
179
  8
SOLIDS
 10
-307.0221425704659
 20
116.4934824295342
 30
33.49999999999994
  0
VERTEX
  5
17A
  8
SOLIDS
 10
-306.971781730652
 20
116.4657182693482
 30
33.49999999999994
  0
VERTEX
  5
17B
  8
SOLIDS
 10
-306.9223041944207
 20
116.4370708055795
 30
33.49999999999994
  0
VERTEX
  5
17C
  8
SOLIDS
 10
-306.8737151026727
 20
116.4075348973275
 30
33.49999999999994
  0
VERTEX
  5
17D
  8
SOLIDS
 10
-306.8260191492737
 20
116.3771058507264
 30
33.49999999999994
  0
VERTEX
  5
17E
  8
SOLIDS
 10
-306.7792205810548
 20
116.3457794189453
 30
33.49999999999994
  0
VERTEX
  5
17F
  8
SOLIDS
 10
-306.733323197812
 20
116.3135518021882
 30
33.49999999999994
  0
VERTEX
  5
180
  8
SOLIDS
 10
-306.6883303523065
 20
116.2804196476937
 30
33.49999999999994
  0
VERTEX
  5
181
  8
SOLIDS
 10
-306.6442449502648
 20
116.2463800497354
 30
33.49999999999994
  0
VERTEX
  5
182
  8
SOLIDS
 10
-306.6010694503785
 20
116.2114305496216
 30
33.49999999999994
  0
VERTEX
  5
183
  8
SOLIDS
 10
-306.5588058643044
 20
116.1755691356958
 30
33.49999999999994
  0
VERTEX
  5
184
  8
SOLIDS
 10
-306.5174557566644
 20
116.1387942433358
 30
33.49999999999994
  0
VERTEX
  5
185
  8
SOLIDS
 10
-306.4770202450455
 20
116.1011047549546
 30
33.49999999999994
  0
VERTEX
  5
186
  8
SOLIDS
 10
-306.4375000000001
 20
116.0625000000001
 30
33.49999999999994
  0
VERTEX
  5
187
  8
SOLIDS
 10
-306.3988952450455
 20
116.0229797549546
 30
33.49999999999994
  0
VERTEX
  5
188
  8
SOLIDS
 10
-306.3612057566644
 20
115.9825442433358
 30
33.49999999999994
  0
VERTEX
  5
189
  8
SOLIDS
 10
-306.3244308643044
 20
115.9411941356958
 30
33.49999999999994
  0
VERTEX
  5
18A
  8
SOLIDS
 10
-306.2885694503785
 20
115.8989305496216
 30
33.49999999999994
  0
VERTEX
  5
18B
  8
SOLIDS
 10
-306.2536199502648
 20
115.8557550497354
 30
33.49999999999994
  0
VERTEX
  5
18C
  8
SOLIDS
 10
-306.2195803523065
 20
115.8116696476937
 30
33.49999999999994
  0
VERTEX
  5
18D
  8
SOLIDS
 10
-306.186448197812
 20
115.7666768021882
 30
33.49999999999994
  0
VERTEX
  5
18E
  8
SOLIDS
 10
-306.1542205810548
 20
115.7207794189454
 30
33.49999999999994
  0
VERTEX
  5
18F
  8
SOLIDS
 10
-306.1228941492737
 20
115.6739808507264
 30
33.49999999999994
  0
VERTEX
  5
190
  8
SOLIDS
 10
-306.0924651026727
 20
115.6262848973275
 30
33.49999999999994
  0
VERTEX
  5
191
  8
SOLIDS
 10
-306.0629291944207
 20
115.5776958055795
 30
33.49999999999994
  0
VERTEX
  5
192
  8
SOLIDS
 10
-306.034281730652
 20
115.5282182693482
 30
33.49999999999994
  0
VERTEX
  5
193
  8
SOLIDS
 10
-306.0065175704658
 20
115.4778574295343
 30
33.49999999999994
  0
VERTEX
  5
194
  8
SOLIDS
 10
-305.979631125927
 20
115.4266188740731
 30
33.49999999999994
  0
VERTEX
  5
195
  8
SOLIDS
 10
-305.9536163620651
 20
115.374508637935
 30
33.49999999999994
  0
VERTEX
  5
196
  8
SOLIDS
 10
-305.928466796875
 20
115.3215332031251
 30
33.49999999999994
  0
VERTEX
  5
197
  8
SOLIDS
 10
-305.9041755013168
 20
115.2676994986833
 30
33.49999999999994
  0
VERTEX
  5
198
  8
SOLIDS
 10
-305.8807350993156
 20
115.2130149006844
 30
33.49999999999994
  0
VERTEX
  5
199
  8
SOLIDS
 10
-305.8581377677619
 20
115.1574872322381
 30
33.49999999999994
  0
VERTEX
  5
19A
  8
SOLIDS
 10
-305.8363752365112
 20
115.1011247634889
 30
33.49999999999994
  0
VERTEX
  5
19B
  8
SOLIDS
 10
-305.7953192591667
 20
114.9859307408334
 30
33.49999999999994
  0
VERTEX
  5
19C
  8
SOLIDS
 10
-305.7574920654297
 20
114.8675079345704
 30
33.49999999999994
  0
VERTEX
  5
19D
  8
SOLIDS
 10
-305.7228114008904
 20
114.7459385991097
 30
33.49999999999994
  0
VERTEX
  5
19E
  8
SOLIDS
 10
-305.6911878585815
 20
114.6213121414185
 30
33.49999999999994
  0
VERTEX
  5
19F
  8
SOLIDS
 10
-305.6625248789787
 20
114.4937251210214
 30
33.49999999999994
  0
VERTEX
  5
1A0
  8
SOLIDS
 10
-305.63671875
 20
114.3632812500001
 30
33.49999999999994
  0
VERTEX
  5
1A1
  8
SOLIDS
 10
-305.6136586070061
 20
114.230091392994
 30
33.49999999999994
  0
VERTEX
  5
1A2
  8
SOLIDS
 10
-305.5932264328003
 20
114.0942735671998
 30
33.49999999999994
  0
VERTEX
  5
1A3
  8
SOLIDS
 10
-305.5752970576286
 20
113.9559529423715
 30
33.49999999999994
  0
VERTEX
  5
1A4
  8
SOLIDS
 10
-305.5597381591797
 20
113.8152618408204
 30
33.49999999999994
  0
VERTEX
  5
1A5
  8
SOLIDS
 10
-305.5351667404175
 20
113.5273332595826
 30
33.49999999999994
  0
VERTEX
  5
1A6
  8
SOLIDS
 10
-305.518310546875
 20
113.2316894531251
 30
33.49999999999994
  0
VERTEX
  5
1A7
  8
SOLIDS
 10
-305.5023651123047
 20
112.6226348876954
 30
33.49999999999994
  0
VERTEX
  5
1A8
  8
SOLIDS
 10
-305.5000000000001
 20
112.0
 30
33.49999999999994
  0
VERTEX
  5
1A9
  8
SOLIDS
 10
-305.5000000000001
 20
95.26750290940831
 30
33.49999999999994
  0
VERTEX
  5
1AA
  8
SOLIDS
 10
-305.5023651123047
 20
94.644868021713
 30
33.49999999999994
  0
VERTEX
  5
1AB
  8
SOLIDS
 10
-305.518310546875
 20
94.03581345628331
 30
33.49999999999994
  0
VERTEX
  5
1AC
  8
SOLIDS
 10
-305.5351667404175
 20
93.74016964982579
 30
33.49999999999994
  0
VERTEX
  5
1AD
  8
SOLIDS
 10
-305.5597381591797
 20
93.452241068588
 30
33.49999999999994
  0
VERTEX
  5
1AE
  8
SOLIDS
 10
-305.5752970576286
 20
93.31154996703694
 30
33.49999999999994
  0
VERTEX
  5
1AF
  8
SOLIDS
 10
-305.5932264328003
 20
93.1732293422086
 30
33.49999999999994
  0
VERTEX
  5
1B0
  8
SOLIDS
 10
-305.6136586070061
 20
93.03741151641438
 30
33.49999999999994
  0
VERTEX
  5
1B1
  8
SOLIDS
 10
-305.63671875
 20
92.90422165940831
 30
33.49999999999994
  0
VERTEX
  5
1B2
  8
SOLIDS
 10
-305.6625248789787
 20
92.77377778838704
 30
33.49999999999994
  0
VERTEX
  5
1B3
  8
SOLIDS
 10
-305.6911878585815
 20
92.64619076798985
 30
33.49999999999994
  0
VERTEX
  5
1B4
  8
SOLIDS
 10
-305.7228114008904
 20
92.52156431029866
 30
33.49999999999994
  0
VERTEX
  5
1B5
  8
SOLIDS
 10
-305.7574920654297
 20
92.399994974838
 30
33.49999999999994
  0
VERTEX
  5
1B6
  8
SOLIDS
 10
-305.7953192591667
 20
92.28157216857502
 30
33.49999999999994
  0
VERTEX
  5
1B7
  8
SOLIDS
 10
-305.8363752365112
 20
92.16637814591954
 30
33.49999999999994
  0
VERTEX
  5
1B8
  8
SOLIDS
 10
-305.8581377677619
 20
92.11001567717025
 30
33.49999999999994
  0
VERTEX
  5
1B9
  8
SOLIDS
 10
-305.8807350993156
 20
92.05448800872395
 30
33.49999999999994
  0
VERTEX
  5
1BA
  8
SOLIDS
 10
-305.9041755013168
 20
91.9998034107251
 30
33.49999999999994
  0
VERTEX
  5
1BB
  8
SOLIDS
 10
-305.928466796875
 20
91.94596970628331
 30
33.49999999999994
  0
VERTEX
  5
1BC
  8
SOLIDS
 10
-305.9536163620651
 20
91.89299427147338
 30
33.49999999999994
  0
VERTEX
  5
1BD
  8
SOLIDS
 10
-305.979631125927
 20
91.84088403533528
 30
33.49999999999994
  0
VERTEX
  5
1BE
  8
SOLIDS
 10
-306.0065175704658
 20
91.78964547987411
 30
33.49999999999994
  0
VERTEX
  5
1BF
  8
SOLIDS
 10
-306.0342817306519
 20
91.73928464006016
 30
33.49999999999994
  0
VERTEX
  5
1C0
  8
SOLIDS
 10
-306.0629291944206
 20
91.68980710382888
 30
33.49999999999994
  0
VERTEX
  5
1C1
  8
SOLIDS
 10
-306.0924651026726
 20
91.64121801208088
 30
33.49999999999994
  0
VERTEX
  5
1C2
  8
SOLIDS
 10
-306.1228941492736
 20
91.59352205868194
 30
33.49999999999994
  0
VERTEX
  5
1C3
  8
SOLIDS
 10
-306.1542205810547
 20
91.546723490463
 30
33.49999999999994
  0
VERTEX
  5
1C4
  8
SOLIDS
 10
-306.1864481978118
 20
91.50082610722015
 30
33.49999999999994
  0
VERTEX
  5
1C5
  8
SOLIDS
 10
-306.2195803523064
 20
91.45583326171467
 30
33.49999999999994
  0
VERTEX
  5
1C6
  8
SOLIDS
 10
-306.2536199502647
 20
91.411747859673
 30
33.49999999999994
  0
VERTEX
  5
1C7
  8
SOLIDS
 10
-306.2885694503784
 20
91.36857235978673
 30
33.49999999999994
  0
VERTEX
  5
1C8
  8
SOLIDS
 10
-306.3244308643043
 20
91.32630877371261
 30
33.49999999999994
  0
VERTEX
  5
1C9
  8
SOLIDS
 10
-306.3612057566643
 20
91.28495866607258
 30
33.49999999999994
  0
VERTEX
  5
1CA
  8
SOLIDS
 10
-306.3988952450454
 20
91.24452315445373
 30
33.49999999999994
  0
VERTEX
  5
1CB
  8
SOLIDS
 10
-306.4375
 20
91.20500290940831
 30
33.49999999999994
  0
VERTEX
  5
1CC
  8
SOLIDS
 10
-306.4770202450454
 20
91.16639815445373
 30
33.49999999999994
  0
VERTEX
  5
1CD
  8
SOLIDS
 10
-306.5174557566643
 20
91.12870866607258
 30
33.49999999999994
  0
VERTEX
  5
1CE
  8
SOLIDS
 10
-306.5588058643043
 20
91.09193377371261
 30
33.49999999999994
  0
VERTEX
  5
1CF
  8
SOLIDS
 10
-306.6010694503784
 20
91.05607235978673
 30
33.49999999999994
  0
VERTEX
  5
1D0
  8
SOLIDS
 10
-306.6442449502647
 20
91.021122859673
 30
33.49999999999994
  0
VERTEX
  5
1D1
  8
SOLIDS
 10
-306.6883303523064
 20
90.98708326171467
 30
33.49999999999994
  0
VERTEX
  5
1D2
  8
SOLIDS
 10
-306.7333231978118
 20
90.95395110722015
 30
33.49999999999994
  0
VERTEX
  5
1D3
  8
SOLIDS
 10
-306.7792205810547
 20
90.921723490463
 30
33.49999999999994
  0
VERTEX
  5
1D4
  8
SOLIDS
 10
-306.8260191492736
 20
90.89039705868194
 30
33.49999999999994
  0
VERTEX
  5
1D5
  8
SOLIDS
 10
-306.8737151026726
 20
90.85996801208088
 30
33.49999999999994
  0
VERTEX
  5
1D6
  8
SOLIDS
 10
-306.9223041944206
 20
90.83043210382888
 30
33.49999999999994
  0
VERTEX
  5
1D7
  8
SOLIDS
 10
-306.9717817306519
 20
90.80178464006016
 30
33.49999999999994
  0
VERTEX
  5
1D8
  8
SOLIDS
 10
-307.0221425704658
 20
90.77402047987411
 30
33.49999999999994
  0
VERTEX
  5
1D9
  8
SOLIDS
 10
-307.073381125927
 20
90.74713403533528
 30
33.49999999999994
  0
VERTEX
  5
1DA
  8
SOLIDS
 10
-307.1254913620651
 20
90.72111927147338
 30
33.49999999999994
  0
VERTEX
  5
1DB
  8
SOLIDS
 10
-307.178466796875
 20
90.69596970628331
 30
33.49999999999994
  0
VERTEX
  5
1DC
  8
SOLIDS
 10
-307.2323005013168
 20
90.6716784107251
 30
33.49999999999994
  0
VERTEX
  5
1DD
  8
SOLIDS
 10
-307.2869850993156
 20
90.64823800872395
 30
33.49999999999994
  0
VERTEX
  5
1DE
  8
SOLIDS
 10
-307.3425127677619
 20
90.62564067717025
 30
33.49999999999994
  0
VERTEX
  5
1DF
  8
SOLIDS
 10
-307.3988752365112
 20
90.60387814591954
 30
33.49999999999994
  0
VERTEX
  5
1E0
  8
SOLIDS
 10
-307.5140692591667
 20
90.56282216857502
 30
33.49999999999994
  0
VERTEX
  5
1E1
  8
SOLIDS
 10
-307.6324920654297
 20
90.524994974838
 30
33.49999999999994
  0
VERTEX
  5
1E2
  8
SOLIDS
 10
-307.7540614008904
 20
90.49031431029866
 30
33.49999999999994
  0
VERTEX
  5
1E3
  8
SOLIDS
 10
-307.8786878585815
 20
90.45869076798985
 30
33.49999999999994
  0
VERTEX
  5
1E4
  8
SOLIDS
 10
-308.0062748789787
 20
90.43002778838704
 30
33.49999999999994
  0
VERTEX
  5
1E5
  8
SOLIDS
 10
-308.13671875
 20
90.40422165940831
 30
33.49999999999994
  0
VERTEX
  5
1E6
  8
SOLIDS
 10
-308.2699086070061
 20
90.38116151641438
 30
33.49999999999994
  0
VERTEX
  5
1E7
  8
SOLIDS
 10
-308.4057264328003
 20
90.3607293422086
 30
33.49999999999994
  0
VERTEX
  5
1E8
  8
SOLIDS
 10
-308.5440470576286
 20
90.34279996703694
 30
33.49999999999994
  0
VERTEX
  5
1E9
  8
SOLIDS
 10
-308.6847381591797
 20
90.327241068588
 30
33.49999999999994
  0
VERTEX
  5
1EA
  8
SOLIDS
 10
-308.9726667404175
 20
90.30266964982579
 30
33.49999999999994
  0
VERTEX
  5
1EB
  8
SOLIDS
 10
-309.268310546875
 20
90.28581345628331
 30
33.49999999999994
  0
VERTEX
  5
1EC
  8
SOLIDS
 10
-309.8773651123047
 20
90.269868021713
 30
33.49999999999994
  0
VERTEX
  5
1ED
  8
SOLIDS
 10
-310.5
 20
90.26750290940831
 30
33.49999999999994
  0
VERTEX
  5
1EE
  8
SOLIDS
 10
-311.5000000000003
 20
90.2675029094083
 30
33.49999999999994
  0
VERTEX
  5
1EF
  8
SOLIDS
 10
-312.1226348876957
 20
90.26513779710359
 30
33.49999999999994
  0
VERTEX
  5
1F0
  8
SOLIDS
 10
-312.7316894531253
 20
90.24919236253328
 30
33.49999999999994
  0
VERTEX
  5
1F1
  8
SOLIDS
 10
-313.0273332595829
 20
90.2323361689908
 30
33.49999999999994
  0
VERTEX
  5
1F2
  8
SOLIDS
 10
-313.3152618408207
 20
90.20776475022859
 30
33.49999999999994
  0
VERTEX
  5
1F3
  8
SOLIDS
 10
-313.4559529423717
 20
90.19220585177962
 30
33.49999999999994
  0
VERTEX
  5
1F4
  8
SOLIDS
 10
-313.5942735672
 20
90.17427647660796
 30
33.49999999999994
  0
VERTEX
  5
1F5
  8
SOLIDS
 10
-313.7300913929943
 20
90.15384430240218
 30
33.49999999999994
  0
VERTEX
  5
1F6
  8
SOLIDS
 10
-313.8632812500003
 20
90.13078415940825
 30
33.49999999999994
  0
VERTEX
  5
1F7
  8
SOLIDS
 10
-313.9937251210216
 20
90.10497803042952
 30
33.49999999999994
  0
VERTEX
  5
1F8
  8
SOLIDS
 10
-314.1213121414188
 20
90.07631505082668
 30
33.49999999999994
  0
VERTEX
  5
1F9
  8
SOLIDS
 10
-314.24593859911
 20
90.04469150851787
 30
33.49999999999994
  0
VERTEX
  5
1FA
  8
SOLIDS
 10
-314.3675079345705
 20
90.01001084397852
 30
33.49999999999994
  0
VERTEX
  5
1FB
  8
SOLIDS
 10
-314.4859307408335
 20
89.97218365024148
 30
33.49999999999994
  0
VERTEX
  5
1FC
  8
SOLIDS
 10
-314.601124763489
 20
89.93112767289696
 30
33.49999999999994
  0
VERTEX
  5
1FD
  8
SOLIDS
 10
-314.6574872322383
 20
89.90936514164622
 30
33.49999999999994
  0
VERTEX
  5
1FE
  8
SOLIDS
 10
-314.7130149006846
 20
89.88676781009252
 30
33.49999999999994
  0
VERTEX
  5
1FF
  8
SOLIDS
 10
-314.7676994986834
 20
89.86332740809138
 30
33.49999999999994
  0
VERTEX
  5
200
  8
SOLIDS
 10
-314.8215332031252
 20
89.83903611253317
 30
33.49999999999994
  0
VERTEX
  5
201
  8
SOLIDS
 10
-314.8745086379352
 20
89.81388654734309
 30
33.49999999999994
  0
VERTEX
  5
202
  8
SOLIDS
 10
-314.9266188740733
 20
89.78787178348117
 30
33.49999999999994
  0
VERTEX
  5
203
  8
SOLIDS
 10
-314.9778574295344
 20
89.76098533894233
 30
33.49999999999994
  0
VERTEX
  5
204
  8
SOLIDS
 10
-315.0282182693484
 20
89.73322117875628
 30
33.49999999999994
  0
VERTEX
  5
205
  8
SOLIDS
 10
-315.0776958055797
 20
89.70457371498756
 30
33.49999999999994
  0
VERTEX
  5
206
  8
SOLIDS
 10
-315.1262848973277
 20
89.67503780673556
 30
33.49999999999994
  0
VERTEX
  5
207
  8
SOLIDS
 10
-315.1739808507266
 20
89.64460876013447
 30
33.49999999999994
  0
VERTEX
  5
208
  8
SOLIDS
 10
-315.2207794189455
 20
89.61328232835342
 30
33.49999999999994
  0
VERTEX
  5
209
  8
SOLIDS
 10
-315.2666768021884
 20
89.58105471159627
 30
33.49999999999994
  0
VERTEX
  5
20A
  8
SOLIDS
 10
-315.3116696476937
 20
89.54792255710174
 30
33.49999999999994
  0
VERTEX
  5
20B
  8
SOLIDS
 10
-315.3557550497354
 20
89.51388295914342
 30
33.49999999999994
  0
VERTEX
  5
20C
  8
SOLIDS
 10
-315.3989305496217
 20
89.47893345902969
 30
33.49999999999994
  0
VERTEX
  5
20D
  8
SOLIDS
 10
-315.4411941356958
 20
89.4430720451038
 30
33.49999999999994
  0
VERTEX
  5
20E
  8
SOLIDS
 10
-315.4825442433358
 20
89.40629715274383
 30
33.49999999999994
  0
VERTEX
  5
20F
  8
SOLIDS
 10
-315.5229797549547
 20
89.36860766436268
 30
33.49999999999994
  0
VERTEX
  5
210
  8
SOLIDS
 10
-315.5625000000001
 20
89.3300029094081
 30
33.49999999999994
  0
VERTEX
  5
211
  8
SOLIDS
 10
-315.6011047549547
 20
89.29048266436266
 30
33.49999999999994
  0
VERTEX
  5
212
  8
SOLIDS
 10
-315.6387942433358
 20
89.2500471527438
 30
33.49999999999994
  0
VERTEX
  5
213
  8
SOLIDS
 10
-315.6755691356958
 20
89.20869704510378
 30
33.49999999999994
  0
VERTEX
  5
214
  8
SOLIDS
 10
-315.7114305496217
 20
89.16643345902966
 30
33.49999999999994
  0
VERTEX
  5
215
  8
SOLIDS
 10
-315.7463800497354
 20
89.12325795914339
 30
33.49999999999994
  0
VERTEX
  5
216
  8
SOLIDS
 10
-315.7804196476937
 20
89.07917255710171
 30
33.49999999999994
  0
VERTEX
  5
217
  8
SOLIDS
 10
-315.8135518021882
 20
89.03417971159624
 30
33.49999999999994
  0
VERTEX
  5
218
  8
SOLIDS
 10
-315.8457794189453
 20
88.98828232835339
 30
33.49999999999994
  0
VERTEX
  5
219
  8
SOLIDS
 10
-315.8771058507264
 20
88.94148376013445
 30
33.49999999999994
  0
VERTEX
  5
21A
  8
SOLIDS
 10
-315.9075348973274
 20
88.89378780673547
 30
33.49999999999994
  0
VERTEX
  5
21B
  8
SOLIDS
 10
-315.9370708055794
 20
88.84519871498748
 30
33.49999999999994
  0
VERTEX
  5
21C
  8
SOLIDS
 10
-315.9657182693481
 20
88.7957211787562
 30
33.49999999999994
  0
VERTEX
  5
21D
  8
SOLIDS
 10
-315.9934824295342
 20
88.74536033894225
 30
33.49999999999994
  0
VERTEX
  5
21E
  8
SOLIDS
 10
-316.020368874073
 20
88.69412178348108
 30
33.49999999999994
  0
VERTEX
  5
21F
  8
SOLIDS
 10
-316.0463836379349
 20
88.64201154734297
 30
33.49999999999994
  0
VERTEX
  5
220
  8
SOLIDS
 10
-316.071533203125
 20
88.58903611253305
 30
33.49999999999994
  0
VERTEX
  5
221
  8
SOLIDS
 10
-316.0958244986832
 20
88.53520240809127
 30
33.49999999999994
  0
VERTEX
  5
222
  8
SOLIDS
 10
-316.1192649006844
 20
88.48051781009241
 30
33.49999999999994
  0
VERTEX
  5
223
  8
SOLIDS
 10
-316.1418622322381
 20
88.4249901416461
 30
33.49999999999994
  0
VERTEX
  5
224
  8
SOLIDS
 10
-316.1636247634887
 20
88.36862767289682
 30
33.49999999999994
  0
VERTEX
  5
225
  8
SOLIDS
 10
-316.2046807408332
 20
88.25343365024133
 30
33.49999999999994
  0
VERTEX
  5
226
  8
SOLIDS
 10
-316.2425079345702
 20
88.13501084397836
 30
33.49999999999994
  0
VERTEX
  5
227
  8
SOLIDS
 10
-316.2771885991095
 20
88.01344150851773
 30
33.49999999999994
  0
VERTEX
  5
228
  8
SOLIDS
 10
-316.3088121414183
 20
87.88881505082654
 30
33.49999999999994
  0
VERTEX
  5
229
  8
SOLIDS
 10
-316.3374751210212
 20
87.76122803042935
 30
33.49999999999994
  0
VERTEX
  5
22A
  8
SOLIDS
 10
-316.3632812499999
 20
87.6307841594081
 30
33.49999999999994
  0
VERTEX
  5
22B
  8
SOLIDS
 10
-316.3863413929938
 20
87.49759430240204
 30
33.49999999999994
  0
VERTEX
  5
22C
  8
SOLIDS
 10
-316.4067735671996
 20
87.36177647660782
 30
33.49999999999994
  0
VERTEX
  5
22D
  8
SOLIDS
 10
-316.4247029423713
 20
87.22345585177948
 30
33.49999999999994
  0
VERTEX
  5
22E
  8
SOLIDS
 10
-316.4402618408202
 20
87.08276475022845
 30
33.49999999999994
  0
VERTEX
  5
22F
  8
SOLIDS
 10
-316.4648332595824
 20
86.79483616899068
 30
33.49999999999994
  0
VERTEX
  5
230
  8
SOLIDS
 10
-316.4816894531249
 20
86.4991923625332
 30
33.49999999999994
  0
VERTEX
  5
231
  8
SOLIDS
 10
-316.4976348876952
 20
85.8901377971036
 30
33.49999999999994
  0
VERTEX
  5
232
  8
SOLIDS
 10
-316.4999999999999
 20
85.26750290940839
 30
33.49999999999994
  0
VERTEX
  5
233
  8
SOLIDS
 10
-316.5000000000001
 20
61.0
 30
33.49999999999994
  0
VERTEX
  5
234
  8
SOLIDS
 10
-324.5
 20
61.0
 30
33.49999999999994
  0
VERTEX
  5
235
  8
SOLIDS
 10
-324.5
 20
64.00000000000007
 30
33.49999999999994
  0
VERTEX
  5
236
  8
SOLIDS
 10
-332.5
 20
64.00000000000006
 30
33.49999999999994
  0
VERTEX
  5
237
  8
SOLIDS
 10
-332.5
 20
61.00000000000003
 30
33.49999999999994
  0
VERTEX
  5
238
  8
SOLIDS
 10
-340.5
 20
61.00000000000002
 30
33.49999999999994
  0
VERTEX
  5
239
  8
SOLIDS
 10
-340.5
 20
64.00000000000004
 30
33.49999999999994
  0
VERTEX
  5
23A
  8
SOLIDS
 10
-348.5
 20
64.00000000000003
 30
33.49999999999994
  0
VERTEX
  5
23B
  8
SOLIDS
 10
-348.5
 20
61.00000000000001
 30
33.49999999999994
  0
VERTEX
  5
23C
  8
SOLIDS
 10
-356.5
 20
61.00000000000001
 30
33.49999999999994
  0
VERTEX
  5
23D
  8
SOLIDS
 10
-356.5
 20
64.00000000000001
 30
33.49999999999994
  0
VERTEX
  5
23E
  8
SOLIDS
 10
-364.5
 20
64.0
 30
33.49999999999994
  0
VERTEX
  5
23F
  8
SOLIDS
 10
-364.5
 20
61.0
 30
33.49999999999994
  0
VERTEX
  5
240
  8
SOLIDS
 10
-372.5
 20
60.99999999999999
 30
33.49999999999994
  0
VERTEX
  5
241
  8
SOLIDS
 10
-372.5
 20
69.0
 30
33.49999999999994
  0
VERTEX
  5
242
  8
SOLIDS
 10
-369.5
 20
69.0
 30
33.49999999999994
  0
VERTEX
  5
243
  8
SOLIDS
 10
-369.5
 20
77.0
 30
33.49999999999994
  0
VERTEX
  5
244
  8
SOLIDS
 10
-372.5
 20
77.0
 30
33.49999999999994
  0
VERTEX
  5
245
  8
SOLIDS
 10
-372.5
 20
85.0
 30
33.49999999999994
  0
VERTEX
  5
246
  8
SOLIDS
 10
-369.5
 20
85.0
 30
33.49999999999994
  0
VERTEX
  5
247
  8
SOLIDS
 10
-369.5
 20
93.0
 30
33.49999999999994
  0
VERTEX
  5
248
  8
SOLIDS
 10
-372.5
 20
93.0
 30
33.49999999999994
  0
VERTEX
  5
249
  8
SOLIDS
 10
-372.5
 20
101.0
 30
33.49999999999994
  0
VERTEX
  5
24A
  8
SOLIDS
 10
-369.5000000000001
 20
101.0
 30
33.49999999999994
  0
VERTEX
  5
24B
  8
SOLIDS
 10
-369.5000000000001
 20
109.0
 30
33.49999999999994
  0
VERTEX
  5
24C
  8
SOLIDS
 10
-372.5
 20
109.0
 30
33.49999999999994
  0
VERTEX
  5
24D
  8
SOLIDS
 10
-372.5
 20
117.0
 30
33.49999999999994
  0
VERTEX
  5
24E
  8
SOLIDS
 10
-364.5
 20
117.0
 30
33.49999999999994
  0
VERTEX
  5
24F
  8
SOLIDS
 10
-364.5
 20
114.0
 30
33.49999999999994
  0
VERTEX
  5
250
  8
SOLIDS
 10
-356.5
 20
114.0
 30
33.49999999999994
  0
VERTEX
  5
251
  8
SOLIDS
 10
-356.5
 20
117.0
 30
33.49999999999994
  0
VERTEX
  5
252
  8
SOLIDS
 10
-348.5
 20
117.0
 30
33.49999999999994
  0
VERTEX
  5
253
  8
SOLIDS
 10
-348.5
 20
114.0
 30
33.49999999999994
  0
VERTEX
  5
254
  8
SOLIDS
 10
-340.5
 20
114.0
 30
33.49999999999994
  0
VERTEX
  5
255
  8
SOLIDS
 10
-340.5
 20
117.0
 30
33.49999999999994
  0
VERTEX
  5
256
  8
SOLIDS
 10
-332.5
 20
117.0
 30
33.49999999999994
  0
VERTEX
  5
257
  8
SOLIDS
 10
-332.5
 20
114.0
 30
33.49999999999994
  0
VERTEX
  5
258
  8
SOLIDS
 10
-324.5
 20
114.0
 30
33.49999999999994
  0
VERTEX
  5
259
  8
SOLIDS
 10
-324.5
 20
117.0
 30
33.49999999999994
  0
SEQEND
  5
25A
  8
SOLIDS
  0
POLYLINE
  5
25B
  8
SOLIDS
 66
     1
 10
0.0
 20
0.0
 30
33.49999999999995
 70
     1
  0
VERTEX
  5
25C
  8
SOLIDS
 10
-344.3441556863551
 20
101.0000000000723
 30
33.49999999999995
  0
VERTEX
  5
25D
  8
SOLIDS
 10
-345.3000000000001
 20
101.0000000000723
 30
33.49999999999995
 42
-0.9999999999999999
  0
VERTEX
  5
25E
  8
SOLIDS
 10
-345.3000000000001
 20
106.0000000000723
 30
33.49999999999995
  0
VERTEX
  5
25F
  8
SOLIDS
 10
-344.3441556863551
 20
106.0000000000723
 30
33.49999999999995
 42
-4.497662274542252
  0
SEQEND
  5
260
  8
SOLIDS
  0
POLYLINE
  5
261
  8
SOLIDS
 66
     1
 10
0.0
 20
0.0
 30
57.50000000000171
 70
     1
  0
VERTEX
  5
262
  8
SOLIDS
 10
-433.4710635302997
 20
140.0500000000008
 30
57.50000000000171
  0
VERTEX
  5
263
  8
SOLIDS
 10
-432.4710635302997
 20
141.0500000000008
 30
57.50000000000171
  0
VERTEX
  5
264
  8
SOLIDS
 10
-427.5289364697003
 20
141.0500000000008
 30
57.50000000000171
  0
VERTEX
  5
265
  8
SOLIDS
 10
-426.5289364697003
 20
140.0500000000008
 30
57.50000000000171
  0
VERTEX
  5
266
  8
SOLIDS
 10
-426.5289364697003
 20
136.5500000000008
 30
57.50000000000171
  0
VERTEX
  5
267
  8
SOLIDS
 10
-424.5289364697003
 20
136.5500000000008
 30
57.50000000000171
  0
VERTEX
  5
268
  8
SOLIDS
 10
-424.5289364697003
 20
134.5500000000008
 30
57.50000000000171
  0
VERTEX
  5
269
  8
SOLIDS
 10
-425.5289364697003
 20
133.5500000000008
 30
57.50000000000171
  0
VERTEX
  5
26A
  8
SOLIDS
 10
-426.5289364697003
 20
133.5500000000008
 30
57.50000000000171
  0
VERTEX
  5
26B
  8
SOLIDS
 10
-426.5289364697003
 20
129.0500000000008
 30
57.50000000000171
  0
VERTEX
  5
26C
  8
SOLIDS
 10
-428.5000000000017
 20
129.0500000000008
 30
57.50000000000171
  0
VERTEX
  5
26D
  8
SOLIDS
 10
-428.5000000000017
 20
135.0500000000008
 30
57.50000000000171
  0
VERTEX
  5
26E
  8
SOLIDS
 10
-431.5000000000017
 20
135.0500000000008
 30
57.50000000000171
  0
VERTEX
  5
26F
  8
SOLIDS
 10
-431.5000000000017
 20
129.0500000000008
 30
57.50000000000171
  0
VERTEX
  5
270
  8
SOLIDS
 10
-433.4710635302997
 20
129.0500000000008
 30
57.50000000000171
  0
VERTEX
  5
271
  8
SOLIDS
 10
-433.4710635302997
 20
133.5500000000008
 30
57.50000000000171
  0
VERTEX
  5
272
  8
SOLIDS
 10
-434.4710635302997
 20
133.5500000000008
 30
57.50000000000171
  0
VERTEX
  5
273
  8
SOLIDS
 10
-435.4710635302997
 20
134.5500000000008
 30
57.50000000000171
  0
VERTEX
  5
274
  8
SOLIDS
 10
-435.4710635302997
 20
136.5500000000008
 30
57.50000000000171
  0
VERTEX
  5
275
  8
SOLIDS
 10
-433.4710635302997
 20
136.5500000000008
 30
57.50000000000171
  0
SEQEND
  5
276
  8
SOLIDS
  0
POLYLINE
  5
277
  8
SOLIDS
 66
     1
 10
0.0
 20
0.0
 30
33.50000000000001
 70
     1
  0
VERTEX
  5
278
  8
SOLIDS
 10
-432.4375000150963
 20
174.9374999849039
 30
33.50000000000001
  0
VERTEX
  5
279
  8
SOLIDS
 10
-431.814865127401
 20
174.9351348725992
 30
33.50000000000001
  0
VERTEX
  5
27A
  8
SOLIDS
 10
-431.2058105619714
 20
174.9191894380289
 30
33.50000000000001
  0
VERTEX
  5
27B
  8
SOLIDS
 10
-430.9101667555138
 20
174.9023332444864
 30
33.50000000000001
  0
VERTEX
  5
27C
  8
SOLIDS
 10
-430.622238174276
 20
174.8777618257242
 30
33.50000000000001
  0
VERTEX
  5
27D
  8
SOLIDS
 10
-430.481547072725
 20
174.8622029272753
 30
33.50000000000001
  0
VERTEX
  5
27E
  8
SOLIDS
 10
-430.3432264478967
 20
174.8442735521036
 30
33.50000000000001
  0
VERTEX
  5
27F
  8
SOLIDS
 10
-430.2074086221024
 20
174.8238413778978
 30
33.50000000000001
  0
VERTEX
  5
280
  8
SOLIDS
 10
-430.0742187650964
 20
174.8007812349039
 30
33.50000000000001
  0
VERTEX
  5
281
  8
SOLIDS
 10
-429.9437748940751
 20
174.7749751059252
 30
33.50000000000001
  0
VERTEX
  5
282
  8
SOLIDS
 10
-429.8161878736779
 20
174.7463121263224
 30
33.50000000000001
  0
VERTEX
  5
283
  8
SOLIDS
 10
-429.6915614159867
 20
174.7146885840136
 30
33.50000000000001
  0
VERTEX
  5
284
  8
SOLIDS
 10
-429.569992080526
 20
174.6800079194742
 30
33.50000000000001
  0
VERTEX
  5
285
  8
SOLIDS
 10
-429.4515692742631
 20
174.6421807257372
 30
33.50000000000001
  0
VERTEX
  5
286
  8
SOLIDS
 10
-429.3363752516076
 20
174.6011247483927
 30
33.50000000000001
  0
VERTEX
  5
287
  8
SOLIDS
 10
-429.2800127828583
 20
174.579362217142
 30
33.50000000000001
  0
VERTEX
  5
288
  8
SOLIDS
 10
-429.224485114412
 20
174.5567648855883
 30
33.50000000000001
  0
VERTEX
  5
289
  8
SOLIDS
 10
-429.1698005164131
 20
174.5333244835871
 30
33.50000000000001
  0
VERTEX
  5
28A
  8
SOLIDS
 10
-429.1159668119714
 20
174.5090331880289
 30
33.50000000000001
  0
VERTEX
  5
28B
  8
SOLIDS
 10
-429.0629913771614
 20
174.4838836228388
 30
33.50000000000001
  0
VERTEX
  5
28C
  8
SOLIDS
 10
-429.0108811410233
 20
174.457868858977
 30
33.50000000000001
  0
VERTEX
  5
28D
  8
SOLIDS
 10
-428.9596425855622
 20
174.4309824144381
 30
33.50000000000001
  0
VERTEX
  5
28E
  8
SOLIDS
 10
-428.9092817457482
 20
174.4032182542521
 30
33.50000000000001
  0
VERTEX
  5
28F
  8
SOLIDS
 10
-428.8598042095169
 20
174.3745707904834
 30
33.50000000000001
  0
VERTEX
  5
290
  8
SOLIDS
 10
-428.8112151177689
 20
174.3450348822314
 30
33.50000000000001
  0
VERTEX
  5
291
  8
SOLIDS
 10
-428.76351916437
 20
174.3146058356303
 30
33.50000000000001
  0
VERTEX
  5
292
  8
SOLIDS
 10
-428.716720596151
 20
174.2832794038493
 30
33.50000000000001
  0
VERTEX
  5
293
  8
SOLIDS
 10
-428.6708232129082
 20
174.2510517870921
 30
33.50000000000001
  0
VERTEX
  5
294
  8
SOLIDS
 10
-428.6258303674027
 20
174.2179196325976
 30
33.50000000000001
  0
VERTEX
  5
295
  8
SOLIDS
 10
-428.5817449653611
 20
174.1838800346393
 30
33.50000000000001
  0
VERTEX
  5
296
  8
SOLIDS
 10
-428.5385694654748
 20
174.1489305345256
 30
33.50000000000001
  0
VERTEX
  5
297
  8
SOLIDS
 10
-428.4963058794007
 20
174.1130691205997
 30
33.50000000000001
  0
VERTEX
  5
298
  8
SOLIDS
 10
-428.4549557717606
 20
174.0762942282397
 30
33.50000000000001
  0
VERTEX
  5
299
  8
SOLIDS
 10
-428.4145202601418
 20
174.0386047398586
 30
33.50000000000001
  0
VERTEX
  5
29A
  8
SOLIDS
 10
-428.3750000150963
 20
173.999999984904
 30
33.50000000000001
  0
VERTEX
  5
29B
  8
SOLIDS
 10
-428.3363952601417
 20
173.9604797398586
 30
33.50000000000001
  0
VERTEX
  5
29C
  8
SOLIDS
 10
-428.2987057717605
 20
173.9200442282397
 30
33.50000000000001
  0
VERTEX
  5
29D
  8
SOLIDS
 10
-428.2619308794006
 20
173.8786941205997
 30
33.50000000000001
  0
VERTEX
  5
29E
  8
SOLIDS
 10
-428.2260694654747
 20
173.8364305345256
 30
33.50000000000001
  0
VERTEX
  5
29F
  8
SOLIDS
 10
-428.1911199653609
 20
173.7932550346393
 30
33.50000000000001
  0
VERTEX
  5
2A0
  8
SOLIDS
 10
-428.1570803674026
 20
173.7491696325976
 30
33.50000000000001
  0
VERTEX
  5
2A1
  8
SOLIDS
 10
-428.1239482129081
 20
173.7041767870921
 30
33.50000000000001
  0
VERTEX
  5
2A2
  8
SOLIDS
 10
-428.0917205961509
 20
173.6582794038493
 30
33.50000000000001
  0
VERTEX
  5
2A3
  8
SOLIDS
 10
-428.0603941643699
 20
173.6114808356303
 30
33.50000000000001
  0
VERTEX
  5
2A4
  8
SOLIDS
 10
-428.0299651177688
 20
173.5637848822314
 30
33.50000000000001
  0
VERTEX
  5
2A5
  8
SOLIDS
 10
-428.0004292095168
 20
173.5151957904834
 30
33.50000000000001
  0
VERTEX
  5
2A6
  8
SOLIDS
 10
-427.9717817457481
 20
173.4657182542521
 30
33.50000000000001
  0
VERTEX
  5
2A7
  8
SOLIDS
 10
-427.9440175855621
 20
173.4153574144382
 30
33.50000000000001
  0
VERTEX
  5
2A8
  8
SOLIDS
 10
-427.9171311410232
 20
173.3641188589771
 30
33.50000000000001
  0
VERTEX
  5
2A9
  8
SOLIDS
 10
-427.8911163771613
 20
173.312008622839
 30
33.50000000000001
  0
VERTEX
  5
2AA
  8
SOLIDS
 10
-427.8659668119712
 20
173.259033188029
 30
33.50000000000001
  0
VERTEX
  5
2AB
  8
SOLIDS
 10
-427.841675516413
 20
173.2051994835873
 30
33.50000000000001
  0
VERTEX
  5
2AC
  8
SOLIDS
 10
-427.8182351144119
 20
173.1505148855884
 30
33.50000000000001
  0
VERTEX
  5
2AD
  8
SOLIDS
 10
-427.7956377828582
 20
173.0949872171421
 30
33.50000000000001
  0
VERTEX
  5
2AE
  8
SOLIDS
 10
-427.7738752516075
 20
173.0386247483928
 30
33.50000000000001
  0
VERTEX
  5
2AF
  8
SOLIDS
 10
-427.732819274263
 20
172.9234307257373
 30
33.50000000000001
  0
VERTEX
  5
2B0
  8
SOLIDS
 10
-427.6949920805259
 20
172.8050079194743
 30
33.50000000000001
  0
VERTEX
  5
2B1
  8
SOLIDS
 10
-427.6603114159866
 20
172.6834385840137
 30
33.50000000000001
  0
VERTEX
  5
2B2
  8
SOLIDS
 10
-427.6286878736778
 20
172.5588121263225
 30
33.50000000000001
  0
VERTEX
  5
2B3
  8
SOLIDS
 10
-427.600024894075
 20
172.4312251059253
 30
33.50000000000001
  0
VERTEX
  5
2B4
  8
SOLIDS
 10
-427.5742187650962
 20
172.300781234904
 30
33.50000000000001
  0
VERTEX
  5
2B5
  8
SOLIDS
 10
-427.5511586221023
 20
172.167591377898
 30
33.50000000000001
  0
VERTEX
  5
2B6
  8
SOLIDS
 10
-427.5307264478965
 20
172.0317735521037
 30
33.50000000000001
  0
VERTEX
  5
2B7
  8
SOLIDS
 10
-427.5127970727249
 20
171.8934529272754
 30
33.50000000000001
  0
VERTEX
  5
2B8
  8
SOLIDS
 10
-427.4972381742759
 20
171.7527618257243
 30
33.50000000000001
  0
VERTEX
  5
2B9
  8
SOLIDS
 10
-427.4726667555137
 20
171.4648332444866
 30
33.50000000000001
  0
VERTEX
  5
2BA
  8
SOLIDS
 10
-427.4558105619712
 20
171.169189438029
 30
33.50000000000001
  0
VERTEX
  5
2BB
  8
SOLIDS
 10
-427.4398651274009
 20
170.5601348725993
 30
33.50000000000001
  0
VERTEX
  5
2BC
  8
SOLIDS
 10
-427.4375000150962
 20
169.937499984904
 30
33.50000000000001
  0
VERTEX
  5
2BD
  8
SOLIDS
 10
-427.4375000150962
 20
153.2050028943122
 30
33.50000000000001
  0
VERTEX
  5
2BE
  8
SOLIDS
 10
-427.4398651274009
 20
152.5823680066169
 30
33.50000000000001
  0
VERTEX
  5
2BF
  8
SOLIDS
 10
-427.4558105619712
 20
151.9733134411873
 30
33.50000000000001
  0
VERTEX
  5
2C0
  8
SOLIDS
 10
-427.4726667555137
 20
151.6776696347297
 30
33.50000000000001
  0
VERTEX
  5
2C1
  8
SOLIDS
 10
-427.4972381742759
 20
151.3897410534919
 30
33.50000000000001
  0
VERTEX
  5
2C2
  8
SOLIDS
 10
-427.5127970727249
 20
151.2490499519409
 30
33.50000000000001
  0
VERTEX
  5
2C3
  8
SOLIDS
 10
-427.5307264478965
 20
151.1107293271126
 30
33.50000000000001
  0
VERTEX
  5
2C4
  8
SOLIDS
 10
-427.5511586221023
 20
150.9749115013183
 30
33.50000000000001
  0
VERTEX
  5
2C5
  8
SOLIDS
 10
-427.5742187650962
 20
150.8417216443123
 30
33.50000000000001
  0
VERTEX
  5
2C6
  8
SOLIDS
 10
-427.600024894075
 20
150.711277773291
 30
33.50000000000001
  0
VERTEX
  5
2C7
  8
SOLIDS
 10
-427.6286878736778
 20
150.5836907528938
 30
33.50000000000001
  0
VERTEX
  5
2C8
  8
SOLIDS
 10
-427.6603114159866
 20
150.4590642952026
 30
33.50000000000001
  0
VERTEX
  5
2C9
  8
SOLIDS
 10
-427.6949920805259
 20
150.3374949597419
 30
33.50000000000001
  0
VERTEX
  5
2CA
  8
SOLIDS
 10
-427.732819274263
 20
150.219072153479
 30
33.50000000000001
  0
VERTEX
  5
2CB
  8
SOLIDS
 10
-427.7738752516075
 20
150.1038781308235
 30
33.50000000000001
  0
VERTEX
  5
2CC
  8
SOLIDS
 10
-427.7956377828582
 20
150.0475156620742
 30
33.50000000000001
  0
VERTEX
  5
2CD
  8
SOLIDS
 10
-427.8182351144119
 20
149.9919879936279
 30
33.50000000000001
  0
VERTEX
  5
2CE
  8
SOLIDS
 10
-427.841675516413
 20
149.937303395629
 30
33.50000000000001
  0
VERTEX
  5
2CF
  8
SOLIDS
 10
-427.8659668119712
 20
149.8834696911873
 30
33.50000000000001
  0
VERTEX
  5
2D0
  8
SOLIDS
 10
-427.8911163771613
 20
149.8304942563773
 30
33.50000000000001
  0
VERTEX
  5
2D1
  8
SOLIDS
 10
-427.9171311410232
 20
149.7783840202392
 30
33.50000000000001
  0
VERTEX
  5
2D2
  8
SOLIDS
 10
-427.9440175855621
 20
149.7271454647781
 30
33.50000000000001
  0
VERTEX
  5
2D3
  8
SOLIDS
 10
-427.9717817457481
 20
149.6767846249641
 30
33.50000000000001
  0
VERTEX
  5
2D4
  8
SOLIDS
 10
-428.0004292095168
 20
149.6273070887328
 30
33.50000000000001
  0
VERTEX
  5
2D5
  8
SOLIDS
 10
-428.0299651177688
 20
149.5787179969848
 30
33.50000000000001
  0
VERTEX
  5
2D6
  8
SOLIDS
 10
-428.0603941643699
 20
149.5310220435859
 30
33.50000000000001
  0
VERTEX
  5
2D7
  8
SOLIDS
 10
-428.0917205961509
 20
149.4842234753669
 30
33.50000000000001
  0
VERTEX
  5
2D8
  8
SOLIDS
 10
-428.1239482129081
 20
149.4383260921241
 30
33.50000000000001
  0
VERTEX
  5
2D9
  8
SOLIDS
 10
-428.1570803674026
 20
149.3933332466186
 30
33.50000000000001
  0
VERTEX
  5
2DA
  8
SOLIDS
 10
-428.1911199653609
 20
149.349247844577
 30
33.50000000000001
  0
VERTEX
  5
2DB
  8
SOLIDS
 10
-428.2260694654747
 20
149.3060723446907
 30
33.50000000000001
  0
VERTEX
  5
2DC
  8
SOLIDS
 10
-428.2619308794006
 20
149.2638087586166
 30
33.50000000000001
  0
VERTEX
  5
2DD
  8
SOLIDS
 10
-428.2987057717605
 20
149.2224586509765
 30
33.50000000000001
  0
VERTEX
  5
2DE
  8
SOLIDS
 10
-428.3363952601417
 20
149.1820231393577
 30
33.50000000000001
  0
VERTEX
  5
2DF
  8
SOLIDS
 10
-428.3750000150962
 20
149.1425028943122
 30
33.50000000000001
  0
VERTEX
  5
2E0
  8
SOLIDS
 10
-428.4145202601417
 20
149.1038981393576
 30
33.50000000000001
  0
VERTEX
  5
2E1
  8
SOLIDS
 10
-428.4549557717605
 20
149.0662086509765
 30
33.50000000000001
  0
VERTEX
  5
2E2
  8
SOLIDS
 10
-428.4963058794006
 20
149.0294337586165
 30
33.50000000000001
  0
VERTEX
  5
2E3
  8
SOLIDS
 10
-428.5385694654747
 20
148.9935723446906
 30
33.50000000000001
  0
VERTEX
  5
2E4
  8
SOLIDS
 10
-428.5817449653609
 20
148.9586228445769
 30
33.50000000000001
  0
VERTEX
  5
2E5
  8
SOLIDS
 10
-428.6258303674026
 20
148.9245832466186
 30
33.50000000000001
  0
VERTEX
  5
2E6
  8
SOLIDS
 10
-428.6708232129081
 20
148.891451092124
 30
33.50000000000001
  0
VERTEX
  5
2E7
  8
SOLIDS
 10
-428.7167205961509
 20
148.8592234753669
 30
33.50000000000001
  0
VERTEX
  5
2E8
  8
SOLIDS
 10
-428.7635191643699
 20
148.8278970435858
 30
33.50000000000001
  0
VERTEX
  5
2E9
  8
SOLIDS
 10
-428.8112151177688
 20
148.7974679969848
 30
33.50000000000001
  0
VERTEX
  5
2EA
  8
SOLIDS
 10
-428.8598042095168
 20
148.7679320887328
 30
33.50000000000001
  0
VERTEX
  5
2EB
  8
SOLIDS
 10
-428.9092817457481
 20
148.7392846249641
 30
33.50000000000001
  0
VERTEX
  5
2EC
  8
SOLIDS
 10
-428.9596425855621
 20
148.711520464778
 30
33.50000000000001
  0
VERTEX
  5
2ED
  8
SOLIDS
 10
-429.0108811410232
 20
148.6846340202392
 30
33.50000000000001
  0
VERTEX
  5
2EE
  8
SOLIDS
 10
-429.0629913771613
 20
148.6586192563773
 30
33.50000000000001
  0
VERTEX
  5
2EF
  8
SOLIDS
 10
-429.1159668119712
 20
148.6334696911872
 30
33.50000000000001
  0
VERTEX
  5
2F0
  8
SOLIDS
 10
-429.169800516413
 20
148.609178395629
 30
33.50000000000001
  0
VERTEX
  5
2F1
  8
SOLIDS
 10
-429.2244851144119
 20
148.5857379936278
 30
33.50000000000001
  0
VERTEX
  5
2F2
  8
SOLIDS
 10
-429.2800127828582
 20
148.5631406620741
 30
33.50000000000001
  0
VERTEX
  5
2F3
  8
SOLIDS
 10
-429.3363752516075
 20
148.5413781308234
 30
33.50000000000001
  0
VERTEX
  5
2F4
  8
SOLIDS
 10
-429.451569274263
 20
148.5003221534789
 30
33.50000000000001
  0
VERTEX
  5
2F5
  8
SOLIDS
 10
-429.5699920805259
 20
148.4624949597419
 30
33.50000000000001
  0
VERTEX
  5
2F6
  8
SOLIDS
 10
-429.6915614159866
 20
148.4278142952026
 30
33.50000000000001
  0
VERTEX
  5
2F7
  8
SOLIDS
 10
-429.8161878736778
 20
148.3961907528937
 30
33.50000000000001
  0
VERTEX
  5
2F8
  8
SOLIDS
 10
-429.943774894075
 20
148.3675277732909
 30
33.50000000000001
  0
VERTEX
  5
2F9
  8
SOLIDS
 10
-430.0742187650962
 20
148.3417216443122
 30
33.50000000000001
  0
VERTEX
  5
2FA
  8
SOLIDS
 10
-430.2074086221023
 20
148.3186615013183
 30
33.50000000000001
  0
VERTEX
  5
2FB
  8
SOLIDS
 10
-430.3432264478965
 20
148.2982293271125
 30
33.50000000000001
  0
VERTEX
  5
2FC
  8
SOLIDS
 10
-430.4815470727249
 20
148.2802999519408
 30
33.50000000000001
  0
VERTEX
  5
2FD
  8
SOLIDS
 10
-430.6222381742759
 20
148.2647410534919
 30
33.50000000000001
  0
VERTEX
  5
2FE
  8
SOLIDS
 10
-430.9101667555137
 20
148.2401696347297
 30
33.50000000000001
  0
VERTEX
  5
2FF
  8
SOLIDS
 10
-431.2058105619712
 20
148.2233134411872
 30
33.50000000000001
  0
VERTEX
  5
300
  8
SOLIDS
 10
-431.8148651274009
 20
148.2073680066169
 30
33.50000000000001
  0
VERTEX
  5
301
  8
SOLIDS
 10
-432.4375000150962
 20
148.2050028943122
 30
33.50000000000001
  0
VERTEX
  5
302
  8
SOLIDS
 10
-433.4375000150965
 20
148.2050028943122
 30
33.50000000000001
  0
VERTEX
  5
303
  8
SOLIDS
 10
-434.0601349027918
 20
148.2026377820075
 30
33.50000000000001
  0
VERTEX
  5
304
  8
SOLIDS
 10
-434.6691894682215
 20
148.1866923474372
 30
33.50000000000001
  0
VERTEX
  5
305
  8
SOLIDS
 10
-434.964833274679
 20
148.1698361538947
 30
33.50000000000001
  0
VERTEX
  5
306
  8
SOLIDS
 10
-435.2527618559168
 20
148.1452647351325
 30
33.50000000000001
  0
VERTEX
  5
307
  8
SOLIDS
 10
-435.3934529574678
 20
148.1297058366836
 30
33.50000000000001
  0
VERTEX
  5
308
  8
SOLIDS
 10
-435.5317735822962
 20
148.1117764615119
 30
33.50000000000001
  0
VERTEX
  5
309
  8
SOLIDS
 10
-435.6675914080904
 20
148.0913442873061
 30
33.50000000000001
  0
VERTEX
  5
30A
  8
SOLIDS
 10
-435.8007812650965
 20
148.0682841443122
 30
33.50000000000001
  0
VERTEX
  5
30B
  8
SOLIDS
 10
-435.9312251361177
 20
148.0424780153334
 30
33.50000000000001
  0
VERTEX
  5
30C
  8
SOLIDS
 10
-436.0588121565149
 20
148.0138150357306
 30
33.50000000000001
  0
VERTEX
  5
30D
  8
SOLIDS
 10
-436.1834386142061
 20
147.9821914934218
 30
33.50000000000001
  0
VERTEX
  5
30E
  8
SOLIDS
 10
-436.3050079496668
 20
147.9475108288825
 30
33.50000000000001
  0
VERTEX
  5
30F
  8
SOLIDS
 10
-436.4234307559298
 20
147.9096836351454
 30
33.50000000000001
  0
VERTEX
  5
310
  8
SOLIDS
 10
-436.5386247785852
 20
147.8686276578009
 30
33.50000000000001
  0
VERTEX
  5
311
  8
SOLIDS
 10
-436.5949872473344
 20
147.8468651265501
 30
33.50000000000001
  0
VERTEX
  5
312
  8
SOLIDS
 10
-436.6505149157807
 20
147.8242677949964
 30
33.50000000000001
  0
VERTEX
  5
313
  8
SOLIDS
 10
-436.7051995137796
 20
147.8008273929953
 30
33.50000000000001
  0
VERTEX
  5
314
  8
SOLIDS
 10
-436.7590332182214
 20
147.7765360974371
 30
33.50000000000001
  0
VERTEX
  5
315
  8
SOLIDS
 10
-436.8120086530313
 20
147.751386532247
 30
33.50000000000001
  0
VERTEX
  5
316
  8
SOLIDS
 10
-436.8641188891694
 20
147.7253717683851
 30
33.50000000000001
  0
VERTEX
  5
317
  8
SOLIDS
 10
-436.9153574446306
 20
147.6984853238463
 30
33.50000000000001
  0
VERTEX
  5
318
  8
SOLIDS
 10
-436.9657182844445
 20
147.6707211636602
 30
33.50000000000001
  0
VERTEX
  5
319
  8
SOLIDS
 10
-437.0151958206758
 20
147.6420736998915
 30
33.50000000000001
  0
VERTEX
  5
31A
  8
SOLIDS
 10
-437.0637849124238
 20
147.6125377916395
 30
33.50000000000001
  0
VERTEX
  5
31B
  8
SOLIDS
 10
-437.1114808658227
 20
147.5821087450385
 30
33.50000000000001
  0
VERTEX
  5
31C
  8
SOLIDS
 10
-437.1582794340417
 20
147.5507823132574
 30
33.50000000000001
  0
VERTEX
  5
31D
  8
SOLIDS
 10
-437.2041768172845
 20
147.5185546965002
 30
33.50000000000001
  0
VERTEX
  5
31E
  8
SOLIDS
 10
-437.2491696627899
 20
147.4854225420057
 30
33.50000000000001
  0
VERTEX
  5
31F
  8
SOLIDS
 10
-437.2932550648316
 20
147.4513829440473
 30
33.50000000000001
  0
VERTEX
  5
320
  8
SOLIDS
 10
-437.3364305647178
 20
147.4164334439336
 30
33.50000000000001
  0
VERTEX
  5
321
  8
SOLIDS
 10
-437.3786941507919
 20
147.3805720300077
 30
33.50000000000001
  0
VERTEX
  5
322
  8
SOLIDS
 10
-437.420044258432
 20
147.3437971376478
 30
33.50000000000001
  0
VERTEX
  5
323
  8
SOLIDS
 10
-437.4604797700508
 20
147.3061076492666
 30
33.50000000000001
  0
VERTEX
  5
324
  8
SOLIDS
 10
-437.5000000150962
 20
147.267502894312
 30
33.50000000000001
  0
VERTEX
  5
325
  8
SOLIDS
 10
-437.5386047700508
 20
147.2279826492666
 30
33.50000000000001
  0
VERTEX
  5
326
  8
SOLIDS
 10
-437.576294258432
 20
147.1875471376478
 30
33.50000000000001
  0
VERTEX
  5
327
  8
SOLIDS
 10
-437.6130691507919
 20
147.1461970300077
 30
33.50000000000001
  0
VERTEX
  5
328
  8
SOLIDS
 10
-437.6489305647178
 20
147.1039334439336
 30
33.50000000000001
  0
VERTEX
  5
329
  8
SOLIDS
 10
-437.6838800648316
 20
147.0607579440473
 30
33.50000000000001
  0
VERTEX
  5
32A
  8
SOLIDS
 10
-437.7179196627899
 20
147.0166725420057
 30
33.50000000000001
  0
VERTEX
  5
32B
  8
SOLIDS
 10
-437.7510518172844
 20
146.9716796965001
 30
33.50000000000001
  0
VERTEX
  5
32C
  8
SOLIDS
 10
-437.7832794340416
 20
146.9257823132573
 30
33.50000000000001
  0
VERTEX
  5
32D
  8
SOLIDS
 10
-437.8146058658226
 20
146.8789837450383
 30
33.50000000000001
  0
VERTEX
  5
32E
  8
SOLIDS
 10
-437.8450349124237
 20
146.8312877916394
 30
33.50000000000001
  0
VERTEX
  5
32F
  8
SOLIDS
 10
-437.8745708206757
 20
146.7826986998914
 30
33.50000000000001
  0
VERTEX
  5
330
  8
SOLIDS
 10
-437.9032182844444
 20
146.7332211636601
 30
33.50000000000001
  0
VERTEX
  5
331
  8
SOLIDS
 10
-437.9309824446303
 20
146.6828603238462
 30
33.50000000000001
  0
VERTEX
  5
332
  8
SOLIDS
 10
-437.9578688891692
 20
146.631621768385
 30
33.50000000000001
  0
VERTEX
  5
333
  8
SOLIDS
 10
-437.9838836530311
 20
146.5795115322469
 30
33.50000000000001
  0
VERTEX
  5
334
  8
SOLIDS
 10
-438.0090332182211
 20
146.526536097437
 30
33.50000000000001
  0
VERTEX
  5
335
  8
SOLIDS
 10
-438.0333245137793
 20
146.4727023929952
 30
33.50000000000001
  0
VERTEX
  5
336
  8
SOLIDS
 10
-438.0567649157805
 20
146.4180177949963
 30
33.50000000000001
  0
VERTEX
  5
337
  8
SOLIDS
 10
-438.0793622473342
 20
146.36249012655
 30
33.50000000000001
  0
VERTEX
  5
338
  8
SOLIDS
 10
-438.1011247785849
 20
146.3061276578007
 30
33.50000000000001
  0
VERTEX
  5
339
  8
SOLIDS
 10
-438.1421807559294
 20
146.1909336351453
 30
33.50000000000001
  0
VERTEX
  5
33A
  8
SOLIDS
 10
-438.1800079496664
 20
146.0725108288823
 30
33.50000000000001
  0
VERTEX
  5
33B
  8
SOLIDS
 10
-438.2146886142058
 20
145.9509414934216
 30
33.50000000000001
  0
VERTEX
  5
33C
  8
SOLIDS
 10
-438.2463121565146
 20
145.8263150357304
 30
33.50000000000001
  0
VERTEX
  5
33D
  8
SOLIDS
 10
-438.2749751361174
 20
145.6987280153332
 30
33.50000000000001
  0
VERTEX
  5
33E
  8
SOLIDS
 10
-438.3007812650961
 20
145.568284144312
 30
33.50000000000001
  0
VERTEX
  5
33F
  8
SOLIDS
 10
-438.3238414080901
 20
145.435094287306
 30
33.50000000000001
  0
VERTEX
  5
340
  8
SOLIDS
 10
-438.3442735822958
 20
145.2992764615117
 30
33.50000000000001
  0
VERTEX
  5
341
  8
SOLIDS
 10
-438.3622029574675
 20
145.1609558366834
 30
33.50000000000001
  0
VERTEX
  5
342
  8
SOLIDS
 10
-438.3777618559164
 20
145.0202647351323
 30
33.50000000000001
  0
VERTEX
  5
343
  8
SOLIDS
 10
-438.4023332746787
 20
144.7323361538946
 30
33.50000000000001
  0
VERTEX
  5
344
  8
SOLIDS
 10
-438.4191894682211
 20
144.4366923474371
 30
33.50000000000001
  0
VERTEX
  5
345
  8
SOLIDS
 10
-438.4351349027914
 20
143.8276377820075
 30
33.50000000000001
  0
VERTEX
  5
346
  8
SOLIDS
 10
-438.4375000150961
 20
143.2050028943123
 30
33.50000000000001
  0
VERTEX
  5
347
  8
SOLIDS
 10
-438.4375000150962
 20
118.9374999849039
 30
33.50000000000001
  0
VERTEX
  5
348
  8
SOLIDS
 10
-446.4375000150962
 20
118.9374999849039
 30
33.50000000000001
  0
VERTEX
  5
349
  8
SOLIDS
 10
-446.4375000150962
 20
121.937499984904
 30
33.50000000000001
  0
VERTEX
  5
34A
  8
SOLIDS
 10
-454.4375000150962
 20
121.937499984904
 30
33.50000000000001
  0
VERTEX
  5
34B
  8
SOLIDS
 10
-454.4375000150962
 20
118.9374999849039
 30
33.50000000000001
  0
VERTEX
  5
34C
  8
SOLIDS
 10
-462.4375000150962
 20
118.9374999849039
 30
33.50000000000001
  0
VERTEX
  5
34D
  8
SOLIDS
 10
-462.4375000150962
 20
121.937499984904
 30
33.50000000000001
  0
VERTEX
  5
34E
  8
SOLIDS
 10
-470.4375000150962
 20
121.9374999849039
 30
33.50000000000001
  0
VERTEX
  5
34F
  8
SOLIDS
 10
-470.4375000150962
 20
118.9374999849039
 30
33.50000000000001
  0
VERTEX
  5
350
  8
SOLIDS
 10
-478.4375000150962
 20
118.9374999849039
 30
33.50000000000001
  0
VERTEX
  5
351
  8
SOLIDS
 10
-478.4375000150962
 20
121.9374999849039
 30
33.50000000000001
  0
VERTEX
  5
352
  8
SOLIDS
 10
-486.4375000150962
 20
121.9374999849039
 30
33.50000000000001
  0
VERTEX
  5
353
  8
SOLIDS
 10
-486.4375000150962
 20
118.9374999849039
 30
33.50000000000001
  0
VERTEX
  5
354
  8
SOLIDS
 10
-494.4375000150962
 20
118.9374999849039
 30
33.50000000000001
  0
VERTEX
  5
355
  8
SOLIDS
 10
-494.4375000150962
 20
126.9374999849039
 30
33.50000000000001
  0
VERTEX
  5
356
  8
SOLIDS
 10
-491.4375000150962
 20
126.9374999849039
 30
33.50000000000001
  0
VERTEX
  5
357
  8
SOLIDS
 10
-491.4375000150962
 20
134.9374999849039
 30
33.50000000000001
  0
VERTEX
  5
358
  8
SOLIDS
 10
-494.4375000150962
 20
134.9374999849039
 30
33.50000000000001
  0
VERTEX
  5
359
  8
SOLIDS
 10
-494.4375000150962
 20
142.9374999849039
 30
33.50000000000001
  0
VERTEX
  5
35A
  8
SOLIDS
 10
-491.4375000150962
 20
142.9374999849039
 30
33.50000000000001
  0
VERTEX
  5
35B
  8
SOLIDS
 10
-491.4375000150962
 20
150.9374999849039
 30
33.50000000000001
  0
VERTEX
  5
35C
  8
SOLIDS
 10
-494.4375000150962
 20
150.9374999849039
 30
33.50000000000001
  0
VERTEX
  5
35D
  8
SOLIDS
 10
-494.4375000150962
 20
158.9374999849039
 30
33.50000000000001
  0
VERTEX
  5
35E
  8
SOLIDS
 10
-491.4375000150962
 20
158.9374999849039
 30
33.50000000000001
  0
VERTEX
  5
35F
  8
SOLIDS
 10
-491.4375000150962
 20
166.9374999849039
 30
33.50000000000001
  0
VERTEX
  5
360
  8
SOLIDS
 10
-494.4375000150962
 20
166.9374999849039
 30
33.50000000000001
  0
VERTEX
  5
361
  8
SOLIDS
 10
-494.4375000150962
 20
174.937499984904
 30
33.50000000000001
  0
VERTEX
  5
362
  8
SOLIDS
 10
-486.4375000150962
 20
174.9374999849039
 30
33.50000000000001
  0
VERTEX
  5
363
  8
SOLIDS
 10
-486.4375000150962
 20
171.937499984904
 30
33.50000000000001
  0
VERTEX
  5
364
  8
SOLIDS
 10
-478.4375000150962
 20
171.9374999849039
 30
33.50000000000001
  0
VERTEX
  5
365
  8
SOLIDS
 10
-478.4375000150962
 20
174.9374999849039
 30
33.50000000000001
  0
VERTEX
  5
366
  8
SOLIDS
 10
-470.4375000150962
 20
174.9374999849039
 30
33.50000000000001
  0
VERTEX
  5
367
  8
SOLIDS
 10
-470.4375000150962
 20
171.9374999849039
 30
33.50000000000001
  0
VERTEX
  5
368
  8
SOLIDS
 10
-462.4375000150962
 20
171.9374999849039
 30
33.50000000000001
  0
VERTEX
  5
369
  8
SOLIDS
 10
-462.4375000150962
 20
174.9374999849039
 30
33.50000000000001
  0
VERTEX
  5
36A
  8
SOLIDS
 10
-454.4375000150962
 20
174.9374999849039
 30
33.50000000000001
  0
VERTEX
  5
36B
  8
SOLIDS
 10
-454.4375000150962
 20
171.9374999849039
 30
33.50000000000001
  0
VERTEX
  5
36C
  8
SOLIDS
 10
-446.4375000150962
 20
171.9374999849039
 30
33.50000000000001
  0
VERTEX
  5
36D
  8
SOLIDS
 10
-446.4375000150962
 20
174.9374999849039
 30
33.50000000000001
  0
SEQEND
  5
36E
  8
SOLIDS
  0
CIRCLE
  5
36F
  8
SOLIDS
 10
436.9375000150963
 20
161.4374999849039
 30
-33.5
 40
3.807886552931977
210
0.0
220
0.0
230
-1.0
  0
POLYLINE
  5
370
  8
SOLIDS
 66
     1
 10
0.0
 20
0.0
 30
28.0
 70
     1
  0
VERTEX
  5
371
  8
SOLIDS
 10
-358.0
 20
128.0
 30
28.0
  0
VERTEX
  5
372
  8
SOLIDS
 10
-358.0
 20
136.0
 30
28.0
  0
VERTEX
  5
373
  8
SOLIDS
 10
-355.0
 20
136.0
 30
28.0
  0
VERTEX
  5
374
  8
SOLIDS
 10
-355.0
 20
144.0
 30
28.0
  0
VERTEX
  5
375
  8
SOLIDS
 10
-358.0
 20
144.0
 30
28.0
  0
VERTEX
  5
376
  8
SOLIDS
 10
-358.0
 20
152.0
 30
28.0
  0
VERTEX
  5
377
  8
SOLIDS
 10
-355.0
 20
152.0
 30
28.0
  0
VERTEX
  5
378
  8
SOLIDS
 10
-355.0
 20
160.0
 30
28.0
  0
VERTEX
  5
379
  8
SOLIDS
 10
-358.0
 20
160.0
 30
28.0
  0
VERTEX
  5
37A
  8
SOLIDS
 10
-358.0
 20
168.0
 30
28.0
  0
VERTEX
  5
37B
  8
SOLIDS
 10
-355.0
 20
168.0
 30
28.0
  0
VERTEX
  5
37C
  8
SOLIDS
 10
-355.0
 20
176.0
 30
28.0
  0
VERTEX
  5
37D
  8
SOLIDS
 10
-350.0
 20
176.0
 30
28.0
  0
VERTEX
  5
37E
  8
SOLIDS
 10
-350.0
 20
173.0
 30
28.0
  0
VERTEX
  5
37F
  8
SOLIDS
 10
-342.0
 20
173.0
 30
28.0
  0
VERTEX
  5
380
  8
SOLIDS
 10
-342.0
 20
176.0
 30
28.0
  0
VERTEX
  5
381
  8
SOLIDS
 10
-334.0
 20
176.0
 30
28.0
  0
VERTEX
  5
382
  8
SOLIDS
 10
-334.0
 20
173.0
 30
28.0
  0
VERTEX
  5
383
  8
SOLIDS
 10
-326.0
 20
173.0
 30
28.0
  0
VERTEX
  5
384
  8
SOLIDS
 10
-326.0
 20
176.0
 30
28.0
  0
VERTEX
  5
385
  8
SOLIDS
 10
-318.0
 20
176.0
 30
28.0
  0
VERTEX
  5
386
  8
SOLIDS
 10
-318.0
 20
173.0
 30
28.0
  0
VERTEX
  5
387
  8
SOLIDS
 10
-310.0
 20
173.0
 30
28.0
  0
VERTEX
  5
388
  8
SOLIDS
 10
-310.0
 20
176.0
 30
28.0
  0
VERTEX
  5
389
  8
SOLIDS
 10
-305.0
 20
176.0
 30
28.0
  0
VERTEX
  5
38A
  8
SOLIDS
 10
-305.0
 20
168.0
 30
28.0
  0
VERTEX
  5
38B
  8
SOLIDS
 10
-302.0
 20
168.0
 30
28.0
  0
VERTEX
  5
38C
  8
SOLIDS
 10
-302.0
 20
160.0
 30
28.0
  0
VERTEX
  5
38D
  8
SOLIDS
 10
-305.0
 20
160.0
 30
28.0
  0
VERTEX
  5
38E
  8
SOLIDS
 10
-305.0
 20
152.0
 30
28.0
  0
VERTEX
  5
38F
  8
SOLIDS
 10
-302.0
 20
152.0
 30
28.0
  0
VERTEX
  5
390
  8
SOLIDS
 10
-302.0
 20
144.0
 30
28.0
  0
VERTEX
  5
391
  8
SOLIDS
 10
-305.0
 20
144.0
 30
28.0
  0
VERTEX
  5
392
  8
SOLIDS
 10
-305.0
 20
136.0
 30
28.0
  0
VERTEX
  5
393
  8
SOLIDS
 10
-302.0
 20
136.0
 30
28.0
  0
VERTEX
  5
394
  8
SOLIDS
 10
-302.0
 20
128.0
 30
28.0
  0
VERTEX
  5
395
  8
SOLIDS
 10
-305.0
 20
128.0
 30
28.0
  0
VERTEX
  5
396
  8
SOLIDS
 10
-305.0
 20
120.0
 30
28.0
  0
VERTEX
  5
397
  8
SOLIDS
 10
-355.0
 20
120.0
 30
28.0
  0
VERTEX
  5
398
  8
SOLIDS
 10
-355.0
 20
128.0
 30
28.0
  0
SEQEND
  5
399
  8
SOLIDS
  0
POLYLINE
  5
39A
  8
SOLIDS
 66
     1
 10
0.0
 20
0.0
 30
58.99999999999999
 70
     1
  0
VERTEX
  5
39B
  8
SOLIDS
 10
-421.9999999999999
 20
122.0
 30
58.99999999999999
  0
VERTEX
  5
39C
  8
SOLIDS
 10
-421.9985809326171
 20
121.6264190673828
 30
58.99999999999999
  0
VERTEX
  5
39D
  8
SOLIDS
 10
-421.9890136718749
 20
121.260986328125
 30
58.99999999999999
  0
VERTEX
  5
39E
  8
SOLIDS
 10
-421.9788999557494
 20
121.0836000442505
 30
58.99999999999999
  0
VERTEX
  5
39F
  8
SOLIDS
 10
-421.9641571044921
 20
120.9108428955078
 30
58.99999999999999
  0
VERTEX
  5
3A0
  8
SOLIDS
 10
-421.9548217654228
 20
120.8264282345772
 30
58.99999999999999
  0
VERTEX
  5
3A1
  8
SOLIDS
 10
-421.9440641403197
 20
120.7434358596801
 30
58.99999999999999
  0
VERTEX
  5
3A2
  8
SOLIDS
 10
-421.9318048357962
 20
120.6619451642036
 30
58.99999999999999
  0
VERTEX
  5
3A3
  8
SOLIDS
 10
-421.9179687499999
 20
120.58203125
 30
58.99999999999999
  0
VERTEX
  5
3A4
  8
SOLIDS
 10
-421.9024850726126
 20
120.5037649273872
 30
58.99999999999999
  0
VERTEX
  5
3A5
  8
SOLIDS
 10
-421.885287284851
 20
120.4272127151489
 30
58.99999999999999
  0
VERTEX
  5
3A6
  8
SOLIDS
 10
-421.8663131594657
 20
120.3524368405342
 30
58.99999999999999
  0
VERTEX
  5
3A7
  8
SOLIDS
 10
-421.8455047607421
 20
120.2794952392578
 30
58.99999999999999
  0
VERTEX
  5
3A8
  8
SOLIDS
 10
-421.8228084444999
 20
120.2084415555
 30
58.99999999999999
  0
VERTEX
  5
3A9
  8
SOLIDS
 10
-421.7981748580931
 20
120.1393251419067
 30
58.99999999999999
  0
VERTEX
  5
3AA
  8
SOLIDS
 10
-421.7851173393427
 20
120.1055076606571
 30
58.99999999999999
  0
VERTEX
  5
3AB
  8
SOLIDS
 10
-421.7715589404104
 20
120.0721910595894
 30
58.99999999999999
  0
VERTEX
  5
3AC
  8
SOLIDS
 10
-421.7574946992097
 20
120.03938030079
 30
58.99999999999999
  0
VERTEX
  5
3AD
  8
SOLIDS
 10
-421.7429199218748
 20
120.007080078125
 30
58.99999999999999
  0
VERTEX
  5
3AE
  8
SOLIDS
 10
-421.7278301827608
 20
119.975294817239
 30
58.99999999999999
  0
VERTEX
  5
3AF
  8
SOLIDS
 10
-421.7122213244437
 20
119.9440286755561
 30
58.99999999999999
  0
VERTEX
  5
3B0
  8
SOLIDS
 10
-421.6960894577203
 20
119.9132855422795
 30
58.99999999999999
  0
VERTEX
  5
3B1
  8
SOLIDS
 10
-421.6794309616087
 20
119.8830690383911
 30
58.99999999999999
  0
VERTEX
  5
3B2
  8
SOLIDS
 10
-421.6622424833474
 20
119.8533825166523
 30
58.99999999999999
  0
VERTEX
  5
3B3
  8
SOLIDS
 10
-421.6445209383962
 20
119.8242290616035
 30
58.99999999999999
  0
VERTEX
  5
3B4
  8
SOLIDS
 10
-421.6262635104356
 20
119.7956114895642
 30
58.99999999999999
  0
VERTEX
  5
3B5
  8
SOLIDS
 10
-421.607467651367
 20
119.7675323486328
 30
58.99999999999999
  0
VERTEX
  5
3B6
  8
SOLIDS
 10
-421.5881310813127
 20
119.7399939186871
 30
58.99999999999999
  0
VERTEX
  5
3B7
  8
SOLIDS
 10
-421.568251788616
 20
119.7129982113838
 30
58.99999999999999
  0
VERTEX
  5
3B8
  8
SOLIDS
 10
-421.547828029841
 20
119.6865469701588
 30
58.99999999999999
  0
VERTEX
  5
3B9
  8
SOLIDS
 10
-421.5268583297728
 20
119.660641670227
 30
58.99999999999999
  0
VERTEX
  5
3BA
  8
SOLIDS
 10
-421.5053414814173
 20
119.6352835185826
 30
58.99999999999999
  0
VERTEX
  5
3BB
  8
SOLIDS
 10
-421.4832765460013
 20
119.6104734539985
 30
58.99999999999999
  0
VERTEX
  5
3BC
  8
SOLIDS
 10
-421.4606628529726
 20
119.5862121470272
 30
58.99999999999999
  0
VERTEX
  5
3BD
  8
SOLIDS
 10
-421.4374999999998
 20
119.5625
 30
58.99999999999999
  0
VERTEX
  5
3BE
  8
SOLIDS
 10
-421.4137878529726
 20
119.5393371470272
 30
58.99999999999999
  0
VERTEX
  5
3BF
  8
SOLIDS
 10
-421.3895265460013
 20
119.5167234539985
 30
58.99999999999999
  0
VERTEX
  5
3C0
  8
SOLIDS
 10
-421.3647164814172
 20
119.4946585185826
 30
58.99999999999999
  0
VERTEX
  5
3C1
  8
SOLIDS
 10
-421.3393583297728
 20
119.473141670227
 30
58.99999999999999
  0
VERTEX
  5
3C2
  8
SOLIDS
 10
-421.3134530298411
 20
119.4521719701588
 30
58.99999999999999
  0
VERTEX
  5
3C3
  8
SOLIDS
 10
-421.2870017886161
 20
119.4317482113838
 30
58.99999999999999
  0
VERTEX
  5
3C4
  8
SOLIDS
 10
-421.2600060813128
 20
119.4118689186871
 30
58.99999999999999
  0
VERTEX
  5
3C5
  8
SOLIDS
 10
-421.2324676513671
 20
119.3925323486328
 30
58.99999999999999
  0
VERTEX
  5
3C6
  8
SOLIDS
 10
-421.2043885104357
 20
119.3737364895642
 30
58.99999999999999
  0
VERTEX
  5
3C7
  8
SOLIDS
 10
-421.1757709383963
 20
119.3554790616035
 30
58.99999999999999
  0
VERTEX
  5
3C8
  8
SOLIDS
 10
-421.1466174833475
 20
119.3377575166523
 30
58.99999999999999
  0
VERTEX
  5
3C9
  8
SOLIDS
 10
-421.1169309616088
 20
119.3205690383911
 30
58.99999999999999
  0
VERTEX
  5
3CA
  8
SOLIDS
 10
-421.0867144577204
 20
119.3039105422795
 30
58.99999999999999
  0
VERTEX
  5
3CB
  8
SOLIDS
 10
-421.0559713244436
 20
119.2877786755562
 30
58.99999999999999
  0
VERTEX
  5
3CC
  8
SOLIDS
 10
-421.0247051827608
 20
119.272169817239
 30
58.99999999999999
  0
VERTEX
  5
3CD
  8
SOLIDS
 10
-420.9929199218748
 20
119.257080078125
 30
58.99999999999999
  0
VERTEX
  5
3CE
  8
SOLIDS
 10
-420.9606196992098
 20
119.24250530079
 30
58.99999999999999
  0
VERTEX
  5
3CF
  8
SOLIDS
 10
-420.9278089404105
 20
119.2284410595894
 30
58.99999999999999
  0
VERTEX
  5
3D0
  8
SOLIDS
 10
-420.8944923393427
 20
119.2148826606572
 30
58.99999999999999
  0
VERTEX
  5
3D1
  8
SOLIDS
 10
-420.8606748580931
 20
119.2018251419067
 30
58.99999999999999
  0
VERTEX
  5
3D2
  8
SOLIDS
 10
-420.7915584444998
 20
119.1771915555
 30
58.99999999999999
  0
VERTEX
  5
3D3
  8
SOLIDS
 10
-420.720504760742
 20
119.1544952392578
 30
58.99999999999999
  0
VERTEX
  5
3D4
  8
SOLIDS
 10
-420.6475631594657
 20
119.1336868405342
 30
58.99999999999999
  0
VERTEX
  5
3D5
  8
SOLIDS
 10
-420.5727872848508
 20
119.1147127151489
 30
58.99999999999999
  0
VERTEX
  5
3D6
  8
SOLIDS
 10
-420.4962350726125
 20
119.0975149273872
 30
58.99999999999999
  0
VERTEX
  5
3D7
  8
SOLIDS
 10
-420.4179687499998
 20
119.08203125
 30
58.99999999999999
  0
VERTEX
  5
3D8
  8
SOLIDS
 10
-420.3380548357962
 20
119.0681951642036
 30
58.99999999999999
  0
VERTEX
  5
3D9
  8
SOLIDS
 10
-420.2565641403196
 20
119.0559358596802
 30
58.99999999999999
  0
VERTEX
  5
3DA
  8
SOLIDS
 10
-420.1735717654226
 20
119.0451782345772
 30
58.99999999999999
  0
VERTEX
  5
3DB
  8
SOLIDS
 10
-420.089157104492
 20
119.0358428955078
 30
58.99999999999999
  0
VERTEX
  5
3DC
  8
SOLIDS
 10
-419.9163999557493
 20
119.0211000442505
 30
58.99999999999999
  0
VERTEX
  5
3DD
  8
SOLIDS
 10
-419.7390136718748
 20
119.010986328125
 30
58.99999999999999
  0
VERTEX
  5
3DE
  8
SOLIDS
 10
-419.373580932617
 20
119.0014190673828
 30
58.99999999999999
  0
VERTEX
  5
3DF
  8
SOLIDS
 10
-418.9999999999998
 20
119.0
 30
58.99999999999999
  0
VERTEX
  5
3E0
  8
SOLIDS
 10
-374.9999999999999
 20
118.9999999999999
 30
58.99999999999999
  0
VERTEX
  5
3E1
  8
SOLIDS
 10
-374.6264190673827
 20
119.0014190673828
 30
58.99999999999999
  0
VERTEX
  5
3E2
  8
SOLIDS
 10
-374.2609863281249
 20
119.0109863281249
 30
58.99999999999999
  0
VERTEX
  5
3E3
  8
SOLIDS
 10
-374.0836000442504
 20
119.0211000442504
 30
58.99999999999999
  0
VERTEX
  5
3E4
  8
SOLIDS
 10
-373.9108428955077
 20
119.0358428955078
 30
58.99999999999999
  0
VERTEX
  5
3E5
  8
SOLIDS
 10
-373.8264282345771
 20
119.0451782345771
 30
58.99999999999999
  0
VERTEX
  5
3E6
  8
SOLIDS
 10
-373.7434358596801
 20
119.0559358596801
 30
58.99999999999999
  0
VERTEX
  5
3E7
  8
SOLIDS
 10
-373.6619451642035
 20
119.0681951642036
 30
58.99999999999999
  0
VERTEX
  5
3E8
  8
SOLIDS
 10
-373.5820312499998
 20
119.0820312499999
 30
58.99999999999999
  0
VERTEX
  5
3E9
  8
SOLIDS
 10
-373.5037649273871
 20
119.0975149273872
 30
58.99999999999999
  0
VERTEX
  5
3EA
  8
SOLIDS
 10
-373.4272127151488
 20
119.1147127151489
 30
58.99999999999999
  0
VERTEX
  5
3EB
  8
SOLIDS
 10
-373.352436840534
 20
119.1336868405342
 30
58.99999999999999
  0
VERTEX
  5
3EC
  8
SOLIDS
 10
-373.2794952392576
 20
119.1544952392578
 30
58.99999999999999
  0
VERTEX
  5
3ED
  8
SOLIDS
 10
-373.2084415554999
 20
119.1771915555
 30
58.99999999999999
  0
VERTEX
  5
3EE
  8
SOLIDS
 10
-373.1393251419066
 20
119.2018251419067
 30
58.99999999999999
  0
VERTEX
  5
3EF
  8
SOLIDS
 10
-373.105507660657
 20
119.2148826606571
 30
58.99999999999999
  0
VERTEX
  5
3F0
  8
SOLIDS
 10
-373.0721910595892
 20
119.2284410595893
 30
58.99999999999999
  0
VERTEX
  5
3F1
  8
SOLIDS
 10
-373.0393803007898
 20
119.24250530079
 30
58.99999999999999
  0
VERTEX
  5
3F2
  8
SOLIDS
 10
-373.0070800781248
 20
119.257080078125
 30
58.99999999999999
  0
VERTEX
  5
3F3
  8
SOLIDS
 10
-372.9752948172389
 20
119.272169817239
 30
58.99999999999999
  0
VERTEX
  5
3F4
  8
SOLIDS
 10
-372.944028675556
 20
119.2877786755562
 30
58.99999999999999
  0
VERTEX
  5
3F5
  8
SOLIDS
 10
-372.9132855422793
 20
119.3039105422795
 30
58.99999999999999
  0
VERTEX
  5
3F6
  8
SOLIDS
 10
-372.8830690383909
 20
119.3205690383911
 30
58.99999999999999
  0
VERTEX
  5
3F7
  8
SOLIDS
 10
-372.8533825166522
 20
119.3377575166523
 30
58.99999999999999
  0
VERTEX
  5
3F8
  8
SOLIDS
 10
-372.8242290616033
 20
119.3554790616035
 30
58.99999999999999
  0
VERTEX
  5
3F9
  8
SOLIDS
 10
-372.795611489564
 20
119.3737364895642
 30
58.99999999999999
  0
VERTEX
  5
3FA
  8
SOLIDS
 10
-372.7675323486326
 20
119.3925323486328
 30
58.99999999999999
  0
VERTEX
  5
3FB
  8
SOLIDS
 10
-372.7399939186869
 20
119.4118689186871
 30
58.99999999999999
  0
VERTEX
  5
3FC
  8
SOLIDS
 10
-372.7129982113836
 20
119.4317482113838
 30
58.99999999999999
  0
VERTEX
  5
3FD
  8
SOLIDS
 10
-372.6865469701586
 20
119.4521719701588
 30
58.99999999999999
  0
VERTEX
  5
3FE
  8
SOLIDS
 10
-372.6606416702269
 20
119.473141670227
 30
58.99999999999999
  0
VERTEX
  5
3FF
  8
SOLIDS
 10
-372.6352835185825
 20
119.4946585185826
 30
58.99999999999999
  0
VERTEX
  5
400
  8
SOLIDS
 10
-372.6104734539984
 20
119.5167234539985
 30
58.99999999999999
  0
VERTEX
  5
401
  8
SOLIDS
 10
-372.5862121470271
 20
119.5393371470272
 30
58.99999999999999
  0
VERTEX
  5
402
  8
SOLIDS
 10
-372.5624999999998
 20
119.5625
 30
58.99999999999999
  0
VERTEX
  5
403
  8
SOLIDS
 10
-372.5393371470271
 20
119.5862121470272
 30
58.99999999999999
  0
VERTEX
  5
404
  8
SOLIDS
 10
-372.5167234539983
 20
119.6104734539985
 30
58.99999999999999
  0
VERTEX
  5
405
  8
SOLIDS
 10
-372.4946585185824
 20
119.6352835185826
 30
58.99999999999999
  0
VERTEX
  5
406
  8
SOLIDS
 10
-372.4731416702269
 20
119.660641670227
 30
58.99999999999999
  0
VERTEX
  5
407
  8
SOLIDS
 10
-372.4521719701586
 20
119.6865469701588
 30
58.99999999999999
  0
VERTEX
  5
408
  8
SOLIDS
 10
-372.4317482113836
 20
119.7129982113838
 30
58.99999999999999
  0
VERTEX
  5
409
  8
SOLIDS
 10
-372.411868918687
 20
119.7399939186871
 30
58.99999999999999
  0
VERTEX
  5
40A
  8
SOLIDS
 10
-372.3925323486326
 20
119.7675323486328
 30
58.99999999999999
  0
VERTEX
  5
40B
  8
SOLIDS
 10
-372.3737364895641
 20
119.7956114895642
 30
58.99999999999999
  0
VERTEX
  5
40C
  8
SOLIDS
 10
-372.3554790616034
 20
119.8242290616035
 30
58.99999999999999
  0
VERTEX
  5
40D
  8
SOLIDS
 10
-372.3377575166522
 20
119.8533825166523
 30
58.99999999999999
  0
VERTEX
  5
40E
  8
SOLIDS
 10
-372.320569038391
 20
119.8830690383911
 30
58.99999999999999
  0
VERTEX
  5
40F
  8
SOLIDS
 10
-372.3039105422794
 20
119.9132855422795
 30
58.99999999999999
  0
VERTEX
  5
410
  8
SOLIDS
 10
-372.2877786755561
 20
119.9440286755562
 30
58.99999999999999
  0
VERTEX
  5
411
  8
SOLIDS
 10
-372.2721698172389
 20
119.975294817239
 30
58.99999999999999
  0
VERTEX
  5
412
  8
SOLIDS
 10
-372.2570800781249
 20
120.007080078125
 30
58.99999999999999
  0
VERTEX
  5
413
  8
SOLIDS
 10
-372.24250530079
 20
120.0393803007901
 30
58.99999999999999
  0
VERTEX
  5
414
  8
SOLIDS
 10
-372.2284410595892
 20
120.0721910595894
 30
58.99999999999999
  0
VERTEX
  5
415
  8
SOLIDS
 10
-372.214882660657
 20
120.1055076606572
 30
58.99999999999999
  0
VERTEX
  5
416
  8
SOLIDS
 10
-372.2018251419066
 20
120.1393251419067
 30
58.99999999999999
  0
VERTEX
  5
417
  8
SOLIDS
 10
-372.1771915554999
 20
120.2084415555
 30
58.99999999999999
  0
VERTEX
  5
418
  8
SOLIDS
 10
-372.1544952392577
 20
120.2794952392578
 30
58.99999999999999
  0
VERTEX
  5
419
  8
SOLIDS
 10
-372.1336868405341
 20
120.3524368405342
 30
58.99999999999999
  0
VERTEX
  5
41A
  8
SOLIDS
 10
-372.1147127151488
 20
120.4272127151489
 30
58.99999999999999
  0
VERTEX
  5
41B
  8
SOLIDS
 10
-372.0975149273871
 20
120.5037649273872
 30
58.99999999999999
  0
VERTEX
  5
41C
  8
SOLIDS
 10
-372.0820312499999
 20
120.58203125
 30
58.99999999999999
  0
VERTEX
  5
41D
  8
SOLIDS
 10
-372.0681951642035
 20
120.6619451642036
 30
58.99999999999999
  0
VERTEX
  5
41E
  8
SOLIDS
 10
-372.0559358596801
 20
120.7434358596802
 30
58.99999999999999
  0
VERTEX
  5
41F
  8
SOLIDS
 10
-372.045178234577
 20
120.8264282345772
 30
58.99999999999999
  0
VERTEX
  5
420
  8
SOLIDS
 10
-372.0358428955077
 20
120.9108428955078
 30
58.99999999999999
  0
VERTEX
  5
421
  8
SOLIDS
 10
-372.0211000442504
 20
121.0836000442505
 30
58.99999999999999
  0
VERTEX
  5
422
  8
SOLIDS
 10
-372.0109863281249
 20
121.260986328125
 30
58.99999999999999
  0
VERTEX
  5
423
  8
SOLIDS
 10
-372.0014190673827
 20
121.6264190673828
 30
58.99999999999999
  0
VERTEX
  5
424
  8
SOLIDS
 10
-371.9999999999999
 20
122.0
 30
58.99999999999999
  0
VERTEX
  5
425
  8
SOLIDS
 10
-371.9999999999999
 20
161.0
 30
58.99999999999999
  0
VERTEX
  5
426
  8
SOLIDS
 10
-362.0
 20
161.0
 30
58.99999999999999
  0
VERTEX
  5
427
  8
SOLIDS
 10
-362.0
 20
163.0500000000008
 30
58.99999999999999
  0
VERTEX
  5
428
  8
SOLIDS
 10
-366.0
 20
163.0500000000008
 30
58.99999999999999
  0
VERTEX
  5
429
  8
SOLIDS
 10
-366.0
 20
165.9500000000007
 30
58.99999999999999
  0
VERTEX
  5
42A
  8
SOLIDS
 10
-362.0
 20
165.9500000000007
 30
58.99999999999999
  0
VERTEX
  5
42B
  8
SOLIDS
 10
-362.0
 20
168.0
 30
58.99999999999999
  0
VERTEX
  5
42C
  8
SOLIDS
 10
-371.9999999999999
 20
168.0
 30
58.99999999999999
  0
VERTEX
  5
42D
  8
SOLIDS
 10
-371.9999999999999
 20
175.0
 30
58.99999999999999
  0
VERTEX
  5
42E
  8
SOLIDS
 10
-421.9999999999999
 20
175.0
 30
58.99999999999999
  0
VERTEX
  5
42F
  8
SOLIDS
 10
-421.9999999999999
 20
168.0
 30
58.99999999999999
  0
VERTEX
  5
430
  8
SOLIDS
 10
-424.9999999999998
 20
168.0
 30
58.99999999999999
  0
VERTEX
  5
431
  8
SOLIDS
 10
-424.9999999999998
 20
161.0
 30
58.99999999999999
  0
VERTEX
  5
432
  8
SOLIDS
 10
-421.9999999999999
 20
161.0
 30
58.99999999999999
  0
SEQEND
  5
433
  8
SOLIDS
  0
ENDSEC
  0
EOF
