  0
SECTION
  2
HEADER
  9
$ACADVER
  1
AC1009
  9
$DWGCODEPAGE
  3
ansi_1252
  9
$INSBASE
 10
0.0
 20
0.0
 30
0.0
  9
$EXTMIN
 10
56.99999999999999
 20
-122.0
 30
0.0
  9
$EXTMAX
 10
104.5995457334498
 20
26.00000000000001
 30
0.0
  9
$LIMMIN
 10
0.0
 20
0.0
  9
$LIMMAX
 10
12.0
 20
9.0
  9
$ORTHOMODE
 70
     0
  9
$REGENMODE
 70
     1
  9
$FILLMODE
 70
     1
  9
$QTEXTMODE
 70
     0
  9
$MIRRTEXT
 70
     1
  9
$DRAGMODE
 70
     2
  9
$LTSCALE
 40
1.0
  9
$OSMODE
 70
    37
  9
$ATTMODE
 70
     1
  9
$TEXTSIZE
 40
0.2
  9
$TRACEWID
 40
0.05
  9
$TEXTSTYLE
  7
STANDARD
  9
$CLAYER
  8
DEFAULT
  9
$CELTYPE
  6
BYLAYER
  9
$CECOLOR
 62
   256
  9
$DIMSCALE
 40
1.0
  9
$DIMASZ
 40
0.18
  9
$DIMEXO
 40
0.0625
  9
$DIMDLI
 40
0.38
  9
$DIMRND
 40
0.0
  9
$DIMDLE
 40
0.0
  9
$DIMEXE
 40
0.18
  9
$DIMTP
 40
0.0
  9
$DIMTM
 40
0.0
  9
$DIMTXT
 40
0.18
  9
$DIMCEN
 40
0.09
  9
$DIMTSZ
 40
0.0
  9
$DIMTOL
 70
     0
  9
$DIMLIM
 70
     0
  9
$DIMTIH
 70
     1
  9
$DIMTOH
 70
     1
  9
$DIMSE1
 70
     0
  9
$DIMSE2
 70
     0
  9
$DIMTAD
 70
     0
  9
$DIMZIN
 70
     0
  9
$DIMBLK
  1

  9
$DIMASO
 70
     1
  9
$DIMSHO
 70
     1
  9
$DIMPOST
  1

  9
$DIMAPOST
  1

  9
$DIMALT
 70
     0
  9
$DIMALTD
 70
     2
  9
$DIMALTF
 40
25.4
  9
$DIMLFAC
 40
1.0
  9
$DIMTOFL
 70
     0
  9
$DIMTVP
 40
0.0
  9
$DIMTIX
 70
     0
  9
$DIMSOXD
 70
     0
  9
$DIMSAH
 70
     0
  9
$DIMBLK1
  1

  9
$DIMBLK2
  1

  9
$DIMSTYLE
  2
STANDARD_ACAD
  9
$DIMCLRD
 70
     0
  9
$DIMCLRE
 70
     0
  9
$DIMCLRT
 70
     0
  9
$DIMTFAC
 40
1.0
  9
$DIMGAP
 40
0.09
  9
$LUNITS
 70
     2
  9
$LUPREC
 70
     3
  9
$SKETCHINC
 40
0.1
  9
$FILLETRAD
 40
0.0
  9
$AUNITS
 70
     0
  9
$AUPREC
 70
     0
  9
$MENU
  1
.
  9
$ELEVATION
 40
0.0
  9
$PELEVATION
 40
0.0
  9
$THICKNESS
 40
0.0
  9
$LIMCHECK
 70
     0
  9
$CHAMFERA
 40
0.0
  9
$CHAMFERB
 40
0.0
  9
$SKPOLY
 70
     0
  9
$TDCREATE
 40
2460727.816920775
  9
$TDUPDATE
 40
2460727.816934329
  9
$TDINDWG
 40
0.0000000116
  9
$TDUSRTIMER
 40
0.0000000116
  9
$USRTIMER
 70
     1
  9
$ANGBASE
 50
0.0
  9
$ANGDIR
 70
     0
  9
$PDMODE
 70
     0
  9
$PDSIZE
 40
0.0
  9
$PLINEWID
 40
0.0
  9
$COORDS
 70
     1
  9
$SPLFRAME
 70
     0
  9
$SPLINETYPE
 70
     6
  9
$SPLINESEGS
 70
     8
  9
$ATTDIA
 70
     0
  9
$ATTREQ
 70
     1
  9
$HANDLING
 70
     1
  9
$HANDSEED
  5
E5
  9
$SURFTAB1
 70
     6
  9
$SURFTAB2
 70
     6
  9
$SURFTYPE
 70
     6
  9
$SURFU
 70
     6
  9
$SURFV
 70
     6
  9
$UCSNAME
  2

  9
$UCSORG
 10
0.0
 20
0.0
 30
0.0
  9
$UCSXDIR
 10
1.0
 20
0.0
 30
0.0
  9
$UCSYDIR
 10
0.0
 20
1.0
 30
0.0
  9
$PUCSNAME
  2

  9
$PUCSORG
 10
0.0
 20
0.0
 30
0.0
  9
$PUCSXDIR
 10
1.0
 20
0.0
 30
0.0
  9
$PUCSYDIR
 10
0.0
 20
1.0
 30
0.0
  9
$USERI1
 70
     0
  9
$USERI2
 70
     0
  9
$USERI3
 70
     0
  9
$USERI4
 70
     0
  9
$USERI5
 70
     0
  9
$USERR1
 40
0.0
  9
$USERR2
 40
0.0
  9
$USERR3
 40
0.0
  9
$USERR4
 40
0.0
  9
$USERR5
 40
0.0
  9
$WORLDVIEW
 70
     1
  9
$SHADEDGE
 70
     3
  9
$SHADEDIF
 70
    70
  9
$TILEMODE
 70
     1
  9
$MAXACTVP
 70
    64
  9
$PLIMCHECK
 70
     0
  9
$PEXTMIN
 10
1.000000000000000E+20
 20
1.000000000000000E+20
 30
1.000000000000000E+20
  9
$PEXTMAX
 10
-1.000000000000000E+20
 20
-1.000000000000000E+20
 30
-1.000000000000000E+20
  9
$PLIMMIN
 10
0.0
 20
0.0
  9
$PLIMMAX
 10
12.0
 20
9.0
  9
$UNITMODE
 70
     0
  9
$VISRETAIN
 70
     1
  9
$PLINEGEN
 70
     0
  9
$PSLTSCALE
 70
     1
  0
ENDSEC
  0
SECTION
  2
TABLES
  0
TABLE
  2
VPORT
 70
     1
  0
VPORT
  2
*ACTIVE
 70
     0
 10
0.0
 20
0.0
 11
1.0
 21
1.0
 12
10.42990654205607
 22
4.5
 13
0.0
 23
0.0
 14
0.5
 24
0.5
 15
0.5
 25
0.5
 16
0.0
 26
0.0
 36
1.0
 17
0.0
 27
0.0
 37
0.0
 40
9.0
 41
1.972972972850329
 42
50.0
 43
0.0
 44
0.0
 50
0.0
 51
0.0
 71
     0
 72
   100
 73
     1
 74
     3
 75
     0
 76
     0
 77
     0
 78
     0
  0
ENDTAB
  0
TABLE
  2
LTYPE
 70
     1
  0
LTYPE
  2
CONTINUOUS
 70
     0
  3
Solid line
 72
    65
 73
     0
 40
0.0
  0
ENDTAB
  0
TABLE
  2
LAYER
 70
     2
  0
LAYER
  2
0
 70
     0
 62
     7
  6
CONTINUOUS
  0
LAYER
  2
DEFAULT
 70
     0
 62
     7
  6
CONTINUOUS
  0
ENDTAB
  0
TABLE
  2
STYLE
 70
     1
  0
STYLE
  2
STANDARD
 70
     0
 40
0.0
 41
1.0
 50
0.0
 71
     0
 42
0.2
  3
txt
  4

  0
ENDTAB
  0
TABLE
  2
VIEW
 70
     0
  0
ENDTAB
  0
TABLE
  2
UCS
 70
     0
  0
ENDTAB
  0
TABLE
  2
APPID
 70
     2
  0
APPID
  2
ACAD
 70
     0
  0
APPID
  2
RHINO
 70
     0
  0
ENDTAB
  0
TABLE
  2
DIMSTYLE
 70
     1
  0
DIMSTYLE
  2
STANDARD_ACAD
 70
     0
  3

  4

  5

  6

  7

 40
1.0
 41
0.18
 42
0.0625
 43
0.38
 44
0.18
 45
0.0
 46
0.0
 47
0.0
 48
0.0
140
0.18
141
0.09
142
0.0
143
25.4
144
1.0
145
0.0
146
1.0
147
0.09
 71
     0
 72
     0
 73
     1
 74
     1
 75
     0
 76
     0
 77
     0
 78
     0
170
     0
171
     2
172
     0
173
     0
174
     0
175
     0
176
     0
177
     0
178
     0
  0
ENDTAB
  0
ENDSEC
  0
SECTION
  2
BLOCKS
  0
BLOCK
  8
0
  2
$MODEL_SPACE
 70
     0
 10
0.0
 20
0.0
 30
0.0
  3
$MODEL_SPACE
  1

  0
ENDBLK
  5
21
  8
0
  0
BLOCK
 67
     1
  8
0
  2
$PAPER_SPACE
 70
     0
 10
0.0
 20
0.0
 30
0.0
  3
$PAPER_SPACE
  1

  0
ENDBLK
  5
1D
 67
     1
  8
0
  0
ENDSEC
  0
SECTION
  2
ENTITIES
  0
POLYLINE
  5
60
  8
DEFAULT
 66
     1
 10
0.0
 20
0.0
 30
0.0
 70
     1
  0
VERTEX
  5
61
  8
DEFAULT
 10
97.0
 20
-86.3386235785429
 30
0.0
 42
0.29915486998966
  0
VERTEX
  5
62
  8
DEFAULT
 10
100.0158014797606
 20
-90.92806322105702
 30
0.0
  0
VERTEX
  5
63
  8
DEFAULT
 10
100.1353638466553
 20
-90.98220710404023
 30
0.0
  0
VERTEX
  5
64
  8
DEFAULT
 10
100.2545902020688
 20
-91.04115876550784
 30
0.0
  0
VERTEX
  5
65
  8
DEFAULT
 10
100.37341730099
 20
-91.10496103757593
 30
0.0
  0
VERTEX
  5
66
  8
DEFAULT
 10
100.4917810487764
 20
-91.17365283227115
 30
0.0
  0
VERTEX
  5
67
  8
DEFAULT
 10
100.6096165858832
 20
-91.24726898257548
 30
0.0
  0
VERTEX
  5
68
  8
DEFAULT
 10
100.7268583769193
 20
-91.32584008900474
 30
0.0
  0
VERTEX
  5
69
  8
DEFAULT
 10
100.8434403038634
 20
-91.40939237243717
 30
0.0
  0
VERTEX
  5
6A
  8
DEFAULT
 10
100.9592957632466
 20
-91.49794753390717
 30
0.0
  0
VERTEX
  5
6B
  8
DEFAULT
 10
101.0743577670858
 20
-91.59152262207155
 30
0.0
  0
VERTEX
  5
6C
  8
DEFAULT
 10
101.1885590473219
 20
-91.6901299090451
 30
0.0
  0
VERTEX
  5
6D
  8
DEFAULT
 10
101.3018321634973
 20
-91.79377677528538
 30
0.0
  0
VERTEX
  5
6E
  8
DEFAULT
 10
101.4141096133792
 20
-91.9024656041872
 30
0.0
  0
VERTEX
  5
6F
  8
DEFAULT
 10
101.5253239462143
 20
-92.01619368701985
 30
0.0
  0
VERTEX
  5
70
  8
DEFAULT
 10
101.6354078782777
 20
-92.13495313881224
 30
0.0
  0
VERTEX
  5
71
  8
DEFAULT
 10
101.7442944103592
 20
-92.25873082575404
 30
0.0
  0
VERTEX
  5
72
  8
DEFAULT
 10
101.851916946809
 20
-92.38750830464268
 30
0.0
  0
VERTEX
  5
73
  8
DEFAULT
 10
101.9582094157502
 20
-92.52126177486123
 30
0.0
  0
VERTEX
  5
74
  8
DEFAULT
 10
102.0631063900483
 20
-92.65996204332497
 30
0.0
  0
VERTEX
  5
75
  8
DEFAULT
 10
102.1665432086146
 20
-92.8035745027802
 30
0.0
  0
VERTEX
  5
76
  8
DEFAULT
 10
102.2684560976118
 20
-92.95205912378557
 30
0.0
  0
VERTEX
  5
77
  8
DEFAULT
 10
102.3687822911171
 20
-93.10537046064408
 30
0.0
  0
VERTEX
  5
78
  8
DEFAULT
 10
102.4674601507979
 20
-93.26345767149304
 30
0.0
  0
VERTEX
  5
79
  8
DEFAULT
 10
102.5644292841465
 20
-93.42626455269378
 30
0.0
  0
VERTEX
  5
7A
  8
DEFAULT
 10
102.6596306608231
 20
-93.59372958759572
 30
0.0
  0
VERTEX
  5
7B
  8
DEFAULT
 10
102.7530067266578
 20
-93.76578600968034
 30
0.0
  0
VERTEX
  5
7C
  8
DEFAULT
 10
102.8445015148668
 20
-93.9423618800205
 30
0.0
  0
VERTEX
  5
7D
  8
DEFAULT
 10
102.9340607540471
 20
-94.12338017892054
 30
0.0
  0
VERTEX
  5
7E
  8
DEFAULT
 10
103.0216319725235
 20
-94.3087589115301
 30
0.0
  0
VERTEX
  5
7F
  8
DEFAULT
 10
103.1906100565806
 20
-94.69224555193065
 30
0.0
  0
VERTEX
  5
80
  8
DEFAULT
 10
103.351055684815
 20
-95.09207120363538
 30
0.0
  0
VERTEX
  5
81
  8
DEFAULT
 10
103.5026234936727
 20
-95.50741465218134
 30
0.0
  0
VERTEX
  5
82
  8
DEFAULT
 10
103.6450053101734
 20
-95.93738967662843
 30
0.0
  0
VERTEX
  5
83
  8
DEFAULT
 10
103.7779322349996
 20
-96.38105133957824
 30
0.0
  0
VERTEX
  5
84
  8
DEFAULT
 10
103.9011763073042
 20
-96.83740286331833
 30
0.0
  0
VERTEX
  5
85
  8
DEFAULT
 10
104.0145517300464
 20
-97.3054029877423
 30
0.0
  0
VERTEX
  5
86
  8
DEFAULT
 10
104.1179156434007
 20
-97.78397369753353
 30
0.0
  0
VERTEX
  5
87
  8
DEFAULT
 10
104.2111684426832
 20
-98.27200820084971
 30
0.0
  0
VERTEX
  5
88
  8
DEFAULT
 10
104.2942536460453
 20
-98.76837903950695
 30
0.0
  0
VERTEX
  5
89
  8
DEFAULT
 10
104.3671573256043
 20
-99.27194621142127
 30
0.0
  0
VERTEX
  5
8A
  8
DEFAULT
 10
104.4299071235052
 20
-99.78156518970177
 30
0.0
  0
VERTEX
  5
8B
  8
DEFAULT
 10
104.4825708813878
 20
-100.2960947290719
 30
0.0
  0
VERTEX
  5
8C
  8
DEFAULT
 10
104.5252549177314
 20
-100.8144043589174
 30
0.0
  0
VERTEX
  5
8D
  8
DEFAULT
 10
104.5581019924168
 20
-101.3353814728391
 30
0.0
  0
VERTEX
  5
8E
  8
DEFAULT
 10
104.5812890015179
 20
-101.8579379366971
 30
0.0
  0
VERTEX
  5
8F
  8
DEFAULT
 10
104.5950244477772
 20
-102.3810161503244
 30
0.0
  0
VERTEX
  5
90
  8
DEFAULT
 10
104.5995457334498
 20
-102.9035945118957
 30
0.0
  0
VERTEX
  5
91
  8
DEFAULT
 10
104.5950244477772
 20
-103.3740781864399
 30
0.0
  0
VERTEX
  5
92
  8
DEFAULT
 10
104.5812890015179
 20
-103.8454103091903
 30
0.0
  0
VERTEX
  5
93
  8
DEFAULT
 10
104.5581019924168
 20
-104.3166817721555
 30
0.0
  0
VERTEX
  5
94
  8
DEFAULT
 10
104.5252549177314
 20
-104.7869498208538
 30
0.0
  0
VERTEX
  5
95
  8
DEFAULT
 10
104.4825708813878
 20
-105.255242854793
 30
0.0
  0
VERTEX
  5
96
  8
DEFAULT
 10
104.4299071235052
 20
-105.7205657732056
 30
0.0
  0
VERTEX
  5
97
  8
DEFAULT
 10
104.3671573256043
 20
-106.1819058221544
 30
0.0
  0
VERTEX
  5
98
  8
DEFAULT
 10
104.2942536460453
 20
-106.6382388866342
 30
0.0
  0
VERTEX
  5
99
  8
DEFAULT
 10
104.2111684426832
 20
-107.0885361593263
 30
0.0
  0
VERTEX
  5
9A
  8
DEFAULT
 10
104.1179156434007
 20
-107.5317711066031
 30
0.0
  0
VERTEX
  5
9B
  8
DEFAULT
 10
104.0145517300464
 20
-107.9669266426472
 30
0.0
  0
VERTEX
  5
9C
  8
DEFAULT
 10
103.9011763073042
 20
-108.3930024145355
 30
0.0
  0
VERTEX
  5
9D
  8
DEFAULT
 10
103.7779322349996
 20
-108.809022095177
 30
0.0
  0
VERTEX
  5
9E
  8
DEFAULT
 10
103.6450053101734
 20
-109.2140405773878
 30
0.0
  0
VERTEX
  5
9F
  8
DEFAULT
 10
103.5026234936727
 20
-109.6071509613347
 30
0.0
  0
VERTEX
  5
A0
  8
DEFAULT
 10
103.351055684815
 20
-109.9874912292156
 30
0.0
  0
VERTEX
  5
A1
  8
DEFAULT
 10
103.1906100565806
 20
-110.3542505053834
 30
0.0
  0
VERTEX
  5
A2
  8
DEFAULT
 10
103.1071645986373
 20
-110.5322992841959
 30
0.0
  0
VERTEX
  5
A3
  8
DEFAULT
 10
103.0216319725235
 20
-110.7066748070887
 30
0.0
  0
VERTEX
  5
A4
  8
DEFAULT
 10
102.9340607540471
 20
-110.8772925618336
 30
0.0
  0
VERTEX
  5
A5
  8
DEFAULT
 10
102.8445015148668
 20
-111.0440722004271
 30
0.0
  0
VERTEX
  5
A6
  8
DEFAULT
 10
102.7530067266578
 20
-111.2069376626256
 30
0.0
  0
VERTEX
  5
A7
  8
DEFAULT
 10
102.6596306608231
 20
-111.3658172876581
 30
0.0
  0
VERTEX
  5
A8
  8
DEFAULT
 10
102.5644292841465
 20
-111.5206439137862
 30
0.0
  0
VERTEX
  5
A9
  8
DEFAULT
 10
102.4674601507979
 20
-111.6713549654465
 30
0.0
  0
VERTEX
  5
AA
  8
DEFAULT
 10
102.3687822911171
 20
-111.8178925277704
 30
0.0
  0
VERTEX
  5
AB
  8
DEFAULT
 10
102.2684560976118
 20
-111.9602034083416
 30
0.0
  0
VERTEX
  5
AC
  8
DEFAULT
 10
102.1665432086147
 20
-112.0982391861138
 30
0.0
  0
VERTEX
  5
AD
  8
DEFAULT
 10
102.0631063900483
 20
-112.2319562474743
 30
0.0
  0
VERTEX
  5
AE
  8
DEFAULT
 10
101.9582094157502
 20
-112.361315809501
 30
0.0
  0
VERTEX
  5
AF
  8
DEFAULT
 10
101.851916946809
 20
-112.4862839305209
 30
0.0
  0
VERTEX
  5
B0
  8
DEFAULT
 10
101.7442944103592
 20
-112.6068315081369
 30
0.0
  0
VERTEX
  5
B1
  8
DEFAULT
 10
101.6354078782777
 20
-112.7229342649462
 30
0.0
  0
VERTEX
  5
B2
  8
DEFAULT
 10
101.5253239462143
 20
-112.8345727222274
 30
0.0
  0
VERTEX
  5
B3
  8
DEFAULT
 10
101.4141096133792
 20
-112.9417321619239
 30
0.0
  0
VERTEX
  5
B4
  8
DEFAULT
 10
101.3018321634973
 20
-113.0444025773006
 30
0.0
  0
VERTEX
  5
B5
  8
DEFAULT
 10
101.1885590473219
 20
-113.1425786126912
 30
0.0
  0
VERTEX
  5
B6
  8
DEFAULT
 10
101.0743577670858
 20
-113.2362594927992
 30
0.0
  0
VERTEX
  5
B7
  8
DEFAULT
 10
100.9592957632467
 20
-113.325448942047
 30
0.0
  0
VERTEX
  5
B8
  8
DEFAULT
 10
100.8434403038634
 20
-113.4101550945028
 30
0.0
  0
VERTEX
  5
B9
  8
DEFAULT
 10
100.7268583769194
 20
-113.4903903949422
 30
0.0
  0
VERTEX
  5
BA
  8
DEFAULT
 10
100.6096165858832
 20
-113.5661714916264
 30
0.0
  0
VERTEX
  5
BB
  8
DEFAULT
 10
100.4917810487764
 20
-113.6375191213962
 30
0.0
  0
VERTEX
  5
BC
  8
DEFAULT
 10
100.37341730099
 20
-113.7044579876994
 30
0.0
  0
VERTEX
  5
BD
  8
DEFAULT
 10
100.2545902020689
 20
-113.7670166321784
 30
0.0
  0
VERTEX
  5
BE
  8
DEFAULT
 10
100.1353638466553
 20
-113.8252273004525
 30
0.0
  0
VERTEX
  5
BF
  8
DEFAULT
 10
100.0158014797606
 20
-113.8791258027343
 30
0.0
 42
0.299154869989654
  0
VERTEX
  5
C0
  8
DEFAULT
 10
97.00000000000001
 20
-118.4685654452485
 30
0.0
  0
VERTEX
  5
C1
  8
DEFAULT
 10
97.0
 20
-119.0
 30
0.0
 42
-0.4142135623730852
  0
VERTEX
  5
C2
  8
DEFAULT
 10
94.0
 20
-122.0
 30
0.0
  0
VERTEX
  5
C3
  8
DEFAULT
 10
59.99999999999985
 20
-122.0
 30
0.0
 42
-0.4142135623730865
  0
VERTEX
  5
C4
  8
DEFAULT
 10
56.99999999999999
 20
-119.0
 30
0.0
  0
VERTEX
  5
C5
  8
DEFAULT
 10
57.0
 20
-114.0
 30
0.0
 42
-0.4142135623730947
  0
VERTEX
  5
C6
  8
DEFAULT
 10
61.99999999999999
 20
-109.0
 30
0.0
  0
VERTEX
  5
C7
  8
DEFAULT
 10
64.59867081881718
 20
-109.0
 30
0.0
 42
-0.2083325086612942
  0
VERTEX
  5
C8
  8
DEFAULT
 10
68.25977948509151
 20
-110.5946683959222
 30
0.0
 42
0.4310792259227481
  0
VERTEX
  5
C9
  8
DEFAULT
 10
86.60919411741833
 20
-110.7334175745346
 30
0.0
 42
0.1934453727308076
  0
VERTEX
  5
CA
  8
DEFAULT
 10
87.99999999999997
 20
-107.2731115443124
 30
0.0
  0
VERTEX
  5
CB
  8
DEFAULT
 10
87.99999999999999
 20
-106.0000000000001
 30
0.0
 42
0.4142135623730957
  0
VERTEX
  5
CC
  8
DEFAULT
 10
82.99999999999997
 20
-101.0
 30
0.0
  0
VERTEX
  5
CD
  8
DEFAULT
 10
62.00000000000005
 20
-101.0000000000001
 30
0.0
 42
-0.414213562373095
  0
VERTEX
  5
CE
  8
DEFAULT
 10
57.00000000000001
 20
-96.00000000000004
 30
0.0
  0
VERTEX
  5
CF
  8
DEFAULT
 10
57.0
 20
23.00000000000001
 30
0.0
 42
-0.4142135623730959
  0
VERTEX
  5
D0
  8
DEFAULT
 10
60.0
 20
26.00000000000001
 30
0.0
  0
VERTEX
  5
D1
  8
DEFAULT
 10
94.0
 20
25.99999999999999
 30
0.0
 42
-0.4142135623730988
  0
VERTEX
  5
D2
  8
DEFAULT
 10
97.00000000000001
 20
22.99999999999996
 30
0.0
  0
SEQEND
  5
D3
  8
DEFAULT
  0
POLYLINE
  5
D4
  8
DEFAULT
 66
     1
 10
0.0
 20
0.0
 30
0.0
 70
     1
  0
VERTEX
  5
D5
  8
DEFAULT
 10
85.0
 20
-6.999999999999999
 30
0.0
  0
VERTEX
  5
D6
  8
DEFAULT
 10
85.0
 20
7.0
 30
0.0
 42
0.4142135623730936
  0
VERTEX
  5
D7
  8
DEFAULT
 10
82.0
 20
10.0
 30
0.0
  0
VERTEX
  5
D8
  8
DEFAULT
 10
72.0
 20
10.0
 30
0.0
 42
0.414213562373095
  0
VERTEX
  5
D9
  8
DEFAULT
 10
69.0
 20
6.999999999999999
 30
0.0
  0
VERTEX
  5
DA
  8
DEFAULT
 10
69.0
 20
-6.999999999999993
 30
0.0
 42
0.4142135623730943
  0
VERTEX
  5
DB
  8
DEFAULT
 10
72.0
 20
-9.999999999999996
 30
0.0
  0
VERTEX
  5
DC
  8
DEFAULT
 10
82.0
 20
-10.0
 30
0.0
 42
0.414213562373095
  0
SEQEND
  5
DD
  8
DEFAULT
  0
ENDSEC
  0
EOF
