  0
SECTION
  2
HEADER
  9
$ACADVER
  1
AC1009
  9
$DWGCODEPAGE
  3
ansi_1252
  9
$INSBASE
 10
0.0
 20
0.0
 30
0.0
  9
$EXTMIN
 10
-93.78758723181852
 20
-24.71627020596505
 30
0.0
  9
$EXTMAX
 10
76.98278488707464
 20
66.42353572882222
 30
0.0
  9
$LIMMIN
 10
0.0
 20
0.0
  9
$LIMMAX
 10
12.0
 20
9.0
  9
$ORTHOMODE
 70
     0
  9
$REGENMODE
 70
     1
  9
$FILLMODE
 70
     1
  9
$QTEXTMODE
 70
     0
  9
$MIRRTEXT
 70
     1
  9
$DRAGMODE
 70
     2
  9
$LTSCALE
 40
1.0
  9
$OSMODE
 70
    37
  9
$ATTMODE
 70
     1
  9
$TEXTSIZE
 40
0.2
  9
$TRACEWID
 40
0.05
  9
$TEXTSTYLE
  7
STANDARD
  9
$CLAYER
  8
DEFAULT
  9
$CELTYPE
  6
BYLAYER
  9
$CECOLOR
 62
   256
  9
$DIMSCALE
 40
1.0
  9
$DIMASZ
 40
0.18
  9
$DIMEXO
 40
0.0625
  9
$DIMDLI
 40
0.38
  9
$DIMRND
 40
0.0
  9
$DIMDLE
 40
0.0
  9
$DIMEXE
 40
0.18
  9
$DIMTP
 40
0.0
  9
$DIMTM
 40
0.0
  9
$DIMTXT
 40
0.18
  9
$DIMCEN
 40
0.09
  9
$DIMTSZ
 40
0.0
  9
$DIMTOL
 70
     0
  9
$DIMLIM
 70
     0
  9
$DIMTIH
 70
     1
  9
$DIMTOH
 70
     1
  9
$DIMSE1
 70
     0
  9
$DIMSE2
 70
     0
  9
$DIMTAD
 70
     0
  9
$DIMZIN
 70
     0
  9
$DIMBLK
  1

  9
$DIMASO
 70
     1
  9
$DIMSHO
 70
     1
  9
$DIMPOST
  1

  9
$DIMAPOST
  1

  9
$DIMALT
 70
     0
  9
$DIMALTD
 70
     2
  9
$DIMALTF
 40
25.4
  9
$DIMLFAC
 40
1.0
  9
$DIMTOFL
 70
     0
  9
$DIMTVP
 40
0.0
  9
$DIMTIX
 70
     0
  9
$DIMSOXD
 70
     0
  9
$DIMSAH
 70
     0
  9
$DIMBLK1
  1

  9
$DIMBLK2
  1

  9
$DIMSTYLE
  2
STANDARD_ACAD
  9
$DIMCLRD
 70
     0
  9
$DIMCLRE
 70
     0
  9
$DIMCLRT
 70
     0
  9
$DIMTFAC
 40
1.0
  9
$DIMGAP
 40
0.09
  9
$LUNITS
 70
     2
  9
$LUPREC
 70
     3
  9
$SKETCHINC
 40
0.1
  9
$FILLETRAD
 40
0.0
  9
$AUNITS
 70
     0
  9
$AUPREC
 70
     0
  9
$MENU
  1
.
  9
$ELEVATION
 40
0.0
  9
$PELEVATION
 40
0.0
  9
$THICKNESS
 40
0.0
  9
$LIMCHECK
 70
     0
  9
$CHAMFERA
 40
0.0
  9
$CHAMFERB
 40
0.0
  9
$SKPOLY
 70
     0
  9
$TDCREATE
 40
2460728.674354919
  9
$TDUPDATE
 40
2460728.674365116
  9
$TDINDWG
 40
0.0000000116
  9
$TDUSRTIMER
 40
0.0000000116
  9
$USRTIMER
 70
     1
  9
$ANGBASE
 50
0.0
  9
$ANGDIR
 70
     0
  9
$PDMODE
 70
     0
  9
$PDSIZE
 40
0.0
  9
$PLINEWID
 40
0.0
  9
$COORDS
 70
     1
  9
$SPLFRAME
 70
     0
  9
$SPLINETYPE
 70
     6
  9
$SPLINESEGS
 70
     8
  9
$ATTDIA
 70
     0
  9
$ATTREQ
 70
     1
  9
$HANDLING
 70
     1
  9
$HANDSEED
  5
715
  9
$SURFTAB1
 70
     6
  9
$SURFTAB2
 70
     6
  9
$SURFTYPE
 70
     6
  9
$SURFU
 70
     6
  9
$SURFV
 70
     6
  9
$UCSNAME
  2

  9
$UCSORG
 10
0.0
 20
0.0
 30
0.0
  9
$UCSXDIR
 10
1.0
 20
0.0
 30
0.0
  9
$UCSYDIR
 10
0.0
 20
1.0
 30
0.0
  9
$PUCSNAME
  2

  9
$PUCSORG
 10
0.0
 20
0.0
 30
0.0
  9
$PUCSXDIR
 10
1.0
 20
0.0
 30
0.0
  9
$PUCSYDIR
 10
0.0
 20
1.0
 30
0.0
  9
$USERI1
 70
     0
  9
$USERI2
 70
     0
  9
$USERI3
 70
     0
  9
$USERI4
 70
     0
  9
$USERI5
 70
     0
  9
$USERR1
 40
0.0
  9
$USERR2
 40
0.0
  9
$USERR3
 40
0.0
  9
$USERR4
 40
0.0
  9
$USERR5
 40
0.0
  9
$WORLDVIEW
 70
     1
  9
$SHADEDGE
 70
     3
  9
$SHADEDIF
 70
    70
  9
$TILEMODE
 70
     1
  9
$MAXACTVP
 70
    64
  9
$PLIMCHECK
 70
     0
  9
$PEXTMIN
 10
1.000000000000000E+20
 20
1.000000000000000E+20
 30
1.000000000000000E+20
  9
$PEXTMAX
 10
-1.000000000000000E+20
 20
-1.000000000000000E+20
 30
-1.000000000000000E+20
  9
$PLIMMIN
 10
0.0
 20
0.0
  9
$PLIMMAX
 10
12.0
 20
9.0
  9
$UNITMODE
 70
     0
  9
$VISRETAIN
 70
     1
  9
$PLINEGEN
 70
     0
  9
$PSLTSCALE
 70
     1
  0
ENDSEC
  0
SECTION
  2
TABLES
  0
TABLE
  2
VPORT
 70
     1
  0
VPORT
  2
*ACTIVE
 70
     0
 10
0.0
 20
0.0
 11
1.0
 21
1.0
 12
10.42990654205607
 22
4.5
 13
0.0
 23
0.0
 14
0.5
 24
0.5
 15
0.5
 25
0.5
 16
0.0
 26
0.0
 36
1.0
 17
0.0
 27
0.0
 37
0.0
 40
9.0
 41
1.972972972850329
 42
50.0
 43
0.0
 44
0.0
 50
0.0
 51
0.0
 71
     0
 72
   100
 73
     1
 74
     3
 75
     0
 76
     0
 77
     0
 78
     0
  0
ENDTAB
  0
TABLE
  2
LTYPE
 70
     1
  0
LTYPE
  2
CONTINUOUS
 70
     0
  3
Solid line
 72
    65
 73
     0
 40
0.0
  0
ENDTAB
  0
TABLE
  2
LAYER
 70
     2
  0
LAYER
  2
0
 70
     0
 62
     7
  6
CONTINUOUS
  0
LAYER
  2
DEFAULT
 70
     0
 62
     7
  6
CONTINUOUS
  0
ENDTAB
  0
TABLE
  2
STYLE
 70
     1
  0
STYLE
  2
STANDARD
 70
     0
 40
0.0
 41
1.0
 50
0.0
 71
     0
 42
0.2
  3
txt
  4

  0
ENDTAB
  0
TABLE
  2
VIEW
 70
     0
  0
ENDTAB
  0
TABLE
  2
UCS
 70
     0
  0
ENDTAB
  0
TABLE
  2
APPID
 70
     2
  0
APPID
  2
ACAD
 70
     0
  0
APPID
  2
RHINO
 70
     0
  0
ENDTAB
  0
TABLE
  2
DIMSTYLE
 70
     1
  0
DIMSTYLE
  2
STANDARD_ACAD
 70
     0
  3

  4

  5

  6

  7

 40
1.0
 41
0.18
 42
0.0625
 43
0.38
 44
0.18
 45
0.0
 46
0.0
 47
0.0
 48
0.0
140
0.18
141
0.09
142
0.0
143
25.4
144
1.0
145
0.0
146
1.0
147
0.09
 71
     0
 72
     0
 73
     1
 74
     1
 75
     0
 76
     0
 77
     0
 78
     0
170
     0
171
     2
172
     0
173
     0
174
     0
175
     0
176
     0
177
     0
178
     0
  0
ENDTAB
  0
ENDSEC
  0
SECTION
  2
BLOCKS
  0
BLOCK
  8
0
  2
$MODEL_SPACE
 70
     0
 10
0.0
 20
0.0
 30
0.0
  3
$MODEL_SPACE
  1

  0
ENDBLK
  5
21
  8
0
  0
BLOCK
 67
     1
  8
0
  2
$PAPER_SPACE
 70
     0
 10
0.0
 20
0.0
 30
0.0
  3
$PAPER_SPACE
  1

  0
ENDBLK
  5
1D
 67
     1
  8
0
  0
ENDSEC
  0
SECTION
  2
ENTITIES
  0
POLYLINE
  5
60
  8
DEFAULT
 66
     1
 10
0.0
 20
0.0
 30
0.0
 70
     1
  0
VERTEX
  5
61
  8
DEFAULT
 10
42.78338886985149
 20
45.10934700148159
 30
0.0
 42
0.2134217652834147
  0
VERTEX
  5
62
  8
DEFAULT
 10
43.15606686610145
 20
45.27601366814827
 30
0.0
 42
-1.057279696267497
  0
VERTEX
  5
63
  8
DEFAULT
 10
43.50907253089305
 20
44.92300800335659
 30
0.0
  0
VERTEX
  5
64
  8
DEFAULT
 10
43.36074786979106
 20
44.68451486615
 30
0.0
 42
0.4962263674883658
  0
VERTEX
  5
65
  8
DEFAULT
 10
43.55341106756522
 20
44.43084092253268
 30
0.0
  0
VERTEX
  5
66
  8
DEFAULT
 10
45.34240586422642
 20
44.43084092253268
 30
0.0
  0
VERTEX
  5
67
  8
DEFAULT
 10
45.34240586422642
 20
46.4235357288221
 30
0.0
 42
0.414213562373072
  0
VERTEX
  5
68
  8
DEFAULT
 10
44.34240586422639
 20
47.42353572882199
 30
0.0
  0
VERTEX
  5
69
  8
DEFAULT
 10
25.34577431627225
 20
47.93122213258727
 30
0.0
 42
-0.4019405198271866
  0
VERTEX
  5
6A
  8
DEFAULT
 10
24.34577431627224
 20
48.67784167902857
 30
0.0
  0
VERTEX
  5
6B
  8
DEFAULT
 10
24.34577431627225
 20
50.17653497232608
 30
0.0
 42
-0.4019405198271812
  0
VERTEX
  5
6C
  8
DEFAULT
 10
25.34577431627226
 20
50.92315451876738
 30
0.0
  0
VERTEX
  5
6D
  8
DEFAULT
 10
44.34240586422642
 20
51.43084092253268
 30
0.0
 42
0.4142135623730816
  0
VERTEX
  5
6E
  8
DEFAULT
 10
45.34240586422643
 20
52.43084092253268
 30
0.0
  0
VERTEX
  5
6F
  8
DEFAULT
 10
45.34240586422642
 20
54.42353572882199
 30
0.0
  0
VERTEX
  5
70
  8
DEFAULT
 10
43.5534110675668
 20
54.42353572882199
 30
0.0
 42
0.4962263674862534
  0
VERTEX
  5
71
  8
DEFAULT
 10
43.36074786979233
 20
54.1698617852059
 30
0.0
  0
VERTEX
  5
72
  8
DEFAULT
 10
43.50907253089377
 20
53.9313686479974
 30
0.0
 42
-1.057279696265593
  0
VERTEX
  5
73
  8
DEFAULT
 10
43.15606686610138
 20
53.57836298320638
 30
0.0
 42
0.2134217652836716
  0
VERTEX
  5
74
  8
DEFAULT
 10
42.78338886985147
 20
53.74502964987305
 30
0.0
  0
VERTEX
  5
75
  8
DEFAULT
 10
41.40142285860136
 20
53.74502964987306
 30
0.0
 42
0.2134217652833885
  0
VERTEX
  5
76
  8
DEFAULT
 10
41.02874486235145
 20
53.57836298320646
 30
0.0
 42
-1.057279696267154
  0
VERTEX
  5
77
  8
DEFAULT
 10
40.67573919755976
 20
53.93136864799811
 30
0.0
  0
VERTEX
  5
78
  8
DEFAULT
 10
40.82406385866177
 20
54.16986178520446
 30
0.0
 42
0.4962263674884102
  0
VERTEX
  5
79
  8
DEFAULT
 10
40.63140066088761
 20
54.42353572882199
 30
0.0
  0
VERTEX
  5
7A
  8
DEFAULT
 10
-68.85728268987259
 20
54.42353572882199
 30
0.0
  0
VERTEX
  5
7B
  8
DEFAULT
 10
-69.06841245087651
 20
54.42108579611768
 30
0.0
  0
VERTEX
  5
7C
  8
DEFAULT
 10
-69.28104198989399
 20
54.41368196551629
 30
0.0
  0
VERTEX
  5
7D
  8
DEFAULT
 10
-69.49508031450972
 20
54.401245892034
 30
0.0
  0
VERTEX
  5
7E
  8
DEFAULT
 10
-69.71043289324189
 20
54.38370302922188
 30
0.0
  0
VERTEX
  5
7F
  8
DEFAULT
 10
-69.92700173326762
 20
54.36098286891958
 30
0.0
  0
VERTEX
  5
80
  8
DEFAULT
 10
-70.1446854702213
 20
54.33301917752978
 30
0.0
  0
VERTEX
  5
81
  8
DEFAULT
 10
-70.36337947016739
 20
54.2997502277651
 30
0.0
  0
VERTEX
  5
82
  8
DEFAULT
 10
-70.58297594378121
 20
54.26111902479708
 30
0.0
  0
VERTEX
  5
83
  8
DEFAULT
 10
-70.80336407271602
 20
54.21707352572838
 30
0.0
  0
VERTEX
  5
84
  8
DEFAULT
 10
-71.02443014806414
 20
54.16756685129458
 30
0.0
  0
VERTEX
  5
85
  8
DEFAULT
 10
-71.24605772075631
 20
54.11255748870759
 30
0.0
  0
VERTEX
  5
86
  8
DEFAULT
 10
-71.46812776367301
 20
54.05200948455929
 30
0.0
  0
VERTEX
  5
87
  8
DEFAULT
 10
-71.6905188451704
 20
53.98589262671578
 30
0.0
  0
VERTEX
  5
88
  8
DEFAULT
 10
-71.9131073136549
 20
53.9141826141598
 30
0.0
  0
VERTEX
  5
89
  8
DEFAULT
 10
-72.13576749276632
 20
53.83686121376628
 30
0.0
  0
VERTEX
  5
8A
  8
DEFAULT
 10
-72.3583718866634
 20
53.7539164030391
 30
0.0
  0
VERTEX
  5
8B
  8
DEFAULT
 10
-72.58079139483073
 20
53.6653424978784
 30
0.0
  0
VERTEX
  5
8C
  8
DEFAULT
 10
-72.80289553576341
 20
53.57114026451019
 30
0.0
  0
VERTEX
  5
8D
  8
DEFAULT
 10
-73.0245526788176
 20
53.47131701476648
 30
0.0
  0
VERTEX
  5
8E
  8
DEFAULT
 10
-73.24563028345483
 20
53.36588668397819
 30
0.0
  0
VERTEX
  5
8F
  8
DEFAULT
 10
-73.4659951450484
 20
53.25486989082006
 30
0.0
  0
VERTEX
  5
90
  8
DEFAULT
 10
-73.68551364636744
 20
53.13829397852898
 30
0.0
  0
VERTEX
  5
91
  8
DEFAULT
 10
-73.90405201380361
 20
53.01619303701018
 30
0.0
  0
VERTEX
  5
92
  8
DEFAULT
 10
-74.1214765773642
 20
52.88860790543789
 30
0.0
  0
VERTEX
  5
93
  8
DEFAULT
 10
-74.33765403341522
 20
52.7555861550603
 30
0.0
  0
VERTEX
  5
94
  8
DEFAULT
 10
-74.55245170912951
 20
52.61718205202108
 30
0.0
  0
VERTEX
  5
95
  8
DEFAULT
 10
-74.7657378275693
 20
52.47345650011788
 30
0.0
  0
VERTEX
  5
96
  8
DEFAULT
 10
-74.97738177231503
 20
52.32447696352479
 30
0.0
  0
VERTEX
  5
97
  8
DEFAULT
 10
-75.1872543505458
 20
52.17031736962238
 30
0.0
  0
VERTEX
  5
98
  8
DEFAULT
 10
-75.39522805347099
 20
52.01105799218259
 30
0.0
  0
VERTEX
  5
99
  8
DEFAULT
 10
-75.60117731302205
 20
51.84678531527108
 30
0.0
  0
VERTEX
  5
9A
  8
DEFAULT
 10
-75.80497875372401
 20
51.67759187833629
 30
0.0
  0
VERTEX
  5
9B
  8
DEFAULT
 10
-76.00651143869175
 20
51.50357610306038
 30
0.0
  0
VERTEX
  5
9C
  8
DEFAULT
 10
-76.20565710871944
 20
51.3248421026497
 30
0.0
  0
VERTEX
  5
9D
  8
DEFAULT
 10
-76.40230041347513
 20
51.14149947433978
 30
0.0
  0
VERTEX
  5
9E
  8
DEFAULT
 10
-76.59632913384803
 20
50.9536630759837
 30
0.0
  0
VERTEX
  5
9F
  8
DEFAULT
 10
-76.7876343945536
 20
50.76145278767528
 30
0.0
  0
VERTEX
  5
A0
  8
DEFAULT
 10
-76.976110866152
 20
50.56499325944269
 30
0.0
  0
VERTEX
  5
A1
  8
DEFAULT
 10
-77.16165695570135
 20
50.36441364611538
 30
0.0
  0
VERTEX
  5
A2
  8
DEFAULT
 10
-77.34417498533134
 20
50.1598473305328
 30
0.0
  0
VERTEX
  5
A3
  8
DEFAULT
 10
-77.52357135809763
 20
49.9514316363162
 30
0.0
  0
VERTEX
  5
A4
  8
DEFAULT
 10
-77.69975671055045
 20
49.7393075314731
 30
0.0
  0
VERTEX
  5
A5
  8
DEFAULT
 10
-78.04215888677453
 20
49.304514351778
 30
0.0
  0
VERTEX
  5
A6
  8
DEFAULT
 10
-78.37075619347922
 20
48.85665670881069
 30
0.0
  0
VERTEX
  5
A7
  8
DEFAULT
 10
-78.6849984291029
 20
48.3969617967757
 30
0.0
  0
VERTEX
  5
A8
  8
DEFAULT
 10
-78.9844128457691
 20
47.9266847764972
 30
0.0
  0
VERTEX
  5
A9
  8
DEFAULT
 10
-79.26860552987512
 20
47.44709847544529
 30
0.0
  0
VERTEX
  5
AA
  8
DEFAULT
 10
-79.53726184440052
 20
46.9594832601221
 30
0.0
  0
VERTEX
  5
AB
  8
DEFAULT
 10
-79.79014596760192
 20
46.46511723159847
 30
0.0
  0
VERTEX
  5
AC
  8
DEFAULT
 10
-80.0270995795953
 20
45.96526688030009
 30
0.0
  0
VERTEX
  5
AD
  8
DEFAULT
 10
-80.24803976274853
 20
45.46117831878918
 30
0.0
  0
VERTEX
  5
AE
  8
DEFAULT
 10
-80.45295619353101
 20
44.95406919202769
 30
0.0
  0
VERTEX
  5
AF
  8
DEFAULT
 10
-80.64190771232512
 20
44.44512134421518
 30
0.0
  0
VERTEX
  5
B0
  8
DEFAULT
 10
-89.0502811551944
 20
25.0435733383308
 30
0.0
  0
VERTEX
  5
B1
  8
DEFAULT
 10
-90.42921876270071
 20
22.08583022609089
 30
0.0
  0
VERTEX
  5
B2
  8
DEFAULT
 10
-91.00208085165053
 20
20.90976610638988
 30
0.0
  0
VERTEX
  5
B3
  8
DEFAULT
 10
-91.49600210383682
 20
19.9381465974234
 30
0.0
  0
VERTEX
  5
B4
  8
DEFAULT
 10
-91.91034016194152
 20
19.17222751304059
 30
0.0
  0
VERTEX
  5
B5
  8
DEFAULT
 10
-92.08752255312413
 20
18.86664875609019
 30
0.0
  0
VERTEX
  5
B6
  8
DEFAULT
 10
-92.24466421201993
 20
18.61271832904218
 30
0.0
  0
VERTEX
  5
B7
  8
DEFAULT
 10
-92.31571281761364
 20
18.5051235213969
 30
0.0
  0
VERTEX
  5
B8
  8
DEFAULT
 10
-92.38174456652473
 20
18.41043925911229
 30
0.0
  0
VERTEX
  5
B9
  8
DEFAULT
 10
-92.41287893385993
 20
18.36793711563989
 30
0.0
  0
VERTEX
  5
BA
  8
DEFAULT
 10
-92.44275896783029
 20
18.32866058220129
 30
0.0
  0
VERTEX
  5
BB
  8
DEFAULT
 10
-92.4713847367974
 20
18.29260870646668
 30
0.0
  0
VERTEX
  5
BC
  8
DEFAULT
 10
-92.49875636092088
 20
18.2597804035113
 30
0.0
  0
VERTEX
  5
BD
  8
DEFAULT
 10
-92.52487401210249
 20
18.2301744560158
 30
0.0
  0
VERTEX
  5
BE
  8
DEFAULT
 10
-92.53746266569203
 20
18.21657944900359
 30
0.0
  0
VERTEX
  5
BF
  8
DEFAULT
 10
-92.54973791392229
 20
18.2037895144792
 30
0.0
  0
VERTEX
  5
C0
  8
DEFAULT
 10
-92.56169979280469
 20
18.19180446313878
 30
0.0
  0
VERTEX
  5
C1
  8
DEFAULT
 10
-92.57334834157155
 20
18.18062409744668
 30
0.0
  0
VERTEX
  5
C2
  8
DEFAULT
 10
-92.58468360267392
 20
18.1702482116424
 30
0.0
  0
VERTEX
  5
C3
  8
DEFAULT
 10
-92.59570562177919
 20
18.16067659174938
 30
0.0
  0
VERTEX
  5
C4
  8
DEFAULT
 10
-92.60641444776871
 20
18.15190901558269
 30
0.0
  0
VERTEX
  5
C5
  8
DEFAULT
 10
-92.61681013273443
 20
18.143945252758
 30
0.0
  0
VERTEX
  5
C6
  8
DEFAULT
 10
-92.62689273197668
 20
18.13678506469959
 30
0.0
  0
VERTEX
  5
C7
  8
DEFAULT
 10
-92.63666230400179
 20
18.13042820464979
 30
0.0
  0
VERTEX
  5
C8
  8
DEFAULT
 10
-92.64611891051823
 20
18.1248744176777
 30
0.0
  0
VERTEX
  5
C9
  8
DEFAULT
 10
-92.65526261643413
 20
18.1201234406886
 30
0.0
  0
VERTEX
  5
CA
  8
DEFAULT
 10
-92.66409348985451
 20
18.11617500243328
 30
0.0
  0
VERTEX
  5
CB
  8
DEFAULT
 10
-92.67261160207761
 20
18.11302882351798
 30
0.0
  0
VERTEX
  5
CC
  8
DEFAULT
 10
-92.76706153729563
 20
18.03677736509819
 30
0.0
  0
VERTEX
  5
CD
  8
DEFAULT
 10
-92.85806338900562
 20
17.95976242177058
 30
0.0
  0
VERTEX
  5
CE
  8
DEFAULT
 10
-92.94547532895152
 20
17.88205569822468
 30
0.0
  0
VERTEX
  5
CF
  8
DEFAULT
 10
-93.02916078534591
 20
17.80373158138589
 30
0.0
  0
VERTEX
  5
D0
  8
DEFAULT
 10
-93.10898903579582
 20
17.72486692975347
 30
0.0
  0
VERTEX
  5
D1
  8
DEFAULT
 10
-93.18483578269482
 20
17.64554084458608
 30
0.0
  0
VERTEX
  5
D2
  8
DEFAULT
 10
-93.25658370629813
 20
17.5658344241822
 30
0.0
  0
VERTEX
  5
D3
  8
DEFAULT
 10
-93.32412299078581
 20
17.48583050270967
 30
0.0
  0
VERTEX
  5
D4
  8
DEFAULT
 10
-93.38735181876982
 20
17.4056133752337
 30
0.0
  0
VERTEX
  5
D5
  8
DEFAULT
 10
-93.41732029437682
 20
17.36545153051368
 30
0.0
  0
VERTEX
  5
D6
  8
DEFAULT
 10
-93.44617682991722
 20
17.3252685107655
 30
0.0
  0
VERTEX
  5
D7
  8
DEFAULT
 10
-93.47391114546554
 20
17.28507513432019
 30
0.0
  0
VERTEX
  5
D8
  8
DEFAULT
 10
-93.50051353963792
 20
17.2448822553133
 30
0.0
  0
VERTEX
  5
D9
  8
DEFAULT
 10
-93.52597490023402
 20
17.20470075400858
 30
0.0
  0
VERTEX
  5
DA
  8
DEFAULT
 10
-93.55028671412103
 20
17.1645415270513
 30
0.0
  0
VERTEX
  5
DB
  8
DEFAULT
 10
-93.57344107633662
 20
17.12441547766788
 30
0.0
  0
VERTEX
  5
DC
  8
DEFAULT
 10
-93.59543069839171
 20
17.0843335058331
 30
0.0
  0
VERTEX
  5
DD
  8
DEFAULT
 10
-93.61624891575451
 20
17.04430649841989
 30
0.0
  0
VERTEX
  5
DE
  8
DEFAULT
 10
-93.63588969450083
 20
17.00434531935439
 30
0.0
  0
VERTEX
  5
DF
  8
DEFAULT
 10
-93.65434763711573
 20
16.96446079979098
 30
0.0
  0
VERTEX
  5
E0
  8
DEFAULT
 10
-93.67161798743643
 20
16.9246637283285
 30
0.0
  0
VERTEX
  5
E1
  8
DEFAULT
 10
-93.68769663472531
 20
16.88496484128588
 30
0.0
  0
VERTEX
  5
E2
  8
DEFAULT
 10
-93.70258011686641
 20
16.84537481305448
 30
0.0
  0
VERTEX
  5
E3
  8
DEFAULT
 10
-93.71626562268114
 20
16.80590424654649
 30
0.0
  0
VERTEX
  5
E4
  8
DEFAULT
 10
-93.72875099335863
 20
16.76656366375649
 30
0.0
  0
VERTEX
  5
E5
  8
DEFAULT
 10
-93.74003472300151
 20
16.7273634964544
 30
0.0
  0
VERTEX
  5
E6
  8
DEFAULT
 10
-93.75011595828903
 20
16.68831407702667
 30
0.0
  0
VERTEX
  5
E7
  8
DEFAULT
 10
-93.75899449725881
 20
16.64942562948279
 30
0.0
  0
VERTEX
  5
E8
  8
DEFAULT
 10
-93.76667078721712
 20
16.61070826064228
 30
0.0
  0
VERTEX
  5
E9
  8
DEFAULT
 10
-93.77314592178243
 20
16.57217195152008
 30
0.0
  0
VERTEX
  5
EA
  8
DEFAULT
 10
-93.77842163707481
 20
16.53382654892287
 30
0.0
  0
VERTEX
  5
EB
  8
DEFAULT
 10
-93.78250030706232
 20
16.49568175727349
 30
0.0
  0
VERTEX
  5
EC
  8
DEFAULT
 10
-93.78538493807943
 20
16.45774713067418
 30
0.0
  0
VERTEX
  5
ED
  8
DEFAULT
 10
-93.78707916253353
 20
16.42003206522568
 30
0.0
  0
VERTEX
  5
EE
  8
DEFAULT
 10
-93.78758723181852
 20
16.38254579161048
 30
0.0
  0
VERTEX
  5
EF
  8
DEFAULT
 10
-93.78691400845412
 20
16.34529736795488
 30
0.0
  0
VERTEX
  5
F0
  8
DEFAULT
 10
-93.78506495747422
 20
16.30829567297918
 30
0.0
  0
VERTEX
  5
F1
  8
DEFAULT
 10
-93.78204613708672
 20
16.27154939944639
 30
0.0
  0
VERTEX
  5
F2
  8
DEFAULT
 10
-93.77786418863042
 20
16.23506704791819
 30
0.0
  0
VERTEX
  5
F3
  8
DEFAULT
 10
-93.77252632585481
 20
16.19885692082688
 30
0.0
  0
VERTEX
  5
F4
  8
DEFAULT
 10
-93.76604032355132
 20
16.16292711687039
 30
0.0
  0
VERTEX
  5
F5
  8
DEFAULT
 10
-93.75841450556331
 20
16.12728552573658
 30
0.0
  0
VERTEX
  5
F6
  8
DEFAULT
 10
-93.74965773220771
 20
16.09193982316289
 30
0.0
  0
VERTEX
  5
F7
  8
DEFAULT
 10
-93.73977938713642
 20
16.05689746633539
 30
0.0
  0
VERTEX
  5
F8
  8
DEFAULT
 10
-93.72878936367081
 20
16.02216568963139
 30
0.0
  0
VERTEX
  5
F9
  8
DEFAULT
 10
-93.71669805064292
 20
15.98775150070809
 30
0.0
  0
VERTEX
  5
FA
  8
DEFAULT
 10
-93.70351631777493
 20
15.95366167693949
 30
0.0
  0
VERTEX
  5
FB
  8
DEFAULT
 10
-93.68925550063193
 20
15.91990276220258
 30
0.0
  0
VERTEX
  5
FC
  8
DEFAULT
 10
-93.67392738518242
 20
15.88648106401268
 30
0.0
  0
VERTEX
  5
FD
  8
DEFAULT
 10
-93.65754419200022
 20
15.85340265100768
 30
0.0
  0
VERTEX
  5
FE
  8
DEFAULT
 10
-93.64011856014383
 20
15.82067335077919
 30
0.0
  0
VERTEX
  5
FF
  8
DEFAULT
 10
-93.62166353074772
 20
15.78829874804909
 30
0.0
  0
VERTEX
  5
100
  8
DEFAULT
 10
-93.60219253035962
 20
15.75628418318739
 30
0.0
  0
VERTEX
  5
101
  8
DEFAULT
 10
-93.58171935405991
 20
15.72463475106819
 30
0.0
  0
VERTEX
  5
102
  8
DEFAULT
 10
-93.56025814839643
 20
15.69335530025909
 30
0.0
  0
VERTEX
  5
103
  8
DEFAULT
 10
-93.54759083462693
 20
15.67576813361569
 30
0.0
  0
VERTEX
  5
104
  8
DEFAULT
 10
-93.53446148765622
 20
15.65824126204699
 30
0.0
  0
VERTEX
  5
105
  8
DEFAULT
 10
-93.52086880783654
 20
15.64077644303919
 30
0.0
  0
VERTEX
  5
106
  8
DEFAULT
 10
-93.50681156324262
 20
15.62337543582919
 30
0.0
  0
VERTEX
  5
107
  8
DEFAULT
 10
-93.49228859058744
 20
15.60604000093419
 30
0.0
  0
VERTEX
  5
108
  8
DEFAULT
 10
-93.47729879611691
 20
15.58877189967569
 30
0.0
  0
VERTEX
  5
109
  8
DEFAULT
 10
-93.44591471961513
 20
15.55444474448299
 30
0.0
  0
VERTEX
  5
10A
  8
DEFAULT
 10
-93.41265200712553
 20
15.52040805850609
 30
0.0
  0
VERTEX
  5
10B
  8
DEFAULT
 10
-93.37750449839561
 20
15.48667591159349
 30
0.0
  0
VERTEX
  5
10C
  8
DEFAULT
 10
-93.34046722437583
 20
15.45326233915739
 30
0.0
  0
VERTEX
  5
10D
  8
DEFAULT
 10
-93.30153643050824
 20
15.42018132591039
 30
0.0
  0
VERTEX
  5
10E
  8
DEFAULT
 10
-93.26070959837642
 20
15.38744678940149
 30
0.0
  0
VERTEX
  5
10F
  8
DEFAULT
 10
-93.21798546562843
 20
15.35507256338859
 30
0.0
  0
VERTEX
  5
110
  8
DEFAULT
 10
-93.17336404409312
 20
15.32307238108049
 30
0.0
  0
VERTEX
  5
111
  8
DEFAULT
 10
-93.12684663601553
 20
15.29145985828958
 30
0.0
  0
VERTEX
  5
112
  8
DEFAULT
 10
-93.07843584833492
 20
15.26024847653099
 30
0.0
  0
VERTEX
  5
113
  8
DEFAULT
 10
-93.02813560494093
 20
15.22945156610808
 30
0.0
  0
VERTEX
  5
114
  8
DEFAULT
 10
-92.97595115684382
 20
15.19908228922689
 30
0.0
  0
VERTEX
  5
115
  8
DEFAULT
 10
-92.92188909020192
 20
15.16915362317658
 30
0.0
  0
VERTEX
  5
116
  8
DEFAULT
 10
-92.86595733215691
 20
15.13967834362128
 30
0.0
  0
VERTEX
  5
117
  8
DEFAULT
 10
-92.80816515442902
 20
15.11066900804249
 30
0.0
  0
VERTEX
  5
118
  8
DEFAULT
 10
-92.74852317463694
 20
15.08213793937459
 30
0.0
  0
VERTEX
  5
119
  8
DEFAULT
 10
-92.68704335530856
 20
15.05409720987619
 30
0.0
  0
VERTEX
  5
11A
  8
DEFAULT
 10
-92.55862475041954
 20
14.99953370924959
 30
0.0
  0
VERTEX
  5
11B
  8
DEFAULT
 10
-92.42303175311173
 20
14.94706947662789
 30
0.0
  0
VERTEX
  5
11C
  8
DEFAULT
 10
-92.28040783768654
 20
14.89679049382059
 30
0.0
  0
VERTEX
  5
11D
  8
DEFAULT
 10
-92.13091709406274
 20
14.8487773034603
 30
0.0
  0
VERTEX
  5
11E
  8
DEFAULT
 10
-91.9747436340648
 20
14.80310459130649
 30
0.0
  0
VERTEX
  5
11F
  8
DEFAULT
 10
-91.81209085343181
 20
14.75984080581669
 30
0.0
  0
VERTEX
  5
120
  8
DEFAULT
 10
-91.64318055556231
 20
14.71904781899158
 30
0.0
  0
VERTEX
  5
121
  8
DEFAULT
 10
-91.46825194485314
 20
14.68078063199829
 30
0.0
  0
VERTEX
  5
122
  8
DEFAULT
 10
-91.2875604992048
 20
14.64508712850279
 30
0.0
  0
VERTEX
  5
123
  8
DEFAULT
 10
-91.10137673283333
 20
14.61200787803209
 30
0.0
  0
VERTEX
  5
124
  8
DEFAULT
 10
-90.71368138665548
 20
14.55381702656049
 30
0.0
  0
VERTEX
  5
125
  8
DEFAULT
 10
-90.3075780702103
 20
14.50638216152809
 30
0.0
  0
VERTEX
  5
126
  8
DEFAULT
 10
-89.8856267536031
 20
14.46975654045039
 30
0.0
  0
VERTEX
  5
127
  8
DEFAULT
 10
-89.45048460120671
 20
14.44387543488499
 30
0.0
  0
VERTEX
  5
128
  8
DEFAULT
 10
-89.00485492800851
 20
14.4285619911138
 30
0.0
  0
VERTEX
  5
129
  8
DEFAULT
 10
-88.5514376256298
 20
14.42353572882196
 30
0.0
 42
0.3174170514420271
  0
VERTEX
  5
12A
  8
DEFAULT
 10
-83.839942487763
 20
17.74967385702428
 30
0.0
  0
VERTEX
  5
12B
  8
DEFAULT
 10
-77.19950892224006
 20
36.44080422113659
 30
0.0
  0
VERTEX
  5
12C
  8
DEFAULT
 10
-77.04649130259361
 20
36.99584613934537
 30
0.0
  0
VERTEX
  5
12D
  8
DEFAULT
 10
-76.87691026143796
 20
37.54888280836489
 30
0.0
  0
VERTEX
  5
12E
  8
DEFAULT
 10
-76.69060950560959
 20
38.09862534746928
 30
0.0
  0
VERTEX
  5
12F
  8
DEFAULT
 10
-76.4875009511818
 20
38.64374583278898
 30
0.0
  0
VERTEX
  5
130
  8
DEFAULT
 10
-76.26756884462651
 20
39.1828852946188
 30
0.0
  0
VERTEX
  5
131
  8
DEFAULT
 10
-76.03087330574999
 20
39.71466253981988
 30
0.0
  0
VERTEX
  5
132
  8
DEFAULT
 10
-75.7775531970525
 20
40.23768371306308
 30
0.0
  0
VERTEX
  5
133
  8
DEFAULT
 10
-75.5078282316141
 20
40.75055248841366
 30
0.0
  0
VERTEX
  5
134
  8
DEFAULT
 10
-75.2220002421032
 20
41.25188076175918
 30
0.0
  0
VERTEX
  5
135
  8
DEFAULT
 10
-75.07316450005203
 20
41.4977883892485
 30
0.0
  0
VERTEX
  5
136
  8
DEFAULT
 10
-74.9204535469247
 20
41.74029969565467
 30
0.0
  0
VERTEX
  5
137
  8
DEFAULT
 10
-74.7639282150763
 20
41.97924843012808
 30
0.0
  0
VERTEX
  5
138
  8
DEFAULT
 10
-74.60365436564405
 20
42.2144709521388
 30
0.0
  0
VERTEX
  5
139
  8
DEFAULT
 10
-74.43970281641805
 20
42.4458065802517
 30
0.0
  0
VERTEX
  5
13A
  8
DEFAULT
 10
-74.2721492542438
 20
42.67309793672368
 30
0.0
  0
VERTEX
  5
13B
  8
DEFAULT
 10
-74.1010741320901
 20
42.89619128644486
 30
0.0
  0
VERTEX
  5
13C
  8
DEFAULT
 10
-73.9265625510094
 20
43.1149368687541
 30
0.0
  0
VERTEX
  5
13D
  8
DEFAULT
 10
-73.74870412729882
 20
43.32918922067829
 30
0.0
  0
VERTEX
  5
13E
  8
DEFAULT
 10
-73.5675928452585
 20
43.53880749017439
 30
0.0
  0
VERTEX
  5
13F
  8
DEFAULT
 10
-73.38332689602572
 20
43.74365573798828
 30
0.0
  0
VERTEX
  5
140
  8
DEFAULT
 10
-73.19600850304505
 20
43.94360322680048
 30
0.0
  0
VERTEX
  5
141
  8
DEFAULT
 10
-73.00574373481334
 20
44.13852469638428
 30
0.0
  0
VERTEX
  5
142
  8
DEFAULT
 10
-72.8126423056114
 20
44.32830062356989
 30
0.0
  0
VERTEX
  5
143
  8
DEFAULT
 10
-72.61681736500532
 20
44.5128174658913
 30
0.0
  0
VERTEX
  5
144
  8
DEFAULT
 10
-72.41838527696245
 20
44.69196788787288
 30
0.0
  0
VERTEX
  5
145
  8
DEFAULT
 10
-72.21746538948781
 20
44.8656509690115
 30
0.0
  0
VERTEX
  5
146
  8
DEFAULT
 10
-72.01417979573841
 20
45.03377239260648
 30
0.0
  0
VERTEX
  5
147
  8
DEFAULT
 10
-71.80865308761634
 20
45.1962446147014
 30
0.0
  0
VERTEX
  5
148
  8
DEFAULT
 10
-71.60101210288201
 20
45.3529870125068
 30
0.0
  0
VERTEX
  5
149
  8
DEFAULT
 10
-71.39138566685904
 20
45.5039260117952
 30
0.0
  0
VERTEX
  5
14A
  8
DEFAULT
 10
-71.1799043298235
 20
45.64899519287219
 30
0.0
  0
VERTEX
  5
14B
  8
DEFAULT
 10
-70.9667001011889
 20
45.78813537485199
 30
0.0
  0
VERTEX
  5
14C
  8
DEFAULT
 10
-70.7519061815998
 20
45.9212946780831
 30
0.0
  0
VERTEX
  5
14D
  8
DEFAULT
 10
-70.53565669405293
 20
46.04842856469459
 30
0.0
  0
VERTEX
  5
14E
  8
DEFAULT
 10
-70.31808641514965
 20
46.1694998573481
 30
0.0
  0
VERTEX
  5
14F
  8
DEFAULT
 10
-70.09933050757331
 20
46.28447873640148
 30
0.0
  0
VERTEX
  5
150
  8
DEFAULT
 10
-69.8795242548569
 20
46.3933427158009
 30
0.0
  0
VERTEX
  5
151
  8
DEFAULT
 10
-69.65880279947714
 20
46.49607659812888
 30
0.0
  0
VERTEX
  5
152
  8
DEFAULT
 10
-69.43730088527712
 20
46.59267240933997
 30
0.0
  0
VERTEX
  5
153
  8
DEFAULT
 10
-69.2151526051735
 20
46.6831293138133
 30
0.0
  0
VERTEX
  5
154
  8
DEFAULT
 10
-68.99249115505444
 20
46.76745351044258
 30
0.0
  0
VERTEX
  5
155
  8
DEFAULT
 10
-68.76944859472542
 20
46.84565811057007
 30
0.0
  0
VERTEX
  5
156
  8
DEFAULT
 10
-68.54615561669783
 20
46.91776299864678
 30
0.0
  0
VERTEX
  5
157
  8
DEFAULT
 10
-68.32274132355474
 20
46.98379467656939
 30
0.0
  0
VERTEX
  5
158
  8
DEFAULT
 10
-68.09933301456465
 20
47.04378609270549
 30
0.0
  0
VERTEX
  5
159
  8
DEFAULT
 10
-67.87605598214373
 20
47.09777645666908
 30
0.0
  0
VERTEX
  5
15A
  8
DEFAULT
 10
-67.65303331870075
 20
47.14581104095238
 30
0.0
  0
VERTEX
  5
15B
  8
DEFAULT
 10
-67.43038573432545
 20
47.18794097055168
 30
0.0
  0
VERTEX
  5
15C
  8
DEFAULT
 10
-67.2082313857137
 20
47.2242230017532
 30
0.0
  0
VERTEX
  5
15D
  8
DEFAULT
 10
-66.98668571664763
 20
47.25471929125679
 30
0.0
  0
VERTEX
  5
15E
  8
DEFAULT
 10
-66.76586131028205
 20
47.2794971568287
 30
0.0
  0
VERTEX
  5
15F
  8
DEFAULT
 10
-66.54586775341704
 20
47.2986288306691
 30
0.0
  0
VERTEX
  5
160
  8
DEFAULT
 10
-66.32681151287125
 20
47.3121912066773
 30
0.0
  0
VERTEX
  5
161
  8
DEFAULT
 10
-66.10879582400213
 20
47.32026558277846
 30
0.0
  0
VERTEX
  5
162
  8
DEFAULT
 10
-65.8919205913599
 20
47.3229373994558
 30
0.0
  0
VERTEX
  5
163
  8
DEFAULT
 10
32.34240586422642
 20
44.6668777247874
 30
0.0
  0
VERTEX
  5
164
  8
DEFAULT
 10
37.74325050455641
 20
44.53436868959915
 30
0.0
  0
VERTEX
  5
165
  8
DEFAULT
 10
40.6175548688801
 20
44.45665324948507
 30
0.0
 42
0.5333403629950327
  0
VERTEX
  5
166
  8
DEFAULT
 10
40.80999691260123
 20
44.72741363559829
 30
0.0
  0
VERTEX
  5
167
  8
DEFAULT
 10
40.67573919755969
 20
44.92300800335666
 30
0.0
 42
-1.057279696267671
  0
VERTEX
  5
168
  8
DEFAULT
 10
41.02874486235135
 20
45.27601366814827
 30
0.0
 42
0.2134217652835277
  0
VERTEX
  5
169
  8
DEFAULT
 10
41.40142285860128
 20
45.10934700148158
 30
0.0
  0
SEQEND
  5
16A
  8
DEFAULT
  0
POLYLINE
  5
16B
  8
DEFAULT
 66
     1
 10
0.0
 20
0.0
 30
0.0
 70
     1
  0
VERTEX
  5
16C
  8
DEFAULT
 10
-69.78338886985149
 20
57.10934700148182
 30
0.0
 42
-0.2134217652834141
  0
VERTEX
  5
16D
  8
DEFAULT
 10
-70.15606686610145
 20
57.27601366814849
 30
0.0
 42
1.057279696267479
  0
VERTEX
  5
16E
  8
DEFAULT
 10
-70.50907253089305
 20
56.92300800335682
 30
0.0
  0
VERTEX
  5
16F
  8
DEFAULT
 10
-70.36074786979106
 20
56.68451486615022
 30
0.0
 42
-0.4962263674883622
  0
VERTEX
  5
170
  8
DEFAULT
 10
-70.55341106756522
 20
56.43084092253291
 30
0.0
  0
VERTEX
  5
171
  8
DEFAULT
 10
-72.34240586422642
 20
56.43084092253291
 30
0.0
  0
VERTEX
  5
172
  8
DEFAULT
 10
-72.34240586422642
 20
58.42353572882233
 30
0.0
 42
-0.414213562373072
  0
VERTEX
  5
173
  8
DEFAULT
 10
-71.34240586422638
 20
59.42353572882222
 30
0.0
  0
VERTEX
  5
174
  8
DEFAULT
 10
-52.34577431627225
 20
59.9312221325875
 30
0.0
 42
0.4019405198271863
  0
VERTEX
  5
175
  8
DEFAULT
 10
-51.34577431627223
 20
60.67784167902879
 30
0.0
  0
VERTEX
  5
176
  8
DEFAULT
 10
-51.34577431627225
 20
62.17653497232631
 30
0.0
 42
0.4019405198271823
  0
VERTEX
  5
177
  8
DEFAULT
 10
-52.34577431627226
 20
62.92315451876761
 30
0.0
  0
VERTEX
  5
178
  8
DEFAULT
 10
-71.34240586422642
 20
63.43084092253289
 30
0.0
 42
-0.4142135623730835
  0
VERTEX
  5
179
  8
DEFAULT
 10
-72.34240586422642
 20
64.4308409225329
 30
0.0
  0
VERTEX
  5
17A
  8
DEFAULT
 10
-72.34240586422642
 20
66.42353572882222
 30
0.0
  0
VERTEX
  5
17B
  8
DEFAULT
 10
-70.5534110675668
 20
66.42353572882222
 30
0.0
 42
-0.4962263674862711
  0
VERTEX
  5
17C
  8
DEFAULT
 10
-70.36074786979233
 20
66.16986178520612
 30
0.0
  0
VERTEX
  5
17D
  8
DEFAULT
 10
-70.50907253089377
 20
65.9313686479976
 30
0.0
 42
1.057279696265553
  0
VERTEX
  5
17E
  8
DEFAULT
 10
-70.15606686610138
 20
65.5783629832066
 30
0.0
 42
-0.2134217652836632
  0
VERTEX
  5
17F
  8
DEFAULT
 10
-69.78338886985148
 20
65.74502964987329
 30
0.0
  0
VERTEX
  5
180
  8
DEFAULT
 10
-68.40142285860136
 20
65.74502964987329
 30
0.0
 42
-0.2134217652833784
  0
VERTEX
  5
181
  8
DEFAULT
 10
-68.02874486235142
 20
65.5783629832067
 30
0.0
 42
1.057279696267052
  0
VERTEX
  5
182
  8
DEFAULT
 10
-67.67573919755976
 20
65.93136864799834
 30
0.0
  0
VERTEX
  5
183
  8
DEFAULT
 10
-67.82406385866176
 20
66.16986178520469
 30
0.0
 42
-0.4962263674884062
  0
VERTEX
  5
184
  8
DEFAULT
 10
-67.63140066088762
 20
66.4235357288222
 30
0.0
  0
VERTEX
  5
185
  8
DEFAULT
 10
41.85728268987259
 20
66.42353572882222
 30
0.0
  0
VERTEX
  5
186
  8
DEFAULT
 10
42.06841245087651
 20
66.42108579611791
 30
0.0
  0
VERTEX
  5
187
  8
DEFAULT
 10
42.28104198989399
 20
66.41368196551652
 30
0.0
  0
VERTEX
  5
188
  8
DEFAULT
 10
42.49508031450972
 20
66.40124589203423
 30
0.0
  0
VERTEX
  5
189
  8
DEFAULT
 10
42.71043289324189
 20
66.3837030292221
 30
0.0
  0
VERTEX
  5
18A
  8
DEFAULT
 10
42.92700173326762
 20
66.3609828689198
 30
0.0
  0
VERTEX
  5
18B
  8
DEFAULT
 10
43.1446854702213
 20
66.33301917753
 30
0.0
  0
VERTEX
  5
18C
  8
DEFAULT
 10
43.36337947016739
 20
66.29975022776533
 30
0.0
  0
VERTEX
  5
18D
  8
DEFAULT
 10
43.58297594378121
 20
66.26111902479731
 30
0.0
  0
VERTEX
  5
18E
  8
DEFAULT
 10
43.80336407271602
 20
66.21707352572861
 30
0.0
  0
VERTEX
  5
18F
  8
DEFAULT
 10
44.02443014806414
 20
66.16756685129481
 30
0.0
  0
VERTEX
  5
190
  8
DEFAULT
 10
44.24605772075631
 20
66.11255748870782
 30
0.0
  0
VERTEX
  5
191
  8
DEFAULT
 10
44.46812776367301
 20
66.05200948455952
 30
0.0
  0
VERTEX
  5
192
  8
DEFAULT
 10
44.6905188451704
 20
65.98589262671601
 30
0.0
  0
VERTEX
  5
193
  8
DEFAULT
 10
44.9131073136549
 20
65.91418261416003
 30
0.0
  0
VERTEX
  5
194
  8
DEFAULT
 10
45.13576749276632
 20
65.83686121376651
 30
0.0
  0
VERTEX
  5
195
  8
DEFAULT
 10
45.35837188666341
 20
65.75391640303933
 30
0.0
  0
VERTEX
  5
196
  8
DEFAULT
 10
45.58079139483073
 20
65.66534249787863
 30
0.0
  0
VERTEX
  5
197
  8
DEFAULT
 10
45.80289553576341
 20
65.57114026451042
 30
0.0
  0
VERTEX
  5
198
  8
DEFAULT
 10
46.0245526788176
 20
65.47131701476671
 30
0.0
  0
VERTEX
  5
199
  8
DEFAULT
 10
46.24563028345483
 20
65.36588668397842
 30
0.0
  0
VERTEX
  5
19A
  8
DEFAULT
 10
46.4659951450484
 20
65.25486989082029
 30
0.0
  0
VERTEX
  5
19B
  8
DEFAULT
 10
46.68551364636744
 20
65.1382939785292
 30
0.0
  0
VERTEX
  5
19C
  8
DEFAULT
 10
46.90405201380361
 20
65.01619303701041
 30
0.0
  0
VERTEX
  5
19D
  8
DEFAULT
 10
47.12147657736421
 20
64.88860790543812
 30
0.0
  0
VERTEX
  5
19E
  8
DEFAULT
 10
47.33765403341522
 20
64.75558615506053
 30
0.0
  0
VERTEX
  5
19F
  8
DEFAULT
 10
47.55245170912951
 20
64.6171820520213
 30
0.0
  0
VERTEX
  5
1A0
  8
DEFAULT
 10
47.7657378275693
 20
64.4734565001181
 30
0.0
  0
VERTEX
  5
1A1
  8
DEFAULT
 10
47.97738177231503
 20
64.32447696352502
 30
0.0
  0
VERTEX
  5
1A2
  8
DEFAULT
 10
48.1872543505458
 20
64.17031736962261
 30
0.0
  0
VERTEX
  5
1A3
  8
DEFAULT
 10
48.39522805347099
 20
64.01105799218281
 30
0.0
  0
VERTEX
  5
1A4
  8
DEFAULT
 10
48.60117731302205
 20
63.8467853152713
 30
0.0
  0
VERTEX
  5
1A5
  8
DEFAULT
 10
48.80497875372401
 20
63.67759187833651
 30
0.0
  0
VERTEX
  5
1A6
  8
DEFAULT
 10
49.00651143869175
 20
63.50357610306061
 30
0.0
  0
VERTEX
  5
1A7
  8
DEFAULT
 10
49.20565710871944
 20
63.32484210264992
 30
0.0
  0
VERTEX
  5
1A8
  8
DEFAULT
 10
49.40230041347513
 20
63.14149947434001
 30
0.0
  0
VERTEX
  5
1A9
  8
DEFAULT
 10
49.59632913384803
 20
62.95366307598393
 30
0.0
  0
VERTEX
  5
1AA
  8
DEFAULT
 10
49.78763439455361
 20
62.76145278767551
 30
0.0
  0
VERTEX
  5
1AB
  8
DEFAULT
 10
49.976110866152
 20
62.56499325944291
 30
0.0
  0
VERTEX
  5
1AC
  8
DEFAULT
 10
50.16165695570135
 20
62.36441364611561
 30
0.0
  0
VERTEX
  5
1AD
  8
DEFAULT
 10
50.34417498533134
 20
62.15984733053303
 30
0.0
  0
VERTEX
  5
1AE
  8
DEFAULT
 10
50.52357135809763
 20
61.95143163631643
 30
0.0
  0
VERTEX
  5
1AF
  8
DEFAULT
 10
50.69975671055045
 20
61.73930753147333
 30
0.0
  0
VERTEX
  5
1B0
  8
DEFAULT
 10
51.04215888677453
 20
61.30451435177822
 30
0.0
  0
VERTEX
  5
1B1
  8
DEFAULT
 10
51.37075619347922
 20
60.85665670881092
 30
0.0
  0
VERTEX
  5
1B2
  8
DEFAULT
 10
51.6849984291029
 20
60.39696179677593
 30
0.0
  0
VERTEX
  5
1B3
  8
DEFAULT
 10
51.9844128457691
 20
59.92668477649742
 30
0.0
  0
VERTEX
  5
1B4
  8
DEFAULT
 10
52.26860552987512
 20
59.44709847544551
 30
0.0
  0
VERTEX
  5
1B5
  8
DEFAULT
 10
52.53726184440052
 20
58.95948326012233
 30
0.0
  0
VERTEX
  5
1B6
  8
DEFAULT
 10
52.79014596760192
 20
58.4651172315987
 30
0.0
  0
VERTEX
  5
1B7
  8
DEFAULT
 10
53.0270995795953
 20
57.96526688030032
 30
0.0
  0
VERTEX
  5
1B8
  8
DEFAULT
 10
53.24803976274853
 20
57.46117831878941
 30
0.0
  0
VERTEX
  5
1B9
  8
DEFAULT
 10
53.45295619353101
 20
56.95406919202792
 30
0.0
  0
VERTEX
  5
1BA
  8
DEFAULT
 10
53.64190771232512
 20
56.44512134421541
 30
0.0
  0
VERTEX
  5
1BB
  8
DEFAULT
 10
62.0502811551944
 20
37.04357333833103
 30
0.0
  0
VERTEX
  5
1BC
  8
DEFAULT
 10
63.42921876270071
 20
34.08583022609112
 30
0.0
  0
VERTEX
  5
1BD
  8
DEFAULT
 10
64.00208085165053
 20
32.90976610639011
 30
0.0
  0
VERTEX
  5
1BE
  8
DEFAULT
 10
64.49600210383682
 20
31.93814659742362
 30
0.0
  0
VERTEX
  5
1BF
  8
DEFAULT
 10
64.91034016194152
 20
31.17222751304082
 30
0.0
  0
VERTEX
  5
1C0
  8
DEFAULT
 10
65.08752255312413
 20
30.86664875609041
 30
0.0
  0
VERTEX
  5
1C1
  8
DEFAULT
 10
65.24466421201993
 20
30.61271832904241
 30
0.0
  0
VERTEX
  5
1C2
  8
DEFAULT
 10
65.31571281761364
 20
30.50512352139712
 30
0.0
  0
VERTEX
  5
1C3
  8
DEFAULT
 10
65.38174456652473
 20
30.41043925911252
 30
0.0
  0
VERTEX
  5
1C4
  8
DEFAULT
 10
65.41287893385993
 20
30.36793711564012
 30
0.0
  0
VERTEX
  5
1C5
  8
DEFAULT
 10
65.44275896783029
 20
30.32866058220152
 30
0.0
  0
VERTEX
  5
1C6
  8
DEFAULT
 10
65.4713847367974
 20
30.29260870646691
 30
0.0
  0
VERTEX
  5
1C7
  8
DEFAULT
 10
65.49875636092088
 20
30.25978040351153
 30
0.0
  0
VERTEX
  5
1C8
  8
DEFAULT
 10
65.52487401210249
 20
30.23017445601603
 30
0.0
  0
VERTEX
  5
1C9
  8
DEFAULT
 10
65.53746266569203
 20
30.21657944900382
 30
0.0
  0
VERTEX
  5
1CA
  8
DEFAULT
 10
65.54973791392229
 20
30.20378951447942
 30
0.0
  0
VERTEX
  5
1CB
  8
DEFAULT
 10
65.56169979280469
 20
30.19180446313901
 30
0.0
  0
VERTEX
  5
1CC
  8
DEFAULT
 10
65.57334834157155
 20
30.18062409744691
 30
0.0
  0
VERTEX
  5
1CD
  8
DEFAULT
 10
65.58468360267392
 20
30.17024821164263
 30
0.0
  0
VERTEX
  5
1CE
  8
DEFAULT
 10
65.59570562177919
 20
30.16067659174961
 30
0.0
  0
VERTEX
  5
1CF
  8
DEFAULT
 10
65.60641444776871
 20
30.15190901558292
 30
0.0
  0
VERTEX
  5
1D0
  8
DEFAULT
 10
65.61681013273443
 20
30.14394525275823
 30
0.0
  0
VERTEX
  5
1D1
  8
DEFAULT
 10
65.62689273197668
 20
30.13678506469982
 30
0.0
  0
VERTEX
  5
1D2
  8
DEFAULT
 10
65.63666230400179
 20
30.13042820465002
 30
0.0
  0
VERTEX
  5
1D3
  8
DEFAULT
 10
65.64611891051823
 20
30.12487441767793
 30
0.0
  0
VERTEX
  5
1D4
  8
DEFAULT
 10
65.65526261643413
 20
30.12012344068883
 30
0.0
  0
VERTEX
  5
1D5
  8
DEFAULT
 10
65.66409348985451
 20
30.11617500243351
 30
0.0
  0
VERTEX
  5
1D6
  8
DEFAULT
 10
65.67261160207761
 20
30.11302882351821
 30
0.0
  0
VERTEX
  5
1D7
  8
DEFAULT
 10
65.76706153729563
 20
30.03677736509842
 30
0.0
  0
VERTEX
  5
1D8
  8
DEFAULT
 10
65.85806338900562
 20
29.9597624217708
 30
0.0
  0
VERTEX
  5
1D9
  8
DEFAULT
 10
65.94547532895152
 20
29.8820556982249
 30
0.0
  0
VERTEX
  5
1DA
  8
DEFAULT
 10
66.02916078534591
 20
29.80373158138612
 30
0.0
  0
VERTEX
  5
1DB
  8
DEFAULT
 10
66.10898903579582
 20
29.7248669297537
 30
0.0
  0
VERTEX
  5
1DC
  8
DEFAULT
 10
66.18483578269482
 20
29.64554084458631
 30
0.0
  0
VERTEX
  5
1DD
  8
DEFAULT
 10
66.25658370629813
 20
29.56583442418243
 30
0.0
  0
VERTEX
  5
1DE
  8
DEFAULT
 10
66.32412299078581
 20
29.4858305027099
 30
0.0
  0
VERTEX
  5
1DF
  8
DEFAULT
 10
66.38735181876982
 20
29.40561337523393
 30
0.0
  0
VERTEX
  5
1E0
  8
DEFAULT
 10
66.41732029437682
 20
29.36545153051391
 30
0.0
  0
VERTEX
  5
1E1
  8
DEFAULT
 10
66.44617682991722
 20
29.32526851076572
 30
0.0
  0
VERTEX
  5
1E2
  8
DEFAULT
 10
66.47391114546554
 20
29.28507513432042
 30
0.0
  0
VERTEX
  5
1E3
  8
DEFAULT
 10
66.50051353963792
 20
29.24488225531353
 30
0.0
  0
VERTEX
  5
1E4
  8
DEFAULT
 10
66.52597490023402
 20
29.20470075400881
 30
0.0
  0
VERTEX
  5
1E5
  8
DEFAULT
 10
66.55028671412103
 20
29.16454152705153
 30
0.0
  0
VERTEX
  5
1E6
  8
DEFAULT
 10
66.57344107633662
 20
29.12441547766811
 30
0.0
  0
VERTEX
  5
1E7
  8
DEFAULT
 10
66.59543069839171
 20
29.08433350583333
 30
0.0
  0
VERTEX
  5
1E8
  8
DEFAULT
 10
66.61624891575451
 20
29.04430649842011
 30
0.0
  0
VERTEX
  5
1E9
  8
DEFAULT
 10
66.63588969450083
 20
29.00434531935461
 30
0.0
  0
VERTEX
  5
1EA
  8
DEFAULT
 10
66.65434763711573
 20
28.96446079979121
 30
0.0
  0
VERTEX
  5
1EB
  8
DEFAULT
 10
66.67161798743643
 20
28.92466372832872
 30
0.0
  0
VERTEX
  5
1EC
  8
DEFAULT
 10
66.68769663472531
 20
28.88496484128611
 30
0.0
  0
VERTEX
  5
1ED
  8
DEFAULT
 10
66.70258011686641
 20
28.8453748130547
 30
0.0
  0
VERTEX
  5
1EE
  8
DEFAULT
 10
66.71626562268114
 20
28.80590424654672
 30
0.0
  0
VERTEX
  5
1EF
  8
DEFAULT
 10
66.72875099335863
 20
28.76656366375671
 30
0.0
  0
VERTEX
  5
1F0
  8
DEFAULT
 10
66.74003472300151
 20
28.72736349645463
 30
0.0
  0
VERTEX
  5
1F1
  8
DEFAULT
 10
66.75011595828903
 20
28.6883140770269
 30
0.0
  0
VERTEX
  5
1F2
  8
DEFAULT
 10
66.75899449725881
 20
28.64942562948302
 30
0.0
  0
VERTEX
  5
1F3
  8
DEFAULT
 10
66.76667078721712
 20
28.61070826064251
 30
0.0
  0
VERTEX
  5
1F4
  8
DEFAULT
 10
66.77314592178243
 20
28.5721719515203
 30
0.0
  0
VERTEX
  5
1F5
  8
DEFAULT
 10
66.77842163707481
 20
28.5338265489231
 30
0.0
  0
VERTEX
  5
1F6
  8
DEFAULT
 10
66.78250030706232
 20
28.49568175727372
 30
0.0
  0
VERTEX
  5
1F7
  8
DEFAULT
 10
66.78538493807943
 20
28.45774713067441
 30
0.0
  0
VERTEX
  5
1F8
  8
DEFAULT
 10
66.78707916253353
 20
28.42003206522591
 30
0.0
  0
VERTEX
  5
1F9
  8
DEFAULT
 10
66.78758723181852
 20
28.38254579161071
 30
0.0
  0
VERTEX
  5
1FA
  8
DEFAULT
 10
66.78691400845412
 20
28.34529736795511
 30
0.0
  0
VERTEX
  5
1FB
  8
DEFAULT
 10
66.78506495747422
 20
28.30829567297941
 30
0.0
  0
VERTEX
  5
1FC
  8
DEFAULT
 10
66.78204613708672
 20
28.27154939944661
 30
0.0
  0
VERTEX
  5
1FD
  8
DEFAULT
 10
66.77786418863042
 20
28.23506704791842
 30
0.0
  0
VERTEX
  5
1FE
  8
DEFAULT
 10
66.77252632585481
 20
28.19885692082711
 30
0.0
  0
VERTEX
  5
1FF
  8
DEFAULT
 10
66.76604032355132
 20
28.16292711687062
 30
0.0
  0
VERTEX
  5
200
  8
DEFAULT
 10
66.75841450556331
 20
28.12728552573681
 30
0.0
  0
VERTEX
  5
201
  8
DEFAULT
 10
66.74965773220771
 20
28.09193982316312
 30
0.0
  0
VERTEX
  5
202
  8
DEFAULT
 10
66.73977938713642
 20
28.05689746633561
 30
0.0
  0
VERTEX
  5
203
  8
DEFAULT
 10
66.72878936367081
 20
28.02216568963162
 30
0.0
  0
VERTEX
  5
204
  8
DEFAULT
 10
66.71669805064292
 20
27.98775150070831
 30
0.0
  0
VERTEX
  5
205
  8
DEFAULT
 10
66.70351631777493
 20
27.95366167693972
 30
0.0
  0
VERTEX
  5
206
  8
DEFAULT
 10
66.68925550063193
 20
27.91990276220281
 30
0.0
  0
VERTEX
  5
207
  8
DEFAULT
 10
66.67392738518242
 20
27.88648106401291
 30
0.0
  0
VERTEX
  5
208
  8
DEFAULT
 10
66.65754419200022
 20
27.85340265100791
 30
0.0
  0
VERTEX
  5
209
  8
DEFAULT
 10
66.64011856014383
 20
27.82067335077942
 30
0.0
  0
VERTEX
  5
20A
  8
DEFAULT
 10
66.62166353074772
 20
27.78829874804931
 30
0.0
  0
VERTEX
  5
20B
  8
DEFAULT
 10
66.60219253035962
 20
27.75628418318762
 30
0.0
  0
VERTEX
  5
20C
  8
DEFAULT
 10
66.58171935405991
 20
27.72463475106842
 30
0.0
  0
VERTEX
  5
20D
  8
DEFAULT
 10
66.56025814839643
 20
27.69335530025931
 30
0.0
  0
VERTEX
  5
20E
  8
DEFAULT
 10
66.54759083462693
 20
27.67576813361592
 30
0.0
  0
VERTEX
  5
20F
  8
DEFAULT
 10
66.53446148765622
 20
27.65824126204721
 30
0.0
  0
VERTEX
  5
210
  8
DEFAULT
 10
66.52086880783654
 20
27.64077644303941
 30
0.0
  0
VERTEX
  5
211
  8
DEFAULT
 10
66.50681156324262
 20
27.62337543582942
 30
0.0
  0
VERTEX
  5
212
  8
DEFAULT
 10
66.49228859058744
 20
27.60604000093441
 30
0.0
  0
VERTEX
  5
213
  8
DEFAULT
 10
66.47729879611691
 20
27.58877189967592
 30
0.0
  0
VERTEX
  5
214
  8
DEFAULT
 10
66.44591471961513
 20
27.55444474448322
 30
0.0
  0
VERTEX
  5
215
  8
DEFAULT
 10
66.41265200712553
 20
27.52040805850632
 30
0.0
  0
VERTEX
  5
216
  8
DEFAULT
 10
66.37750449839561
 20
27.48667591159372
 30
0.0
  0
VERTEX
  5
217
  8
DEFAULT
 10
66.34046722437583
 20
27.45326233915762
 30
0.0
  0
VERTEX
  5
218
  8
DEFAULT
 10
66.30153643050824
 20
27.42018132591062
 30
0.0
  0
VERTEX
  5
219
  8
DEFAULT
 10
66.26070959837642
 20
27.38744678940172
 30
0.0
  0
VERTEX
  5
21A
  8
DEFAULT
 10
66.21798546562843
 20
27.35507256338882
 30
0.0
  0
VERTEX
  5
21B
  8
DEFAULT
 10
66.17336404409312
 20
27.32307238108072
 30
0.0
  0
VERTEX
  5
21C
  8
DEFAULT
 10
66.12684663601553
 20
27.29145985828981
 30
0.0
  0
VERTEX
  5
21D
  8
DEFAULT
 10
66.07843584833492
 20
27.26024847653122
 30
0.0
  0
VERTEX
  5
21E
  8
DEFAULT
 10
66.02813560494093
 20
27.22945156610831
 30
0.0
  0
VERTEX
  5
21F
  8
DEFAULT
 10
65.97595115684382
 20
27.19908228922712
 30
0.0
  0
VERTEX
  5
220
  8
DEFAULT
 10
65.92188909020192
 20
27.16915362317681
 30
0.0
  0
VERTEX
  5
221
  8
DEFAULT
 10
65.86595733215691
 20
27.13967834362151
 30
0.0
  0
VERTEX
  5
222
  8
DEFAULT
 10
65.80816515442902
 20
27.11066900804272
 30
0.0
  0
VERTEX
  5
223
  8
DEFAULT
 10
65.74852317463694
 20
27.08213793937482
 30
0.0
  0
VERTEX
  5
224
  8
DEFAULT
 10
65.68704335530856
 20
27.05409720987642
 30
0.0
  0
VERTEX
  5
225
  8
DEFAULT
 10
65.55862475041954
 20
26.99953370924982
 30
0.0
  0
VERTEX
  5
226
  8
DEFAULT
 10
65.42303175311173
 20
26.94706947662812
 30
0.0
  0
VERTEX
  5
227
  8
DEFAULT
 10
65.28040783768654
 20
26.89679049382082
 30
0.0
  0
VERTEX
  5
228
  8
DEFAULT
 10
65.13091709406274
 20
26.84877730346052
 30
0.0
  0
VERTEX
  5
229
  8
DEFAULT
 10
64.9747436340648
 20
26.80310459130672
 30
0.0
  0
VERTEX
  5
22A
  8
DEFAULT
 10
64.81209085343181
 20
26.75984080581692
 30
0.0
  0
VERTEX
  5
22B
  8
DEFAULT
 10
64.64318055556231
 20
26.71904781899181
 30
0.0
  0
VERTEX
  5
22C
  8
DEFAULT
 10
64.46825194485314
 20
26.68078063199852
 30
0.0
  0
VERTEX
  5
22D
  8
DEFAULT
 10
64.2875604992048
 20
26.64508712850302
 30
0.0
  0
VERTEX
  5
22E
  8
DEFAULT
 10
64.10137673283333
 20
26.61200787803232
 30
0.0
  0
VERTEX
  5
22F
  8
DEFAULT
 10
63.71368138665548
 20
26.55381702656072
 30
0.0
  0
VERTEX
  5
230
  8
DEFAULT
 10
63.3075780702103
 20
26.50638216152832
 30
0.0
  0
VERTEX
  5
231
  8
DEFAULT
 10
62.88562675360311
 20
26.46975654045062
 30
0.0
  0
VERTEX
  5
232
  8
DEFAULT
 10
62.45048460120671
 20
26.44387543488521
 30
0.0
  0
VERTEX
  5
233
  8
DEFAULT
 10
62.00485492800851
 20
26.42856199111402
 30
0.0
  0
VERTEX
  5
234
  8
DEFAULT
 10
61.5514376256298
 20
26.4235357288222
 30
0.0
 42
-0.3174170514420265
  0
VERTEX
  5
235
  8
DEFAULT
 10
56.839942487763
 20
29.74967385702451
 30
0.0
  0
VERTEX
  5
236
  8
DEFAULT
 10
50.19950892224006
 20
48.44080422113682
 30
0.0
  0
VERTEX
  5
237
  8
DEFAULT
 10
50.04649130259361
 20
48.99584613934559
 30
0.0
  0
VERTEX
  5
238
  8
DEFAULT
 10
49.87691026143796
 20
49.54888280836511
 30
0.0
  0
VERTEX
  5
239
  8
DEFAULT
 10
49.69060950560959
 20
50.09862534746951
 30
0.0
  0
VERTEX
  5
23A
  8
DEFAULT
 10
49.4875009511818
 20
50.64374583278921
 30
0.0
  0
VERTEX
  5
23B
  8
DEFAULT
 10
49.26756884462651
 20
51.18288529461903
 30
0.0
  0
VERTEX
  5
23C
  8
DEFAULT
 10
49.03087330574999
 20
51.7146625398201
 30
0.0
  0
VERTEX
  5
23D
  8
DEFAULT
 10
48.7775531970525
 20
52.2376837130633
 30
0.0
  0
VERTEX
  5
23E
  8
DEFAULT
 10
48.5078282316141
 20
52.75055248841389
 30
0.0
  0
VERTEX
  5
23F
  8
DEFAULT
 10
48.22200024210321
 20
53.25188076175941
 30
0.0
  0
VERTEX
  5
240
  8
DEFAULT
 10
48.07316450005203
 20
53.49778838924873
 30
0.0
  0
VERTEX
  5
241
  8
DEFAULT
 10
47.9204535469247
 20
53.7402996956549
 30
0.0
  0
VERTEX
  5
242
  8
DEFAULT
 10
47.76392821507631
 20
53.97924843012831
 30
0.0
  0
VERTEX
  5
243
  8
DEFAULT
 10
47.60365436564405
 20
54.21447095213902
 30
0.0
  0
VERTEX
  5
244
  8
DEFAULT
 10
47.43970281641805
 20
54.44580658025193
 30
0.0
  0
VERTEX
  5
245
  8
DEFAULT
 10
47.2721492542438
 20
54.67309793672391
 30
0.0
  0
VERTEX
  5
246
  8
DEFAULT
 10
47.1010741320901
 20
54.89619128644509
 30
0.0
  0
VERTEX
  5
247
  8
DEFAULT
 10
46.9265625510094
 20
55.11493686875433
 30
0.0
  0
VERTEX
  5
248
  8
DEFAULT
 10
46.74870412729882
 20
55.32918922067851
 30
0.0
  0
VERTEX
  5
249
  8
DEFAULT
 10
46.5675928452585
 20
55.53880749017462
 30
0.0
  0
VERTEX
  5
24A
  8
DEFAULT
 10
46.38332689602572
 20
55.7436557379885
 30
0.0
  0
VERTEX
  5
24B
  8
DEFAULT
 10
46.19600850304505
 20
55.9436032268007
 30
0.0
  0
VERTEX
  5
24C
  8
DEFAULT
 10
46.00574373481334
 20
56.13852469638451
 30
0.0
  0
VERTEX
  5
24D
  8
DEFAULT
 10
45.8126423056114
 20
56.32830062357012
 30
0.0
  0
VERTEX
  5
24E
  8
DEFAULT
 10
45.61681736500532
 20
56.51281746589153
 30
0.0
  0
VERTEX
  5
24F
  8
DEFAULT
 10
45.41838527696245
 20
56.6919678878731
 30
0.0
  0
VERTEX
  5
250
  8
DEFAULT
 10
45.21746538948781
 20
56.86565096901172
 30
0.0
  0
VERTEX
  5
251
  8
DEFAULT
 10
45.01417979573841
 20
57.03377239260671
 30
0.0
  0
VERTEX
  5
252
  8
DEFAULT
 10
44.80865308761634
 20
57.19624461470163
 30
0.0
  0
VERTEX
  5
253
  8
DEFAULT
 10
44.60101210288201
 20
57.35298701250703
 30
0.0
  0
VERTEX
  5
254
  8
DEFAULT
 10
44.39138566685904
 20
57.50392601179543
 30
0.0
  0
VERTEX
  5
255
  8
DEFAULT
 10
44.1799043298235
 20
57.64899519287242
 30
0.0
  0
VERTEX
  5
256
  8
DEFAULT
 10
43.96670010118891
 20
57.78813537485222
 30
0.0
  0
VERTEX
  5
257
  8
DEFAULT
 10
43.75190618159979
 20
57.92129467808333
 30
0.0
  0
VERTEX
  5
258
  8
DEFAULT
 10
43.53565669405293
 20
58.04842856469482
 30
0.0
  0
VERTEX
  5
259
  8
DEFAULT
 10
43.31808641514965
 20
58.16949985734833
 30
0.0
  0
VERTEX
  5
25A
  8
DEFAULT
 10
43.09933050757331
 20
58.28447873640171
 30
0.0
  0
VERTEX
  5
25B
  8
DEFAULT
 10
42.8795242548569
 20
58.39334271580113
 30
0.0
  0
VERTEX
  5
25C
  8
DEFAULT
 10
42.65880279947714
 20
58.49607659812911
 30
0.0
  0
VERTEX
  5
25D
  8
DEFAULT
 10
42.43730088527712
 20
58.5926724093402
 30
0.0
  0
VERTEX
  5
25E
  8
DEFAULT
 10
42.2151526051735
 20
58.68312931381352
 30
0.0
  0
VERTEX
  5
25F
  8
DEFAULT
 10
41.99249115505444
 20
58.76745351044281
 30
0.0
  0
VERTEX
  5
260
  8
DEFAULT
 10
41.76944859472542
 20
58.8456581105703
 30
0.0
  0
VERTEX
  5
261
  8
DEFAULT
 10
41.54615561669783
 20
58.91776299864701
 30
0.0
  0
VERTEX
  5
262
  8
DEFAULT
 10
41.32274132355474
 20
58.98379467656962
 30
0.0
  0
VERTEX
  5
263
  8
DEFAULT
 10
41.09933301456465
 20
59.04378609270572
 30
0.0
  0
VERTEX
  5
264
  8
DEFAULT
 10
40.87605598214373
 20
59.09777645666931
 30
0.0
  0
VERTEX
  5
265
  8
DEFAULT
 10
40.65303331870075
 20
59.14581104095261
 30
0.0
  0
VERTEX
  5
266
  8
DEFAULT
 10
40.43038573432545
 20
59.18794097055191
 30
0.0
  0
VERTEX
  5
267
  8
DEFAULT
 10
40.2082313857137
 20
59.22422300175343
 30
0.0
  0
VERTEX
  5
268
  8
DEFAULT
 10
39.98668571664763
 20
59.25471929125702
 30
0.0
  0
VERTEX
  5
269
  8
DEFAULT
 10
39.76586131028205
 20
59.27949715682892
 30
0.0
  0
VERTEX
  5
26A
  8
DEFAULT
 10
39.54586775341704
 20
59.29862883066933
 30
0.0
  0
VERTEX
  5
26B
  8
DEFAULT
 10
39.32681151287125
 20
59.31219120667753
 30
0.0
  0
VERTEX
  5
26C
  8
DEFAULT
 10
39.10879582400213
 20
59.32026558277869
 30
0.0
  0
VERTEX
  5
26D
  8
DEFAULT
 10
38.89192059135991
 20
59.32293739945602
 30
0.0
  0
VERTEX
  5
26E
  8
DEFAULT
 10
-59.34240586422642
 20
56.66687772478762
 30
0.0
  0
VERTEX
  5
26F
  8
DEFAULT
 10
-64.74325050455641
 20
56.53436868959938
 30
0.0
  0
VERTEX
  5
270
  8
DEFAULT
 10
-67.61755486888009
 20
56.45665324948531
 30
0.0
 42
-0.5333403629950609
  0
VERTEX
  5
271
  8
DEFAULT
 10
-67.80999691260122
 20
56.72741363559852
 30
0.0
  0
VERTEX
  5
272
  8
DEFAULT
 10
-67.67573919755968
 20
56.92300800335688
 30
0.0
 42
1.057279696267603
  0
VERTEX
  5
273
  8
DEFAULT
 10
-68.02874486235133
 20
57.2760136681485
 30
0.0
 42
-0.2134217652835232
  0
VERTEX
  5
274
  8
DEFAULT
 10
-68.40142285860128
 20
57.10934700148181
 30
0.0
  0
SEQEND
  5
275
  8
DEFAULT
  0
POLYLINE
  5
276
  8
DEFAULT
 66
     1
 10
0.0
 20
0.0
 30
0.0
 70
     1
  0
VERTEX
  5
277
  8
DEFAULT
 10
64.39642943529111
 20
14.95691576269016
 30
0.0
  0
VERTEX
  5
278
  8
DEFAULT
 10
64.33175219096509
 20
15.04902193916422
 30
0.0
  0
VERTEX
  5
279
  8
DEFAULT
 10
64.26510952869936
 20
15.13965822623023
 30
0.0
  0
VERTEX
  5
27A
  8
DEFAULT
 10
64.19653420963427
 20
15.22883849497529
 30
0.0
  0
VERTEX
  5
27B
  8
DEFAULT
 10
64.12605899491018
 20
15.31657661648651
 30
0.0
  0
VERTEX
  5
27C
  8
DEFAULT
 10
64.05371664566744
 20
15.40288646185098
 30
0.0
  0
VERTEX
  5
27D
  8
DEFAULT
 10
63.97953992304641
 20
15.48778190215581
 30
0.0
  0
VERTEX
  5
27E
  8
DEFAULT
 10
63.90356158818742
 20
15.5712768084881
 30
0.0
  0
VERTEX
  5
27F
  8
DEFAULT
 10
63.82581440223083
 20
15.65338505193494
 30
0.0
  0
VERTEX
  5
280
  8
DEFAULT
 10
63.74633112631699
 20
15.73412050358343
 30
0.0
  0
VERTEX
  5
281
  8
DEFAULT
 10
63.66514452158625
 20
15.81349703452068
 30
0.0
  0
VERTEX
  5
282
  8
DEFAULT
 10
63.58228734917897
 20
15.89152851583379
 30
0.0
  0
VERTEX
  5
283
  8
DEFAULT
 10
63.49779237023549
 20
15.96822881860985
 30
0.0
  0
VERTEX
  5
284
  8
DEFAULT
 10
63.41169234589617
 20
16.04361181393596
 30
0.0
  0
VERTEX
  5
285
  8
DEFAULT
 10
63.32402003730135
 20
16.11769137289924
 30
0.0
  0
VERTEX
  5
286
  8
DEFAULT
 10
63.14408961190664
 20
16.26199566608566
 30
0.0
  0
VERTEX
  5
287
  8
DEFAULT
 10
62.95826318317417
 20
16.4012526668659
 30
0.0
  0
VERTEX
  5
288
  8
DEFAULT
 10
62.76680284022672
 20
16.53557334393677
 30
0.0
  0
VERTEX
  5
289
  8
DEFAULT
 10
62.56997067218713
 20
16.66506866599507
 30
0.0
  0
VERTEX
  5
28A
  8
DEFAULT
 10
62.36802876817818
 20
16.78984960173761
 30
0.0
  0
VERTEX
  5
28B
  8
DEFAULT
 10
62.16123921732269
 20
16.91002711986117
 30
0.0
  0
VERTEX
  5
28C
  8
DEFAULT
 10
61.94986410874348
 20
17.02571218906257
 30
0.0
  0
VERTEX
  5
28D
  8
DEFAULT
 10
61.73416553156333
 20
17.13701577803861
 30
0.0
  0
VERTEX
  5
28E
  8
DEFAULT
 10
61.51440557490506
 20
17.24404885548608
 30
0.0
  0
VERTEX
  5
28F
  8
DEFAULT
 10
61.29084632789148
 20
17.34692239010178
 30
0.0
  0
VERTEX
  5
290
  8
DEFAULT
 10
61.06374987964539
 20
17.44574735058253
 30
0.0
  0
VERTEX
  5
291
  8
DEFAULT
 10
60.83337831928959
 20
17.54063470562512
 30
0.0
  0
VERTEX
  5
292
  8
DEFAULT
 10
60.5999937359469
 20
17.63169542392635
 30
0.0
  0
VERTEX
  5
293
  8
DEFAULT
 10
60.12523385679206
 20
17.80278082509193
 30
0.0
  0
VERTEX
  5
294
  8
DEFAULT
 10
59.64156695516332
 20
17.9598913036537
 30
0.0
  0
VERTEX
  5
295
  8
DEFAULT
 10
59.15108974404312
 20
18.10391460918606
 30
0.0
  0
VERTEX
  5
296
  8
DEFAULT
 10
58.65589893641393
 20
18.23573849126342
 30
0.0
  0
VERTEX
  5
297
  8
DEFAULT
 10
58.15809124525819
 20
18.35625069946019
 30
0.0
  0
VERTEX
  5
298
  8
DEFAULT
 10
57.65976338355835
 20
18.46633898335079
 30
0.0
  0
VERTEX
  5
299
  8
DEFAULT
 10
56.66694644747592
 20
18.65824381759048
 30
0.0
  0
VERTEX
  5
29A
  8
DEFAULT
 10
55.67928406712476
 20
18.81580019597475
 30
0.0
  0
VERTEX
  5
29B
  8
DEFAULT
 10
54.69562462848278
 20
18.94280436157522
 30
0.0
  0
VERTEX
  5
29C
  8
DEFAULT
 10
53.71481651752781
 20
19.04305255746353
 30
0.0
  0
VERTEX
  5
29D
  8
DEFAULT
 10
52.73570812023774
 20
19.12034102671129
 30
0.0
  0
VERTEX
  5
29E
  8
DEFAULT
 10
51.75714782259043
 20
19.17846601239017
 30
0.0
  0
VERTEX
  5
29F
  8
DEFAULT
 10
49.79706507013553
 20
19.25241050532773
 30
0.0
  0
VERTEX
  5
2A0
  8
DEFAULT
 10
45.85018605209368
 20
19.30053360224829
 30
0.0
  0
VERTEX
  5
2A1
  8
DEFAULT
 10
41.88737770662927
 20
19.24618749841173
 30
0.0
  0
VERTEX
  5
2A2
  8
DEFAULT
 10
37.93385537963198
 20
19.09769524891129
 30
0.0
  0
VERTEX
  5
2A3
  8
DEFAULT
 10
35.96208746215811
 20
18.97459074535002
 30
0.0
  0
VERTEX
  5
2A4
  8
DEFAULT
 10
33.99338159512733
 20
18.80896465358554
 30
0.0
  0
VERTEX
  5
2A5
  8
DEFAULT
 10
32.02775650907162
 20
18.59570463340958
 30
0.0
  0
VERTEX
  5
2A6
  8
DEFAULT
 10
30.06610619737113
 20
18.33909699076833
 30
0.0
  0
VERTEX
  5
2A7
  8
DEFAULT
 10
26.15918113340466
 20
17.72238270802928
 30
0.0
  0
VERTEX
  5
2A8
  8
DEFAULT
 10
24.2176039998009
 20
17.36666954639346
 30
0.0
  0
VERTEX
  5
2A9
  8
DEFAULT
 10
23.25266563734819
 20
17.16544970445866
 30
0.0
  0
VERTEX
  5
2AA
  8
DEFAULT
 10
22.29328487978812
 20
16.94088189318575
 30
0.0
  0
VERTEX
  5
2AB
  8
DEFAULT
 10
21.34070482861559
 20
16.6871367661296
 30
0.0
  0
VERTEX
  5
2AC
  8
DEFAULT
 10
20.86735353714179
 20
16.54750103841869
 30
0.0
  0
VERTEX
  5
2AD
  8
DEFAULT
 10
20.39616858532546
 20
16.39838497684506
 30
0.0
  0
VERTEX
  5
2AE
  8
DEFAULT
 10
19.92730536085346
 20
16.23905991310304
 30
0.0
  0
VERTEX
  5
2AF
  8
DEFAULT
 10
19.46091925141265
 20
16.06879717888701
 30
0.0
  0
VERTEX
  5
2B0
  8
DEFAULT
 10
18.99716564468989
 20
15.88686810589131
 30
0.0
  0
VERTEX
  5
2B1
  8
DEFAULT
 10
18.53619992837205
 20
15.69254402581031
 30
0.0
  0
VERTEX
  5
2B2
  8
DEFAULT
 10
18.07838248427248
 20
15.48521316396289
 30
0.0
  0
VERTEX
  5
2B3
  8
DEFAULT
 10
17.62489367071057
 20
15.26473132016607
 30
0.0
  0
VERTEX
  5
2B4
  8
DEFAULT
 10
17.1771188401322
 20
15.03107118786138
 30
0.0
  0
VERTEX
  5
2B5
  8
DEFAULT
 10
16.73644334498326
 20
14.78420546049037
 30
0.0
  0
VERTEX
  5
2B6
  8
DEFAULT
 10
16.30425253770963
 20
14.52410683149459
 30
0.0
  0
VERTEX
  5
2B7
  8
DEFAULT
 10
15.88193177075719
 20
14.25074799431557
 30
0.0
  0
VERTEX
  5
2B8
  8
DEFAULT
 10
15.67490557504076
 20
14.10908746435783
 30
0.0
  0
VERTEX
  5
2B9
  8
DEFAULT
 10
15.47086639657183
 20
13.96410164239485
 30
0.0
  0
VERTEX
  5
2BA
  8
DEFAULT
 10
15.26998740440614
 20
13.81578711510685
 30
0.0
  0
VERTEX
  5
2BB
  8
DEFAULT
 10
15.07244176759943
 20
13.66414046917399
 30
0.0
  0
VERTEX
  5
2BC
  8
DEFAULT
 10
14.87840265520743
 20
13.50915829127648
 30
0.0
  0
VERTEX
  5
2BD
  8
DEFAULT
 10
14.68804323628588
 20
13.35083716809451
 30
0.0
  0
VERTEX
  5
2BE
  8
DEFAULT
 10
14.50153667989051
 20
13.18917368630827
 30
0.0
  0
VERTEX
  5
2BF
  8
DEFAULT
 10
14.31905615507706
 20
13.02416443259796
 30
0.0
  0
VERTEX
  5
2C0
  8
DEFAULT
 10
14.14077483090127
 20
12.85580599364377
 30
0.0
  0
VERTEX
  5
2C1
  8
DEFAULT
 10
13.96686587641886
 20
12.68409495612589
 30
0.0
  0
VERTEX
  5
2C2
  8
DEFAULT
 10
13.79750246068557
 20
12.50902790672452
 30
0.0
  0
VERTEX
  5
2C3
  8
DEFAULT
 10
13.63285775275715
 20
12.33060143211983
 30
0.0
  0
VERTEX
  5
2C4
  8
DEFAULT
 10
13.47310492168932
 20
12.14881211899204
 30
0.0
  0
VERTEX
  5
2C5
  8
DEFAULT
 10
13.31841713653783
 20
11.96365655402133
 30
0.0
  0
VERTEX
  5
2C6
  8
DEFAULT
 10
13.1689675663584
 20
11.7751313238879
 30
0.0
  0
VERTEX
  5
2C7
  8
DEFAULT
 10
13.02492938020677
 20
11.58323301527193
 30
0.0
  0
VERTEX
  5
2C8
  8
DEFAULT
 10
12.88647574713868
 20
11.38795821485363
 30
0.0
  0
VERTEX
  5
2C9
  8
DEFAULT
 10
12.75377983620987
 20
11.18930350931318
 30
0.0
  0
VERTEX
  5
2CA
  8
DEFAULT
 10
12.62701481647606
 20
10.98726548533077
 30
0.0
  0
VERTEX
  5
2CB
  8
DEFAULT
 10
12.50635385699299
 20
10.7818407295866
 30
0.0
  0
VERTEX
  5
2CC
  8
DEFAULT
 10
12.39191846477251
 20
10.5730470703462
 30
0.0
  0
VERTEX
  5
2CD
  8
DEFAULT
 10
12.28362349865086
 20
10.36098730221646
 30
0.0
  0
VERTEX
  5
2CE
  8
DEFAULT
 10
12.1813321554204
 20
10.1457854613896
 30
0.0
  0
VERTEX
  5
2CF
  8
DEFAULT
 10
12.08490763187347
 20
9.927565584057842
 30
0.0
  0
VERTEX
  5
2D0
  8
DEFAULT
 10
11.99421312480244
 20
9.706451706413416
 30
0.0
  0
VERTEX
  5
2D1
  8
DEFAULT
 10
11.90911183099965
 20
9.482567864648548
 30
0.0
  0
VERTEX
  5
2D2
  8
DEFAULT
 10
11.82946694725745
 20
9.256038094955457
 30
0.0
  0
VERTEX
  5
2D3
  8
DEFAULT
 10
11.75514167036821
 20
9.026986433526373
 30
0.0
  0
VERTEX
  5
2D4
  8
DEFAULT
 10
11.68599919712426
 20
8.79553691655352
 30
0.0
  0
VERTEX
  5
2D5
  8
DEFAULT
 10
11.62190272431797
 20
8.561813580229119
 30
0.0
  0
VERTEX
  5
2D6
  8
DEFAULT
 10
11.56271544874169
 20
8.325940460745397
 30
0.0
  0
VERTEX
  5
2D7
  8
DEFAULT
 10
11.50830056718776
 20
8.08804159429458
 30
0.0
  0
VERTEX
  5
2D8
  8
DEFAULT
 10
11.45852127644855
 20
7.848241017068893
 30
0.0
  0
VERTEX
  5
2D9
  8
DEFAULT
 10
11.41324077331641
 20
7.606662765260559
 30
0.0
  0
VERTEX
  5
2DA
  8
DEFAULT
 10
11.37232225458368
 20
7.363430875061803
 30
0.0
  0
VERTEX
  5
2DB
  8
DEFAULT
 10
11.33562891704272
 20
7.118669382664851
 30
0.0
  0
VERTEX
  5
2DC
  8
DEFAULT
 10
11.27437057270553
 20
6.625053736045254
 30
0.0
  0
VERTEX
  5
2DD
  8
DEFAULT
 10
11.22837131464365
 20
6.126808114939569
 30
0.0
  0
VERTEX
  5
2DE
  8
DEFAULT
 10
11.19653671719591
 20
5.624924808885593
 30
0.0
  0
VERTEX
  5
2DF
  8
DEFAULT
 10
11.17777235470113
 20
5.120396107421125
 30
0.0
  0
VERTEX
  5
2E0
  8
DEFAULT
 10
11.17098380149812
 20
4.614214300083962
 30
0.0
  0
VERTEX
  5
2E1
  8
DEFAULT
 10
11.17507663192573
 20
4.107371676411903
 30
0.0
  0
VERTEX
  5
2E2
  8
DEFAULT
 10
11.21152874102802
 20
3.095673138214291
 30
0.0
  0
VERTEX
  5
2E3
  8
DEFAULT
 10
11.27990503106146
 20
2.09194203153942
 30
0.0
  0
VERTEX
  5
2E4
  8
DEFAULT
 10
11.37910886845099
 20
1.09763278473341
 30
0.0
  0
VERTEX
  5
2E5
  8
DEFAULT
 10
11.50957537396443
 20
0.1129030485511187
 30
0.0
  0
VERTEX
  5
2E6
  8
DEFAULT
 10
11.67173966836961
 20
-0.8620895262525899
 30
0.0
  0
VERTEX
  5
2E7
  8
DEFAULT
 10
11.86603687243434
 20
-1.827187288922855
 30
0.0
  0
VERTEX
  5
2E8
  8
DEFAULT
 10
12.09290210692646
 20
-2.782232588704813
 30
0.0
  0
VERTEX
  5
2E9
  8
DEFAULT
 10
12.21868371082273
 20
-3.255936299151784
 30
0.0
  0
VERTEX
  5
2EA
  8
DEFAULT
 10
12.35277049261378
 20
-3.727067774843605
 30
0.0
  0
VERTEX
  5
2EB
  8
DEFAULT
 10
12.49521684239558
 20
-4.195607309435918
 30
0.0
  0
VERTEX
  5
2EC
  8
DEFAULT
 10
12.64607715026411
 20
-4.661535196584367
 30
0.0
  0
VERTEX
  5
2ED
  8
DEFAULT
 10
12.80535815933645
 20
-5.124840287837019
 30
0.0
  0
VERTEX
  5
2EE
  8
DEFAULT
 10
12.97287602481404
 20
-5.585545666311647
 30
0.0
  0
VERTEX
  5
2EF
  8
DEFAULT
 10
13.3316963578751
 20
-6.499283848967618
 30
0.0
  0
VERTEX
  5
2F0
  8
DEFAULT
 10
13.72068621522757
 20
-7.403002872633868
 30
0.0
  0
VERTEX
  5
2F1
  8
DEFAULT
 10
14.13799366265173
 20
-8.29695586539198
 30
0.0
  0
VERTEX
  5
2F2
  8
DEFAULT
 10
14.58176676592787
 20
-9.181395955323541
 30
0.0
  0
VERTEX
  5
2F3
  8
DEFAULT
 10
15.05015359083627
 20
-10.05657627051013
 30
0.0
  0
VERTEX
  5
2F4
  8
DEFAULT
 10
15.54130220315722
 20
-10.92274993903334
 30
0.0
  0
VERTEX
  5
2F5
  8
DEFAULT
 10
16.053360668671
 20
-11.78017008897475
 30
0.0
  0
VERTEX
  5
2F6
  8
DEFAULT
 10
16.58534692393325
 20
-12.62797018202757
 30
0.0
  0
VERTEX
  5
2F7
  8
DEFAULT
 10
17.13975838860109
 20
-13.46080501433154
 30
0.0
  0
VERTEX
  5
2F8
  8
DEFAULT
 10
17.42642585272225
 20
-13.86959018575
 30
0.0
  0
VERTEX
  5
2F9
  8
DEFAULT
 10
17.71996235310699
 20
-14.27220971563801
 30
0.0
  0
VERTEX
  5
2FA
  8
DEFAULT
 10
18.02078880105935
 20
-14.66785549521449
 30
0.0
  0
VERTEX
  5
2FB
  8
DEFAULT
 10
18.32932610788341
 20
-15.05571941569835
 30
0.0
  0
VERTEX
  5
2FC
  8
DEFAULT
 10
18.64599518488323
 20
-15.43499336830853
 30
0.0
  0
VERTEX
  5
2FD
  8
DEFAULT
 10
18.97121694336285
 20
-15.80486924426392
 30
0.0
  0
VERTEX
  5
2FE
  8
DEFAULT
 10
19.30541229462634
 20
-16.16453893478347
 30
0.0
  0
VERTEX
  5
2FF
  8
DEFAULT
 10
19.64900214997776
 20
-16.51319433108609
 30
0.0
  0
VERTEX
  5
300
  8
DEFAULT
 10
20.00240742072118
 20
-16.85002732439069
 30
0.0
  0
VERTEX
  5
301
  8
DEFAULT
 10
20.36604901816063
 20
-17.1742298059162
 30
0.0
  0
VERTEX
  5
302
  8
DEFAULT
 10
20.55183997417389
 20
-17.33134207076771
 30
0.0
  0
VERTEX
  5
303
  8
DEFAULT
 10
20.74034785360019
 20
-17.48499366688154
 30
0.0
  0
VERTEX
  5
304
  8
DEFAULT
 10
20.93162527035253
 20
-17.63508358066005
 30
0.0
  0
VERTEX
  5
305
  8
DEFAULT
 10
21.12572483834392
 20
-17.78151079850563
 30
0.0
  0
VERTEX
  5
306
  8
DEFAULT
 10
21.32267604635048
 20
-17.92420097282366
 30
0.0
  0
VERTEX
  5
307
  8
DEFAULT
 10
21.52241588260083
 20
-18.06318642003178
 30
0.0
  0
VERTEX
  5
308
  8
DEFAULT
 10
21.72485821018668
 20
-18.19852612255065
 30
0.0
  0
VERTEX
  5
309
  8
DEFAULT
 10
21.92991689219976
 20
-18.33027906280093
 30
0.0
  0
VERTEX
  5
30A
  8
DEFAULT
 10
22.3475387718745
 20
-18.58326058617839
 30
0.0
  0
VERTEX
  5
30B
  8
DEFAULT
 10
22.77459242635885
 20
-18.8226028495295
 30
0.0
  0
VERTEX
  5
30C
  8
DEFAULT
 10
23.2103887603866
 20
-19.04877771221957
 30
0.0
  0
VERTEX
  5
30D
  8
DEFAULT
 10
23.65423867869155
 20
-19.26225703361393
 30
0.0
  0
VERTEX
  5
30E
  8
DEFAULT
 10
24.10545308600748
 20
-19.4635126730779
 30
0.0
  0
VERTEX
  5
30F
  8
DEFAULT
 10
24.5633428870682
 20
-19.65301648997681
 30
0.0
  0
VERTEX
  5
310
  8
DEFAULT
 10
25.02721898660749
 20
-19.83124034367597
 30
0.0
  0
VERTEX
  5
311
  8
DEFAULT
 10
25.49639228935915
 20
-19.99865609354073
 30
0.0
  0
VERTEX
  5
312
  8
DEFAULT
 10
25.97017370005699
 20
-20.1557355989364
 30
0.0
  0
VERTEX
  5
313
  8
DEFAULT
 10
26.44787412343478
 20
-20.3029507192283
 30
0.0
  0
VERTEX
  5
314
  8
DEFAULT
 10
26.92880446422632
 20
-20.44077331378176
 30
0.0
  0
VERTEX
  5
315
  8
DEFAULT
 10
27.41227562716541
 20
-20.5696752419621
 30
0.0
  0
VERTEX
  5
316
  8
DEFAULT
 10
28.38408403842141
 20
-20.80260453666472
 30
0.0
  0
VERTEX
  5
317
  8
DEFAULT
 10
29.3586899389106
 20
-21.0050116292435
 30
0.0
  0
VERTEX
  5
318
  8
DEFAULT
 10
30.33509728569065
 20
-21.17816214954465
 30
0.0
  0
VERTEX
  5
319
  8
DEFAULT
 10
31.31321337965674
 20
-21.32281987839916
 30
0.0
  0
VERTEX
  5
31A
  8
DEFAULT
 10
32.292945521704
 20
-21.43974859663796
 30
0.0
  0
VERTEX
  5
31B
  8
DEFAULT
 10
33.2742010127276
 20
-21.52971208509204
 30
0.0
  0
VERTEX
  5
31C
  8
DEFAULT
 10
34.25688715362267
 20
-21.59347412459236
 30
0.0
  0
VERTEX
  5
31D
  8
DEFAULT
 10
35.24091124528439
 20
-21.63179849596987
 30
0.0
  0
VERTEX
  5
31E
  8
DEFAULT
 10
36.22618058860789
 20
-21.64544898005555
 30
0.0
  0
VERTEX
  5
31F
  8
DEFAULT
 10
37.21253169967235
 20
-21.63530355299315
 30
0.0
  0
VERTEX
  5
320
  8
DEFAULT
 10
38.19951795529303
 20
-21.6026969721777
 30
0.0
  0
VERTEX
  5
321
  8
DEFAULT
 10
39.18662194746916
 20
-21.54907819031703
 30
0.0
  0
VERTEX
  5
322
  8
DEFAULT
 10
40.1733262682
 20
-21.47589616011894
 30
0.0
  0
VERTEX
  5
323
  8
DEFAULT
 10
42.14346626332287
 20
-21.27663816554184
 30
0.0
  0
VERTEX
  5
324
  8
DEFAULT
 10
44.10579867665572
 20
-21.01651461010897
 30
0.0
  0
VERTEX
  5
325
  8
DEFAULT
 10
46.05625467405047
 20
-20.70128739790344
 30
0.0
  0
VERTEX
  5
326
  8
DEFAULT
 10
47.02584114155603
 20
-20.51788772591124
 30
0.0
  0
VERTEX
  5
327
  8
DEFAULT
 10
47.99104714079061
 20
-20.31339956269037
 30
0.0
  0
VERTEX
  5
328
  8
DEFAULT
 10
48.95140808614688
 20
-20.08489957276402
 30
0.0
  0
VERTEX
  5
329
  8
DEFAULT
 10
49.9064593920175
 20
-19.82946442065539
 30
0.0
  0
VERTEX
  5
32A
  8
DEFAULT
 10
50.85573647279515
 20
-19.54417077088769
 30
0.0
  0
VERTEX
  5
32B
  8
DEFAULT
 10
51.79877474287249
 20
-19.22609528798413
 30
0.0
  0
VERTEX
  5
32C
  8
DEFAULT
 10
52.26766288607413
 20
-19.05385057032174
 30
0.0
  0
VERTEX
  5
32D
  8
DEFAULT
 10
52.7339395780653
 20
-18.87231266488262
 30
0.0
  0
VERTEX
  5
32E
  8
DEFAULT
 10
53.19666921671241
 20
-18.68111467604322
 30
0.0
  0
VERTEX
  5
32F
  8
DEFAULT
 10
53.65491619988186
 20
-18.47988970817999
 30
0.0
  0
VERTEX
  5
330
  8
DEFAULT
 10
54.10774492544009
 20
-18.26827086566935
 30
0.0
  0
VERTEX
  5
331
  8
DEFAULT
 10
54.55421979125351
 20
-18.04589125288776
 30
0.0
  0
VERTEX
  5
332
  8
DEFAULT
 10
54.99340519518854
 20
-17.81238397421166
 30
0.0
  0
VERTEX
  5
333
  8
DEFAULT
 10
55.42436553511162
 20
-17.56738213401748
 30
0.0
  0
VERTEX
  5
334
  8
DEFAULT
 10
55.84616520888915
 20
-17.31051883668167
 30
0.0
  0
VERTEX
  5
335
  8
DEFAULT
 10
56.25786861438755
 20
-17.04142718658066
 30
0.0
  0
VERTEX
  5
336
  8
DEFAULT
 10
56.65854014947325
 20
-16.75974028809092
 30
0.0
  0
VERTEX
  5
337
  8
DEFAULT
 10
56.8544465899446
 20
-16.6140589658179
 30
0.0
  0
VERTEX
  5
338
  8
DEFAULT
 10
57.04724421201267
 20
-16.46509124558886
 30
0.0
  0
VERTEX
  5
339
  8
DEFAULT
 10
57.23681606541078
 20
-16.31279126545085
 30
0.0
  0
VERTEX
  5
33A
  8
DEFAULT
 10
57.42304519987222
 20
-16.15711316345094
 30
0.0
  0
VERTEX
  5
33B
  8
DEFAULT
 10
57.60581466513031
 20
-15.99801107763617
 30
0.0
  0
VERTEX
  5
33C
  8
DEFAULT
 10
57.78500751091834
 20
-15.8354391460536
 30
0.0
  0
VERTEX
  5
33D
  8
DEFAULT
 10
57.96050678696962
 20
-15.66935150675028
 30
0.0
  0
VERTEX
  5
33E
  8
DEFAULT
 10
58.13219554301743
 20
-15.49970229777328
 30
0.0
  0
VERTEX
  5
33F
  8
DEFAULT
 10
58.2999568287951
 20
-15.32644565716964
 30
0.0
  0
VERTEX
  5
340
  8
DEFAULT
 10
58.46367369403593
 20
-15.14953572298641
 30
0.0
  0
VERTEX
  5
341
  8
DEFAULT
 10
58.62326605145645
 20
-14.96895359150236
 30
0.0
  0
VERTEX
  5
342
  8
DEFAULT
 10
58.77880126570619
 20
-14.78478819192299
 30
0.0
  0
VERTEX
  5
343
  8
DEFAULT
 10
58.93038356441791
 20
-14.59715541168551
 30
0.0
  0
VERTEX
  5
344
  8
DEFAULT
 10
59.07811717522438
 20
-14.40617113822713
 30
0.0
  0
VERTEX
  5
345
  8
DEFAULT
 10
59.22210632575836
 20
-14.21195125898506
 30
0.0
  0
VERTEX
  5
346
  8
DEFAULT
 10
59.36245524365261
 20
-14.0146116613965
 30
0.0
  0
VERTEX
  5
347
  8
DEFAULT
 10
59.4992681565399
 20
-13.81426823289866
 30
0.0
  0
VERTEX
  5
348
  8
DEFAULT
 10
59.63264929205297
 20
-13.61103686092875
 30
0.0
  0
VERTEX
  5
349
  8
DEFAULT
 10
59.88953314148758
 20
-13.19637383632155
 30
0.0
  0
VERTEX
  5
34A
  8
DEFAULT
 10
60.13394061301852
 20
-12.77154968707256
 30
0.0
  0
VERTEX
  5
34B
  8
DEFAULT
 10
60.36670552770793
 20
-12.33749151267944
 30
0.0
  0
VERTEX
  5
34C
  8
DEFAULT
 10
60.58866170661788
 20
-11.89512641263985
 30
0.0
  0
VERTEX
  5
34D
  8
DEFAULT
 10
60.8006429708105
 20
-11.44538148645145
 30
0.0
  0
VERTEX
  5
34E
  8
DEFAULT
 10
61.0034831413479
 20
-10.9891838336119
 30
0.0
  0
VERTEX
  5
34F
  8
DEFAULT
 10
61.38507548570541
 20
-10.06113874597002
 30
0.0
  0
VERTEX
  5
350
  8
DEFAULT
 10
61.74010930818727
 20
-9.118407945695495
 30
0.0
  0
VERTEX
  5
351
  8
DEFAULT
 10
62.07525517729032
 20
-8.168408228769605
 30
0.0
  0
VERTEX
  5
352
  8
DEFAULT
 10
62.70362118149404
 20
-6.266494414266059
 30
0.0
  0
VERTEX
  5
353
  8
DEFAULT
 10
63.27881730702484
 20
-4.36585759719548
 30
0.0
  0
VERTEX
  5
354
  8
DEFAULT
 10
63.80054321473764
 20
-2.467183257671111
 30
0.0
  0
VERTEX
  5
355
  8
DEFAULT
 10
64.26849856548742
 20
-0.5711568758061953
 30
0.0
  0
VERTEX
  5
356
  8
DEFAULT
 10
64.68126208984913
 20
1.32551223172643
 30
0.0
  0
VERTEX
  5
357
  8
DEFAULT
 10
64.86517166573164
 20
2.279837840243355
 30
0.0
  0
VERTEX
  5
358
  8
DEFAULT
 10
65.03292879727773
 20
3.242019402015558
 30
0.0
  0
VERTEX
  5
359
  8
DEFAULT
 10
65.18365524438433
 20
4.214953354609186
 30
0.0
  0
VERTEX
  5
35A
  8
DEFAULT
 10
65.31647276694824
 20
5.201536135590391
 30
0.0
  0
VERTEX
  5
35B
  8
DEFAULT
 10
65.43050312486636
 20
6.204664182525322
 30
0.0
  0
VERTEX
  5
35C
  8
DEFAULT
 10
65.52486807803558
 20
7.227233932980131
 30
0.0
  0
VERTEX
  5
35D
  8
DEFAULT
 10
65.59659951353098
 20
8.269215359660453
 30
0.0
  0
VERTEX
  5
35E
  8
DEFAULT
 10
65.62056840288605
 20
8.79400089103384
 30
0.0
  0
VERTEX
  5
35F
  8
DEFAULT
 10
65.63436982714039
 20
9.318872575829886
 30
0.0
  0
VERTEX
  5
360
  8
DEFAULT
 10
65.63632660166475
 20
9.841997620098978
 30
0.0
  0
VERTEX
  5
361
  8
DEFAULT
 10
65.62476154182988
 20
10.3615432298915
 30
0.0
  0
VERTEX
  5
362
  8
DEFAULT
 10
65.59799746300655
 20
10.87567661125784
 30
0.0
  0
VERTEX
  5
363
  8
DEFAULT
 10
65.57839167127759
 20
11.13014096817194
 30
0.0
  0
VERTEX
  5
364
  8
DEFAULT
 10
65.55435718056555
 20
11.38256497024839
 30
0.0
  0
VERTEX
  5
365
  8
DEFAULT
 10
65.52568434279175
 20
11.63271951824348
 30
0.0
  0
VERTEX
  5
366
  8
DEFAULT
 10
65.49216350987759
 20
11.88037551291351
 30
0.0
  0
VERTEX
  5
367
  8
DEFAULT
 10
65.45358503374436
 20
12.12530385501479
 30
0.0
  0
VERTEX
  5
368
  8
DEFAULT
 10
65.40973926631344
 20
12.36727544530361
 30
0.0
  0
VERTEX
  5
369
  8
DEFAULT
 10
65.36041655950615
 20
12.60606118453627
 30
0.0
  0
VERTEX
  5
36A
  8
DEFAULT
 10
65.30540726524387
 20
12.84143197346907
 30
0.0
  0
VERTEX
  5
36B
  8
DEFAULT
 10
65.2445017354479
 20
13.0731587128583
 30
0.0
  0
VERTEX
  5
36C
  8
DEFAULT
 10
65.1774903220396
 20
13.30101230346026
 30
0.0
  0
VERTEX
  5
36D
  8
DEFAULT
 10
65.10416337694033
 20
13.52476364603126
 30
0.0
  0
VERTEX
  5
36E
  8
DEFAULT
 10
65.02431125207144
 20
13.74418364132759
 30
0.0
  0
VERTEX
  5
36F
  8
DEFAULT
 10
64.98187273219881
 20
13.85219779023409
 30
0.0
  0
VERTEX
  5
370
  8
DEFAULT
 10
64.93772429935427
 20
13.95904319010554
 30
0.0
  0
VERTEX
  5
371
  8
DEFAULT
 10
64.891839747528
 20
14.06469120353647
 30
0.0
  0
VERTEX
  5
372
  8
DEFAULT
 10
64.84419287071015
 20
14.16911319312142
 30
0.0
  0
VERTEX
  5
373
  8
DEFAULT
 10
64.7947574628909
 20
14.27228052145493
 30
0.0
  0
VERTEX
  5
374
  8
DEFAULT
 10
64.74350731806042
 20
14.37416455113153
 30
0.0
  0
VERTEX
  5
375
  8
DEFAULT
 10
64.69041623020888
 20
14.47473664474575
 30
0.0
  0
VERTEX
  5
376
  8
DEFAULT
 10
64.63545799332644
 20
14.57396816489215
 30
0.0
  0
VERTEX
  5
377
  8
DEFAULT
 10
64.57860640140328
 20
14.67183047416525
 30
0.0
  0
VERTEX
  5
378
  8
DEFAULT
 10
64.51983524842956
 20
14.7682949351596
 30
0.0
  0
VERTEX
  5
379
  8
DEFAULT
 10
64.45911832839545
 20
14.86333291046972
 30
0.0
  0
SEQEND
  5
37A
  8
DEFAULT
  0
POLYLINE
  5
37B
  8
DEFAULT
 66
     1
 10
0.0
 20
0.0
 30
0.0
 70
     1
  0
VERTEX
  5
37C
  8
DEFAULT
 10
-64.9776151964292
 20
14.95691576269016
 30
0.0
  0
VERTEX
  5
37D
  8
DEFAULT
 10
-64.91293795210316
 20
15.04902193916422
 30
0.0
  0
VERTEX
  5
37E
  8
DEFAULT
 10
-64.84629528983744
 20
15.13965822623023
 30
0.0
  0
VERTEX
  5
37F
  8
DEFAULT
 10
-64.77771997077237
 20
15.22883849497529
 30
0.0
  0
VERTEX
  5
380
  8
DEFAULT
 10
-64.70724475604827
 20
15.31657661648651
 30
0.0
  0
VERTEX
  5
381
  8
DEFAULT
 10
-64.63490240680552
 20
15.40288646185098
 30
0.0
  0
VERTEX
  5
382
  8
DEFAULT
 10
-64.56072568418449
 20
15.48778190215581
 30
0.0
  0
VERTEX
  5
383
  8
DEFAULT
 10
-64.4847473493255
 20
15.5712768084881
 30
0.0
  0
VERTEX
  5
384
  8
DEFAULT
 10
-64.40700016336892
 20
15.65338505193494
 30
0.0
  0
VERTEX
  5
385
  8
DEFAULT
 10
-64.32751688745509
 20
15.73412050358343
 30
0.0
  0
VERTEX
  5
386
  8
DEFAULT
 10
-64.24633028272436
 20
15.81349703452068
 30
0.0
  0
VERTEX
  5
387
  8
DEFAULT
 10
-64.16347311031707
 20
15.89152851583379
 30
0.0
  0
VERTEX
  5
388
  8
DEFAULT
 10
-64.07897813137359
 20
15.96822881860985
 30
0.0
  0
VERTEX
  5
389
  8
DEFAULT
 10
-63.99287810703427
 20
16.04361181393596
 30
0.0
  0
VERTEX
  5
38A
  8
DEFAULT
 10
-63.90520579843945
 20
16.11769137289924
 30
0.0
  0
VERTEX
  5
38B
  8
DEFAULT
 10
-63.72527537304474
 20
16.26199566608566
 30
0.0
  0
VERTEX
  5
38C
  8
DEFAULT
 10
-63.53944894431227
 20
16.4012526668659
 30
0.0
  0
VERTEX
  5
38D
  8
DEFAULT
 10
-63.34798860136482
 20
16.53557334393677
 30
0.0
  0
VERTEX
  5
38E
  8
DEFAULT
 10
-63.15115643332523
 20
16.66506866599507
 30
0.0
  0
VERTEX
  5
38F
  8
DEFAULT
 10
-62.94921452931628
 20
16.78984960173761
 30
0.0
  0
VERTEX
  5
390
  8
DEFAULT
 10
-62.74242497846079
 20
16.91002711986117
 30
0.0
  0
VERTEX
  5
391
  8
DEFAULT
 10
-62.53104986988158
 20
17.02571218906257
 30
0.0
  0
VERTEX
  5
392
  8
DEFAULT
 10
-62.31535129270143
 20
17.13701577803861
 30
0.0
  0
VERTEX
  5
393
  8
DEFAULT
 10
-62.09559133604316
 20
17.24404885548608
 30
0.0
  0
VERTEX
  5
394
  8
DEFAULT
 10
-61.87203208902958
 20
17.34692239010178
 30
0.0
  0
VERTEX
  5
395
  8
DEFAULT
 10
-61.64493564078349
 20
17.44574735058253
 30
0.0
  0
VERTEX
  5
396
  8
DEFAULT
 10
-61.4145640804277
 20
17.54063470562512
 30
0.0
  0
VERTEX
  5
397
  8
DEFAULT
 10
-61.18117949708501
 20
17.63169542392635
 30
0.0
  0
VERTEX
  5
398
  8
DEFAULT
 10
-60.70641961793018
 20
17.80278082509193
 30
0.0
  0
VERTEX
  5
399
  8
DEFAULT
 10
-60.22275271630144
 20
17.9598913036537
 30
0.0
  0
VERTEX
  5
39A
  8
DEFAULT
 10
-59.73227550518124
 20
18.10391460918606
 30
0.0
  0
VERTEX
  5
39B
  8
DEFAULT
 10
-59.23708469755205
 20
18.23573849126342
 30
0.0
  0
VERTEX
  5
39C
  8
DEFAULT
 10
-58.73927700639631
 20
18.35625069946019
 30
0.0
  0
VERTEX
  5
39D
  8
DEFAULT
 10
-58.24094914469647
 20
18.46633898335079
 30
0.0
  0
VERTEX
  5
39E
  8
DEFAULT
 10
-57.24813220861402
 20
18.65824381759049
 30
0.0
  0
VERTEX
  5
39F
  8
DEFAULT
 10
-56.26046982826287
 20
18.81580019597476
 30
0.0
  0
VERTEX
  5
3A0
  8
DEFAULT
 10
-55.27681038962088
 20
18.94280436157523
 30
0.0
  0
VERTEX
  5
3A1
  8
DEFAULT
 10
-54.29600227866591
 20
19.04305255746353
 30
0.0
  0
VERTEX
  5
3A2
  8
DEFAULT
 10
-53.31689388137583
 20
19.1203410267113
 30
0.0
  0
VERTEX
  5
3A3
  8
DEFAULT
 10
-52.33833358372851
 20
19.17846601239017
 30
0.0
  0
VERTEX
  5
3A4
  8
DEFAULT
 10
-50.37825083127362
 20
19.25241050532774
 30
0.0
  0
VERTEX
  5
3A5
  8
DEFAULT
 10
-46.43137181323178
 20
19.30053360224829
 30
0.0
  0
VERTEX
  5
3A6
  8
DEFAULT
 10
-42.46856346776737
 20
19.24618749841173
 30
0.0
  0
VERTEX
  5
3A7
  8
DEFAULT
 10
-38.51504114077007
 20
19.09769524891129
 30
0.0
  0
VERTEX
  5
3A8
  8
DEFAULT
 10
-36.5432732232962
 20
18.97459074535002
 30
0.0
  0
VERTEX
  5
3A9
  8
DEFAULT
 10
-34.57456735626541
 20
18.80896465358554
 30
0.0
  0
VERTEX
  5
3AA
  8
DEFAULT
 10
-32.60894227020971
 20
18.59570463340958
 30
0.0
  0
VERTEX
  5
3AB
  8
DEFAULT
 10
-30.64729195850922
 20
18.33909699076833
 30
0.0
  0
VERTEX
  5
3AC
  8
DEFAULT
 10
-26.74036689454276
 20
17.72238270802928
 30
0.0
  0
VERTEX
  5
3AD
  8
DEFAULT
 10
-24.798789760939
 20
17.36666954639346
 30
0.0
  0
VERTEX
  5
3AE
  8
DEFAULT
 10
-23.8338513984863
 20
17.16544970445866
 30
0.0
  0
VERTEX
  5
3AF
  8
DEFAULT
 10
-22.87447064092622
 20
16.94088189318575
 30
0.0
  0
VERTEX
  5
3B0
  8
DEFAULT
 10
-21.92189058975367
 20
16.6871367661296
 30
0.0
  0
VERTEX
  5
3B1
  8
DEFAULT
 10
-21.44853929827988
 20
16.54750103841869
 30
0.0
  0
VERTEX
  5
3B2
  8
DEFAULT
 10
-20.97735434646355
 20
16.39838497684506
 30
0.0
  0
VERTEX
  5
3B3
  8
DEFAULT
 10
-20.50849112199155
 20
16.23905991310304
 30
0.0
  0
VERTEX
  5
3B4
  8
DEFAULT
 10
-20.04210501255074
 20
16.068797178887
 30
0.0
  0
VERTEX
  5
3B5
  8
DEFAULT
 10
-19.57835140582798
 20
15.8868681058913
 30
0.0
  0
VERTEX
  5
3B6
  8
DEFAULT
 10
-19.11738568951013
 20
15.6925440258103
 30
0.0
  0
VERTEX
  5
3B7
  8
DEFAULT
 10
-18.65956824541056
 20
15.48521316396288
 30
0.0
  0
VERTEX
  5
3B8
  8
DEFAULT
 10
-18.20607943184865
 20
15.26473132016606
 30
0.0
  0
VERTEX
  5
3B9
  8
DEFAULT
 10
-17.75830460127028
 20
15.03107118786137
 30
0.0
  0
VERTEX
  5
3BA
  8
DEFAULT
 10
-17.31762910612134
 20
14.78420546049037
 30
0.0
  0
VERTEX
  5
3BB
  8
DEFAULT
 10
-16.88543829884771
 20
14.52410683149458
 30
0.0
  0
VERTEX
  5
3BC
  8
DEFAULT
 10
-16.46311753189527
 20
14.25074799431556
 30
0.0
  0
VERTEX
  5
3BD
  8
DEFAULT
 10
-16.25609133617884
 20
14.10908746435782
 30
0.0
  0
VERTEX
  5
3BE
  8
DEFAULT
 10
-16.05205215770992
 20
13.96410164239485
 30
0.0
  0
VERTEX
  5
3BF
  8
DEFAULT
 10
-15.85117316554423
 20
13.81578711510683
 30
0.0
  0
VERTEX
  5
3C0
  8
DEFAULT
 10
-15.65362752873752
 20
13.66414046917398
 30
0.0
  0
VERTEX
  5
3C1
  8
DEFAULT
 10
-15.45958841634552
 20
13.50915829127647
 30
0.0
  0
VERTEX
  5
3C2
  8
DEFAULT
 10
-15.26922899742397
 20
13.3508371680945
 30
0.0
  0
VERTEX
  5
3C3
  8
DEFAULT
 10
-15.0827224410286
 20
13.18917368630827
 30
0.0
  0
VERTEX
  5
3C4
  8
DEFAULT
 10
-14.90024191621515
 20
13.02416443259796
 30
0.0
  0
VERTEX
  5
3C5
  8
DEFAULT
 10
-14.72196059203936
 20
12.85580599364377
 30
0.0
  0
VERTEX
  5
3C6
  8
DEFAULT
 10
-14.54805163755695
 20
12.68409495612589
 30
0.0
  0
VERTEX
  5
3C7
  8
DEFAULT
 10
-14.37868822182366
 20
12.50902790672451
 30
0.0
  0
VERTEX
  5
3C8
  8
DEFAULT
 10
-14.21404351389524
 20
12.33060143211983
 30
0.0
  0
VERTEX
  5
3C9
  8
DEFAULT
 10
-14.05429068282741
 20
12.14881211899204
 30
0.0
  0
VERTEX
  5
3CA
  8
DEFAULT
 10
-13.89960289767592
 20
11.96365655402133
 30
0.0
  0
VERTEX
  5
3CB
  8
DEFAULT
 10
-13.75015332749649
 20
11.77513132388789
 30
0.0
  0
VERTEX
  5
3CC
  8
DEFAULT
 10
-13.60611514134486
 20
11.58323301527193
 30
0.0
  0
VERTEX
  5
3CD
  8
DEFAULT
 10
-13.46766150827677
 20
11.38795821485362
 30
0.0
  0
VERTEX
  5
3CE
  8
DEFAULT
 10
-13.33496559734796
 20
11.18930350931316
 30
0.0
  0
VERTEX
  5
3CF
  8
DEFAULT
 10
-13.20820057761415
 20
10.98726548533076
 30
0.0
  0
VERTEX
  5
3D0
  8
DEFAULT
 10
-13.08753961813109
 20
10.78184072958659
 30
0.0
  0
VERTEX
  5
3D1
  8
DEFAULT
 10
-12.97310422591061
 20
10.57304707034619
 30
0.0
  0
VERTEX
  5
3D2
  8
DEFAULT
 10
-12.86480925978896
 20
10.36098730221645
 30
0.0
  0
VERTEX
  5
3D3
  8
DEFAULT
 10
-12.7625179165585
 20
10.14578546138959
 30
0.0
  0
VERTEX
  5
3D4
  8
DEFAULT
 10
-12.66609339301157
 20
9.927565584057831
 30
0.0
  0
VERTEX
  5
3D5
  8
DEFAULT
 10
-12.57539888594054
 20
9.706451706413404
 30
0.0
  0
VERTEX
  5
3D6
  8
DEFAULT
 10
-12.49029759213775
 20
9.482567864648535
 30
0.0
  0
VERTEX
  5
3D7
  8
DEFAULT
 10
-12.41065270839555
 20
9.256038094955446
 30
0.0
  0
VERTEX
  5
3D8
  8
DEFAULT
 10
-12.33632743150631
 20
9.02698643352636
 30
0.0
  0
VERTEX
  5
3D9
  8
DEFAULT
 10
-12.26718495826236
 20
8.795536916553505
 30
0.0
  0
VERTEX
  5
3DA
  8
DEFAULT
 10
-12.20308848545607
 20
8.561813580229105
 30
0.0
  0
VERTEX
  5
3DB
  8
DEFAULT
 10
-12.14390120987979
 20
8.325940460745382
 30
0.0
  0
VERTEX
  5
3DC
  8
DEFAULT
 10
-12.08948632832586
 20
8.088041594294566
 30
0.0
  0
VERTEX
  5
3DD
  8
DEFAULT
 10
-12.03970703758665
 20
7.848241017068877
 30
0.0
  0
VERTEX
  5
3DE
  8
DEFAULT
 10
-11.99442653445451
 20
7.606662765260541
 30
0.0
  0
VERTEX
  5
3DF
  8
DEFAULT
 10
-11.95350801572178
 20
7.363430875061785
 30
0.0
  0
VERTEX
  5
3E0
  8
DEFAULT
 10
-11.91681467818082
 20
7.118669382664832
 30
0.0
  0
VERTEX
  5
3E1
  8
DEFAULT
 10
-11.85555633384363
 20
6.625053736045235
 30
0.0
  0
VERTEX
  5
3E2
  8
DEFAULT
 10
-11.80955707578175
 20
6.126808114939549
 30
0.0
  0
VERTEX
  5
3E3
  8
DEFAULT
 10
-11.77772247833401
 20
5.624924808885572
 30
0.0
  0
VERTEX
  5
3E4
  8
DEFAULT
 10
-11.75895811583923
 20
5.120396107421102
 30
0.0
  0
VERTEX
  5
3E5
  8
DEFAULT
 10
-11.75216956263623
 20
4.614214300083938
 30
0.0
  0
VERTEX
  5
3E6
  8
DEFAULT
 10
-11.75626239306383
 20
4.107371676411878
 30
0.0
  0
VERTEX
  5
3E7
  8
DEFAULT
 10
-11.79271450216612
 20
3.095673138214264
 30
0.0
  0
VERTEX
  5
3E8
  8
DEFAULT
 10
-11.86109079219956
 20
2.091942031539392
 30
0.0
  0
VERTEX
  5
3E9
  8
DEFAULT
 10
-11.96029462958909
 20
1.09763278473338
 30
0.0
  0
VERTEX
  5
3EA
  8
DEFAULT
 10
-12.09076113510254
 20
0.1129030485510888
 30
0.0
  0
VERTEX
  5
3EB
  8
DEFAULT
 10
-12.25292542950771
 20
-0.86208952625262
 30
0.0
  0
VERTEX
  5
3EC
  8
DEFAULT
 10
-12.44722263357245
 20
-1.827187288922884
 30
0.0
  0
VERTEX
  5
3ED
  8
DEFAULT
 10
-12.67408786806457
 20
-2.782232588704843
 30
0.0
  0
VERTEX
  5
3EE
  8
DEFAULT
 10
-12.79986947196084
 20
-3.255936299151813
 30
0.0
  0
VERTEX
  5
3EF
  8
DEFAULT
 10
-12.93395625375188
 20
-3.727067774843634
 30
0.0
  0
VERTEX
  5
3F0
  8
DEFAULT
 10
-13.07640260353369
 20
-4.195607309435946
 30
0.0
  0
VERTEX
  5
3F1
  8
DEFAULT
 10
-13.22726291140222
 20
-4.661535196584395
 30
0.0
  0
VERTEX
  5
3F2
  8
DEFAULT
 10
-13.38654392047456
 20
-5.124840287837046
 30
0.0
  0
VERTEX
  5
3F3
  8
DEFAULT
 10
-13.55406178595215
 20
-5.585545666311673
 30
0.0
  0
VERTEX
  5
3F4
  8
DEFAULT
 10
-13.91288211901321
 20
-6.499283848967645
 30
0.0
  0
VERTEX
  5
3F5
  8
DEFAULT
 10
-14.30187197636567
 20
-7.403002872633893
 30
0.0
  0
VERTEX
  5
3F6
  8
DEFAULT
 10
-14.71917942378984
 20
-8.296955865392004
 30
0.0
  0
VERTEX
  5
3F7
  8
DEFAULT
 10
-15.16295252706598
 20
-9.181395955323563
 30
0.0
  0
VERTEX
  5
3F8
  8
DEFAULT
 10
-15.63133935197438
 20
-10.05657627051015
 30
0.0
  0
VERTEX
  5
3F9
  8
DEFAULT
 10
-16.12248796429533
 20
-10.92274993903336
 30
0.0
  0
VERTEX
  5
3FA
  8
DEFAULT
 10
-16.63454642980911
 20
-11.78017008897477
 30
0.0
  0
VERTEX
  5
3FB
  8
DEFAULT
 10
-17.16653268507137
 20
-12.62797018202759
 30
0.0
  0
VERTEX
  5
3FC
  8
DEFAULT
 10
-17.72094414973921
 20
-13.46080501433156
 30
0.0
  0
VERTEX
  5
3FD
  8
DEFAULT
 10
-18.00761161386037
 20
-13.86959018575003
 30
0.0
  0
VERTEX
  5
3FE
  8
DEFAULT
 10
-18.30114811424511
 20
-14.27220971563804
 30
0.0
  0
VERTEX
  5
3FF
  8
DEFAULT
 10
-18.60197456219748
 20
-14.66785549521452
 30
0.0
  0
VERTEX
  5
400
  8
DEFAULT
 10
-18.91051186902154
 20
-15.05571941569838
 30
0.0
  0
VERTEX
  5
401
  8
DEFAULT
 10
-19.22718094602136
 20
-15.43499336830856
 30
0.0
  0
VERTEX
  5
402
  8
DEFAULT
 10
-19.55240270450098
 20
-15.80486924426396
 30
0.0
  0
VERTEX
  5
403
  8
DEFAULT
 10
-19.88659805576447
 20
-16.1645389347835
 30
0.0
  0
VERTEX
  5
404
  8
DEFAULT
 10
-20.23018791111589
 20
-16.51319433108612
 30
0.0
  0
VERTEX
  5
405
  8
DEFAULT
 10
-20.58359318185931
 20
-16.85002732439072
 30
0.0
  0
VERTEX
  5
406
  8
DEFAULT
 10
-20.94723477929876
 20
-17.17422980591623
 30
0.0
  0
VERTEX
  5
407
  8
DEFAULT
 10
-21.13302573531203
 20
-17.33134207076774
 30
0.0
  0
VERTEX
  5
408
  8
DEFAULT
 10
-21.32153361473833
 20
-17.48499366688157
 30
0.0
  0
VERTEX
  5
409
  8
DEFAULT
 10
-21.51281103149067
 20
-17.63508358066009
 30
0.0
  0
VERTEX
  5
40A
  8
DEFAULT
 10
-21.70691059948206
 20
-17.78151079850566
 30
0.0
  0
VERTEX
  5
40B
  8
DEFAULT
 10
-21.90386180748862
 20
-17.92420097282369
 30
0.0
  0
VERTEX
  5
40C
  8
DEFAULT
 10
-22.10360164373897
 20
-18.06318642003181
 30
0.0
  0
VERTEX
  5
40D
  8
DEFAULT
 10
-22.30604397132482
 20
-18.19852612255067
 30
0.0
  0
VERTEX
  5
40E
  8
DEFAULT
 10
-22.51110265333789
 20
-18.33027906280095
 30
0.0
  0
VERTEX
  5
40F
  8
DEFAULT
 10
-22.92872453301263
 20
-18.58326058617842
 30
0.0
  0
VERTEX
  5
410
  8
DEFAULT
 10
-23.35577818749698
 20
-18.82260284952952
 30
0.0
  0
VERTEX
  5
411
  8
DEFAULT
 10
-23.79157452152473
 20
-19.04877771221959
 30
0.0
  0
VERTEX
  5
412
  8
DEFAULT
 10
-24.23542443982967
 20
-19.26225703361394
 30
0.0
  0
VERTEX
  5
413
  8
DEFAULT
 10
-24.6866388471456
 20
-19.46351267307791
 30
0.0
  0
VERTEX
  5
414
  8
DEFAULT
 10
-25.14452864820632
 20
-19.65301648997682
 30
0.0
  0
VERTEX
  5
415
  8
DEFAULT
 10
-25.60840474774561
 20
-19.83124034367599
 30
0.0
  0
VERTEX
  5
416
  8
DEFAULT
 10
-26.07757805049727
 20
-19.99865609354075
 30
0.0
  0
VERTEX
  5
417
  8
DEFAULT
 10
-26.5513594611951
 20
-20.15573559893641
 30
0.0
  0
VERTEX
  5
418
  8
DEFAULT
 10
-27.02905988457289
 20
-20.30295071922831
 30
0.0
  0
VERTEX
  5
419
  8
DEFAULT
 10
-27.50999022536443
 20
-20.44077331378177
 30
0.0
  0
VERTEX
  5
41A
  8
DEFAULT
 10
-27.99346138830352
 20
-20.56967524196211
 30
0.0
  0
VERTEX
  5
41B
  8
DEFAULT
 10
-28.96526979955951
 20
-20.80260453666473
 30
0.0
  0
VERTEX
  5
41C
  8
DEFAULT
 10
-29.9398757000487
 20
-21.0050116292435
 30
0.0
  0
VERTEX
  5
41D
  8
DEFAULT
 10
-30.91628304682876
 20
-21.17816214954465
 30
0.0
  0
VERTEX
  5
41E
  8
DEFAULT
 10
-31.89439914079484
 20
-21.32281987839916
 30
0.0
  0
VERTEX
  5
41F
  8
DEFAULT
 10
-32.8741312828421
 20
-21.43974859663797
 30
0.0
  0
VERTEX
  5
420
  8
DEFAULT
 10
-33.85538677386569
 20
-21.52971208509205
 30
0.0
  0
VERTEX
  5
421
  8
DEFAULT
 10
-34.83807291476077
 20
-21.59347412459236
 30
0.0
  0
VERTEX
  5
422
  8
DEFAULT
 10
-35.82209700642249
 20
-21.63179849596987
 30
0.0
  0
VERTEX
  5
423
  8
DEFAULT
 10
-36.80736634974599
 20
-21.64544898005555
 30
0.0
  0
VERTEX
  5
424
  8
DEFAULT
 10
-37.79371746081046
 20
-21.63530355299315
 30
0.0
  0
VERTEX
  5
425
  8
DEFAULT
 10
-38.78070371643112
 20
-21.6026969721777
 30
0.0
  0
VERTEX
  5
426
  8
DEFAULT
 10
-39.76780770860725
 20
-21.54907819031703
 30
0.0
  0
VERTEX
  5
427
  8
DEFAULT
 10
-40.75451202933809
 20
-21.47589616011894
 30
0.0
  0
VERTEX
  5
428
  8
DEFAULT
 10
-42.72465202446097
 20
-21.27663816554184
 30
0.0
  0
VERTEX
  5
429
  8
DEFAULT
 10
-44.68698443779381
 20
-21.01651461010897
 30
0.0
  0
VERTEX
  5
42A
  8
DEFAULT
 10
-46.63744043518857
 20
-20.70128739790344
 30
0.0
  0
VERTEX
  5
42B
  8
DEFAULT
 10
-47.60702690269413
 20
-20.51788772591124
 30
0.0
  0
VERTEX
  5
42C
  8
DEFAULT
 10
-48.57223290192871
 20
-20.31339956269037
 30
0.0
  0
VERTEX
  5
42D
  8
DEFAULT
 10
-49.53259384728499
 20
-20.08489957276402
 30
0.0
  0
VERTEX
  5
42E
  8
DEFAULT
 10
-50.4876451531556
 20
-19.82946442065539
 30
0.0
  0
VERTEX
  5
42F
  8
DEFAULT
 10
-51.43692223393325
 20
-19.54417077088769
 30
0.0
  0
VERTEX
  5
430
  8
DEFAULT
 10
-52.37996050401059
 20
-19.22609528798413
 30
0.0
  0
VERTEX
  5
431
  8
DEFAULT
 10
-52.84884864721224
 20
-19.05385057032174
 30
0.0
  0
VERTEX
  5
432
  8
DEFAULT
 10
-53.31512533920341
 20
-18.87231266488262
 30
0.0
  0
VERTEX
  5
433
  8
DEFAULT
 10
-53.77785497785051
 20
-18.68111467604322
 30
0.0
  0
VERTEX
  5
434
  8
DEFAULT
 10
-54.23610196101996
 20
-18.47988970817999
 30
0.0
  0
VERTEX
  5
435
  8
DEFAULT
 10
-54.68893068657819
 20
-18.26827086566935
 30
0.0
  0
VERTEX
  5
436
  8
DEFAULT
 10
-55.13540555239161
 20
-18.04589125288776
 30
0.0
  0
VERTEX
  5
437
  8
DEFAULT
 10
-55.57459095632665
 20
-17.81238397421166
 30
0.0
  0
VERTEX
  5
438
  8
DEFAULT
 10
-56.00555129624972
 20
-17.56738213401748
 30
0.0
  0
VERTEX
  5
439
  8
DEFAULT
 10
-56.42735097002725
 20
-17.31051883668167
 30
0.0
  0
VERTEX
  5
43A
  8
DEFAULT
 10
-56.83905437552566
 20
-17.04142718658066
 30
0.0
  0
VERTEX
  5
43B
  8
DEFAULT
 10
-57.23972591061136
 20
-16.75974028809092
 30
0.0
  0
VERTEX
  5
43C
  8
DEFAULT
 10
-57.4356323510827
 20
-16.6140589658179
 30
0.0
  0
VERTEX
  5
43D
  8
DEFAULT
 10
-57.62842997315078
 20
-16.46509124558886
 30
0.0
  0
VERTEX
  5
43E
  8
DEFAULT
 10
-57.81800182654889
 20
-16.31279126545085
 30
0.0
  0
VERTEX
  5
43F
  8
DEFAULT
 10
-58.00423096101034
 20
-16.15711316345094
 30
0.0
  0
VERTEX
  5
440
  8
DEFAULT
 10
-58.18700042626843
 20
-15.99801107763617
 30
0.0
  0
VERTEX
  5
441
  8
DEFAULT
 10
-58.36619327205646
 20
-15.8354391460536
 30
0.0
  0
VERTEX
  5
442
  8
DEFAULT
 10
-58.54169254810773
 20
-15.66935150675028
 30
0.0
  0
VERTEX
  5
443
  8
DEFAULT
 10
-58.71338130415555
 20
-15.49970229777328
 30
0.0
  0
VERTEX
  5
444
  8
DEFAULT
 10
-58.88114258993322
 20
-15.32644565716964
 30
0.0
  0
VERTEX
  5
445
  8
DEFAULT
 10
-59.04485945517405
 20
-15.14953572298641
 30
0.0
  0
VERTEX
  5
446
  8
DEFAULT
 10
-59.20445181259457
 20
-14.96895359150236
 30
0.0
  0
VERTEX
  5
447
  8
DEFAULT
 10
-59.35998702684431
 20
-14.78478819192299
 30
0.0
  0
VERTEX
  5
448
  8
DEFAULT
 10
-59.51156932555602
 20
-14.59715541168551
 30
0.0
  0
VERTEX
  5
449
  8
DEFAULT
 10
-59.6593029363625
 20
-14.40617113822713
 30
0.0
  0
VERTEX
  5
44A
  8
DEFAULT
 10
-59.80329208689648
 20
-14.21195125898506
 30
0.0
  0
VERTEX
  5
44B
  8
DEFAULT
 10
-59.94364100479073
 20
-14.0146116613965
 30
0.0
  0
VERTEX
  5
44C
  8
DEFAULT
 10
-60.08045391767801
 20
-13.81426823289866
 30
0.0
  0
VERTEX
  5
44D
  8
DEFAULT
 10
-60.21383505319109
 20
-13.61103686092875
 30
0.0
  0
VERTEX
  5
44E
  8
DEFAULT
 10
-60.47071890262569
 20
-13.19637383632155
 30
0.0
  0
VERTEX
  5
44F
  8
DEFAULT
 10
-60.71512637415664
 20
-12.77154968707256
 30
0.0
  0
VERTEX
  5
450
  8
DEFAULT
 10
-60.94789128884604
 20
-12.33749151267944
 30
0.0
  0
VERTEX
  5
451
  8
DEFAULT
 10
-61.169847467756
 20
-11.89512641263985
 30
0.0
  0
VERTEX
  5
452
  8
DEFAULT
 10
-61.38182873194862
 20
-11.44538148645145
 30
0.0
  0
VERTEX
  5
453
  8
DEFAULT
 10
-61.58466890248602
 20
-10.9891838336119
 30
0.0
  0
VERTEX
  5
454
  8
DEFAULT
 10
-61.96626124684354
 20
-10.06113874597002
 30
0.0
  0
VERTEX
  5
455
  8
DEFAULT
 10
-62.32129506932539
 20
-9.118407945695495
 30
0.0
  0
VERTEX
  5
456
  8
DEFAULT
 10
-62.65644093842844
 20
-8.168408228769605
 30
0.0
  0
VERTEX
  5
457
  8
DEFAULT
 10
-63.28480694263215
 20
-6.266494414266059
 30
0.0
  0
VERTEX
  5
458
  8
DEFAULT
 10
-63.86000306816294
 20
-4.36585759719548
 30
0.0
  0
VERTEX
  5
459
  8
DEFAULT
 10
-64.38172897587575
 20
-2.467183257671111
 30
0.0
  0
VERTEX
  5
45A
  8
DEFAULT
 10
-64.84968432662552
 20
-0.5711568758061953
 30
0.0
  0
VERTEX
  5
45B
  8
DEFAULT
 10
-65.2624478509872
 20
1.32551223172643
 30
0.0
  0
VERTEX
  5
45C
  8
DEFAULT
 10
-65.44635742686971
 20
2.279837840243355
 30
0.0
  0
VERTEX
  5
45D
  8
DEFAULT
 10
-65.61411455841584
 20
3.242019402015558
 30
0.0
  0
VERTEX
  5
45E
  8
DEFAULT
 10
-65.76484100552243
 20
4.214953354609186
 30
0.0
  0
VERTEX
  5
45F
  8
DEFAULT
 10
-65.89765852808634
 20
5.201536135590391
 30
0.0
  0
VERTEX
  5
460
  8
DEFAULT
 10
-66.01168888600449
 20
6.204664182525322
 30
0.0
  0
VERTEX
  5
461
  8
DEFAULT
 10
-66.10605383917371
 20
7.227233932980131
 30
0.0
  0
VERTEX
  5
462
  8
DEFAULT
 10
-66.17778527466908
 20
8.269215359660453
 30
0.0
  0
VERTEX
  5
463
  8
DEFAULT
 10
-66.20175416402415
 20
8.79400089103384
 30
0.0
  0
VERTEX
  5
464
  8
DEFAULT
 10
-66.21555558827848
 20
9.318872575829886
 30
0.0
  0
VERTEX
  5
465
  8
DEFAULT
 10
-66.21751236280284
 20
9.841997620098978
 30
0.0
  0
VERTEX
  5
466
  8
DEFAULT
 10
-66.20594730296799
 20
10.3615432298915
 30
0.0
  0
VERTEX
  5
467
  8
DEFAULT
 10
-66.17918322414465
 20
10.87567661125784
 30
0.0
  0
VERTEX
  5
468
  8
DEFAULT
 10
-66.15957743241569
 20
11.13014096817194
 30
0.0
  0
VERTEX
  5
469
  8
DEFAULT
 10
-66.13554294170363
 20
11.38256497024839
 30
0.0
  0
VERTEX
  5
46A
  8
DEFAULT
 10
-66.10687010392985
 20
11.63271951824348
 30
0.0
  0
VERTEX
  5
46B
  8
DEFAULT
 10
-66.07334927101567
 20
11.88037551291351
 30
0.0
  0
VERTEX
  5
46C
  8
DEFAULT
 10
-66.03477079488243
 20
12.12530385501479
 30
0.0
  0
VERTEX
  5
46D
  8
DEFAULT
 10
-65.99092502745151
 20
12.36727544530361
 30
0.0
  0
VERTEX
  5
46E
  8
DEFAULT
 10
-65.94160232064422
 20
12.60606118453627
 30
0.0
  0
VERTEX
  5
46F
  8
DEFAULT
 10
-65.88659302638195
 20
12.84143197346907
 30
0.0
  0
VERTEX
  5
470
  8
DEFAULT
 10
-65.825687496586
 20
13.0731587128583
 30
0.0
  0
VERTEX
  5
471
  8
DEFAULT
 10
-65.7586760831777
 20
13.30101230346026
 30
0.0
  0
VERTEX
  5
472
  8
DEFAULT
 10
-65.68534913807844
 20
13.52476364603126
 30
0.0
  0
VERTEX
  5
473
  8
DEFAULT
 10
-65.60549701320954
 20
13.74418364132759
 30
0.0
  0
VERTEX
  5
474
  8
DEFAULT
 10
-65.56305849333691
 20
13.85219779023409
 30
0.0
  0
VERTEX
  5
475
  8
DEFAULT
 10
-65.51891006049237
 20
13.95904319010554
 30
0.0
  0
VERTEX
  5
476
  8
DEFAULT
 10
-65.4730255086661
 20
14.06469120353647
 30
0.0
  0
VERTEX
  5
477
  8
DEFAULT
 10
-65.42537863184825
 20
14.16911319312142
 30
0.0
  0
VERTEX
  5
478
  8
DEFAULT
 10
-65.375943224029
 20
14.27228052145493
 30
0.0
  0
VERTEX
  5
479
  8
DEFAULT
 10
-65.32469307919852
 20
14.37416455113153
 30
0.0
  0
VERTEX
  5
47A
  8
DEFAULT
 10
-65.27160199134698
 20
14.47473664474575
 30
0.0
  0
VERTEX
  5
47B
  8
DEFAULT
 10
-65.21664375446454
 20
14.57396816489215
 30
0.0
  0
VERTEX
  5
47C
  8
DEFAULT
 10
-65.15979216254138
 20
14.67183047416525
 30
0.0
  0
VERTEX
  5
47D
  8
DEFAULT
 10
-65.10102100956766
 20
14.7682949351596
 30
0.0
  0
VERTEX
  5
47E
  8
DEFAULT
 10
-65.04030408953355
 20
14.86333291046972
 30
0.0
  0
SEQEND
  5
47F
  8
DEFAULT
  0
POLYLINE
  5
480
  8
DEFAULT
 66
     1
 10
0.0
 20
0.0
 30
0.0
 70
     1
  0
VERTEX
  5
481
  8
DEFAULT
 10
-10.79059288056905
 20
17.44612503122449
 30
0.0
  0
VERTEX
  5
482
  8
DEFAULT
 10
-10.57916163913797
 20
17.31285980056393
 30
0.0
  0
VERTEX
  5
483
  8
DEFAULT
 10
-10.36519765567064
 20
17.18437790051479
 30
0.0
  0
VERTEX
  5
484
  8
DEFAULT
 10
-10.14876966336244
 20
17.06057681173352
 30
0.0
  0
VERTEX
  5
485
  8
DEFAULT
 10
-9.92994639540872
 20
16.94135401487655
 30
0.0
  0
VERTEX
  5
486
  8
DEFAULT
 10
-9.708796585004848
 20
16.82660699060035
 30
0.0
  0
VERTEX
  5
487
  8
DEFAULT
 10
-9.485388965346182
 20
16.71623321956136
 30
0.0
  0
VERTEX
  5
488
  8
DEFAULT
 10
-9.259792269628088
 20
16.61013018241605
 30
0.0
  0
VERTEX
  5
489
  8
DEFAULT
 10
-9.032075231045924
 20
16.50819535982086
 30
0.0
  0
VERTEX
  5
48A
  8
DEFAULT
 10
-8.802306582795055
 20
16.41032623243224
 30
0.0
  0
VERTEX
  5
48B
  8
DEFAULT
 10
-8.570555058070845
 20
16.31642028090665
 30
0.0
  0
VERTEX
  5
48C
  8
DEFAULT
 10
-8.10137831198384
 20
16.14008782807034
 30
0.0
  0
VERTEX
  5
48D
  8
DEFAULT
 10
-7.625094858347804
 20
15.97837784656355
 30
0.0
  0
VERTEX
  5
48E
  8
DEFAULT
 10
-7.142254562725636
 20
15.83047018163788
 30
0.0
  0
VERTEX
  5
48F
  8
DEFAULT
 10
-6.653407290680235
 20
15.69554467854495
 30
0.0
  0
VERTEX
  5
490
  8
DEFAULT
 10
-6.159102907774495
 20
15.57278118253638
 30
0.0
  0
VERTEX
  5
491
  8
DEFAULT
 10
-5.659891279571314
 20
15.46135953886377
 30
0.0
  0
VERTEX
  5
492
  8
DEFAULT
 10
-5.156322271633588
 20
15.36045959277875
 30
0.0
  0
VERTEX
  5
493
  8
DEFAULT
 10
-4.648945749524215
 20
15.26926118953291
 30
0.0
  0
VERTEX
  5
494
  8
DEFAULT
 10
-4.138311578806091
 20
15.18694417437788
 30
0.0
  0
VERTEX
  5
495
  8
DEFAULT
 10
-3.10946975379518
 20
15.04567368934669
 30
0.0
  0
VERTEX
  5
496
  8
DEFAULT
 10
-2.074192230089499
 20
14.93223422799763
 30
0.0
  0
VERTEX
  5
497
  8
DEFAULT
 10
-1.036860477119574
 20
14.85080119384149
 30
0.0
  0
VERTEX
  5
498
  8
DEFAULT
 10
-0.5187923829155184
 20
14.82406294065149
 30
0.0
  0
VERTEX
  5
499
  8
DEFAULT
 10
-0.001852473301399
 20
14.8076973186886
 30
0.0
  0
VERTEX
  5
49A
  8
DEFAULT
 10
0.5134120044207843
 20
14.8024946694291
 30
0.0
  0
VERTEX
  5
49B
  8
DEFAULT
 10
1.026453802949032
 20
14.8092453343493
 30
0.0
  0
VERTEX
  5
49C
  8
DEFAULT
 10
1.536725674981346
 20
14.82873965492548
 30
0.0
  0
VERTEX
  5
49D
  8
DEFAULT
 10
2.043680373215726
 20
14.86176797263393
 30
0.0
  0
VERTEX
  5
49E
  8
DEFAULT
 10
2.546770650350172
 20
14.90912062895095
 30
0.0
  0
VERTEX
  5
49F
  8
DEFAULT
 10
3.045449259082686
 20
14.97158796535283
 30
0.0
  0
VERTEX
  5
4A0
  8
DEFAULT
 10
3.539168952111268
 20
15.04996032331587
 30
0.0
  0
VERTEX
  5
4A1
  8
DEFAULT
 10
3.78399819045471
 20
15.09535786709416
 30
0.0
  0
VERTEX
  5
4A2
  8
DEFAULT
 10
4.027382482133919
 20
15.14502804431634
 30
0.0
  0
VERTEX
  5
4A3
  8
DEFAULT
 10
4.269253421236145
 20
15.19906964766697
 30
0.0
  0
VERTEX
  5
4A4
  8
DEFAULT
 10
4.509542601848639
 20
15.25758146983056
 30
0.0
  0
VERTEX
  5
4A5
  8
DEFAULT
 10
4.748181618058651
 20
15.32066230349166
 30
0.0
  0
VERTEX
  5
4A6
  8
DEFAULT
 10
4.98510206395343
 20
15.38841094133481
 30
0.0
  0
VERTEX
  5
4A7
  8
DEFAULT
 10
5.220257082318439
 20
15.46088336321478
 30
0.0
  0
VERTEX
  5
4A8
  8
DEFAULT
 10
5.45368601073199
 20
15.53796429766739
 30
0.0
  0
VERTEX
  5
4A9
  8
DEFAULT
 10
5.685449735470604
 20
15.61949566039869
 30
0.0
  0
VERTEX
  5
4AA
  8
DEFAULT
 10
5.915609142810803
 20
15.70531936711472
 30
0.0
  0
VERTEX
  5
4AB
  8
DEFAULT
 10
6.371358550402054
 20
15.8892114753252
 30
0.0
  0
VERTEX
  5
4AC
  8
DEFAULT
 10
6.821421323717924
 20
16.08837594794726
 30
0.0
  0
VERTEX
  5
4AD
  8
DEFAULT
 10
7.266284552970599
 20
16.30154811062931
 30
0.0
  0
VERTEX
  5
4AE
  8
DEFAULT
 10
7.70643532837226
 20
16.52746328901976
 30
0.0
  0
VERTEX
  5
4AF
  8
DEFAULT
 10
8.142360740135091
 20
16.76485680876703
 30
0.0
  0
VERTEX
  5
4B0
  8
DEFAULT
 10
8.574547878471272
 20
17.01246399551955
 30
0.0
  0
VERTEX
  5
4B1
  8
DEFAULT
 10
9.429655695712427
 20
17.53326067263396
 30
0.0
  0
VERTEX
  5
4B2
  8
DEFAULT
 10
13.64505186010817
 20
20.32309428437458
 30
0.0
  0
VERTEX
  5
4B3
  8
DEFAULT
 10
14.50050161350955
 20
20.85337277191805
 30
0.0
  0
VERTEX
  5
4B4
  8
DEFAULT
 10
15.36694501214011
 20
21.35541930852074
 30
0.0
  0
VERTEX
  5
4B5
  8
DEFAULT
 10
15.80516552542646
 20
21.5934016012292
 30
0.0
  0
VERTEX
  5
4B6
  8
DEFAULT
 10
16.24718588643225
 20
21.82138111341438
 30
0.0
  0
VERTEX
  5
4B7
  8
DEFAULT
 10
16.69335657396153
 20
22.03837624748024
 30
0.0
  0
VERTEX
  5
4B8
  8
DEFAULT
 10
17.14402806681836
 20
22.24340540583074
 30
0.0
  0
VERTEX
  5
4B9
  8
DEFAULT
 10
17.59955084380677
 20
22.43548699086985
 30
0.0
  0
VERTEX
  5
4BA
  8
DEFAULT
 10
18.06027538373083
 20
22.61363940500155
 30
0.0
  0
VERTEX
  5
4BB
  8
DEFAULT
 10
18.52655216539458
 20
22.77688105062981
 30
0.0
  0
VERTEX
  5
4BC
  8
DEFAULT
 10
18.7618821715051
 20
22.85260358600638
 30
0.0
  0
VERTEX
  5
4BD
  8
DEFAULT
 10
18.99873166760206
 20
22.92423033015858
 30
0.0
  0
VERTEX
  5
4BE
  8
DEFAULT
 10
19.47702592585203
 20
23.05506130438826
 30
0.0
  0
VERTEX
  5
4BF
  8
DEFAULT
 10
19.96109320242202
 20
23.17017066770486
 30
0.0
  0
VERTEX
  5
4C0
  8
DEFAULT
 10
20.45045331628427
 20
23.27071077289083
 30
0.0
  0
VERTEX
  5
4C1
  8
DEFAULT
 10
20.944626086411
 20
23.35783397272858
 30
0.0
  0
VERTEX
  5
4C2
  8
DEFAULT
 10
21.44313133177445
 20
23.43269262000056
 30
0.0
  0
VERTEX
  5
4C3
  8
DEFAULT
 10
21.94548887134685
 20
23.4964390674892
 30
0.0
  0
VERTEX
  5
4C4
  8
DEFAULT
 10
22.45121852410044
 20
23.55022566797694
 30
0.0
  0
VERTEX
  5
4C5
  8
DEFAULT
 10
22.95984010900744
 20
23.5952047742462
 30
0.0
  0
VERTEX
  5
4C6
  8
DEFAULT
 10
23.98383835117063
 20
23.66334991525905
 30
0.0
  0
VERTEX
  5
4C7
  8
DEFAULT
 10
35.19414582831226
 20
24.11384129429081
 30
0.0
  0
VERTEX
  5
4C8
  8
DEFAULT
 10
51.444322947454
 20
24.34632422091643
 30
0.0
  0
VERTEX
  5
4C9
  8
DEFAULT
 10
59.57015697690828
 20
24.42849281842648
 30
0.0
  0
VERTEX
  5
4CA
  8
DEFAULT
 10
65.56613471978002
 20
24.31361835845401
 30
0.0
  0
VERTEX
  5
4CB
  8
DEFAULT
 10
70.47943810655168
 20
24.38794248961126
 30
0.0
  0
VERTEX
  5
4CC
  8
DEFAULT
 10
71.03060568741311
 20
24.37758037651438
 30
0.0
  0
VERTEX
  5
4CD
  8
DEFAULT
 10
71.57311832644672
 20
24.35243999743314
 30
0.0
  0
VERTEX
  5
4CE
  8
DEFAULT
 10
71.84023009193555
 20
24.33331108481593
 30
0.0
  0
VERTEX
  5
4CF
  8
DEFAULT
 10
72.1040993809564
 20
24.30926735770365
 30
0.0
  0
VERTEX
  5
4D0
  8
DEFAULT
 10
72.36436661317222
 20
24.27990206676335
 30
0.0
  0
VERTEX
  5
4D1
  8
DEFAULT
 10
72.62067220824602
 20
24.24480846266201
 30
0.0
  0
VERTEX
  5
4D2
  8
DEFAULT
 10
72.87265658584079
 20
24.20357979606667
 30
0.0
  0
VERTEX
  5
4D3
  8
DEFAULT
 10
73.11996016561947
 20
24.15580931764433
 30
0.0
  0
VERTEX
  5
4D4
  8
DEFAULT
 10
73.3622233672451
 20
24.10109027806201
 30
0.0
  0
VERTEX
  5
4D5
  8
DEFAULT
 10
73.48135245739516
 20
24.0709979386693
 30
0.0
  0
VERTEX
  5
4D6
  8
DEFAULT
 10
73.59908661038061
 20
24.03901592798672
 30
0.0
  0
VERTEX
  5
4D7
  8
DEFAULT
 10
73.71538087865929
 20
24.00509340234766
 30
0.0
  0
VERTEX
  5
4D8
  8
DEFAULT
 10
73.83019031468903
 20
23.96917951808548
 30
0.0
  0
VERTEX
  5
4D9
  8
DEFAULT
 10
73.94346997092777
 20
23.93122343153357
 30
0.0
  0
VERTEX
  5
4DA
  8
DEFAULT
 10
74.05517489983333
 20
23.89117429902529
 30
0.0
  0
VERTEX
  5
4DB
  8
DEFAULT
 10
74.16526015386361
 20
23.84898127689404
 30
0.0
  0
VERTEX
  5
4DC
  8
DEFAULT
 10
74.2736807854765
 20
23.80459352147318
 30
0.0
  0
VERTEX
  5
4DD
  8
DEFAULT
 10
74.38039184712983
 20
23.75796018909609
 30
0.0
  0
VERTEX
  5
4DE
  8
DEFAULT
 10
74.4853483912815
 20
23.70903043609615
 30
0.0
  0
VERTEX
  5
4DF
  8
DEFAULT
 10
74.58850547038939
 20
23.65775341880673
 30
0.0
  0
VERTEX
  5
4E0
  8
DEFAULT
 10
74.68981813691136
 20
23.60407829356122
 30
0.0
  0
VERTEX
  5
4E1
  8
DEFAULT
 10
74.78924144330529
 20
23.54795421669299
 30
0.0
  0
VERTEX
  5
4E2
  8
DEFAULT
 10
74.88673044202903
 20
23.4893303445354
 30
0.0
  0
VERTEX
  5
4E3
  8
DEFAULT
 10
74.98224018554048
 20
23.42815583342185
 30
0.0
  0
VERTEX
  5
4E4
  8
DEFAULT
 10
75.07572572629749
 20
23.36437983968571
 30
0.0
  0
VERTEX
  5
4E5
  8
DEFAULT
 10
75.16714211675796
 20
23.29795151966036
 30
0.0
  0
VERTEX
  5
4E6
  8
DEFAULT
 10
75.25644440937975
 20
23.22882002967916
 30
0.0
  0
VERTEX
  5
4E7
  8
DEFAULT
 10
75.34358765662073
 20
23.15693452607551
 30
0.0
  0
VERTEX
  5
4E8
  8
DEFAULT
 10
75.42852691093879
 20
23.08224416518277
 30
0.0
  0
VERTEX
  5
4E9
  8
DEFAULT
 10
75.51121722479176
 20
23.00469810333432
 30
0.0
  0
VERTEX
  5
4EA
  8
DEFAULT
 10
75.59161365063756
 20
22.92424549686354
 30
0.0
  0
VERTEX
  5
4EB
  8
DEFAULT
 10
75.66967989591484
 20
22.84085656427429
 30
0.0
  0
VERTEX
  5
4EC
  8
DEFAULT
 10
75.74541428798545
 20
22.75458577275239
 30
0.0
  0
VERTEX
  5
4ED
  8
DEFAULT
 10
75.81882380919211
 20
22.66550865165413
 30
0.0
  0
VERTEX
  5
4EE
  8
DEFAULT
 10
75.88991544187746
 20
22.57370073033582
 30
0.0
  0
VERTEX
  5
4EF
  8
DEFAULT
 10
75.95869616838417
 20
22.47923753815375
 30
0.0
  0
VERTEX
  5
4F0
  8
DEFAULT
 10
76.02517297105487
 20
22.38219460446424
 30
0.0
  0
VERTEX
  5
4F1
  8
DEFAULT
 10
76.08935283223227
 20
22.28264745862356
 30
0.0
  0
VERTEX
  5
4F2
  8
DEFAULT
 10
76.15124273425903
 20
22.18067162998803
 30
0.0
  0
VERTEX
  5
4F3
  8
DEFAULT
 10
76.21084965947782
 20
22.07634264791394
 30
0.0
  0
VERTEX
  5
4F4
  8
DEFAULT
 10
76.26818059023128
 20
21.96973604175761
 30
0.0
  0
VERTEX
  5
4F5
  8
DEFAULT
 10
76.32324250886211
 20
21.86092734087531
 30
0.0
  0
VERTEX
  5
4F6
  8
DEFAULT
 10
76.37604239771295
 20
21.74999207462336
 30
0.0
  0
VERTEX
  5
4F7
  8
DEFAULT
 10
76.42658723912649
 20
21.63700577235806
 30
0.0
  0
VERTEX
  5
4F8
  8
DEFAULT
 10
76.47488401544538
 20
21.5220439634357
 30
0.0
  0
VERTEX
  5
4F9
  8
DEFAULT
 10
76.52093970901231
 20
21.40518217721259
 30
0.0
  0
VERTEX
  5
4FA
  8
DEFAULT
 10
76.56476130216991
 20
21.28649594304502
 30
0.0
  0
VERTEX
  5
4FB
  8
DEFAULT
 10
76.60635577726089
 20
21.1660607902893
 30
0.0
  0
VERTEX
  5
4FC
  8
DEFAULT
 10
76.64573011662787
 20
21.04395224830172
 30
0.0
  0
VERTEX
  5
4FD
  8
DEFAULT
 10
76.68289130261357
 20
20.92024584643859
 30
0.0
  0
VERTEX
  5
4FE
  8
DEFAULT
 10
76.71784631756061
 20
20.79501711405621
 30
0.0
  0
VERTEX
  5
4FF
  8
DEFAULT
 10
76.7506021438117
 20
20.66834158051087
 30
0.0
  0
VERTEX
  5
500
  8
DEFAULT
 10
76.78116576370947
 20
20.54029477515887
 30
0.0
  0
VERTEX
  5
501
  8
DEFAULT
 10
76.8095441595966
 20
20.41095222735652
 30
0.0
  0
VERTEX
  5
502
  8
DEFAULT
 10
76.83574431381575
 20
20.28038946646012
 30
0.0
  0
VERTEX
  5
503
  8
DEFAULT
 10
76.88163782662082
 20
20.01590542281035
 30
0.0
  0
VERTEX
  5
504
  8
DEFAULT
 10
76.918902160866
 20
19.74744687905996
 30
0.0
  0
VERTEX
  5
505
  8
DEFAULT
 10
76.94759317529264
 20
19.47561807005936
 30
0.0
  0
VERTEX
  5
506
  8
DEFAULT
 10
76.96776672864206
 20
19.20102323065894
 30
0.0
  0
VERTEX
  5
507
  8
DEFAULT
 10
76.97947867965561
 20
18.9242665957091
 30
0.0
  0
VERTEX
  5
508
  8
DEFAULT
 10
76.98278488707464
 20
18.64595240006025
 30
0.0
  0
VERTEX
  5
509
  8
DEFAULT
 10
76.97774120964047
 20
18.36668487856278
 30
0.0
  0
VERTEX
  5
50A
  8
DEFAULT
 10
76.96440350609441
 20
18.08706826606709
 30
0.0
  0
VERTEX
  5
50B
  8
DEFAULT
 10
76.94282763517785
 20
17.80770679742358
 30
0.0
  0
VERTEX
  5
50C
  8
DEFAULT
 10
76.9130694556321
 20
17.52920470748266
 30
0.0
  0
VERTEX
  5
50D
  8
DEFAULT
 10
76.87518482619848
 20
17.25216623109473
 30
0.0
  0
VERTEX
  5
50E
  8
DEFAULT
 10
76.82922960561834
 20
16.97719560311018
 30
0.0
  0
VERTEX
  5
50F
  8
DEFAULT
 10
76.77525965263303
 20
16.70489705837941
 30
0.0
  0
VERTEX
  5
510
  8
DEFAULT
 10
76.71333082598386
 20
16.43587483175282
 30
0.0
  0
VERTEX
  5
511
  8
DEFAULT
 10
76.64349898441218
 20
16.17073315808082
 30
0.0
  0
VERTEX
  5
512
  8
DEFAULT
 10
76.56581998665933
 20
15.91007627221381
 30
0.0
  0
VERTEX
  5
513
  8
DEFAULT
 10
76.48034969146667
 20
15.65450840900217
 30
0.0
  0
VERTEX
  5
514
  8
DEFAULT
 10
76.43471026318706
 20
15.52882168428288
 30
0.0
  0
VERTEX
  5
515
  8
DEFAULT
 10
76.38714395757549
 20
15.40463380329633
 30
0.0
  0
VERTEX
  5
516
  8
DEFAULT
 10
76.33765775697465
 20
15.28202029539883
 30
0.0
  0
VERTEX
  5
517
  8
DEFAULT
 10
76.28625864372717
 20
15.16105668994667
 30
0.0
  0
VERTEX
  5
518
  8
DEFAULT
 10
76.23295360017573
 20
15.04181851629616
 30
0.0
  0
VERTEX
  5
519
  8
DEFAULT
 10
76.17774960866302
 20
14.92438130380359
 30
0.0
  0
VERTEX
  5
51A
  8
DEFAULT
 10
76.12066135980396
 20
14.80879981147317
 30
0.0
  0
VERTEX
  5
51B
  8
DEFAULT
 10
76.06173437730266
 20
14.69504571690067
 30
0.0
  0
VERTEX
  5
51C
  8
DEFAULT
 10
76.00102189313553
 20
14.58306992732975
 30
0.0
  0
VERTEX
  5
51D
  8
DEFAULT
 10
75.93857713927895
 20
14.4728233500041
 30
0.0
  0
VERTEX
  5
51E
  8
DEFAULT
 10
75.8744533477093
 20
14.36425689216738
 30
0.0
  0
VERTEX
  5
51F
  8
DEFAULT
 10
75.80870375040298
 20
14.25732146106327
 30
0.0
  0
VERTEX
  5
520
  8
DEFAULT
 10
75.67254006648591
 20
14.04814730802756
 30
0.0
  0
VERTEX
  5
521
  8
DEFAULT
 10
75.53051194333884
 20
13.84490814884635
 30
0.0
  0
VERTEX
  5
522
  8
DEFAULT
 10
75.3830452367729
 20
13.64721124146901
 30
0.0
  0
VERTEX
  5
523
  8
DEFAULT
 10
75.23056580259922
 20
13.45466384384492
 30
0.0
  0
VERTEX
  5
524
  8
DEFAULT
 10
75.0734994966289
 20
13.26687321392345
 30
0.0
  0
VERTEX
  5
525
  8
DEFAULT
 10
74.91227217467309
 20
13.08344660965399
 30
0.0
  0
VERTEX
  5
526
  8
DEFAULT
 10
74.7473096925429
 20
12.90399128898591
 30
0.0
  0
VERTEX
  5
527
  8
DEFAULT
 10
74.57903790604945
 20
12.72811450986858
 30
0.0
  0
VERTEX
  5
528
  8
DEFAULT
 10
74.40788267100386
 20
12.5554235302514
 30
0.0
  0
VERTEX
  5
529
  8
DEFAULT
 10
74.0586252785008
 20
12.21802800131494
 30
0.0
  0
VERTEX
  5
52A
  8
DEFAULT
 10
72.28412237863954
 20
10.58866602942913
 30
0.0
  0
VERTEX
  5
52B
  8
DEFAULT
 10
71.947426536621
 20
10.25232321477639
 30
0.0
  0
VERTEX
  5
52C
  8
DEFAULT
 10
71.78412227062823
 20
10.08029018158653
 30
0.0
  0
VERTEX
  5
52D
  8
DEFAULT
 10
71.62474824906133
 20
9.905159075086841
 30
0.0
  0
VERTEX
  5
52E
  8
DEFAULT
 10
71.46973032773138
 20
9.726537153226701
 30
0.0
  0
VERTEX
  5
52F
  8
DEFAULT
 10
71.31949436244952
 20
9.544031673955491
 30
0.0
  0
VERTEX
  5
530
  8
DEFAULT
 10
71.17446620902687
 20
9.357249895222585
 30
0.0
  0
VERTEX
  5
531
  8
DEFAULT
 10
71.03507172327457
 20
9.165799074977365
 30
0.0
  0
VERTEX
  5
532
  8
DEFAULT
 10
70.90162915261266
 20
8.969384386093745
 30
0.0
  0
VERTEX
  5
533
  8
DEFAULT
 10
70.77402631089703
 20
8.76810266114381
 30
0.0
  0
VERTEX
  5
534
  8
DEFAULT
 10
70.65204340359247
 20
8.562148647624191
 30
0.0
  0
VERTEX
  5
535
  8
DEFAULT
 10
70.5354606361638
 20
8.351717093031509
 30
0.0
  0
VERTEX
  5
536
  8
DEFAULT
 10
70.42405821407584
 20
8.137002744862393
 30
0.0
  0
VERTEX
  5
537
  8
DEFAULT
 10
70.3176163427934
 20
7.918200350613468
 30
0.0
  0
VERTEX
  5
538
  8
DEFAULT
 10
70.2159152277813
 20
7.695504657781361
 30
0.0
  0
VERTEX
  5
539
  8
DEFAULT
 10
70.11873507450431
 20
7.469110413862698
 30
0.0
  0
VERTEX
  5
53A
  8
DEFAULT
 10
70.0258560884273
 20
7.239212366354106
 30
0.0
  0
VERTEX
  5
53B
  8
DEFAULT
 10
69.93705847501504
 20
7.006005262752209
 30
0.0
  0
VERTEX
  5
53C
  8
DEFAULT
 10
69.85212243973237
 20
6.769683850553635
 30
0.0
  0
VERTEX
  5
53D
  8
DEFAULT
 10
69.77082818804408
 20
6.53044287725501
 30
0.0
  0
VERTEX
  5
53E
  8
DEFAULT
 10
69.6182858573099
 20
6.043981237344111
 30
0.0
  0
VERTEX
  5
53F
  8
DEFAULT
 10
69.47767312653102
 20
5.548178322992522
 30
0.0
  0
VERTEX
  5
540
  8
DEFAULT
 10
69.3472316394259
 20
5.044592114173252
 30
0.0
  0
VERTEX
  5
541
  8
DEFAULT
 10
69.22520303971308
 20
4.534780590859311
 30
0.0
  0
VERTEX
  5
542
  8
DEFAULT
 10
68.57123412490958
 20
1.432426725076129
 30
0.0
  0
VERTEX
  5
543
  8
DEFAULT
 10
68.10154461265628
 20
-0.5833763851723279
 30
0.0
  0
VERTEX
  5
544
  8
DEFAULT
 10
67.58153346570009
 20
-2.547010290570719
 30
0.0
  0
VERTEX
  5
545
  8
DEFAULT
 10
66.43857854987654
 20
-6.408648567666478
 30
0.0
  0
VERTEX
  5
546
  8
DEFAULT
 10
65.50731244019438
 20
-9.308252498370345
 30
0.0
  0
VERTEX
  5
547
  8
DEFAULT
 10
65.1643227562212
 20
-10.26631645525063
 30
0.0
  0
VERTEX
  5
548
  8
DEFAULT
 10
64.79597105715423
 20
-11.21426458143668
 30
0.0
  0
VERTEX
  5
549
  8
DEFAULT
 10
64.60058229107543
 20
-11.68334261664118
 30
0.0
  0
VERTEX
  5
54A
  8
DEFAULT
 10
64.39681042816098
 20
-12.14856858451828
 30
0.0
  0
VERTEX
  5
54B
  8
DEFAULT
 10
64.18397460405683
 20
-12.60950144851671
 30
0.0
  0
VERTEX
  5
54C
  8
DEFAULT
 10
63.96139395440889
 20
-13.06570017208519
 30
0.0
  0
VERTEX
  5
54D
  8
DEFAULT
 10
63.72838761486313
 20
-13.51672371867243
 30
0.0
  0
VERTEX
  5
54E
  8
DEFAULT
 10
63.48427472106547
 20
-13.96213105172717
 30
0.0
  0
VERTEX
  5
54F
  8
DEFAULT
 10
63.22851404592374
 20
-14.40146911143198
 30
0.0
  0
VERTEX
  5
550
  8
DEFAULT
 10
62.96112291139326
 20
-14.83423674490485
 30
0.0
  0
VERTEX
  5
551
  8
DEFAULT
 10
62.68225827669126
 20
-15.25992077599764
 30
0.0
  0
VERTEX
  5
552
  8
DEFAULT
 10
62.39207710103498
 20
-15.67800802856219
 30
0.0
  0
VERTEX
  5
553
  8
DEFAULT
 10
62.09073634364162
 20
-16.08798532645037
 30
0.0
  0
VERTEX
  5
554
  8
DEFAULT
 10
61.77839296372844
 20
-16.48933949351403
 30
0.0
  0
VERTEX
  5
555
  8
DEFAULT
 10
61.45520392051262
 20
-16.88155735360502
 30
0.0
  0
VERTEX
  5
556
  8
DEFAULT
 10
61.12132617321141
 20
-17.26412573057519
 30
0.0
  0
VERTEX
  5
557
  8
DEFAULT
 10
60.77691668104204
 20
-17.63653144827639
 30
0.0
  0
VERTEX
  5
558
  8
DEFAULT
 10
60.42213240322172
 20
-17.99826133056048
 30
0.0
  0
VERTEX
  5
559
  8
DEFAULT
 10
60.05713029896769
 20
-18.34880220127931
 30
0.0
  0
VERTEX
  5
55A
  8
DEFAULT
 10
59.68206732749715
 20
-18.68764088428474
 30
0.0
  0
VERTEX
  5
55B
  8
DEFAULT
 10
59.29710044802735
 20
-19.01426420342862
 30
0.0
  0
VERTEX
  5
55C
  8
DEFAULT
 10
58.90238661977551
 20
-19.32815898256279
 30
0.0
  0
VERTEX
  5
55D
  8
DEFAULT
 10
58.49808280195883
 20
-19.62881204553912
 30
0.0
  0
VERTEX
  5
55E
  8
DEFAULT
 10
58.08434595379457
 20
-19.91571021620945
 30
0.0
  0
VERTEX
  5
55F
  8
DEFAULT
 10
57.66139790136035
 20
-20.18851186177067
 30
0.0
  0
VERTEX
  5
560
  8
DEFAULT
 10
57.22971993817547
 20
-20.44756152279983
 30
0.0
  0
VERTEX
  5
561
  8
DEFAULT
 10
56.78985822461966
 20
-20.69337528321897
 30
0.0
  0
VERTEX
  5
562
  8
DEFAULT
 10
56.34235892107267
 20
-20.92646922695018
 30
0.0
  0
VERTEX
  5
563
  8
DEFAULT
 10
55.8877681879142
 20
-21.14735943791551
 30
0.0
  0
VERTEX
  5
564
  8
DEFAULT
 10
55.42663218552397
 20
-21.35656200003704
 30
0.0
  0
VERTEX
  5
565
  8
DEFAULT
 10
54.95949707428172
 20
-21.55459299723682
 30
0.0
  0
VERTEX
  5
566
  8
DEFAULT
 10
54.48690901456716
 20
-21.74196851343694
 30
0.0
  0
VERTEX
  5
567
  8
DEFAULT
 10
54.00941416676002
 20
-21.91920463255945
 30
0.0
  0
VERTEX
  5
568
  8
DEFAULT
 10
53.52755869124003
 20
-22.08681743852642
 30
0.0
  0
VERTEX
  5
569
  8
DEFAULT
 10
53.04188874838691
 20
-22.24532301525992
 30
0.0
  0
VERTEX
  5
56A
  8
DEFAULT
 10
52.55295049858039
 20
-22.39523744668202
 30
0.0
  0
VERTEX
  5
56B
  8
DEFAULT
 10
51.567453719626
 20
-22.67135720928027
 30
0.0
  0
VERTEX
  5
56C
  8
DEFAULT
 10
50.57543763741469
 20
-22.91930539769771
 30
0.0
  0
VERTEX
  5
56D
  8
DEFAULT
 10
49.58054924107879
 20
-23.14291105009601
 30
0.0
  0
VERTEX
  5
56E
  8
DEFAULT
 10
48.58354634412892
 20
-23.34480467177737
 30
0.0
  0
VERTEX
  5
56F
  8
DEFAULT
 10
46.58333912680787
 20
-23.69277931133859
 30
0.0
  0
VERTEX
  5
570
  8
DEFAULT
 10
44.57510014229284
 20
-23.98187629308004
 30
0.0
  0
VERTEX
  5
571
  8
DEFAULT
 10
40.53615675594668
 20
-24.45014405748623
 30
0.0
  0
VERTEX
  5
572
  8
DEFAULT
 10
38.50898020920232
 20
-24.6193219990763
 30
0.0
  0
VERTEX
  5
573
  8
DEFAULT
 10
37.49482318330714
 20
-24.67612720599373
 30
0.0
  0
VERTEX
  5
574
  8
DEFAULT
 10
36.48082760543754
 20
-24.7096366006972
 30
0.0
  0
VERTEX
  5
575
  8
DEFAULT
 10
35.4673989378742
 20
-24.71627020596505
 30
0.0
  0
VERTEX
  5
576
  8
DEFAULT
 10
34.45494264289781
 20
-24.6924480445756
 30
0.0
  0
VERTEX
  5
577
  8
DEFAULT
 10
33.44388350842414
 20
-24.63537102321266
 30
0.0
  0
VERTEX
  5
578
  8
DEFAULT
 10
32.43472362490936
 20
-24.545363584182
 30
0.0
  0
VERTEX
  5
579
  8
DEFAULT
 10
31.42798440844471
 20
-24.42353105369485
 30
0.0
  0
VERTEX
  5
57A
  8
DEFAULT
 10
30.42418727512146
 20
-24.27097875796245
 30
0.0
  0
VERTEX
  5
57B
  8
DEFAULT
 10
29.42385364103084
 20
-24.08881202319603
 30
0.0
  0
VERTEX
  5
57C
  8
DEFAULT
 10
28.42750492226411
 20
-23.87813617560684
 30
0.0
  0
VERTEX
  5
57D
  8
DEFAULT
 10
27.43566253491253
 20
-23.64005654140611
 30
0.0
  0
VERTEX
  5
57E
  8
DEFAULT
 10
26.44884789506733
 20
-23.37567844680509
 30
0.0
  0
VERTEX
  5
57F
  8
DEFAULT
 10
25.4681712061598
 20
-23.08532451632948
 30
0.0
  0
VERTEX
  5
580
  8
DEFAULT
 10
24.49709782098122
 20
-22.76618656776296
 30
0.0
  0
VERTEX
  5
581
  8
DEFAULT
 10
24.01642928608133
 20
-22.59470143547629
 30
0.0
  0
VERTEX
  5
582
  8
DEFAULT
 10
23.53968187966293
 20
-22.41467371720368
 30
0.0
  0
VERTEX
  5
583
  8
DEFAULT
 10
23.06736236924242
 20
-22.22565455245743
 30
0.0
  0
VERTEX
  5
584
  8
DEFAULT
 10
22.59997752233624
 20
-22.02719508074979
 30
0.0
  0
VERTEX
  5
585
  8
DEFAULT
 10
22.13803410646078
 20
-21.81884644159303
 30
0.0
  0
VERTEX
  5
586
  8
DEFAULT
 10
21.68203888913247
 20
-21.60015977449943
 30
0.0
  0
VERTEX
  5
587
  8
DEFAULT
 10
21.23249863786772
 20
-21.37068621898124
 30
0.0
  0
VERTEX
  5
588
  8
DEFAULT
 10
20.78992012018294
 20
-21.12997691455075
 30
0.0
  0
VERTEX
  5
589
  8
DEFAULT
 10
20.35481010359456
 20
-20.87758300072021
 30
0.0
  0
VERTEX
  5
58A
  8
DEFAULT
 10
19.92767535561898
 20
-20.6130556170019
 30
0.0
  0
VERTEX
  5
58B
  8
DEFAULT
 10
19.50902264377262
 20
-20.33594590290809
 30
0.0
  0
VERTEX
  5
58C
  8
DEFAULT
 10
19.0993587355719
 20
-20.04580499795104
 30
0.0
  0
VERTEX
  5
58D
  8
DEFAULT
 10
18.699077869889
 20
-19.74236644524044
 30
0.0
  0
VERTEX
  5
58E
  8
DEFAULT
 10
18.3081241710192
 20
-19.42609340227571
 30
0.0
  0
VERTEX
  5
58F
  8
DEFAULT
 10
17.92632923461356
 20
-19.09763143015365
 30
0.0
  0
VERTEX
  5
590
  8
DEFAULT
 10
17.55352465632314
 20
-18.7576260899711
 30
0.0
  0
VERTEX
  5
591
  8
DEFAULT
 10
17.18954203179898
 20
-18.40672294282487
 30
0.0
  0
VERTEX
  5
592
  8
DEFAULT
 10
16.83421295669213
 20
-18.04556754981179
 30
0.0
  0
VERTEX
  5
593
  8
DEFAULT
 10
16.48736902665366
 20
-17.67480547202869
 30
0.0
  0
VERTEX
  5
594
  8
DEFAULT
 10
16.14884183733462
 20
-17.29508227057239
 30
0.0
  0
VERTEX
  5
595
  8
DEFAULT
 10
15.81846298438606
 20
-16.90704350653971
 30
0.0
  0
VERTEX
  5
596
  8
DEFAULT
 10
15.49606406345902
 20
-16.51133474102747
 30
0.0
  0
VERTEX
  5
597
  8
DEFAULT
 10
15.18147667020458
 20
-16.1086015351325
 30
0.0
  0
VERTEX
  5
598
  8
DEFAULT
 10
14.87453240027377
 20
-15.69948944995162
 30
0.0
  0
VERTEX
  5
599
  8
DEFAULT
 10
14.2828996129873
 20
-14.86471088611943
 30
0.0
  0
VERTEX
  5
59A
  8
DEFAULT
 10
13.71981846680803
 20
-14.01216353830549
 30
0.0
  0
VERTEX
  5
59B
  8
DEFAULT
 10
13.18400531929992
 20
-13.14618077917258
 30
0.0
  0
VERTEX
  5
59C
  8
DEFAULT
 10
12.67443089744903
 20
-12.26777151693627
 30
0.0
  0
VERTEX
  5
59D
  8
DEFAULT
 10
12.19012952059692
 20
-11.3771135437003
 30
0.0
  0
VERTEX
  5
59E
  8
DEFAULT
 10
11.73013550808517
 20
-10.47438465156842
 30
0.0
  0
VERTEX
  5
59F
  8
DEFAULT
 10
11.29348317925537
 20
-9.559762632644397
 30
0.0
  0
VERTEX
  5
5A0
  8
DEFAULT
 10
10.87920685344908
 20
-8.633425279031979
 30
0.0
  0
VERTEX
  5
5A1
  8
DEFAULT
 10
10.48634085000788
 20
-7.695550382834917
 30
0.0
  0
VERTEX
  5
5A2
  8
DEFAULT
 10
10.11391948827336
 20
-6.746315736156967
 30
0.0
  0
VERTEX
  5
5A3
  8
DEFAULT
 10
8.080840368567497
 20
-0.9668959609806272
 30
0.0
  0
VERTEX
  5
5A4
  8
DEFAULT
 10
7.722298416501594
 20
-0.0281327510074691
 30
0.0
  0
VERTEX
  5
5A5
  8
DEFAULT
 10
7.342679212045265
 20
0.8924538295538067
 30
0.0
  0
VERTEX
  5
5A6
  8
DEFAULT
 10
7.143076098614936
 20
1.344483468217347
 30
0.0
  0
VERTEX
  5
5A7
  8
DEFAULT
 10
6.93555703991788
 20
1.789575581956856
 30
0.0
  0
VERTEX
  5
5A8
  8
DEFAULT
 10
6.718923839979217
 20
2.226385324193735
 30
0.0
  0
VERTEX
  5
5A9
  8
DEFAULT
 10
6.491978302824066
 20
2.65356784834939
 30
0.0
  0
VERTEX
  5
5AA
  8
DEFAULT
 10
6.253522232477547
 20
3.069778307845223
 30
0.0
  0
VERTEX
  5
5AB
  8
DEFAULT
 10
6.129603311115374
 20
3.273348748789894
 30
0.0
  0
VERTEX
  5
5AC
  8
DEFAULT
 10
6.002357432964779
 20
3.473671856102636
 30
0.0
  0
VERTEX
  5
5AD
  8
DEFAULT
 10
5.8716348235289
 20
3.670579523961125
 30
0.0
  0
VERTEX
  5
5AE
  8
DEFAULT
 10
5.73728570831088
 20
3.863903646543036
 30
0.0
  0
VERTEX
  5
5AF
  8
DEFAULT
 10
5.599160312813856
 20
4.053476118026043
 30
0.0
  0
VERTEX
  5
5B0
  8
DEFAULT
 10
5.45710886254097
 20
4.239128832587824
 30
0.0
  0
VERTEX
  5
5B1
  8
DEFAULT
 10
5.31098158299536
 20
4.420693684406052
 30
0.0
  0
VERTEX
  5
5B2
  8
DEFAULT
 10
5.160628699680167
 20
4.598002567658403
 30
0.0
  0
VERTEX
  5
5B3
  8
DEFAULT
 10
5.005900438098531
 20
4.770887376522554
 30
0.0
  0
VERTEX
  5
5B4
  8
DEFAULT
 10
4.846647023753592
 20
4.939180005176178
 30
0.0
  0
VERTEX
  5
5B5
  8
DEFAULT
 10
4.682718682148489
 20
5.102712347796952
 30
0.0
  0
VERTEX
  5
5B6
  8
DEFAULT
 10
4.513965638786363
 20
5.261316298562551
 30
0.0
  0
VERTEX
  5
5B7
  8
DEFAULT
 10
4.340238119170353
 20
5.414823751650651
 30
0.0
  0
VERTEX
  5
5B8
  8
DEFAULT
 10
4.161386348803598
 20
5.563066601238927
 30
0.0
  0
VERTEX
  5
5B9
  8
DEFAULT
 10
3.977260553189239
 20
5.705876741505055
 30
0.0
  0
VERTEX
  5
5BA
  8
DEFAULT
 10
3.787710957830416
 20
5.843086066626709
 30
0.0
  0
VERTEX
  5
5BB
  8
DEFAULT
 10
3.592587788230269
 20
5.974526470781565
 30
0.0
  0
VERTEX
  5
5BC
  8
DEFAULT
 10
3.391741269891938
 20
6.100029848147298
 30
0.0
  0
VERTEX
  5
5BD
  8
DEFAULT
 10
3.289124950415684
 20
6.160502618714768
 30
0.0
  0
VERTEX
  5
5BE
  8
DEFAULT
 10
3.185021628318562
 20
6.219428092901586
 30
0.0
  0
VERTEX
  5
5BF
  8
DEFAULT
 10
3.079412581788463
 20
6.27678525747996
 30
0.0
  0
VERTEX
  5
5C0
  8
DEFAULT
 10
2.972279089013281
 20
6.332553099222101
 30
0.0
  0
VERTEX
  5
5C1
  8
DEFAULT
 10
2.863602428180908
 20
6.386710604900218
 30
0.0
  0
VERTEX
  5
5C2
  8
DEFAULT
 10
2.753363877479236
 20
6.439236761286519
 30
0.0
  0
VERTEX
  5
5C3
  8
DEFAULT
 10
2.641544715096158
 20
6.490110555153217
 30
0.0
  0
VERTEX
  5
5C4
  8
DEFAULT
 10
2.528126219219565
 20
6.539310973272519
 30
0.0
  0
VERTEX
  5
5C5
  8
DEFAULT
 10
2.296521243649732
 20
6.632626813803473
 30
0.0
  0
VERTEX
  5
5C6
  8
DEFAULT
 10
2.058923695834483
 20
6.719112099285557
 30
0.0
  0
VERTEX
  5
5C7
  8
DEFAULT
 10
1.81581322475089
 20
6.798713830570644
 30
0.0
  0
VERTEX
  5
5C8
  8
DEFAULT
 10
1.567669479376024
 20
6.871379008510614
 30
0.0
  0
VERTEX
  5
5C9
  8
DEFAULT
 10
1.314972108686954
 20
6.937054633957338
 30
0.0
  0
VERTEX
  5
5CA
  8
DEFAULT
 10
1.05820076166075
 20
6.995687707762691
 30
0.0
  0
VERTEX
  5
5CB
  8
DEFAULT
 10
0.7978350872744844
 20
7.047225230778551
 30
0.0
  0
VERTEX
  5
5CC
  8
DEFAULT
 10
0.5343547345052261
 20
7.091614203856791
 30
0.0
  0
VERTEX
  5
5CD
  8
DEFAULT
 10
0.2682393523300457
 20
7.128801627849287
 30
0.0
  0
VERTEX
  5
5CE
  8
DEFAULT
 10
-0.0000314102739863
 20
7.158734503607914
 30
0.0
  0
VERTEX
  5
5CF
  8
DEFAULT
 10
-0.2699779043297996
 20
7.181359831984546
 30
0.0
  0
VERTEX
  5
5D0
  8
DEFAULT
 10
-0.5411204808603237
 20
7.19662461383106
 30
0.0
  0
VERTEX
  5
5D1
  8
DEFAULT
 10
-0.8129794908884883
 20
7.204475849999329
 30
0.0
  0
VERTEX
  5
5D2
  8
DEFAULT
 10
-1.085075285437223
 20
7.20486054134123
 30
0.0
  0
VERTEX
  5
5D3
  8
DEFAULT
 10
-1.356928215529458
 20
7.197725688708636
 30
0.0
  0
VERTEX
  5
5D4
  8
DEFAULT
 10
-1.628058632188121
 20
7.183018292953424
 30
0.0
  0
VERTEX
  5
5D5
  8
DEFAULT
 10
-1.897986886436144
 20
7.160685354927468
 30
0.0
  0
VERTEX
  5
5D6
  8
DEFAULT
 10
-2.166233329296455
 20
7.130673875482644
 30
0.0
  0
VERTEX
  5
5D7
  8
DEFAULT
 10
-2.432318311791985
 20
7.092930855470827
 30
0.0
  0
VERTEX
  5
5D8
  8
DEFAULT
 10
-2.695762184945662
 20
7.047403295743891
 30
0.0
  0
VERTEX
  5
5D9
  8
DEFAULT
 10
-2.956085299780416
 20
6.994038197153712
 30
0.0
  0
VERTEX
  5
5DA
  8
DEFAULT
 10
-3.212808007319178
 20
6.932782560552166
 30
0.0
  0
VERTEX
  5
5DB
  8
DEFAULT
 10
-3.465450658584877
 20
6.863583386791126
 30
0.0
  0
VERTEX
  5
5DC
  8
DEFAULT
 10
-3.590092072809993
 20
6.825988411242006
 30
0.0
  0
VERTEX
  5
5DD
  8
DEFAULT
 10
-3.713533604600442
 20
6.786387676722468
 30
0.0
  0
VERTEX
  5
5DE
  8
DEFAULT
 10
-3.83571529783409
 20
6.744774558338992
 30
0.0
  0
VERTEX
  5
5DF
  8
DEFAULT
 10
-3.956577196388802
 20
6.701142431198067
 30
0.0
  0
VERTEX
  5
5E0
  8
DEFAULT
 10
-4.076059344142447
 20
6.655484670406174
 30
0.0
  0
VERTEX
  5
5E1
  8
DEFAULT
 10
-4.194101784972888
 20
6.607794651069799
 30
0.0
  0
VERTEX
  5
5E2
  8
DEFAULT
 10
-4.310644562757994
 20
6.558065748295426
 30
0.0
  0
VERTEX
  5
5E3
  8
DEFAULT
 10
-4.42562772137563
 20
6.506291337189539
 30
0.0
  0
VERTEX
  5
5E4
  8
DEFAULT
 10
-4.538991304703663
 20
6.452464792858622
 30
0.0
  0
VERTEX
  5
5E5
  8
DEFAULT
 10
-4.650675356619956
 20
6.39657949040916
 30
0.0
  0
VERTEX
  5
5E6
  8
DEFAULT
 10
-4.760619921002379
 20
6.338628804947637
 30
0.0
  0
VERTEX
  5
5E7
  8
DEFAULT
 10
-4.868765041728796
 20
6.278606111580539
 30
0.0
  0
VERTEX
  5
5E8
  8
DEFAULT
 10
-4.975050762677074
 20
6.216504785414349
 30
0.0
  0
VERTEX
  5
5E9
  8
DEFAULT
 10
-5.079417127725081
 20
6.152318201555551
 30
0.0
  0
VERTEX
  5
5EA
  8
DEFAULT
 10
-5.181804180750681
 20
6.086039735110631
 30
0.0
  0
VERTEX
  5
5EB
  8
DEFAULT
 10
-5.282151965631739
 20
6.017662761186071
 30
0.0
  0
VERTEX
  5
5EC
  8
DEFAULT
 10
-5.380400526246124
 20
5.947180654888357
 30
0.0
  0
VERTEX
  5
5ED
  8
DEFAULT
 10
-5.4764899064717
 20
5.874586791323974
 30
0.0
  0
VERTEX
  5
5EE
  8
DEFAULT
 10
-5.570376829697473
 20
5.799882266843889
 30
0.0
  0
VERTEX
  5
5EF
  8
DEFAULT
 10
-5.662084737356998
 20
5.723099062777012
 30
0.0
  0
VERTEX
  5
5F0
  8
DEFAULT
 10
-5.75165375039497
 20
5.644276881696731
 30
0.0
  0
VERTEX
  5
5F1
  8
DEFAULT
 10
-5.839123989756084
 20
5.563455426176441
 30
0.0
  0
VERTEX
  5
5F2
  8
DEFAULT
 10
-5.924535576385034
 20
5.480674398789532
 30
0.0
  0
VERTEX
  5
5F3
  8
DEFAULT
 10
-6.007928631226514
 20
5.395973502109396
 30
0.0
  0
VERTEX
  5
5F4
  8
DEFAULT
 10
-6.08934327522522
 20
5.309392438709424
 30
0.0
  0
VERTEX
  5
5F5
  8
DEFAULT
 10
-6.168819629325844
 20
5.22097091116301
 30
0.0
  0
VERTEX
  5
5F6
  8
DEFAULT
 10
-6.246397814473082
 20
5.130748622043544
 30
0.0
  0
VERTEX
  5
5F7
  8
DEFAULT
 10
-6.322117951611627
 20
5.038765273924418
 30
0.0
  0
VERTEX
  5
5F8
  8
DEFAULT
 10
-6.396020161686175
 20
4.945060569379024
 30
0.0
  0
VERTEX
  5
5F9
  8
DEFAULT
 10
-6.468144565641419
 20
4.849674210980752
 30
0.0
  0
VERTEX
  5
5FA
  8
DEFAULT
 10
-6.538531284422055
 20
4.752645901302996
 30
0.0
  0
VERTEX
  5
5FB
  8
DEFAULT
 10
-6.607220438972776
 20
4.654015342919148
 30
0.0
  0
VERTEX
  5
5FC
  8
DEFAULT
 10
-6.674252150238277
 20
4.553822238402597
 30
0.0
  0
VERTEX
  5
5FD
  8
DEFAULT
 10
-6.739666539163252
 20
4.452106290326738
 30
0.0
  0
VERTEX
  5
5FE
  8
DEFAULT
 10
-6.865803833770405
 20
4.244264673790657
 30
0.0
  0
VERTEX
  5
5FF
  8
DEFAULT
 10
-6.985953290351789
 20
4.030808113898038
 30
0.0
  0
VERTEX
  5
600
  8
DEFAULT
 10
-7.100435876464958
 20
3.812054231236015
 30
0.0
  0
VERTEX
  5
601
  8
DEFAULT
 10
-7.209572559667469
 20
3.588320646391722
 30
0.0
  0
VERTEX
  5
602
  8
DEFAULT
 10
-7.313684307516876
 20
3.359924979952292
 30
0.0
  0
VERTEX
  5
603
  8
DEFAULT
 10
-7.413092087570735
 20
3.12718485250486
 30
0.0
  0
VERTEX
  5
604
  8
DEFAULT
 10
-7.508116867386601
 20
2.890417884636559
 30
0.0
  0
VERTEX
  5
605
  8
DEFAULT
 10
-7.59907961452203
 20
2.649941696934524
 30
0.0
  0
VERTEX
  5
606
  8
DEFAULT
 10
-7.770102880981797
 20
2.159132144377782
 30
0.0
  0
VERTEX
  5
607
  8
DEFAULT
 10
-7.928729627410478
 20
1.657297159531705
 30
0.0
  0
VERTEX
  5
608
  8
DEFAULT
 10
-9.056003893817834
 20
-2.453311732336106
 30
0.0
  0
VERTEX
  5
609
  8
DEFAULT
 10
-9.369340678036114
 20
-3.439872946139828
 30
0.0
  0
VERTEX
  5
60A
  8
DEFAULT
 10
-9.702945892516322
 20
-4.405884014409084
 30
0.0
  0
VERTEX
  5
60B
  8
DEFAULT
 10
-10.0557984260054
 20
-5.354592505556955
 30
0.0
  0
VERTEX
  5
60C
  8
DEFAULT
 10
-10.42687716725028
 20
-6.289245987996524
 30
0.0
  0
VERTEX
  5
60D
  8
DEFAULT
 10
-10.81516100499791
 20
-7.213092030140874
 30
0.0
  0
VERTEX
  5
60E
  8
DEFAULT
 10
-11.63925952498919
 20
-9.041352067196248
 30
0.0
  0
VERTEX
  5
60F
  8
DEFAULT
 10
-12.52471106692325
 20
-10.85709643316068
 30
0.0
  0
VERTEX
  5
610
  8
DEFAULT
 10
-12.99507039943893
 20
-11.75600906421592
 30
0.0
  0
VERTEX
  5
611
  8
DEFAULT
 10
-13.48727659561813
 20
-12.64502202100357
 30
0.0
  0
VERTEX
  5
612
  8
DEFAULT
 10
-14.00389802243416
 20
-13.52119032378641
 30
0.0
  0
VERTEX
  5
613
  8
DEFAULT
 10
-14.54750304686036
 20
-14.38156899282724
 30
0.0
  0
VERTEX
  5
614
  8
DEFAULT
 10
-14.83022702285642
 20
-14.80491690852652
 30
0.0
  0
VERTEX
  5
615
  8
DEFAULT
 10
-15.12066003587002
 20
-15.22321304838885
 30
0.0
  0
VERTEX
  5
616
  8
DEFAULT
 10
-15.41912313177282
 20
-15.63608928994707
 30
0.0
  0
VERTEX
  5
617
  8
DEFAULT
 10
-15.72593735643648
 20
-16.04317751073403
 30
0.0
  0
VERTEX
  5
618
  8
DEFAULT
 10
-16.04135742817252
 20
-16.44409152421287
 30
0.0
  0
VERTEX
  5
619
  8
DEFAULT
 10
-16.36537275505193
 20
-16.83837288756786
 30
0.0
  0
VERTEX
  5
61A
  8
DEFAULT
 10
-16.69790641758552
 20
-17.22554509391355
 30
0.0
  0
VERTEX
  5
61B
  8
DEFAULT
 10
-17.03888149628414
 20
-17.60513163636452
 30
0.0
  0
VERTEX
  5
61C
  8
DEFAULT
 10
-17.38822107165861
 20
-17.97665600803531
 30
0.0
  0
VERTEX
  5
61D
  8
DEFAULT
 10
-17.74584822421976
 20
-18.33964170204049
 30
0.0
  0
VERTEX
  5
61E
  8
DEFAULT
 10
-18.11168603447843
 20
-18.69361221149461
 30
0.0
  0
VERTEX
  5
61F
  8
DEFAULT
 10
-18.48565758294544
 20
-19.03809102951224
 30
0.0
  0
VERTEX
  5
620
  8
DEFAULT
 10
-18.86768595013164
 20
-19.37260164920794
 30
0.0
  0
VERTEX
  5
621
  8
DEFAULT
 10
-19.25769421654784
 20
-19.69666756369625
 30
0.0
  0
VERTEX
  5
622
  8
DEFAULT
 10
-19.65560546270489
 20
-20.00981226609175
 30
0.0
  0
VERTEX
  5
623
  8
DEFAULT
 10
-20.06134276911361
 20
-20.31155924950899
 30
0.0
  0
VERTEX
  5
624
  8
DEFAULT
 10
-20.47482921628484
 20
-20.60143200706253
 30
0.0
  0
VERTEX
  5
625
  8
DEFAULT
 10
-20.8959878847294
 20
-20.87895403186693
 30
0.0
  0
VERTEX
  5
626
  8
DEFAULT
 10
-21.32474185495813
 20
-21.14364881703675
 30
0.0
  0
VERTEX
  5
627
  8
DEFAULT
 10
-21.76101420748186
 20
-21.39503985568655
 30
0.0
  0
VERTEX
  5
628
  8
DEFAULT
 10
-22.20466675217481
 20
-21.63282289844953
 30
0.0
  0
VERTEX
  5
629
  8
DEFAULT
 10
-22.65531621636472
 20
-21.85738272603344
 30
0.0
  0
VERTEX
  5
62A
  8
DEFAULT
 10
-23.11251805674271
 20
-22.06927637666472
 30
0.0
  0
VERTEX
  5
62B
  8
DEFAULT
 10
-23.57582772999993
 20
-22.26906088856976
 30
0.0
  0
VERTEX
  5
62C
  8
DEFAULT
 10
-24.04480069282748
 20
-22.45729329997498
 30
0.0
  0
VERTEX
  5
62D
  8
DEFAULT
 10
-24.51899240191652
 20
-22.63453064910678
 30
0.0
  0
VERTEX
  5
62E
  8
DEFAULT
 10
-24.99795831395816
 20
-22.80132997419157
 30
0.0
  0
VERTEX
  5
62F
  8
DEFAULT
 10
-25.48125388564354
 20
-22.95824831345576
 30
0.0
  0
VERTEX
  5
630
  8
DEFAULT
 10
-25.96843457366378
 20
-23.10584270512576
 30
0.0
  0
VERTEX
  5
631
  8
DEFAULT
 10
-26.45905583471001
 20
-23.24467018742798
 30
0.0
  0
VERTEX
  5
632
  8
DEFAULT
 10
-27.44884190264496
 20
-23.49825257683472
 30
0.0
  0
VERTEX
  5
633
  8
DEFAULT
 10
-28.44705574297743
 20
-23.72345178748724
 30
0.0
  0
VERTEX
  5
634
  8
DEFAULT
 10
-29.45014100923644
 20
-23.92472412519682
 30
0.0
  0
VERTEX
  5
635
  8
DEFAULT
 10
-30.4551152831967
 20
-24.10553582139609
 30
0.0
  0
VERTEX
  5
636
  8
DEFAULT
 10
-31.46129185961566
 20
-24.2653928100031
 30
0.0
  0
VERTEX
  5
637
  8
DEFAULT
 10
-32.4685579614964
 20
-24.40281095055727
 30
0.0
  0
VERTEX
  5
638
  8
DEFAULT
 10
-33.47680081184207
 20
-24.51630610259803
 30
0.0
  0
VERTEX
  5
639
  8
DEFAULT
 10
-34.48590763365576
 20
-24.60439412566477
 30
0.0
  0
VERTEX
  5
63A
  8
DEFAULT
 10
-35.49576564994057
 20
-24.66559087929691
 30
0.0
  0
VERTEX
  5
63B
  8
DEFAULT
 10
-36.50626208369964
 20
-24.69841222303388
 30
0.0
  0
VERTEX
  5
63C
  8
DEFAULT
 10
-37.51728415793605
 20
-24.70137401641509
 30
0.0
  0
VERTEX
  5
63D
  8
DEFAULT
 10
-38.52869982792834
 20
-24.67384238160879
 30
0.0
  0
VERTEX
  5
63E
  8
DEFAULT
 10
-39.54029997805668
 20
-24.61858449129861
 30
0.0
  0
VERTEX
  5
63F
  8
DEFAULT
 10
-40.55185622497663
 20
-24.53921778079704
 30
0.0
  0
VERTEX
  5
640
  8
DEFAULT
 10
-41.56314018534378
 20
-24.43935968541656
 30
0.0
  0
VERTEX
  5
641
  8
DEFAULT
 10
-43.58397771304197
 20
-24.19263908126875
 30
0.0
  0
VERTEX
  5
642
  8
DEFAULT
 10
-47.61167027084469
 20
-23.6017190802499
 30
0.0
  0
VERTEX
  5
643
  8
DEFAULT
 10
-49.61087401660637
 20
-23.25090268082695
 30
0.0
  0
VERTEX
  5
644
  8
DEFAULT
 10
-50.60435043498344
 20
-23.04744308516761
 30
0.0
  0
VERTEX
  5
645
  8
DEFAULT
 10
-51.5927725140934
 20
-22.81935647803442
 30
0.0
  0
VERTEX
  5
646
  8
DEFAULT
 10
-52.57541222673785
 20
-22.56219829879591
 30
0.0
  0
VERTEX
  5
647
  8
DEFAULT
 10
-53.06433618713599
 20
-22.42132844443982
 30
0.0
  0
VERTEX
  5
648
  8
DEFAULT
 10
-53.55154154571834
 20
-22.27152398682059
 30
0.0
  0
VERTEX
  5
649
  8
DEFAULT
 10
-54.03683884622671
 20
-22.11227943145933
 30
0.0
  0
VERTEX
  5
64A
  8
DEFAULT
 10
-54.51964482096955
 20
-21.94328958627723
 30
0.0
  0
VERTEX
  5
64B
  8
DEFAULT
 10
-54.99927774939688
 20
-21.76429933479552
 30
0.0
  0
VERTEX
  5
64C
  8
DEFAULT
 10
-55.47505591095876
 20
-21.5750535605354
 30
0.0
  0
VERTEX
  5
64D
  8
DEFAULT
 10
-55.94629758510521
 20
-21.37529714701812
 30
0.0
  0
VERTEX
  5
64E
  8
DEFAULT
 10
-56.41232105128631
 20
-21.16477497776489
 30
0.0
  0
VERTEX
  5
64F
  8
DEFAULT
 10
-56.87244458895209
 20
-20.94323193629693
 30
0.0
  0
VERTEX
  5
650
  8
DEFAULT
 10
-57.32598647755259
 20
-20.71041290613546
 30
0.0
  0
VERTEX
  5
651
  8
DEFAULT
 10
-57.77226499653787
 20
-20.46606277080171
 30
0.0
  0
VERTEX
  5
652
  8
DEFAULT
 10
-58.21059842535797
 20
-20.20992641381691
 30
0.0
  0
VERTEX
  5
653
  8
DEFAULT
 10
-58.64030504346295
 20
-19.94174871870228
 30
0.0
  0
VERTEX
  5
654
  8
DEFAULT
 10
-59.06070313030284
 20
-19.66127456897903
 30
0.0
  0
VERTEX
  5
655
  8
DEFAULT
 10
-59.4711109653277
 20
-19.36824884816839
 30
0.0
  0
VERTEX
  5
656
  8
DEFAULT
 10
-59.87084682798756
 20
-19.06241643979159
 30
0.0
  0
VERTEX
  5
657
  8
DEFAULT
 10
-60.06649973200876
 20
-18.90461800386626
 30
0.0
  0
VERTEX
  5
658
  8
DEFAULT
 10
-60.25922899773248
 20
-18.74352222736985
 30
0.0
  0
VERTEX
  5
659
  8
DEFAULT
 10
-60.44894941008997
 20
-18.57909722074251
 30
0.0
  0
VERTEX
  5
65A
  8
DEFAULT
 10
-60.63557575401251
 20
-18.41131109442439
 30
0.0
  0
VERTEX
  5
65B
  8
DEFAULT
 10
-60.81904358435721
 20
-18.24015184305611
 30
0.0
  0
VERTEX
  5
65C
  8
DEFAULT
 10
-60.99937153568476
 20
-18.06568699808011
 30
0.0
  0
VERTEX
  5
65D
  8
DEFAULT
 10
-61.35076541923459
 20
-17.70719018987663
 30
0.0
  0
VERTEX
  5
65E
  8
DEFAULT
 10
-61.69007264055445
 20
-17.33651999495723
 30
0.0
  0
VERTEX
  5
65F
  8
DEFAULT
 10
-62.0176084355368
 20
-16.95437573846522
 30
0.0
  0
VERTEX
  5
660
  8
DEFAULT
 10
-62.33368804007407
 20
-16.56145674554388
 30
0.0
  0
VERTEX
  5
661
  8
DEFAULT
 10
-62.63862669005869
 20
-16.1584623413365
 30
0.0
  0
VERTEX
  5
662
  8
DEFAULT
 10
-62.93273962138312
 20
-15.74609185098637
 30
0.0
  0
VERTEX
  5
663
  8
DEFAULT
 10
-63.2163420699398
 20
-15.3250445996368
 30
0.0
  0
VERTEX
  5
664
  8
DEFAULT
 10
-63.48974927162116
 20
-14.89601991243106
 30
0.0
  0
VERTEX
  5
665
  8
DEFAULT
 10
-63.75327646231965
 20
-14.45971711451246
 30
0.0
  0
VERTEX
  5
666
  8
DEFAULT
 10
-64.0072388779277
 20
-14.01683553102429
 30
0.0
  0
VERTEX
  5
667
  8
DEFAULT
 10
-64.2519517543378
 20
-13.56807448710983
 30
0.0
  0
VERTEX
  5
668
  8
DEFAULT
 10
-64.48773032744234
 20
-13.11413330791238
 30
0.0
  0
VERTEX
  5
669
  8
DEFAULT
 10
-64.71488983313375
 20
-12.65571131857523
 30
0.0
  0
VERTEX
  5
66A
  8
DEFAULT
 10
-65.14461258584706
 20
-11.728222210055
 30
0.0
  0
VERTEX
  5
66B
  8
DEFAULT
 10
-65.54365494648566
 20
-10.79039245339099
 30
0.0
  0
VERTEX
  5
66C
  8
DEFAULT
 10
-65.91460403653105
 20
-9.8437701032071
 30
0.0
  0
VERTEX
  5
66D
  8
DEFAULT
 10
-66.2600600243331
 20
-8.88909390482275
 30
0.0
  0
VERTEX
  5
66E
  8
DEFAULT
 10
-66.58262307824174
 20
-7.927102603557346
 30
0.0
  0
VERTEX
  5
66F
  8
DEFAULT
 10
-66.88489336660685
 20
-6.958534944730305
 30
0.0
  0
VERTEX
  5
670
  8
DEFAULT
 10
-67.16947105777831
 20
-5.984129673661039
 30
0.0
  0
VERTEX
  5
671
  8
DEFAULT
 10
-69.19655238103829
 20
1.89541479498657
 30
0.0
  0
VERTEX
  5
672
  8
DEFAULT
 10
-69.48322085904897
 20
2.867241460974668
 30
0.0
  0
VERTEX
  5
673
  8
DEFAULT
 10
-69.7928543021456
 20
3.830284505008664
 30
0.0
  0
VERTEX
  5
674
  8
DEFAULT
 10
-70.12937826966996
 20
4.782745609843468
 30
0.0
  0
VERTEX
  5
675
  8
DEFAULT
 10
-70.49364509705671
 20
5.722721759675414
 30
0.0
  0
VERTEX
  5
676
  8
DEFAULT
 10
-70.88573881376374
 20
6.648283764061185
 30
0.0
  0
VERTEX
  5
677
  8
DEFAULT
 10
-71.30574344924894
 20
7.557502432557465
 30
0.0
  0
VERTEX
  5
678
  8
DEFAULT
 10
-71.75374303297015
 20
8.448448574720938
 30
0.0
  0
VERTEX
  5
679
  8
DEFAULT
 10
-71.98826718962485
 20
8.886466576414337
 30
0.0
  0
VERTEX
  5
67A
  8
DEFAULT
 10
-72.22982159438527
 20
9.319193000108289
 30
0.0
  0
VERTEX
  5
67B
  8
DEFAULT
 10
-72.47841675093365
 20
9.746386696997384
 30
0.0
  0
VERTEX
  5
67C
  8
DEFAULT
 10
-72.7340631629522
 20
10.1678065182762
 30
0.0
  0
VERTEX
  5
67D
  8
DEFAULT
 10
-72.99677133412317
 20
10.58321131513934
 30
0.0
  0
VERTEX
  5
67E
  8
DEFAULT
 10
-73.26655176812878
 20
10.99235993878136
 30
0.0
  0
VERTEX
  5
67F
  8
DEFAULT
 10
-75.2075403472694
 20
13.73757110861026
 30
0.0
  0
VERTEX
  5
680
  8
DEFAULT
 10
-75.4621538632752
 20
14.12573075641708
 30
0.0
  0
VERTEX
  5
681
  8
DEFAULT
 10
-75.70344949267944
 20
14.51618344685802
 30
0.0
  0
VERTEX
  5
682
  8
DEFAULT
 10
-75.81830619939353
 20
14.71261305668585
 30
0.0
  0
VERTEX
  5
683
  8
DEFAULT
 10
-75.92887715384231
 20
14.91002797551567
 30
0.0
  0
VERTEX
  5
684
  8
DEFAULT
 10
-76.03484359582079
 20
15.10856555279532
 30
0.0
  0
VERTEX
  5
685
  8
DEFAULT
 10
-76.13588676512401
 20
15.30836313797261
 30
0.0
  0
VERTEX
  5
686
  8
DEFAULT
 10
-76.23168790154699
 20
15.50955808049537
 30
0.0
  0
VERTEX
  5
687
  8
DEFAULT
 10
-76.32192824488473
 20
15.71228772981142
 30
0.0
  0
VERTEX
  5
688
  8
DEFAULT
 10
-76.40628903493229
 20
15.91668943536859
 30
0.0
  0
VERTEX
  5
689
  8
DEFAULT
 10
-76.48445151148465
 20
16.12290054661468
 30
0.0
  0
VERTEX
  5
68A
  8
DEFAULT
 10
-76.55609691433689
 20
16.33105841299754
 30
0.0
  0
VERTEX
  5
68B
  8
DEFAULT
 10
-76.62090648328399
 20
16.54130038396497
 30
0.0
  0
VERTEX
  5
68C
  8
DEFAULT
 10
-76.67856145812101
 20
16.75376380896481
 30
0.0
  0
VERTEX
  5
68D
  8
DEFAULT
 10
-76.70460636018416
 20
16.86087148842933
 30
0.0
  0
VERTEX
  5
68E
  8
DEFAULT
 10
-76.72874307864294
 20
16.96858603744488
 30
0.0
  0
VERTEX
  5
68F
  8
DEFAULT
 10
-76.75093176847169
 20
17.07692462469244
 30
0.0
  0
VERTEX
  5
690
  8
DEFAULT
 10
-76.7711325846448
 20
17.18590441885299
 30
0.0
  0
VERTEX
  5
691
  8
DEFAULT
 10
-76.78930568213667
 20
17.29554258860751
 30
0.0
  0
VERTEX
  5
692
  8
DEFAULT
 10
-76.80541121592167
 20
17.40585630263697
 30
0.0
  0
VERTEX
  5
693
  8
DEFAULT
 10
-76.81941765227425
 20
17.51685183108219
 30
0.0
  0
VERTEX
  5
694
  8
DEFAULT
 10
-76.83132670266924
 20
17.62849184992332
 30
0.0
  0
VERTEX
  5
695
  8
DEFAULT
 10
-76.84114838988157
 20
17.74072813660034
 30
0.0
  0
VERTEX
  5
696
  8
DEFAULT
 10
-76.84889273668614
 20
17.85351246855323
 30
0.0
  0
VERTEX
  5
697
  8
DEFAULT
 10
-76.85456976585789
 20
17.96679662322198
 30
0.0
  0
VERTEX
  5
698
  8
DEFAULT
 10
-76.8581895001717
 20
18.08053237804657
 30
0.0
  0
VERTEX
  5
699
  8
DEFAULT
 10
-76.85976196240253
 20
18.19467151046699
 30
0.0
  0
VERTEX
  5
69A
  8
DEFAULT
 10
-76.85929717532525
 20
18.30916579792321
 30
0.0
  0
VERTEX
  5
69B
  8
DEFAULT
 10
-76.85680516171482
 20
18.42396701785522
 30
0.0
  0
VERTEX
  5
69C
  8
DEFAULT
 10
-76.85229594434611
 20
18.53902694770301
 30
0.0
  0
VERTEX
  5
69D
  8
DEFAULT
 10
-76.83726598943366
 20
18.76973004690583
 30
0.0
  0
VERTEX
  5
69E
  8
DEFAULT
 10
-76.81428749278717
 20
19.00088931505156
 30
0.0
  0
VERTEX
  5
69F
  8
DEFAULT
 10
-76.783440636606
 20
19.23211897166005
 30
0.0
  0
VERTEX
  5
6A0
  8
DEFAULT
 10
-76.7448056030895
 20
19.46303323625117
 30
0.0
  0
VERTEX
  5
6A1
  8
DEFAULT
 10
-76.69846257443697
 20
19.6932463283448
 30
0.0
  0
VERTEX
  5
6A2
  8
DEFAULT
 10
-76.64449173284774
 20
19.92237246746079
 30
0.0
  0
VERTEX
  5
6A3
  8
DEFAULT
 10
-76.58297326052117
 20
20.15002587311901
 30
0.0
  0
VERTEX
  5
6A4
  8
DEFAULT
 10
-76.51398733965658
 20
20.37582076483934
 30
0.0
  0
VERTEX
  5
6A5
  8
DEFAULT
 10
-76.43761415245328
 20
20.59937136214163
 30
0.0
  0
VERTEX
  5
6A6
  8
DEFAULT
 10
-76.35393388111063
 20
20.82029188454577
 30
0.0
  0
VERTEX
  5
6A7
  8
DEFAULT
 10
-76.26302670782795
 20
21.03819655157161
 30
0.0
  0
VERTEX
  5
6A8
  8
DEFAULT
 10
-76.16497281480457
 20
21.25269958273902
 30
0.0
  0
VERTEX
  5
6A9
  8
DEFAULT
 10
-76.05985238423983
 20
21.46341519756787
 30
0.0
  0
VERTEX
  5
6AA
  8
DEFAULT
 10
-75.94774559833306
 20
21.66995761557803
 30
0.0
  0
VERTEX
  5
6AB
  8
DEFAULT
 10
-75.88909737906368
 20
21.77154331937606
 30
0.0
  0
VERTEX
  5
6AC
  8
DEFAULT
 10
-75.82873263928357
 20
21.87194105628936
 30
0.0
  0
VERTEX
  5
6AD
  8
DEFAULT
 10
-75.7666614017676
 20
21.97110260375792
 30
0.0
  0
VERTEX
  5
6AE
  8
DEFAULT
 10
-75.70289368929073
 20
22.06897973922173
 30
0.0
  0
VERTEX
  5
6AF
  8
DEFAULT
 10
-75.63743952462784
 20
22.16552424012077
 30
0.0
  0
VERTEX
  5
6B0
  8
DEFAULT
 10
-75.57030893055384
 20
22.26068788389502
 30
0.0
  0
VERTEX
  5
6B1
  8
DEFAULT
 10
-75.50151192984367
 20
22.35442244798446
 30
0.0
  0
VERTEX
  5
6B2
  8
DEFAULT
 10
-75.43105854527225
 20
22.44667970982908
 30
0.0
  0
VERTEX
  5
6B3
  8
DEFAULT
 10
-75.35895879961448
 20
22.53741144686886
 30
0.0
  0
VERTEX
  5
6B4
  8
DEFAULT
 10
-75.28522271564528
 20
22.62656943654378
 30
0.0
  0
VERTEX
  5
6B5
  8
DEFAULT
 10
-75.20986031613955
 20
22.71410545629383
 30
0.0
  0
VERTEX
  5
6B6
  8
DEFAULT
 10
-75.13288162387225
 20
22.79997128355899
 30
0.0
  0
VERTEX
  5
6B7
  8
DEFAULT
 10
-75.05429666161827
 20
22.88411869577925
 30
0.0
  0
VERTEX
  5
6B8
  8
DEFAULT
 10
-74.97411545215252
 20
22.96649947039458
 30
0.0
  0
VERTEX
  5
6B9
  8
DEFAULT
 10
-74.89234801824995
 20
23.04706538484498
 30
0.0
  0
VERTEX
  5
6BA
  8
DEFAULT
 10
-74.80900438268543
 20
23.12576821657043
 30
0.0
  0
VERTEX
  5
6BB
  8
DEFAULT
 10
-74.72409456823391
 20
23.2025597430109
 30
0.0
  0
VERTEX
  5
6BC
  8
DEFAULT
 10
-74.63762859767027
 20
23.27739174160638
 30
0.0
  0
VERTEX
  5
6BD
  8
DEFAULT
 10
-74.54961649376946
 20
23.35021598979686
 30
0.0
  0
VERTEX
  5
6BE
  8
DEFAULT
 10
-74.4600682793064
 20
23.42098426502231
 30
0.0
  0
VERTEX
  5
6BF
  8
DEFAULT
 10
-74.36899397705598
 20
23.48964834472273
 30
0.0
  0
VERTEX
  5
6C0
  8
DEFAULT
 10
-74.27640360979314
 20
23.5561600063381
 30
0.0
  0
VERTEX
  5
6C1
  8
DEFAULT
 10
-74.18230720029277
 20
23.62047102730839
 30
0.0
  0
VERTEX
  5
6C2
  8
DEFAULT
 10
-74.08671477132982
 20
23.68253318507359
 30
0.0
  0
VERTEX
  5
6C3
  8
DEFAULT
 10
-73.9896363456792
 20
23.7422982570737
 30
0.0
  0
VERTEX
  5
6C4
  8
DEFAULT
 10
-73.89108194611579
 20
23.79971802074868
 30
0.0
  0
VERTEX
  5
6C5
  8
DEFAULT
 10
-73.79106473504089
 20
23.85475960703029
 30
0.0
  0
VERTEX
  5
6C6
  8
DEFAULT
 10
-73.68961043336125
 20
23.90745156081733
 30
0.0
  0
VERTEX
  5
6C7
  8
DEFAULT
 10
-73.5867479016099
 20
23.95783778050038
 30
0.0
  0
VERTEX
  5
6C8
  8
DEFAULT
 10
-73.48250600031992
 20
24.00596216447002
 30
0.0
  0
VERTEX
  5
6C9
  8
DEFAULT
 10
-73.37691359002442
 20
24.05186861111681
 30
0.0
  0
VERTEX
  5
6CA
  8
DEFAULT
 10
-73.26999953125645
 20
24.09560101883132
 30
0.0
  0
VERTEX
  5
6CB
  8
DEFAULT
 10
-73.16179268454908
 20
24.13720328600414
 30
0.0
  0
VERTEX
  5
6CC
  8
DEFAULT
 10
-73.05232191043544
 20
24.17671931102583
 30
0.0
  0
VERTEX
  5
6CD
  8
DEFAULT
 10
-72.94161606944854
 20
24.21419299228696
 30
0.0
  0
VERTEX
  5
6CE
  8
DEFAULT
 10
-72.82970402212149
 20
24.24966822817812
 30
0.0
  0
VERTEX
  5
6CF
  8
DEFAULT
 10
-72.71661462898737
 20
24.28318891708987
 30
0.0
  0
VERTEX
  5
6D0
  8
DEFAULT
 10
-72.60237675057925
 20
24.31479895741277
 30
0.0
  0
VERTEX
  5
6D1
  8
DEFAULT
 10
-72.37057098007334
 20
24.37246268585438
 30
0.0
  0
VERTEX
  5
6D2
  8
DEFAULT
 10
-72.13451759486834
 20
24.42301060062752
 30
0.0
  0
VERTEX
  5
6D3
  8
DEFAULT
 10
-71.8944474792289
 20
24.46679388885678
 30
0.0
  0
VERTEX
  5
6D4
  8
DEFAULT
 10
-71.65059151741963
 20
24.50416373766674
 30
0.0
  0
VERTEX
  5
6D5
  8
DEFAULT
 10
-71.40318059370514
 20
24.53547133418199
 30
0.0
  0
VERTEX
  5
6D6
  8
DEFAULT
 10
-71.15244559235006
 20
24.56106786552711
 30
0.0
  0
VERTEX
  5
6D7
  8
DEFAULT
 10
-70.89861739761899
 20
24.58130451882668
 30
0.0
  0
VERTEX
  5
6D8
  8
DEFAULT
 10
-70.64192689377657
 20
24.59653248120528
 30
0.0
  0
VERTEX
  5
6D9
  8
DEFAULT
 10
-70.12088249581612
 20
24.61336708169792
 30
0.0
  0
VERTEX
  5
6DA
  8
DEFAULT
 10
-69.59115947258563
 20
24.61438116400171
 30
0.0
  0
VERTEX
  5
6DB
  8
DEFAULT
 10
-69.05460489820206
 20
24.6023842251133
 30
0.0
  0
VERTEX
  5
6DC
  8
DEFAULT
 10
-64.73477332413457
 20
24.37065326287465
 30
0.0
  0
VERTEX
  5
6DD
  8
DEFAULT
 10
-63.69481589450726
 20
24.34891138742508
 30
0.0
  0
VERTEX
  5
6DE
  8
DEFAULT
 10
-41.41785208310316
 20
24.24595034874179
 30
0.0
  0
VERTEX
  5
6DF
  8
DEFAULT
 10
-25.18098105439749
 20
23.59885362090434
 30
0.0
  0
VERTEX
  5
6E0
  8
DEFAULT
 10
-23.09005556017323
 20
23.51581746754142
 30
0.0
  0
VERTEX
  5
6E1
  8
DEFAULT
 10
-22.04738104507281
 20
23.45119082319727
 30
0.0
  0
VERTEX
  5
6E2
  8
DEFAULT
 10
-21.53015278445406
 20
23.40683460303921
 30
0.0
  0
VERTEX
  5
6E3
  8
DEFAULT
 10
-21.01696364138142
 20
23.35206282953038
 30
0.0
  0
VERTEX
  5
6E4
  8
DEFAULT
 10
-20.50878845554876
 20
23.28508528665066
 30
0.0
  0
VERTEX
  5
6E5
  8
DEFAULT
 10
-20.00660206664995
 20
23.20411175837999
 30
0.0
  0
VERTEX
  5
6E6
  8
DEFAULT
 10
-19.75805930845507
 20
23.15781705721676
 30
0.0
  0
VERTEX
  5
6E7
  8
DEFAULT
 10
-19.51137931437885
 20
23.10735202869827
 30
0.0
  0
VERTEX
  5
6E8
  8
DEFAULT
 10
-19.26668393938302
 20
23.05249289582198
 30
0.0
  0
VERTEX
  5
6E9
  8
DEFAULT
 10
-19.02409503842932
 20
22.9930158815854
 30
0.0
  0
VERTEX
  5
6EA
  8
DEFAULT
 10
-18.78373446647947
 20
22.928697208986
 30
0.0
  0
VERTEX
  5
6EB
  8
DEFAULT
 10
-18.54572407849522
 20
22.85931310102129
 30
0.0
  0
VERTEX
  5
6EC
  8
DEFAULT
 10
-18.31018572943828
 20
22.78463978068875
 30
0.0
  0
VERTEX
  5
6ED
  8
DEFAULT
 10
-18.07724127427041
 20
22.70445347098586
 30
0.0
  0
VERTEX
  5
6EE
  8
DEFAULT
 10
-17.84701256795332
 20
22.61853039491012
 30
0.0
  0
VERTEX
  5
6EF
  8
DEFAULT
 10
-17.61962146544877
 20
22.52664677545901
 30
0.0
  0
VERTEX
  5
6F0
  8
DEFAULT
 10
-17.39518982171846
 20
22.42857883563003
 30
0.0
  0
VERTEX
  5
6F1
  8
DEFAULT
 10
-17.17383949172415
 20
22.32410279842066
 30
0.0
  0
VERTEX
  5
6F2
  8
DEFAULT
 10
-16.95564178874679
 20
22.21309217114307
 30
0.0
  0
VERTEX
  5
6F3
  8
DEFAULT
 10
-16.74046585934438
 20
22.09580959836813
 30
0.0
  0
VERTEX
  5
6F4
  8
DEFAULT
 10
-16.52813030839409
 20
21.97261500898141
 30
0.0
  0
VERTEX
  5
6F5
  8
DEFAULT
 10
-16.31845374077316
 20
21.84386833186847
 30
0.0
  0
VERTEX
  5
6F6
  8
DEFAULT
 10
-16.11125476135878
 20
21.70992949591486
 30
0.0
  0
VERTEX
  5
6F7
  8
DEFAULT
 10
-15.90635197502817
 20
21.57115843000614
 30
0.0
  0
VERTEX
  5
6F8
  8
DEFAULT
 10
-15.70356398665853
 20
21.42791506302787
 30
0.0
  0
VERTEX
  5
6F9
  8
DEFAULT
 10
-15.50270940112707
 20
21.28055932386561
 30
0.0
  0
VERTEX
  5
6FA
  8
DEFAULT
 10
-15.10607485808754
 20
20.97495044453134
 30
0.0
  0
VERTEX
  5
6FB
  8
DEFAULT
 10
-14.71499718492723
 20
20.65721122308778
 30
0.0
  0
VERTEX
  5
6FC
  8
DEFAULT
 10
-12.40396039841871
 20
18.65728685086177
 30
0.0
  0
VERTEX
  5
6FD
  8
DEFAULT
 10
-12.01114830690775
 20
18.33525930501832
 30
0.0
  0
VERTEX
  5
6FE
  8
DEFAULT
 10
-11.61228379741738
 20
18.02413686574131
 30
0.0
  0
VERTEX
  5
6FF
  8
DEFAULT
 10
-11.20591570896525
 20
17.72679896411521
 30
0.0
  0
VERTEX
  5
700
  8
DEFAULT
 10
-10.99946433482156
 20
17.58419903713515
 30
0.0
  0
SEQEND
  5
701
  8
DEFAULT
  0
POLYLINE
  5
702
  8
DEFAULT
 66
     1
 10
0.0
 20
0.0
 30
0.0
 70
     1
  0
VERTEX
  5
703
  8
DEFAULT
 10
71.16926875413594
 20
12.80484400919855
 30
0.0
  0
VERTEX
  5
704
  8
DEFAULT
 10
68.24954548472596
 20
12.80484400919855
 30
0.0
  0
VERTEX
  5
705
  8
DEFAULT
 10
68.24954548472596
 20
21.44052665759001
 30
0.0
  0
VERTEX
  5
706
  8
DEFAULT
 10
71.16926875413594
 20
21.44052665759001
 30
0.0
  0
SEQEND
  5
707
  8
DEFAULT
  0
POLYLINE
  5
708
  8
DEFAULT
 66
     1
 10
0.0
 20
0.0
 30
0.0
 70
     1
  0
VERTEX
  5
709
  8
DEFAULT
 10
-71.75045451527404
 20
12.80484400919855
 30
0.0
  0
VERTEX
  5
70A
  8
DEFAULT
 10
-68.83073124586406
 20
12.80484400919855
 30
0.0
  0
VERTEX
  5
70B
  8
DEFAULT
 10
-68.83073124586406
 20
21.44052665759001
 30
0.0
  0
VERTEX
  5
70C
  8
DEFAULT
 10
-71.75045451527404
 20
21.44052665759001
 30
0.0
  0
SEQEND
  5
70D
  8
DEFAULT
  0
ENDSEC
  0
EOF
