  0
SECTION
  2
HEADER
  9
$ACADVER
  1
AC1009
  9
$DWGCODEPAGE
  3
ansi_1252
  9
$INSBASE
 10
0.0
 20
0.0
 30
0.0
  9
$EXTMIN
 10
-101.030837736375
 20
-24.1685653786951
 30
0.0
  9
$EXTMAX
 10
76.54433672726205
 20
38.67850607894893
 30
0.0
  9
$LIMMIN
 10
0.0
 20
0.0
  9
$LIMMAX
 10
12.0
 20
9.0
  9
$ORTHOMODE
 70
     0
  9
$REGENMODE
 70
     1
  9
$FILLMODE
 70
     1
  9
$QTEXTMODE
 70
     0
  9
$MIRRTEXT
 70
     1
  9
$DRAGMODE
 70
     2
  9
$LTSCALE
 40
1.0
  9
$OSMODE
 70
    37
  9
$ATTMODE
 70
     1
  9
$TEXTSIZE
 40
0.2
  9
$TRACEWID
 40
0.05
  9
$TEXTSTYLE
  7
STANDARD
  9
$CLAYER
  8
DEFAULT
  9
$CELTYPE
  6
BYLAYER
  9
$CECOLOR
 62
   256
  9
$DIMSCALE
 40
1.0
  9
$DIMASZ
 40
0.18
  9
$DIMEXO
 40
0.0625
  9
$DIMDLI
 40
0.38
  9
$DIMRND
 40
0.0
  9
$DIMDLE
 40
0.0
  9
$DIMEXE
 40
0.18
  9
$DIMTP
 40
0.0
  9
$DIMTM
 40
0.0
  9
$DIMTXT
 40
0.18
  9
$DIMCEN
 40
0.09
  9
$DIMTSZ
 40
0.0
  9
$DIMTOL
 70
     0
  9
$DIMLIM
 70
     0
  9
$DIMTIH
 70
     1
  9
$DIMTOH
 70
     1
  9
$DIMSE1
 70
     0
  9
$DIMSE2
 70
     0
  9
$DIMTAD
 70
     0
  9
$DIMZIN
 70
     0
  9
$DIMBLK
  1

  9
$DIMASO
 70
     1
  9
$DIMSHO
 70
     1
  9
$DIMPOST
  1

  9
$DIMAPOST
  1

  9
$DIMALT
 70
     0
  9
$DIMALTD
 70
     2
  9
$DIMALTF
 40
25.4
  9
$DIMLFAC
 40
1.0
  9
$DIMTOFL
 70
     0
  9
$DIMTVP
 40
0.0
  9
$DIMTIX
 70
     0
  9
$DIMSOXD
 70
     0
  9
$DIMSAH
 70
     0
  9
$DIMBLK1
  1

  9
$DIMBLK2
  1

  9
$DIMSTYLE
  2
STANDARD_ACAD
  9
$DIMCLRD
 70
     0
  9
$DIMCLRE
 70
     0
  9
$DIMCLRT
 70
     0
  9
$DIMTFAC
 40
1.0
  9
$DIMGAP
 40
0.09
  9
$LUNITS
 70
     2
  9
$LUPREC
 70
     3
  9
$SKETCHINC
 40
0.1
  9
$FILLETRAD
 40
0.0
  9
$AUNITS
 70
     0
  9
$AUPREC
 70
     0
  9
$MENU
  1
.
  9
$ELEVATION
 40
0.0
  9
$PELEVATION
 40
0.0
  9
$THICKNESS
 40
0.0
  9
$LIMCHECK
 70
     0
  9
$CHAMFERA
 40
0.0
  9
$CHAMFERB
 40
0.0
  9
$SKPOLY
 70
     0
  9
$TDCREATE
 40
2460724.733898681
  9
$TDUPDATE
 40
2460724.733914283
  9
$TDINDWG
 40
0.0000000116
  9
$TDUSRTIMER
 40
0.0000000116
  9
$USRTIMER
 70
     1
  9
$ANGBASE
 50
0.0
  9
$ANGDIR
 70
     0
  9
$PDMODE
 70
     0
  9
$PDSIZE
 40
0.0
  9
$PLINEWID
 40
0.0
  9
$COORDS
 70
     1
  9
$SPLFRAME
 70
     0
  9
$SPLINETYPE
 70
     6
  9
$SPLINESEGS
 70
     8
  9
$ATTDIA
 70
     0
  9
$ATTREQ
 70
     1
  9
$HANDLING
 70
     1
  9
$HANDSEED
  5
672
  9
$SURFTAB1
 70
     6
  9
$SURFTAB2
 70
     6
  9
$SURFTYPE
 70
     6
  9
$SURFU
 70
     6
  9
$SURFV
 70
     6
  9
$UCSNAME
  2

  9
$UCSORG
 10
0.0
 20
0.0
 30
0.0
  9
$UCSXDIR
 10
1.0
 20
0.0
 30
0.0
  9
$UCSYDIR
 10
0.0
 20
1.0
 30
0.0
  9
$PUCSNAME
  2

  9
$PUCSORG
 10
0.0
 20
0.0
 30
0.0
  9
$PUCSXDIR
 10
1.0
 20
0.0
 30
0.0
  9
$PUCSYDIR
 10
0.0
 20
1.0
 30
0.0
  9
$USERI1
 70
     0
  9
$USERI2
 70
     0
  9
$USERI3
 70
     0
  9
$USERI4
 70
     0
  9
$USERI5
 70
     0
  9
$USERR1
 40
0.0
  9
$USERR2
 40
0.0
  9
$USERR3
 40
0.0
  9
$USERR4
 40
0.0
  9
$USERR5
 40
0.0
  9
$WORLDVIEW
 70
     1
  9
$SHADEDGE
 70
     3
  9
$SHADEDIF
 70
    70
  9
$TILEMODE
 70
     1
  9
$MAXACTVP
 70
    64
  9
$PLIMCHECK
 70
     0
  9
$PEXTMIN
 10
1.000000000000000E+20
 20
1.000000000000000E+20
 30
1.000000000000000E+20
  9
$PEXTMAX
 10
-1.000000000000000E+20
 20
-1.000000000000000E+20
 30
-1.000000000000000E+20
  9
$PLIMMIN
 10
0.0
 20
0.0
  9
$PLIMMAX
 10
12.0
 20
9.0
  9
$UNITMODE
 70
     0
  9
$VISRETAIN
 70
     1
  9
$PLINEGEN
 70
     0
  9
$PSLTSCALE
 70
     1
  0
ENDSEC
  0
SECTION
  2
TABLES
  0
TABLE
  2
VPORT
 70
     1
  0
VPORT
  2
*ACTIVE
 70
     0
 10
0.0
 20
0.0
 11
1.0
 21
1.0
 12
10.42990654205607
 22
4.5
 13
0.0
 23
0.0
 14
0.5
 24
0.5
 15
0.5
 25
0.5
 16
0.0
 26
0.0
 36
1.0
 17
0.0
 27
0.0
 37
0.0
 40
9.0
 41
1.972972972850329
 42
50.0
 43
0.0
 44
0.0
 50
0.0
 51
0.0
 71
     0
 72
   100
 73
     1
 74
     3
 75
     0
 76
     0
 77
     0
 78
     0
  0
ENDTAB
  0
TABLE
  2
LTYPE
 70
     1
  0
LTYPE
  2
CONTINUOUS
 70
     0
  3
Solid line
 72
    65
 73
     0
 40
0.0
  0
ENDTAB
  0
TABLE
  2
LAYER
 70
     2
  0
LAYER
  2
0
 70
     0
 62
     7
  6
CONTINUOUS
  0
LAYER
  2
DEFAULT
 70
     0
 62
     7
  6
CONTINUOUS
  0
ENDTAB
  0
TABLE
  2
STYLE
 70
     1
  0
STYLE
  2
STANDARD
 70
     0
 40
0.0
 41
1.0
 50
0.0
 71
     0
 42
0.2
  3
txt
  4

  0
ENDTAB
  0
TABLE
  2
VIEW
 70
     0
  0
ENDTAB
  0
TABLE
  2
UCS
 70
     0
  0
ENDTAB
  0
TABLE
  2
APPID
 70
     2
  0
APPID
  2
ACAD
 70
     0
  0
APPID
  2
RHINO
 70
     0
  0
ENDTAB
  0
TABLE
  2
DIMSTYLE
 70
     1
  0
DIMSTYLE
  2
STANDARD_ACAD
 70
     0
  3

  4

  5

  6

  7

 40
1.0
 41
0.18
 42
0.0625
 43
0.38
 44
0.18
 45
0.0
 46
0.0
 47
0.0
 48
0.0
140
0.18
141
0.09
142
0.0
143
25.4
144
1.0
145
0.0
146
1.0
147
0.09
 71
     0
 72
     0
 73
     1
 74
     1
 75
     0
 76
     0
 77
     0
 78
     0
170
     0
171
     2
172
     0
173
     0
174
     0
175
     0
176
     0
177
     0
178
     0
  0
ENDTAB
  0
ENDSEC
  0
SECTION
  2
BLOCKS
  0
BLOCK
  8
0
  2
$MODEL_SPACE
 70
     0
 10
0.0
 20
0.0
 30
0.0
  3
$MODEL_SPACE
  1

  0
ENDBLK
  5
21
  8
0
  0
BLOCK
 67
     1
  8
0
  2
$PAPER_SPACE
 70
     0
 10
0.0
 20
0.0
 30
0.0
  3
$PAPER_SPACE
  1

  0
ENDBLK
  5
1D
 67
     1
  8
0
  0
ENDSEC
  0
SECTION
  2
ENTITIES
  0
POLYLINE
  5
60
  8
DEFAULT
 66
     1
 10
0.0
 20
0.0
 30
0.0
 70
     1
  0
VERTEX
  5
61
  8
DEFAULT
 10
35.54013836529501
 20
29.36431735160854
 30
0.0
 42
0.2134217652834141
  0
VERTEX
  5
62
  8
DEFAULT
 10
35.91281636154496
 20
29.53098401827522
 30
0.0
 42
-1.057279696267497
  0
VERTEX
  5
63
  8
DEFAULT
 10
36.26582202633657
 20
29.17797835348354
 30
0.0
  0
VERTEX
  5
64
  8
DEFAULT
 10
36.11749736523458
 20
28.93948521627694
 30
0.0
 42
0.4962263674883561
  0
VERTEX
  5
65
  8
DEFAULT
 10
36.31016056300874
 20
28.68581127265962
 30
0.0
  0
VERTEX
  5
66
  8
DEFAULT
 10
38.09915535966994
 20
28.68581127265962
 30
0.0
  0
VERTEX
  5
67
  8
DEFAULT
 10
38.09915535966994
 20
30.67850607894904
 30
0.0
 42
0.4142135623730729
  0
VERTEX
  5
68
  8
DEFAULT
 10
37.09915535966991
 20
31.67850607894893
 30
0.0
  0
VERTEX
  5
69
  8
DEFAULT
 10
18.10252381171577
 20
32.18619248271422
 30
0.0
 42
-0.4019405198271819
  0
VERTEX
  5
6A
  8
DEFAULT
 10
17.10252381171576
 20
32.93281202915552
 30
0.0
  0
VERTEX
  5
6B
  8
DEFAULT
 10
17.10252381171577
 20
34.43150532245302
 30
0.0
 42
-0.4019405198271832
  0
VERTEX
  5
6C
  8
DEFAULT
 10
18.10252381171578
 20
35.17812486889432
 30
0.0
  0
VERTEX
  5
6D
  8
DEFAULT
 10
37.09915535966994
 20
35.68581127265962
 30
0.0
 42
0.4142135623730883
  0
VERTEX
  5
6E
  8
DEFAULT
 10
38.09915535966996
 20
36.68581127265962
 30
0.0
  0
VERTEX
  5
6F
  8
DEFAULT
 10
38.09915535966994
 20
38.67850607894893
 30
0.0
  0
VERTEX
  5
70
  8
DEFAULT
 10
36.31016056301033
 20
38.67850607894893
 30
0.0
 42
0.4962263674862534
  0
VERTEX
  5
71
  8
DEFAULT
 10
36.11749736523586
 20
38.42483213533284
 30
0.0
  0
VERTEX
  5
72
  8
DEFAULT
 10
36.2658220263373
 20
38.18633899812433
 30
0.0
 42
-1.057279696265572
  0
VERTEX
  5
73
  8
DEFAULT
 10
35.91281636154491
 20
37.83333333333332
 30
0.0
 42
0.2134217652836741
  0
VERTEX
  5
74
  8
DEFAULT
 10
35.540138365295
 20
38.0
 30
0.0
  0
VERTEX
  5
75
  8
DEFAULT
 10
34.15817235404489
 20
38.0
 30
0.0
 42
0.2134217652833998
  0
VERTEX
  5
76
  8
DEFAULT
 10
33.78549435779495
 20
37.83333333333341
 30
0.0
 42
-1.057279696267155
  0
VERTEX
  5
77
  8
DEFAULT
 10
33.43248869300328
 20
38.18633899812505
 30
0.0
  0
VERTEX
  5
78
  8
DEFAULT
 10
33.58081335410529
 20
38.42483213533141
 30
0.0
 42
0.4962263674884099
  0
VERTEX
  5
79
  8
DEFAULT
 10
33.38815015633114
 20
38.67850607894893
 30
0.0
  0
VERTEX
  5
7A
  8
DEFAULT
 10
-76.10053319442906
 20
38.67850607894893
 30
0.0
  0
VERTEX
  5
7B
  8
DEFAULT
 10
-76.31166295543298
 20
38.67605614624462
 30
0.0
  0
VERTEX
  5
7C
  8
DEFAULT
 10
-76.52429249445046
 20
38.66865231564323
 30
0.0
  0
VERTEX
  5
7D
  8
DEFAULT
 10
-76.73833081906619
 20
38.65621624216094
 30
0.0
  0
VERTEX
  5
7E
  8
DEFAULT
 10
-76.95368339779836
 20
38.63867337934882
 30
0.0
  0
VERTEX
  5
7F
  8
DEFAULT
 10
-77.17025223782409
 20
38.61595321904652
 30
0.0
  0
VERTEX
  5
80
  8
DEFAULT
 10
-77.38793597477778
 20
38.58798952765672
 30
0.0
  0
VERTEX
  5
81
  8
DEFAULT
 10
-77.60662997472386
 20
38.55472057789204
 30
0.0
  0
VERTEX
  5
82
  8
DEFAULT
 10
-77.82622644833768
 20
38.51608937492402
 30
0.0
  0
VERTEX
  5
83
  8
DEFAULT
 10
-78.04661457727249
 20
38.47204387585533
 30
0.0
  0
VERTEX
  5
84
  8
DEFAULT
 10
-78.26768065262061
 20
38.42253720142152
 30
0.0
  0
VERTEX
  5
85
  8
DEFAULT
 10
-78.48930822531278
 20
38.36752783883453
 30
0.0
  0
VERTEX
  5
86
  8
DEFAULT
 10
-78.71137826822948
 20
38.30697983468623
 30
0.0
  0
VERTEX
  5
87
  8
DEFAULT
 10
-78.93376934972687
 20
38.24086297684273
 30
0.0
  0
VERTEX
  5
88
  8
DEFAULT
 10
-79.15635781821138
 20
38.16915296428674
 30
0.0
  0
VERTEX
  5
89
  8
DEFAULT
 10
-79.37901799732279
 20
38.09183156389322
 30
0.0
  0
VERTEX
  5
8A
  8
DEFAULT
 10
-79.60162239121988
 20
38.00888675316604
 30
0.0
  0
VERTEX
  5
8B
  8
DEFAULT
 10
-79.8240418993872
 20
37.92031284800534
 30
0.0
  0
VERTEX
  5
8C
  8
DEFAULT
 10
-80.04614604031988
 20
37.82611061463713
 30
0.0
  0
VERTEX
  5
8D
  8
DEFAULT
 10
-80.26780318337407
 20
37.72628736489342
 30
0.0
  0
VERTEX
  5
8E
  8
DEFAULT
 10
-80.4888807880113
 20
37.62085703410513
 30
0.0
  0
VERTEX
  5
8F
  8
DEFAULT
 10
-80.70924564960487
 20
37.50984024094701
 30
0.0
  0
VERTEX
  5
90
  8
DEFAULT
 10
-80.92876415092391
 20
37.39326432865592
 30
0.0
  0
VERTEX
  5
91
  8
DEFAULT
 10
-81.14730251836008
 20
37.27116338713712
 30
0.0
  0
VERTEX
  5
92
  8
DEFAULT
 10
-81.36472708192068
 20
37.14357825556483
 30
0.0
  0
VERTEX
  5
93
  8
DEFAULT
 10
-81.58090453797169
 20
37.01055650518724
 30
0.0
  0
VERTEX
  5
94
  8
DEFAULT
 10
-81.79570221368598
 20
36.87215240214802
 30
0.0
  0
VERTEX
  5
95
  8
DEFAULT
 10
-82.00898833212577
 20
36.72842685024482
 30
0.0
  0
VERTEX
  5
96
  8
DEFAULT
 10
-82.2206322768715
 20
36.57944731365173
 30
0.0
  0
VERTEX
  5
97
  8
DEFAULT
 10
-82.43050485510227
 20
36.42528771974933
 30
0.0
  0
VERTEX
  5
98
  8
DEFAULT
 10
-82.63847855802746
 20
36.26602834230953
 30
0.0
  0
VERTEX
  5
99
  8
DEFAULT
 10
-82.84442781757852
 20
36.10175566539802
 30
0.0
  0
VERTEX
  5
9A
  8
DEFAULT
 10
-83.04822925828049
 20
35.93256222846323
 30
0.0
  0
VERTEX
  5
9B
  8
DEFAULT
 10
-83.24976194324822
 20
35.75854645318732
 30
0.0
  0
VERTEX
  5
9C
  8
DEFAULT
 10
-83.4489076132759
 20
35.57981245277664
 30
0.0
  0
VERTEX
  5
9D
  8
DEFAULT
 10
-83.6455509180316
 20
35.39646982446673
 30
0.0
  0
VERTEX
  5
9E
  8
DEFAULT
 10
-83.8395796384045
 20
35.20863342611064
 30
0.0
  0
VERTEX
  5
9F
  8
DEFAULT
 10
-84.03088489911008
 20
35.01642313780222
 30
0.0
  0
VERTEX
  5
A0
  8
DEFAULT
 10
-84.21936137070847
 20
34.81996360956963
 30
0.0
  0
VERTEX
  5
A1
  8
DEFAULT
 10
-84.40490746025782
 20
34.61938399624232
 30
0.0
  0
VERTEX
  5
A2
  8
DEFAULT
 10
-84.5874254898878
 20
34.41481768065974
 30
0.0
  0
VERTEX
  5
A3
  8
DEFAULT
 10
-84.7668218626541
 20
34.20640198644314
 30
0.0
  0
VERTEX
  5
A4
  8
DEFAULT
 10
-84.94300721510692
 20
33.99427788160004
 30
0.0
  0
VERTEX
  5
A5
  8
DEFAULT
 10
-85.285409391331
 20
33.55948470190494
 30
0.0
  0
VERTEX
  5
A6
  8
DEFAULT
 10
-85.6140066980357
 20
33.11162705893763
 30
0.0
  0
VERTEX
  5
A7
  8
DEFAULT
 10
-85.92824893365938
 20
32.65193214690264
 30
0.0
  0
VERTEX
  5
A8
  8
DEFAULT
 10
-86.22766335032557
 20
32.18165512662414
 30
0.0
  0
VERTEX
  5
A9
  8
DEFAULT
 10
-86.51185603443159
 20
31.70206882557223
 30
0.0
  0
VERTEX
  5
AA
  8
DEFAULT
 10
-86.78051234895699
 20
31.21445361024904
 30
0.0
  0
VERTEX
  5
AB
  8
DEFAULT
 10
-87.03339647215839
 20
30.72008758172542
 30
0.0
  0
VERTEX
  5
AC
  8
DEFAULT
 10
-87.27035008415177
 20
30.22023723042703
 30
0.0
  0
VERTEX
  5
AD
  8
DEFAULT
 10
-87.491290267305
 20
29.71614866891612
 30
0.0
  0
VERTEX
  5
AE
  8
DEFAULT
 10
-87.69620669808748
 20
29.20903954215463
 30
0.0
  0
VERTEX
  5
AF
  8
DEFAULT
 10
-87.88515821688159
 20
28.70009169434213
 30
0.0
  0
VERTEX
  5
B0
  8
DEFAULT
 10
-96.29353165975087
 20
9.298543688457741
 30
0.0
  0
VERTEX
  5
B1
  8
DEFAULT
 10
-97.67246926725718
 20
6.340800576217831
 30
0.0
  0
VERTEX
  5
B2
  8
DEFAULT
 10
-98.245331356207
 20
5.16473645651682
 30
0.0
  0
VERTEX
  5
B3
  8
DEFAULT
 10
-98.73925260839329
 20
4.193116947550337
 30
0.0
  0
VERTEX
  5
B4
  8
DEFAULT
 10
-99.15359066649799
 20
3.427197863167535
 30
0.0
  0
VERTEX
  5
B5
  8
DEFAULT
 10
-99.3307730576806
 20
3.121619106217125
 30
0.0
  0
VERTEX
  5
B6
  8
DEFAULT
 10
-99.4879147165764
 20
2.86768867916912
 30
0.0
  0
VERTEX
  5
B7
  8
DEFAULT
 10
-99.55896332217011
 20
2.760093871523836
 30
0.0
  0
VERTEX
  5
B8
  8
DEFAULT
 10
-99.6249950710812
 20
2.665409609239234
 30
0.0
  0
VERTEX
  5
B9
  8
DEFAULT
 10
-99.6561294384164
 20
2.622907465766829
 30
0.0
  0
VERTEX
  5
BA
  8
DEFAULT
 10
-99.68600947238676
 20
2.583630932328234
 30
0.0
  0
VERTEX
  5
BB
  8
DEFAULT
 10
-99.71463524135388
 20
2.547579056593619
 30
0.0
  0
VERTEX
  5
BC
  8
DEFAULT
 10
-99.74200686547735
 20
2.514750753638239
 30
0.0
  0
VERTEX
  5
BD
  8
DEFAULT
 10
-99.76812451665896
 20
2.485144806142742
 30
0.0
  0
VERTEX
  5
BE
  8
DEFAULT
 10
-99.7807131702485
 20
2.471549799130528
 30
0.0
  0
VERTEX
  5
BF
  8
DEFAULT
 10
-99.79298841847876
 20
2.458759864606137
 30
0.0
  0
VERTEX
  5
C0
  8
DEFAULT
 10
-99.80495029736116
 20
2.446774813265719
 30
0.0
  0
VERTEX
  5
C1
  8
DEFAULT
 10
-99.81659884612802
 20
2.435594447573621
 30
0.0
  0
VERTEX
  5
C2
  8
DEFAULT
 10
-99.82793410723039
 20
2.425218561769341
 30
0.0
  0
VERTEX
  5
C3
  8
DEFAULT
 10
-99.83895612633566
 20
2.415646941876318
 30
0.0
  0
VERTEX
  5
C4
  8
DEFAULT
 10
-99.84966495232518
 20
2.406879365709628
 30
0.0
  0
VERTEX
  5
C5
  8
DEFAULT
 10
-99.8600606372909
 20
2.398915602884941
 30
0.0
  0
VERTEX
  5
C6
  8
DEFAULT
 10
-99.87014323653315
 20
2.391755414826534
 30
0.0
  0
VERTEX
  5
C7
  8
DEFAULT
 10
-99.87991280855826
 20
2.385398554776728
 30
0.0
  0
VERTEX
  5
C8
  8
DEFAULT
 10
-99.8893694150747
 20
2.379844767804641
 30
0.0
  0
VERTEX
  5
C9
  8
DEFAULT
 10
-99.8985131209906
 20
2.375093790815541
 30
0.0
  0
VERTEX
  5
CA
  8
DEFAULT
 10
-99.90734399441098
 20
2.37114535256022
 30
0.0
  0
VERTEX
  5
CB
  8
DEFAULT
 10
-99.91586210663408
 20
2.367999173644918
 30
0.0
  0
VERTEX
  5
CC
  8
DEFAULT
 10
-100.0103120418521
 20
2.291747715225128
 30
0.0
  0
VERTEX
  5
CD
  8
DEFAULT
 10
-100.1013138935621
 20
2.214732771897516
 30
0.0
  0
VERTEX
  5
CE
  8
DEFAULT
 10
-100.188725833508
 20
2.137026048351615
 30
0.0
  0
VERTEX
  5
CF
  8
DEFAULT
 10
-100.2724112899024
 20
2.058701931512829
 30
0.0
  0
VERTEX
  5
D0
  8
DEFAULT
 10
-100.3522395403523
 20
1.979837279880414
 30
0.0
  0
VERTEX
  5
D1
  8
DEFAULT
 10
-100.4280862872513
 20
1.900511194713019
 30
0.0
  0
VERTEX
  5
D2
  8
DEFAULT
 10
-100.4998342108546
 20
1.820804774309138
 30
0.0
  0
VERTEX
  5
D3
  8
DEFAULT
 10
-100.5673734953423
 20
1.740800852836614
 30
0.0
  0
VERTEX
  5
D4
  8
DEFAULT
 10
-100.6306023233263
 20
1.660583725360638
 30
0.0
  0
VERTEX
  5
D5
  8
DEFAULT
 10
-100.6605707989333
 20
1.62042188064062
 30
0.0
  0
VERTEX
  5
D6
  8
DEFAULT
 10
-100.6894273344737
 20
1.580238860892436
 30
0.0
  0
VERTEX
  5
D7
  8
DEFAULT
 10
-100.717161650022
 20
1.540045484447134
 30
0.0
  0
VERTEX
  5
D8
  8
DEFAULT
 10
-100.7437640441944
 20
1.499852605440239
 30
0.0
  0
VERTEX
  5
D9
  8
DEFAULT
 10
-100.7692254047905
 20
1.459671104135523
 30
0.0
  0
VERTEX
  5
DA
  8
DEFAULT
 10
-100.7935372186775
 20
1.419511877178238
 30
0.0
  0
VERTEX
  5
DB
  8
DEFAULT
 10
-100.8166915808931
 20
1.37938582779482
 30
0.0
  0
VERTEX
  5
DC
  8
DEFAULT
 10
-100.8386812029482
 20
1.33930385596004
 30
0.0
  0
VERTEX
  5
DD
  8
DEFAULT
 10
-100.859499420311
 20
1.299276848546825
 30
0.0
  0
VERTEX
  5
DE
  8
DEFAULT
 10
-100.8791401990573
 20
1.259315669481325
 30
0.0
  0
VERTEX
  5
DF
  8
DEFAULT
 10
-100.8975981416722
 20
1.219431149917924
 30
0.0
  0
VERTEX
  5
E0
  8
DEFAULT
 10
-100.9148684919929
 20
1.179634078455436
 30
0.0
  0
VERTEX
  5
E1
  8
DEFAULT
 10
-100.9309471392818
 20
1.139935191412818
 30
0.0
  0
VERTEX
  5
E2
  8
DEFAULT
 10
-100.9458306214229
 20
1.100345163181416
 30
0.0
  0
VERTEX
  5
E3
  8
DEFAULT
 10
-100.9595161272376
 20
1.060874596673429
 30
0.0
  0
VERTEX
  5
E4
  8
DEFAULT
 10
-100.9720014979151
 20
1.021534013883425
 30
0.0
  0
VERTEX
  5
E5
  8
DEFAULT
 10
-100.983285227558
 20
0.9823338465813407
 30
0.0
  0
VERTEX
  5
E6
  8
DEFAULT
 10
-100.9933664628455
 20
0.943284427153614
 30
0.0
  0
VERTEX
  5
E7
  8
DEFAULT
 10
-101.0022450018153
 20
0.9043959796097312
 30
0.0
  0
VERTEX
  5
E8
  8
DEFAULT
 10
-101.0099212917736
 20
0.8656786107692227
 30
0.0
  0
VERTEX
  5
E9
  8
DEFAULT
 10
-101.0163964263389
 20
0.8271423016470152
 30
0.0
  0
VERTEX
  5
EA
  8
DEFAULT
 10
-101.0216721416313
 20
0.7887968990498138
 30
0.0
  0
VERTEX
  5
EB
  8
DEFAULT
 10
-101.0257508116188
 20
0.7506521074004269
 30
0.0
  0
VERTEX
  5
EC
  8
DEFAULT
 10
-101.0286354426359
 20
0.7127174808011176
 30
0.0
  0
VERTEX
  5
ED
  8
DEFAULT
 10
-101.03032966709
 20
0.6750024153526226
 30
0.0
  0
VERTEX
  5
EE
  8
DEFAULT
 10
-101.030837736375
 20
0.6375161417374215
 30
0.0
  0
VERTEX
  5
EF
  8
DEFAULT
 10
-101.0301645130106
 20
0.6002677180818239
 30
0.0
  0
VERTEX
  5
F0
  8
DEFAULT
 10
-101.0283154620307
 20
0.5632660231061237
 30
0.0
  0
VERTEX
  5
F1
  8
DEFAULT
 10
-101.0252966416432
 20
0.5265197495733247
 30
0.0
  0
VERTEX
  5
F2
  8
DEFAULT
 10
-101.0211146931869
 20
0.490037398045132
 30
0.0
  0
VERTEX
  5
F3
  8
DEFAULT
 10
-101.0157768304113
 20
0.4538272709538234
 30
0.0
  0
VERTEX
  5
F4
  8
DEFAULT
 10
-101.0092908281078
 20
0.4178974669973314
 30
0.0
  0
VERTEX
  5
F5
  8
DEFAULT
 10
-101.0016650101198
 20
0.3822558758635211
 30
0.0
  0
VERTEX
  5
F6
  8
DEFAULT
 10
-100.9929082367642
 20
0.3469101732898281
 30
0.0
  0
VERTEX
  5
F7
  8
DEFAULT
 10
-100.9830298916929
 20
0.3118678164623248
 30
0.0
  0
VERTEX
  5
F8
  8
DEFAULT
 10
-100.9720398682273
 20
0.2771360397583322
 30
0.0
  0
VERTEX
  5
F9
  8
DEFAULT
 10
-100.9599485551994
 20
0.2427218508350251
 30
0.0
  0
VERTEX
  5
FA
  8
DEFAULT
 10
-100.9467668223314
 20
0.2086320270664288
 30
0.0
  0
VERTEX
  5
FB
  8
DEFAULT
 10
-100.9325060051884
 20
0.1748731123295215
 30
0.0
  0
VERTEX
  5
FC
  8
DEFAULT
 10
-100.9171778897389
 20
0.1414514141396239
 30
0.0
  0
VERTEX
  5
FD
  8
DEFAULT
 10
-100.9007946965567
 20
0.1083730011346233
 30
0.0
  0
VERTEX
  5
FE
  8
DEFAULT
 10
-100.8833690647003
 20
0.0756437009061273
 30
0.0
  0
VERTEX
  5
FF
  8
DEFAULT
 10
-100.8649140353042
 20
0.043269098176026
 30
0.0
  0
VERTEX
  5
100
  8
DEFAULT
 10
-100.8454430349161
 20
0.0112545333143288
 30
0.0
  0
VERTEX
  5
101
  8
DEFAULT
 10
-100.8249698586164
 20
-0.0203948988048666
 30
0.0
  0
VERTEX
  5
102
  8
DEFAULT
 10
-100.8035086529529
 20
-0.0516743496139753
 30
0.0
  0
VERTEX
  5
103
  8
DEFAULT
 10
-100.7908413391834
 20
-0.0692615162573702
 30
0.0
  0
VERTEX
  5
104
  8
DEFAULT
 10
-100.7777119922127
 20
-0.0867883878260756
 30
0.0
  0
VERTEX
  5
105
  8
DEFAULT
 10
-100.764119312393
 20
-0.1042532068338744
 30
0.0
  0
VERTEX
  5
106
  8
DEFAULT
 10
-100.7500620677991
 20
-0.1216542140438719
 30
0.0
  0
VERTEX
  5
107
  8
DEFAULT
 10
-100.7355390951439
 20
-0.1389896489388747
 30
0.0
  0
VERTEX
  5
108
  8
DEFAULT
 10
-100.7205493006734
 20
-0.1562577501973692
 30
0.0
  0
VERTEX
  5
109
  8
DEFAULT
 10
-100.6891652241716
 20
-0.1905849053900681
 30
0.0
  0
VERTEX
  5
10A
  8
DEFAULT
 10
-100.655902511682
 20
-0.2246215913669687
 30
0.0
  0
VERTEX
  5
10B
  8
DEFAULT
 10
-100.6207550029521
 20
-0.2583537382795669
 30
0.0
  0
VERTEX
  5
10C
  8
DEFAULT
 10
-100.5837177289323
 20
-0.2917673107156702
 30
0.0
  0
VERTEX
  5
10D
  8
DEFAULT
 10
-100.5447869350647
 20
-0.3248483239626694
 30
0.0
  0
VERTEX
  5
10E
  8
DEFAULT
 10
-100.5039601029329
 20
-0.3575828604715667
 30
0.0
  0
VERTEX
  5
10F
  8
DEFAULT
 10
-100.4612359701849
 20
-0.3899570864844719
 30
0.0
  0
VERTEX
  5
110
  8
DEFAULT
 10
-100.4166145486496
 20
-0.4219572687925677
 30
0.0
  0
VERTEX
  5
111
  8
DEFAULT
 10
-100.370097140572
 20
-0.453569791583476
 30
0.0
  0
VERTEX
  5
112
  8
DEFAULT
 10
-100.3216863528914
 20
-0.4847811733420713
 30
0.0
  0
VERTEX
  5
113
  8
DEFAULT
 10
-100.2713861094974
 20
-0.5155780837649786
 30
0.0
  0
VERTEX
  5
114
  8
DEFAULT
 10
-100.2192016614003
 20
-0.5459473606461671
 30
0.0
  0
VERTEX
  5
115
  8
DEFAULT
 10
-100.1651395947584
 20
-0.5758760266964771
 30
0.0
  0
VERTEX
  5
116
  8
DEFAULT
 10
-100.1092078367134
 20
-0.6053513062517766
 30
0.0
  0
VERTEX
  5
117
  8
DEFAULT
 10
-100.0514156589855
 20
-0.6343606418305683
 30
0.0
  0
VERTEX
  5
118
  8
DEFAULT
 10
-99.99177367919341
 20
-0.6628917104984708
 30
0.0
  0
VERTEX
  5
119
  8
DEFAULT
 10
-99.93029385986503
 20
-0.690932439996871
 30
0.0
  0
VERTEX
  5
11A
  8
DEFAULT
 10
-99.80187525497601
 20
-0.7454959406234707
 30
0.0
  0
VERTEX
  5
11B
  8
DEFAULT
 10
-99.6662822576682
 20
-0.7979601732451727
 30
0.0
  0
VERTEX
  5
11C
  8
DEFAULT
 10
-99.52365834224301
 20
-0.8482391560524718
 30
0.0
  0
VERTEX
  5
11D
  8
DEFAULT
 10
-99.37416759861921
 20
-0.8962523464127656
 30
0.0
  0
VERTEX
  5
11E
  8
DEFAULT
 10
-99.21799413862126
 20
-0.9419250585665679
 30
0.0
  0
VERTEX
  5
11F
  8
DEFAULT
 10
-99.05534135798828
 20
-0.985188844056367
 30
0.0
  0
VERTEX
  5
120
  8
DEFAULT
 10
-98.88643106011878
 20
-1.025981830881477
 30
0.0
  0
VERTEX
  5
121
  8
DEFAULT
 10
-98.71150244940961
 20
-1.064249017874772
 30
0.0
  0
VERTEX
  5
122
  8
DEFAULT
 10
-98.53081100376127
 20
-1.099942521370266
 30
0.0
  0
VERTEX
  5
123
  8
DEFAULT
 10
-98.3446272373898
 20
-1.133021771840973
 30
0.0
  0
VERTEX
  5
124
  8
DEFAULT
 10
-97.95693189121195
 20
-1.191212623312566
 30
0.0
  0
VERTEX
  5
125
  8
DEFAULT
 10
-97.55082857476677
 20
-1.238647488344967
 30
0.0
  0
VERTEX
  5
126
  8
DEFAULT
 10
-97.12887725815958
 20
-1.27527310942267
 30
0.0
  0
VERTEX
  5
127
  8
DEFAULT
 10
-96.69373510576318
 20
-1.301154214988074
 30
0.0
  0
VERTEX
  5
128
  8
DEFAULT
 10
-96.24810543256498
 20
-1.316467658759265
 30
0.0
  0
VERTEX
  5
129
  8
DEFAULT
 10
-95.79468813018627
 20
-1.32149392105109
 30
0.0
 42
0.3174170514420256
  0
VERTEX
  5
12A
  8
DEFAULT
 10
-91.08319299231947
 20
2.004644207151226
 30
0.0
  0
VERTEX
  5
12B
  8
DEFAULT
 10
-84.44275942679653
 20
20.69577457126353
 30
0.0
  0
VERTEX
  5
12C
  8
DEFAULT
 10
-84.28974180715008
 20
21.25081648947231
 30
0.0
  0
VERTEX
  5
12D
  8
DEFAULT
 10
-84.12016076599443
 20
21.80385315849183
 30
0.0
  0
VERTEX
  5
12E
  8
DEFAULT
 10
-83.93386001016606
 20
22.35359569759622
 30
0.0
  0
VERTEX
  5
12F
  8
DEFAULT
 10
-83.73075145573827
 20
22.89871618291592
 30
0.0
  0
VERTEX
  5
130
  8
DEFAULT
 10
-83.51081934918298
 20
23.43785564474574
 30
0.0
  0
VERTEX
  5
131
  8
DEFAULT
 10
-83.27412381030646
 20
23.96963288994682
 30
0.0
  0
VERTEX
  5
132
  8
DEFAULT
 10
-83.02080370160897
 20
24.49265406319002
 30
0.0
  0
VERTEX
  5
133
  8
DEFAULT
 10
-82.75107873617057
 20
25.00552283854061
 30
0.0
  0
VERTEX
  5
134
  8
DEFAULT
 10
-82.46525074665968
 20
25.50685111188612
 30
0.0
  0
VERTEX
  5
135
  8
DEFAULT
 10
-82.3164150046085
 20
25.75275873937544
 30
0.0
  0
VERTEX
  5
136
  8
DEFAULT
 10
-82.16370405148118
 20
25.99527004578162
 30
0.0
  0
VERTEX
  5
137
  8
DEFAULT
 10
-82.00717871963278
 20
26.23421878025503
 30
0.0
  0
VERTEX
  5
138
  8
DEFAULT
 10
-81.84690487020052
 20
26.46944130226574
 30
0.0
  0
VERTEX
  5
139
  8
DEFAULT
 10
-81.68295332097452
 20
26.70077693037864
 30
0.0
  0
VERTEX
  5
13A
  8
DEFAULT
 10
-81.51539975880027
 20
26.92806828685063
 30
0.0
  0
VERTEX
  5
13B
  8
DEFAULT
 10
-81.34432463664658
 20
27.15116163657181
 30
0.0
  0
VERTEX
  5
13C
  8
DEFAULT
 10
-81.16981305556587
 20
27.36990721888104
 30
0.0
  0
VERTEX
  5
13D
  8
DEFAULT
 10
-80.9919546318553
 20
27.58415957080523
 30
0.0
  0
VERTEX
  5
13E
  8
DEFAULT
 10
-80.81084334981497
 20
27.79377784030133
 30
0.0
  0
VERTEX
  5
13F
  8
DEFAULT
 10
-80.62657740058219
 20
27.99862608811522
 30
0.0
  0
VERTEX
  5
140
  8
DEFAULT
 10
-80.43925900760152
 20
28.19857357692742
 30
0.0
  0
VERTEX
  5
141
  8
DEFAULT
 10
-80.24899423936981
 20
28.39349504651123
 30
0.0
  0
VERTEX
  5
142
  8
DEFAULT
 10
-80.05589281016788
 20
28.58327097369683
 30
0.0
  0
VERTEX
  5
143
  8
DEFAULT
 10
-79.86006786956179
 20
28.76778781601824
 30
0.0
  0
VERTEX
  5
144
  8
DEFAULT
 10
-79.66163578151892
 20
28.94693823799982
 30
0.0
  0
VERTEX
  5
145
  8
DEFAULT
 10
-79.46071589404428
 20
29.12062131913844
 30
0.0
  0
VERTEX
  5
146
  8
DEFAULT
 10
-79.25743030029489
 20
29.28874274273342
 30
0.0
  0
VERTEX
  5
147
  8
DEFAULT
 10
-79.0519035921728
 20
29.45121496482834
 30
0.0
  0
VERTEX
  5
148
  8
DEFAULT
 10
-78.84426260743848
 20
29.60795736263374
 30
0.0
  0
VERTEX
  5
149
  8
DEFAULT
 10
-78.63463617141551
 20
29.75889636192214
 30
0.0
  0
VERTEX
  5
14A
  8
DEFAULT
 10
-78.42315483437997
 20
29.90396554299913
 30
0.0
  0
VERTEX
  5
14B
  8
DEFAULT
 10
-78.20995060574538
 20
30.04310572497893
 30
0.0
  0
VERTEX
  5
14C
  8
DEFAULT
 10
-77.99515668615626
 20
30.17626502821004
 30
0.0
  0
VERTEX
  5
14D
  8
DEFAULT
 10
-77.7789071986094
 20
30.30339891482153
 30
0.0
  0
VERTEX
  5
14E
  8
DEFAULT
 10
-77.56133691970612
 20
30.42447020747504
 30
0.0
  0
VERTEX
  5
14F
  8
DEFAULT
 10
-77.34258101212978
 20
30.53944908652842
 30
0.0
  0
VERTEX
  5
150
  8
DEFAULT
 10
-77.12277475941337
 20
30.64831306592784
 30
0.0
  0
VERTEX
  5
151
  8
DEFAULT
 10
-76.90205330403361
 20
30.75104694825582
 30
0.0
  0
VERTEX
  5
152
  8
DEFAULT
 10
-76.6805513898336
 20
30.84764275946692
 30
0.0
  0
VERTEX
  5
153
  8
DEFAULT
 10
-76.45840310972997
 20
30.93809966394024
 30
0.0
  0
VERTEX
  5
154
  8
DEFAULT
 10
-76.23574165961091
 20
31.02242386056953
 30
0.0
  0
VERTEX
  5
155
  8
DEFAULT
 10
-76.01269909928189
 20
31.10062846069702
 30
0.0
  0
VERTEX
  5
156
  8
DEFAULT
 10
-75.7894061212543
 20
31.17273334877372
 30
0.0
  0
VERTEX
  5
157
  8
DEFAULT
 10
-75.56599182811121
 20
31.23876502669633
 30
0.0
  0
VERTEX
  5
158
  8
DEFAULT
 10
-75.34258351912112
 20
31.29875644283244
 30
0.0
  0
VERTEX
  5
159
  8
DEFAULT
 10
-75.1193064867002
 20
31.35274680679602
 30
0.0
  0
VERTEX
  5
15A
  8
DEFAULT
 10
-74.89628382325722
 20
31.40078139107932
 30
0.0
  0
VERTEX
  5
15B
  8
DEFAULT
 10
-74.67363623888193
 20
31.44291132067862
 30
0.0
  0
VERTEX
  5
15C
  8
DEFAULT
 10
-74.45148189027017
 20
31.47919335188014
 30
0.0
  0
VERTEX
  5
15D
  8
DEFAULT
 10
-74.2299362212041
 20
31.50968964138373
 30
0.0
  0
VERTEX
  5
15E
  8
DEFAULT
 10
-74.00911181483852
 20
31.53446750695564
 30
0.0
  0
VERTEX
  5
15F
  8
DEFAULT
 10
-73.78911825797351
 20
31.55359918079604
 30
0.0
  0
VERTEX
  5
160
  8
DEFAULT
 10
-73.57006201742772
 20
31.56716155680424
 30
0.0
  0
VERTEX
  5
161
  8
DEFAULT
 10
-73.3520463285586
 20
31.57523593290541
 30
0.0
  0
VERTEX
  5
162
  8
DEFAULT
 10
-73.13517109591638
 20
31.57790774958274
 30
0.0
  0
VERTEX
  5
163
  8
DEFAULT
 10
25.09915535966994
 20
28.92184807491434
 30
0.0
  0
VERTEX
  5
164
  8
DEFAULT
 10
30.49999999999994
 20
28.78933903972609
 30
0.0
  0
VERTEX
  5
165
  8
DEFAULT
 10
33.37430436432362
 20
28.71162359961202
 30
0.0
 42
0.5333403629950231
  0
VERTEX
  5
166
  8
DEFAULT
 10
33.56674640804475
 20
28.98238398572524
 30
0.0
  0
VERTEX
  5
167
  8
DEFAULT
 10
33.43248869300322
 20
29.17797835348361
 30
0.0
 42
-1.057279696267658
  0
VERTEX
  5
168
  8
DEFAULT
 10
33.78549435779487
 20
29.53098401827522
 30
0.0
 42
0.2134217652835159
  0
VERTEX
  5
169
  8
DEFAULT
 10
34.15817235404481
 20
29.36431735160853
 30
0.0
  0
SEQEND
  5
16A
  8
DEFAULT
  0
POLYLINE
  5
16B
  8
DEFAULT
 66
     1
 10
0.0
 20
0.0
 30
0.0
 70
     1
  0
VERTEX
  5
16C
  8
DEFAULT
 10
-10.5
 20
18.00000000000001
 30
0.0
  0
VERTEX
  5
16D
  8
DEFAULT
 10
-9.730773750880015
 20
17.58080329729362
 30
0.0
  0
VERTEX
  5
16E
  8
DEFAULT
 10
-9.052712041620861
 20
17.23034091636303
 30
0.0
  0
VERTEX
  5
16F
  8
DEFAULT
 10
-8.447469230575855
 20
16.9396483179521
 30
0.0
  0
VERTEX
  5
170
  8
DEFAULT
 10
-8.166421898869068
 20
16.81391426867397
 30
0.0
  0
VERTEX
  5
171
  8
DEFAULT
 10
-7.896699676098313
 20
16.6997609628047
 30
0.0
  0
VERTEX
  5
172
  8
DEFAULT
 10
-7.636009357057755
 20
16.59606783293728
 30
0.0
  0
VERTEX
  5
173
  8
DEFAULT
 10
-7.382057736541556
 20
16.5017143116647
 30
0.0
  0
VERTEX
  5
174
  8
DEFAULT
 10
-7.132551609343883
 20
16.41557983157993
 30
0.0
  0
VERTEX
  5
175
  8
DEFAULT
 10
-6.8851977702589
 20
16.33654382527595
 30
0.0
  0
VERTEX
  5
176
  8
DEFAULT
 10
-6.637703014080771
 20
16.26348572534576
 30
0.0
  0
VERTEX
  5
177
  8
DEFAULT
 10
-6.387774135603662
 20
16.19528496438233
 30
0.0
  0
VERTEX
  5
178
  8
DEFAULT
 10
-5.87144119092916
 20
16.0689731897277
 30
0.0
  0
VERTEX
  5
179
  8
DEFAULT
 10
-5.320082658894888
 20
15.95052329169978
 30
0.0
  0
VERTEX
  5
17A
  8
DEFAULT
 10
-4.726499719385044
 20
15.84036737926172
 30
0.0
  0
VERTEX
  5
17B
  8
DEFAULT
 10
-4.085722916590004
 20
15.74081689102054
 30
0.0
  0
VERTEX
  5
17C
  8
DEFAULT
 10
-3.392782794700144
 20
15.65418326558325
 30
0.0
  0
VERTEX
  5
17D
  8
DEFAULT
 10
-2.642709897905839
 20
15.58277794155685
 30
0.0
  0
VERTEX
  5
17E
  8
DEFAULT
 10
-1.830534770397462
 20
15.52891235754836
 30
0.0
  0
VERTEX
  5
17F
  8
DEFAULT
 10
-0.9512879563653909
 20
15.49489795216479
 30
0.0
  0
VERTEX
  5
180
  8
DEFAULT
 10
0.0
 20
15.48304616401316
 30
0.0
  0
VERTEX
  5
181
  8
DEFAULT
 10
0.9512879563653904
 20
15.49489795216479
 30
0.0
  0
VERTEX
  5
182
  8
DEFAULT
 10
1.83053477039746
 20
15.52891235754836
 30
0.0
  0
VERTEX
  5
183
  8
DEFAULT
 10
2.642709897905835
 20
15.58277794155685
 30
0.0
  0
VERTEX
  5
184
  8
DEFAULT
 10
3.392782794700139
 20
15.65418326558324
 30
0.0
  0
VERTEX
  5
185
  8
DEFAULT
 10
4.085722916589997
 20
15.74081689102054
 30
0.0
  0
VERTEX
  5
186
  8
DEFAULT
 10
4.726499719385035
 20
15.84036737926172
 30
0.0
  0
VERTEX
  5
187
  8
DEFAULT
 10
5.320082658894876
 20
15.95052329169978
 30
0.0
  0
VERTEX
  5
188
  8
DEFAULT
 10
5.871441190929147
 20
16.0689731897277
 30
0.0
  0
VERTEX
  5
189
  8
DEFAULT
 10
6.387774135603651
 20
16.19528496438233
 30
0.0
  0
VERTEX
  5
18A
  8
DEFAULT
 10
6.637703014080762
 20
16.26348572534576
 30
0.0
  0
VERTEX
  5
18B
  8
DEFAULT
 10
6.885197770258893
 20
16.33654382527595
 30
0.0
  0
VERTEX
  5
18C
  8
DEFAULT
 10
7.132551609343878
 20
16.41557983157993
 30
0.0
  0
VERTEX
  5
18D
  8
DEFAULT
 10
7.382057736541551
 20
16.5017143116647
 30
0.0
  0
VERTEX
  5
18E
  8
DEFAULT
 10
7.63600935705775
 20
16.59606783293728
 30
0.0
  0
VERTEX
  5
18F
  8
DEFAULT
 10
7.89669967609831
 20
16.6997609628047
 30
0.0
  0
VERTEX
  5
190
  8
DEFAULT
 10
8.166421898869064
 20
16.81391426867397
 30
0.0
  0
VERTEX
  5
191
  8
DEFAULT
 10
8.447469230575852
 20
16.9396483179521
 30
0.0
  0
VERTEX
  5
192
  8
DEFAULT
 10
9.052712041620858
 20
17.23034091636303
 30
0.0
  0
VERTEX
  5
193
  8
DEFAULT
 10
9.730773750880015
 20
17.58080329729362
 30
0.0
  0
VERTEX
  5
194
  8
DEFAULT
 10
10.5
 20
18.00000000000001
 30
0.0
  0
VERTEX
  5
195
  8
DEFAULT
 10
11.59363478944797
 20
19.12300478526586
 30
0.0
  0
VERTEX
  5
196
  8
DEFAULT
 10
12.53476650831866
 20
20.0457524163649
 30
0.0
  0
VERTEX
  5
197
  8
DEFAULT
 10
12.95739400997696
 20
20.43994117939683
 30
0.0
  0
VERTEX
  5
198
  8
DEFAULT
 10
13.35299609641826
 20
20.793559310241
 30
0.0
  0
VERTEX
  5
199
  8
DEFAULT
 10
13.72527288511835
 20
21.1097713610154
 30
0.0
  0
VERTEX
  5
19A
  8
DEFAULT
 10
14.07792449355299
 20
21.39174188383802
 30
0.0
  0
VERTEX
  5
19B
  8
DEFAULT
 10
14.24804714188195
 20
21.52087549480427
 30
0.0
  0
VERTEX
  5
19C
  8
DEFAULT
 10
14.41465103919796
 20
21.64263543082682
 30
0.0
  0
VERTEX
  5
19D
  8
DEFAULT
 10
14.5781987001855
 20
21.75741726092041
 30
0.0
  0
VERTEX
  5
19E
  8
DEFAULT
 10
14.73915263952904
 20
21.8656165540998
 30
0.0
  0
VERTEX
  5
19F
  8
DEFAULT
 10
14.89797537191305
 20
21.96762887937972
 30
0.0
  0
VERTEX
  5
1A0
  8
DEFAULT
 10
15.055129412022
 20
22.06384980577494
 30
0.0
  0
VERTEX
  5
1A1
  8
DEFAULT
 10
15.21107727454036
 20
22.15467490230018
 30
0.0
  0
VERTEX
  5
1A2
  8
DEFAULT
 10
15.36628147415261
 20
22.24049973797021
 30
0.0
  0
VERTEX
  5
1A3
  8
DEFAULT
 10
15.52120452554322
 20
22.32171988179977
 30
0.0
  0
VERTEX
  5
1A4
  8
DEFAULT
 10
15.67630894339665
 20
22.39873090280361
 30
0.0
  0
VERTEX
  5
1A5
  8
DEFAULT
 10
15.83205724239739
 20
22.47192836999648
 30
0.0
  0
VERTEX
  5
1A6
  8
DEFAULT
 10
15.9889119372299
 20
22.54170785239311
 30
0.0
  0
VERTEX
  5
1A7
  8
DEFAULT
 10
16.14733554257866
 20
22.60846491900827
 30
0.0
  0
VERTEX
  5
1A8
  8
DEFAULT
 10
16.30779057312813
 20
22.67259513885669
 30
0.0
  0
VERTEX
  5
1A9
  8
DEFAULT
 10
16.63664496856712
 20
22.79455731431235
 30
0.0
  0
VERTEX
  5
1AA
  8
DEFAULT
 10
16.97870861985797
 20
22.91027067455732
 30
0.0
  0
VERTEX
  5
1AB
  8
DEFAULT
 10
17.33534853865313
 20
23.02045849010589
 30
0.0
  0
VERTEX
  5
1AC
  8
DEFAULT
 10
17.70746511544038
 20
23.12535577515163
 30
0.0
  0
VERTEX
  5
1AD
  8
DEFAULT
 10
18.0959587407075
 20
23.2251975438881
 30
0.0
  0
VERTEX
  5
1AE
  8
DEFAULT
 10
18.50172980494227
 20
23.32021881050886
 30
0.0
  0
VERTEX
  5
1AF
  8
DEFAULT
 10
18.92567869863247
 20
23.41065458920746
 30
0.0
  0
VERTEX
  5
1B0
  8
DEFAULT
 10
19.83171153633028
 20
23.57870973961244
 30
0.0
  0
VERTEX
  5
1B1
  8
DEFAULT
 10
20.82126037770316
 20
23.73124310865151
 30
0.0
  0
VERTEX
  5
1B2
  8
DEFAULT
 10
21.90152834665335
 20
23.87013480987314
 30
0.0
  0
VERTEX
  5
1B3
  8
DEFAULT
 10
24.36303416289459
 20
24.11451366305802
 30
0.0
  0
VERTEX
  5
1B4
  8
DEFAULT
 10
27.25982108887494
 20
24.32443052634201
 30
0.0
  0
VERTEX
  5
1B5
  8
DEFAULT
 10
30.57934967882741
 20
24.50264290204873
 30
0.0
  0
VERTEX
  5
1B6
  8
DEFAULT
 10
38.38034251799283
 20
24.76515747517345
 30
0.0
  0
VERTEX
  5
1B7
  8
DEFAULT
 10
62.3285071104423
 20
25.00732179829014
 30
0.0
  0
VERTEX
  5
1B8
  8
DEFAULT
 10
64.99542269637709
 20
24.98214075226572
 30
0.0
  0
VERTEX
  5
1B9
  8
DEFAULT
 10
67.36230562735447
 20
24.91817240915685
 30
0.0
  0
VERTEX
  5
1BA
  8
DEFAULT
 10
69.49710408756883
 20
24.80734876088746
 30
0.0
  0
VERTEX
  5
1BB
  8
DEFAULT
 10
71.37947276500284
 20
24.65218568621356
 30
0.0
  0
VERTEX
  5
1BC
  8
DEFAULT
 10
72.21274009578026
 20
24.55958994224492
 30
0.0
  0
VERTEX
  5
1BD
  8
DEFAULT
 10
72.96699297358623
 20
24.45784503559917
 30
0.0
  0
VERTEX
  5
1BE
  8
DEFAULT
 10
73.63692906266198
 20
24.34759619758429
 30
0.0
  0
VERTEX
  5
1BF
  8
DEFAULT
 10
73.93862133150138
 20
24.28948443909719
 30
0.0
  0
VERTEX
  5
1C0
  8
DEFAULT
 10
74.21724602724868
 20
24.2294886595083
 30
0.0
  0
VERTEX
  5
1C1
  8
DEFAULT
 10
74.47245288152325
 20
24.1676029178093
 30
0.0
  0
VERTEX
  5
1C2
  8
DEFAULT
 10
74.7051417203013
 20
24.10347489330454
 30
0.0
  0
VERTEX
  5
1C3
  8
DEFAULT
 10
74.8134207431183
 20
24.07043286386953
 30
0.0
  0
VERTEX
  5
1C4
  8
DEFAULT
 10
74.9165248931482
 20
24.03666567037651
 30
0.0
  0
VERTEX
  5
1C5
  8
DEFAULT
 10
75.01460571408668
 20
24.00211844837332
 30
0.0
  0
VERTEX
  5
1C6
  8
DEFAULT
 10
75.10781474962943
 20
23.96673633340775
 30
0.0
  0
VERTEX
  5
1C7
  8
DEFAULT
 10
75.1963035434721
 20
23.93046446102761
 30
0.0
  0
VERTEX
  5
1C8
  8
DEFAULT
 10
75.28022363931038
 20
23.89324796678073
 30
0.0
  0
VERTEX
  5
1C9
  8
DEFAULT
 10
75.35972658083995
 20
23.85503198621493
 30
0.0
  0
VERTEX
  5
1CA
  8
DEFAULT
 10
75.43496391175647
 20
23.815761654878
 30
0.0
  0
VERTEX
  5
1CB
  8
DEFAULT
 10
75.47103033063975
 20
23.79571396252906
 30
0.0
  0
VERTEX
  5
1CC
  8
DEFAULT
 10
75.50608717575562
 20
23.77538210831776
 30
0.0
  0
VERTEX
  5
1CD
  8
DEFAULT
 10
75.5401533900661
 20
23.7547592341876
 30
0.0
  0
VERTEX
  5
1CE
  8
DEFAULT
 10
75.5732479165331
 20
23.73383848208204
 30
0.0
  0
VERTEX
  5
1CF
  8
DEFAULT
 10
75.60538969811861
 20
23.71261299394456
 30
0.0
  0
VERTEX
  5
1D0
  8
DEFAULT
 10
75.63659767778458
 20
23.69107591171864
 30
0.0
  0
VERTEX
  5
1D1
  8
DEFAULT
 10
75.66689079849296
 20
23.66922037734776
 30
0.0
  0
VERTEX
  5
1D2
  8
DEFAULT
 10
75.69628800320572
 20
23.64703953277537
 30
0.0
  0
VERTEX
  5
1D3
  8
DEFAULT
 10
75.72480823488482
 20
23.62452651994499
 30
0.0
  0
VERTEX
  5
1D4
  8
DEFAULT
 10
75.75247043649222
 20
23.60167448080006
 30
0.0
  0
VERTEX
  5
1D5
  8
DEFAULT
 10
75.77929355098988
 20
23.57847655728408
 30
0.0
  0
VERTEX
  5
1D6
  8
DEFAULT
 10
75.80529652133974
 20
23.55492589134051
 30
0.0
  0
VERTEX
  5
1D7
  8
DEFAULT
 10
75.83049829050378
 20
23.53101562491284
 30
0.0
  0
VERTEX
  5
1D8
  8
DEFAULT
 10
75.85491780144396
 20
23.50673889994454
 30
0.0
  0
VERTEX
  5
1D9
  8
DEFAULT
 10
75.87857399712223
 20
23.48208885837909
 30
0.0
  0
VERTEX
  5
1DA
  8
DEFAULT
 10
75.90148582050057
 20
23.45705864215996
 30
0.0
  0
VERTEX
  5
1DB
  8
DEFAULT
 10
75.92367221454091
 20
23.43164139323063
 30
0.0
  0
VERTEX
  5
1DC
  8
DEFAULT
 10
75.94515212220523
 20
23.40583025353458
 30
0.0
  0
VERTEX
  5
1DD
  8
DEFAULT
 10
75.9659444864555
 20
23.37961836501529
 30
0.0
  0
VERTEX
  5
1DE
  8
DEFAULT
 10
75.98606825025364
 20
23.35299886961623
 30
0.0
  0
VERTEX
  5
1DF
  8
DEFAULT
 10
76.00554235656163
 20
23.32596490928087
 30
0.0
  0
VERTEX
  5
1E0
  8
DEFAULT
 10
76.02438574834144
 20
23.2985096259527
 30
0.0
  0
VERTEX
  5
1E1
  8
DEFAULT
 10
76.04261736855503
 20
23.27062616157519
 30
0.0
  0
VERTEX
  5
1E2
  8
DEFAULT
 10
76.06025616016434
 20
23.24230765809182
 30
0.0
  0
VERTEX
  5
1E3
  8
DEFAULT
 10
76.07732106613135
 20
23.21354725744607
 30
0.0
  0
VERTEX
  5
1E4
  8
DEFAULT
 10
76.093831029418
 20
23.18433810158141
 30
0.0
  0
VERTEX
  5
1E5
  8
DEFAULT
 10
76.10980499298627
 20
23.15467333244132
 30
0.0
  0
VERTEX
  5
1E6
  8
DEFAULT
 10
76.12526189979812
 20
23.12454609196927
 30
0.0
  0
VERTEX
  5
1E7
  8
DEFAULT
 10
76.14022069281548
 20
23.09394952210874
 30
0.0
  0
VERTEX
  5
1E8
  8
DEFAULT
 10
76.15470031500034
 20
23.06287676480322
 30
0.0
  0
VERTEX
  5
1E9
  8
DEFAULT
 10
76.18229781872039
 20
22.99927525563107
 30
0.0
  0
VERTEX
  5
1EA
  8
DEFAULT
 10
76.2082059546539
 20
22.93368670000063
 30
0.0
  0
VERTEX
  5
1EB
  8
DEFAULT
 10
76.23257626649657
 20
22.86605623345972
 30
0.0
  0
VERTEX
  5
1EC
  8
DEFAULT
 10
76.25556029794407
 20
22.79632899155616
 30
0.0
  0
VERTEX
  5
1ED
  8
DEFAULT
 10
76.27730959269208
 20
22.72445010983775
 30
0.0
  0
VERTEX
  5
1EE
  8
DEFAULT
 10
76.29795482508828
 20
22.65038229737898
 30
0.0
  0
VERTEX
  5
1EF
  8
DEFAULT
 10
76.3175431920884
 20
22.574158557361
 30
0.0
  0
VERTEX
  5
1F0
  8
DEFAULT
 10
76.33610102130015
 20
22.49582946649165
 30
0.0
  0
VERTEX
  5
1F1
  8
DEFAULT
 10
76.3536546403313
 20
22.41544560147874
 30
0.0
  0
VERTEX
  5
1F2
  8
DEFAULT
 10
76.38585455828266
 20
22.24871585585358
 30
0.0
  0
VERTEX
  5
1F3
  8
DEFAULT
 10
76.41435356680431
 20
22.07437393414809
 30
0.0
  0
VERTEX
  5
1F4
  8
DEFAULT
 10
76.43936228675813
 20
21.8928244500249
 30
0.0
  0
VERTEX
  5
1F5
  8
DEFAULT
 10
76.46109133900593
 20
21.7044720171466
 30
0.0
  0
VERTEX
  5
1F6
  8
DEFAULT
 10
76.495552923831
 20
21.30897675977508
 30
0.0
  0
VERTEX
  5
1F7
  8
DEFAULT
 10
76.51942328817432
 20
20.89112507133437
 30
0.0
  0
VERTEX
  5
1F8
  8
DEFAULT
 10
76.53438739893072
 20
20.45415386112527
 30
0.0
  0
VERTEX
  5
1F9
  8
DEFAULT
 10
76.54433672726205
 20
19.53580051260517
 30
0.0
  0
VERTEX
  5
1FA
  8
DEFAULT
 10
76.4677375973133
 20
15.44595940660127
 30
0.0
  0
VERTEX
  5
1FB
  8
DEFAULT
 10
76.4567184487313
 20
15.20113773110042
 30
0.0
  0
VERTEX
  5
1FC
  8
DEFAULT
 10
76.44920296147026
 20
15.08833112630547
 30
0.0
  0
VERTEX
  5
1FD
  8
DEFAULT
 10
76.43992227079559
 20
14.98086632122516
 30
0.0
  0
VERTEX
  5
1FE
  8
DEFAULT
 10
76.42855543063212
 20
14.87794754916775
 30
0.0
  0
VERTEX
  5
1FF
  8
DEFAULT
 10
76.41478149490459
 20
14.77877904344146
 30
0.0
  0
VERTEX
  5
200
  8
DEFAULT
 10
76.39827951753784
 20
14.68256503735455
 30
0.0
  0
VERTEX
  5
201
  8
DEFAULT
 10
76.38890521759126
 20
14.63531729458468
 30
0.0
  0
VERTEX
  5
202
  8
DEFAULT
 10
76.37872855245665
 20
14.58850976421525
 30
0.0
  0
VERTEX
  5
203
  8
DEFAULT
 10
76.36770940387464
 20
14.54204297540978
 30
0.0
  0
VERTEX
  5
204
  8
DEFAULT
 10
76.35580765358581
 20
14.4958174573318
 30
0.0
  0
VERTEX
  5
205
  8
DEFAULT
 10
76.34298318333077
 20
14.44973373914485
 30
0.0
  0
VERTEX
  5
206
  8
DEFAULT
 10
76.32919587485011
 20
14.40369235001246
 30
0.0
  0
VERTEX
  5
207
  8
DEFAULT
 10
76.31440560988446
 20
14.35759381909815
 30
0.0
  0
VERTEX
  5
208
  8
DEFAULT
 10
76.29857227017438
 20
14.31133867556546
 30
0.0
  0
VERTEX
  5
209
  8
DEFAULT
 10
76.28165573746048
 20
14.26482744857792
 30
0.0
  0
VERTEX
  5
20A
  8
DEFAULT
 10
76.26361589348338
 20
14.21796066729905
 30
0.0
  0
VERTEX
  5
20B
  8
DEFAULT
 10
76.24442369429482
 20
14.17066519399264
 30
0.0
  0
VERTEX
  5
20C
  8
DEFAULT
 10
76.22409439319141
 20
14.12297322332347
 30
0.0
  0
VERTEX
  5
20D
  8
DEFAULT
 10
76.18012979567085
 20
14.02663390095702
 30
0.0
  0
VERTEX
  5
20E
  8
DEFAULT
 10
76.13193272178353
 20
13.92941092232
 30
0.0
  0
VERTEX
  5
20F
  8
DEFAULT
 10
76.0797137923913
 20
13.8317725095327
 30
0.0
  0
VERTEX
  5
210
  8
DEFAULT
 10
76.02368362835603
 20
13.73418688471543
 30
0.0
  0
VERTEX
  5
211
  8
DEFAULT
 10
75.96405285053956
 20
13.63712226998849
 30
0.0
  0
VERTEX
  5
212
  8
DEFAULT
 10
75.90103207980373
 20
13.54104688747217
 30
0.0
  0
VERTEX
  5
213
  8
DEFAULT
 10
75.83483193701042
 20
13.44642895928678
 30
0.0
  0
VERTEX
  5
214
  8
DEFAULT
 10
75.76566304302146
 20
13.35373670755262
 30
0.0
  0
VERTEX
  5
215
  8
DEFAULT
 10
75.69373601869873
 20
13.26343835438998
 30
0.0
  0
VERTEX
  5
216
  8
DEFAULT
 10
75.61926148490406
 20
13.17600212191917
 30
0.0
  0
VERTEX
  5
217
  8
DEFAULT
 10
75.58113472097408
 20
13.13350362035579
 30
0.0
  0
VERTEX
  5
218
  8
DEFAULT
 10
75.54245006249931
 20
13.09189623226048
 30
0.0
  0
VERTEX
  5
219
  8
DEFAULT
 10
75.50323383708749
 20
13.05123848539827
 30
0.0
  0
VERTEX
  5
21A
  8
DEFAULT
 10
75.46351237234634
 20
13.01158890753421
 30
0.0
  0
VERTEX
  5
21B
  8
DEFAULT
 10
75.42331199588358
 20
12.97300602643334
 30
0.0
  0
VERTEX
  5
21C
  8
DEFAULT
 10
75.38265903530697
 20
12.93554836986068
 30
0.0
  0
VERTEX
  5
21D
  8
DEFAULT
 10
75.34157981822423
 20
12.89927446558127
 30
0.0
  0
VERTEX
  5
21E
  8
DEFAULT
 10
75.3001006722431
 20
12.86424284136016
 30
0.0
  0
VERTEX
  5
21F
  8
DEFAULT
 10
75.2582479249713
 20
12.83051202496238
 30
0.0
  0
VERTEX
  5
220
  8
DEFAULT
 10
75.21604790401656
 20
12.79814054415297
 30
0.0
  0
VERTEX
  5
221
  8
DEFAULT
 10
75.17352192220419
 20
12.76716247414012
 30
0.0
  0
VERTEX
  5
222
  8
DEFAULT
 10
75.13067123322979
 20
12.73751407990467
 30
0.0
  0
VERTEX
  5
223
  8
DEFAULT
 10
75.08749207600655
 20
12.70910717387059
 30
0.0
  0
VERTEX
  5
224
  8
DEFAULT
 10
75.04398068944766
 20
12.68185356846188
 30
0.0
  0
VERTEX
  5
225
  8
DEFAULT
 10
75.00013331246629
 20
12.65566507610253
 30
0.0
  0
VERTEX
  5
226
  8
DEFAULT
 10
74.95594618397561
 20
12.63045350921651
 30
0.0
  0
VERTEX
  5
227
  8
DEFAULT
 10
74.86653762811909
 20
12.58260840156044
 30
0.0
  0
VERTEX
  5
228
  8
DEFAULT
 10
74.77572493318355
 20
12.53761274488557
 30
0.0
  0
VERTEX
  5
229
  8
DEFAULT
 10
74.68347801047443
 20
12.4947610385838
 30
0.0
  0
VERTEX
  5
22A
  8
DEFAULT
 10
74.09819272408001
 20
12.24316572455414
 30
0.0
  0
VERTEX
  5
22B
  8
DEFAULT
 10
73.99506372350851
 20
12.19556765383704
 30
0.0
  0
VERTEX
  5
22C
  8
DEFAULT
 10
73.89025978560701
 20
12.14446952862818
 30
0.0
  0
VERTEX
  5
22D
  8
DEFAULT
 10
73.78375082168101
 20
12.08916584831946
 30
0.0
  0
VERTEX
  5
22E
  8
DEFAULT
 10
73.67550674303595
 20
12.02895111230278
 30
0.0
  0
VERTEX
  5
22F
  8
DEFAULT
 10
73.56557430721915
 20
11.96332456970729
 30
0.0
  0
VERTEX
  5
230
  8
DEFAULT
 10
73.45430765674556
 20
11.89260446861126
 30
0.0
  0
VERTEX
  5
231
  8
DEFAULT
 10
73.342137780372
 20
11.81731380683024
 30
0.0
  0
VERTEX
  5
232
  8
DEFAULT
 10
73.22949566685529
 20
11.73797558217975
 30
0.0
  0
VERTEX
  5
233
  8
DEFAULT
 10
73.11681230495225
 20
11.65511279247534
 30
0.0
  0
VERTEX
  5
234
  8
DEFAULT
 10
73.00451868341972
 20
11.56924843553254
 30
0.0
  0
VERTEX
  5
235
  8
DEFAULT
 10
72.78282461649347
 20
11.39060701119394
 30
0.0
  0
VERTEX
  5
236
  8
DEFAULT
 10
72.56786137613116
 20
11.20623529168825
 30
0.0
  0
VERTEX
  5
237
  8
DEFAULT
 10
72.3630768723874
 20
11.02031725953978
 30
0.0
  0
VERTEX
  5
238
  8
DEFAULT
 10
72.17191901531677
 20
10.83703689727282
 30
0.0
  0
VERTEX
  5
239
  8
DEFAULT
 10
71.99783571497392
 20
10.66057818741168
 30
0.0
  0
VERTEX
  5
23A
  8
DEFAULT
 10
71.91809965590954
 20
10.57591463956762
 30
0.0
  0
VERTEX
  5
23B
  8
DEFAULT
 10
71.84287616495
 20
10.4927266556445
 30
0.0
  0
VERTEX
  5
23C
  8
DEFAULT
 10
71.77154719350452
 20
10.40973839083074
 30
0.0
  0
VERTEX
  5
23D
  8
DEFAULT
 10
71.70349469298239
 20
10.32567400031476
 30
0.0
  0
VERTEX
  5
23E
  8
DEFAULT
 10
71.63810061479283
 20
10.23925763928496
 30
0.0
  0
VERTEX
  5
23F
  8
DEFAULT
 10
71.60620734388817
 20
10.19476876832377
 30
0.0
  0
VERTEX
  5
240
  8
DEFAULT
 10
71.5747469103451
 20
10.14921346292977
 30
0.0
  0
VERTEX
  5
241
  8
DEFAULT
 10
71.51281553104843
 20
10.05426562643759
 30
0.0
  0
VERTEX
  5
242
  8
DEFAULT
 10
71.4516884283121
 20
9.953138284996841
 30
0.0
  0
VERTEX
  5
243
  8
DEFAULT
 10
71.39074755354532
 20
9.844555593795937
 30
0.0
  0
VERTEX
  5
244
  8
DEFAULT
 10
71.32937485815735
 20
9.727241708023291
 30
0.0
  0
VERTEX
  5
245
  8
DEFAULT
 10
71.26695229355744
 20
9.599920782867319
 30
0.0
  0
VERTEX
  5
246
  8
DEFAULT
 10
71.20286181115482
 20
9.461316973516437
 30
0.0
  0
VERTEX
  5
247
  8
DEFAULT
 10
71.06720489857848
 20
9.145157322983588
 30
0.0
  0
VERTEX
  5
248
  8
DEFAULT
 10
70.91745973170231
 20
8.76855599793206
 30
0.0
  0
VERTEX
  5
249
  8
DEFAULT
 10
70.56357848043218
 20
7.803565675823485
 30
0.0
  0
VERTEX
  5
24A
  8
DEFAULT
 10
70.13991994896529
 20
6.536513866855618
 30
0.0
  0
VERTEX
  5
24B
  8
DEFAULT
 10
69.65283742920832
 20
4.94793281621463
 30
0.0
  0
VERTEX
  5
24C
  8
DEFAULT
 10
67.20083809935353
 20
-4.232625757299861
 30
0.0
  0
VERTEX
  5
24D
  8
DEFAULT
 10
66.49673788251647
 20
-6.654155032731782
 30
0.0
  0
VERTEX
  5
24E
  8
DEFAULT
 10
66.13570656705518
 20
-7.782864925915527
 30
0.0
  0
VERTEX
  5
24F
  8
DEFAULT
 10
65.76873180575677
 20
-8.849663924962641
 30
0.0
  0
VERTEX
  5
250
  8
DEFAULT
 10
65.39541736889878
 20
-9.856037891332404
 30
0.0
  0
VERTEX
  5
251
  8
DEFAULT
 10
65.01536702675871
 20
-10.80347268648409
 30
0.0
  0
VERTEX
  5
252
  8
DEFAULT
 10
64.6281845496141
 20
-11.69345417187699
 30
0.0
  0
VERTEX
  5
253
  8
DEFAULT
 10
64.23347370774249
 20
-12.52746820897037
 30
0.0
  0
VERTEX
  5
254
  8
DEFAULT
 10
64.03317132824577
 20
-12.92395176611077
 30
0.0
  0
VERTEX
  5
255
  8
DEFAULT
 10
63.83083827142138
 20
-13.30700065922352
 30
0.0
  0
VERTEX
  5
256
  8
DEFAULT
 10
63.62642500855399
 20
-13.67680062099103
 30
0.0
  0
VERTEX
  5
257
  8
DEFAULT
 10
63.4198820109283
 20
-14.03353738409571
 30
0.0
  0
VERTEX
  5
258
  8
DEFAULT
 10
63.21120102375845
 20
-14.37741731818468
 30
0.0
  0
VERTEX
  5
259
  8
DEFAULT
 10
63.00053888797621
 20
-14.70872934076391
 30
0.0
  0
VERTEX
  5
25A
  8
DEFAULT
 10
62.78809371844283
 20
-15.02778300630409
 30
0.0
  0
VERTEX
  5
25B
  8
DEFAULT
 10
62.57406363001955
 20
-15.3348878692759
 30
0.0
  0
VERTEX
  5
25C
  8
DEFAULT
 10
62.35864673756761
 20
-15.63035348415003
 30
0.0
  0
VERTEX
  5
25D
  8
DEFAULT
 10
62.14204115594826
 20
-15.91448940539715
 30
0.0
  0
VERTEX
  5
25E
  8
DEFAULT
 10
61.92444500002271
 20
-16.18760518748795
 30
0.0
  0
VERTEX
  5
25F
  8
DEFAULT
 10
61.70605638465223
 20
-16.45001038489312
 30
0.0
  0
VERTEX
  5
260
  8
DEFAULT
 10
61.48707342469802
 20
-16.70201455208333
 30
0.0
  0
VERTEX
  5
261
  8
DEFAULT
 10
61.26769423502135
 20
-16.94392724352927
 30
0.0
  0
VERTEX
  5
262
  8
DEFAULT
 10
61.04811693048343
 20
-17.17605801370162
 30
0.0
  0
VERTEX
  5
263
  8
DEFAULT
 10
60.82853962594552
 20
-17.39871641707107
 30
0.0
  0
VERTEX
  5
264
  8
DEFAULT
 10
60.60916043626884
 20
-17.61221200810829
 30
0.0
  0
VERTEX
  5
265
  8
DEFAULT
 10
60.39017747631463
 20
-17.81685434128399
 30
0.0
  0
VERTEX
  5
266
  8
DEFAULT
 10
60.17178886094415
 20
-18.01295297106882
 30
0.0
  0
VERTEX
  5
267
  8
DEFAULT
 10
59.9541927050186
 20
-18.20081745193348
 30
0.0
  0
VERTEX
  5
268
  8
DEFAULT
 10
59.73749838445097
 20
-18.38078623009925
 30
0.0
  0
VERTEX
  5
269
  8
DEFAULT
 10
59.52146031936121
 20
-18.5533133187898
 30
0.0
  0
VERTEX
  5
26A
  8
DEFAULT
 10
59.30574419092095
 20
-18.71888162297939
 30
0.0
  0
VERTEX
  5
26B
  8
DEFAULT
 10
59.09001568030186
 20
-18.87797404764229
 30
0.0
  0
VERTEX
  5
26C
  8
DEFAULT
 10
58.87394046867561
 20
-19.03107349775276
 30
0.0
  0
VERTEX
  5
26D
  8
DEFAULT
 10
58.65718423721385
 20
-19.17866287828507
 30
0.0
  0
VERTEX
  5
26E
  8
DEFAULT
 10
58.43941266708825
 20
-19.3212250942135
 30
0.0
  0
VERTEX
  5
26F
  8
DEFAULT
 10
58.22029143947047
 20
-19.45924305051228
 30
0.0
  0
VERTEX
  5
270
  8
DEFAULT
 10
57.77666273644503
 20
-19.72357780411804
 30
0.0
  0
VERTEX
  5
271
  8
DEFAULT
 10
57.32362357751082
 20
-19.97553037889647
 30
0.0
  0
VERTEX
  5
272
  8
DEFAULT
 10
56.85849941204114
 20
-20.2189640146417
 30
0.0
  0
VERTEX
  5
273
  8
DEFAULT
 10
56.3786156894093
 20
-20.45774195114786
 30
0.0
  0
VERTEX
  5
274
  8
DEFAULT
 10
55.88047238040009
 20
-20.69496798790766
 30
0.0
  0
VERTEX
  5
275
  8
DEFAULT
 10
55.35726754144437
 20
-20.93070816320818
 30
0.0
  0
VERTEX
  5
276
  8
DEFAULT
 10
54.8013737503845
 20
-21.16426907503509
 30
0.0
  0
VERTEX
  5
277
  8
DEFAULT
 10
54.20516358506286
 20
-21.39495732137406
 30
0.0
  0
VERTEX
  5
278
  8
DEFAULT
 10
53.56100962332182
 20
-21.62207950021076
 30
0.0
  0
VERTEX
  5
279
  8
DEFAULT
 10
52.86128444300374
 20
-21.84494220953086
 30
0.0
  0
VERTEX
  5
27A
  8
DEFAULT
 10
52.09836062195099
 20
-22.06285204732003
 30
0.0
  0
VERTEX
  5
27B
  8
DEFAULT
 10
51.26461073800593
 20
-22.27511561156394
 30
0.0
  0
VERTEX
  5
27C
  8
DEFAULT
 10
50.35603947480028
 20
-22.48098997153294
 30
0.0
  0
VERTEX
  5
27D
  8
DEFAULT
 10
49.38317993912316
 20
-22.67953408163618
 30
0.0
  0
VERTEX
  5
27E
  8
DEFAULT
 10
47.30125690066832
 20
-23.05066925502057
 30
0.0
  0
VERTEX
  5
27F
  8
DEFAULT
 10
45.1321633232691
 20
-23.38059653726761
 30
0.0
  0
VERTEX
  5
280
  8
DEFAULT
 10
42.9892209075532
 20
-23.66139133392783
 30
0.0
  0
VERTEX
  5
281
  8
DEFAULT
 10
40.96752478691447
 20
-23.88565735684836
 30
0.0
  0
VERTEX
  5
282
  8
DEFAULT
 10
39.0892638258115
 20
-24.04811154306288
 30
0.0
  0
VERTEX
  5
283
  8
DEFAULT
 10
38.20515974796865
 20
-24.1046733359461
 30
0.0
  0
VERTEX
  5
284
  8
DEFAULT
 10
37.35840032146901
 20
-24.14399913590169
 30
0.0
  0
VERTEX
  5
285
  8
DEFAULT
 10
36.54948083346568
 20
-24.16549459834593
 30
0.0
  0
VERTEX
  5
286
  8
DEFAULT
 10
35.77889657111176
 20
-24.1685653786951
 30
0.0
  0
VERTEX
  5
287
  8
DEFAULT
 10
35.04588809410582
 20
-24.15291430465736
 30
0.0
  0
VERTEX
  5
288
  8
DEFAULT
 10
34.34467705232846
 20
-24.11943289310827
 30
0.0
  0
VERTEX
  5
289
  8
DEFAULT
 10
33.66823036820576
 20
-24.06930983321525
 30
0.0
  0
VERTEX
  5
28A
  8
DEFAULT
 10
33.00951496416377
 20
-24.00373381414573
 30
0.0
  0
VERTEX
  5
28B
  8
DEFAULT
 10
32.3614977626286
 20
-23.92389352506714
 30
0.0
  0
VERTEX
  5
28C
  8
DEFAULT
 10
31.71714568602632
 20
-23.83097765514688
 30
0.0
  0
VERTEX
  5
28D
  8
DEFAULT
 10
30.41130459732475
 20
-23.6106739294511
 30
0.0
  0
VERTEX
  5
28E
  8
DEFAULT
 10
29.05118003664417
 20
-23.35008684863708
 30
0.0
  0
VERTEX
  5
28F
  8
DEFAULT
 10
27.65777217927574
 20
-23.04749941724077
 30
0.0
  0
VERTEX
  5
290
  8
DEFAULT
 10
26.95997861885472
 20
-22.87921735219152
 30
0.0
  0
VERTEX
  5
291
  8
DEFAULT
 10
26.26753415968711
 20
-22.69894933803742
 30
0.0
  0
VERTEX
  5
292
  8
DEFAULT
 10
25.58499544358135
 20
-22.50620008762538
 30
0.0
  0
VERTEX
  5
293
  8
DEFAULT
 10
24.91691911234592
 20
-22.3004743138023
 30
0.0
  0
VERTEX
  5
294
  8
DEFAULT
 10
24.26680519519599
 20
-22.08102908583854
 30
0.0
  0
VERTEX
  5
295
  8
DEFAULT
 10
23.63392727097369
 20
-21.84613089869828
 30
0.0
  0
VERTEX
  5
296
  8
DEFAULT
 10
23.0165023059279
 20
-21.59379860376914
 30
0.0
  0
VERTEX
  5
297
  8
DEFAULT
 10
22.71302748504897
 20
-21.46047555694238
 30
0.0
  0
VERTEX
  5
298
  8
DEFAULT
 10
22.41274726630748
 20
-21.32205105243876
 30
0.0
  0
VERTEX
  5
299
  8
DEFAULT
 10
22.11543877048456
 20
-21.17827744668174
 30
0.0
  0
VERTEX
  5
29A
  8
DEFAULT
 10
21.8208791183613
 20
-21.02890709609476
 30
0.0
  0
VERTEX
  5
29B
  8
DEFAULT
 10
21.52884543071881
 20
-20.87369235710128
 30
0.0
  0
VERTEX
  5
29C
  8
DEFAULT
 10
21.23911482833821
 20
-20.71238558612476
 30
0.0
  0
VERTEX
  5
29D
  8
DEFAULT
 10
20.9514644320006
 20
-20.54473913958865
 30
0.0
  0
VERTEX
  5
29E
  8
DEFAULT
 10
20.66567136248708
 20
-20.37050537391641
 30
0.0
  0
VERTEX
  5
29F
  8
DEFAULT
 10
20.38151274057878
 20
-20.18943664553147
 30
0.0
  0
VERTEX
  5
2A0
  8
DEFAULT
 10
20.09876568705679
 20
-20.00128531085731
 30
0.0
  0
VERTEX
  5
2A1
  8
DEFAULT
 10
19.81724087353652
 20
-19.80581267819516
 30
0.0
  0
VERTEX
  5
2A2
  8
DEFAULT
 10
19.53688317497057
 20
-19.60281586335742
 30
0.0
  0
VERTEX
  5
2A3
  8
DEFAULT
 10
19.25767101714585
 20
-19.39210093403426
 30
0.0
  0
VERTEX
  5
2A4
  8
DEFAULT
 10
18.97958282584923
 20
-19.17347395791589
 30
0.0
  0
VERTEX
  5
2A5
  8
DEFAULT
 10
18.70259702686764
 20
-18.94674100269248
 30
0.0
  0
VERTEX
  5
2A6
  8
DEFAULT
 10
18.42669204598796
 20
-18.71170813605421
 30
0.0
  0
VERTEX
  5
2A7
  8
DEFAULT
 10
18.1518463089971
 20
-18.46818142569127
 30
0.0
  0
VERTEX
  5
2A8
  8
DEFAULT
 10
17.87803824168195
 20
-18.21596693929385
 30
0.0
  0
VERTEX
  5
2A9
  8
DEFAULT
 10
17.60524626982941
 20
-17.95487074455212
 30
0.0
  0
VERTEX
  5
2AA
  8
DEFAULT
 10
17.33344881922638
 20
-17.68469890915628
 30
0.0
  0
VERTEX
  5
2AB
  8
DEFAULT
 10
17.06262431565975
 20
-17.40525750079651
 30
0.0
  0
VERTEX
  5
2AC
  8
DEFAULT
 10
16.79275118491644
 20
-17.11635258716299
 30
0.0
  0
VERTEX
  5
2AD
  8
DEFAULT
 10
16.52380785278333
 20
-16.8177902359459
 30
0.0
  0
VERTEX
  5
2AE
  8
DEFAULT
 10
16.25577274504732
 20
-16.50937651483544
 30
0.0
  0
VERTEX
  5
2AF
  8
DEFAULT
 10
15.7223409059142
 20
-15.86221923369511
 30
0.0
  0
VERTEX
  5
2B0
  8
DEFAULT
 10
15.19265632085706
 20
-15.17395902400821
 30
0.0
  0
VERTEX
  5
2B1
  8
DEFAULT
 10
14.66841263139501
 20
-14.44619312101979
 30
0.0
  0
VERTEX
  5
2B2
  8
DEFAULT
 10
14.15167672609197
 20
-13.68114849871962
 30
0.0
  0
VERTEX
  5
2B3
  8
DEFAULT
 10
13.64451549351183
 20
-12.88105213109749
 30
0.0
  0
VERTEX
  5
2B4
  8
DEFAULT
 10
13.14899582221849
 20
-12.04813099214319
 30
0.0
  0
VERTEX
  5
2B5
  8
DEFAULT
 10
12.66718460077586
 20
-11.18461205584648
 30
0.0
  0
VERTEX
  5
2B6
  8
DEFAULT
 10
12.20114871774785
 20
-10.29272229619715
 30
0.0
  0
VERTEX
  5
2B7
  8
DEFAULT
 10
11.75295506169835
 20
-9.374688687184982
 30
0.0
  0
VERTEX
  5
2B8
  8
DEFAULT
 10
11.32428276428009
 20
-8.433966633824847
 30
0.0
  0
VERTEX
  5
2B9
  8
DEFAULT
 10
10.91525992950105
 20
-7.47892526523201
 30
0.0
  0
VERTEX
  5
2BA
  8
DEFAULT
 10
10.15512403624779
 20
-5.564274822909685
 30
0.0
  0
VERTEX
  5
2BB
  8
DEFAULT
 10
6.622094476258304
 20
4.257344519072846
 30
0.0
  0
VERTEX
  5
2BC
  8
DEFAULT
 10
6.427485056216887
 20
4.747702065001003
 30
0.0
  0
VERTEX
  5
2BD
  8
DEFAULT
 10
6.334884960696247
 20
4.963358270065847
 30
0.0
  0
VERTEX
  5
2BE
  8
DEFAULT
 10
6.242264419816905
 20
5.165621726125327
 30
0.0
  0
VERTEX
  5
2BF
  8
DEFAULT
 10
6.195168898063679
 20
5.263116258726612
 30
0.0
  0
VERTEX
  5
2C0
  8
DEFAULT
 10
6.146954221050107
 20
5.358498033474508
 30
0.0
  0
VERTEX
  5
2C1
  8
DEFAULT
 10
6.09709825517278
 20
5.451823299218071
 30
0.0
  0
VERTEX
  5
2C2
  8
DEFAULT
 10
6.045078866828289
 20
5.543148304806353
 30
0.0
  0
VERTEX
  5
2C3
  8
DEFAULT
 10
5.990373922413228
 20
5.632529299088409
 30
0.0
  0
VERTEX
  5
2C4
  8
DEFAULT
 10
5.961851199928168
 20
5.676508369754933
 30
0.0
  0
VERTEX
  5
2C5
  8
DEFAULT
 10
5.932461288324188
 20
5.720022530913294
 30
0.0
  0
VERTEX
  5
2C6
  8
DEFAULT
 10
5.90213892090086
 20
5.763078813669627
 30
0.0
  0
VERTEX
  5
2C7
  8
DEFAULT
 10
5.870818830957761
 20
5.805684249130062
 30
0.0
  0
VERTEX
  5
2C8
  8
DEFAULT
 10
5.838435751794462
 20
5.84784586840073
 30
0.0
  0
VERTEX
  5
2C9
  8
DEFAULT
 10
5.80492441671054
 20
5.889570702587767
 30
0.0
  0
VERTEX
  5
2CA
  8
DEFAULT
 10
5.770219559005566
 20
5.9308657827973
 30
0.0
  0
VERTEX
  5
2CB
  8
DEFAULT
 10
5.734255911979116
 20
5.971738140135463
 30
0.0
  0
VERTEX
  5
2CC
  8
DEFAULT
 10
5.696968208930764
 20
6.012194805708386
 30
0.0
  0
VERTEX
  5
2CD
  8
DEFAULT
 10
5.658291183160083
 20
6.052242810622204
 30
0.0
  0
VERTEX
  5
2CE
  8
DEFAULT
 10
5.618159567966647
 20
6.091889185983046
 30
0.0
  0
VERTEX
  5
2CF
  8
DEFAULT
 10
5.576508096650032
 20
6.131140962897045
 30
0.0
  0
VERTEX
  5
2D0
  8
DEFAULT
 10
5.533271502509809
 20
6.170005172470333
 30
0.0
  0
VERTEX
  5
2D1
  8
DEFAULT
 10
5.488384518845554
 20
6.20848884580904
 30
0.0
  0
VERTEX
  5
2D2
  8
DEFAULT
 10
5.44178187895684
 20
6.246599014019299
 30
0.0
  0
VERTEX
  5
2D3
  8
DEFAULT
 10
5.393398316143243
 20
6.284342708207243
 30
0.0
  0
VERTEX
  5
2D4
  8
DEFAULT
 10
5.343168563704335
 20
6.321726959479001
 30
0.0
  0
VERTEX
  5
2D5
  8
DEFAULT
 10
5.291027354939691
 20
6.358758798940707
 30
0.0
  0
VERTEX
  5
2D6
  8
DEFAULT
 10
5.236909423148884
 20
6.395445257698492
 30
0.0
  0
VERTEX
  5
2D7
  8
DEFAULT
 10
5.180749501631489
 20
6.431793366858489
 30
0.0
  0
VERTEX
  5
2D8
  8
DEFAULT
 10
5.12248232368708
 20
6.467810157526828
 30
0.0
  0
VERTEX
  5
2D9
  8
DEFAULT
 10
5.062042622615229
 20
6.503502660809643
 30
0.0
  0
VERTEX
  5
2DA
  8
DEFAULT
 10
4.999316598877327
 20
6.538868474079766
 30
0.0
  0
VERTEX
  5
2DB
  8
DEFAULT
 10
4.933996321582016
 20
6.573867459776839
 30
0.0
  0
VERTEX
  5
2DC
  8
DEFAULT
 10
4.865725326999756
 20
6.608450046607207
 30
0.0
  0
VERTEX
  5
2DD
  8
DEFAULT
 10
4.794147151401003
 20
6.642566663277217
 30
0.0
  0
VERTEX
  5
2DE
  8
DEFAULT
 10
4.718905331056217
 20
6.676167738493211
 30
0.0
  0
VERTEX
  5
2DF
  8
DEFAULT
 10
4.639643402235853
 20
6.709203700961536
 30
0.0
  0
VERTEX
  5
2E0
  8
DEFAULT
 10
4.556004901210374
 20
6.741624979388536
 30
0.0
  0
VERTEX
  5
2E1
  8
DEFAULT
 10
4.467633364250233
 20
6.773382002480555
 30
0.0
  0
VERTEX
  5
2E2
  8
DEFAULT
 10
4.374172327625891
 20
6.804425198943939
 30
0.0
  0
VERTEX
  5
2E3
  8
DEFAULT
 10
4.275265327607807
 20
6.83470499748503
 30
0.0
  0
VERTEX
  5
2E4
  8
DEFAULT
 10
4.170555900466437
 20
6.864171826810177
 30
0.0
  0
VERTEX
  5
2E5
  8
DEFAULT
 10
4.059687582472239
 20
6.89277611562572
 30
0.0
  0
VERTEX
  5
2E6
  8
DEFAULT
 10
3.942303909895671
 20
6.920468292638008
 30
0.0
  0
VERTEX
  5
2E7
  8
DEFAULT
 10
3.818048419007193
 20
6.947198786553383
 30
0.0
  0
VERTEX
  5
2E8
  8
DEFAULT
 10
3.686564646077261
 20
6.97291802607819
 30
0.0
  0
VERTEX
  5
2E9
  8
DEFAULT
 10
3.547496127376335
 20
6.997576439918774
 30
0.0
  0
VERTEX
  5
2EA
  8
DEFAULT
 10
3.24517899774333
 20
7.043512505372654
 30
0.0
  0
VERTEX
  5
2EB
  8
DEFAULT
 10
2.908245320271843
 20
7.08461041256578
 30
0.0
  0
VERTEX
  5
2EC
  8
DEFAULT
 10
2.533843385125537
 20
7.12047359114891
 30
0.0
  0
VERTEX
  5
2ED
  8
DEFAULT
 10
2.119121482468077
 20
7.150705470772802
 30
0.0
  0
VERTEX
  5
2EE
  8
DEFAULT
 10
1.661227902463129
 20
7.174909481088214
 30
0.0
  0
VERTEX
  5
2EF
  8
DEFAULT
 10
1.157310935274357
 20
7.192689051745903
 30
0.0
  0
VERTEX
  5
2F0
  8
DEFAULT
 10
0.0
 20
7.207388592691146
 30
0.0
  0
VERTEX
  5
2F1
  8
DEFAULT
 10
-1.157310935274357
 20
7.192689051745903
 30
0.0
  0
VERTEX
  5
2F2
  8
DEFAULT
 10
-1.661227902463129
 20
7.174909481088214
 30
0.0
  0
VERTEX
  5
2F3
  8
DEFAULT
 10
-2.119121482468077
 20
7.150705470772802
 30
0.0
  0
VERTEX
  5
2F4
  8
DEFAULT
 10
-2.533843385125537
 20
7.12047359114891
 30
0.0
  0
VERTEX
  5
2F5
  8
DEFAULT
 10
-2.908245320271843
 20
7.08461041256578
 30
0.0
  0
VERTEX
  5
2F6
  8
DEFAULT
 10
-3.24517899774333
 20
7.043512505372654
 30
0.0
  0
VERTEX
  5
2F7
  8
DEFAULT
 10
-3.547496127376335
 20
6.997576439918774
 30
0.0
  0
VERTEX
  5
2F8
  8
DEFAULT
 10
-3.686564646077261
 20
6.97291802607819
 30
0.0
  0
VERTEX
  5
2F9
  8
DEFAULT
 10
-3.818048419007193
 20
6.947198786553383
 30
0.0
  0
VERTEX
  5
2FA
  8
DEFAULT
 10
-3.942303909895671
 20
6.920468292638008
 30
0.0
  0
VERTEX
  5
2FB
  8
DEFAULT
 10
-4.059687582472239
 20
6.89277611562572
 30
0.0
  0
VERTEX
  5
2FC
  8
DEFAULT
 10
-4.170555900466437
 20
6.864171826810177
 30
0.0
  0
VERTEX
  5
2FD
  8
DEFAULT
 10
-4.275265327607807
 20
6.83470499748503
 30
0.0
  0
VERTEX
  5
2FE
  8
DEFAULT
 10
-4.374172327625891
 20
6.804425198943939
 30
0.0
  0
VERTEX
  5
2FF
  8
DEFAULT
 10
-4.467633364250233
 20
6.773382002480555
 30
0.0
  0
VERTEX
  5
300
  8
DEFAULT
 10
-4.556004901210374
 20
6.741624979388536
 30
0.0
  0
VERTEX
  5
301
  8
DEFAULT
 10
-4.639643402235853
 20
6.709203700961536
 30
0.0
  0
VERTEX
  5
302
  8
DEFAULT
 10
-4.718905331056217
 20
6.676167738493211
 30
0.0
  0
VERTEX
  5
303
  8
DEFAULT
 10
-4.794147151401003
 20
6.642566663277217
 30
0.0
  0
VERTEX
  5
304
  8
DEFAULT
 10
-4.865725326999756
 20
6.608450046607207
 30
0.0
  0
VERTEX
  5
305
  8
DEFAULT
 10
-4.933996321582016
 20
6.573867459776839
 30
0.0
  0
VERTEX
  5
306
  8
DEFAULT
 10
-4.999316598877327
 20
6.538868474079766
 30
0.0
  0
VERTEX
  5
307
  8
DEFAULT
 10
-5.062042622615229
 20
6.503502660809644
 30
0.0
  0
VERTEX
  5
308
  8
DEFAULT
 10
-5.12248232368708
 20
6.467810157526828
 30
0.0
  0
VERTEX
  5
309
  8
DEFAULT
 10
-5.180749501631489
 20
6.431793366858489
 30
0.0
  0
VERTEX
  5
30A
  8
DEFAULT
 10
-5.236909423148884
 20
6.395445257698492
 30
0.0
  0
VERTEX
  5
30B
  8
DEFAULT
 10
-5.291027354939691
 20
6.358758798940707
 30
0.0
  0
VERTEX
  5
30C
  8
DEFAULT
 10
-5.343168563704335
 20
6.321726959479001
 30
0.0
  0
VERTEX
  5
30D
  8
DEFAULT
 10
-5.393398316143243
 20
6.284342708207243
 30
0.0
  0
VERTEX
  5
30E
  8
DEFAULT
 10
-5.44178187895684
 20
6.246599014019299
 30
0.0
  0
VERTEX
  5
30F
  8
DEFAULT
 10
-5.488384518845554
 20
6.20848884580904
 30
0.0
  0
VERTEX
  5
310
  8
DEFAULT
 10
-5.533271502509809
 20
6.170005172470333
 30
0.0
  0
VERTEX
  5
311
  8
DEFAULT
 10
-5.576508096650032
 20
6.131140962897045
 30
0.0
  0
VERTEX
  5
312
  8
DEFAULT
 10
-5.618159567966647
 20
6.091889185983046
 30
0.0
  0
VERTEX
  5
313
  8
DEFAULT
 10
-5.658291183160083
 20
6.052242810622204
 30
0.0
  0
VERTEX
  5
314
  8
DEFAULT
 10
-5.696968208930764
 20
6.012194805708386
 30
0.0
  0
VERTEX
  5
315
  8
DEFAULT
 10
-5.734255911979116
 20
5.971738140135463
 30
0.0
  0
VERTEX
  5
316
  8
DEFAULT
 10
-5.770219559005566
 20
5.9308657827973
 30
0.0
  0
VERTEX
  5
317
  8
DEFAULT
 10
-5.80492441671054
 20
5.889570702587767
 30
0.0
  0
VERTEX
  5
318
  8
DEFAULT
 10
-5.838435751794462
 20
5.84784586840073
 30
0.0
  0
VERTEX
  5
319
  8
DEFAULT
 10
-5.870818830957761
 20
5.805684249130062
 30
0.0
  0
VERTEX
  5
31A
  8
DEFAULT
 10
-5.90213892090086
 20
5.763078813669627
 30
0.0
  0
VERTEX
  5
31B
  8
DEFAULT
 10
-5.932461288324188
 20
5.720022530913294
 30
0.0
  0
VERTEX
  5
31C
  8
DEFAULT
 10
-5.961851199928168
 20
5.676508369754933
 30
0.0
  0
VERTEX
  5
31D
  8
DEFAULT
 10
-5.990373922413228
 20
5.632529299088409
 30
0.0
  0
VERTEX
  5
31E
  8
DEFAULT
 10
-6.045078866828289
 20
5.543148304806353
 30
0.0
  0
VERTEX
  5
31F
  8
DEFAULT
 10
-6.09709825517278
 20
5.451823299218071
 30
0.0
  0
VERTEX
  5
320
  8
DEFAULT
 10
-6.146954221050107
 20
5.358498033474508
 30
0.0
  0
VERTEX
  5
321
  8
DEFAULT
 10
-6.195168898063679
 20
5.263116258726612
 30
0.0
  0
VERTEX
  5
322
  8
DEFAULT
 10
-6.242264419816905
 20
5.165621726125327
 30
0.0
  0
VERTEX
  5
323
  8
DEFAULT
 10
-6.334884960696247
 20
4.963358270065847
 30
0.0
  0
VERTEX
  5
324
  8
DEFAULT
 10
-6.427485056216887
 20
4.747702065001004
 30
0.0
  0
VERTEX
  5
325
  8
DEFAULT
 10
-6.622094476258304
 20
4.257344519072847
 30
0.0
  0
VERTEX
  5
326
  8
DEFAULT
 10
-10.15512403624779
 20
-5.564274822909685
 30
0.0
  0
VERTEX
  5
327
  8
DEFAULT
 10
-10.91525992950105
 20
-7.47892526523201
 30
0.0
  0
VERTEX
  5
328
  8
DEFAULT
 10
-11.32428276428009
 20
-8.433966633824847
 30
0.0
  0
VERTEX
  5
329
  8
DEFAULT
 10
-11.75295506169835
 20
-9.374688687184982
 30
0.0
  0
VERTEX
  5
32A
  8
DEFAULT
 10
-12.20114871774785
 20
-10.29272229619715
 30
0.0
  0
VERTEX
  5
32B
  8
DEFAULT
 10
-12.66718460077586
 20
-11.18461205584648
 30
0.0
  0
VERTEX
  5
32C
  8
DEFAULT
 10
-13.14899582221849
 20
-12.04813099214319
 30
0.0
  0
VERTEX
  5
32D
  8
DEFAULT
 10
-13.64451549351183
 20
-12.8810521310975
 30
0.0
  0
VERTEX
  5
32E
  8
DEFAULT
 10
-14.15167672609197
 20
-13.68114849871962
 30
0.0
  0
VERTEX
  5
32F
  8
DEFAULT
 10
-14.66841263139501
 20
-14.44619312101979
 30
0.0
  0
VERTEX
  5
330
  8
DEFAULT
 10
-15.19265632085706
 20
-15.17395902400821
 30
0.0
  0
VERTEX
  5
331
  8
DEFAULT
 10
-15.7223409059142
 20
-15.86221923369511
 30
0.0
  0
VERTEX
  5
332
  8
DEFAULT
 10
-16.25577274504732
 20
-16.50937651483544
 30
0.0
  0
VERTEX
  5
333
  8
DEFAULT
 10
-16.52380785278333
 20
-16.8177902359459
 30
0.0
  0
VERTEX
  5
334
  8
DEFAULT
 10
-16.79275118491644
 20
-17.11635258716299
 30
0.0
  0
VERTEX
  5
335
  8
DEFAULT
 10
-17.06262431565975
 20
-17.40525750079651
 30
0.0
  0
VERTEX
  5
336
  8
DEFAULT
 10
-17.33344881922638
 20
-17.68469890915628
 30
0.0
  0
VERTEX
  5
337
  8
DEFAULT
 10
-17.60524626982941
 20
-17.95487074455212
 30
0.0
  0
VERTEX
  5
338
  8
DEFAULT
 10
-17.87803824168195
 20
-18.21596693929385
 30
0.0
  0
VERTEX
  5
339
  8
DEFAULT
 10
-18.1518463089971
 20
-18.46818142569127
 30
0.0
  0
VERTEX
  5
33A
  8
DEFAULT
 10
-18.42669204598796
 20
-18.71170813605421
 30
0.0
  0
VERTEX
  5
33B
  8
DEFAULT
 10
-18.70259702686764
 20
-18.94674100269248
 30
0.0
  0
VERTEX
  5
33C
  8
DEFAULT
 10
-18.97958282584923
 20
-19.17347395791589
 30
0.0
  0
VERTEX
  5
33D
  8
DEFAULT
 10
-19.25767101714585
 20
-19.39210093403426
 30
0.0
  0
VERTEX
  5
33E
  8
DEFAULT
 10
-19.53688317497057
 20
-19.60281586335742
 30
0.0
  0
VERTEX
  5
33F
  8
DEFAULT
 10
-19.81724087353652
 20
-19.80581267819516
 30
0.0
  0
VERTEX
  5
340
  8
DEFAULT
 10
-20.09876568705679
 20
-20.00128531085731
 30
0.0
  0
VERTEX
  5
341
  8
DEFAULT
 10
-20.38151274057878
 20
-20.18943664553147
 30
0.0
  0
VERTEX
  5
342
  8
DEFAULT
 10
-20.66567136248708
 20
-20.37050537391641
 30
0.0
  0
VERTEX
  5
343
  8
DEFAULT
 10
-20.9514644320006
 20
-20.54473913958865
 30
0.0
  0
VERTEX
  5
344
  8
DEFAULT
 10
-21.23911482833821
 20
-20.71238558612476
 30
0.0
  0
VERTEX
  5
345
  8
DEFAULT
 10
-21.52884543071881
 20
-20.87369235710128
 30
0.0
  0
VERTEX
  5
346
  8
DEFAULT
 10
-21.8208791183613
 20
-21.02890709609476
 30
0.0
  0
VERTEX
  5
347
  8
DEFAULT
 10
-22.11543877048456
 20
-21.17827744668174
 30
0.0
  0
VERTEX
  5
348
  8
DEFAULT
 10
-22.41274726630748
 20
-21.32205105243876
 30
0.0
  0
VERTEX
  5
349
  8
DEFAULT
 10
-22.71302748504897
 20
-21.46047555694238
 30
0.0
  0
VERTEX
  5
34A
  8
DEFAULT
 10
-23.0165023059279
 20
-21.59379860376914
 30
0.0
  0
VERTEX
  5
34B
  8
DEFAULT
 10
-23.63392727097369
 20
-21.84613089869828
 30
0.0
  0
VERTEX
  5
34C
  8
DEFAULT
 10
-24.26680519519599
 20
-22.08102908583854
 30
0.0
  0
VERTEX
  5
34D
  8
DEFAULT
 10
-24.91691911234592
 20
-22.3004743138023
 30
0.0
  0
VERTEX
  5
34E
  8
DEFAULT
 10
-25.58499544358135
 20
-22.50620008762538
 30
0.0
  0
VERTEX
  5
34F
  8
DEFAULT
 10
-26.26753415968711
 20
-22.69894933803742
 30
0.0
  0
VERTEX
  5
350
  8
DEFAULT
 10
-26.95997861885472
 20
-22.87921735219152
 30
0.0
  0
VERTEX
  5
351
  8
DEFAULT
 10
-27.65777217927574
 20
-23.04749941724077
 30
0.0
  0
VERTEX
  5
352
  8
DEFAULT
 10
-29.05118003664417
 20
-23.35008684863708
 30
0.0
  0
VERTEX
  5
353
  8
DEFAULT
 10
-30.41130459732475
 20
-23.6106739294511
 30
0.0
  0
VERTEX
  5
354
  8
DEFAULT
 10
-31.71714568602632
 20
-23.83097765514688
 30
0.0
  0
VERTEX
  5
355
  8
DEFAULT
 10
-32.3614977626286
 20
-23.92389352506714
 30
0.0
  0
VERTEX
  5
356
  8
DEFAULT
 10
-33.00951496416377
 20
-24.00373381414574
 30
0.0
  0
VERTEX
  5
357
  8
DEFAULT
 10
-33.66823036820576
 20
-24.06930983321526
 30
0.0
  0
VERTEX
  5
358
  8
DEFAULT
 10
-34.34467705232846
 20
-24.11943289310828
 30
0.0
  0
VERTEX
  5
359
  8
DEFAULT
 10
-35.04588809410581
 20
-24.15291430465737
 30
0.0
  0
VERTEX
  5
35A
  8
DEFAULT
 10
-35.77889657111175
 20
-24.1685653786951
 30
0.0
  0
VERTEX
  5
35B
  8
DEFAULT
 10
-36.54948083346568
 20
-24.16549459834592
 30
0.0
  0
VERTEX
  5
35C
  8
DEFAULT
 10
-37.35840032146901
 20
-24.14399913590168
 30
0.0
  0
VERTEX
  5
35D
  8
DEFAULT
 10
-38.20515974796865
 20
-24.1046733359461
 30
0.0
  0
VERTEX
  5
35E
  8
DEFAULT
 10
-39.0892638258115
 20
-24.04811154306287
 30
0.0
  0
VERTEX
  5
35F
  8
DEFAULT
 10
-40.96752478691447
 20
-23.88565735684836
 30
0.0
  0
VERTEX
  5
360
  8
DEFAULT
 10
-42.9892209075532
 20
-23.66139133392782
 30
0.0
  0
VERTEX
  5
361
  8
DEFAULT
 10
-45.1321633232691
 20
-23.38059653726761
 30
0.0
  0
VERTEX
  5
362
  8
DEFAULT
 10
-47.30125690066832
 20
-23.05066925502057
 30
0.0
  0
VERTEX
  5
363
  8
DEFAULT
 10
-49.38317993912316
 20
-22.67953408163618
 30
0.0
  0
VERTEX
  5
364
  8
DEFAULT
 10
-50.35603947480028
 20
-22.48098997153295
 30
0.0
  0
VERTEX
  5
365
  8
DEFAULT
 10
-51.26461073800593
 20
-22.27511561156394
 30
0.0
  0
VERTEX
  5
366
  8
DEFAULT
 10
-52.09836062195099
 20
-22.06285204732003
 30
0.0
  0
VERTEX
  5
367
  8
DEFAULT
 10
-52.86128444300375
 20
-21.84494220953086
 30
0.0
  0
VERTEX
  5
368
  8
DEFAULT
 10
-53.56100962332184
 20
-21.62207950021076
 30
0.0
  0
VERTEX
  5
369
  8
DEFAULT
 10
-54.20516358506288
 20
-21.39495732137406
 30
0.0
  0
VERTEX
  5
36A
  8
DEFAULT
 10
-54.80137375038451
 20
-21.16426907503509
 30
0.0
  0
VERTEX
  5
36B
  8
DEFAULT
 10
-55.35726754144437
 20
-20.93070816320818
 30
0.0
  0
VERTEX
  5
36C
  8
DEFAULT
 10
-55.88047238040009
 20
-20.69496798790766
 30
0.0
  0
VERTEX
  5
36D
  8
DEFAULT
 10
-56.3786156894093
 20
-20.45774195114786
 30
0.0
  0
VERTEX
  5
36E
  8
DEFAULT
 10
-56.85849941204116
 20
-20.2189640146417
 30
0.0
  0
VERTEX
  5
36F
  8
DEFAULT
 10
-57.32362357751084
 20
-19.97553037889647
 30
0.0
  0
VERTEX
  5
370
  8
DEFAULT
 10
-57.77666273644505
 20
-19.72357780411804
 30
0.0
  0
VERTEX
  5
371
  8
DEFAULT
 10
-58.22029143947049
 20
-19.45924305051228
 30
0.0
  0
VERTEX
  5
372
  8
DEFAULT
 10
-58.43941266708826
 20
-19.32122509421349
 30
0.0
  0
VERTEX
  5
373
  8
DEFAULT
 10
-58.65718423721386
 20
-19.17866287828507
 30
0.0
  0
VERTEX
  5
374
  8
DEFAULT
 10
-58.87394046867563
 20
-19.03107349775275
 30
0.0
  0
VERTEX
  5
375
  8
DEFAULT
 10
-59.09001568030187
 20
-18.87797404764228
 30
0.0
  0
VERTEX
  5
376
  8
DEFAULT
 10
-59.30574419092096
 20
-18.71888162297938
 30
0.0
  0
VERTEX
  5
377
  8
DEFAULT
 10
-59.52146031936122
 20
-18.55331331878979
 30
0.0
  0
VERTEX
  5
378
  8
DEFAULT
 10
-59.73749838445099
 20
-18.38078623009924
 30
0.0
  0
VERTEX
  5
379
  8
DEFAULT
 10
-59.95419270501861
 20
-18.20081745193347
 30
0.0
  0
VERTEX
  5
37A
  8
DEFAULT
 10
-60.17178886094416
 20
-18.01295297106881
 30
0.0
  0
VERTEX
  5
37B
  8
DEFAULT
 10
-60.39017747631465
 20
-17.81685434128397
 30
0.0
  0
VERTEX
  5
37C
  8
DEFAULT
 10
-60.60916043626885
 20
-17.61221200810829
 30
0.0
  0
VERTEX
  5
37D
  8
DEFAULT
 10
-60.82853962594552
 20
-17.39871641707106
 30
0.0
  0
VERTEX
  5
37E
  8
DEFAULT
 10
-61.04811693048345
 20
-17.17605801370162
 30
0.0
  0
VERTEX
  5
37F
  8
DEFAULT
 10
-61.26769423502135
 20
-16.94392724352927
 30
0.0
  0
VERTEX
  5
380
  8
DEFAULT
 10
-61.48707342469802
 20
-16.70201455208333
 30
0.0
  0
VERTEX
  5
381
  8
DEFAULT
 10
-61.70605638465223
 20
-16.45001038489313
 30
0.0
  0
VERTEX
  5
382
  8
DEFAULT
 10
-61.92444500002271
 20
-16.18760518748796
 30
0.0
  0
VERTEX
  5
383
  8
DEFAULT
 10
-62.14204115594826
 20
-15.91448940539717
 30
0.0
  0
VERTEX
  5
384
  8
DEFAULT
 10
-62.35864673756761
 20
-15.63035348415005
 30
0.0
  0
VERTEX
  5
385
  8
DEFAULT
 10
-62.57406363001954
 20
-15.33488786927593
 30
0.0
  0
VERTEX
  5
386
  8
DEFAULT
 10
-62.78809371844281
 20
-15.02778300630412
 30
0.0
  0
VERTEX
  5
387
  8
DEFAULT
 10
-63.00053888797618
 20
-14.70872934076395
 30
0.0
  0
VERTEX
  5
388
  8
DEFAULT
 10
-63.21120102375842
 20
-14.37741731818472
 30
0.0
  0
VERTEX
  5
389
  8
DEFAULT
 10
-63.41988201092829
 20
-14.03353738409576
 30
0.0
  0
VERTEX
  5
38A
  8
DEFAULT
 10
-63.62642500855397
 20
-13.67680062099107
 30
0.0
  0
VERTEX
  5
38B
  8
DEFAULT
 10
-63.83083827142136
 20
-13.30700065922355
 30
0.0
  0
VERTEX
  5
38C
  8
DEFAULT
 10
-64.03317132824576
 20
-12.9239517661108
 30
0.0
  0
VERTEX
  5
38D
  8
DEFAULT
 10
-64.23347370774248
 20
-12.52746820897039
 30
0.0
  0
VERTEX
  5
38E
  8
DEFAULT
 10
-64.6281845496141
 20
-11.693454171877
 30
0.0
  0
VERTEX
  5
38F
  8
DEFAULT
 10
-65.01536702675871
 20
-10.80347268648409
 30
0.0
  0
VERTEX
  5
390
  8
DEFAULT
 10
-65.39541736889878
 20
-9.856037891332385
 30
0.0
  0
VERTEX
  5
391
  8
DEFAULT
 10
-65.76873180575679
 20
-8.849663924962607
 30
0.0
  0
VERTEX
  5
392
  8
DEFAULT
 10
-66.13570656705521
 20
-7.782864925915477
 30
0.0
  0
VERTEX
  5
393
  8
DEFAULT
 10
-66.4967378825165
 20
-6.654155032731714
 30
0.0
  0
VERTEX
  5
394
  8
DEFAULT
 10
-67.20083809935355
 20
-4.232625757299832
 30
0.0
  0
VERTEX
  5
395
  8
DEFAULT
 10
-69.6528374292083
 20
4.947932816214579
 30
0.0
  0
VERTEX
  5
396
  8
DEFAULT
 10
-70.13991994896529
 20
6.536513866855602
 30
0.0
  0
VERTEX
  5
397
  8
DEFAULT
 10
-70.56357848043218
 20
7.803565675823495
 30
0.0
  0
VERTEX
  5
398
  8
DEFAULT
 10
-70.91745973170231
 20
8.768555997932083
 30
0.0
  0
VERTEX
  5
399
  8
DEFAULT
 10
-71.06720489857848
 20
9.145157322983604
 30
0.0
  0
VERTEX
  5
39A
  8
DEFAULT
 10
-71.20286181115482
 20
9.461316973516448
 30
0.0
  0
VERTEX
  5
39B
  8
DEFAULT
 10
-71.26695229355744
 20
9.59992078286733
 30
0.0
  0
VERTEX
  5
39C
  8
DEFAULT
 10
-71.32937485815735
 20
9.7272417080233
 30
0.0
  0
VERTEX
  5
39D
  8
DEFAULT
 10
-71.39074755354532
 20
9.844555593795944
 30
0.0
  0
VERTEX
  5
39E
  8
DEFAULT
 10
-71.4516884283121
 20
9.953138284996845
 30
0.0
  0
VERTEX
  5
39F
  8
DEFAULT
 10
-71.51281553104843
 20
10.05426562643759
 30
0.0
  0
VERTEX
  5
3A0
  8
DEFAULT
 10
-71.5747469103451
 20
10.14921346292977
 30
0.0
  0
VERTEX
  5
3A1
  8
DEFAULT
 10
-71.60620734388817
 20
10.19476876832377
 30
0.0
  0
VERTEX
  5
3A2
  8
DEFAULT
 10
-71.63810061479283
 20
10.23925763928496
 30
0.0
  0
VERTEX
  5
3A3
  8
DEFAULT
 10
-71.70349469298239
 20
10.32567400031476
 30
0.0
  0
VERTEX
  5
3A4
  8
DEFAULT
 10
-71.77154719350452
 20
10.40973839083074
 30
0.0
  0
VERTEX
  5
3A5
  8
DEFAULT
 10
-71.84287616494998
 20
10.4927266556445
 30
0.0
  0
VERTEX
  5
3A6
  8
DEFAULT
 10
-71.91809965590954
 20
10.57591463956761
 30
0.0
  0
VERTEX
  5
3A7
  8
DEFAULT
 10
-71.99783571497392
 20
10.66057818741168
 30
0.0
  0
VERTEX
  5
3A8
  8
DEFAULT
 10
-72.17191901531677
 20
10.83703689727281
 30
0.0
  0
VERTEX
  5
3A9
  8
DEFAULT
 10
-72.3630768723874
 20
11.02031725953977
 30
0.0
  0
VERTEX
  5
3AA
  8
DEFAULT
 10
-72.56786137613116
 20
11.20623529168825
 30
0.0
  0
VERTEX
  5
3AB
  8
DEFAULT
 10
-72.78282461649346
 20
11.39060701119394
 30
0.0
  0
VERTEX
  5
3AC
  8
DEFAULT
 10
-73.00451868341969
 20
11.56924843553254
 30
0.0
  0
VERTEX
  5
3AD
  8
DEFAULT
 10
-73.11681230495223
 20
11.65511279247534
 30
0.0
  0
VERTEX
  5
3AE
  8
DEFAULT
 10
-73.22949566685527
 20
11.73797558217975
 30
0.0
  0
VERTEX
  5
3AF
  8
DEFAULT
 10
-73.34213778037198
 20
11.81731380683024
 30
0.0
  0
VERTEX
  5
3B0
  8
DEFAULT
 10
-73.45430765674556
 20
11.89260446861126
 30
0.0
  0
VERTEX
  5
3B1
  8
DEFAULT
 10
-73.56557430721915
 20
11.96332456970729
 30
0.0
  0
VERTEX
  5
3B2
  8
DEFAULT
 10
-73.67550674303595
 20
12.02895111230278
 30
0.0
  0
VERTEX
  5
3B3
  8
DEFAULT
 10
-73.78375082168101
 20
12.08916584831946
 30
0.0
  0
VERTEX
  5
3B4
  8
DEFAULT
 10
-73.89025978560701
 20
12.14446952862818
 30
0.0
  0
VERTEX
  5
3B5
  8
DEFAULT
 10
-73.99506372350851
 20
12.19556765383704
 30
0.0
  0
VERTEX
  5
3B6
  8
DEFAULT
 10
-74.09819272408001
 20
12.24316572455414
 30
0.0
  0
VERTEX
  5
3B7
  8
DEFAULT
 10
-74.68347801047443
 20
12.4947610385838
 30
0.0
  0
VERTEX
  5
3B8
  8
DEFAULT
 10
-74.77572493318355
 20
12.53761274488557
 30
0.0
  0
VERTEX
  5
3B9
  8
DEFAULT
 10
-74.86653762811909
 20
12.58260840156044
 30
0.0
  0
VERTEX
  5
3BA
  8
DEFAULT
 10
-74.95594618397561
 20
12.63045350921651
 30
0.0
  0
VERTEX
  5
3BB
  8
DEFAULT
 10
-75.00013331246629
 20
12.65566507610253
 30
0.0
  0
VERTEX
  5
3BC
  8
DEFAULT
 10
-75.04398068944766
 20
12.68185356846188
 30
0.0
  0
VERTEX
  5
3BD
  8
DEFAULT
 10
-75.08749207600655
 20
12.70910717387059
 30
0.0
  0
VERTEX
  5
3BE
  8
DEFAULT
 10
-75.13067123322979
 20
12.73751407990467
 30
0.0
  0
VERTEX
  5
3BF
  8
DEFAULT
 10
-75.17352192220419
 20
12.76716247414012
 30
0.0
  0
VERTEX
  5
3C0
  8
DEFAULT
 10
-75.21604790401656
 20
12.79814054415297
 30
0.0
  0
VERTEX
  5
3C1
  8
DEFAULT
 10
-75.2582479249713
 20
12.83051202496238
 30
0.0
  0
VERTEX
  5
3C2
  8
DEFAULT
 10
-75.3001006722431
 20
12.86424284136016
 30
0.0
  0
VERTEX
  5
3C3
  8
DEFAULT
 10
-75.34157981822423
 20
12.89927446558127
 30
0.0
  0
VERTEX
  5
3C4
  8
DEFAULT
 10
-75.38265903530697
 20
12.93554836986068
 30
0.0
  0
VERTEX
  5
3C5
  8
DEFAULT
 10
-75.42331199588358
 20
12.97300602643334
 30
0.0
  0
VERTEX
  5
3C6
  8
DEFAULT
 10
-75.46351237234634
 20
13.01158890753421
 30
0.0
  0
VERTEX
  5
3C7
  8
DEFAULT
 10
-75.50323383708749
 20
13.05123848539827
 30
0.0
  0
VERTEX
  5
3C8
  8
DEFAULT
 10
-75.54245006249931
 20
13.09189623226048
 30
0.0
  0
VERTEX
  5
3C9
  8
DEFAULT
 10
-75.58113472097408
 20
13.13350362035579
 30
0.0
  0
VERTEX
  5
3CA
  8
DEFAULT
 10
-75.61926148490406
 20
13.17600212191917
 30
0.0
  0
VERTEX
  5
3CB
  8
DEFAULT
 10
-75.69373601869873
 20
13.26343835438998
 30
0.0
  0
VERTEX
  5
3CC
  8
DEFAULT
 10
-75.76566304302146
 20
13.35373670755262
 30
0.0
  0
VERTEX
  5
3CD
  8
DEFAULT
 10
-75.83483193701042
 20
13.44642895928678
 30
0.0
  0
VERTEX
  5
3CE
  8
DEFAULT
 10
-75.90103207980373
 20
13.54104688747217
 30
0.0
  0
VERTEX
  5
3CF
  8
DEFAULT
 10
-75.96405285053956
 20
13.63712226998849
 30
0.0
  0
VERTEX
  5
3D0
  8
DEFAULT
 10
-76.02368362835603
 20
13.73418688471543
 30
0.0
  0
VERTEX
  5
3D1
  8
DEFAULT
 10
-76.0797137923913
 20
13.8317725095327
 30
0.0
  0
VERTEX
  5
3D2
  8
DEFAULT
 10
-76.13193272178353
 20
13.92941092232
 30
0.0
  0
VERTEX
  5
3D3
  8
DEFAULT
 10
-76.18012979567085
 20
14.02663390095702
 30
0.0
  0
VERTEX
  5
3D4
  8
DEFAULT
 10
-76.22409439319141
 20
14.12297322332347
 30
0.0
  0
VERTEX
  5
3D5
  8
DEFAULT
 10
-76.24442369429482
 20
14.17066519399264
 30
0.0
  0
VERTEX
  5
3D6
  8
DEFAULT
 10
-76.26361589348336
 20
14.21796066729905
 30
0.0
  0
VERTEX
  5
3D7
  8
DEFAULT
 10
-76.28165573746048
 20
14.26482744857792
 30
0.0
  0
VERTEX
  5
3D8
  8
DEFAULT
 10
-76.29857227017438
 20
14.31133867556546
 30
0.0
  0
VERTEX
  5
3D9
  8
DEFAULT
 10
-76.31440560988446
 20
14.35759381909815
 30
0.0
  0
VERTEX
  5
3DA
  8
DEFAULT
 10
-76.32919587485011
 20
14.40369235001246
 30
0.0
  0
VERTEX
  5
3DB
  8
DEFAULT
 10
-76.34298318333077
 20
14.44973373914485
 30
0.0
  0
VERTEX
  5
3DC
  8
DEFAULT
 10
-76.35580765358581
 20
14.4958174573318
 30
0.0
  0
VERTEX
  5
3DD
  8
DEFAULT
 10
-76.36770940387464
 20
14.54204297540978
 30
0.0
  0
VERTEX
  5
3DE
  8
DEFAULT
 10
-76.37872855245665
 20
14.58850976421525
 30
0.0
  0
VERTEX
  5
3DF
  8
DEFAULT
 10
-76.38890521759126
 20
14.63531729458468
 30
0.0
  0
VERTEX
  5
3E0
  8
DEFAULT
 10
-76.39827951753784
 20
14.68256503735455
 30
0.0
  0
VERTEX
  5
3E1
  8
DEFAULT
 10
-76.41478149490459
 20
14.77877904344146
 30
0.0
  0
VERTEX
  5
3E2
  8
DEFAULT
 10
-76.42855543063212
 20
14.87794754916775
 30
0.0
  0
VERTEX
  5
3E3
  8
DEFAULT
 10
-76.43992227079559
 20
14.98086632122516
 30
0.0
  0
VERTEX
  5
3E4
  8
DEFAULT
 10
-76.44920296147026
 20
15.08833112630547
 30
0.0
  0
VERTEX
  5
3E5
  8
DEFAULT
 10
-76.4567184487313
 20
15.20113773110042
 30
0.0
  0
VERTEX
  5
3E6
  8
DEFAULT
 10
-76.4677375973133
 20
15.44595940660127
 30
0.0
  0
VERTEX
  5
3E7
  8
DEFAULT
 10
-76.54433672726205
 20
19.53580051260517
 30
0.0
  0
VERTEX
  5
3E8
  8
DEFAULT
 10
-76.53438739893072
 20
20.45415386112527
 30
0.0
  0
VERTEX
  5
3E9
  8
DEFAULT
 10
-76.51942328817432
 20
20.89112507133437
 30
0.0
  0
VERTEX
  5
3EA
  8
DEFAULT
 10
-76.495552923831
 20
21.30897675977509
 30
0.0
  0
VERTEX
  5
3EB
  8
DEFAULT
 10
-76.46109133900593
 20
21.7044720171466
 30
0.0
  0
VERTEX
  5
3EC
  8
DEFAULT
 10
-76.43936228675813
 20
21.8928244500249
 30
0.0
  0
VERTEX
  5
3ED
  8
DEFAULT
 10
-76.41435356680431
 20
22.07437393414809
 30
0.0
  0
VERTEX
  5
3EE
  8
DEFAULT
 10
-76.38585455828266
 20
22.24871585585358
 30
0.0
  0
VERTEX
  5
3EF
  8
DEFAULT
 10
-76.3536546403313
 20
22.41544560147874
 30
0.0
  0
VERTEX
  5
3F0
  8
DEFAULT
 10
-76.33610102130015
 20
22.49582946649165
 30
0.0
  0
VERTEX
  5
3F1
  8
DEFAULT
 10
-76.3175431920884
 20
22.574158557361
 30
0.0
  0
VERTEX
  5
3F2
  8
DEFAULT
 10
-76.29795482508828
 20
22.65038229737898
 30
0.0
  0
VERTEX
  5
3F3
  8
DEFAULT
 10
-76.27730959269208
 20
22.72445010983775
 30
0.0
  0
VERTEX
  5
3F4
  8
DEFAULT
 10
-76.25556029794407
 20
22.79632899155616
 30
0.0
  0
VERTEX
  5
3F5
  8
DEFAULT
 10
-76.23257626649657
 20
22.86605623345972
 30
0.0
  0
VERTEX
  5
3F6
  8
DEFAULT
 10
-76.2082059546539
 20
22.93368670000063
 30
0.0
  0
VERTEX
  5
3F7
  8
DEFAULT
 10
-76.18229781872039
 20
22.99927525563107
 30
0.0
  0
VERTEX
  5
3F8
  8
DEFAULT
 10
-76.15470031500034
 20
23.06287676480322
 30
0.0
  0
VERTEX
  5
3F9
  8
DEFAULT
 10
-76.14022069281548
 20
23.09394952210874
 30
0.0
  0
VERTEX
  5
3FA
  8
DEFAULT
 10
-76.12526189979812
 20
23.12454609196927
 30
0.0
  0
VERTEX
  5
3FB
  8
DEFAULT
 10
-76.10980499298627
 20
23.15467333244132
 30
0.0
  0
VERTEX
  5
3FC
  8
DEFAULT
 10
-76.093831029418
 20
23.18433810158141
 30
0.0
  0
VERTEX
  5
3FD
  8
DEFAULT
 10
-76.07732106613135
 20
23.21354725744607
 30
0.0
  0
VERTEX
  5
3FE
  8
DEFAULT
 10
-76.06025616016434
 20
23.24230765809182
 30
0.0
  0
VERTEX
  5
3FF
  8
DEFAULT
 10
-76.04261736855503
 20
23.27062616157519
 30
0.0
  0
VERTEX
  5
400
  8
DEFAULT
 10
-76.02438574834144
 20
23.2985096259527
 30
0.0
  0
VERTEX
  5
401
  8
DEFAULT
 10
-76.00554235656163
 20
23.32596490928087
 30
0.0
  0
VERTEX
  5
402
  8
DEFAULT
 10
-75.98606825025364
 20
23.35299886961623
 30
0.0
  0
VERTEX
  5
403
  8
DEFAULT
 10
-75.9659444864555
 20
23.37961836501529
 30
0.0
  0
VERTEX
  5
404
  8
DEFAULT
 10
-75.94515212220523
 20
23.40583025353458
 30
0.0
  0
VERTEX
  5
405
  8
DEFAULT
 10
-75.92367221454091
 20
23.43164139323063
 30
0.0
  0
VERTEX
  5
406
  8
DEFAULT
 10
-75.90148582050057
 20
23.45705864215996
 30
0.0
  0
VERTEX
  5
407
  8
DEFAULT
 10
-75.87857399712223
 20
23.48208885837909
 30
0.0
  0
VERTEX
  5
408
  8
DEFAULT
 10
-75.85491780144396
 20
23.50673889994454
 30
0.0
  0
VERTEX
  5
409
  8
DEFAULT
 10
-75.83049829050378
 20
23.53101562491284
 30
0.0
  0
VERTEX
  5
40A
  8
DEFAULT
 10
-75.80529652133974
 20
23.55492589134051
 30
0.0
  0
VERTEX
  5
40B
  8
DEFAULT
 10
-75.77929355098988
 20
23.57847655728408
 30
0.0
  0
VERTEX
  5
40C
  8
DEFAULT
 10
-75.75247043649222
 20
23.60167448080006
 30
0.0
  0
VERTEX
  5
40D
  8
DEFAULT
 10
-75.72480823488482
 20
23.62452651994499
 30
0.0
  0
VERTEX
  5
40E
  8
DEFAULT
 10
-75.69628800320572
 20
23.64703953277537
 30
0.0
  0
VERTEX
  5
40F
  8
DEFAULT
 10
-75.66689079849296
 20
23.66922037734776
 30
0.0
  0
VERTEX
  5
410
  8
DEFAULT
 10
-75.63659767778458
 20
23.69107591171864
 30
0.0
  0
VERTEX
  5
411
  8
DEFAULT
 10
-75.6053896981186
 20
23.71261299394456
 30
0.0
  0
VERTEX
  5
412
  8
DEFAULT
 10
-75.57324791653309
 20
23.73383848208204
 30
0.0
  0
VERTEX
  5
413
  8
DEFAULT
 10
-75.54015339006608
 20
23.7547592341876
 30
0.0
  0
VERTEX
  5
414
  8
DEFAULT
 10
-75.50608717575562
 20
23.77538210831776
 30
0.0
  0
VERTEX
  5
415
  8
DEFAULT
 10
-75.47103033063972
 20
23.79571396252906
 30
0.0
  0
VERTEX
  5
416
  8
DEFAULT
 10
-75.43496391175645
 20
23.815761654878
 30
0.0
  0
VERTEX
  5
417
  8
DEFAULT
 10
-75.35972658083993
 20
23.85503198621493
 30
0.0
  0
VERTEX
  5
418
  8
DEFAULT
 10
-75.28022363931038
 20
23.89324796678073
 30
0.0
  0
VERTEX
  5
419
  8
DEFAULT
 10
-75.1963035434721
 20
23.93046446102761
 30
0.0
  0
VERTEX
  5
41A
  8
DEFAULT
 10
-75.10781474962943
 20
23.96673633340775
 30
0.0
  0
VERTEX
  5
41B
  8
DEFAULT
 10
-75.01460571408668
 20
24.00211844837332
 30
0.0
  0
VERTEX
  5
41C
  8
DEFAULT
 10
-74.91652489314819
 20
24.03666567037651
 30
0.0
  0
VERTEX
  5
41D
  8
DEFAULT
 10
-74.81342074311827
 20
24.07043286386953
 30
0.0
  0
VERTEX
  5
41E
  8
DEFAULT
 10
-74.70514172030127
 20
24.10347489330454
 30
0.0
  0
VERTEX
  5
41F
  8
DEFAULT
 10
-74.47245288152324
 20
24.1676029178093
 30
0.0
  0
VERTEX
  5
420
  8
DEFAULT
 10
-74.21724602724868
 20
24.2294886595083
 30
0.0
  0
VERTEX
  5
421
  8
DEFAULT
 10
-73.93862133150138
 20
24.28948443909719
 30
0.0
  0
VERTEX
  5
422
  8
DEFAULT
 10
-73.63692906266198
 20
24.34759619758429
 30
0.0
  0
VERTEX
  5
423
  8
DEFAULT
 10
-72.96699297358623
 20
24.45784503559917
 30
0.0
  0
VERTEX
  5
424
  8
DEFAULT
 10
-72.21274009578026
 20
24.55958994224492
 30
0.0
  0
VERTEX
  5
425
  8
DEFAULT
 10
-71.37947276500284
 20
24.65218568621356
 30
0.0
  0
VERTEX
  5
426
  8
DEFAULT
 10
-69.49710408756883
 20
24.80734876088746
 30
0.0
  0
VERTEX
  5
427
  8
DEFAULT
 10
-67.36230562735446
 20
24.91817240915685
 30
0.0
  0
VERTEX
  5
428
  8
DEFAULT
 10
-64.99542269637709
 20
24.98214075226572
 30
0.0
  0
VERTEX
  5
429
  8
DEFAULT
 10
-55.73449174071095
 20
24.98417791822186
 30
0.0
  0
VERTEX
  5
42A
  8
DEFAULT
 10
-38.38034251799282
 20
24.76515747517344
 30
0.0
  0
VERTEX
  5
42B
  8
DEFAULT
 10
-30.57934967882741
 20
24.50264290204873
 30
0.0
  0
VERTEX
  5
42C
  8
DEFAULT
 10
-27.25982108887494
 20
24.32443052634201
 30
0.0
  0
VERTEX
  5
42D
  8
DEFAULT
 10
-24.36303416289459
 20
24.11451366305802
 30
0.0
  0
VERTEX
  5
42E
  8
DEFAULT
 10
-21.90152834665335
 20
23.87013480987314
 30
0.0
  0
VERTEX
  5
42F
  8
DEFAULT
 10
-20.82126037770316
 20
23.7312431086515
 30
0.0
  0
VERTEX
  5
430
  8
DEFAULT
 10
-19.83171153633028
 20
23.57870973961244
 30
0.0
  0
VERTEX
  5
431
  8
DEFAULT
 10
-18.92567869863247
 20
23.41065458920746
 30
0.0
  0
VERTEX
  5
432
  8
DEFAULT
 10
-18.50172980494227
 20
23.32021881050886
 30
0.0
  0
VERTEX
  5
433
  8
DEFAULT
 10
-18.0959587407075
 20
23.2251975438881
 30
0.0
  0
VERTEX
  5
434
  8
DEFAULT
 10
-17.70746511544038
 20
23.12535577515163
 30
0.0
  0
VERTEX
  5
435
  8
DEFAULT
 10
-17.33534853865313
 20
23.02045849010589
 30
0.0
  0
VERTEX
  5
436
  8
DEFAULT
 10
-16.97870861985797
 20
22.91027067455732
 30
0.0
  0
VERTEX
  5
437
  8
DEFAULT
 10
-16.63664496856712
 20
22.79455731431235
 30
0.0
  0
VERTEX
  5
438
  8
DEFAULT
 10
-16.30779057312813
 20
22.67259513885669
 30
0.0
  0
VERTEX
  5
439
  8
DEFAULT
 10
-16.14733554257866
 20
22.60846491900827
 30
0.0
  0
VERTEX
  5
43A
  8
DEFAULT
 10
-15.9889119372299
 20
22.54170785239311
 30
0.0
  0
VERTEX
  5
43B
  8
DEFAULT
 10
-15.83205724239739
 20
22.47192836999648
 30
0.0
  0
VERTEX
  5
43C
  8
DEFAULT
 10
-15.67630894339665
 20
22.39873090280361
 30
0.0
  0
VERTEX
  5
43D
  8
DEFAULT
 10
-15.52120452554322
 20
22.32171988179977
 30
0.0
  0
VERTEX
  5
43E
  8
DEFAULT
 10
-15.36628147415261
 20
22.24049973797021
 30
0.0
  0
VERTEX
  5
43F
  8
DEFAULT
 10
-15.21107727454036
 20
22.15467490230018
 30
0.0
  0
VERTEX
  5
440
  8
DEFAULT
 10
-15.055129412022
 20
22.06384980577494
 30
0.0
  0
VERTEX
  5
441
  8
DEFAULT
 10
-14.89797537191305
 20
21.96762887937972
 30
0.0
  0
VERTEX
  5
442
  8
DEFAULT
 10
-14.73915263952904
 20
21.8656165540998
 30
0.0
  0
VERTEX
  5
443
  8
DEFAULT
 10
-14.5781987001855
 20
21.75741726092041
 30
0.0
  0
VERTEX
  5
444
  8
DEFAULT
 10
-14.41465103919796
 20
21.64263543082682
 30
0.0
  0
VERTEX
  5
445
  8
DEFAULT
 10
-14.24804714188195
 20
21.52087549480427
 30
0.0
  0
VERTEX
  5
446
  8
DEFAULT
 10
-14.07792449355299
 20
21.39174188383802
 30
0.0
  0
VERTEX
  5
447
  8
DEFAULT
 10
-13.72527288511835
 20
21.1097713610154
 30
0.0
  0
VERTEX
  5
448
  8
DEFAULT
 10
-13.35299609641826
 20
20.793559310241
 30
0.0
  0
VERTEX
  5
449
  8
DEFAULT
 10
-12.95739400997696
 20
20.43994117939683
 30
0.0
  0
VERTEX
  5
44A
  8
DEFAULT
 10
-12.53476650831866
 20
20.0457524163649
 30
0.0
  0
VERTEX
  5
44B
  8
DEFAULT
 10
-11.59363478944797
 20
19.12300478526586
 30
0.0
  0
SEQEND
  5
44C
  8
DEFAULT
  0
POLYLINE
  5
44D
  8
DEFAULT
 66
     1
 10
0.0
 20
0.0
 30
0.0
 70
     1
  0
VERTEX
  5
44E
  8
DEFAULT
 10
64.68702231586015
 20
15.51079073146569
 30
0.0
  0
VERTEX
  5
44F
  8
DEFAULT
 10
64.57547060438368
 20
15.70809030520811
 30
0.0
  0
VERTEX
  5
450
  8
DEFAULT
 10
64.51818901455349
 20
15.80360633077117
 30
0.0
  0
VERTEX
  5
451
  8
DEFAULT
 10
64.45988321980794
 20
15.89707394650353
 30
0.0
  0
VERTEX
  5
452
  8
DEFAULT
 10
64.40053793350651
 20
15.98852372568625
 30
0.0
  0
VERTEX
  5
453
  8
DEFAULT
 10
64.34013786900869
 20
16.0779862416004
 30
0.0
  0
VERTEX
  5
454
  8
DEFAULT
 10
64.27866773967392
 20
16.16549206752701
 30
0.0
  0
VERTEX
  5
455
  8
DEFAULT
 10
64.21611225886173
 20
16.25107177674715
 30
0.0
  0
VERTEX
  5
456
  8
DEFAULT
 10
64.15245613993153
 20
16.33475594254188
 30
0.0
  0
VERTEX
  5
457
  8
DEFAULT
 10
64.08768409624284
 20
16.41657513819224
 30
0.0
  0
VERTEX
  5
458
  8
DEFAULT
 10
64.02178084115508
 20
16.49655993697929
 30
0.0
  0
VERTEX
  5
459
  8
DEFAULT
 10
63.95473108802777
 20
16.57474091218409
 30
0.0
  0
VERTEX
  5
45A
  8
DEFAULT
 10
63.88651955022036
 20
16.65114863708769
 30
0.0
  0
VERTEX
  5
45B
  8
DEFAULT
 10
63.81713094109233
 20
16.72581368497115
 30
0.0
  0
VERTEX
  5
45C
  8
DEFAULT
 10
63.74654997400316
 20
16.79876662911553
 30
0.0
  0
VERTEX
  5
45D
  8
DEFAULT
 10
63.6747613623123
 20
16.87003804280187
 30
0.0
  0
VERTEX
  5
45E
  8
DEFAULT
 10
63.60174981937923
 20
16.93965849931124
 30
0.0
  0
VERTEX
  5
45F
  8
DEFAULT
 10
63.52750005856343
 20
17.00765857192468
 30
0.0
  0
VERTEX
  5
460
  8
DEFAULT
 10
63.45199679322437
 20
17.07406883392326
 30
0.0
  0
VERTEX
  5
461
  8
DEFAULT
 10
63.37522473672153
 20
17.13891985858802
 30
0.0
  0
VERTEX
  5
462
  8
DEFAULT
 10
63.29716860241437
 20
17.20224221920003
 30
0.0
  0
VERTEX
  5
463
  8
DEFAULT
 10
63.21781310366238
 20
17.26406648904034
 30
0.0
  0
VERTEX
  5
464
  8
DEFAULT
 10
63.13714295382501
 20
17.32442324139
 30
0.0
  0
VERTEX
  5
465
  8
DEFAULT
 10
63.05514286626173
 20
17.38334304953007
 30
0.0
  0
VERTEX
  5
466
  8
DEFAULT
 10
62.97179755433204
 20
17.44085648674161
 30
0.0
  0
VERTEX
  5
467
  8
DEFAULT
 10
62.88709173139539
 20
17.49699412630566
 30
0.0
  0
VERTEX
  5
468
  8
DEFAULT
 10
62.80101011081126
 20
17.55178654150329
 30
0.0
  0
VERTEX
  5
469
  8
DEFAULT
 10
62.71353740593912
 20
17.60526430561555
 30
0.0
  0
VERTEX
  5
46A
  8
DEFAULT
 10
62.53435759676871
 20
17.70839817370818
 30
0.0
  0
VERTEX
  5
46B
  8
DEFAULT
 10
62.34943001075994
 20
17.80664031683198
 30
0.0
  0
VERTEX
  5
46C
  8
DEFAULT
 10
62.15860432928093
 20
17.90024296455567
 30
0.0
  0
VERTEX
  5
46D
  8
DEFAULT
 10
61.96161813166934
 20
17.989488919729
 30
0.0
  0
VERTEX
  5
46E
  8
DEFAULT
 10
61.75818097175511
 20
18.07466862852201
 30
0.0
  0
VERTEX
  5
46F
  8
DEFAULT
 10
61.54800240336822
 20
18.1560725371047
 30
0.0
  0
VERTEX
  5
470
  8
DEFAULT
 10
61.33079198033866
 20
18.23399109164711
 30
0.0
  0
VERTEX
  5
471
  8
DEFAULT
 10
61.10625925649639
 20
18.30871473831926
 30
0.0
  0
VERTEX
  5
472
  8
DEFAULT
 10
60.8741137856714
 20
18.38053392329117
 30
0.0
  0
VERTEX
  5
473
  8
DEFAULT
 10
60.63406512169365
 20
18.44973909273288
 30
0.0
  0
VERTEX
  5
474
  8
DEFAULT
 10
60.12909642959982
 20
18.58146916970573
 30
0.0
  0
VERTEX
  5
475
  8
DEFAULT
 10
59.58902961085469
 20
18.70622853859802
 30
0.0
  0
VERTEX
  5
476
  8
DEFAULT
 10
58.39430731596984
 20
18.94412942958164
 30
0.0
  0
VERTEX
  5
477
  8
DEFAULT
 10
57.0394625571056
 20
19.17632330810164
 30
0.0
  0
VERTEX
  5
478
  8
DEFAULT
 10
55.54667115412063
 20
19.39286366672141
 30
0.0
  0
VERTEX
  5
479
  8
DEFAULT
 10
53.94626180182162
 20
19.57809698554073
 30
0.0
  0
VERTEX
  5
47A
  8
DEFAULT
 10
53.11517811180644
 20
19.65408178005641
 30
0.0
  0
VERTEX
  5
47B
  8
DEFAULT
 10
52.26856319501525
 20
19.71636974465939
 30
0.0
  0
VERTEX
  5
47C
  8
DEFAULT
 10
50.53836007354356
 20
19.79740932164284
 30
0.0
  0
VERTEX
  5
47D
  8
DEFAULT
 10
48.75826135738988
 20
19.83246668391939
 30
0.0
  0
VERTEX
  5
47E
  8
DEFAULT
 10
41.07629646635463
 20
19.79463734416051
 30
0.0
  0
VERTEX
  5
47F
  8
DEFAULT
 10
38.99339997463098
 20
19.72843599958248
 30
0.0
  0
VERTEX
  5
480
  8
DEFAULT
 10
36.83419257339374
 20
19.60157726539108
 30
0.0
  0
VERTEX
  5
481
  8
DEFAULT
 10
34.60487044760342
 20
19.40003819667568
 30
0.0
  0
VERTEX
  5
482
  8
DEFAULT
 10
32.35989480191286
 20
19.13979842833444
 30
0.0
  0
VERTEX
  5
483
  8
DEFAULT
 10
28.0890927891349
 20
18.53713791217579
 30
0.0
  0
VERTEX
  5
484
  8
DEFAULT
 10
26.17920030380852
 20
18.2331987341131
 30
0.0
  0
VERTEX
  5
485
  8
DEFAULT
 10
24.41703791254052
 20
17.91360603615018
 30
0.0
  0
VERTEX
  5
486
  8
DEFAULT
 10
23.58004338818802
 20
17.7393790985107
 30
0.0
  0
VERTEX
  5
487
  8
DEFAULT
 10
22.76640685056162
 20
17.55096615846164
 30
0.0
  0
VERTEX
  5
488
  8
DEFAULT
 10
21.97160345406519
 20
17.34494300852483
 30
0.0
  0
VERTEX
  5
489
  8
DEFAULT
 10
21.19110835310256
 20
17.11788544122209
 30
0.0
  0
VERTEX
  5
48A
  8
DEFAULT
 10
20.42166039769451
 20
16.86685842157213
 30
0.0
  0
VERTEX
  5
48B
  8
DEFAULT
 10
20.04156062875007
 20
16.73202006102534
 30
0.0
  0
VERTEX
  5
48C
  8
DEFAULT
 10
19.66505322032962
 20
16.59088360458119
 30
0.0
  0
VERTEX
  5
48D
  8
DEFAULT
 10
19.29252033844632
 20
16.44338790567758
 30
0.0
  0
VERTEX
  5
48E
  8
DEFAULT
 10
18.92434414911339
 20
16.28947181775239
 30
0.0
  0
VERTEX
  5
48F
  8
DEFAULT
 10
18.56090681834399
 20
16.12907419424351
 30
0.0
  0
VERTEX
  5
490
  8
DEFAULT
 10
18.20259051215134
 20
15.96213388858884
 30
0.0
  0
VERTEX
  5
491
  8
DEFAULT
 10
17.8497773965486
 20
15.78858975422626
 30
0.0
  0
VERTEX
  5
492
  8
DEFAULT
 10
17.50284963754898
 20
15.60838064459366
 30
0.0
  0
VERTEX
  5
493
  8
DEFAULT
 10
17.16218940116566
 20
15.42144541312893
 30
0.0
  0
VERTEX
  5
494
  8
DEFAULT
 10
16.82817885341182
 20
15.22772291326996
 30
0.0
  0
VERTEX
  5
495
  8
DEFAULT
 10
16.50120016030067
 20
15.02715199845465
 30
0.0
  0
VERTEX
  5
496
  8
DEFAULT
 10
16.18163548784538
 20
14.81967152212088
 30
0.0
  0
VERTEX
  5
497
  8
DEFAULT
 10
15.86986700205915
 20
14.60522033770654
 30
0.0
  0
VERTEX
  5
498
  8
DEFAULT
 10
15.56627686895517
 20
14.38373729864952
 30
0.0
  0
VERTEX
  5
499
  8
DEFAULT
 10
15.27123451567952
 20
14.15514342397376
 30
0.0
  0
VERTEX
  5
49A
  8
DEFAULT
 10
14.98505841390985
 20
13.91928839504741
 30
0.0
  0
VERTEX
  5
49B
  8
DEFAULT
 10
14.70805429645672
 20
13.67600405882466
 30
0.0
  0
VERTEX
  5
49C
  8
DEFAULT
 10
14.44052789613068
 20
13.42512226225972
 30
0.0
  0
VERTEX
  5
49D
  8
DEFAULT
 10
14.18278494574228
 20
13.16647485230677
 30
0.0
  0
VERTEX
  5
49E
  8
DEFAULT
 10
14.05767780577799
 20
13.03418649448298
 30
0.0
  0
VERTEX
  5
49F
  8
DEFAULT
 10
13.93513117810207
 20
12.89989367592002
 30
0.0
  0
VERTEX
  5
4A0
  8
DEFAULT
 10
13.81518327931584
 20
12.76357537748715
 30
0.0
  0
VERTEX
  5
4A1
  8
DEFAULT
 10
13.69787232602061
 20
12.62521058005366
 30
0.0
  0
VERTEX
  5
4A2
  8
DEFAULT
 10
13.5832365348177
 20
12.48477826448881
 30
0.0
  0
VERTEX
  5
4A3
  8
DEFAULT
 10
13.47131412230843
 20
12.34225741166188
 30
0.0
  0
VERTEX
  5
4A4
  8
DEFAULT
 10
13.36214330509413
 20
12.19762700244216
 30
0.0
  0
VERTEX
  5
4A5
  8
DEFAULT
 10
13.25576229977611
 20
12.0508660176989
 30
0.0
  0
VERTEX
  5
4A6
  8
DEFAULT
 10
13.15220932295568
 20
11.90195343830139
 30
0.0
  0
VERTEX
  5
4A7
  8
DEFAULT
 10
13.05152259123418
 20
11.75086824511889
 30
0.0
  0
VERTEX
  5
4A8
  8
DEFAULT
 10
12.95374032121291
 20
11.59758941902069
 30
0.0
  0
VERTEX
  5
4A9
  8
DEFAULT
 10
12.8589007294932
 20
11.44209594087607
 30
0.0
  0
VERTEX
  5
4AA
  8
DEFAULT
 10
12.76704203267636
 20
11.28436679155428
 30
0.0
  0
VERTEX
  5
4AB
  8
DEFAULT
 10
12.67820244736372
 20
11.12438095192461
 30
0.0
  0
VERTEX
  5
4AC
  8
DEFAULT
 10
12.59242019015659
 20
10.96211740285634
 30
0.0
  0
VERTEX
  5
4AD
  8
DEFAULT
 10
12.50973347765629
 20
10.79755512521873
 30
0.0
  0
VERTEX
  5
4AE
  8
DEFAULT
 10
12.43018052646414
 20
10.63067309988107
 30
0.0
  0
VERTEX
  5
4AF
  8
DEFAULT
 10
12.35379955318146
 20
10.46145030771262
 30
0.0
  0
VERTEX
  5
4B0
  8
DEFAULT
 10
12.28062877440957
 20
10.28986572958267
 30
0.0
  0
VERTEX
  5
4B1
  8
DEFAULT
 10
12.21070640674978
 20
10.11589834636048
 30
0.0
  0
VERTEX
  5
4B2
  8
DEFAULT
 10
12.14407066680342
 20
9.939527138915334
 30
0.0
  0
VERTEX
  5
4B3
  8
DEFAULT
 10
12.08075977117181
 20
9.7607310881165
 30
0.0
  0
VERTEX
  5
4B4
  8
DEFAULT
 10
12.02079696828741
 20
9.579499365926946
 30
0.0
  0
VERTEX
  5
4B5
  8
DEFAULT
 10
11.96414563390729
 20
9.39586190868436
 30
0.0
  0
VERTEX
  5
4B6
  8
DEFAULT
 10
11.91075417561968
 20
9.209858843820136
 30
0.0
  0
VERTEX
  5
4B7
  8
DEFAULT
 10
11.86057100101279
 20
9.021530298765658
 30
0.0
  0
VERTEX
  5
4B8
  8
DEFAULT
 10
11.81354451767484
 20
8.830916400952308
 30
0.0
  0
VERTEX
  5
4B9
  8
DEFAULT
 10
11.76962313319405
 20
8.638057277811473
 30
0.0
  0
VERTEX
  5
4BA
  8
DEFAULT
 10
11.69088929115684
 20
8.245763865272883
 30
0.0
  0
VERTEX
  5
4BB
  8
DEFAULT
 10
11.6239567356069
 20
7.844971080600969
 30
0.0
  0
VERTEX
  5
4BC
  8
DEFAULT
 10
11.56841272725
 20
7.435999943246808
 30
0.0
  0
VERTEX
  5
4BD
  8
DEFAULT
 10
11.52384452679189
 20
7.019171472661479
 30
0.0
  0
VERTEX
  5
4BE
  8
DEFAULT
 10
11.48983939493833
 20
6.594806688296062
 30
0.0
  0
VERTEX
  5
4BF
  8
DEFAULT
 10
11.46598459239507
 20
6.163226609601635
 30
0.0
  0
VERTEX
  5
4C0
  8
DEFAULT
 10
11.45186737986786
 20
5.724752256029277
 30
0.0
  0
VERTEX
  5
4C1
  8
DEFAULT
 10
11.44707501806247
 20
5.279704647030067
 30
0.0
  0
VERTEX
  5
4C2
  8
DEFAULT
 10
11.45119476768465
 20
4.828404802055084
 30
0.0
  0
VERTEX
  5
4C3
  8
DEFAULT
 10
11.48451964403474
 20
3.908332481982113
 30
0.0
  0
VERTEX
  5
4C4
  8
DEFAULT
 10
11.54854009456417
 20
2.967103451418995
 30
0.0
  0
VERTEX
  5
4C5
  8
DEFAULT
 10
11.64085102116329
 20
2.00740815909858
 30
0.0
  0
VERTEX
  5
4C6
  8
DEFAULT
 10
11.76263459069954
 20
1.032426226250602
 30
0.0
  0
VERTEX
  5
4C7
  8
DEFAULT
 10
11.91596978628468
 20
0.0454595672290141
 30
0.0
  0
VERTEX
  5
4C8
  8
DEFAULT
 10
12.10293559103046
 20
-0.9501899036122295
 30
0.0
  0
VERTEX
  5
4C9
  8
DEFAULT
 10
12.32561098804863
 20
-1.951220271919175
 30
0.0
  0
VERTEX
  5
4CA
  8
DEFAULT
 10
12.45098946588229
 20
-2.452721444386676
 30
0.0
  0
VERTEX
  5
4CB
  8
DEFAULT
 10
12.58607496045094
 20
-2.95432962333787
 30
0.0
  0
VERTEX
  5
4CC
  8
DEFAULT
 10
12.73112734464357
 20
-3.455632069478513
 30
0.0
  0
VERTEX
  5
4CD
  8
DEFAULT
 10
12.88640649134913
 20
-3.95621604351436
 30
0.0
  0
VERTEX
  5
4CE
  8
DEFAULT
 10
13.05217227345661
 20
-4.455668806151167
 30
0.0
  0
VERTEX
  5
4CF
  8
DEFAULT
 10
13.22868456385496
 20
-4.953577618094691
 30
0.0
  0
VERTEX
  5
4D0
  8
DEFAULT
 10
13.41600705687971
 20
-5.449473689035417
 30
0.0
  0
VERTEX
  5
4D1
  8
DEFAULT
 10
13.61341873265266
 20
-5.942664024602765
 30
0.0
  0
VERTEX
  5
4D2
  8
DEFAULT
 10
14.03484083871652
 20
-6.917931308073922
 30
0.0
  0
VERTEX
  5
4D3
  8
DEFAULT
 10
14.48561329459331
 20
-7.873387105421359
 30
0.0
  0
VERTEX
  5
4D4
  8
DEFAULT
 10
14.95839851282978
 20
-8.803039053558267
 30
0.0
  0
VERTEX
  5
4D5
  8
DEFAULT
 10
15.44585890597271
 20
-9.700894789397843
 30
0.0
  0
VERTEX
  5
4D6
  8
DEFAULT
 10
15.94065688656888
 20
-10.56096194985329
 30
0.0
  0
VERTEX
  5
4D7
  8
DEFAULT
 10
16.43545486716504
 20
-11.37724817183779
 30
0.0
  0
VERTEX
  5
4D8
  8
DEFAULT
 10
16.92291526030798
 20
-12.14376109226454
 30
0.0
  0
VERTEX
  5
4D9
  8
DEFAULT
 10
17.39741258228354
 20
-12.85603701209951
 30
0.0
  0
VERTEX
  5
4DA
  8
DEFAULT
 10
17.86016976433393
 20
-13.51572688851965
 30
0.0
  0
VERTEX
  5
4DB
  8
DEFAULT
 10
18.31412184144045
 20
-14.12601034275471
 30
0.0
  0
VERTEX
  5
4DC
  8
DEFAULT
 10
18.76220384858438
 20
-14.69006699603442
 30
0.0
  0
VERTEX
  5
4DD
  8
DEFAULT
 10
18.98496077435203
 20
-14.95575390395031
 30
0.0
  0
VERTEX
  5
4DE
  8
DEFAULT
 10
19.20735082074702
 20
-15.21107646958851
 30
0.0
  0
VERTEX
  5
4DF
  8
DEFAULT
 10
19.42974086714201
 20
-15.45643214560274
 30
0.0
  0
VERTEX
  5
4E0
  8
DEFAULT
 10
19.65249779290965
 20
-15.69221838464672
 30
0.0
  0
VERTEX
  5
4E1
  8
DEFAULT
 10
19.87598847742262
 20
-15.91883263937416
 30
0.0
  0
VERTEX
  5
4E2
  8
DEFAULT
 10
20.10057980005358
 20
-16.13667236243877
 30
0.0
  0
VERTEX
  5
4E3
  8
DEFAULT
 10
20.32663864017519
 20
-16.34613500649429
 30
0.0
  0
VERTEX
  5
4E4
  8
DEFAULT
 10
20.55453187716009
 20
-16.54761802419441
 30
0.0
  0
VERTEX
  5
4E5
  8
DEFAULT
 10
20.78458562600623
 20
-16.74150358155234
 30
0.0
  0
VERTEX
  5
4E6
  8
DEFAULT
 10
21.01696294421257
 20
-16.92811269801915
 30
0.0
  0
VERTEX
  5
4E7
  8
DEFAULT
 10
21.25178612490331
 20
-17.10775110640538
 30
0.0
  0
VERTEX
  5
4E8
  8
DEFAULT
 10
21.48917746120268
 20
-17.2807245395216
 30
0.0
  0
VERTEX
  5
4E9
  8
DEFAULT
 10
21.7292592462349
 20
-17.44733873017836
 30
0.0
  0
VERTEX
  5
4EA
  8
DEFAULT
 10
21.97215377312419
 20
-17.60789941118619
 30
0.0
  0
VERTEX
  5
4EB
  8
DEFAULT
 10
22.21798333499478
 20
-17.76271231535567
 30
0.0
  0
VERTEX
  5
4EC
  8
DEFAULT
 10
22.46687022497088
 20
-17.91208317549733
 30
0.0
  0
VERTEX
  5
4ED
  8
DEFAULT
 10
22.71893673617671
 20
-18.05631772442173
 30
0.0
  0
VERTEX
  5
4EE
  8
DEFAULT
 10
22.9743051617365
 20
-18.19572169493942
 30
0.0
  0
VERTEX
  5
4EF
  8
DEFAULT
 10
23.23309779477446
 20
-18.33060081986095
 30
0.0
  0
VERTEX
  5
4F0
  8
DEFAULT
 10
23.49543692841481
 20
-18.46126083199688
 30
0.0
  0
VERTEX
  5
4F1
  8
DEFAULT
 10
24.03124386999958
 20
-18.71114644915411
 30
0.0
  0
VERTEX
  5
4F2
  8
DEFAULT
 10
24.58270433148458
 20
-18.94782440889553
 30
0.0
  0
VERTEX
  5
4F3
  8
DEFAULT
 10
25.1505724538025
 20
-19.17333292995814
 30
0.0
  0
VERTEX
  5
4F4
  8
DEFAULT
 10
25.73470556164174
 20
-19.38807965608935
 30
0.0
  0
VERTEX
  5
4F5
  8
DEFAULT
 10
26.33473677562964
 20
-19.59206458728915
 30
0.0
  0
VERTEX
  5
4F6
  8
DEFAULT
 10
26.95029921639356
 20
-19.78528772355755
 30
0.0
  0
VERTEX
  5
4F7
  8
DEFAULT
 10
27.58102600456081
 20
-19.96774906489454
 30
0.0
  0
VERTEX
  5
4F8
  8
DEFAULT
 10
28.22655026075875
 20
-20.13944861130013
 30
0.0
  0
VERTEX
  5
4F9
  8
DEFAULT
 10
28.88650510561471
 20
-20.30038636277432
 30
0.0
  0
VERTEX
  5
4FA
  8
DEFAULT
 10
29.56052365975602
 20
-20.4505623193171
 30
0.0
  0
VERTEX
  5
4FB
  8
DEFAULT
 10
30.24964541473857
 20
-20.58965036593055
 30
0.0
  0
VERTEX
  5
4FC
  8
DEFAULT
 10
30.96053534583236
 20
-20.71601992762507
 30
0.0
  0
VERTEX
  5
4FD
  8
DEFAULT
 10
31.70126479923596
 20
-20.82771431441314
 30
0.0
  0
VERTEX
  5
4FE
  8
DEFAULT
 10
32.47990512114792
 20
-20.92277683630721
 30
0.0
  0
VERTEX
  5
4FF
  8
DEFAULT
 10
33.30452765776678
 20
-20.99925080331977
 30
0.0
  0
VERTEX
  5
500
  8
DEFAULT
 10
34.1832037552911
 20
-21.05517952546328
 30
0.0
  0
VERTEX
  5
501
  8
DEFAULT
 10
35.12400475991945
 20
-21.08860631275022
 30
0.0
  0
VERTEX
  5
502
  8
DEFAULT
 10
36.13500201785037
 20
-21.09757447519305
 30
0.0
  0
VERTEX
  5
503
  8
DEFAULT
 10
37.22041464186946
 20
-21.08051458436429
 30
0.0
  0
VERTEX
  5
504
  8
DEFAULT
 10
38.36905281111056
 20
-21.03740625807657
 30
0.0
  0
VERTEX
  5
505
  8
DEFAULT
 10
39.56587447129453
 20
-20.96861637570254
 30
0.0
  0
VERTEX
  5
506
  8
DEFAULT
 10
40.79583756814226
 20
-20.87451181661486
 30
0.0
  0
VERTEX
  5
507
  8
DEFAULT
 10
42.04390004737463
 20
-20.7554594601862
 30
0.0
  0
VERTEX
  5
508
  8
DEFAULT
 10
43.29501985471251
 20
-20.61182618578921
 30
0.0
  0
VERTEX
  5
509
  8
DEFAULT
 10
44.53415493587678
 20
-20.44397887279657
 30
0.0
  0
VERTEX
  5
50A
  8
DEFAULT
 10
45.74626323658832
 20
-20.25228440058092
 30
0.0
  0
VERTEX
  5
50B
  8
DEFAULT
 10
46.91838168567975
 20
-20.03739499913813
 30
0.0
  0
VERTEX
  5
50C
  8
DEFAULT
 10
48.0458631444307
 20
-19.80110430095674
 30
0.0
  0
VERTEX
  5
50D
  8
DEFAULT
 10
49.12613945723253
 20
-19.54549128914852
 30
0.0
  0
VERTEX
  5
50E
  8
DEFAULT
 10
50.15664246847662
 20
-19.2726349468252
 30
0.0
  0
VERTEX
  5
50F
  8
DEFAULT
 10
51.13480402255433
 20
-18.98461425709854
 30
0.0
  0
VERTEX
  5
510
  8
DEFAULT
 10
52.05805596385704
 20
-18.68350820308028
 30
0.0
  0
VERTEX
  5
511
  8
DEFAULT
 10
52.9238301367761
 20
-18.37139576788218
 30
0.0
  0
VERTEX
  5
512
  8
DEFAULT
 10
53.7295583857029
 20
-18.05035593461599
 30
0.0
  0
VERTEX
  5
513
  8
DEFAULT
 10
54.10926579754047
 20
-17.88704111053976
 30
0.0
  0
VERTEX
  5
514
  8
DEFAULT
 10
54.47397701502049
 20
-17.72169316327337
 30
0.0
  0
VERTEX
  5
515
  8
DEFAULT
 10
54.82434936368566
 20
-17.55399107336574
 30
0.0
  0
VERTEX
  5
516
  8
DEFAULT
 10
55.16104016907865
 20
-17.38361382136578
 30
0.0
  0
VERTEX
  5
517
  8
DEFAULT
 10
55.48470675674216
 20
-17.21024038782242
 30
0.0
  0
VERTEX
  5
518
  8
DEFAULT
 10
55.79600645221888
 20
-17.03354975328459
 30
0.0
  0
VERTEX
  5
519
  8
DEFAULT
 10
56.09559658105148
 20
-16.85322089830119
 30
0.0
  0
VERTEX
  5
51A
  8
DEFAULT
 10
56.38413446878266
 20
-16.66893280342115
 30
0.0
  0
VERTEX
  5
51B
  8
DEFAULT
 10
56.66227744095509
 20
-16.4803644491934
 30
0.0
  0
VERTEX
  5
51C
  8
DEFAULT
 10
56.93068282311147
 20
-16.28719481616685
 30
0.0
  0
VERTEX
  5
51D
  8
DEFAULT
 10
57.19000794079447
 20
-16.08910288489042
 30
0.0
  0
VERTEX
  5
51E
  8
DEFAULT
 10
57.44091011954679
 20
-15.88576763591304
 30
0.0
  0
VERTEX
  5
51F
  8
DEFAULT
 10
57.6840466849111
 20
-15.67686804978362
 30
0.0
  0
VERTEX
  5
520
  8
DEFAULT
 10
57.92007496243009
 20
-15.4620831070511
 30
0.0
  0
VERTEX
  5
521
  8
DEFAULT
 10
58.14965227764647
 20
-15.24109178826438
 30
0.0
  0
VERTEX
  5
522
  8
DEFAULT
 10
58.37343595610288
 20
-15.0135730739724
 30
0.0
  0
VERTEX
  5
523
  8
DEFAULT
 10
58.59201198568624
 20
-14.77918556253669
 30
0.0
  0
VERTEX
  5
524
  8
DEFAULT
 10
58.80568100366025
 20
-14.53750632356934
 30
0.0
  0
VERTEX
  5
525
  8
DEFAULT
 10
59.01467230963283
 20
-14.28809204449504
 30
0.0
  0
VERTEX
  5
526
  8
DEFAULT
 10
59.21921520321189
 20
-14.03049941273849
 30
0.0
  0
VERTEX
  5
527
  8
DEFAULT
 10
59.41953898400534
 20
-13.7642851157244
 30
0.0
  0
VERTEX
  5
528
  8
DEFAULT
 10
59.6158729516211
 20
-13.48900584087747
 30
0.0
  0
VERTEX
  5
529
  8
DEFAULT
 10
59.80844640566708
 20
-13.20421827562239
 30
0.0
  0
VERTEX
  5
52A
  8
DEFAULT
 10
59.99748864575118
 20
-12.90947910738386
 30
0.0
  0
VERTEX
  5
52B
  8
DEFAULT
 10
60.18322897148134
 20
-12.6043450235866
 30
0.0
  0
VERTEX
  5
52C
  8
DEFAULT
 10
60.36589668246545
 20
-12.28837271165529
 30
0.0
  0
VERTEX
  5
52D
  8
DEFAULT
 10
60.54572107831144
 20
-11.96111885901464
 30
0.0
  0
VERTEX
  5
52E
  8
DEFAULT
 10
60.72293145862722
 20
-11.62214015308934
 30
0.0
  0
VERTEX
  5
52F
  8
DEFAULT
 10
60.8977571230207
 20
-11.27099328130411
 30
0.0
  0
VERTEX
  5
530
  8
DEFAULT
 10
61.07042737109979
 20
-10.90723493108364
 30
0.0
  0
VERTEX
  5
531
  8
DEFAULT
 10
61.41021881674646
 20
-10.14011054503578
 30
0.0
  0
VERTEX
  5
532
  8
DEFAULT
 10
61.74369178430841
 20
-9.31934024182986
 30
0.0
  0
VERTEX
  5
533
  8
DEFAULT
 10
62.07043863003823
 20
-8.451976258295927
 30
0.0
  0
VERTEX
  5
534
  8
DEFAULT
 10
62.38960330206638
 20
-7.547190578750518
 30
0.0
  0
VERTEX
  5
535
  8
DEFAULT
 10
62.70032974852332
 20
-6.614155187510173
 30
0.0
  0
VERTEX
  5
536
  8
DEFAULT
 10
63.29304375724536
 20
-4.700023207210823
 30
0.0
  0
VERTEX
  5
537
  8
DEFAULT
 10
63.84173224124803
 20
-2.782956191930182
 30
0.0
  0
VERTEX
  5
538
  8
DEFAULT
 10
64.33954678557495
 20
-0.9208395537992952
 30
0.0
  0
VERTEX
  5
539
  8
DEFAULT
 10
64.77963897526982
 20
0.8904031446558619
 30
0.0
  0
VERTEX
  5
53A
  8
DEFAULT
 10
65.15516039537627
 20
2.67033880331057
 30
0.0
  0
VERTEX
  5
53B
  8
DEFAULT
 10
65.31656693715996
 20
3.554681148923781
 30
0.0
  0
VERTEX
  5
53C
  8
DEFAULT
 10
65.45926263093791
 20
4.43853432204011
 30
0.0
  0
VERTEX
  5
53D
  8
DEFAULT
 10
65.58239142484058
 20
5.322978578590175
 30
0.0
  0
VERTEX
  5
53E
  8
DEFAULT
 10
65.68509726699844
 20
6.203631748289404
 30
0.0
  0
VERTEX
  5
53F
  8
DEFAULT
 10
65.76652410554193
 20
7.074746054299434
 30
0.0
  0
VERTEX
  5
540
  8
DEFAULT
 10
65.82581588860151
 20
7.930573719781901
 30
0.0
  0
VERTEX
  5
541
  8
DEFAULT
 10
65.86211656430763
 20
8.76536696789844
 30
0.0
  0
VERTEX
  5
542
  8
DEFAULT
 10
65.87457008079073
 20
9.573378021810688
 30
0.0
  0
VERTEX
  5
543
  8
DEFAULT
 10
65.86232038618132
 20
10.34885910468028
 30
0.0
  0
VERTEX
  5
544
  8
DEFAULT
 10
65.84666431850766
 20
10.7226047267121
 30
0.0
  0
VERTEX
  5
545
  8
DEFAULT
 10
65.82451142860981
 20
11.08606243966886
 30
0.0
  0
VERTEX
  5
546
  8
DEFAULT
 10
65.79580056992563
 20
11.43865899453079
 30
0.0
  0
VERTEX
  5
547
  8
DEFAULT
 10
65.76065403557934
 20
11.78040203461815
 30
0.0
  0
VERTEX
  5
548
  8
DEFAULT
 10
65.71923997861674
 20
12.11144442633621
 30
0.0
  0
VERTEX
  5
549
  8
DEFAULT
 10
65.67172655208365
 20
12.43193903609026
 30
0.0
  0
VERTEX
  5
54A
  8
DEFAULT
 10
65.61828190902588
 20
12.74203873028556
 30
0.0
  0
VERTEX
  5
54B
  8
DEFAULT
 10
65.55907420248921
 20
13.0418963753274
 30
0.0
  0
VERTEX
  5
54C
  8
DEFAULT
 10
65.49427158551946
 20
13.33166483762104
 30
0.0
  0
VERTEX
  5
54D
  8
DEFAULT
 10
65.4240422111624
 20
13.61149698357177
 30
0.0
  0
VERTEX
  5
54E
  8
DEFAULT
 10
65.34855423246387
 20
13.88154567958486
 30
0.0
  0
VERTEX
  5
54F
  8
DEFAULT
 10
65.26797580246966
 20
14.14196379206558
 30
0.0
  0
VERTEX
  5
550
  8
DEFAULT
 10
65.18247507422558
 20
14.39290418741922
 30
0.0
  0
VERTEX
  5
551
  8
DEFAULT
 10
65.09222020077743
 20
14.63451973205104
 30
0.0
  0
VERTEX
  5
552
  8
DEFAULT
 10
64.99737933517102
 20
14.86696329236632
 30
0.0
  0
VERTEX
  5
553
  8
DEFAULT
 10
64.89812063045213
 20
15.09038773477034
 30
0.0
  0
VERTEX
  5
554
  8
DEFAULT
 10
64.79461223966658
 20
15.30494592566837
 30
0.0
  0
SEQEND
  5
555
  8
DEFAULT
  0
POLYLINE
  5
556
  8
DEFAULT
 66
     1
 10
0.0
 20
0.0
 30
0.0
 70
     1
  0
VERTEX
  5
557
  8
DEFAULT
 10
71.45986163470499
 20
13.35871897797407
 30
0.0
  0
VERTEX
  5
558
  8
DEFAULT
 10
68.54013836529501
 20
13.35871897797407
 30
0.0
  0
VERTEX
  5
559
  8
DEFAULT
 10
68.54013836529501
 20
21.99440162636553
 30
0.0
  0
VERTEX
  5
55A
  8
DEFAULT
 10
71.45986163470499
 20
21.99440162636553
 30
0.0
  0
SEQEND
  5
55B
  8
DEFAULT
  0
POLYLINE
  5
55C
  8
DEFAULT
 66
     1
 10
0.0
 20
0.0
 30
0.0
 70
     1
  0
VERTEX
  5
55D
  8
DEFAULT
 10
-64.68702231586015
 20
15.51079073146569
 30
0.0
  0
VERTEX
  5
55E
  8
DEFAULT
 10
-64.57547060438368
 20
15.70809030520811
 30
0.0
  0
VERTEX
  5
55F
  8
DEFAULT
 10
-64.51818901455349
 20
15.80360633077117
 30
0.0
  0
VERTEX
  5
560
  8
DEFAULT
 10
-64.45988321980794
 20
15.89707394650353
 30
0.0
  0
VERTEX
  5
561
  8
DEFAULT
 10
-64.40053793350651
 20
15.98852372568625
 30
0.0
  0
VERTEX
  5
562
  8
DEFAULT
 10
-64.34013786900869
 20
16.0779862416004
 30
0.0
  0
VERTEX
  5
563
  8
DEFAULT
 10
-64.27866773967392
 20
16.16549206752701
 30
0.0
  0
VERTEX
  5
564
  8
DEFAULT
 10
-64.21611225886173
 20
16.25107177674715
 30
0.0
  0
VERTEX
  5
565
  8
DEFAULT
 10
-64.15245613993153
 20
16.33475594254188
 30
0.0
  0
VERTEX
  5
566
  8
DEFAULT
 10
-64.08768409624284
 20
16.41657513819224
 30
0.0
  0
VERTEX
  5
567
  8
DEFAULT
 10
-64.02178084115508
 20
16.49655993697929
 30
0.0
  0
VERTEX
  5
568
  8
DEFAULT
 10
-63.95473108802777
 20
16.57474091218409
 30
0.0
  0
VERTEX
  5
569
  8
DEFAULT
 10
-63.88651955022036
 20
16.65114863708769
 30
0.0
  0
VERTEX
  5
56A
  8
DEFAULT
 10
-63.81713094109233
 20
16.72581368497115
 30
0.0
  0
VERTEX
  5
56B
  8
DEFAULT
 10
-63.74654997400316
 20
16.79876662911553
 30
0.0
  0
VERTEX
  5
56C
  8
DEFAULT
 10
-63.6747613623123
 20
16.87003804280187
 30
0.0
  0
VERTEX
  5
56D
  8
DEFAULT
 10
-63.60174981937923
 20
16.93965849931124
 30
0.0
  0
VERTEX
  5
56E
  8
DEFAULT
 10
-63.52750005856343
 20
17.00765857192468
 30
0.0
  0
VERTEX
  5
56F
  8
DEFAULT
 10
-63.45199679322437
 20
17.07406883392326
 30
0.0
  0
VERTEX
  5
570
  8
DEFAULT
 10
-63.37522473672153
 20
17.13891985858802
 30
0.0
  0
VERTEX
  5
571
  8
DEFAULT
 10
-63.29716860241437
 20
17.20224221920003
 30
0.0
  0
VERTEX
  5
572
  8
DEFAULT
 10
-63.21781310366238
 20
17.26406648904034
 30
0.0
  0
VERTEX
  5
573
  8
DEFAULT
 10
-63.13714295382501
 20
17.32442324139
 30
0.0
  0
VERTEX
  5
574
  8
DEFAULT
 10
-63.05514286626173
 20
17.38334304953007
 30
0.0
  0
VERTEX
  5
575
  8
DEFAULT
 10
-62.97179755433204
 20
17.44085648674161
 30
0.0
  0
VERTEX
  5
576
  8
DEFAULT
 10
-62.88709173139539
 20
17.49699412630566
 30
0.0
  0
VERTEX
  5
577
  8
DEFAULT
 10
-62.80101011081126
 20
17.55178654150329
 30
0.0
  0
VERTEX
  5
578
  8
DEFAULT
 10
-62.71353740593912
 20
17.60526430561555
 30
0.0
  0
VERTEX
  5
579
  8
DEFAULT
 10
-62.53435759676871
 20
17.70839817370818
 30
0.0
  0
VERTEX
  5
57A
  8
DEFAULT
 10
-62.34943001075994
 20
17.80664031683198
 30
0.0
  0
VERTEX
  5
57B
  8
DEFAULT
 10
-62.15860432928093
 20
17.90024296455567
 30
0.0
  0
VERTEX
  5
57C
  8
DEFAULT
 10
-61.96161813166934
 20
17.989488919729
 30
0.0
  0
VERTEX
  5
57D
  8
DEFAULT
 10
-61.75818097175511
 20
18.07466862852201
 30
0.0
  0
VERTEX
  5
57E
  8
DEFAULT
 10
-61.54800240336822
 20
18.1560725371047
 30
0.0
  0
VERTEX
  5
57F
  8
DEFAULT
 10
-61.33079198033866
 20
18.23399109164711
 30
0.0
  0
VERTEX
  5
580
  8
DEFAULT
 10
-61.10625925649639
 20
18.30871473831926
 30
0.0
  0
VERTEX
  5
581
  8
DEFAULT
 10
-60.8741137856714
 20
18.38053392329117
 30
0.0
  0
VERTEX
  5
582
  8
DEFAULT
 10
-60.63406512169365
 20
18.44973909273288
 30
0.0
  0
VERTEX
  5
583
  8
DEFAULT
 10
-60.12909642959982
 20
18.58146916970573
 30
0.0
  0
VERTEX
  5
584
  8
DEFAULT
 10
-59.58902961085469
 20
18.70622853859802
 30
0.0
  0
VERTEX
  5
585
  8
DEFAULT
 10
-58.39430731596984
 20
18.94412942958164
 30
0.0
  0
VERTEX
  5
586
  8
DEFAULT
 10
-57.0394625571056
 20
19.17632330810164
 30
0.0
  0
VERTEX
  5
587
  8
DEFAULT
 10
-55.54667115412063
 20
19.39286366672141
 30
0.0
  0
VERTEX
  5
588
  8
DEFAULT
 10
-53.94626180182162
 20
19.57809698554073
 30
0.0
  0
VERTEX
  5
589
  8
DEFAULT
 10
-53.11517811180644
 20
19.65408178005641
 30
0.0
  0
VERTEX
  5
58A
  8
DEFAULT
 10
-52.26856319501525
 20
19.71636974465939
 30
0.0
  0
VERTEX
  5
58B
  8
DEFAULT
 10
-50.53836007354356
 20
19.79740932164284
 30
0.0
  0
VERTEX
  5
58C
  8
DEFAULT
 10
-48.75826135738988
 20
19.83246668391939
 30
0.0
  0
VERTEX
  5
58D
  8
DEFAULT
 10
-41.07629646635463
 20
19.79463734416051
 30
0.0
  0
VERTEX
  5
58E
  8
DEFAULT
 10
-38.99339997463098
 20
19.72843599958248
 30
0.0
  0
VERTEX
  5
58F
  8
DEFAULT
 10
-36.83419257339374
 20
19.60157726539108
 30
0.0
  0
VERTEX
  5
590
  8
DEFAULT
 10
-34.60487044760342
 20
19.40003819667568
 30
0.0
  0
VERTEX
  5
591
  8
DEFAULT
 10
-32.35989480191286
 20
19.13979842833444
 30
0.0
  0
VERTEX
  5
592
  8
DEFAULT
 10
-28.0890927891349
 20
18.53713791217579
 30
0.0
  0
VERTEX
  5
593
  8
DEFAULT
 10
-26.17920030380852
 20
18.2331987341131
 30
0.0
  0
VERTEX
  5
594
  8
DEFAULT
 10
-24.41703791254052
 20
17.91360603615018
 30
0.0
  0
VERTEX
  5
595
  8
DEFAULT
 10
-23.58004338818802
 20
17.7393790985107
 30
0.0
  0
VERTEX
  5
596
  8
DEFAULT
 10
-22.76640685056162
 20
17.55096615846164
 30
0.0
  0
VERTEX
  5
597
  8
DEFAULT
 10
-21.97160345406519
 20
17.34494300852483
 30
0.0
  0
VERTEX
  5
598
  8
DEFAULT
 10
-21.19110835310256
 20
17.11788544122209
 30
0.0
  0
VERTEX
  5
599
  8
DEFAULT
 10
-20.42166039769451
 20
16.86685842157213
 30
0.0
  0
VERTEX
  5
59A
  8
DEFAULT
 10
-20.04156062875007
 20
16.73202006102534
 30
0.0
  0
VERTEX
  5
59B
  8
DEFAULT
 10
-19.66505322032962
 20
16.59088360458119
 30
0.0
  0
VERTEX
  5
59C
  8
DEFAULT
 10
-19.29252033844632
 20
16.44338790567758
 30
0.0
  0
VERTEX
  5
59D
  8
DEFAULT
 10
-18.92434414911339
 20
16.28947181775239
 30
0.0
  0
VERTEX
  5
59E
  8
DEFAULT
 10
-18.56090681834399
 20
16.12907419424351
 30
0.0
  0
VERTEX
  5
59F
  8
DEFAULT
 10
-18.20259051215134
 20
15.96213388858884
 30
0.0
  0
VERTEX
  5
5A0
  8
DEFAULT
 10
-17.8497773965486
 20
15.78858975422626
 30
0.0
  0
VERTEX
  5
5A1
  8
DEFAULT
 10
-17.50284963754898
 20
15.60838064459366
 30
0.0
  0
VERTEX
  5
5A2
  8
DEFAULT
 10
-17.16218940116566
 20
15.42144541312893
 30
0.0
  0
VERTEX
  5
5A3
  8
DEFAULT
 10
-16.82817885341182
 20
15.22772291326996
 30
0.0
  0
VERTEX
  5
5A4
  8
DEFAULT
 10
-16.50120016030067
 20
15.02715199845465
 30
0.0
  0
VERTEX
  5
5A5
  8
DEFAULT
 10
-16.18163548784538
 20
14.81967152212088
 30
0.0
  0
VERTEX
  5
5A6
  8
DEFAULT
 10
-15.86986700205915
 20
14.60522033770654
 30
0.0
  0
VERTEX
  5
5A7
  8
DEFAULT
 10
-15.56627686895517
 20
14.38373729864952
 30
0.0
  0
VERTEX
  5
5A8
  8
DEFAULT
 10
-15.27123451567952
 20
14.15514342397376
 30
0.0
  0
VERTEX
  5
5A9
  8
DEFAULT
 10
-14.98505841390985
 20
13.91928839504741
 30
0.0
  0
VERTEX
  5
5AA
  8
DEFAULT
 10
-14.70805429645672
 20
13.67600405882466
 30
0.0
  0
VERTEX
  5
5AB
  8
DEFAULT
 10
-14.44052789613068
 20
13.42512226225972
 30
0.0
  0
VERTEX
  5
5AC
  8
DEFAULT
 10
-14.18278494574228
 20
13.16647485230677
 30
0.0
  0
VERTEX
  5
5AD
  8
DEFAULT
 10
-14.05767780577799
 20
13.03418649448298
 30
0.0
  0
VERTEX
  5
5AE
  8
DEFAULT
 10
-13.93513117810207
 20
12.89989367592002
 30
0.0
  0
VERTEX
  5
5AF
  8
DEFAULT
 10
-13.81518327931584
 20
12.76357537748715
 30
0.0
  0
VERTEX
  5
5B0
  8
DEFAULT
 10
-13.69787232602061
 20
12.62521058005366
 30
0.0
  0
VERTEX
  5
5B1
  8
DEFAULT
 10
-13.5832365348177
 20
12.48477826448881
 30
0.0
  0
VERTEX
  5
5B2
  8
DEFAULT
 10
-13.47131412230843
 20
12.34225741166188
 30
0.0
  0
VERTEX
  5
5B3
  8
DEFAULT
 10
-13.36214330509413
 20
12.19762700244216
 30
0.0
  0
VERTEX
  5
5B4
  8
DEFAULT
 10
-13.25576229977611
 20
12.0508660176989
 30
0.0
  0
VERTEX
  5
5B5
  8
DEFAULT
 10
-13.15220932295568
 20
11.90195343830139
 30
0.0
  0
VERTEX
  5
5B6
  8
DEFAULT
 10
-13.05152259123418
 20
11.75086824511889
 30
0.0
  0
VERTEX
  5
5B7
  8
DEFAULT
 10
-12.95374032121291
 20
11.59758941902069
 30
0.0
  0
VERTEX
  5
5B8
  8
DEFAULT
 10
-12.8589007294932
 20
11.44209594087607
 30
0.0
  0
VERTEX
  5
5B9
  8
DEFAULT
 10
-12.76704203267636
 20
11.28436679155428
 30
0.0
  0
VERTEX
  5
5BA
  8
DEFAULT
 10
-12.67820244736372
 20
11.12438095192461
 30
0.0
  0
VERTEX
  5
5BB
  8
DEFAULT
 10
-12.59242019015659
 20
10.96211740285634
 30
0.0
  0
VERTEX
  5
5BC
  8
DEFAULT
 10
-12.50973347765629
 20
10.79755512521873
 30
0.0
  0
VERTEX
  5
5BD
  8
DEFAULT
 10
-12.43018052646414
 20
10.63067309988107
 30
0.0
  0
VERTEX
  5
5BE
  8
DEFAULT
 10
-12.35379955318146
 20
10.46145030771262
 30
0.0
  0
VERTEX
  5
5BF
  8
DEFAULT
 10
-12.28062877440957
 20
10.28986572958267
 30
0.0
  0
VERTEX
  5
5C0
  8
DEFAULT
 10
-12.21070640674978
 20
10.11589834636048
 30
0.0
  0
VERTEX
  5
5C1
  8
DEFAULT
 10
-12.14407066680342
 20
9.939527138915334
 30
0.0
  0
VERTEX
  5
5C2
  8
DEFAULT
 10
-12.08075977117181
 20
9.7607310881165
 30
0.0
  0
VERTEX
  5
5C3
  8
DEFAULT
 10
-12.02079696828741
 20
9.579499365926946
 30
0.0
  0
VERTEX
  5
5C4
  8
DEFAULT
 10
-11.96414563390729
 20
9.39586190868436
 30
0.0
  0
VERTEX
  5
5C5
  8
DEFAULT
 10
-11.91075417561968
 20
9.209858843820136
 30
0.0
  0
VERTEX
  5
5C6
  8
DEFAULT
 10
-11.86057100101279
 20
9.021530298765658
 30
0.0
  0
VERTEX
  5
5C7
  8
DEFAULT
 10
-11.81354451767484
 20
8.830916400952308
 30
0.0
  0
VERTEX
  5
5C8
  8
DEFAULT
 10
-11.76962313319405
 20
8.638057277811473
 30
0.0
  0
VERTEX
  5
5C9
  8
DEFAULT
 10
-11.69088929115684
 20
8.245763865272883
 30
0.0
  0
VERTEX
  5
5CA
  8
DEFAULT
 10
-11.6239567356069
 20
7.844971080600969
 30
0.0
  0
VERTEX
  5
5CB
  8
DEFAULT
 10
-11.56841272725
 20
7.435999943246808
 30
0.0
  0
VERTEX
  5
5CC
  8
DEFAULT
 10
-11.52384452679189
 20
7.019171472661479
 30
0.0
  0
VERTEX
  5
5CD
  8
DEFAULT
 10
-11.48983939493833
 20
6.594806688296062
 30
0.0
  0
VERTEX
  5
5CE
  8
DEFAULT
 10
-11.46598459239507
 20
6.163226609601635
 30
0.0
  0
VERTEX
  5
5CF
  8
DEFAULT
 10
-11.45186737986786
 20
5.724752256029277
 30
0.0
  0
VERTEX
  5
5D0
  8
DEFAULT
 10
-11.44707501806247
 20
5.279704647030067
 30
0.0
  0
VERTEX
  5
5D1
  8
DEFAULT
 10
-11.45119476768465
 20
4.828404802055084
 30
0.0
  0
VERTEX
  5
5D2
  8
DEFAULT
 10
-11.48451964403474
 20
3.908332481982113
 30
0.0
  0
VERTEX
  5
5D3
  8
DEFAULT
 10
-11.54854009456417
 20
2.967103451418995
 30
0.0
  0
VERTEX
  5
5D4
  8
DEFAULT
 10
-11.64085102116329
 20
2.00740815909858
 30
0.0
  0
VERTEX
  5
5D5
  8
DEFAULT
 10
-11.76263459069954
 20
1.032426226250602
 30
0.0
  0
VERTEX
  5
5D6
  8
DEFAULT
 10
-11.91596978628468
 20
0.0454595672290141
 30
0.0
  0
VERTEX
  5
5D7
  8
DEFAULT
 10
-12.10293559103046
 20
-0.9501899036122295
 30
0.0
  0
VERTEX
  5
5D8
  8
DEFAULT
 10
-12.32561098804863
 20
-1.951220271919175
 30
0.0
  0
VERTEX
  5
5D9
  8
DEFAULT
 10
-12.45098946588229
 20
-2.452721444386676
 30
0.0
  0
VERTEX
  5
5DA
  8
DEFAULT
 10
-12.58607496045094
 20
-2.95432962333787
 30
0.0
  0
VERTEX
  5
5DB
  8
DEFAULT
 10
-12.73112734464357
 20
-3.455632069478513
 30
0.0
  0
VERTEX
  5
5DC
  8
DEFAULT
 10
-12.88640649134913
 20
-3.95621604351436
 30
0.0
  0
VERTEX
  5
5DD
  8
DEFAULT
 10
-13.05217227345661
 20
-4.455668806151167
 30
0.0
  0
VERTEX
  5
5DE
  8
DEFAULT
 10
-13.22868456385496
 20
-4.953577618094691
 30
0.0
  0
VERTEX
  5
5DF
  8
DEFAULT
 10
-13.41600705687971
 20
-5.449473689035417
 30
0.0
  0
VERTEX
  5
5E0
  8
DEFAULT
 10
-13.61341873265266
 20
-5.942664024602765
 30
0.0
  0
VERTEX
  5
5E1
  8
DEFAULT
 10
-14.03484083871652
 20
-6.917931308073922
 30
0.0
  0
VERTEX
  5
5E2
  8
DEFAULT
 10
-14.48561329459331
 20
-7.873387105421359
 30
0.0
  0
VERTEX
  5
5E3
  8
DEFAULT
 10
-14.95839851282978
 20
-8.803039053558267
 30
0.0
  0
VERTEX
  5
5E4
  8
DEFAULT
 10
-15.44585890597271
 20
-9.700894789397843
 30
0.0
  0
VERTEX
  5
5E5
  8
DEFAULT
 10
-15.94065688656888
 20
-10.56096194985329
 30
0.0
  0
VERTEX
  5
5E6
  8
DEFAULT
 10
-16.43545486716504
 20
-11.37724817183779
 30
0.0
  0
VERTEX
  5
5E7
  8
DEFAULT
 10
-16.92291526030798
 20
-12.14376109226454
 30
0.0
  0
VERTEX
  5
5E8
  8
DEFAULT
 10
-17.39741258228354
 20
-12.85603701209951
 30
0.0
  0
VERTEX
  5
5E9
  8
DEFAULT
 10
-17.86016976433393
 20
-13.51572688851965
 30
0.0
  0
VERTEX
  5
5EA
  8
DEFAULT
 10
-18.31412184144045
 20
-14.12601034275471
 30
0.0
  0
VERTEX
  5
5EB
  8
DEFAULT
 10
-18.76220384858438
 20
-14.69006699603442
 30
0.0
  0
VERTEX
  5
5EC
  8
DEFAULT
 10
-18.98496077435203
 20
-14.95575390395031
 30
0.0
  0
VERTEX
  5
5ED
  8
DEFAULT
 10
-19.20735082074702
 20
-15.21107646958851
 30
0.0
  0
VERTEX
  5
5EE
  8
DEFAULT
 10
-19.42974086714201
 20
-15.45643214560274
 30
0.0
  0
VERTEX
  5
5EF
  8
DEFAULT
 10
-19.65249779290965
 20
-15.69221838464672
 30
0.0
  0
VERTEX
  5
5F0
  8
DEFAULT
 10
-19.87598847742262
 20
-15.91883263937416
 30
0.0
  0
VERTEX
  5
5F1
  8
DEFAULT
 10
-20.10057980005358
 20
-16.13667236243877
 30
0.0
  0
VERTEX
  5
5F2
  8
DEFAULT
 10
-20.32663864017519
 20
-16.34613500649429
 30
0.0
  0
VERTEX
  5
5F3
  8
DEFAULT
 10
-20.55453187716009
 20
-16.54761802419441
 30
0.0
  0
VERTEX
  5
5F4
  8
DEFAULT
 10
-20.78458562600623
 20
-16.74150358155234
 30
0.0
  0
VERTEX
  5
5F5
  8
DEFAULT
 10
-21.01696294421257
 20
-16.92811269801915
 30
0.0
  0
VERTEX
  5
5F6
  8
DEFAULT
 10
-21.25178612490331
 20
-17.10775110640538
 30
0.0
  0
VERTEX
  5
5F7
  8
DEFAULT
 10
-21.48917746120268
 20
-17.2807245395216
 30
0.0
  0
VERTEX
  5
5F8
  8
DEFAULT
 10
-21.7292592462349
 20
-17.44733873017836
 30
0.0
  0
VERTEX
  5
5F9
  8
DEFAULT
 10
-21.97215377312419
 20
-17.60789941118619
 30
0.0
  0
VERTEX
  5
5FA
  8
DEFAULT
 10
-22.21798333499478
 20
-17.76271231535567
 30
0.0
  0
VERTEX
  5
5FB
  8
DEFAULT
 10
-22.46687022497088
 20
-17.91208317549733
 30
0.0
  0
VERTEX
  5
5FC
  8
DEFAULT
 10
-22.71893673617671
 20
-18.05631772442173
 30
0.0
  0
VERTEX
  5
5FD
  8
DEFAULT
 10
-22.9743051617365
 20
-18.19572169493942
 30
0.0
  0
VERTEX
  5
5FE
  8
DEFAULT
 10
-23.23309779477446
 20
-18.33060081986095
 30
0.0
  0
VERTEX
  5
5FF
  8
DEFAULT
 10
-23.49543692841481
 20
-18.46126083199688
 30
0.0
  0
VERTEX
  5
600
  8
DEFAULT
 10
-24.03124386999958
 20
-18.71114644915411
 30
0.0
  0
VERTEX
  5
601
  8
DEFAULT
 10
-24.58270433148458
 20
-18.94782440889553
 30
0.0
  0
VERTEX
  5
602
  8
DEFAULT
 10
-25.1505724538025
 20
-19.17333292995814
 30
0.0
  0
VERTEX
  5
603
  8
DEFAULT
 10
-25.73470556164174
 20
-19.38807965608935
 30
0.0
  0
VERTEX
  5
604
  8
DEFAULT
 10
-26.33473677562964
 20
-19.59206458728915
 30
0.0
  0
VERTEX
  5
605
  8
DEFAULT
 10
-26.95029921639356
 20
-19.78528772355755
 30
0.0
  0
VERTEX
  5
606
  8
DEFAULT
 10
-27.58102600456081
 20
-19.96774906489454
 30
0.0
  0
VERTEX
  5
607
  8
DEFAULT
 10
-28.22655026075875
 20
-20.13944861130013
 30
0.0
  0
VERTEX
  5
608
  8
DEFAULT
 10
-28.88650510561471
 20
-20.30038636277432
 30
0.0
  0
VERTEX
  5
609
  8
DEFAULT
 10
-29.56052365975602
 20
-20.4505623193171
 30
0.0
  0
VERTEX
  5
60A
  8
DEFAULT
 10
-30.24964541473857
 20
-20.58965036593055
 30
0.0
  0
VERTEX
  5
60B
  8
DEFAULT
 10
-30.96053534583236
 20
-20.71601992762507
 30
0.0
  0
VERTEX
  5
60C
  8
DEFAULT
 10
-31.70126479923596
 20
-20.82771431441314
 30
0.0
  0
VERTEX
  5
60D
  8
DEFAULT
 10
-32.47990512114792
 20
-20.92277683630721
 30
0.0
  0
VERTEX
  5
60E
  8
DEFAULT
 10
-33.30452765776678
 20
-20.99925080331977
 30
0.0
  0
VERTEX
  5
60F
  8
DEFAULT
 10
-34.1832037552911
 20
-21.05517952546328
 30
0.0
  0
VERTEX
  5
610
  8
DEFAULT
 10
-35.12400475991945
 20
-21.08860631275022
 30
0.0
  0
VERTEX
  5
611
  8
DEFAULT
 10
-36.13500201785037
 20
-21.09757447519305
 30
0.0
  0
VERTEX
  5
612
  8
DEFAULT
 10
-37.22041464186946
 20
-21.08051458436429
 30
0.0
  0
VERTEX
  5
613
  8
DEFAULT
 10
-38.36905281111056
 20
-21.03740625807657
 30
0.0
  0
VERTEX
  5
614
  8
DEFAULT
 10
-39.56587447129453
 20
-20.96861637570254
 30
0.0
  0
VERTEX
  5
615
  8
DEFAULT
 10
-40.79583756814226
 20
-20.87451181661486
 30
0.0
  0
VERTEX
  5
616
  8
DEFAULT
 10
-42.04390004737463
 20
-20.7554594601862
 30
0.0
  0
VERTEX
  5
617
  8
DEFAULT
 10
-43.29501985471251
 20
-20.61182618578921
 30
0.0
  0
VERTEX
  5
618
  8
DEFAULT
 10
-44.53415493587678
 20
-20.44397887279657
 30
0.0
  0
VERTEX
  5
619
  8
DEFAULT
 10
-45.74626323658832
 20
-20.25228440058092
 30
0.0
  0
VERTEX
  5
61A
  8
DEFAULT
 10
-46.91838168567975
 20
-20.03739499913813
 30
0.0
  0
VERTEX
  5
61B
  8
DEFAULT
 10
-48.0458631444307
 20
-19.80110430095674
 30
0.0
  0
VERTEX
  5
61C
  8
DEFAULT
 10
-49.12613945723253
 20
-19.54549128914852
 30
0.0
  0
VERTEX
  5
61D
  8
DEFAULT
 10
-50.15664246847662
 20
-19.2726349468252
 30
0.0
  0
VERTEX
  5
61E
  8
DEFAULT
 10
-51.13480402255433
 20
-18.98461425709854
 30
0.0
  0
VERTEX
  5
61F
  8
DEFAULT
 10
-52.05805596385704
 20
-18.68350820308028
 30
0.0
  0
VERTEX
  5
620
  8
DEFAULT
 10
-52.9238301367761
 20
-18.37139576788218
 30
0.0
  0
VERTEX
  5
621
  8
DEFAULT
 10
-53.7295583857029
 20
-18.05035593461599
 30
0.0
  0
VERTEX
  5
622
  8
DEFAULT
 10
-54.10926579754047
 20
-17.88704111053976
 30
0.0
  0
VERTEX
  5
623
  8
DEFAULT
 10
-54.47397701502049
 20
-17.72169316327337
 30
0.0
  0
VERTEX
  5
624
  8
DEFAULT
 10
-54.82434936368566
 20
-17.55399107336574
 30
0.0
  0
VERTEX
  5
625
  8
DEFAULT
 10
-55.16104016907865
 20
-17.38361382136578
 30
0.0
  0
VERTEX
  5
626
  8
DEFAULT
 10
-55.48470675674216
 20
-17.21024038782242
 30
0.0
  0
VERTEX
  5
627
  8
DEFAULT
 10
-55.79600645221888
 20
-17.03354975328459
 30
0.0
  0
VERTEX
  5
628
  8
DEFAULT
 10
-56.09559658105148
 20
-16.85322089830119
 30
0.0
  0
VERTEX
  5
629
  8
DEFAULT
 10
-56.38413446878266
 20
-16.66893280342115
 30
0.0
  0
VERTEX
  5
62A
  8
DEFAULT
 10
-56.66227744095509
 20
-16.4803644491934
 30
0.0
  0
VERTEX
  5
62B
  8
DEFAULT
 10
-56.93068282311147
 20
-16.28719481616685
 30
0.0
  0
VERTEX
  5
62C
  8
DEFAULT
 10
-57.19000794079447
 20
-16.08910288489042
 30
0.0
  0
VERTEX
  5
62D
  8
DEFAULT
 10
-57.44091011954679
 20
-15.88576763591304
 30
0.0
  0
VERTEX
  5
62E
  8
DEFAULT
 10
-57.6840466849111
 20
-15.67686804978362
 30
0.0
  0
VERTEX
  5
62F
  8
DEFAULT
 10
-57.92007496243009
 20
-15.4620831070511
 30
0.0
  0
VERTEX
  5
630
  8
DEFAULT
 10
-58.14965227764647
 20
-15.24109178826438
 30
0.0
  0
VERTEX
  5
631
  8
DEFAULT
 10
-58.37343595610288
 20
-15.0135730739724
 30
0.0
  0
VERTEX
  5
632
  8
DEFAULT
 10
-58.59201198568624
 20
-14.77918556253669
 30
0.0
  0
VERTEX
  5
633
  8
DEFAULT
 10
-58.80568100366025
 20
-14.53750632356934
 30
0.0
  0
VERTEX
  5
634
  8
DEFAULT
 10
-59.01467230963283
 20
-14.28809204449504
 30
0.0
  0
VERTEX
  5
635
  8
DEFAULT
 10
-59.21921520321189
 20
-14.03049941273849
 30
0.0
  0
VERTEX
  5
636
  8
DEFAULT
 10
-59.41953898400534
 20
-13.7642851157244
 30
0.0
  0
VERTEX
  5
637
  8
DEFAULT
 10
-59.6158729516211
 20
-13.48900584087747
 30
0.0
  0
VERTEX
  5
638
  8
DEFAULT
 10
-59.80844640566708
 20
-13.20421827562239
 30
0.0
  0
VERTEX
  5
639
  8
DEFAULT
 10
-59.99748864575118
 20
-12.90947910738386
 30
0.0
  0
VERTEX
  5
63A
  8
DEFAULT
 10
-60.18322897148134
 20
-12.6043450235866
 30
0.0
  0
VERTEX
  5
63B
  8
DEFAULT
 10
-60.36589668246545
 20
-12.28837271165529
 30
0.0
  0
VERTEX
  5
63C
  8
DEFAULT
 10
-60.54572107831144
 20
-11.96111885901464
 30
0.0
  0
VERTEX
  5
63D
  8
DEFAULT
 10
-60.72293145862722
 20
-11.62214015308934
 30
0.0
  0
VERTEX
  5
63E
  8
DEFAULT
 10
-60.8977571230207
 20
-11.27099328130411
 30
0.0
  0
VERTEX
  5
63F
  8
DEFAULT
 10
-61.07042737109979
 20
-10.90723493108364
 30
0.0
  0
VERTEX
  5
640
  8
DEFAULT
 10
-61.41021881674646
 20
-10.14011054503578
 30
0.0
  0
VERTEX
  5
641
  8
DEFAULT
 10
-61.74369178430841
 20
-9.31934024182986
 30
0.0
  0
VERTEX
  5
642
  8
DEFAULT
 10
-62.07043863003823
 20
-8.451976258295927
 30
0.0
  0
VERTEX
  5
643
  8
DEFAULT
 10
-62.38960330206638
 20
-7.547190578750518
 30
0.0
  0
VERTEX
  5
644
  8
DEFAULT
 10
-62.70032974852332
 20
-6.614155187510173
 30
0.0
  0
VERTEX
  5
645
  8
DEFAULT
 10
-63.29304375724536
 20
-4.700023207210823
 30
0.0
  0
VERTEX
  5
646
  8
DEFAULT
 10
-63.84173224124803
 20
-2.782956191930182
 30
0.0
  0
VERTEX
  5
647
  8
DEFAULT
 10
-64.33954678557495
 20
-0.9208395537992952
 30
0.0
  0
VERTEX
  5
648
  8
DEFAULT
 10
-64.77963897526982
 20
0.8904031446558619
 30
0.0
  0
VERTEX
  5
649
  8
DEFAULT
 10
-65.15516039537627
 20
2.67033880331057
 30
0.0
  0
VERTEX
  5
64A
  8
DEFAULT
 10
-65.31656693715996
 20
3.554681148923781
 30
0.0
  0
VERTEX
  5
64B
  8
DEFAULT
 10
-65.45926263093791
 20
4.43853432204011
 30
0.0
  0
VERTEX
  5
64C
  8
DEFAULT
 10
-65.58239142484058
 20
5.322978578590175
 30
0.0
  0
VERTEX
  5
64D
  8
DEFAULT
 10
-65.68509726699844
 20
6.203631748289404
 30
0.0
  0
VERTEX
  5
64E
  8
DEFAULT
 10
-65.76652410554193
 20
7.074746054299434
 30
0.0
  0
VERTEX
  5
64F
  8
DEFAULT
 10
-65.82581588860151
 20
7.930573719781901
 30
0.0
  0
VERTEX
  5
650
  8
DEFAULT
 10
-65.86211656430763
 20
8.76536696789844
 30
0.0
  0
VERTEX
  5
651
  8
DEFAULT
 10
-65.87457008079073
 20
9.573378021810688
 30
0.0
  0
VERTEX
  5
652
  8
DEFAULT
 10
-65.86232038618132
 20
10.34885910468028
 30
0.0
  0
VERTEX
  5
653
  8
DEFAULT
 10
-65.84666431850766
 20
10.7226047267121
 30
0.0
  0
VERTEX
  5
654
  8
DEFAULT
 10
-65.82451142860981
 20
11.08606243966886
 30
0.0
  0
VERTEX
  5
655
  8
DEFAULT
 10
-65.79580056992563
 20
11.43865899453079
 30
0.0
  0
VERTEX
  5
656
  8
DEFAULT
 10
-65.76065403557934
 20
11.78040203461815
 30
0.0
  0
VERTEX
  5
657
  8
DEFAULT
 10
-65.71923997861674
 20
12.11144442633621
 30
0.0
  0
VERTEX
  5
658
  8
DEFAULT
 10
-65.67172655208365
 20
12.43193903609026
 30
0.0
  0
VERTEX
  5
659
  8
DEFAULT
 10
-65.61828190902588
 20
12.74203873028556
 30
0.0
  0
VERTEX
  5
65A
  8
DEFAULT
 10
-65.55907420248921
 20
13.0418963753274
 30
0.0
  0
VERTEX
  5
65B
  8
DEFAULT
 10
-65.49427158551946
 20
13.33166483762104
 30
0.0
  0
VERTEX
  5
65C
  8
DEFAULT
 10
-65.4240422111624
 20
13.61149698357177
 30
0.0
  0
VERTEX
  5
65D
  8
DEFAULT
 10
-65.34855423246387
 20
13.88154567958486
 30
0.0
  0
VERTEX
  5
65E
  8
DEFAULT
 10
-65.26797580246966
 20
14.14196379206558
 30
0.0
  0
VERTEX
  5
65F
  8
DEFAULT
 10
-65.18247507422558
 20
14.39290418741922
 30
0.0
  0
VERTEX
  5
660
  8
DEFAULT
 10
-65.09222020077743
 20
14.63451973205104
 30
0.0
  0
VERTEX
  5
661
  8
DEFAULT
 10
-64.99737933517102
 20
14.86696329236632
 30
0.0
  0
VERTEX
  5
662
  8
DEFAULT
 10
-64.89812063045213
 20
15.09038773477034
 30
0.0
  0
VERTEX
  5
663
  8
DEFAULT
 10
-64.79461223966658
 20
15.30494592566837
 30
0.0
  0
SEQEND
  5
664
  8
DEFAULT
  0
POLYLINE
  5
665
  8
DEFAULT
 66
     1
 10
0.0
 20
0.0
 30
0.0
 70
     1
  0
VERTEX
  5
666
  8
DEFAULT
 10
-71.45986163470499
 20
13.35871897797407
 30
0.0
  0
VERTEX
  5
667
  8
DEFAULT
 10
-68.54013836529501
 20
13.35871897797407
 30
0.0
  0
VERTEX
  5
668
  8
DEFAULT
 10
-68.54013836529501
 20
21.99440162636553
 30
0.0
  0
VERTEX
  5
669
  8
DEFAULT
 10
-71.45986163470499
 20
21.99440162636553
 30
0.0
  0
SEQEND
  5
66A
  8
DEFAULT
  0
ENDSEC
  0
EOF
