  0
SECTION
  2
HEADER
  9
$ACADVER
  1
AC1009
  9
$DWGCODEPAGE
  3
ansi_1252
  9
$INSBASE
 10
0.0
 20
0.0
 30
0.0
  9
$EXTMIN
 10
370.8150380121302
 20
-1231.999999996852
 30
-0.0000000000000025
  9
$EXTMAX
 10
559.9086556113384
 20
-1096.840255673023
 30
0.0000000000000017
  9
$LIMMIN
 10
0.0
 20
0.0
  9
$LIMMAX
 10
12.0
 20
9.0
  9
$ORTHOMODE
 70
     0
  9
$REGENMODE
 70
     1
  9
$FILLMODE
 70
     1
  9
$QTEXTMODE
 70
     0
  9
$MIRRTEXT
 70
     1
  9
$DRAGMODE
 70
     2
  9
$LTSCALE
 40
1.0
  9
$OSMODE
 70
    37
  9
$ATTMODE
 70
     1
  9
$TEXTSIZE
 40
0.2
  9
$TRACEWID
 40
0.05
  9
$TEXTSTYLE
  7
STANDARD
  9
$CLAYER
  8
DEFAULT
  9
$CELTYPE
  6
BYLAYER
  9
$CECOLOR
 62
   256
  9
$DIMSCALE
 40
1.0
  9
$DIMASZ
 40
0.18
  9
$DIMEXO
 40
0.0625
  9
$DIMDLI
 40
0.38
  9
$DIMRND
 40
0.0
  9
$DIMDLE
 40
0.0
  9
$DIMEXE
 40
0.18
  9
$DIMTP
 40
0.0
  9
$DIMTM
 40
0.0
  9
$DIMTXT
 40
0.18
  9
$DIMCEN
 40
0.09
  9
$DIMTSZ
 40
0.0
  9
$DIMTOL
 70
     0
  9
$DIMLIM
 70
     0
  9
$DIMTIH
 70
     1
  9
$DIMTOH
 70
     1
  9
$DIMSE1
 70
     0
  9
$DIMSE2
 70
     0
  9
$DIMTAD
 70
     0
  9
$DIMZIN
 70
     0
  9
$DIMBLK
  1

  9
$DIMASO
 70
     1
  9
$DIMSHO
 70
     1
  9
$DIMPOST
  1

  9
$DIMAPOST
  1

  9
$DIMALT
 70
     0
  9
$DIMALTD
 70
     2
  9
$DIMALTF
 40
25.4
  9
$DIMLFAC
 40
1.0
  9
$DIMTOFL
 70
     0
  9
$DIMTVP
 40
0.0
  9
$DIMTIX
 70
     0
  9
$DIMSOXD
 70
     0
  9
$DIMSAH
 70
     0
  9
$DIMBLK1
  1

  9
$DIMBLK2
  1

  9
$DIMSTYLE
  2
STANDARD_ACAD
  9
$DIMCLRD
 70
     0
  9
$DIMCLRE
 70
     0
  9
$DIMCLRT
 70
     0
  9
$DIMTFAC
 40
1.0
  9
$DIMGAP
 40
0.09
  9
$LUNITS
 70
     2
  9
$LUPREC
 70
     3
  9
$SKETCHINC
 40
0.1
  9
$FILLETRAD
 40
0.0
  9
$AUNITS
 70
     0
  9
$AUPREC
 70
     0
  9
$MENU
  1
.
  9
$ELEVATION
 40
0.0
  9
$PELEVATION
 40
0.0
  9
$THICKNESS
 40
0.0
  9
$LIMCHECK
 70
     0
  9
$CHAMFERA
 40
0.0
  9
$CHAMFERB
 40
0.0
  9
$SKPOLY
 70
     0
  9
$TDCREATE
 40
2460372.614203033
  9
$TDUPDATE
 40
2460372.614216262
  9
$TDINDWG
 40
0.0000000116
  9
$TDUSRTIMER
 40
0.0000000116
  9
$USRTIMER
 70
     1
  9
$ANGBASE
 50
0.0
  9
$ANGDIR
 70
     0
  9
$PDMODE
 70
     0
  9
$PDSIZE
 40
0.0
  9
$PLINEWID
 40
0.0
  9
$COORDS
 70
     1
  9
$SPLFRAME
 70
     0
  9
$SPLINETYPE
 70
     6
  9
$SPLINESEGS
 70
     8
  9
$ATTDIA
 70
     0
  9
$ATTREQ
 70
     1
  9
$HANDLING
 70
     1
  9
$HANDSEED
  5
C4
  9
$SURFTAB1
 70
     6
  9
$SURFTAB2
 70
     6
  9
$SURFTYPE
 70
     6
  9
$SURFU
 70
     6
  9
$SURFV
 70
     6
  9
$UCSNAME
  2

  9
$UCSORG
 10
0.0
 20
0.0
 30
0.0
  9
$UCSXDIR
 10
1.0
 20
0.0
 30
0.0
  9
$UCSYDIR
 10
0.0
 20
1.0
 30
0.0
  9
$PUCSNAME
  2

  9
$PUCSORG
 10
0.0
 20
0.0
 30
0.0
  9
$PUCSXDIR
 10
1.0
 20
0.0
 30
0.0
  9
$PUCSYDIR
 10
0.0
 20
1.0
 30
0.0
  9
$USERI1
 70
     0
  9
$USERI2
 70
     0
  9
$USERI3
 70
     0
  9
$USERI4
 70
     0
  9
$USERI5
 70
     0
  9
$USERR1
 40
0.0
  9
$USERR2
 40
0.0
  9
$USERR3
 40
0.0
  9
$USERR4
 40
0.0
  9
$USERR5
 40
0.0
  9
$WORLDVIEW
 70
     1
  9
$SHADEDGE
 70
     3
  9
$SHADEDIF
 70
    70
  9
$TILEMODE
 70
     1
  9
$MAXACTVP
 70
    64
  9
$PLIMCHECK
 70
     0
  9
$PEXTMIN
 10
1.000000000000000E+20
 20
1.000000000000000E+20
 30
1.000000000000000E+20
  9
$PEXTMAX
 10
-1.000000000000000E+20
 20
-1.000000000000000E+20
 30
-1.000000000000000E+20
  9
$PLIMMIN
 10
0.0
 20
0.0
  9
$PLIMMAX
 10
12.0
 20
9.0
  9
$UNITMODE
 70
     0
  9
$VISRETAIN
 70
     1
  9
$PLINEGEN
 70
     0
  9
$PSLTSCALE
 70
     1
  0
ENDSEC
  0
SECTION
  2
TABLES
  0
TABLE
  2
VPORT
 70
     1
  0
VPORT
  2
*ACTIVE
 70
     0
 10
0.0
 20
0.0
 11
1.0
 21
1.0
 12
10.42990654205607
 22
4.5
 13
0.0
 23
0.0
 14
0.5
 24
0.5
 15
0.5
 25
0.5
 16
0.0
 26
0.0
 36
1.0
 17
0.0
 27
0.0
 37
0.0
 40
9.0
 41
1.972972972850329
 42
50.0
 43
0.0
 44
0.0
 50
0.0
 51
0.0
 71
     0
 72
   100
 73
     1
 74
     3
 75
     0
 76
     0
 77
     0
 78
     0
  0
ENDTAB
  0
TABLE
  2
LTYPE
 70
     1
  0
LTYPE
  2
CONTINUOUS
 70
     0
  3
Solid line
 72
    65
 73
     0
 40
0.0
  0
ENDTAB
  0
TABLE
  2
LAYER
 70
     2
  0
LAYER
  2
0
 70
     0
 62
     7
  6
CONTINUOUS
  0
LAYER
  2
DEFAULT
 70
     0
 62
     7
  6
CONTINUOUS
  0
ENDTAB
  0
TABLE
  2
STYLE
 70
     1
  0
STYLE
  2
STANDARD
 70
     0
 40
0.0
 41
1.0
 50
0.0
 71
     0
 42
0.2
  3
txt
  4

  0
ENDTAB
  0
TABLE
  2
VIEW
 70
     0
  0
ENDTAB
  0
TABLE
  2
UCS
 70
     0
  0
ENDTAB
  0
TABLE
  2
APPID
 70
     2
  0
APPID
  2
ACAD
 70
     0
  0
APPID
  2
RHINO
 70
     0
  0
ENDTAB
  0
TABLE
  2
DIMSTYLE
 70
     1
  0
DIMSTYLE
  2
STANDARD_ACAD
 70
     0
  3

  4

  5

  6

  7

 40
1.0
 41
0.18
 42
0.0625
 43
0.38
 44
0.18
 45
0.0
 46
0.0
 47
0.0
 48
0.0
140
0.18
141
0.09
142
0.0
143
25.4
144
1.0
145
0.0
146
1.0
147
0.09
 71
     0
 72
     0
 73
     1
 74
     1
 75
     0
 76
     0
 77
     0
 78
     0
170
     0
171
     2
172
     0
173
     0
174
     0
175
     0
176
     0
177
     0
178
     0
  0
ENDTAB
  0
ENDSEC
  0
SECTION
  2
BLOCKS
  0
BLOCK
  8
0
  2
$MODEL_SPACE
 70
     0
 10
0.0
 20
0.0
 30
0.0
  3
$MODEL_SPACE
  1

  0
ENDBLK
  5
21
  8
0
  0
BLOCK
 67
     1
  8
0
  2
$PAPER_SPACE
 70
     0
 10
0.0
 20
0.0
 30
0.0
  3
$PAPER_SPACE
  1

  0
ENDBLK
  5
1D
 67
     1
  8
0
  0
ENDSEC
  0
SECTION
  2
ENTITIES
  0
LINE
  5
60
  8
DEFAULT
 10
463.7172760407235
 20
-1229.99999997927
 30
-0.0000000000000023
 11
456.7384253945519
 21
-1229.999999917079
 31
-0.0000000000000025
  0
LINE
  5
61
  8
DEFAULT
 10
456.7384253945519
 20
-1229.999999917079
 30
-0.0000000000000025
 11
440.0284963991522
 21
-1204.672156521262
 31
-0.0000000000000013
  0
LINE
  5
62
  8
DEFAULT
 10
440.0284963991522
 20
-1204.672156521262
 30
-0.0000000000000013
 11
442.4264078439086
 21
-1202.993120851684
 31
-0.0000000000000012
  0
LINE
  5
63
  8
DEFAULT
 10
442.4264078439086
 20
-1202.993120851684
 30
-0.0000000000000012
 11
430.9548791168874
 21
-1186.610079965904
 31
-0.0000000000000005
  0
LINE
  5
64
  8
DEFAULT
 10
430.9548791168874
 20
-1186.610079965904
 30
-0.0000000000000005
 11
429.010395201112
 21
-1187.971622261658
 31
-0.0000000000000006
  0
LINE
  5
65
  8
DEFAULT
 10
429.010395201112
 20
-1187.971622261658
 30
-0.0000000000000006
 11
416.7275041601351
 21
-1169.354000318477
 31
0.0000000000000002
  0
LINE
  5
66
  8
DEFAULT
 10
416.7275041601351
 20
-1169.354000318477
 30
0.0000000000000002
 11
503.7281987163051
 21
-1169.35400109377
 31
0.0000000000000017
  0
LINE
  5
67
  8
DEFAULT
 10
503.7281987163051
 20
-1169.35400109377
 30
0.0000000000000017
 11
491.4453072329072
 21
-1187.971623003496
 31
0.0000000000000005
  0
LINE
  5
68
  8
DEFAULT
 10
491.4453072329072
 20
-1187.971623003496
 30
0.0000000000000005
 11
489.500823349487
 21
-1186.610080661534
 31
0.0000000000000005
  0
LINE
  5
69
  8
DEFAULT
 10
489.500823349487
 20
-1186.610080661534
 30
0.0000000000000005
 11
478.0292942331463
 21
-1202.99312127471
 31
-0.0000000000000006
  0
LINE
  5
6A
  8
DEFAULT
 10
478.0292942331463
 20
-1202.99312127471
 30
-0.0000000000000006
 11
480.4272056380029
 21
-1204.672157001271
 31
-0.0000000000000006
  0
LINE
  5
6B
  8
DEFAULT
 10
480.4272056380029
 20
-1204.672157001271
 30
-0.0000000000000006
 11
463.7172760407235
 21
-1229.99999997927
 31
-0.0000000000000023
  0
ARC
  5
6C
  8
DEFAULT
 10
-460.2278618608689
 20
-1209.430259939426
 30
0.0000000000000013
 40
1.500010756936407
 50
270.0004108817762
 51
89.99958437926644
210
0.0
220
0.0
230
-1.0
  0
ARC
  5
6D
  8
DEFAULT
 10
-460.2278400632158
 20
-1209.430259939427
 30
0.0000000000000013
 40
1.500010756938015
 50
90.00041698231142
 51
269.9995782787312
210
0.0
220
0.0
230
-1.0
  0
ARC
  5
6E
  8
DEFAULT
 10
-460.2278618608691
 20
-1218.43032448081
 30
0.0000000000000018
 40
1.500010756937089
 50
270.0004108817892
 51
89.99958029460234
210
0.0
220
0.0
230
-1.0
  0
ARC
  5
6F
  8
DEFAULT
 10
-460.2278398493411
 20
-1218.430324480812
 30
0.0000000000000018
 40
1.500010756939025
 50
90.00042106700808
 51
269.9995701093835
210
0.0
220
0.0
230
-1.0
  0
LINE
  5
70
  8
DEFAULT
 10
378.2871853489779
 20
-1170.843359973505
 30
0.0
 11
373.5146487285889
 21
-1170.842954219106
 31
0.0
  0
LINE
  5
71
  8
DEFAULT
 10
373.5146487285889
 20
-1170.842954219106
 30
0.0
 11
373.5146487653327
 21
-1167.843157084857
 31
0.0
  0
LINE
  5
72
  8
DEFAULT
 10
373.5146487653327
 20
-1167.843157084857
 30
0.0
 11
371.4575636228165
 21
-1167.843359977712
 31
0.0
  0
LINE
  5
73
  8
DEFAULT
 10
371.4575636228165
 20
-1167.843359977712
 30
0.0
 11
371.4575636295916
 21
-1189.843359977266
 31
0.0
  0
LINE
  5
74
  8
DEFAULT
 10
371.4575636295916
 20
-1189.843359977266
 30
0.0
 11
374.3502246703364
 21
-1189.843359976376
 31
0.0
  0
LINE
  5
75
  8
DEFAULT
 10
374.3502246703364
 20
-1189.843359976376
 30
0.0
 11
374.3502246765728
 21
-1210.093787810316
 31
0.0000000000000001
  0
LINE
  5
76
  8
DEFAULT
 10
374.3502246765728
 20
-1210.093787810316
 30
0.0000000000000001
 11
371.4575636488251
 21
-1210.093787811207
 31
0.0000000000000001
  0
LINE
  5
77
  8
DEFAULT
 10
371.4575636488251
 20
-1210.093787811207
 30
0.0000000000000001
 11
371.4575636555714
 21
-1231.999999996852
 31
0.0000000000000001
  0
LINE
  5
78
  8
DEFAULT
 10
371.4575636555714
 20
-1231.999999996852
 30
0.0000000000000001
 11
445.0628880000572
 21
-1231.999999962851
 31
0.0000000000000001
  0
LINE
  5
79
  8
DEFAULT
 10
445.0628880000572
 20
-1231.999999962851
 30
0.0000000000000001
 11
424.7306758676296
 21
-1215.493875251671
 31
0.0
  0
LINE
  5
7A
  8
DEFAULT
 10
424.7306758676296
 20
-1215.493875251671
 30
0.0
 11
426.3241437097859
 21
-1213.531044679632
 31
0.0
  0
LINE
  5
7B
  8
DEFAULT
 10
426.3241437097859
 20
-1213.531044679632
 30
0.0
 11
413.3241437035594
 21
-1203.422330364332
 31
0.0
  0
LINE
  5
7C
  8
DEFAULT
 10
413.3241437035594
 20
-1203.422330364332
 30
0.0
 11
409.8609704825459
 21
-1203.422330365399
 31
0.0
  0
LINE
  5
7D
  8
DEFAULT
 10
409.8609704825459
 20
-1203.422330365399
 30
0.0
 11
391.898933028059
 21
-1188.840364165363
 31
0.0
  0
LINE
  5
7E
  8
DEFAULT
 10
391.898933028059
 20
-1188.840364165363
 30
0.0
 11
391.898933022517
 21
-1170.844660766581
 31
0.0
  0
LINE
  5
7F
  8
DEFAULT
 10
391.898933022517
 20
-1170.844660766581
 30
0.0
 11
378.2871853489779
 21
-1170.843359973505
 31
0.0
  0
LINE
  5
80
  8
DEFAULT
 10
383.9617828822738
 20
-1163.0
 30
0.0
 11
389.8816890042188
 21
-1163.0
 31
0.0
  0
LINE
  5
81
  8
DEFAULT
 10
389.8816890042188
 20
-1163.0
 30
0.0
 11
389.8816890042188
 21
-1140.996895693987
 31
0.0
  0
LINE
  5
82
  8
DEFAULT
 10
389.8816890042188
 20
-1140.996895693987
 30
0.0
 11
391.4617838334216
 21
-1140.996895693987
 31
0.0
  0
LINE
  5
83
  8
DEFAULT
 10
391.4617838334216
 20
-1140.996895693987
 30
0.0
 11
391.4617838334216
 21
-1120.840255671699
 31
0.0
  0
LINE
  5
84
  8
DEFAULT
 10
391.4617838334216
 20
-1120.840255671699
 30
0.0
 11
389.8816890042188
 21
-1120.840255671699
 31
0.0
  0
LINE
  5
85
  8
DEFAULT
 10
389.8816890042188
 20
-1120.840255671699
 30
0.0
 11
389.8816890042188
 21
-1098.840255671699
 31
0.0
  0
LINE
  5
86
  8
DEFAULT
 10
389.8816890042188
 20
-1098.840255671699
 30
0.0
 11
373.8150380121301
 21
-1098.840255671699
 31
0.0
  0
LINE
  5
87
  8
DEFAULT
 10
373.8150380121301
 20
-1098.840255671699
 30
0.0
 11
373.8150380121302
 21
-1121.011192303072
 31
0.0
  0
LINE
  5
88
  8
DEFAULT
 10
373.8150380121302
 20
-1121.011192303072
 30
0.0
 11
370.8150380121302
 21
-1121.011192303072
 31
0.0
  0
LINE
  5
89
  8
DEFAULT
 10
370.8150380121302
 20
-1121.011192303072
 30
0.0
 11
370.8150380121302
 21
-1143.988807696928
 31
0.0
  0
LINE
  5
8A
  8
DEFAULT
 10
370.8150380121302
 20
-1143.988807696928
 30
0.0
 11
373.8150380121302
 21
-1143.988807696928
 31
0.0
  0
LINE
  5
8B
  8
DEFAULT
 10
373.8150380121302
 20
-1143.988807696928
 30
0.0
 11
373.8150380121303
 21
-1159.999606142349
 31
0.0
  0
LINE
  5
8C
  8
DEFAULT
 10
373.8150380121303
 20
-1159.999606142349
 30
0.0
 11
383.9617828822738
 21
-1159.9998030841
 31
0.0
  0
LINE
  5
8D
  8
DEFAULT
 10
383.9617828822738
 20
-1159.9998030841
 30
0.0
 11
383.9617828822738
 21
-1163.0
 31
0.0
  0
LINE
  5
8E
  8
DEFAULT
 10
559.908654089523
 20
-1116.999999046328
 30
0.0
 11
546.9086549311778
 21
-1104.000000000002
 31
0.0
  0
LINE
  5
8F
  8
DEFAULT
 10
546.9086549311778
 20
-1104.000000000002
 30
0.0
 11
536.3530761043905
 21
-1104.000000000002
 31
0.0
  0
LINE
  5
90
  8
DEFAULT
 10
536.3530761043905
 20
-1104.000000000002
 30
0.0
 11
536.3530761043905
 21
-1101.000000000002
 31
0.0
  0
LINE
  5
91
  8
DEFAULT
 10
536.3530761043905
 20
-1101.000000000002
 30
0.0
 11
523.2619089035991
 21
-1101.000000000002
 31
0.0
  0
LINE
  5
92
  8
DEFAULT
 10
523.2619089035991
 20
-1101.000000000002
 30
0.0
 11
523.2619089035992
 21
-1122.000000000002
 31
0.0
  0
LINE
  5
93
  8
DEFAULT
 10
523.2619089035992
 20
-1122.000000000002
 30
0.0
 11
526.2619089035993
 21
-1122.000000000002
 31
0.0
  0
LINE
  5
94
  8
DEFAULT
 10
526.2619089035993
 20
-1122.000000000002
 30
0.0
 11
526.2619089035994
 21
-1138.000000000002
 31
0.0
  0
LINE
  5
95
  8
DEFAULT
 10
526.2619089035994
 20
-1138.000000000002
 30
0.0
 11
523.2619089035993
 21
-1138.000000000002
 31
0.0
  0
LINE
  5
96
  8
DEFAULT
 10
523.2619089035993
 20
-1138.000000000002
 30
0.0
 11
523.2619095114251
 21
-1182.999999972987
 31
0.0
  0
LINE
  5
97
  8
DEFAULT
 10
523.2619095114251
 20
-1182.999999972987
 30
0.0
 11
526.2619098581108
 21
-1182.999999918958
 31
0.0
  0
LINE
  5
98
  8
DEFAULT
 10
526.2619098581108
 20
-1182.999999918958
 30
0.0
 11
526.2619101462652
 21
-1198.999999918958
 31
0.0
  0
LINE
  5
99
  8
DEFAULT
 10
526.2619101462652
 20
-1198.999999918958
 30
0.0
 11
523.2619104794436
 21
-1198.999999972987
 31
0.0
  0
LINE
  5
9A
  8
DEFAULT
 10
523.2619104794436
 20
-1198.999999972987
 30
0.0
 11
523.2619108576462
 21
-1219.999999882118
 31
0.0
  0
LINE
  5
9B
  8
DEFAULT
 10
523.2619108576462
 20
-1219.999999882118
 30
0.0
 11
536.3530782205244
 21
-1219.999999646351
 31
0.0
  0
LINE
  5
9C
  8
DEFAULT
 10
536.3530782205244
 20
-1219.999999646351
 30
0.0
 11
536.3530781664955
 21
-1216.999999437919
 31
0.0
  0
LINE
  5
9D
  8
DEFAULT
 10
536.3530781664955
 20
-1216.999999437919
 30
0.0
 11
546.4086560082854
 21
-1216.999999252319
 31
0.0
  0
LINE
  5
9E
  8
DEFAULT
 10
546.4086560082854
 20
-1216.999999252319
 30
0.0
 11
546.9086569662682
 21
-1216.999999152765
 31
0.0
  0
LINE
  5
9F
  8
DEFAULT
 10
546.9086569662682
 20
-1216.999999152765
 30
0.0
 11
559.9086556113384
 21
-1203.999999633686
 31
0.0
  0
LINE
  5
A0
  8
DEFAULT
 10
559.9086556113384
 20
-1203.999999633686
 30
0.0
 11
559.9086555212903
 21
-1198.999998707848
 31
0.0
  0
LINE
  5
A1
  8
DEFAULT
 10
559.9086555212903
 20
-1198.999998707848
 30
0.0
 11
556.8174659909643
 21
-1198.999998763519
 31
0.0
  0
LINE
  5
A2
  8
DEFAULT
 10
556.8174659909643
 20
-1198.999998763519
 30
0.0
 11
556.8174657028098
 21
-1182.999998763519
 31
0.0
  0
LINE
  5
A3
  8
DEFAULT
 10
556.8174657028098
 20
-1182.999998763519
 30
0.0
 11
559.908654697349
 21
-1182.999998707848
 31
0.0
  0
LINE
  5
A4
  8
DEFAULT
 10
559.908654697349
 20
-1182.999998707848
 30
0.0
 11
559.9086540895232
 21
-1138.000000000001
 31
0.0
  0
LINE
  5
A5
  8
DEFAULT
 10
559.9086540895232
 20
-1138.000000000001
 30
0.0
 11
556.8174647482986
 21
-1138.000000000002
 31
0.0
  0
LINE
  5
A6
  8
DEFAULT
 10
556.8174647482986
 20
-1138.000000000002
 30
0.0
 11
556.8174647482984
 21
-1122.000000000002
 31
0.0
  0
LINE
  5
A7
  8
DEFAULT
 10
556.8174647482984
 20
-1122.000000000002
 30
0.0
 11
559.908654089523
 21
-1122.000000000001
 31
0.0
  0
LINE
  5
A8
  8
DEFAULT
 10
559.908654089523
 20
-1122.000000000001
 30
0.0
 11
559.908654089523
 21
-1116.999999046328
 31
0.0
  0
LINE
  5
A9
  8
DEFAULT
 10
478.8069130366011
 20
-1099.840255644566
 30
0.0
 11
433.8069130365905
 21
-1099.84025564457
 31
0.0
  0
LINE
  5
AA
  8
DEFAULT
 10
433.8069130365905
 20
-1099.84025564457
 30
0.0
 11
433.8069130365939
 21
-1096.840255673029
 31
0.0
  0
LINE
  5
AB
  8
DEFAULT
 10
433.8069130365939
 20
-1096.840255673029
 30
0.0
 11
417.8069130365939
 21
-1096.840255673031
 31
0.0
  0
LINE
  5
AC
  8
DEFAULT
 10
417.8069130365939
 20
-1096.840255673031
 30
0.0
 11
417.8069130365905
 21
-1099.840255644895
 31
0.0
  0
LINE
  5
AD
  8
DEFAULT
 10
417.8069130365905
 20
-1099.840255644895
 30
0.0
 11
396.8069130365938
 21
-1099.840255645533
 31
0.0
  0
LINE
  5
AE
  8
DEFAULT
 10
396.8069130365938
 20
-1099.840255645533
 30
0.0
 11
396.8069130365964
 21
-1115.851447975712
 31
0.0
  0
LINE
  5
AF
  8
DEFAULT
 10
396.8069130365964
 20
-1115.851447975712
 30
0.0
 11
399.8069130365985
 21
-1115.851447975712
 31
0.0
  0
LINE
  5
B0
  8
DEFAULT
 10
399.8069130365985
 20
-1115.851447975712
 30
0.0
 11
399.8069130365998
 21
-1138.829063369089
 31
0.0
  0
LINE
  5
B1
  8
DEFAULT
 10
399.8069130365998
 20
-1138.829063369089
 30
0.0
 11
396.8069130366011
 21
-1138.829063369089
 31
0.0
  0
LINE
  5
B2
  8
DEFAULT
 10
396.8069130366011
 20
-1138.829063369089
 30
0.0
 11
396.8069130366024
 21
-1160.999999999997
 31
0.0
  0
LINE
  5
B3
  8
DEFAULT
 10
396.8069130366024
 20
-1160.999999999997
 30
0.0
 11
515.8069130366024
 21
-1160.999999999986
 31
0.0
  0
LINE
  5
B4
  8
DEFAULT
 10
515.8069130366024
 20
-1160.999999999986
 30
0.0
 11
515.8069130366011
 21
-1138.829063369075
 31
0.0
  0
LINE
  5
B5
  8
DEFAULT
 10
515.8069130366011
 20
-1138.829063369075
 30
0.0
 11
512.8069130365999
 21
-1138.829063369075
 31
0.0
  0
LINE
  5
B6
  8
DEFAULT
 10
512.8069130365999
 20
-1138.829063369075
 30
0.0
 11
512.8069130365985
 21
-1115.851447975699
 31
0.0
  0
LINE
  5
B7
  8
DEFAULT
 10
512.8069130365985
 20
-1115.851447975699
 30
0.0
 11
515.8069130365983
 21
-1115.851447975699
 31
0.0
  0
LINE
  5
B8
  8
DEFAULT
 10
515.8069130365983
 20
-1115.851447975699
 30
0.0
 11
515.8069130365991
 21
-1099.84025564552
 31
0.0
  0
LINE
  5
B9
  8
DEFAULT
 10
515.8069130365991
 20
-1099.84025564552
 30
0.0
 11
494.8069130366011
 21
-1099.840255644884
 31
0.0
  0
LINE
  5
BA
  8
DEFAULT
 10
494.8069130366011
 20
-1099.840255644884
 30
0.0
 11
494.8069130365974
 21
-1096.840255673023
 31
0.0
  0
LINE
  5
BB
  8
DEFAULT
 10
494.8069130365974
 20
-1096.840255673023
 30
0.0
 11
478.8069130365974
 21
-1096.840255673023
 31
0.0
  0
LINE
  5
BC
  8
DEFAULT
 10
478.8069130365974
 20
-1096.840255673023
 30
0.0
 11
478.8069130366011
 21
-1099.840255644566
 31
0.0
  0
ENDSEC
  0
EOF
