  0
SECTION
  2
HEADER
  9
$ACADVER
  1
AC1009
  9
$DWGCODEPAGE
  3
ansi_1251
  9
$INSBASE
 10
0.0
 20
0.0
 30
0.0
  9
$EXTMIN
 10
1.000000000000000E+20
 20
1.000000000000000E+20
 30
1.000000000000000E+20
  9
$EXTMAX
 10
-1.000000000000000E+20
 20
-1.000000000000000E+20
 30
-1.000000000000000E+20
  9
$LIMMIN
 10
0.0
 20
0.0
  9
$LIMMAX
 10
12.0
 20
9.0
  9
$ORTHOMODE
 70
     0
  9
$REGENMODE
 70
     1
  9
$FILLMODE
 70
     1
  9
$QTEXTMODE
 70
     0
  9
$MIRRTEXT
 70
     1
  9
$DRAGMODE
 70
     2
  9
$LTSCALE
 40
1.0
  9
$OSMODE
 70
    37
  9
$ATTMODE
 70
     1
  9
$TEXTSIZE
 40
0.2
  9
$TRACEWID
 40
0.05
  9
$TEXTSTYLE
  7
STANDARD
  9
$CLAYER
  8
DEFAULT
  9
$CELTYPE
  6
BYLAYER
  9
$CECOLOR
 62
   256
  9
$DIMSCALE
 40
1.0
  9
$DIMASZ
 40
0.18
  9
$DIMEXO
 40
0.0625
  9
$DIMDLI
 40
0.38
  9
$DIMRND
 40
0.0
  9
$DIMDLE
 40
0.0
  9
$DIMEXE
 40
0.18
  9
$DIMTP
 40
0.0
  9
$DIMTM
 40
0.0
  9
$DIMTXT
 40
0.18
  9
$DIMCEN
 40
0.09
  9
$DIMTSZ
 40
0.0
  9
$DIMTOL
 70
     0
  9
$DIMLIM
 70
     0
  9
$DIMTIH
 70
     1
  9
$DIMTOH
 70
     1
  9
$DIMSE1
 70
     0
  9
$DIMSE2
 70
     0
  9
$DIMTAD
 70
     0
  9
$DIMZIN
 70
     0
  9
$DIMBLK
  1

  9
$DIMASO
 70
     1
  9
$DIMSHO
 70
     1
  9
$DIMPOST
  1

  9
$DIMAPOST
  1

  9
$DIMALT
 70
     0
  9
$DIMALTD
 70
     2
  9
$DIMALTF
 40
25.4
  9
$DIMLFAC
 40
1.0
  9
$DIMTOFL
 70
     0
  9
$DIMTVP
 40
0.0
  9
$DIMTIX
 70
     0
  9
$DIMSOXD
 70
     0
  9
$DIMSAH
 70
     0
  9
$DIMBLK1
  1

  9
$DIMBLK2
  1

  9
$DIMSTYLE
  2
STANDARD_ACAD
  9
$DIMCLRD
 70
     0
  9
$DIMCLRE
 70
     0
  9
$DIMCLRT
 70
     0
  9
$DIMTFAC
 40
1.0
  9
$DIMGAP
 40
0.09
  9
$LUNITS
 70
     2
  9
$LUPREC
 70
     3
  9
$SKETCHINC
 40
0.1
  9
$FILLETRAD
 40
0.5
  9
$AUNITS
 70
     0
  9
$AUPREC
 70
     0
  9
$MENU
  1
.
  9
$ELEVATION
 40
0.0
  9
$PELEVATION
 40
0.0
  9
$THICKNESS
 40
0.0
  9
$LIMCHECK
 70
     0
  9
$CHAMFERA
 40
0.0
  9
$CHAMFERB
 40
0.0
  9
$SKPOLY
 70
     0
  9
$TDCREATE
 40
2460365.854499699
  9
$TDUPDATE
 40
2460365.854514896
  9
$TDINDWG
 40
0.0000000116
  9
$TDUSRTIMER
 40
0.0000000116
  9
$USRTIMER
 70
     1
  9
$ANGBASE
 50
0.0
  9
$ANGDIR
 70
     0
  9
$PDMODE
 70
     0
  9
$PDSIZE
 40
0.0
  9
$PLINEWID
 40
0.0
  9
$COORDS
 70
     1
  9
$SPLFRAME
 70
     0
  9
$SPLINETYPE
 70
     6
  9
$SPLINESEGS
 70
     8
  9
$ATTDIA
 70
     0
  9
$ATTREQ
 70
     1
  9
$HANDLING
 70
     1
  9
$HANDSEED
  5
D3
  9
$SURFTAB1
 70
     6
  9
$SURFTAB2
 70
     6
  9
$SURFTYPE
 70
     6
  9
$SURFU
 70
     6
  9
$SURFV
 70
     6
  9
$UCSNAME
  2

  9
$UCSORG
 10
0.0
 20
0.0
 30
0.0
  9
$UCSXDIR
 10
1.0
 20
0.0
 30
0.0
  9
$UCSYDIR
 10
0.0
 20
1.0
 30
0.0
  9
$PUCSNAME
  2

  9
$PUCSORG
 10
0.0
 20
0.0
 30
0.0
  9
$PUCSXDIR
 10
1.0
 20
0.0
 30
0.0
  9
$PUCSYDIR
 10
0.0
 20
1.0
 30
0.0
  9
$USERI1
 70
     0
  9
$USERI2
 70
     0
  9
$USERI3
 70
     0
  9
$USERI4
 70
     0
  9
$USERI5
 70
     0
  9
$USERR1
 40
0.0
  9
$USERR2
 40
0.0
  9
$USERR3
 40
0.0
  9
$USERR4
 40
0.0
  9
$USERR5
 40
0.0
  9
$WORLDVIEW
 70
     1
  9
$SHADEDGE
 70
     3
  9
$SHADEDIF
 70
    70
  9
$TILEMODE
 70
     1
  9
$MAXACTVP
 70
    64
  9
$PLIMCHECK
 70
     0
  9
$PEXTMIN
 10
1.000000000000000E+20
 20
1.000000000000000E+20
 30
1.000000000000000E+20
  9
$PEXTMAX
 10
-1.000000000000000E+20
 20
-1.000000000000000E+20
 30
-1.000000000000000E+20
  9
$PLIMMIN
 10
0.0
 20
0.0
  9
$PLIMMAX
 10
12.0
 20
9.0
  9
$UNITMODE
 70
     0
  9
$VISRETAIN
 70
     1
  9
$PLINEGEN
 70
     0
  9
$PSLTSCALE
 70
     1
  0
ENDSEC
  0
SECTION
  2
TABLES
  0
TABLE
  2
VPORT
 70
     1
  0
VPORT
  2
*ACTIVE
 70
     0
 10
0.0
 20
0.0
 11
1.0
 21
1.0
 12
10.42990654205607
 22
4.5
 13
0.0
 23
0.0
 14
0.5
 24
0.5
 15
0.5
 25
0.5
 16
0.0
 26
0.0
 36
1.0
 17
0.0
 27
0.0
 37
0.0
 40
9.0
 41
1.972972972850329
 42
50.0
 43
0.0
 44
0.0
 50
0.0
 51
0.0
 71
     0
 72
   100
 73
     1
 74
     3
 75
     0
 76
     0
 77
     0
 78
     0
  0
ENDTAB
  0
TABLE
  2
LTYPE
 70
     1
  0
LTYPE
  2
CONTINUOUS
 70
     0
  3
Solid line
 72
    65
 73
     0
 40
0.0
  0
ENDTAB
  0
TABLE
  2
LAYER
 70
     2
  0
LAYER
  2
0
 70
     0
 62
     7
  6
CONTINUOUS
  0
LAYER
  2
DEFAULT
 70
     0
 62
     7
  6
CONTINUOUS
  0
ENDTAB
  0
TABLE
  2
STYLE
 70
     1
  0
STYLE
  2
STANDARD
 70
     0
 40
0.0
 41
1.0
 50
0.0
 71
     0
 42
0.2
  3
txt
  4

  0
ENDTAB
  0
TABLE
  2
VIEW
 70
     0
  0
ENDTAB
  0
TABLE
  2
UCS
 70
     0
  0
ENDTAB
  0
TABLE
  2
APPID
 70
     1
  0
APPID
  2
ACAD
 70
     0
  0
ENDTAB
  0
TABLE
  2
DIMSTYLE
 70
     1
  0
DIMSTYLE
  2
STANDARD_ACAD
 70
     0
  3

  4

  5

  6

  7

 40
1.0
 41
0.18
 42
0.0625
 43
0.38
 44
0.18
 45
0.0
 46
0.0
 47
0.0
 48
0.0
140
0.18
141
0.09
142
0.0
143
25.4
144
1.0
145
0.0
146
1.0
147
0.09
 71
     0
 72
     0
 73
     1
 74
     1
 75
     0
 76
     0
 77
     0
 78
     0
170
     0
171
     2
172
     0
173
     0
174
     0
175
     0
176
     0
177
     0
178
     0
  0
ENDTAB
  0
ENDSEC
  0
SECTION
  2
BLOCKS
  0
BLOCK
  8
0
  2
$MODEL_SPACE
 70
     0
 10
0.0
 20
0.0
 30
0.0
  3
$MODEL_SPACE
  1

  0
ENDBLK
  5
21
  8
0
  0
BLOCK
 67
     1
  8
0
  2
$PAPER_SPACE
 70
     0
 10
0.0
 20
0.0
 30
0.0
  3
$PAPER_SPACE
  1

  0
ENDBLK
  5
1D
 67
     1
  8
0
  0
ENDSEC
  0
SECTION
  2
ENTITIES
  0
LINE
  5
6F
  8
DEFAULT
 10
82.00000000000011
 20
14.15974435415163
 30
0.0
 11
82.00000000000011
 21
17.15974432830104
 31
0.0
  0
LINE
  5
70
  8
DEFAULT
 10
82.00000000000011
 20
17.15974432830104
 30
0.0
 11
66.00000000000011
 21
17.15974432830104
 31
0.0
  0
LINE
  5
71
  8
DEFAULT
 10
66.00000000000011
 20
17.15974432830104
 30
0.0
 11
66.00000000000011
 21
14.15974435415162
 31
0.0
  0
LINE
  5
72
  8
DEFAULT
 10
66.00000000000011
 20
14.15974435415162
 30
0.0
 11
21.00000000000011
 21
14.15974435415162
 31
0.0
  0
LINE
  5
73
  8
DEFAULT
 10
21.00000000000011
 20
14.15974435415162
 30
0.0
 11
21.00000000000011
 21
17.15974432830104
 31
0.0
  0
LINE
  5
74
  8
DEFAULT
 10
21.00000000000011
 20
17.15974432830104
 30
0.0
 11
5.000000000000114
 21
17.15974432830104
 31
0.0
  0
LINE
  5
75
  8
DEFAULT
 10
5.000000000000114
 20
17.15974432830104
 30
0.0
 11
5.000000000000114
 21
14.15974435415163
 31
0.0
  0
LINE
  5
76
  8
DEFAULT
 10
5.000000000000114
 20
14.15974435415163
 30
0.0
 11
-15.99999999999989
 21
14.15974435415163
 31
0.0
  0
LINE
  5
77
  8
DEFAULT
 10
-15.99999999999989
 20
14.15974435415163
 30
0.0
 11
-16.0
 21
-1.851447974771297
 31
0.0
  0
LINE
  5
78
  8
DEFAULT
 10
-16.0
 20
-1.851447974771297
 30
0.0
 11
-12.99999999999989
 21
-1.851447974771297
 31
0.0
  0
LINE
  5
79
  8
DEFAULT
 10
-12.99999999999989
 20
-1.851447974771297
 30
0.0
 11
-12.99999999999989
 21
-24.82906336862687
 31
0.0
  0
LINE
  5
7A
  8
DEFAULT
 10
-12.99999999999989
 20
-24.82906336862687
 30
0.0
 11
-15.99999999999989
 21
-24.82906336862685
 31
0.0
  0
LINE
  5
7B
  8
DEFAULT
 10
-15.99999999999989
 20
-24.82906336862685
 30
0.0
 11
-15.99999999999989
 21
-46.99999999999999
 31
0.0
  0
LINE
  5
7C
  8
DEFAULT
 10
-15.99999999999989
 20
-46.99999999999999
 30
0.0
 11
103.0000000000001
 21
-46.99999999999999
 31
0.0
  0
LINE
  5
7D
  8
DEFAULT
 10
103.0000000000001
 20
-46.99999999999999
 30
0.0
 11
103.0000000000001
 21
-24.82906336862685
 31
0.0
  0
LINE
  5
7E
  8
DEFAULT
 10
103.0000000000001
 20
-24.82906336862685
 30
0.0
 11
100.0000000000001
 21
-24.82906336862687
 31
0.0
  0
LINE
  5
7F
  8
DEFAULT
 10
100.0000000000001
 20
-24.82906336862687
 30
0.0
 11
100.0000000000001
 21
-1.851447974771297
 31
0.0
  0
LINE
  5
80
  8
DEFAULT
 10
100.0000000000001
 20
-1.851447974771297
 30
0.0
 11
103.0000000000002
 21
-1.851447974771297
 31
0.0
  0
LINE
  5
81
  8
DEFAULT
 10
103.0000000000002
 20
-1.851447974771297
 30
0.0
 11
103.0000000000001
 21
14.15974435415163
 31
0.0
  0
LINE
  5
82
  8
DEFAULT
 10
103.0000000000001
 20
14.15974435415163
 30
0.0
 11
82.00000000000011
 21
14.15974435415163
 31
0.0
  0
LINE
  5
83
  8
DEFAULT
 10
-58.99999999999955
 20
-66.99999999999997
 30
0.0
 11
-61.99999999999966
 21
-67.0
 31
0.0
  0
LINE
  5
84
  8
DEFAULT
 10
-61.99999999999966
 20
-67.0
 30
0.0
 11
-61.99999999999977
 21
-21.99999999999999
 31
0.0
  0
LINE
  5
85
  8
DEFAULT
 10
-61.99999999999977
 20
-21.99999999999999
 30
0.0
 11
-58.99999999999977
 21
-21.99999999999996
 31
0.0
  0
LINE
  5
86
  8
DEFAULT
 10
-58.99999999999977
 20
-21.99999999999996
 30
0.0
 11
-58.99999999999983
 21
-5.999999999999964
 31
0.0
  0
LINE
  5
87
  8
DEFAULT
 10
-58.99999999999983
 20
-5.999999999999964
 30
0.0
 11
-61.99999999999989
 21
-5.999999999999993
 31
0.0
  0
LINE
  5
88
  8
DEFAULT
 10
-61.99999999999989
 20
-5.999999999999993
 30
0.0
 11
-62.0
 21
15.00000000000001
 31
0.0
  0
LINE
  5
89
  8
DEFAULT
 10
-62.0
 20
15.00000000000001
 30
0.0
 11
-48.90883279920843
 21
15.00000000000002
 31
0.0
  0
LINE
  5
8A
  8
DEFAULT
 10
-48.90883279920843
 20
15.00000000000002
 30
0.0
 11
-48.90883279920843
 21
12.00000000000008
 31
0.0
  0
LINE
  5
8B
  8
DEFAULT
 10
-48.90883279920843
 20
12.00000000000008
 30
0.0
 11
-38.4444664680712
 21
12.00000000000014
 31
0.0
  0
LINE
  5
8C
  8
DEFAULT
 10
-38.4444664680712
 20
12.00000000000014
 30
0.0
 11
-38.44446646807125
 21
15.00000000000016
 31
0.0
  0
LINE
  5
8D
  8
DEFAULT
 10
-38.44446646807125
 20
15.00000000000016
 30
0.0
 11
-25.35325481407608
 21
15.00000000000016
 31
0.0
  0
LINE
  5
8E
  8
DEFAULT
 10
-25.35325481407608
 20
15.00000000000016
 30
0.0
 11
-25.35325481407597
 21
-5.999999999999851
 31
0.0
  0
LINE
  5
8F
  8
DEFAULT
 10
-25.35325481407597
 20
-5.999999999999851
 30
0.0
 11
-28.44444415530069
 21
-5.999999999999879
 31
0.0
  0
LINE
  5
90
  8
DEFAULT
 10
-28.44444415530069
 20
-5.999999999999879
 30
0.0
 11
-28.44444415530063
 21
-21.99999999999988
 31
0.0
  0
LINE
  5
91
  8
DEFAULT
 10
-28.44444415530063
 20
-21.99999999999988
 30
0.0
 11
-25.35325481407585
 21
-21.99999999999985
 31
0.0
  0
LINE
  5
92
  8
DEFAULT
 10
-25.35325481407585
 20
-21.99999999999985
 30
0.0
 11
-25.35325481407574
 21
-66.99999999999986
 31
0.0
  0
LINE
  5
93
  8
DEFAULT
 10
-25.35325481407574
 20
-66.99999999999986
 30
0.0
 11
-28.4444441553004
 21
-66.99999999999989
 31
0.0
  0
LINE
  5
94
  8
DEFAULT
 10
-28.4444441553004
 20
-66.99999999999989
 30
0.0
 11
-28.4444441553004
 21
-82.99999999999989
 31
0.0
  0
LINE
  5
95
  8
DEFAULT
 10
-28.4444441553004
 20
-82.99999999999989
 30
0.0
 11
-25.35325481407563
 21
-82.99999999999986
 31
0.0
  0
LINE
  5
96
  8
DEFAULT
 10
-25.35325481407563
 20
-82.99999999999986
 30
0.0
 11
-25.35325481407563
 21
-103.9999999999998
 31
0.0
  0
LINE
  5
97
  8
DEFAULT
 10
-25.35325481407563
 20
-103.9999999999998
 30
0.0
 11
-38.44446646807074
 21
-103.9999999999998
 31
0.0
  0
LINE
  5
98
  8
DEFAULT
 10
-38.44446646807074
 20
-103.9999999999998
 30
0.0
 11
-38.44446646807069
 21
-100.9999999999999
 31
0.0
  0
LINE
  5
99
  8
DEFAULT
 10
-38.44446646807069
 20
-100.9999999999999
 30
0.0
 11
-48.90883279920791
 21
-100.9999999999999
 31
0.0
  0
LINE
  5
9A
  8
DEFAULT
 10
-48.90883279920791
 20
-100.9999999999999
 30
0.0
 11
-48.90883279920791
 21
-103.9999999999999
 31
0.0
  0
LINE
  5
9B
  8
DEFAULT
 10
-48.90883279920791
 20
-103.9999999999999
 30
0.0
 11
-61.99999999999943
 21
-104.0
 31
0.0
  0
LINE
  5
9C
  8
DEFAULT
 10
-61.99999999999943
 20
-104.0
 30
0.0
 11
-61.99999999999955
 21
-83.0
 31
0.0
  0
LINE
  5
9D
  8
DEFAULT
 10
-61.99999999999955
 20
-83.0
 30
0.0
 11
-58.99999999999955
 21
-82.99999999999997
 31
0.0
  0
LINE
  5
9E
  8
DEFAULT
 10
-58.99999999999955
 20
-82.99999999999997
 30
0.0
 11
-58.99999999999955
 21
-66.99999999999997
 31
0.0
  0
LINE
  5
9F
  8
DEFAULT
 10
-94.4225332773176
 20
17.42253327731778
 30
0.0
 11
-79.57746669330271
 21
17.42253327731778
 31
0.0
  0
LINE
  5
A0
  8
DEFAULT
 10
-79.57746669330271
 20
17.42253327731778
 30
0.0
 11
-79.57746669199668
 21
-3.577466722682225
 31
0.0
  0
LINE
  5
A1
  8
DEFAULT
 10
-79.57746669199668
 20
-3.577466722682225
 30
0.0
 11
-76.57746672268229
 21
-3.577466722682225
 31
0.0
  0
LINE
  5
A2
  8
DEFAULT
 10
-76.57746672268229
 20
-3.577466722682225
 30
0.0
 11
-76.57746672268223
 21
-19.57746672268222
 31
0.0
  0
LINE
  5
A3
  8
DEFAULT
 10
-76.57746672268223
 20
-19.57746672268222
 30
0.0
 11
-79.57746669152283
 21
-19.57746672268222
 31
0.0
  0
LINE
  5
A4
  8
DEFAULT
 10
-79.57746669152283
 20
-19.57746672268222
 30
0.0
 11
-79.57746669152277
 21
-64.57746672268223
 31
0.0
  0
LINE
  5
A5
  8
DEFAULT
 10
-79.57746669152277
 20
-64.57746672268223
 30
0.0
 11
-76.57746672268217
 21
-64.57746672268223
 31
0.0
  0
LINE
  5
A6
  8
DEFAULT
 10
-76.57746672268217
 20
-64.57746672268223
 30
0.0
 11
-76.57746672268217
 21
-80.57746672268223
 31
0.0
  0
LINE
  5
A7
  8
DEFAULT
 10
-76.57746672268217
 20
-80.57746672268223
 30
0.0
 11
-79.57746669199662
 21
-80.57746672268223
 31
0.0
  0
LINE
  5
A8
  8
DEFAULT
 10
-79.57746669199662
 20
-80.57746672268223
 30
0.0
 11
-79.5774666933026
 21
-101.5774667226822
 31
0.0
  0
LINE
  5
A9
  8
DEFAULT
 10
-79.5774666933026
 20
-101.5774667226822
 30
0.0
 11
-94.42253327731748
 21
-101.5774667226822
 31
0.0
  0
LINE
  5
AA
  8
DEFAULT
 10
-94.42253327731748
 20
-101.5774667226822
 30
0.0
 11
-94.4225332773176
 21
17.42253327731778
 31
0.0
  0
LINE
  5
AB
  8
DEFAULT
 10
-53.26061977712413
 20
78.30986688758941
 30
0.0
 11
-56.26061977712413
 21
78.30986688758941
 31
0.0
  0
LINE
  5
AC
  8
DEFAULT
 10
-56.26061977712413
 20
78.30986688758941
 30
0.0
 11
-56.26061977712413
 21
93.15532724974474
 31
0.0
  0
LINE
  5
AD
  8
DEFAULT
 10
-56.26061977712413
 20
93.15532724974474
 30
0.0
 11
-66.35183131831411
 21
93.15665199641532
 31
0.0
  0
LINE
  5
AE
  8
DEFAULT
 10
-66.35183131831411
 20
93.15665199641532
 30
0.0
 11
-66.35183131831417
 21
96.15665202226592
 31
0.0
  0
LINE
  5
AF
  8
DEFAULT
 10
-66.35183131831417
 20
96.15665202226592
 30
0.0
 11
-76.8161975592813
 21
96.15802575566556
 31
0.0
  0
LINE
  5
B0
  8
DEFAULT
 10
-76.8161975592813
 20
96.15802575566556
 30
0.0
 11
-76.8161975592813
 21
93.158025729815
 31
0.0
  0
LINE
  5
B1
  8
DEFAULT
 10
-76.8161975592813
 20
93.158025729815
 30
0.0
 11
-86.90736464726479
 21
93.15935049057646
 31
0.0
  0
LINE
  5
B2
  8
DEFAULT
 10
-86.90736464726479
 20
93.15935049057646
 30
0.0
 11
-86.90736464726342
 21
77.1485520252287
 31
0.0
  0
LINE
  5
B3
  8
DEFAULT
 10
-86.90736464726342
 20
77.1485520252287
 30
0.0
 11
-89.90736464726808
 21
77.1485520252287
 31
0.0
  0
LINE
  5
B4
  8
DEFAULT
 10
-89.90736464726808
 20
77.1485520252287
 30
0.0
 11
-89.90736464726808
 21
54.17093663137314
 31
0.0
  0
LINE
  5
B5
  8
DEFAULT
 10
-89.90736464726808
 20
54.17093663137314
 30
0.0
 11
-86.9073646472641
 21
54.17093663137315
 31
0.0
  0
LINE
  5
B6
  8
DEFAULT
 10
-86.9073646472641
 20
54.17093663137315
 30
0.0
 11
-86.90736464726672
 21
32.00000000000001
 31
0.0
  0
LINE
  5
B7
  8
DEFAULT
 10
-86.90736464726672
 20
32.00000000000001
 30
0.0
 11
-17.76401556878869
 21
32.0
 31
0.0
  0
LINE
  5
B8
  8
DEFAULT
 10
-17.76401556878869
 20
32.0
 30
0.0
 11
-31.72319540534039
 21
48.02231619931965
 31
0.0
  0
LINE
  5
B9
  8
DEFAULT
 10
-31.72319540534039
 20
48.02231619931965
 30
0.0
 11
-29.46124844828449
 21
49.99300033521412
 31
0.0
  0
LINE
  5
BA
  8
DEFAULT
 10
-29.46124844828449
 20
49.99300033521412
 30
0.0
 11
-37.27365530008234
 21
58.96006389646104
 31
0.0
  0
LINE
  5
BB
  8
DEFAULT
 10
-37.27365530008234
 20
58.96006389646104
 30
0.0
 11
-39.53560225713818
 21
56.98937976056664
 31
0.0
  0
LINE
  5
BC
  8
DEFAULT
 10
-39.53560225713818
 20
56.98937976056664
 30
0.0
 11
-55.52256673417997
 21
75.339182751695
 31
0.0
  0
LINE
  5
BD
  8
DEFAULT
 10
-55.52256673417997
 20
75.339182751695
 30
0.0
 11
-53.26061977712413
 21
78.30986688758941
 31
0.0
  0
CIRCLE
  5
BE
  8
DEFAULT
 10
-53.50000000000045
 20
77.64910884850599
 30
0.0000000000000048
 40
1.5
210
1.758516423053368E-16
220
-5.551115123125783E-17
230
-1.0
  0
CIRCLE
  5
BF
  8
DEFAULT
 10
37.50000000000045
 20
77.6491088485053
 30
-0.0000000000000025
 40
1.500000000000007
  0
LINE
  5
C0
  8
DEFAULT
 10
105.0000000000002
 20
92.09407083520014
 30
0.0000000000000085
 11
-13.99999999999977
 21
92.09407083519628
 31
-0.0000000000000124
  0
LINE
  5
C1
  8
DEFAULT
 10
-13.99999999999977
 20
92.09407083519628
 30
-0.0000000000000124
 11
-13.99999999999926
 21
68.23011556548332
 31
-0.0000000000000111
  0
LINE
  5
C2
  8
DEFAULT
 10
-13.99999999999926
 20
68.23011556548332
 30
-0.0000000000000111
 11
-10.99999999999889
 21
68.23011556548337
 31
-0.0000000000000106
  0
LINE
  5
C3
  8
DEFAULT
 10
-10.99999999999889
 20
68.23011556548337
 30
-0.0000000000000106
 11
-10.99999999999861
 21
56.33717943812356
 31
-0.0000000000000099
  0
LINE
  5
C4
  8
DEFAULT
 10
-10.99999999999861
 20
56.33717943812356
 30
-0.0000000000000099
 11
-13.99999999999818
 21
56.33717943812348
 31
-0.0000000000000104
  0
LINE
  5
C5
  8
DEFAULT
 10
-13.99999999999818
 20
56.33717943812348
 30
-0.0000000000000104
 11
-13.99999999999767
 21
32.00000000000066
 31
-0.0000000000000091
  0
LINE
  5
C6
  8
DEFAULT
 10
-13.99999999999767
 20
32.00000000000066
 30
-0.0000000000000091
 11
105.0000000000023
 21
32.00000000000448
 31
0.0000000000000119
  0
LINE
  5
C7
  8
DEFAULT
 10
105.0000000000023
 20
32.00000000000448
 30
0.0000000000000119
 11
105.0000000000018
 21
56.33717943812857
 31
0.0000000000000105
  0
LINE
  5
C8
  8
DEFAULT
 10
105.0000000000018
 20
56.33717943812857
 30
0.0000000000000105
 11
102.0000000000014
 21
56.33717943812851
 31
0.00000000000001
  0
LINE
  5
C9
  8
DEFAULT
 10
102.0000000000014
 20
56.33717943812851
 30
0.00000000000001
 11
102.0000000000011
 21
68.23011556548838
 31
0.0000000000000093
  0
LINE
  5
CA
  8
DEFAULT
 10
102.0000000000011
 20
68.23011556548838
 30
0.0000000000000093
 11
105.0000000000007
 21
68.23011556548843
 31
0.0000000000000098
  0
LINE
  5
CB
  8
DEFAULT
 10
105.0000000000007
 20
68.23011556548843
 30
0.0000000000000098
 11
105.0000000000002
 21
92.09407083520014
 31
0.0000000000000085
  0
ENDSEC
  0
EOF
