  0
SECTION
  2
HEADER
  9
$ACADVER
  1
AC1009
  9
$DWGCODEPAGE
  3
ansi_1252
  9
$INSBASE
 10
0.0
 20
0.0
 30
0.0
  9
$EXTMIN
 10
666.9999999999983
 20
-143.0000000000001
 30
-14.00000000000001
  9
$EXTMAX
 10
1423.0
 20
199.9999999999999
 30
-14.0
  9
$LIMMIN
 10
0.0
 20
0.0
  9
$LIMMAX
 10
12.0
 20
9.0
  9
$ORTHOMODE
 70
     0
  9
$REGENMODE
 70
     1
  9
$FILLMODE
 70
     1
  9
$QTEXTMODE
 70
     0
  9
$MIRRTEXT
 70
     1
  9
$DRAGMODE
 70
     2
  9
$LTSCALE
 40
1.0
  9
$OSMODE
 70
    37
  9
$ATTMODE
 70
     1
  9
$TEXTSIZE
 40
0.2
  9
$TRACEWID
 40
0.05
  9
$TEXTSTYLE
  7
STANDARD
  9
$CLAYER
  8
DEFAULT
  9
$CELTYPE
  6
BYLAYER
  9
$CECOLOR
 62
   256
  9
$DIMSCALE
 40
1.0
  9
$DIMASZ
 40
0.18
  9
$DIMEXO
 40
0.0625
  9
$DIMDLI
 40
0.38
  9
$DIMRND
 40
0.0
  9
$DIMDLE
 40
0.0
  9
$DIMEXE
 40
0.18
  9
$DIMTP
 40
0.0
  9
$DIMTM
 40
0.0
  9
$DIMTXT
 40
0.18
  9
$DIMCEN
 40
0.09
  9
$DIMTSZ
 40
0.0
  9
$DIMTOL
 70
     0
  9
$DIMLIM
 70
     0
  9
$DIMTIH
 70
     1
  9
$DIMTOH
 70
     1
  9
$DIMSE1
 70
     0
  9
$DIMSE2
 70
     0
  9
$DIMTAD
 70
     0
  9
$DIMZIN
 70
     0
  9
$DIMBLK
  1

  9
$DIMASO
 70
     1
  9
$DIMSHO
 70
     1
  9
$DIMPOST
  1

  9
$DIMAPOST
  1

  9
$DIMALT
 70
     0
  9
$DIMALTD
 70
     2
  9
$DIMALTF
 40
25.4
  9
$DIMLFAC
 40
1.0
  9
$DIMTOFL
 70
     0
  9
$DIMTVP
 40
0.0
  9
$DIMTIX
 70
     0
  9
$DIMSOXD
 70
     0
  9
$DIMSAH
 70
     0
  9
$DIMBLK1
  1

  9
$DIMBLK2
  1

  9
$DIMSTYLE
  2
STANDARD_ACAD
  9
$DIMCLRD
 70
     0
  9
$DIMCLRE
 70
     0
  9
$DIMCLRT
 70
     0
  9
$DIMTFAC
 40
1.0
  9
$DIMGAP
 40
0.09
  9
$LUNITS
 70
     2
  9
$LUPREC
 70
     3
  9
$SKETCHINC
 40
0.1
  9
$FILLETRAD
 40
0.0
  9
$AUNITS
 70
     0
  9
$AUPREC
 70
     0
  9
$MENU
  1
.
  9
$ELEVATION
 40
0.0
  9
$PELEVATION
 40
0.0
  9
$THICKNESS
 40
0.0
  9
$LIMCHECK
 70
     0
  9
$CHAMFERA
 40
0.0
  9
$CHAMFERB
 40
0.0
  9
$SKPOLY
 70
     0
  9
$TDCREATE
 40
2460357.707213819
  9
$TDUPDATE
 40
2460357.707229768
  9
$TDINDWG
 40
0.0000000116
  9
$TDUSRTIMER
 40
0.0000000116
  9
$USRTIMER
 70
     1
  9
$ANGBASE
 50
0.0
  9
$ANGDIR
 70
     0
  9
$PDMODE
 70
     0
  9
$PDSIZE
 40
0.0
  9
$PLINEWID
 40
0.0
  9
$COORDS
 70
     1
  9
$SPLFRAME
 70
     0
  9
$SPLINETYPE
 70
     6
  9
$SPLINESEGS
 70
     8
  9
$ATTDIA
 70
     0
  9
$ATTREQ
 70
     1
  9
$HANDLING
 70
     1
  9
$HANDSEED
  5
CB
  9
$SURFTAB1
 70
     6
  9
$SURFTAB2
 70
     6
  9
$SURFTYPE
 70
     6
  9
$SURFU
 70
     6
  9
$SURFV
 70
     6
  9
$UCSNAME
  2

  9
$UCSORG
 10
0.0
 20
0.0
 30
0.0
  9
$UCSXDIR
 10
1.0
 20
0.0
 30
0.0
  9
$UCSYDIR
 10
0.0
 20
1.0
 30
0.0
  9
$PUCSNAME
  2

  9
$PUCSORG
 10
0.0
 20
0.0
 30
0.0
  9
$PUCSXDIR
 10
1.0
 20
0.0
 30
0.0
  9
$PUCSYDIR
 10
0.0
 20
1.0
 30
0.0
  9
$USERI1
 70
     0
  9
$USERI2
 70
     0
  9
$USERI3
 70
     0
  9
$USERI4
 70
     0
  9
$USERI5
 70
     0
  9
$USERR1
 40
0.0
  9
$USERR2
 40
0.0
  9
$USERR3
 40
0.0
  9
$USERR4
 40
0.0
  9
$USERR5
 40
0.0
  9
$WORLDVIEW
 70
     1
  9
$SHADEDGE
 70
     3
  9
$SHADEDIF
 70
    70
  9
$TILEMODE
 70
     1
  9
$MAXACTVP
 70
    64
  9
$PLIMCHECK
 70
     0
  9
$PEXTMIN
 10
1.000000000000000E+20
 20
1.000000000000000E+20
 30
1.000000000000000E+20
  9
$PEXTMAX
 10
-1.000000000000000E+20
 20
-1.000000000000000E+20
 30
-1.000000000000000E+20
  9
$PLIMMIN
 10
0.0
 20
0.0
  9
$PLIMMAX
 10
12.0
 20
9.0
  9
$UNITMODE
 70
     0
  9
$VISRETAIN
 70
     1
  9
$PLINEGEN
 70
     0
  9
$PSLTSCALE
 70
     1
  0
ENDSEC
  0
SECTION
  2
TABLES
  0
TABLE
  2
VPORT
 70
     1
  0
VPORT
  2
*ACTIVE
 70
     0
 10
0.0
 20
0.0
 11
1.0
 21
1.0
 12
10.42990654205607
 22
4.5
 13
0.0
 23
0.0
 14
0.5
 24
0.5
 15
0.5
 25
0.5
 16
0.0
 26
0.0
 36
1.0
 17
0.0
 27
0.0
 37
0.0
 40
9.0
 41
1.972972972850329
 42
50.0
 43
0.0
 44
0.0
 50
0.0
 51
0.0
 71
     0
 72
   100
 73
     1
 74
     3
 75
     0
 76
     0
 77
     0
 78
     0
  0
ENDTAB
  0
TABLE
  2
LTYPE
 70
     1
  0
LTYPE
  2
CONTINUOUS
 70
     0
  3
Solid line
 72
    65
 73
     0
 40
0.0
  0
ENDTAB
  0
TABLE
  2
LAYER
 70
     2
  0
LAYER
  2
0
 70
     0
 62
     7
  6
CONTINUOUS
  0
LAYER
  2
DEFAULT
 70
     0
 62
     7
  6
CONTINUOUS
  0
ENDTAB
  0
TABLE
  2
STYLE
 70
     1
  0
STYLE
  2
STANDARD
 70
     0
 40
0.0
 41
1.0
 50
0.0
 71
     0
 42
0.2
  3
txt
  4

  0
ENDTAB
  0
TABLE
  2
VIEW
 70
     0
  0
ENDTAB
  0
TABLE
  2
UCS
 70
     0
  0
ENDTAB
  0
TABLE
  2
APPID
 70
     2
  0
APPID
  2
ACAD
 70
     0
  0
APPID
  2
RHINO
 70
     0
  0
ENDTAB
  0
TABLE
  2
DIMSTYLE
 70
     1
  0
DIMSTYLE
  2
STANDARD_ACAD
 70
     0
  3

  4

  5

  6

  7

 40
1.0
 41
0.18
 42
0.0625
 43
0.38
 44
0.18
 45
0.0
 46
0.0
 47
0.0
 48
0.0
140
0.18
141
0.09
142
0.0
143
25.4
144
1.0
145
0.0
146
1.0
147
0.09
 71
     0
 72
     0
 73
     1
 74
     1
 75
     0
 76
     0
 77
     0
 78
     0
170
     0
171
     2
172
     0
173
     0
174
     0
175
     0
176
     0
177
     0
178
     0
  0
ENDTAB
  0
ENDSEC
  0
SECTION
  2
BLOCKS
  0
BLOCK
  8
0
  2
$MODEL_SPACE
 70
     0
 10
0.0
 20
0.0
 30
0.0
  3
$MODEL_SPACE
  1

  0
ENDBLK
  5
21
  8
0
  0
BLOCK
 67
     1
  8
0
  2
$PAPER_SPACE
 70
     0
 10
0.0
 20
0.0
 30
0.0
  3
$PAPER_SPACE
  1

  0
ENDBLK
  5
1D
 67
     1
  8
0
  0
ENDSEC
  0
SECTION
  2
ENTITIES
  0
LINE
  5
60
  8
DEFAULT
 10
1393.992220825774
 20
163.9589435704114
 30
-14.0
 11
1401.992220825844
 21
163.9589435703967
 31
-14.0
  0
ARC
  5
61
  8
DEFAULT
 10
1401.992220825856
 20
166.4589435704037
 30
-14.0
 40
2.50000000000702
 50
269.9999999997343
 51
90.0000435072503
  0
LINE
  5
62
  8
DEFAULT
 10
1401.992218927494
 20
168.9589435704099
 30
-14.0
 11
1393.992221103869
 21
168.958943570426
 31
-14.0
  0
ARC
  5
63
  8
DEFAULT
 10
1393.992220825852
 20
166.4589435704187
 30
-14.0
 40
2.50000000000732
 50
89.99999362831291
 51
269.9999999982126
  0
LINE
  5
64
  8
DEFAULT
 10
1393.992220825774
 20
127.84543619169
 30
-14.0
 11
1401.992220825844
 21
127.8454361916752
 31
-14.0
  0
ARC
  5
65
  8
DEFAULT
 10
1401.992220825856
 20
130.3454361916823
 30
-14.0
 40
2.50000000000702
 50
269.9999999997394
 51
90.00004350724508
  0
LINE
  5
66
  8
DEFAULT
 10
1401.992218927494
 20
132.8454361916885
 30
-14.0
 11
1393.992221103869
 21
132.8454361917046
 31
-14.0
  0
ARC
  5
67
  8
DEFAULT
 10
1393.992220825852
 20
130.3454361916973
 30
-14.0
 40
2.500000000007348
 50
89.9999936283077
 51
269.9999999982178
  0
CIRCLE
  5
68
  8
DEFAULT
 10
-707.9999999999999
 20
76.49999999999989
 30
14.0
 40
1.5
210
0.0
220
0.0
230
-1.0
  0
CIRCLE
  5
69
  8
DEFAULT
 10
707.9999999999999
 20
55.5
 30
-14.0
 40
1.5
  0
CIRCLE
  5
6A
  8
DEFAULT
 10
-671.9999999999999
 20
76.5
 30
14.0
 40
1.5
210
0.0
220
0.0
230
-1.0
  0
CIRCLE
  5
6B
  8
DEFAULT
 10
671.9999999999998
 20
55.5
 30
-14.0
 40
1.5
  0
LINE
  5
6C
  8
DEFAULT
 10
712.1390053108549
 20
81.30912571828479
 30
-14.0
 11
666.9999999999983
 21
81.30912571828479
 31
-14.0
  0
LINE
  5
6D
  8
DEFAULT
 10
666.9999999999983
 20
81.30912571828479
 30
-14.0
 11
666.9999999999983
 21
50.99999999999999
 31
-14.0
  0
LINE
  5
6E
  8
DEFAULT
 10
666.9999999999983
 20
50.99999999999999
 30
-14.0
 11
712.1390053108549
 21
50.99999999999999
 31
-14.0
  0
LINE
  5
6F
  8
DEFAULT
 10
712.1390053108549
 20
50.99999999999999
 30
-14.0
 11
712.1390053108549
 21
81.30912571828479
 31
-14.0
  0
CIRCLE
  5
70
  8
DEFAULT
 10
-707.9999999999999
 20
36.49999999999977
 30
14.0
 40
1.5
210
0.0
220
0.0
230
-1.0
  0
CIRCLE
  5
71
  8
DEFAULT
 10
707.9999999999999
 20
15.5
 30
-14.0
 40
1.5
  0
CIRCLE
  5
72
  8
DEFAULT
 10
-671.9999999999999
 20
36.5
 30
14.0
 40
1.5
210
0.0
220
0.0
230
-1.0
  0
CIRCLE
  5
73
  8
DEFAULT
 10
671.9999999999997
 20
15.49999999999989
 30
-14.0
 40
1.500000000000114
  0
LINE
  5
74
  8
DEFAULT
 10
712.1390053108549
 20
41.3091257182848
 30
-14.0
 11
666.9999999999983
 21
41.3091257182848
 31
-14.0
  0
LINE
  5
75
  8
DEFAULT
 10
666.9999999999983
 20
41.3091257182848
 30
-14.0
 11
666.9999999999983
 21
11.0
 31
-14.0
  0
LINE
  5
76
  8
DEFAULT
 10
666.9999999999983
 20
11.0
 30
-14.0
 11
712.1390053108549
 21
11.0
 31
-14.0
  0
LINE
  5
77
  8
DEFAULT
 10
712.1390053108549
 20
11.0
 30
-14.0
 11
712.1390053108549
 21
41.3091257182848
 31
-14.0
  0
CIRCLE
  5
78
  8
DEFAULT
 10
-707.9999999999999
 20
-4.500000000000114
 30
14.0
 40
1.5
210
0.0
220
0.0
230
-1.0
  0
CIRCLE
  5
79
  8
DEFAULT
 10
707.9999999999999
 20
-25.50000000000011
 30
-14.0
 40
1.5
  0
CIRCLE
  5
7A
  8
DEFAULT
 10
-671.9999999999999
 20
-4.5
 30
14.0
 40
1.5
210
0.0
220
0.0
230
-1.0
  0
CIRCLE
  5
7B
  8
DEFAULT
 10
671.9999999999997
 20
-25.50000000000011
 30
-14.0
 40
1.500000000000114
  0
LINE
  5
7C
  8
DEFAULT
 10
712.1390053108549
 20
0.309125718284804
 30
-14.0
 11
666.9999999999983
 21
0.309125718284804
 31
-14.0
  0
LINE
  5
7D
  8
DEFAULT
 10
666.9999999999983
 20
0.309125718284804
 30
-14.0
 11
666.9999999999983
 21
-30.0
 31
-14.0
  0
LINE
  5
7E
  8
DEFAULT
 10
666.9999999999983
 20
-30.0
 30
-14.0
 11
712.1390053108549
 21
-30.0
 31
-14.0
  0
LINE
  5
7F
  8
DEFAULT
 10
712.1390053108549
 20
-30.0
 30
-14.0
 11
712.1390053108549
 21
0.309125718284804
 31
-14.0
  0
LINE
  5
80
  8
DEFAULT
 10
1071.0
 20
-63.99999999999999
 30
-14.0
 11
1132.0
 21
-63.99999999999999
 31
-14.0
  0
LINE
  5
81
  8
DEFAULT
 10
1132.0
 20
-63.99999999999999
 30
-14.0
 11
1132.0
 21
116.9589435704287
 31
-14.0
  0
LINE
  5
82
  8
DEFAULT
 10
1132.0
 20
116.9589435704287
 30
-14.0
 11
1071.0
 21
116.9589435704288
 31
-14.0
  0
ARC
  5
83
  8
DEFAULT
 10
-1071.0
 20
124.9589435704287
 30
14.00000000000001
 40
7.999999999999929
 50
269.9999999999984
 51
0.0000000000003053
210
0.0
220
0.0
230
-1.0
  0
LINE
  5
84
  8
DEFAULT
 10
1063.0
 20
124.9589435704287
 30
-14.0
 11
1063.0
 21
199.9999999999999
 31
-14.0
  0
LINE
  5
85
  8
DEFAULT
 10
1063.0
 20
199.9999999999999
 30
-14.0
 11
1423.0
 21
199.9999999999999
 31
-14.0
  0
LINE
  5
86
  8
DEFAULT
 10
1423.0
 20
199.9999999999999
 30
-14.0
 11
1423.0
 21
-143.0000000000001
 31
-14.0
  0
LINE
  5
87
  8
DEFAULT
 10
1423.0
 20
-143.0000000000001
 30
-14.0
 11
1063.0
 21
-143.0000000000001
 31
-14.0
  0
LINE
  5
88
  8
DEFAULT
 10
1063.0
 20
-143.0000000000001
 30
-14.0
 11
1063.0
 21
-71.99999999999999
 31
-14.0
  0
ARC
  5
89
  8
DEFAULT
 10
-1071.0
 20
-71.99999999999977
 30
14.0
 40
7.999999999999773
 50
359.9999999999985
 51
90.00000000000162
210
0.0
220
0.0
230
-1.0
  0
CIRCLE
  5
8A
  8
DEFAULT
 10
1085.799053165731
 20
166.4589435704288
 30
-14.0
 40
2.5
  0
LINE
  5
8B
  8
DEFAULT
 10
677.0000000000001
 20
-63.99999999999999
 30
-14.0
 11
737.9999999999999
 21
-63.99999999999999
 31
-14.0
  0
LINE
  5
8C
  8
DEFAULT
 10
737.9999999999999
 20
-63.99999999999999
 30
-14.0
 11
737.9999999999999
 21
116.9589435704287
 31
-14.0
  0
LINE
  5
8D
  8
DEFAULT
 10
737.9999999999999
 20
116.9589435704287
 30
-14.0
 11
677.0
 21
116.9589435704288
 31
-14.0
  0
ARC
  5
8E
  8
DEFAULT
 10
-676.9999999999998
 20
124.9589435704286
 30
14.0
 40
7.999999999999872
 50
269.9999999999984
 51
0.0000000000007124
210
0.0
220
0.0
230
-1.0
  0
LINE
  5
8F
  8
DEFAULT
 10
669.0
 20
124.9589435704287
 30
-14.0
 11
669.0
 21
199.9999999999999
 31
-14.0
  0
LINE
  5
90
  8
DEFAULT
 10
669.0
 20
199.9999999999999
 30
-14.0
 11
1029.0
 21
199.9999999999999
 31
-14.0
  0
LINE
  5
91
  8
DEFAULT
 10
1029.0
 20
199.9999999999999
 30
-14.0
 11
1029.0
 21
-143.0000000000001
 31
-14.0
  0
LINE
  5
92
  8
DEFAULT
 10
1029.0
 20
-143.0000000000001
 30
-14.0
 11
669.0
 21
-143.0000000000001
 31
-14.0
  0
LINE
  5
93
  8
DEFAULT
 10
669.0
 20
-143.0000000000001
 30
-14.0
 11
669.0
 21
-71.99999999999999
 31
-14.0
  0
ARC
  5
94
  8
DEFAULT
 10
-677.0
 20
-71.9999999999999
 30
14.0
 40
8.0
 50
359.9999999999994
 51
90.00000000000082
210
0.0
220
0.0
230
-1.0
  0
CIRCLE
  5
95
  8
DEFAULT
 10
1148.193167660114
 20
166.4589435704286
 30
-14.0
 40
2.499999999999773
  0
CIRCLE
  5
96
  8
DEFAULT
 10
1148.193167660114
 20
130.3454371408575
 30
-14.0
 40
2.500000000000114
  0
CIRCLE
  5
97
  8
DEFAULT
 10
1085.799053165731
 20
130.3454371408575
 30
-14.0
 40
2.500000000000114
  0
CIRCLE
  5
98
  8
DEFAULT
 10
-1135.0
 20
-74.50000000000023
 30
14.0
 40
1.5
210
0.0
220
0.0
230
-1.0
  0
CIRCLE
  5
99
  8
DEFAULT
 10
1135.0
 20
-95.5
 30
-14.0
 40
1.5
  0
CIRCLE
  5
9A
  8
DEFAULT
 10
-1099.0
 20
-74.5
 30
14.0
 40
1.5
210
0.0
220
0.0
230
-1.0
  0
CIRCLE
  5
9B
  8
DEFAULT
 10
1099.0
 20
-95.5
 30
-14.0
 40
1.5
  0
LINE
  5
9C
  8
DEFAULT
 10
1331.79905316566
 20
163.9589435704141
 30
-14.0
 11
1339.799053165731
 21
163.9589435703994
 31
-14.0
  0
ARC
  5
9D
  8
DEFAULT
 10
1339.799053165742
 20
166.4589435704063
 30
-14.0
 40
2.500000000006935
 50
269.9999999997343
 51
90.00004350725551
  0
LINE
  5
9E
  8
DEFAULT
 10
1339.79905126738
 20
168.9589435704126
 30
-14.0
 11
1331.799053443755
 21
168.9589435704287
 31
-14.0
  0
ARC
  5
9F
  8
DEFAULT
 10
1331.799053165738
 20
166.4589435704212
 30
-14.0
 40
2.500000000007547
 50
89.99999362831291
 51
269.9999999982178
  0
LINE
  5
A0
  8
DEFAULT
 10
1331.598106331391
 20
127.8454361916897
 30
-14.0
 11
1339.598106331461
 21
127.845436191675
 31
-14.0
  0
ARC
  5
A1
  8
DEFAULT
 10
1339.598106331473
 20
130.3454361916819
 30
-14.0
 40
2.50000000000685
 50
269.9999999997394
 51
90.0000435072503
  0
LINE
  5
A2
  8
DEFAULT
 10
1339.598104433111
 20
132.8454361916883
 30
-14.0
 11
1331.598106609486
 21
132.8454361917044
 31
-14.0
  0
ARC
  5
A3
  8
DEFAULT
 10
1331.598106331468
 20
130.345436191697
 30
-14.0
 40
2.500000000007434
 50
89.99999362831291
 51
269.9999999982178
  0
LINE
  5
A4
  8
DEFAULT
 10
1393.992220825774
 20
-79.84543809002523
 30
-14.0
 11
1401.992220825844
 21
-79.84543809003995
 31
-14.0
  0
ARC
  5
A5
  8
DEFAULT
 10
1401.992220825856
 20
-77.34543809003318
 30
-14.0
 40
2.500000000006764
 50
269.9999999997394
 51
90.00004350724508
  0
LINE
  5
A6
  8
DEFAULT
 10
1401.992218927494
 20
-74.84543809002668
 30
-14.0
 11
1393.992221103869
 21
-74.84543809001056
 31
-14.0
  0
ARC
  5
A7
  8
DEFAULT
 10
1393.992220825852
 20
-77.3454380900177
 30
-14.0
 40
2.500000000007135
 50
89.9999936283077
 51
269.9999999982178
  0
LINE
  5
A8
  8
DEFAULT
 10
1393.992220825774
 20
-115.9589445195964
 30
-14.0
 11
1401.992220825844
 21
-115.9589445196111
 31
-14.0
  0
ARC
  5
A9
  8
DEFAULT
 10
1401.992220825856
 20
-113.4589445196039
 30
-14.0
 40
2.500000000007233
 50
269.9999999997447
 51
90.00004350724508
  0
LINE
  5
AA
  8
DEFAULT
 10
1401.992218927494
 20
-110.9589445195978
 30
-14.0
 11
1393.992221103869
 21
-110.9589445195817
 31
-14.0
  0
ARC
  5
AB
  8
DEFAULT
 10
1393.992220825852
 20
-113.4589445195889
 30
-14.0
 40
2.500000000007206
 50
89.99999362831291
 51
269.9999999982126
  0
LINE
  5
AC
  8
DEFAULT
 10
1331.598106331391
 20
-115.9589445195963
 30
-14.0
 11
1339.598106331461
 21
-115.958944519611
 31
-14.0
  0
ARC
  5
AD
  8
DEFAULT
 10
1339.598106331473
 20
-113.4589445196041
 30
-14.0
 40
2.500000000006935
 50
269.9999999997343
 51
90.00004350725551
  0
LINE
  5
AE
  8
DEFAULT
 10
1339.598104433111
 20
-110.9589445195977
 30
-14.0
 11
1331.598106609486
 21
-110.9589445195816
 31
-14.0
  0
ARC
  5
AF
  8
DEFAULT
 10
1331.598106331468
 20
-113.4589445195889
 30
-14.0
 40
2.50000000000732
 50
89.9999936283077
 51
269.9999999982231
  0
LINE
  5
B0
  8
DEFAULT
 10
1331.598106331391
 20
-79.84543809002511
 30
-14.0
 11
1339.598106331461
 21
-79.84543809003983
 31
-14.0
  0
ARC
  5
B1
  8
DEFAULT
 10
1339.598106331473
 20
-77.34543809003293
 30
-14.0
 40
2.500000000006906
 50
269.9999999997394
 51
90.0000435072503
  0
LINE
  5
B2
  8
DEFAULT
 10
1339.598104433111
 20
-74.84543809002656
 30
-14.0
 11
1331.598106609486
 21
-74.84543809001045
 31
-14.0
  0
ARC
  5
B3
  8
DEFAULT
 10
1331.598106331468
 20
-77.34543809001792
 30
-14.0
 40
2.500000000007476
 50
89.9999936283077
 51
269.9999999982231
  0
CIRCLE
  5
B4
  8
DEFAULT
 10
704.9999999999998
 20
-95.50000000000011
 30
-14.0
 40
1.5
  0
CIRCLE
  5
B5
  8
DEFAULT
 10
-704.9999999999998
 20
-74.5
 30
14.0
 40
1.500000000000114
210
0.0
220
0.0
230
-1.0
  0
CIRCLE
  5
B6
  8
DEFAULT
 10
740.9999999999998
 20
-95.5
 30
-14.0
 40
1.499999999999886
  0
CIRCLE
  5
B7
  8
DEFAULT
 10
-740.9999999999998
 20
-74.5
 30
14.0
 40
1.499999999999886
210
0.0
220
0.0
230
-1.0
  0
CIRCLE
  5
B8
  8
DEFAULT
 10
-941.7990531657307
 20
-113.4589435704287
 30
14.0
 40
2.499999999999886
210
0.0
220
0.0
230
-1.0
  0
CIRCLE
  5
B9
  8
DEFAULT
 10
-941.7990531657307
 20
-77.34543714085748
 30
14.0
 40
2.500000000000114
210
0.0
220
0.0
230
-1.0
  0
CIRCLE
  5
BA
  8
DEFAULT
 10
-1004.193167660114
 20
-113.4589435704288
 30
14.0
 40
2.5
210
0.0
220
0.0
230
-1.0
  0
CIRCLE
  5
BB
  8
DEFAULT
 10
-1004.193167660114
 20
-77.3454371408576
 30
14.0
 40
2.5
210
0.0
220
0.0
230
-1.0
  0
CIRCLE
  5
BC
  8
DEFAULT
 10
1004.193167660114
 20
130.3454371408576
 30
-14.0
 40
2.5
  0
CIRCLE
  5
BD
  8
DEFAULT
 10
1004.193167660114
 20
166.4589435704288
 30
-14.0
 40
2.5
  0
CIRCLE
  5
BE
  8
DEFAULT
 10
941.7990531657307
 20
130.3454371408574
 30
-14.0
 40
2.500000000000227
  0
CIRCLE
  5
BF
  8
DEFAULT
 10
941.7990531657307
 20
166.4589435704287
 30
-14.0
 40
2.499999999999886
  0
CIRCLE
  5
C0
  8
DEFAULT
 10
691.7990531657306
 20
130.3454371408576
 30
-14.0
 40
2.5
  0
CIRCLE
  5
C1
  8
DEFAULT
 10
754.1931676601137
 20
130.3454371408576
 30
-14.0
 40
2.5
  0
CIRCLE
  5
C2
  8
DEFAULT
 10
754.1931676601137
 20
166.4589435704288
 30
-14.0
 40
2.5
  0
CIRCLE
  5
C3
  8
DEFAULT
 10
691.7990531657306
 20
166.4589435704288
 30
-14.0
 40
2.5
  0
ENDSEC
  0
EOF
