<?xml version="1.0" encoding="utf-8" standalone="no"?>
<!DOCTYPE svg PUBLIC "-//W3C//DTD SVG 1.1//EN" "http://www.w3.org/Graphics/SVG/1.1/DTD/svg11.dtd">
<svg version="1.1" width="612pt" height="792pt" viewBox="0 0 612 792" overflow="visible" xmlns="http://www.w3.org/2000/svg">
  <path d="M178.7446,555.9557 C240.7307,555.9557 271.7238,504.0817 271.7238,400.3338 C271.7238,290.0195 239.1548,234.8624 174.0168,234.8624 C143.5491,234.8624 119.5163,248.7173 101.9186,276.4272 C84.32082,304.1371 75.52194,343.6007 75.52194,394.8181 C75.52194,446.8234 84.91179,486.681 103.6915,514.3909 C122.4712,542.1008 147.4889,555.9557 178.7446,555.9557 z" stroke="#000000" stroke-width="0.24" fill="none" />
  <path d="M432.0735,555.9557 C463.8545,555.9557 489.2005,541.7068 508.1115,513.2089 C527.0225,484.7111 536.478,444.3282 536.478,392.0602 C536.478,342.1561 527.4165,303.4805 509.2935,276.0332 C491.1704,248.586 466.6123,234.8624 435.6193,234.8624 C403.0503,234.8624 379.0175,248.4547 363.521,275.6393 C348.0245,302.8238 340.2762,344.914 340.2762,401.9097 C340.2762,504.607 370.8753,555.9557 432.0735,555.9557 z" stroke="#000000" stroke-width="0.24" fill="none" />
  <path d="M299.0266,765.1589 L312.1855,765.1589 C318.9216,765.338 327.0254,762.2809 332.6058,756.7005 C338.1862,751.1201 341.2433,743.0163 341.0642,736.2802 L341.0642,666.6447 C340.7203,649.7401 349.6199,631.4209 363.121,621.2422 C376.197,610.5229 396.0984,606.1955 412.445,610.517 C422.7386,613.0154 433.3526,614.2647 444.2868,614.2647 C490.7764,614.2647 529.8461,594.1718 561.4957,553.9858 C593.1454,513.7999 608.9703,460.744 608.9703,394.8181 C608.9703,328.8922 593.7364,276.0989 563.2687,236.4383 C532.8009,196.7777 493.6656,176.9474 445.8628,176.9474 C433.6493,176.9474 422.3232,178.1592 411.8842,180.5829 C395.58,184.7139 375.8525,180.2693 362.8949,169.5458 C349.5187,159.3493 340.7277,141.1381 341.0642,124.322 L341.0642,55.71984 C341.2433,48.98369 338.1862,40.87992 332.6058,35.29951 C327.0254,29.7191 318.9216,26.66206 312.1855,26.84113 L299.0266,26.84113 C292.2904,26.66206 284.1866,29.7191 278.6062,35.29951 C273.0258,40.87992 269.9688,48.98369 270.1479,55.71984 L270.1479,124.2767 C270.4874,141.1302 261.6506,159.387 248.2216,169.5762 C235.214,180.298 215.4129,184.6933 199.0905,180.482 C189.1324,178.1256 178.6733,176.9474 167.7132,176.9474 C119.1224,176.9474 79.5274,196.7777 48.92833,236.4383 C18.32924,276.0989 3.029703,327.4475 3.029703,390.4843 C3.029703,456.9355 18.5919,510.8451 49.71628,552.2129 C80.84067,593.5807 120.173,614.2647 167.7132,614.2647 C178.6326,614.2647 189.1485,613.0844 199.2608,610.7238 C215.5702,606.5702 235.3185,611.0009 248.2902,621.7239 C261.6813,631.9185 270.4852,650.1425 270.1479,666.9691 L270.1479,736.2802 C269.9688,743.0163 273.0258,751.1201 278.6062,756.7005 C284.1866,762.2809 292.2904,765.338 299.0266,765.1589 z" stroke="#000000" stroke-width="0.24" fill="none" />
</svg>