<?xml version="1.0" encoding="utf-8" standalone="no"?>
<!DOCTYPE svg PUBLIC "-//W3C//DTD SVG 1.1//EN" "http://www.w3.org/Graphics/SVG/1.1/DTD/svg11.dtd">
<svg version="1.1" width="612pt" height="792pt" viewBox="0 0 612 792" overflow="visible" xmlns="http://www.w3.org/2000/svg">
  <path d="M20.34229,452.2659 L20.34229,538.8289 C19.91047,543.0883 24.7391,547.917 28.99858,547.4852 L167.4993,547.4852 C171.7588,547.917 176.5874,543.0883 176.1556,538.8289 L176.1556,452.2659" stroke="#000000" stroke-width="0.24" fill="none" />
  <path d="M20.34229,452.2659 C72.28006,460.9222 80.93635,478.2348 80.93635,521.5163" stroke="#000000" stroke-width="0.24" fill="none" />
  <path d="M176.1556,452.2659 C124.2178,460.9222 115.5615,478.2348 115.5615,521.5163 C115.6689,517.478 113.8362,512.6198 110.4908,509.2744 C107.1454,505.929 102.2872,504.0963 98.24894,504.2037 C94.21066,504.0963 89.35251,505.929 86.00709,509.2744 C82.66167,512.6198 80.82899,517.478 80.93635,521.5163 C80.82899,525.5546 82.66167,530.4127 86.00709,533.7581 C89.35251,537.1035 94.21066,538.9362 98.24894,538.8289 C102.2872,538.9362 107.1454,537.1035 110.4908,533.7581 C113.8362,530.4127 115.6689,525.5546 115.5615,521.5163" stroke="#000000" stroke-width="0.24" fill="none" />
  <path d="M37.65488,434.9533 C37.76223,430.915 35.92956,426.0569 32.58414,422.7115 C29.23872,419.3661 24.38057,417.5334 20.34229,417.6407 C16.30402,417.5334 11.44586,419.3661 8.100443,422.7115 C4.755025,426.0569 2.922347,430.915 3.029703,434.9533 C2.922347,438.9916 4.755025,443.8498 8.100443,447.1952 C11.44586,450.5406 16.30402,452.3733 20.34229,452.2659 C24.38057,452.3733 29.23872,450.5406 32.58414,447.1952 C35.92956,443.8498 37.76223,438.9916 37.65488,434.9533 z" stroke="#000000" stroke-width="0.24" fill="none" />
  <path d="M193.4682,434.9533 C193.5755,430.915 191.7429,426.0569 188.3974,422.7115 C185.052,419.3661 180.1939,417.5334 176.1556,417.6407 C172.1173,417.5334 167.2592,419.3661 163.9137,422.7115 C160.5683,426.0569 158.7356,430.915 158.843,434.9533 C158.7356,438.9916 160.5683,443.8498 163.9137,447.1952 C167.2592,450.5406 172.1173,452.3733 176.1556,452.2659 C180.1939,452.3733 185.052,450.5406 188.3974,447.1952 C191.7429,443.8498 193.5755,438.9916 193.4682,434.9533 z" stroke="#000000" stroke-width="0.24" fill="none" />
  <path d="M20.34229,417.6407 C72.28006,421.4289 89.44301,443.6096 98.24894,459.6621" stroke="#000000" stroke-width="0.24" fill="none" />
  <path d="M176.1556,417.6407 C124.2178,421.4289 107.0549,443.6096 98.24894,459.6621" stroke="#000000" stroke-width="0.24" fill="none" />
  <path d="M20.34231,140.6393 L20.34231,235.8586 L176.1556,235.8586 L176.1556,140.6393" stroke="#000000" stroke-width="0.24" fill="none" />
  <path d="M176.1556,106.0141 C124.2178,109.8023 107.0549,131.983 98.24894,148.0355" stroke="#000000" stroke-width="0.24" fill="none" />
  <path d="M20.34229,106.0141 C72.28006,109.8023 89.44301,131.983 98.24894,148.0355" stroke="#000000" stroke-width="0.24" fill="none" />
  <path d="M193.4682,123.3267 C193.5755,119.2885 191.7429,114.4303 188.3974,111.0849 C185.052,107.7395 180.1939,105.9068 176.1556,106.0141 C172.1173,105.9068 167.2592,107.7395 163.9137,111.0849 C160.5683,114.4303 158.7356,119.2885 158.843,123.3267 C158.7356,127.365 160.5683,132.2232 163.9137,135.5686 C167.2592,138.914 172.1173,140.7467 176.1556,140.6393 C180.1939,140.7467 185.052,138.914 188.3974,135.5686 C191.7429,132.2232 193.5755,127.365 193.4682,123.3267 z" stroke="#000000" stroke-width="0.24" fill="none" />
  <path d="M37.65488,123.3267 C37.76223,119.2885 35.92956,114.4303 32.58414,111.0849 C29.23872,107.7395 24.38057,105.9068 20.34229,106.0141 C16.30402,105.9068 11.44586,107.7395 8.100443,111.0849 C4.755025,114.4303 2.922347,119.2885 3.029703,123.3267 C2.922347,127.365 4.755025,132.2232 8.100443,135.5686 C11.44586,138.914 16.30402,140.7467 20.34229,140.6393 C24.38057,140.7467 29.23872,138.914 32.58414,135.5686 C35.92956,132.2232 37.76223,127.365 37.65488,123.3267 z" stroke="#000000" stroke-width="0.24" fill="none" />
  <path d="M115.5615,209.8897 C115.6689,205.8514 113.8362,200.9932 110.4908,197.6478 C107.1454,194.3024 102.2872,192.4697 98.24894,192.5771 C94.21066,192.4697 89.35251,194.3024 86.00709,197.6478 C82.66167,200.9932 80.82899,205.8514 80.93635,209.8897 C80.82899,213.9279 82.66167,218.7861 86.00709,222.1315 C89.35251,225.4769 94.21066,227.3096 98.24894,227.2023 C102.2872,227.3096 107.1454,225.4769 110.4908,222.1315 C113.8362,218.7861 115.6689,213.9279 115.5615,209.8897 z" stroke="#000000" stroke-width="0.24" fill="none" />
  <path d="M176.1556,140.6393 C124.2178,149.2956 115.5615,166.6082 115.5615,209.8897" stroke="#000000" stroke-width="0.24" fill="none" />
  <path d="M20.34229,140.6393 C72.28006,149.2956 80.93635,166.6082 80.93635,209.8897" stroke="#000000" stroke-width="0.24" fill="none" />
  <path d="M37.6549,374.3593 L158.843,374.3593 L158.843,235.8586 L37.6549,235.8586 z" stroke="#000000" stroke-width="0.24" fill="none" />
  <path d="M453.157,235.8586 L574.3452,235.8586" stroke="#000000" stroke-width="0.24" fill="none" />
  <path d="M591.6577,140.6393 C539.72,149.2956 531.0637,166.6082 531.0637,209.8897 C531.171,213.9279 529.3383,218.7861 525.9929,222.1315 C522.6475,225.4769 517.7893,227.3096 513.751,227.2023 C509.7128,227.3096 504.8546,225.4769 501.5092,222.1315 C498.1638,218.7861 496.3311,213.9279 496.4385,209.8897 C496.4385,166.6082 487.7822,149.2956 435.8444,140.6393 L435.8444,235.8586 L453.157,235.8586 L453.157,374.3593 L574.3451,374.3593 L574.3451,235.8586 L591.6577,235.8586 z" stroke="#000000" stroke-width="0.24" fill="none" />
  <path d="M438.6032,106.2354 C434.0298,105.4242 428.7657,106.7833 425.1565,109.7071 C421.4584,112.5177 418.8867,117.3077 418.5872,121.9429 C418.1443,126.5666 419.9198,131.7052 423.1227,135.0691 C426.2198,138.5307 431.2001,140.7113 435.8444,140.6393" stroke="#000000" stroke-width="0.24" fill="none" />
  <path d="M591.6577,140.6393 C596.302,140.7113 601.2823,138.5307 604.3794,135.0691 C607.5823,131.7052 609.3578,126.5666 608.9149,121.9429 C608.6154,117.3077 606.0437,112.5177 602.3456,109.7071 C598.7365,106.7833 593.4724,105.4242 588.8989,106.2354" stroke="#000000" stroke-width="0.24" fill="none" />
  <path d="M591.6577,106.0141 C539.72,109.8023 522.557,131.983 513.751,148.0355 C504.9451,131.983 487.7822,109.8023 435.8444,106.0141" stroke="#000000" stroke-width="0.24" fill="none" />
  <path d="M375.2504,106.0141 C323.3126,109.8023 306.1496,131.983 297.3437,148.0355 C288.5378,131.983 271.3748,109.8023 219.4371,106.0141" stroke="#000000" stroke-width="0.24" fill="none" />
  <path d="M375.2504,140.6393 C379.8947,140.7113 384.8749,138.5307 387.972,135.0691 C391.175,131.7052 392.9505,126.5666 392.5075,121.9429 C392.2081,117.3077 389.6364,112.5177 385.9383,109.7071 C382.3291,106.7833 377.065,105.4242 372.4915,106.2354" stroke="#000000" stroke-width="0.24" fill="none" />
  <path d="M222.1959,106.2354 C217.6224,105.4242 212.3583,106.7833 208.7491,109.7071 C205.0511,112.5177 202.4794,117.3077 202.1799,121.9429 C201.7369,126.5666 203.5124,131.7052 206.7153,135.0691 C209.8125,138.5307 214.7928,140.7113 219.4371,140.6393" stroke="#000000" stroke-width="0.24" fill="none" />
  <path d="M357.9378,365.703 L357.9378,244.5148 C357.506,240.2554 362.3346,235.4267 366.5941,235.8586 C370.8535,236.2904 375.6822,231.4617 375.2504,227.2023 L375.2504,140.6393 C323.3126,149.2956 314.6563,166.6082 314.6563,209.8897 C314.7636,213.9279 312.931,218.7861 309.5855,222.1315 C306.2401,225.4769 301.382,227.3096 297.3437,227.2023 C293.3054,227.3096 288.4473,225.4769 285.1019,222.1315 C281.7564,218.7861 279.9238,213.9279 280.0311,209.8897 C280.0311,166.6082 271.3748,149.2956 219.4371,140.6393 L219.4371,227.2023 C219.0052,231.4617 223.8339,236.2904 228.0934,235.8586 C232.3528,235.4267 237.1815,240.2554 236.7496,244.5148 L236.7496,365.703 C236.3178,369.9625 241.1465,374.7911 245.4059,374.3593 L349.2815,374.3593 C353.541,374.7911 358.3696,369.9625 357.9378,365.703 z" stroke="#000000" stroke-width="0.24" fill="none" />
  <path d="M150.1867,685.9858 L46.31117,685.9858 C42.05169,686.4177 37.22306,681.5891 37.65488,677.3296 L37.65488,547.4852 L158.843,547.4852 L158.843,677.3296 C159.2748,681.5891 154.4462,686.4177 150.1867,685.9858 z" stroke="#000000" stroke-width="0.24" fill="none" />
</svg>