  0
SECTION
  2
HEADER
  9
$ACADVER
  1
AC1009
  9
$DWGCODEPAGE
  3
ansi_1252
  9
$INSBASE
 10
0.0
 20
0.0
 30
0.0
  9
$EXTMIN
 10
191.0
 20
66.99999999999997
 30
137.0
  9
$EXTMAX
 10
396.0
 20
147.0000000000001
 30
137.0
  9
$LIMMIN
 10
0.0
 20
0.0
  9
$LIMMAX
 10
12.0
 20
9.0
  9
$ORTHOMODE
 70
     0
  9
$REGENMODE
 70
     1
  9
$FILLMODE
 70
     1
  9
$QTEXTMODE
 70
     0
  9
$MIRRTEXT
 70
     1
  9
$DRAGMODE
 70
     2
  9
$LTSCALE
 40
1.0
  9
$OSMODE
 70
    37
  9
$ATTMODE
 70
     1
  9
$TEXTSIZE
 40
0.2
  9
$TRACEWID
 40
0.05
  9
$TEXTSTYLE
  7
STANDARD
  9
$CLAYER
  8
DEFAULT
  9
$CELTYPE
  6
BYLAYER
  9
$CECOLOR
 62
   256
  9
$DIMSCALE
 40
1.0
  9
$DIMASZ
 40
0.18
  9
$DIMEXO
 40
0.0625
  9
$DIMDLI
 40
0.38
  9
$DIMRND
 40
0.0
  9
$DIMDLE
 40
0.0
  9
$DIMEXE
 40
0.18
  9
$DIMTP
 40
0.0
  9
$DIMTM
 40
0.0
  9
$DIMTXT
 40
0.18
  9
$DIMCEN
 40
0.09
  9
$DIMTSZ
 40
0.0
  9
$DIMTOL
 70
     0
  9
$DIMLIM
 70
     0
  9
$DIMTIH
 70
     1
  9
$DIMTOH
 70
     1
  9
$DIMSE1
 70
     0
  9
$DIMSE2
 70
     0
  9
$DIMTAD
 70
     0
  9
$DIMZIN
 70
     0
  9
$DIMBLK
  1

  9
$DIMASO
 70
     1
  9
$DIMSHO
 70
     1
  9
$DIMPOST
  1

  9
$DIMAPOST
  1

  9
$DIMALT
 70
     0
  9
$DIMALTD
 70
     2
  9
$DIMALTF
 40
25.4
  9
$DIMLFAC
 40
1.0
  9
$DIMTOFL
 70
     0
  9
$DIMTVP
 40
0.0
  9
$DIMTIX
 70
     0
  9
$DIMSOXD
 70
     0
  9
$DIMSAH
 70
     0
  9
$DIMBLK1
  1

  9
$DIMBLK2
  1

  9
$DIMSTYLE
  2
STANDARD_ACAD
  9
$DIMCLRD
 70
     0
  9
$DIMCLRE
 70
     0
  9
$DIMCLRT
 70
     0
  9
$DIMTFAC
 40
1.0
  9
$DIMGAP
 40
0.09
  9
$LUNITS
 70
     2
  9
$LUPREC
 70
     3
  9
$SKETCHINC
 40
0.1
  9
$FILLETRAD
 40
0.0
  9
$AUNITS
 70
     0
  9
$AUPREC
 70
     0
  9
$MENU
  1
.
  9
$ELEVATION
 40
0.0
  9
$PELEVATION
 40
0.0
  9
$THICKNESS
 40
0.0
  9
$LIMCHECK
 70
     0
  9
$CHAMFERA
 40
0.0
  9
$CHAMFERB
 40
0.0
  9
$SKPOLY
 70
     0
  9
$TDCREATE
 40
2460815.792852176
  9
$TDUPDATE
 40
2460815.792870509
  9
$TDINDWG
 40
0.0000000116
  9
$TDUSRTIMER
 40
0.0000000116
  9
$USRTIMER
 70
     1
  9
$ANGBASE
 50
0.0
  9
$ANGDIR
 70
     0
  9
$PDMODE
 70
     0
  9
$PDSIZE
 40
0.0
  9
$PLINEWID
 40
0.0
  9
$COORDS
 70
     1
  9
$SPLFRAME
 70
     0
  9
$SPLINETYPE
 70
     6
  9
$SPLINESEGS
 70
     8
  9
$ATTDIA
 70
     0
  9
$ATTREQ
 70
     1
  9
$HANDLING
 70
     1
  9
$HANDSEED
  5
515
  9
$SURFTAB1
 70
     6
  9
$SURFTAB2
 70
     6
  9
$SURFTYPE
 70
     6
  9
$SURFU
 70
     6
  9
$SURFV
 70
     6
  9
$UCSNAME
  2

  9
$UCSORG
 10
0.0
 20
0.0
 30
0.0
  9
$UCSXDIR
 10
1.0
 20
0.0
 30
0.0
  9
$UCSYDIR
 10
0.0
 20
1.0
 30
0.0
  9
$PUCSNAME
  2

  9
$PUCSORG
 10
0.0
 20
0.0
 30
0.0
  9
$PUCSXDIR
 10
1.0
 20
0.0
 30
0.0
  9
$PUCSYDIR
 10
0.0
 20
1.0
 30
0.0
  9
$USERI1
 70
     0
  9
$USERI2
 70
     0
  9
$USERI3
 70
     0
  9
$USERI4
 70
     0
  9
$USERI5
 70
     0
  9
$USERR1
 40
0.0
  9
$USERR2
 40
0.0
  9
$USERR3
 40
0.0
  9
$USERR4
 40
0.0
  9
$USERR5
 40
0.0
  9
$WORLDVIEW
 70
     1
  9
$SHADEDGE
 70
     3
  9
$SHADEDIF
 70
    70
  9
$TILEMODE
 70
     1
  9
$MAXACTVP
 70
    64
  9
$PLIMCHECK
 70
     0
  9
$PEXTMIN
 10
1.000000000000000E+20
 20
1.000000000000000E+20
 30
1.000000000000000E+20
  9
$PEXTMAX
 10
-1.000000000000000E+20
 20
-1.000000000000000E+20
 30
-1.000000000000000E+20
  9
$PLIMMIN
 10
0.0
 20
0.0
  9
$PLIMMAX
 10
12.0
 20
9.0
  9
$UNITMODE
 70
     0
  9
$VISRETAIN
 70
     1
  9
$PLINEGEN
 70
     0
  9
$PSLTSCALE
 70
     1
  0
ENDSEC
  0
SECTION
  2
TABLES
  0
TABLE
  2
VPORT
 70
     1
  0
VPORT
  2
*ACTIVE
 70
     0
 10
0.0
 20
0.0
 11
1.0
 21
1.0
 12
10.42990654205607
 22
4.5
 13
0.0
 23
0.0
 14
0.5
 24
0.5
 15
0.5
 25
0.5
 16
0.0
 26
0.0
 36
1.0
 17
0.0
 27
0.0
 37
0.0
 40
9.0
 41
1.972972972850329
 42
50.0
 43
0.0
 44
0.0
 50
0.0
 51
0.0
 71
     0
 72
   100
 73
     1
 74
     3
 75
     0
 76
     0
 77
     0
 78
     0
  0
ENDTAB
  0
TABLE
  2
LTYPE
 70
     1
  0
LTYPE
  2
CONTINUOUS
 70
     0
  3
Solid line
 72
    65
 73
     0
 40
0.0
  0
ENDTAB
  0
TABLE
  2
LAYER
 70
     2
  0
LAYER
  2
0
 70
     0
 62
     7
  6
CONTINUOUS
  0
LAYER
  2
DEFAULT
 70
     0
 62
     7
  6
CONTINUOUS
  0
ENDTAB
  0
TABLE
  2
STYLE
 70
     1
  0
STYLE
  2
STANDARD
 70
     0
 40
0.0
 41
1.0
 50
0.0
 71
     0
 42
0.2
  3
txt
  4

  0
ENDTAB
  0
TABLE
  2
VIEW
 70
     0
  0
ENDTAB
  0
TABLE
  2
UCS
 70
     0
  0
ENDTAB
  0
TABLE
  2
APPID
 70
     2
  0
APPID
  2
ACAD
 70
     0
  0
APPID
  2
RHINO
 70
     0
  0
ENDTAB
  0
TABLE
  2
DIMSTYLE
 70
     1
  0
DIMSTYLE
  2
STANDARD_ACAD
 70
     0
  3

  4

  5

  6

  7

 40
1.0
 41
0.18
 42
0.0625
 43
0.38
 44
0.18
 45
0.0
 46
0.0
 47
0.0
 48
0.0
140
0.18
141
0.09
142
0.0
143
25.4
144
1.0
145
0.0
146
1.0
147
0.09
 71
     0
 72
     0
 73
     1
 74
     1
 75
     0
 76
     0
 77
     0
 78
     0
170
     0
171
     2
172
     0
173
     0
174
     0
175
     0
176
     0
177
     0
178
     0
  0
ENDTAB
  0
ENDSEC
  0
SECTION
  2
BLOCKS
  0
BLOCK
  8
0
  2
$MODEL_SPACE
 70
     0
 10
0.0
 20
0.0
 30
0.0
  3
$MODEL_SPACE
  1

  0
ENDBLK
  5
21
  8
0
  0
BLOCK
 67
     1
  8
0
  2
$PAPER_SPACE
 70
     0
 10
0.0
 20
0.0
 30
0.0
  3
$PAPER_SPACE
  1

  0
ENDBLK
  5
1D
 67
     1
  8
0
  0
ENDSEC
  0
SECTION
  2
ENTITIES
  0
POLYLINE
  5
60
  8
DEFAULT
 66
     1
 10
0.0
 20
0.0
 30
137.0
 70
     1
  0
VERTEX
  5
61
  8
DEFAULT
 10
213.0000000000001
 20
109.5
 30
137.0
  0
VERTEX
  5
62
  8
DEFAULT
 10
213.0
 20
93.0
 30
137.0
  0
VERTEX
  5
63
  8
DEFAULT
 10
216.0
 20
93.0
 30
137.0
  0
VERTEX
  5
64
  8
DEFAULT
 10
216.0
 20
109.5
 30
137.0
  0
VERTEX
  5
65
  8
DEFAULT
 10
237.0
 20
109.5
 30
137.0
  0
VERTEX
  5
66
  8
DEFAULT
 10
237.0
 20
93.0
 30
137.0
  0
VERTEX
  5
67
  8
DEFAULT
 10
240.0
 20
93.0
 30
137.0
  0
VERTEX
  5
68
  8
DEFAULT
 10
239.9999999999999
 20
109.5
 30
137.0
  0
VERTEX
  5
69
  8
DEFAULT
 10
240.3735809326171
 20
109.4985809326172
 30
137.0
  0
VERTEX
  5
6A
  8
DEFAULT
 10
240.7390136718749
 20
109.489013671875
 30
137.0
  0
VERTEX
  5
6B
  8
DEFAULT
 10
240.9163999557495
 20
109.4788999557495
 30
137.0
  0
VERTEX
  5
6C
  8
DEFAULT
 10
241.0891571044921
 20
109.4641571044922
 30
137.0
  0
VERTEX
  5
6D
  8
DEFAULT
 10
241.1735717654228
 20
109.4548217654228
 30
137.0
  0
VERTEX
  5
6E
  8
DEFAULT
 10
241.2565641403198
 20
109.4440641403198
 30
137.0
  0
VERTEX
  5
6F
  8
DEFAULT
 10
241.3380548357963
 20
109.4318048357964
 30
137.0
  0
VERTEX
  5
70
  8
DEFAULT
 10
241.4179687499999
 20
109.41796875
 30
137.0
  0
VERTEX
  5
71
  8
DEFAULT
 10
241.4962350726127
 20
109.4024850726128
 30
137.0
  0
VERTEX
  5
72
  8
DEFAULT
 10
241.572787284851
 20
109.3852872848511
 30
137.0
  0
VERTEX
  5
73
  8
DEFAULT
 10
241.6475631594657
 20
109.3663131594658
 30
137.0
  0
VERTEX
  5
74
  8
DEFAULT
 10
241.7205047607421
 20
109.3455047607422
 30
137.0
  0
VERTEX
  5
75
  8
DEFAULT
 10
241.7915584444999
 20
109.3228084445
 30
137.0
  0
VERTEX
  5
76
  8
DEFAULT
 10
241.8606748580932
 20
109.2981748580933
 30
137.0
  0
VERTEX
  5
77
  8
DEFAULT
 10
241.8944923393428
 20
109.2851173393428
 30
137.0
  0
VERTEX
  5
78
  8
DEFAULT
 10
241.9278089404106
 20
109.2715589404106
 30
137.0
  0
VERTEX
  5
79
  8
DEFAULT
 10
241.9606196992099
 20
109.25749469921
 30
137.0
  0
VERTEX
  5
7A
  8
DEFAULT
 10
241.9929199218749
 20
109.242919921875
 30
137.0
  0
VERTEX
  5
7B
  8
DEFAULT
 10
242.0247051827609
 20
109.227830182761
 30
137.0
  0
VERTEX
  5
7C
  8
DEFAULT
 10
242.0559713244438
 20
109.2122213244438
 30
137.0
  0
VERTEX
  5
7D
  8
DEFAULT
 10
242.0867144577205
 20
109.1960894577205
 30
137.0
  0
VERTEX
  5
7E
  8
DEFAULT
 10
242.1169309616088
 20
109.1794309616089
 30
137.0
  0
VERTEX
  5
7F
  8
DEFAULT
 10
242.1466174833476
 20
109.1622424833477
 30
137.0
  0
VERTEX
  5
80
  8
DEFAULT
 10
242.1757709383964
 20
109.1445209383965
 30
137.0
  0
VERTEX
  5
81
  8
DEFAULT
 10
242.2043885104358
 20
109.1262635104358
 30
137.0
  0
VERTEX
  5
82
  8
DEFAULT
 10
242.2324676513671
 20
109.1074676513672
 30
137.0
  0
VERTEX
  5
83
  8
DEFAULT
 10
242.2600060813128
 20
109.0881310813129
 30
137.0
  0
VERTEX
  5
84
  8
DEFAULT
 10
242.2870017886161
 20
109.0682517886162
 30
137.0
  0
VERTEX
  5
85
  8
DEFAULT
 10
242.3134530298411
 20
109.0478280298412
 30
137.0
  0
VERTEX
  5
86
  8
DEFAULT
 10
242.3393583297729
 20
109.026858329773
 30
137.0
  0
VERTEX
  5
87
  8
DEFAULT
 10
242.3647164814174
 20
109.0053414814174
 30
137.0
  0
VERTEX
  5
88
  8
DEFAULT
 10
242.3895265460014
 20
108.9832765460014
 30
137.0
  0
VERTEX
  5
89
  8
DEFAULT
 10
242.4137878529727
 20
108.9606628529728
 30
137.0
  0
VERTEX
  5
8A
  8
DEFAULT
 10
242.4374999999999
 20
108.9375
 30
137.0
  0
VERTEX
  5
8B
  8
DEFAULT
 10
242.4606628529727
 20
108.9137878529728
 30
137.0
  0
VERTEX
  5
8C
  8
DEFAULT
 10
242.4832765460014
 20
108.8895265460014
 30
137.0
  0
VERTEX
  5
8D
  8
DEFAULT
 10
242.5053414814174
 20
108.8647164814174
 30
137.0
  0
VERTEX
  5
8E
  8
DEFAULT
 10
242.5268583297729
 20
108.839358329773
 30
137.0
  0
VERTEX
  5
8F
  8
DEFAULT
 10
242.5478280298411
 20
108.8134530298412
 30
137.0
  0
VERTEX
  5
90
  8
DEFAULT
 10
242.5682517886161
 20
108.7870017886162
 30
137.0
  0
VERTEX
  5
91
  8
DEFAULT
 10
242.5881310813128
 20
108.7600060813129
 30
137.0
  0
VERTEX
  5
92
  8
DEFAULT
 10
242.6074676513671
 20
108.7324676513672
 30
137.0
  0
VERTEX
  5
93
  8
DEFAULT
 10
242.6262635104358
 20
108.7043885104358
 30
137.0
  0
VERTEX
  5
94
  8
DEFAULT
 10
242.6445209383964
 20
108.6757709383965
 30
137.0
  0
VERTEX
  5
95
  8
DEFAULT
 10
242.6622424833476
 20
108.6466174833477
 30
137.0
  0
VERTEX
  5
96
  8
DEFAULT
 10
242.6794309616088
 20
108.6169309616089
 30
137.0
  0
VERTEX
  5
97
  8
DEFAULT
 10
242.6960894577205
 20
108.5867144577205
 30
137.0
  0
VERTEX
  5
98
  8
DEFAULT
 10
242.7122213244438
 20
108.5559713244438
 30
137.0
  0
VERTEX
  5
99
  8
DEFAULT
 10
242.7278301827609
 20
108.524705182761
 30
137.0
  0
VERTEX
  5
9A
  8
DEFAULT
 10
242.7429199218749
 20
108.492919921875
 30
137.0
  0
VERTEX
  5
9B
  8
DEFAULT
 10
242.7574946992099
 20
108.4606196992099
 30
137.0
  0
VERTEX
  5
9C
  8
DEFAULT
 10
242.7715589404106
 20
108.4278089404106
 30
137.0
  0
VERTEX
  5
9D
  8
DEFAULT
 10
242.7851173393428
 20
108.3944923393428
 30
137.0
  0
VERTEX
  5
9E
  8
DEFAULT
 10
242.7981748580932
 20
108.3606748580933
 30
137.0
  0
VERTEX
  5
9F
  8
DEFAULT
 10
242.8228084444999
 20
108.2915584445
 30
137.0
  0
VERTEX
  5
A0
  8
DEFAULT
 10
242.8455047607421
 20
108.2205047607422
 30
137.0
  0
VERTEX
  5
A1
  8
DEFAULT
 10
242.8663131594657
 20
108.1475631594658
 30
137.0
  0
VERTEX
  5
A2
  8
DEFAULT
 10
242.885287284851
 20
108.0727872848511
 30
137.0
  0
VERTEX
  5
A3
  8
DEFAULT
 10
242.9024850726127
 20
107.9962350726128
 30
137.0
  0
VERTEX
  5
A4
  8
DEFAULT
 10
242.9179687499999
 20
107.91796875
 30
137.0
  0
VERTEX
  5
A5
  8
DEFAULT
 10
242.9318048357963
 20
107.8380548357964
 30
137.0
  0
VERTEX
  5
A6
  8
DEFAULT
 10
242.9440641403198
 20
107.7565641403198
 30
137.0
  0
VERTEX
  5
A7
  8
DEFAULT
 10
242.9548217654228
 20
107.6735717654228
 30
137.0
  0
VERTEX
  5
A8
  8
DEFAULT
 10
242.9641571044921
 20
107.5891571044922
 30
137.0
  0
VERTEX
  5
A9
  8
DEFAULT
 10
242.9788999557495
 20
107.4163999557495
 30
137.0
  0
VERTEX
  5
AA
  8
DEFAULT
 10
242.9890136718749
 20
107.239013671875
 30
137.0
  0
VERTEX
  5
AB
  8
DEFAULT
 10
242.9985809326171
 20
106.8735809326172
 30
137.0
  0
VERTEX
  5
AC
  8
DEFAULT
 10
242.9999999999999
 20
106.5
 30
137.0
  0
VERTEX
  5
AD
  8
DEFAULT
 10
243.0000000000001
 20
78.5
 30
137.0
  0
VERTEX
  5
AE
  8
DEFAULT
 10
242.9985809326172
 20
78.12641906738278
 30
137.0
  0
VERTEX
  5
AF
  8
DEFAULT
 10
242.9890136718751
 20
77.76098632812494
 30
137.0
  0
VERTEX
  5
B0
  8
DEFAULT
 10
242.9788999557496
 20
77.5836000442504
 30
137.0
  0
VERTEX
  5
B1
  8
DEFAULT
 10
242.9641571044922
 20
77.41084289550773
 30
137.0
  0
VERTEX
  5
B2
  8
DEFAULT
 10
242.9548217654229
 20
77.3264282345771
 30
137.0
  0
VERTEX
  5
B3
  8
DEFAULT
 10
242.9440641403199
 20
77.24343585968009
 30
137.0
  0
VERTEX
  5
B4
  8
DEFAULT
 10
242.9318048357964
 20
77.16194516420356
 30
137.0
  0
VERTEX
  5
B5
  8
DEFAULT
 10
242.9179687500001
 20
77.08203124999991
 30
137.0
  0
VERTEX
  5
B6
  8
DEFAULT
 10
242.9024850726128
 20
77.00376492738715
 30
137.0
  0
VERTEX
  5
B7
  8
DEFAULT
 10
242.8852872848511
 20
76.92721271514884
 30
137.0
  0
VERTEX
  5
B8
  8
DEFAULT
 10
242.8663131594658
 20
76.85243684053412
 30
137.0
  0
VERTEX
  5
B9
  8
DEFAULT
 10
242.8455047607422
 20
76.77949523925771
 30
137.0
  0
VERTEX
  5
BA
  8
DEFAULT
 10
242.8228084445
 20
76.70844155549993
 30
137.0
  0
VERTEX
  5
BB
  8
DEFAULT
 10
242.7981748580933
 20
76.63932514190664
 30
137.0
  0
VERTEX
  5
BC
  8
DEFAULT
 10
242.7851173393429
 20
76.60550766065707
 30
137.0
  0
VERTEX
  5
BD
  8
DEFAULT
 10
242.7715589404107
 20
76.5721910595893
 30
137.0
  0
VERTEX
  5
BE
  8
DEFAULT
 10
242.75749469921
 20
76.53938030078999
 30
137.0
  0
VERTEX
  5
BF
  8
DEFAULT
 10
242.7429199218751
 20
76.5070800781249
 30
137.0
  0
VERTEX
  5
C0
  8
DEFAULT
 10
242.727830182761
 20
76.47529481723895
 30
137.0
  0
VERTEX
  5
C1
  8
DEFAULT
 10
242.7122213244439
 20
76.44402867555608
 30
137.0
  0
VERTEX
  5
C2
  8
DEFAULT
 10
242.6960894577206
 20
76.4132855422794
 30
137.0
  0
VERTEX
  5
C3
  8
DEFAULT
 10
242.6794309616089
 20
76.38306903839103
 30
137.0
  0
VERTEX
  5
C4
  8
DEFAULT
 10
242.6622424833477
 20
76.35338251665225
 30
137.0
  0
VERTEX
  5
C5
  8
DEFAULT
 10
242.6445209383965
 20
76.32422906160346
 30
137.0
  0
VERTEX
  5
C6
  8
DEFAULT
 10
242.6262635104359
 20
76.2956114895641
 30
137.0
  0
VERTEX
  5
C7
  8
DEFAULT
 10
242.6074676513672
 20
76.26753234863273
 30
137.0
  0
VERTEX
  5
C8
  8
DEFAULT
 10
242.588131081313
 20
76.23999391868702
 30
137.0
  0
VERTEX
  5
C9
  8
DEFAULT
 10
242.5682517886162
 20
76.21299821138373
 30
137.0
  0
VERTEX
  5
CA
  8
DEFAULT
 10
242.5478280298412
 20
76.18654697015873
 30
137.0
  0
VERTEX
  5
CB
  8
DEFAULT
 10
242.526858329773
 20
76.16064167022697
 30
137.0
  0
VERTEX
  5
CC
  8
DEFAULT
 10
242.5053414814174
 20
76.1352835185825
 30
137.0
  0
VERTEX
  5
CD
  8
DEFAULT
 10
242.4832765460014
 20
76.11047345399848
 30
137.0
  0
VERTEX
  5
CE
  8
DEFAULT
 10
242.4606628529727
 20
76.08621214702717
 30
137.0
  0
VERTEX
  5
CF
  8
DEFAULT
 10
242.4375
 20
76.06249999999991
 30
137.0
  0
VERTEX
  5
D0
  8
DEFAULT
 10
242.4137878529727
 20
76.03933714702717
 30
137.0
  0
VERTEX
  5
D1
  8
DEFAULT
 10
242.3895265460014
 20
76.0167234539985
 30
137.0
  0
VERTEX
  5
D2
  8
DEFAULT
 10
242.3647164814174
 20
75.99465851858253
 30
137.0
  0
VERTEX
  5
D3
  8
DEFAULT
 10
242.3393583297729
 20
75.97314167022698
 30
137.0
  0
VERTEX
  5
D4
  8
DEFAULT
 10
242.3134530298412
 20
75.95217197015874
 30
137.0
  0
VERTEX
  5
D5
  8
DEFAULT
 10
242.2870017886162
 20
75.93174821138375
 30
137.0
  0
VERTEX
  5
D6
  8
DEFAULT
 10
242.2600060813129
 20
75.91186891868705
 30
137.0
  0
VERTEX
  5
D7
  8
DEFAULT
 10
242.2324676513672
 20
75.89253234863276
 30
137.0
  0
VERTEX
  5
D8
  8
DEFAULT
 10
242.2043885104358
 20
75.87373648956412
 30
137.0
  0
VERTEX
  5
D9
  8
DEFAULT
 10
242.1757709383965
 20
75.85547906160349
 30
137.0
  0
VERTEX
  5
DA
  8
DEFAULT
 10
242.1466174833477
 20
75.83775751665229
 30
137.0
  0
VERTEX
  5
DB
  8
DEFAULT
 10
242.1169309616089
 20
75.82056903839106
 30
137.0
  0
VERTEX
  5
DC
  8
DEFAULT
 10
242.0867144577205
 20
75.80391054227943
 30
137.0
  0
VERTEX
  5
DD
  8
DEFAULT
 10
242.0559713244438
 20
75.78777867555613
 30
137.0
  0
VERTEX
  5
DE
  8
DEFAULT
 10
242.024705182761
 20
75.77216981723899
 30
137.0
  0
VERTEX
  5
DF
  8
DEFAULT
 10
241.992919921875
 20
75.75708007812494
 30
137.0
  0
VERTEX
  5
E0
  8
DEFAULT
 10
241.9606196992099
 20
75.74250530079001
 30
137.0
  0
VERTEX
  5
E1
  8
DEFAULT
 10
241.9278089404106
 20
75.72844105958934
 30
137.0
  0
VERTEX
  5
E2
  8
DEFAULT
 10
241.8944923393428
 20
75.71488266065712
 30
137.0
  0
VERTEX
  5
E3
  8
DEFAULT
 10
241.8606748580933
 20
75.7018251419067
 30
137.0
  0
VERTEX
  5
E4
  8
DEFAULT
 10
241.7915584445
 20
75.67719155549997
 30
137.0
  0
VERTEX
  5
E5
  8
DEFAULT
 10
241.7205047607422
 20
75.65449523925777
 30
137.0
  0
VERTEX
  5
E6
  8
DEFAULT
 10
241.6475631594657
 20
75.63368684053418
 30
137.0
  0
VERTEX
  5
E7
  8
DEFAULT
 10
241.572787284851
 20
75.6147127151489
 30
137.0
  0
VERTEX
  5
E8
  8
DEFAULT
 10
241.4962350726127
 20
75.59751492738721
 30
137.0
  0
VERTEX
  5
E9
  8
DEFAULT
 10
241.4179687499999
 20
75.58203124999999
 30
137.0
  0
VERTEX
  5
EA
  8
DEFAULT
 10
241.3380548357963
 20
75.56819516420364
 30
137.0
  0
VERTEX
  5
EB
  8
DEFAULT
 10
241.2565641403198
 20
75.55593585968018
 30
137.0
  0
VERTEX
  5
EC
  8
DEFAULT
 10
241.1735717654228
 20
75.5451782345772
 30
137.0
  0
VERTEX
  5
ED
  8
DEFAULT
 10
241.0891571044921
 20
75.53584289550781
 30
137.0
  0
VERTEX
  5
EE
  8
DEFAULT
 10
240.9163999557495
 20
75.52110004425049
 30
137.0
  0
VERTEX
  5
EF
  8
DEFAULT
 10
240.7390136718749
 20
75.510986328125
 30
137.0
  0
VERTEX
  5
F0
  8
DEFAULT
 10
240.3735809326171
 20
75.50141906738281
 30
137.0
  0
VERTEX
  5
F1
  8
DEFAULT
 10
239.9999999999999
 20
75.5
 30
137.0
  0
VERTEX
  5
F2
  8
DEFAULT
 10
213.0
 20
75.5
 30
137.0
  0
VERTEX
  5
F3
  8
DEFAULT
 10
212.6264190673828
 20
75.50141906738281
 30
137.0
  0
VERTEX
  5
F4
  8
DEFAULT
 10
212.260986328125
 20
75.510986328125
 30
137.0
  0
VERTEX
  5
F5
  8
DEFAULT
 10
212.0836000442505
 20
75.52110004425049
 30
137.0
  0
VERTEX
  5
F6
  8
DEFAULT
 10
211.9108428955078
 20
75.53584289550781
 30
137.0
  0
VERTEX
  5
F7
  8
DEFAULT
 10
211.8264282345772
 20
75.5451782345772
 30
137.0
  0
VERTEX
  5
F8
  8
DEFAULT
 10
211.7434358596802
 20
75.55593585968018
 30
137.0
  0
VERTEX
  5
F9
  8
DEFAULT
 10
211.6619451642036
 20
75.56819516420364
 30
137.0
  0
VERTEX
  5
FA
  8
DEFAULT
 10
211.58203125
 20
75.58203125
 30
137.0
  0
VERTEX
  5
FB
  8
DEFAULT
 10
211.5037649273872
 20
75.59751492738724
 30
137.0
  0
VERTEX
  5
FC
  8
DEFAULT
 10
211.4272127151489
 20
75.61471271514893
 30
137.0
  0
VERTEX
  5
FD
  8
DEFAULT
 10
211.3524368405342
 20
75.63368684053421
 30
137.0
  0
VERTEX
  5
FE
  8
DEFAULT
 10
211.2794952392578
 20
75.6544952392578
 30
137.0
  0
VERTEX
  5
FF
  8
DEFAULT
 10
211.2084415555
 20
75.6771915555
 30
137.0
  0
VERTEX
  5
100
  8
DEFAULT
 10
211.1393251419067
 20
75.70182514190672
 30
137.0
  0
VERTEX
  5
101
  8
DEFAULT
 10
211.1055076606572
 20
75.71488266065715
 30
137.0
  0
VERTEX
  5
102
  8
DEFAULT
 10
211.0721910595894
 20
75.72844105958937
 30
137.0
  0
VERTEX
  5
103
  8
DEFAULT
 10
211.0393803007901
 20
75.74250530079004
 30
137.0
  0
VERTEX
  5
104
  8
DEFAULT
 10
211.007080078125
 20
75.75708007812497
 30
137.0
  0
VERTEX
  5
105
  8
DEFAULT
 10
210.975294817239
 20
75.77216981723902
 30
137.0
  0
VERTEX
  5
106
  8
DEFAULT
 10
210.9440286755562
 20
75.78777867555615
 30
137.0
  0
VERTEX
  5
107
  8
DEFAULT
 10
210.9132855422795
 20
75.80391054227945
 30
137.0
  0
VERTEX
  5
108
  8
DEFAULT
 10
210.8830690383911
 20
75.82056903839108
 30
137.0
  0
VERTEX
  5
109
  8
DEFAULT
 10
210.8533825166523
 20
75.83775751665232
 30
137.0
  0
VERTEX
  5
10A
  8
DEFAULT
 10
210.8242290616035
 20
75.85547906160352
 30
137.0
  0
VERTEX
  5
10B
  8
DEFAULT
 10
210.7956114895642
 20
75.87373648956415
 30
137.0
  0
VERTEX
  5
10C
  8
DEFAULT
 10
210.7675323486328
 20
75.89253234863278
 30
137.0
  0
VERTEX
  5
10D
  8
DEFAULT
 10
210.7399939186871
 20
75.91186891868708
 30
137.0
  0
VERTEX
  5
10E
  8
DEFAULT
 10
210.7129982113838
 20
75.93174821138378
 30
137.0
  0
VERTEX
  5
10F
  8
DEFAULT
 10
210.6865469701588
 20
75.95217197015877
 30
137.0
  0
VERTEX
  5
110
  8
DEFAULT
 10
210.6606416702271
 20
75.973141670227
 30
137.0
  0
VERTEX
  5
111
  8
DEFAULT
 10
210.6352835185826
 20
75.99465851858253
 30
137.0
  0
VERTEX
  5
112
  8
DEFAULT
 10
210.6104734539986
 20
76.01672345399851
 30
137.0
  0
VERTEX
  5
113
  8
DEFAULT
 10
210.5862121470273
 20
76.0393371470272
 30
137.0
  0
VERTEX
  5
114
  8
DEFAULT
 10
210.5625
 20
76.06249999999994
 30
137.0
  0
VERTEX
  5
115
  8
DEFAULT
 10
210.5393371470273
 20
76.0862121470272
 30
137.0
  0
VERTEX
  5
116
  8
DEFAULT
 10
210.5167234539986
 20
76.11047345399851
 30
137.0
  0
VERTEX
  5
117
  8
DEFAULT
 10
210.4946585185826
 20
76.13528351858253
 30
137.0
  0
VERTEX
  5
118
  8
DEFAULT
 10
210.4731416702271
 20
76.160641670227
 30
137.0
  0
VERTEX
  5
119
  8
DEFAULT
 10
210.4521719701588
 20
76.18654697015876
 30
137.0
  0
VERTEX
  5
11A
  8
DEFAULT
 10
210.4317482113838
 20
76.21299821138376
 30
137.0
  0
VERTEX
  5
11B
  8
DEFAULT
 10
210.4118689186871
 20
76.23999391868705
 30
137.0
  0
VERTEX
  5
11C
  8
DEFAULT
 10
210.3925323486328
 20
76.26753234863276
 30
137.0
  0
VERTEX
  5
11D
  8
DEFAULT
 10
210.3737364895642
 20
76.29561148956412
 30
137.0
  0
VERTEX
  5
11E
  8
DEFAULT
 10
210.3554790616035
 20
76.32422906160349
 30
137.0
  0
VERTEX
  5
11F
  8
DEFAULT
 10
210.3377575166523
 20
76.35338251665227
 30
137.0
  0
VERTEX
  5
120
  8
DEFAULT
 10
210.3205690383911
 20
76.38306903839106
 30
137.0
  0
VERTEX
  5
121
  8
DEFAULT
 10
210.3039105422795
 20
76.41328554227943
 30
137.0
  0
VERTEX
  5
122
  8
DEFAULT
 10
210.2877786755562
 20
76.44402867555611
 30
137.0
  0
VERTEX
  5
123
  8
DEFAULT
 10
210.272169817239
 20
76.47529481723898
 30
137.0
  0
VERTEX
  5
124
  8
DEFAULT
 10
210.257080078125
 20
76.50708007812493
 30
137.0
  0
VERTEX
  5
125
  8
DEFAULT
 10
210.2425053007901
 20
76.53938030079001
 30
137.0
  0
VERTEX
  5
126
  8
DEFAULT
 10
210.2284410595894
 20
76.57219105958933
 30
137.0
  0
VERTEX
  5
127
  8
DEFAULT
 10
210.2148826606572
 20
76.6055076606571
 30
137.0
  0
VERTEX
  5
128
  8
DEFAULT
 10
210.2018251419067
 20
76.63932514190667
 30
137.0
  0
VERTEX
  5
129
  8
DEFAULT
 10
210.1771915555
 20
76.70844155549996
 30
137.0
  0
VERTEX
  5
12A
  8
DEFAULT
 10
210.1544952392578
 20
76.77949523925774
 30
137.0
  0
VERTEX
  5
12B
  8
DEFAULT
 10
210.1336868405342
 20
76.85243684053415
 30
137.0
  0
VERTEX
  5
12C
  8
DEFAULT
 10
210.1147127151489
 20
76.92721271514887
 30
137.0
  0
VERTEX
  5
12D
  8
DEFAULT
 10
210.0975149273872
 20
77.00376492738718
 30
137.0
  0
VERTEX
  5
12E
  8
DEFAULT
 10
210.08203125
 20
77.08203124999994
 30
137.0
  0
VERTEX
  5
12F
  8
DEFAULT
 10
210.0681951642036
 20
77.16194516420359
 30
137.0
  0
VERTEX
  5
130
  8
DEFAULT
 10
210.0559358596802
 20
77.24343585968012
 30
137.0
  0
VERTEX
  5
131
  8
DEFAULT
 10
210.0451782345772
 20
77.32642823457712
 30
137.0
  0
VERTEX
  5
132
  8
DEFAULT
 10
210.0358428955078
 20
77.41084289550776
 30
137.0
  0
VERTEX
  5
133
  8
DEFAULT
 10
210.0211000442505
 20
77.58360004425043
 30
137.0
  0
VERTEX
  5
134
  8
DEFAULT
 10
210.010986328125
 20
77.76098632812494
 30
137.0
  0
VERTEX
  5
135
  8
DEFAULT
 10
210.0014190673828
 20
78.12641906738276
 30
137.0
  0
VERTEX
  5
136
  8
DEFAULT
 10
210.0
 20
78.49999999999997
 30
137.0
  0
VERTEX
  5
137
  8
DEFAULT
 10
210.0
 20
106.5
 30
137.0
  0
VERTEX
  5
138
  8
DEFAULT
 10
210.0014190673828
 20
106.8735809326172
 30
137.0
  0
VERTEX
  5
139
  8
DEFAULT
 10
210.010986328125
 20
107.239013671875
 30
137.0
  0
VERTEX
  5
13A
  8
DEFAULT
 10
210.0211000442505
 20
107.4163999557496
 30
137.0
  0
VERTEX
  5
13B
  8
DEFAULT
 10
210.0358428955078
 20
107.5891571044922
 30
137.0
  0
VERTEX
  5
13C
  8
DEFAULT
 10
210.0451782345771
 20
107.6735717654229
 30
137.0
  0
VERTEX
  5
13D
  8
DEFAULT
 10
210.0559358596802
 20
107.7565641403199
 30
137.0
  0
VERTEX
  5
13E
  8
DEFAULT
 10
210.0681951642036
 20
107.8380548357964
 30
137.0
  0
VERTEX
  5
13F
  8
DEFAULT
 10
210.08203125
 20
107.9179687500001
 30
137.0
  0
VERTEX
  5
140
  8
DEFAULT
 10
210.0975149273872
 20
107.9962350726128
 30
137.0
  0
VERTEX
  5
141
  8
DEFAULT
 10
210.1147127151489
 20
108.0727872848511
 30
137.0
  0
VERTEX
  5
142
  8
DEFAULT
 10
210.1336868405342
 20
108.1475631594658
 30
137.0
  0
VERTEX
  5
143
  8
DEFAULT
 10
210.1544952392578
 20
108.2205047607423
 30
137.0
  0
VERTEX
  5
144
  8
DEFAULT
 10
210.1771915555
 20
108.2915584445
 30
137.0
  0
VERTEX
  5
145
  8
DEFAULT
 10
210.2018251419067
 20
108.3606748580933
 30
137.0
  0
VERTEX
  5
146
  8
DEFAULT
 10
210.2148826606572
 20
108.3944923393429
 30
137.0
  0
VERTEX
  5
147
  8
DEFAULT
 10
210.2284410595894
 20
108.4278089404107
 30
137.0
  0
VERTEX
  5
148
  8
DEFAULT
 10
210.2425053007901
 20
108.46061969921
 30
137.0
  0
VERTEX
  5
149
  8
DEFAULT
 10
210.257080078125
 20
108.4929199218751
 30
137.0
  0
VERTEX
  5
14A
  8
DEFAULT
 10
210.272169817239
 20
108.524705182761
 30
137.0
  0
VERTEX
  5
14B
  8
DEFAULT
 10
210.2877786755562
 20
108.5559713244439
 30
137.0
  0
VERTEX
  5
14C
  8
DEFAULT
 10
210.3039105422795
 20
108.5867144577206
 30
137.0
  0
VERTEX
  5
14D
  8
DEFAULT
 10
210.3205690383911
 20
108.6169309616089
 30
137.0
  0
VERTEX
  5
14E
  8
DEFAULT
 10
210.3377575166523
 20
108.6466174833477
 30
137.0
  0
VERTEX
  5
14F
  8
DEFAULT
 10
210.3554790616035
 20
108.6757709383965
 30
137.0
  0
VERTEX
  5
150
  8
DEFAULT
 10
210.3737364895642
 20
108.7043885104359
 30
137.0
  0
VERTEX
  5
151
  8
DEFAULT
 10
210.3925323486328
 20
108.7324676513672
 30
137.0
  0
VERTEX
  5
152
  8
DEFAULT
 10
210.4118689186871
 20
108.760006081313
 30
137.0
  0
VERTEX
  5
153
  8
DEFAULT
 10
210.4317482113838
 20
108.7870017886162
 30
137.0
  0
VERTEX
  5
154
  8
DEFAULT
 10
210.4521719701588
 20
108.8134530298412
 30
137.0
  0
VERTEX
  5
155
  8
DEFAULT
 10
210.4731416702271
 20
108.839358329773
 30
137.0
  0
VERTEX
  5
156
  8
DEFAULT
 10
210.4946585185826
 20
108.8647164814175
 30
137.0
  0
VERTEX
  5
157
  8
DEFAULT
 10
210.5167234539986
 20
108.8895265460015
 30
137.0
  0
VERTEX
  5
158
  8
DEFAULT
 10
210.5393371470273
 20
108.9137878529728
 30
137.0
  0
VERTEX
  5
159
  8
DEFAULT
 10
210.5625
 20
108.9375000000001
 30
137.0
  0
VERTEX
  5
15A
  8
DEFAULT
 10
210.5862121470273
 20
108.9606628529728
 30
137.0
  0
VERTEX
  5
15B
  8
DEFAULT
 10
210.6104734539986
 20
108.9832765460015
 30
137.0
  0
VERTEX
  5
15C
  8
DEFAULT
 10
210.6352835185826
 20
109.0053414814175
 30
137.0
  0
VERTEX
  5
15D
  8
DEFAULT
 10
210.6606416702271
 20
109.026858329773
 30
137.0
  0
VERTEX
  5
15E
  8
DEFAULT
 10
210.6865469701589
 20
109.0478280298412
 30
137.0
  0
VERTEX
  5
15F
  8
DEFAULT
 10
210.7129982113839
 20
109.0682517886162
 30
137.0
  0
VERTEX
  5
160
  8
DEFAULT
 10
210.7399939186872
 20
109.0881310813129
 30
137.0
  0
VERTEX
  5
161
  8
DEFAULT
 10
210.7675323486329
 20
109.1074676513672
 30
137.0
  0
VERTEX
  5
162
  8
DEFAULT
 10
210.7956114895642
 20
109.1262635104358
 30
137.0
  0
VERTEX
  5
163
  8
DEFAULT
 10
210.8242290616036
 20
109.1445209383965
 30
137.0
  0
VERTEX
  5
164
  8
DEFAULT
 10
210.8533825166524
 20
109.1622424833477
 30
137.0
  0
VERTEX
  5
165
  8
DEFAULT
 10
210.8830690383912
 20
109.1794309616089
 30
137.0
  0
VERTEX
  5
166
  8
DEFAULT
 10
210.9132855422795
 20
109.1960894577205
 30
137.0
  0
VERTEX
  5
167
  8
DEFAULT
 10
210.9440286755562
 20
109.2122213244438
 30
137.0
  0
VERTEX
  5
168
  8
DEFAULT
 10
210.9752948172391
 20
109.227830182761
 30
137.0
  0
VERTEX
  5
169
  8
DEFAULT
 10
211.0070800781251
 20
109.242919921875
 30
137.0
  0
VERTEX
  5
16A
  8
DEFAULT
 10
211.0393803007901
 20
109.25749469921
 30
137.0
  0
VERTEX
  5
16B
  8
DEFAULT
 10
211.0721910595894
 20
109.2715589404106
 30
137.0
  0
VERTEX
  5
16C
  8
DEFAULT
 10
211.1055076606572
 20
109.2851173393428
 30
137.0
  0
VERTEX
  5
16D
  8
DEFAULT
 10
211.1393251419068
 20
109.2981748580933
 30
137.0
  0
VERTEX
  5
16E
  8
DEFAULT
 10
211.2084415555001
 20
109.3228084445
 30
137.0
  0
VERTEX
  5
16F
  8
DEFAULT
 10
211.2794952392579
 20
109.3455047607422
 30
137.0
  0
VERTEX
  5
170
  8
DEFAULT
 10
211.3524368405343
 20
109.3663131594658
 30
137.0
  0
VERTEX
  5
171
  8
DEFAULT
 10
211.427212715149
 20
109.3852872848511
 30
137.0
  0
VERTEX
  5
172
  8
DEFAULT
 10
211.5037649273873
 20
109.4024850726128
 30
137.0
  0
VERTEX
  5
173
  8
DEFAULT
 10
211.5820312500001
 20
109.41796875
 30
137.0
  0
VERTEX
  5
174
  8
DEFAULT
 10
211.6619451642037
 20
109.4318048357964
 30
137.0
  0
VERTEX
  5
175
  8
DEFAULT
 10
211.7434358596802
 20
109.4440641403198
 30
137.0
  0
VERTEX
  5
176
  8
DEFAULT
 10
211.8264282345772
 20
109.4548217654228
 30
137.0
  0
VERTEX
  5
177
  8
DEFAULT
 10
211.9108428955079
 20
109.4641571044922
 30
137.0
  0
VERTEX
  5
178
  8
DEFAULT
 10
212.0836000442505
 20
109.4788999557495
 30
137.0
  0
VERTEX
  5
179
  8
DEFAULT
 10
212.2609863281251
 20
109.489013671875
 30
137.0
  0
VERTEX
  5
17A
  8
DEFAULT
 10
212.6264190673829
 20
109.4985809326172
 30
137.0
  0
SEQEND
  5
17B
  8
DEFAULT
  0
POLYLINE
  5
17C
  8
DEFAULT
 66
     1
 10
0.0
 20
0.0
 30
137.0
 70
     1
  0
VERTEX
  5
17D
  8
DEFAULT
 10
205.0
 20
109.1311167892435
 30
137.0
  0
VERTEX
  5
17E
  8
DEFAULT
 10
194.0
 20
109.1311167892434
 30
137.0
  0
VERTEX
  5
17F
  8
DEFAULT
 10
193.6264190673828
 20
109.1296977218606
 30
137.0
  0
VERTEX
  5
180
  8
DEFAULT
 10
193.260986328125
 20
109.1201304611184
 30
137.0
  0
VERTEX
  5
181
  8
DEFAULT
 10
193.0836000442505
 20
109.1100167449929
 30
137.0
  0
VERTEX
  5
182
  8
DEFAULT
 10
192.9108428955078
 20
109.0952738937356
 30
137.0
  0
VERTEX
  5
183
  8
DEFAULT
 10
192.8264282345772
 20
109.0859385546662
 30
137.0
  0
VERTEX
  5
184
  8
DEFAULT
 10
192.7434358596802
 20
109.0751809295633
 30
137.0
  0
VERTEX
  5
185
  8
DEFAULT
 10
192.6619451642036
 20
109.0629216250398
 30
137.0
  0
VERTEX
  5
186
  8
DEFAULT
 10
192.58203125
 20
109.0490855392434
 30
137.0
  0
VERTEX
  5
187
  8
DEFAULT
 10
192.5037649273872
 20
109.0336018618562
 30
137.0
  0
VERTEX
  5
188
  8
DEFAULT
 10
192.4272127151489
 20
109.0164040740945
 30
137.0
  0
VERTEX
  5
189
  8
DEFAULT
 10
192.3524368405342
 20
108.9974299487092
 30
137.0
  0
VERTEX
  5
18A
  8
DEFAULT
 10
192.2794952392578
 20
108.9766215499856
 30
137.0
  0
VERTEX
  5
18B
  8
DEFAULT
 10
192.2084415555
 20
108.9539252337434
 30
137.0
  0
VERTEX
  5
18C
  8
DEFAULT
 10
192.1393251419067
 20
108.9292916473367
 30
137.0
  0
VERTEX
  5
18D
  8
DEFAULT
 10
192.1055076606572
 20
108.9162341285863
 30
137.0
  0
VERTEX
  5
18E
  8
DEFAULT
 10
192.0721910595894
 20
108.902675729654
 30
137.0
  0
VERTEX
  5
18F
  8
DEFAULT
 10
192.0393803007901
 20
108.8886114884534
 30
137.0
  0
VERTEX
  5
190
  8
DEFAULT
 10
192.007080078125
 20
108.8740367111184
 30
137.0
  0
VERTEX
  5
191
  8
DEFAULT
 10
191.975294817239
 20
108.8589469720044
 30
137.0
  0
VERTEX
  5
192
  8
DEFAULT
 10
191.9440286755562
 20
108.8433381136873
 30
137.0
  0
VERTEX
  5
193
  8
DEFAULT
 10
191.9132855422795
 20
108.827206246964
 30
137.0
  0
VERTEX
  5
194
  8
DEFAULT
 10
191.8830690383911
 20
108.8105477508523
 30
137.0
  0
VERTEX
  5
195
  8
DEFAULT
 10
191.8533825166523
 20
108.7933592725911
 30
137.0
  0
VERTEX
  5
196
  8
DEFAULT
 10
191.8242290616035
 20
108.7756377276399
 30
137.0
  0
VERTEX
  5
197
  8
DEFAULT
 10
191.7956114895642
 20
108.7573802996793
 30
137.0
  0
VERTEX
  5
198
  8
DEFAULT
 10
191.7675323486328
 20
108.7385844406106
 30
137.0
  0
VERTEX
  5
199
  8
DEFAULT
 10
191.7399939186871
 20
108.7192478705563
 30
137.0
  0
VERTEX
  5
19A
  8
DEFAULT
 10
191.7129982113838
 20
108.6993685778596
 30
137.0
  0
VERTEX
  5
19B
  8
DEFAULT
 10
191.6865469701588
 20
108.6789448190846
 30
137.0
  0
VERTEX
  5
19C
  8
DEFAULT
 10
191.6606416702271
 20
108.6579751190164
 30
137.0
  0
VERTEX
  5
19D
  8
DEFAULT
 10
191.6352835185826
 20
108.6364582706608
 30
137.0
  0
VERTEX
  5
19E
  8
DEFAULT
 10
191.6104734539986
 20
108.6143933352448
 30
137.0
  0
VERTEX
  5
19F
  8
DEFAULT
 10
191.5862121470273
 20
108.5917796422162
 30
137.0
  0
VERTEX
  5
1A0
  8
DEFAULT
 10
191.5625
 20
108.5686167892434
 30
137.0
  0
VERTEX
  5
1A1
  8
DEFAULT
 10
191.5393371470273
 20
108.5449046422162
 30
137.0
  0
VERTEX
  5
1A2
  8
DEFAULT
 10
191.5167234539986
 20
108.5206433352449
 30
137.0
  0
VERTEX
  5
1A3
  8
DEFAULT
 10
191.4946585185826
 20
108.4958332706609
 30
137.0
  0
VERTEX
  5
1A4
  8
DEFAULT
 10
191.4731416702271
 20
108.4704751190164
 30
137.0
  0
VERTEX
  5
1A5
  8
DEFAULT
 10
191.4521719701588
 20
108.4445698190846
 30
137.0
  0
VERTEX
  5
1A6
  8
DEFAULT
 10
191.4317482113838
 20
108.4181185778596
 30
137.0
  0
VERTEX
  5
1A7
  8
DEFAULT
 10
191.4118689186871
 20
108.3911228705563
 30
137.0
  0
VERTEX
  5
1A8
  8
DEFAULT
 10
191.3925323486328
 20
108.3635844406106
 30
137.0
  0
VERTEX
  5
1A9
  8
DEFAULT
 10
191.3737364895642
 20
108.3355052996792
 30
137.0
  0
VERTEX
  5
1AA
  8
DEFAULT
 10
191.3554790616035
 20
108.3068877276399
 30
137.0
  0
VERTEX
  5
1AB
  8
DEFAULT
 10
191.3377575166523
 20
108.2777342725911
 30
137.0
  0
VERTEX
  5
1AC
  8
DEFAULT
 10
191.3205690383911
 20
108.2480477508523
 30
137.0
  0
VERTEX
  5
1AD
  8
DEFAULT
 10
191.3039105422795
 20
108.2178312469639
 30
137.0
  0
VERTEX
  5
1AE
  8
DEFAULT
 10
191.2877786755562
 20
108.1870881136872
 30
137.0
  0
VERTEX
  5
1AF
  8
DEFAULT
 10
191.272169817239
 20
108.1558219720044
 30
137.0
  0
VERTEX
  5
1B0
  8
DEFAULT
 10
191.257080078125
 20
108.1240367111184
 30
137.0
  0
VERTEX
  5
1B1
  8
DEFAULT
 10
191.2425053007901
 20
108.0917364884533
 30
137.0
  0
VERTEX
  5
1B2
  8
DEFAULT
 10
191.2284410595894
 20
108.058925729654
 30
137.0
  0
VERTEX
  5
1B3
  8
DEFAULT
 10
191.2148826606572
 20
108.0256091285863
 30
137.0
  0
VERTEX
  5
1B4
  8
DEFAULT
 10
191.2018251419067
 20
107.9917916473367
 30
137.0
  0
VERTEX
  5
1B5
  8
DEFAULT
 10
191.1771915555
 20
107.9226752337434
 30
137.0
  0
VERTEX
  5
1B6
  8
DEFAULT
 10
191.1544952392578
 20
107.8516215499856
 30
137.0
  0
VERTEX
  5
1B7
  8
DEFAULT
 10
191.1336868405342
 20
107.7786799487092
 30
137.0
  0
VERTEX
  5
1B8
  8
DEFAULT
 10
191.1147127151489
 20
107.7039040740945
 30
137.0
  0
VERTEX
  5
1B9
  8
DEFAULT
 10
191.0975149273872
 20
107.6273518618562
 30
137.0
  0
VERTEX
  5
1BA
  8
DEFAULT
 10
191.08203125
 20
107.5490855392434
 30
137.0
  0
VERTEX
  5
1BB
  8
DEFAULT
 10
191.0681951642036
 20
107.4691716250398
 30
137.0
  0
VERTEX
  5
1BC
  8
DEFAULT
 10
191.0559358596802
 20
107.3876809295633
 30
137.0
  0
VERTEX
  5
1BD
  8
DEFAULT
 10
191.0451782345772
 20
107.3046885546663
 30
137.0
  0
VERTEX
  5
1BE
  8
DEFAULT
 10
191.0358428955078
 20
107.2202738937356
 30
137.0
  0
VERTEX
  5
1BF
  8
DEFAULT
 10
191.0211000442505
 20
107.0475167449929
 30
137.0
  0
VERTEX
  5
1C0
  8
DEFAULT
 10
191.010986328125
 20
106.8701304611184
 30
137.0
  0
VERTEX
  5
1C1
  8
DEFAULT
 10
191.0014190673828
 20
106.5046977218606
 30
137.0
  0
VERTEX
  5
1C2
  8
DEFAULT
 10
191.0
 20
106.1311167892434
 30
137.0
  0
VERTEX
  5
1C3
  8
DEFAULT
 10
191.0000000000001
 20
79.13111678924331
 30
137.0
  0
VERTEX
  5
1C4
  8
DEFAULT
 10
191.0014190673829
 20
78.75753585662613
 30
137.0
  0
VERTEX
  5
1C5
  8
DEFAULT
 10
191.0109863281251
 20
78.39210311736832
 30
137.0
  0
VERTEX
  5
1C6
  8
DEFAULT
 10
191.0211000442505
 20
78.21471683349381
 30
137.0
  0
VERTEX
  5
1C7
  8
DEFAULT
 10
191.0358428955079
 20
78.04195968475116
 30
137.0
  0
VERTEX
  5
1C8
  8
DEFAULT
 10
191.0451782345772
 20
77.95754502382053
 30
137.0
  0
VERTEX
  5
1C9
  8
DEFAULT
 10
191.0559358596802
 20
77.87455264892353
 30
137.0
  0
VERTEX
  5
1CA
  8
DEFAULT
 10
191.0681951642037
 20
77.793061953447
 30
137.0
  0
VERTEX
  5
1CB
  8
DEFAULT
 10
191.0820312500001
 20
77.71314803924335
 30
137.0
  0
VERTEX
  5
1CC
  8
DEFAULT
 10
191.0975149273874
 20
77.63488171663059
 30
137.0
  0
VERTEX
  5
1CD
  8
DEFAULT
 10
191.114712715149
 20
77.55832950439228
 30
137.0
  0
VERTEX
  5
1CE
  8
DEFAULT
 10
191.1336868405343
 20
77.48355362977759
 30
137.0
  0
VERTEX
  5
1CF
  8
DEFAULT
 10
191.1544952392579
 20
77.41061202850118
 30
137.0
  0
VERTEX
  5
1D0
  8
DEFAULT
 10
191.1771915555001
 20
77.3395583447434
 30
137.0
  0
VERTEX
  5
1D1
  8
DEFAULT
 10
191.2018251419069
 20
77.27044193115013
 30
137.0
  0
VERTEX
  5
1D2
  8
DEFAULT
 10
191.2148826606573
 20
77.23662444990056
 30
137.0
  0
VERTEX
  5
1D3
  8
DEFAULT
 10
191.2284410595895
 20
77.2033078488328
 30
137.0
  0
VERTEX
  5
1D4
  8
DEFAULT
 10
191.2425053007902
 20
77.17049709003348
 30
137.0
  0
VERTEX
  5
1D5
  8
DEFAULT
 10
191.2570800781251
 20
77.1381968673684
 30
137.0
  0
VERTEX
  5
1D6
  8
DEFAULT
 10
191.2721698172392
 20
77.10641160648245
 30
137.0
  0
VERTEX
  5
1D7
  8
DEFAULT
 10
191.2877786755564
 20
77.07514546479959
 30
137.0
  0
VERTEX
  5
1D8
  8
DEFAULT
 10
191.3039105422797
 20
77.04440233152289
 30
137.0
  0
VERTEX
  5
1D9
  8
DEFAULT
 10
191.3205690383913
 20
77.01418582763452
 30
137.0
  0
VERTEX
  5
1DA
  8
DEFAULT
 10
191.3377575166525
 20
76.98449930589575
 30
137.0
  0
VERTEX
  5
1DB
  8
DEFAULT
 10
191.3554790616037
 20
76.95534585084698
 30
137.0
  0
VERTEX
  5
1DC
  8
DEFAULT
 10
191.3737364895644
 20
76.92672827880762
 30
137.0
  0
VERTEX
  5
1DD
  8
DEFAULT
 10
191.392532348633
 20
76.89864913787625
 30
137.0
  0
VERTEX
  5
1DE
  8
DEFAULT
 10
191.4118689186873
 20
76.87111070793054
 30
137.0
  0
VERTEX
  5
1DF
  8
DEFAULT
 10
191.431748211384
 20
76.84411500062726
 30
137.0
  0
VERTEX
  5
1E0
  8
DEFAULT
 10
191.452171970159
 20
76.81766375940227
 30
137.0
  0
VERTEX
  5
1E1
  8
DEFAULT
 10
191.4731416702272
 20
76.79175845947049
 30
137.0
  0
VERTEX
  5
1E2
  8
DEFAULT
 10
191.4946585185828
 20
76.76640030782602
 30
137.0
  0
VERTEX
  5
1E3
  8
DEFAULT
 10
191.5167234539987
 20
76.74159024324202
 30
137.0
  0
VERTEX
  5
1E4
  8
DEFAULT
 10
191.5393371470274
 20
76.7173289362707
 30
137.0
  0
VERTEX
  5
1E5
  8
DEFAULT
 10
191.5625000000002
 20
76.69361678924345
 30
137.0
  0
VERTEX
  5
1E6
  8
DEFAULT
 10
191.5862121470274
 20
76.6704539362707
 30
137.0
  0
VERTEX
  5
1E7
  8
DEFAULT
 10
191.6104734539987
 20
76.64784024324203
 30
137.0
  0
VERTEX
  5
1E8
  8
DEFAULT
 10
191.6352835185828
 20
76.62577530782605
 30
137.0
  0
VERTEX
  5
1E9
  8
DEFAULT
 10
191.6606416702272
 20
76.6042584594705
 30
137.0
  0
VERTEX
  5
1EA
  8
DEFAULT
 10
191.686546970159
 20
76.58328875940227
 30
137.0
  0
VERTEX
  5
1EB
  8
DEFAULT
 10
191.712998211384
 20
76.56286500062727
 30
137.0
  0
VERTEX
  5
1EC
  8
DEFAULT
 10
191.7399939186873
 20
76.54298570793057
 30
137.0
  0
VERTEX
  5
1ED
  8
DEFAULT
 10
191.767532348633
 20
76.52364913787628
 30
137.0
  0
VERTEX
  5
1EE
  8
DEFAULT
 10
191.7956114895644
 20
76.50485327880764
 30
137.0
  0
VERTEX
  5
1EF
  8
DEFAULT
 10
191.8242290616037
 20
76.48659585084701
 30
137.0
  0
VERTEX
  5
1F0
  8
DEFAULT
 10
191.8533825166525
 20
76.46887430589581
 30
137.0
  0
VERTEX
  5
1F1
  8
DEFAULT
 10
191.8830690383913
 20
76.45168582763458
 30
137.0
  0
VERTEX
  5
1F2
  8
DEFAULT
 10
191.9132855422797
 20
76.43502733152295
 30
137.0
  0
VERTEX
  5
1F3
  8
DEFAULT
 10
191.9440286755564
 20
76.41889546479965
 30
137.0
  0
VERTEX
  5
1F4
  8
DEFAULT
 10
191.9752948172392
 20
76.40328660648251
 30
137.0
  0
VERTEX
  5
1F5
  8
DEFAULT
 10
192.0070800781252
 20
76.38819686736846
 30
137.0
  0
VERTEX
  5
1F6
  8
DEFAULT
 10
192.0393803007902
 20
76.37362209003354
 30
137.0
  0
VERTEX
  5
1F7
  8
DEFAULT
 10
192.0721910595896
 20
76.35955784883286
 30
137.0
  0
VERTEX
  5
1F8
  8
DEFAULT
 10
192.1055076606573
 20
76.34599944990065
 30
137.0
  0
VERTEX
  5
1F9
  8
DEFAULT
 10
192.1393251419069
 20
76.33294193115022
 30
137.0
  0
VERTEX
  5
1FA
  8
DEFAULT
 10
192.2084415555002
 20
76.3083083447435
 30
137.0
  0
VERTEX
  5
1FB
  8
DEFAULT
 10
192.279495239258
 20
76.28561202850129
 30
137.0
  0
VERTEX
  5
1FC
  8
DEFAULT
 10
192.3524368405344
 20
76.2648036297777
 30
137.0
  0
VERTEX
  5
1FD
  8
DEFAULT
 10
192.4272127151491
 20
76.24582950439242
 30
137.0
  0
VERTEX
  5
1FE
  8
DEFAULT
 10
192.5037649273874
 20
76.22863171663073
 30
137.0
  0
VERTEX
  5
1FF
  8
DEFAULT
 10
192.5820312500002
 20
76.21314803924349
 30
137.0
  0
VERTEX
  5
200
  8
DEFAULT
 10
192.6619451642038
 20
76.19931195344714
 30
137.0
  0
VERTEX
  5
201
  8
DEFAULT
 10
192.7434358596803
 20
76.18705264892367
 30
137.0
  0
VERTEX
  5
202
  8
DEFAULT
 10
192.8264282345773
 20
76.17629502382069
 30
137.0
  0
VERTEX
  5
203
  8
DEFAULT
 10
192.910842895508
 20
76.1669596847513
 30
137.0
  0
VERTEX
  5
204
  8
DEFAULT
 10
193.0836000442506
 20
76.15221683349398
 30
137.0
  0
VERTEX
  5
205
  8
DEFAULT
 10
193.2609863281251
 20
76.14210311736849
 30
137.0
  0
VERTEX
  5
206
  8
DEFAULT
 10
193.6264190673829
 20
76.13253585662628
 30
137.0
  0
VERTEX
  5
207
  8
DEFAULT
 10
194.0
 20
76.13111678924346
 30
137.0
  0
VERTEX
  5
208
  8
DEFAULT
 10
204.9999999999999
 20
76.13111678924344
 30
137.0
  0
VERTEX
  5
209
  8
DEFAULT
 10
205.3735809326172
 20
76.13253585662625
 30
137.0
  0
VERTEX
  5
20A
  8
DEFAULT
 10
205.739013671875
 20
76.14210311736844
 30
137.0
  0
VERTEX
  5
20B
  8
DEFAULT
 10
205.9163999557495
 20
76.15221683349391
 30
137.0
  0
VERTEX
  5
20C
  8
DEFAULT
 10
206.0891571044922
 20
76.16695968475125
 30
137.0
  0
VERTEX
  5
20D
  8
DEFAULT
 10
206.1735717654228
 20
76.17629502382061
 30
137.0
  0
VERTEX
  5
20E
  8
DEFAULT
 10
206.2565641403198
 20
76.18705264892361
 30
137.0
  0
VERTEX
  5
20F
  8
DEFAULT
 10
206.3380548357964
 20
76.19931195344708
 30
137.0
  0
VERTEX
  5
210
  8
DEFAULT
 10
206.41796875
 20
76.21314803924344
 30
137.0
  0
VERTEX
  5
211
  8
DEFAULT
 10
206.4962350726128
 20
76.22863171663067
 30
137.0
  0
VERTEX
  5
212
  8
DEFAULT
 10
206.5727872848511
 20
76.24582950439236
 30
137.0
  0
VERTEX
  5
213
  8
DEFAULT
 10
206.6475631594658
 20
76.26480362977765
 30
137.0
  0
VERTEX
  5
214
  8
DEFAULT
 10
206.7205047607422
 20
76.28561202850125
 30
137.0
  0
VERTEX
  5
215
  8
DEFAULT
 10
206.7915584445
 20
76.30830834474347
 30
137.0
  0
VERTEX
  5
216
  8
DEFAULT
 10
206.8606748580933
 20
76.33294193115019
 30
137.0
  0
VERTEX
  5
217
  8
DEFAULT
 10
206.8944923393429
 20
76.34599944990062
 30
137.0
  0
VERTEX
  5
218
  8
DEFAULT
 10
206.9278089404107
 20
76.35955784883284
 30
137.0
  0
VERTEX
  5
219
  8
DEFAULT
 10
206.96061969921
 20
76.3736220900335
 30
137.0
  0
VERTEX
  5
21A
  8
DEFAULT
 10
206.992919921875
 20
76.38819686736845
 30
137.0
  0
VERTEX
  5
21B
  8
DEFAULT
 10
207.024705182761
 20
76.40328660648251
 30
137.0
  0
VERTEX
  5
21C
  8
DEFAULT
 10
207.0559713244438
 20
76.41889546479965
 30
137.0
  0
VERTEX
  5
21D
  8
DEFAULT
 10
207.0867144577205
 20
76.43502733152295
 30
137.0
  0
VERTEX
  5
21E
  8
DEFAULT
 10
207.1169309616089
 20
76.45168582763458
 30
137.0
  0
VERTEX
  5
21F
  8
DEFAULT
 10
207.1466174833477
 20
76.46887430589581
 30
137.0
  0
VERTEX
  5
220
  8
DEFAULT
 10
207.1757709383965
 20
76.48659585084701
 30
137.0
  0
VERTEX
  5
221
  8
DEFAULT
 10
207.2043885104358
 20
76.50485327880764
 30
137.0
  0
VERTEX
  5
222
  8
DEFAULT
 10
207.2324676513672
 20
76.52364913787628
 30
137.0
  0
VERTEX
  5
223
  8
DEFAULT
 10
207.2600060813129
 20
76.54298570793057
 30
137.0
  0
VERTEX
  5
224
  8
DEFAULT
 10
207.2870017886162
 20
76.56286500062728
 30
137.0
  0
VERTEX
  5
225
  8
DEFAULT
 10
207.3134530298412
 20
76.58328875940228
 30
137.0
  0
VERTEX
  5
226
  8
DEFAULT
 10
207.3393583297729
 20
76.60425845947051
 30
137.0
  0
VERTEX
  5
227
  8
DEFAULT
 10
207.3647164814174
 20
76.62577530782605
 30
137.0
  0
VERTEX
  5
228
  8
DEFAULT
 10
207.3895265460015
 20
76.64784024324206
 30
137.0
  0
VERTEX
  5
229
  8
DEFAULT
 10
207.4137878529728
 20
76.67045393627073
 30
137.0
  0
VERTEX
  5
22A
  8
DEFAULT
 10
207.4375
 20
76.69361678924348
 30
137.0
  0
VERTEX
  5
22B
  8
DEFAULT
 10
207.4606628529727
 20
76.71732893627073
 30
137.0
  0
VERTEX
  5
22C
  8
DEFAULT
 10
207.4832765460014
 20
76.74159024324204
 30
137.0
  0
VERTEX
  5
22D
  8
DEFAULT
 10
207.5053414814174
 20
76.76640030782605
 30
137.0
  0
VERTEX
  5
22E
  8
DEFAULT
 10
207.526858329773
 20
76.79175845947053
 30
137.0
  0
VERTEX
  5
22F
  8
DEFAULT
 10
207.5478280298412
 20
76.81766375940231
 30
137.0
  0
VERTEX
  5
230
  8
DEFAULT
 10
207.5682517886162
 20
76.84411500062731
 30
137.0
  0
VERTEX
  5
231
  8
DEFAULT
 10
207.588131081313
 20
76.8711107079306
 30
137.0
  0
VERTEX
  5
232
  8
DEFAULT
 10
207.6074676513672
 20
76.8986491378763
 30
137.0
  0
VERTEX
  5
233
  8
DEFAULT
 10
207.6262635104358
 20
76.92672827880767
 30
137.0
  0
VERTEX
  5
234
  8
DEFAULT
 10
207.6445209383965
 20
76.95534585084704
 30
137.0
  0
VERTEX
  5
235
  8
DEFAULT
 10
207.6622424833477
 20
76.98449930589584
 30
137.0
  0
VERTEX
  5
236
  8
DEFAULT
 10
207.6794309616089
 20
77.0141858276346
 30
137.0
  0
VERTEX
  5
237
  8
DEFAULT
 10
207.6960894577205
 20
77.04440233152297
 30
137.0
  0
VERTEX
  5
238
  8
DEFAULT
 10
207.7122213244438
 20
77.07514546479968
 30
137.0
  0
VERTEX
  5
239
  8
DEFAULT
 10
207.727830182761
 20
77.10641160648254
 30
137.0
  0
VERTEX
  5
23A
  8
DEFAULT
 10
207.742919921875
 20
77.1381968673685
 30
137.0
  0
VERTEX
  5
23B
  8
DEFAULT
 10
207.7574946992099
 20
77.17049709003359
 30
137.0
  0
VERTEX
  5
23C
  8
DEFAULT
 10
207.7715589404106
 20
77.2033078488329
 30
137.0
  0
VERTEX
  5
23D
  8
DEFAULT
 10
207.7851173393428
 20
77.23662444990069
 30
137.0
  0
VERTEX
  5
23E
  8
DEFAULT
 10
207.7981748580933
 20
77.27044193115026
 30
137.0
  0
VERTEX
  5
23F
  8
DEFAULT
 10
207.8228084445
 20
77.33955834474355
 30
137.0
  0
VERTEX
  5
240
  8
DEFAULT
 10
207.8455047607422
 20
77.41061202850133
 30
137.0
  0
VERTEX
  5
241
  8
DEFAULT
 10
207.8663131594658
 20
77.48355362977775
 30
137.0
  0
VERTEX
  5
242
  8
DEFAULT
 10
207.8852872848511
 20
77.55832950439247
 30
137.0
  0
VERTEX
  5
243
  8
DEFAULT
 10
207.9024850726128
 20
77.63488171663079
 30
137.0
  0
VERTEX
  5
244
  8
DEFAULT
 10
207.91796875
 20
77.71314803924355
 30
137.0
  0
VERTEX
  5
245
  8
DEFAULT
 10
207.9318048357964
 20
77.7930619534472
 30
137.0
  0
VERTEX
  5
246
  8
DEFAULT
 10
207.9440641403198
 20
77.87455264892372
 30
137.0
  0
VERTEX
  5
247
  8
DEFAULT
 10
207.9548217654228
 20
77.95754502382073
 30
137.0
  0
VERTEX
  5
248
  8
DEFAULT
 10
207.9641571044922
 20
78.04195968475136
 30
137.0
  0
VERTEX
  5
249
  8
DEFAULT
 10
207.9788999557495
 20
78.21471683349404
 30
137.0
  0
VERTEX
  5
24A
  8
DEFAULT
 10
207.9890136718749
 20
78.39210311736855
 30
137.0
  0
VERTEX
  5
24B
  8
DEFAULT
 10
207.9985809326171
 20
78.75753585662636
 30
137.0
  0
VERTEX
  5
24C
  8
DEFAULT
 10
207.9999999999999
 20
79.13111678924355
 30
137.0
  0
VERTEX
  5
24D
  8
DEFAULT
 10
199.5
 20
79.13111678924344
 30
137.0
  0
VERTEX
  5
24E
  8
DEFAULT
 10
199.5
 20
82.13111678924344
 30
137.0
  0
VERTEX
  5
24F
  8
DEFAULT
 10
208.0
 20
82.13111678924344
 30
137.0
  0
VERTEX
  5
250
  8
DEFAULT
 10
208.0
 20
103.1311167892434
 30
137.0
  0
VERTEX
  5
251
  8
DEFAULT
 10
199.5
 20
103.1311167892434
 30
137.0
  0
VERTEX
  5
252
  8
DEFAULT
 10
199.5
 20
106.1311167892434
 30
137.0
  0
VERTEX
  5
253
  8
DEFAULT
 10
208.0
 20
106.1311167892435
 30
137.0
  0
VERTEX
  5
254
  8
DEFAULT
 10
207.9985809326171
 20
106.5046977218607
 30
137.0
  0
VERTEX
  5
255
  8
DEFAULT
 10
207.9890136718749
 20
106.8701304611185
 30
137.0
  0
VERTEX
  5
256
  8
DEFAULT
 10
207.9788999557495
 20
107.047516744993
 30
137.0
  0
VERTEX
  5
257
  8
DEFAULT
 10
207.9641571044921
 20
107.2202738937357
 30
137.0
  0
VERTEX
  5
258
  8
DEFAULT
 10
207.9548217654228
 20
107.3046885546663
 30
137.0
  0
VERTEX
  5
259
  8
DEFAULT
 10
207.9440641403198
 20
107.3876809295633
 30
137.0
  0
VERTEX
  5
25A
  8
DEFAULT
 10
207.9318048357963
 20
107.4691716250399
 30
137.0
  0
VERTEX
  5
25B
  8
DEFAULT
 10
207.9179687499999
 20
107.5490855392435
 30
137.0
  0
VERTEX
  5
25C
  8
DEFAULT
 10
207.9024850726127
 20
107.6273518618563
 30
137.0
  0
VERTEX
  5
25D
  8
DEFAULT
 10
207.885287284851
 20
107.7039040740946
 30
137.0
  0
VERTEX
  5
25E
  8
DEFAULT
 10
207.8663131594657
 20
107.7786799487093
 30
137.0
  0
VERTEX
  5
25F
  8
DEFAULT
 10
207.8455047607421
 20
107.8516215499857
 30
137.0
  0
VERTEX
  5
260
  8
DEFAULT
 10
207.8228084444999
 20
107.9226752337434
 30
137.0
  0
VERTEX
  5
261
  8
DEFAULT
 10
207.7981748580931
 20
107.9917916473367
 30
137.0
  0
VERTEX
  5
262
  8
DEFAULT
 10
207.7851173393427
 20
108.0256091285863
 30
137.0
  0
VERTEX
  5
263
  8
DEFAULT
 10
207.7715589404105
 20
108.0589257296541
 30
137.0
  0
VERTEX
  5
264
  8
DEFAULT
 10
207.7574946992098
 20
108.0917364884534
 30
137.0
  0
VERTEX
  5
265
  8
DEFAULT
 10
207.7429199218749
 20
108.1240367111185
 30
137.0
  0
VERTEX
  5
266
  8
DEFAULT
 10
207.7278301827608
 20
108.1558219720044
 30
137.0
  0
VERTEX
  5
267
  8
DEFAULT
 10
207.7122213244437
 20
108.1870881136873
 30
137.0
  0
VERTEX
  5
268
  8
DEFAULT
 10
207.6960894577204
 20
108.217831246964
 30
137.0
  0
VERTEX
  5
269
  8
DEFAULT
 10
207.6794309616088
 20
108.2480477508524
 30
137.0
  0
VERTEX
  5
26A
  8
DEFAULT
 10
207.6622424833475
 20
108.2777342725911
 30
137.0
  0
VERTEX
  5
26B
  8
DEFAULT
 10
207.6445209383963
 20
108.3068877276399
 30
137.0
  0
VERTEX
  5
26C
  8
DEFAULT
 10
207.6262635104357
 20
108.3355052996793
 30
137.0
  0
VERTEX
  5
26D
  8
DEFAULT
 10
207.6074676513671
 20
108.3635844406107
 30
137.0
  0
VERTEX
  5
26E
  8
DEFAULT
 10
207.5881310813128
 20
108.3911228705564
 30
137.0
  0
VERTEX
  5
26F
  8
DEFAULT
 10
207.5682517886161
 20
108.4181185778596
 30
137.0
  0
VERTEX
  5
270
  8
DEFAULT
 10
207.5478280298411
 20
108.4445698190846
 30
137.0
  0
VERTEX
  5
271
  8
DEFAULT
 10
207.5268583297728
 20
108.4704751190164
 30
137.0
  0
VERTEX
  5
272
  8
DEFAULT
 10
207.5053414814173
 20
108.4958332706609
 30
137.0
  0
VERTEX
  5
273
  8
DEFAULT
 10
207.4832765460013
 20
108.5206433352449
 30
137.0
  0
VERTEX
  5
274
  8
DEFAULT
 10
207.4606628529726
 20
108.5449046422162
 30
137.0
  0
VERTEX
  5
275
  8
DEFAULT
 10
207.4374999999999
 20
108.5686167892435
 30
137.0
  0
VERTEX
  5
276
  8
DEFAULT
 10
207.4137878529726
 20
108.5917796422162
 30
137.0
  0
VERTEX
  5
277
  8
DEFAULT
 10
207.3895265460013
 20
108.6143933352449
 30
137.0
  0
VERTEX
  5
278
  8
DEFAULT
 10
207.3647164814173
 20
108.6364582706609
 30
137.0
  0
VERTEX
  5
279
  8
DEFAULT
 10
207.3393583297728
 20
108.6579751190164
 30
137.0
  0
VERTEX
  5
27A
  8
DEFAULT
 10
207.3134530298411
 20
108.6789448190846
 30
137.0
  0
VERTEX
  5
27B
  8
DEFAULT
 10
207.2870017886161
 20
108.6993685778596
 30
137.0
  0
VERTEX
  5
27C
  8
DEFAULT
 10
207.2600060813128
 20
108.7192478705564
 30
137.0
  0
VERTEX
  5
27D
  8
DEFAULT
 10
207.2324676513671
 20
108.7385844406106
 30
137.0
  0
VERTEX
  5
27E
  8
DEFAULT
 10
207.2043885104357
 20
108.7573802996793
 30
137.0
  0
VERTEX
  5
27F
  8
DEFAULT
 10
207.1757709383963
 20
108.7756377276399
 30
137.0
  0
VERTEX
  5
280
  8
DEFAULT
 10
207.1466174833475
 20
108.7933592725911
 30
137.0
  0
VERTEX
  5
281
  8
DEFAULT
 10
207.1169309616088
 20
108.8105477508524
 30
137.0
  0
VERTEX
  5
282
  8
DEFAULT
 10
207.0867144577204
 20
108.827206246964
 30
137.0
  0
VERTEX
  5
283
  8
DEFAULT
 10
207.0559713244437
 20
108.8433381136873
 30
137.0
  0
VERTEX
  5
284
  8
DEFAULT
 10
207.0247051827608
 20
108.8589469720044
 30
137.0
  0
VERTEX
  5
285
  8
DEFAULT
 10
206.9929199218749
 20
108.8740367111185
 30
137.0
  0
VERTEX
  5
286
  8
DEFAULT
 10
206.9606196992099
 20
108.8886114884534
 30
137.0
  0
VERTEX
  5
287
  8
DEFAULT
 10
206.9278089404106
 20
108.9026757296541
 30
137.0
  0
VERTEX
  5
288
  8
DEFAULT
 10
206.8944923393428
 20
108.9162341285863
 30
137.0
  0
VERTEX
  5
289
  8
DEFAULT
 10
206.8606748580932
 20
108.9292916473367
 30
137.0
  0
VERTEX
  5
28A
  8
DEFAULT
 10
206.7915584444999
 20
108.9539252337434
 30
137.0
  0
VERTEX
  5
28B
  8
DEFAULT
 10
206.7205047607421
 20
108.9766215499856
 30
137.0
  0
VERTEX
  5
28C
  8
DEFAULT
 10
206.6475631594657
 20
108.9974299487092
 30
137.0
  0
VERTEX
  5
28D
  8
DEFAULT
 10
206.572787284851
 20
109.0164040740945
 30
137.0
  0
VERTEX
  5
28E
  8
DEFAULT
 10
206.4962350726127
 20
109.0336018618562
 30
137.0
  0
VERTEX
  5
28F
  8
DEFAULT
 10
206.4179687499999
 20
109.0490855392434
 30
137.0
  0
VERTEX
  5
290
  8
DEFAULT
 10
206.3380548357963
 20
109.0629216250398
 30
137.0
  0
VERTEX
  5
291
  8
DEFAULT
 10
206.2565641403198
 20
109.0751809295633
 30
137.0
  0
VERTEX
  5
292
  8
DEFAULT
 10
206.1735717654228
 20
109.0859385546663
 30
137.0
  0
VERTEX
  5
293
  8
DEFAULT
 10
206.0891571044922
 20
109.0952738937356
 30
137.0
  0
VERTEX
  5
294
  8
DEFAULT
 10
205.9163999557495
 20
109.110016744993
 30
137.0
  0
VERTEX
  5
295
  8
DEFAULT
 10
205.739013671875
 20
109.1201304611185
 30
137.0
  0
VERTEX
  5
296
  8
DEFAULT
 10
205.3735809326172
 20
109.1296977218607
 30
137.0
  0
SEQEND
  5
297
  8
DEFAULT
  0
POLYLINE
  5
298
  8
DEFAULT
 66
     1
 10
0.0
 20
0.0
 30
137.0
 70
     1
  0
VERTEX
  5
299
  8
DEFAULT
 10
205.0
 20
146.1311167892435
 30
137.0
  0
VERTEX
  5
29A
  8
DEFAULT
 10
194.0
 20
146.1311167892434
 30
137.0
  0
VERTEX
  5
29B
  8
DEFAULT
 10
193.6264190673828
 20
146.1296977218606
 30
137.0
  0
VERTEX
  5
29C
  8
DEFAULT
 10
193.260986328125
 20
146.1201304611184
 30
137.0
  0
VERTEX
  5
29D
  8
DEFAULT
 10
193.0836000442505
 20
146.1100167449929
 30
137.0
  0
VERTEX
  5
29E
  8
DEFAULT
 10
192.9108428955078
 20
146.0952738937356
 30
137.0
  0
VERTEX
  5
29F
  8
DEFAULT
 10
192.8264282345772
 20
146.0859385546663
 30
137.0
  0
VERTEX
  5
2A0
  8
DEFAULT
 10
192.7434358596802
 20
146.0751809295633
 30
137.0
  0
VERTEX
  5
2A1
  8
DEFAULT
 10
192.6619451642036
 20
146.0629216250398
 30
137.0
  0
VERTEX
  5
2A2
  8
DEFAULT
 10
192.58203125
 20
146.0490855392434
 30
137.0
  0
VERTEX
  5
2A3
  8
DEFAULT
 10
192.5037649273872
 20
146.0336018618562
 30
137.0
  0
VERTEX
  5
2A4
  8
DEFAULT
 10
192.4272127151489
 20
146.0164040740945
 30
137.0
  0
VERTEX
  5
2A5
  8
DEFAULT
 10
192.3524368405342
 20
145.9974299487092
 30
137.0
  0
VERTEX
  5
2A6
  8
DEFAULT
 10
192.2794952392578
 20
145.9766215499856
 30
137.0
  0
VERTEX
  5
2A7
  8
DEFAULT
 10
192.2084415555
 20
145.9539252337434
 30
137.0
  0
VERTEX
  5
2A8
  8
DEFAULT
 10
192.1393251419067
 20
145.9292916473367
 30
137.0
  0
VERTEX
  5
2A9
  8
DEFAULT
 10
192.1055076606572
 20
145.9162341285863
 30
137.0
  0
VERTEX
  5
2AA
  8
DEFAULT
 10
192.0721910595894
 20
145.902675729654
 30
137.0
  0
VERTEX
  5
2AB
  8
DEFAULT
 10
192.0393803007901
 20
145.8886114884534
 30
137.0
  0
VERTEX
  5
2AC
  8
DEFAULT
 10
192.007080078125
 20
145.8740367111184
 30
137.0
  0
VERTEX
  5
2AD
  8
DEFAULT
 10
191.975294817239
 20
145.8589469720044
 30
137.0
  0
VERTEX
  5
2AE
  8
DEFAULT
 10
191.9440286755562
 20
145.8433381136873
 30
137.0
  0
VERTEX
  5
2AF
  8
DEFAULT
 10
191.9132855422795
 20
145.827206246964
 30
137.0
  0
VERTEX
  5
2B0
  8
DEFAULT
 10
191.8830690383911
 20
145.8105477508523
 30
137.0
  0
VERTEX
  5
2B1
  8
DEFAULT
 10
191.8533825166523
 20
145.7933592725911
 30
137.0
  0
VERTEX
  5
2B2
  8
DEFAULT
 10
191.8242290616035
 20
145.7756377276399
 30
137.0
  0
VERTEX
  5
2B3
  8
DEFAULT
 10
191.7956114895642
 20
145.7573802996793
 30
137.0
  0
VERTEX
  5
2B4
  8
DEFAULT
 10
191.7675323486328
 20
145.7385844406106
 30
137.0
  0
VERTEX
  5
2B5
  8
DEFAULT
 10
191.7399939186871
 20
145.7192478705563
 30
137.0
  0
VERTEX
  5
2B6
  8
DEFAULT
 10
191.7129982113838
 20
145.6993685778596
 30
137.0
  0
VERTEX
  5
2B7
  8
DEFAULT
 10
191.6865469701588
 20
145.6789448190846
 30
137.0
  0
VERTEX
  5
2B8
  8
DEFAULT
 10
191.6606416702271
 20
145.6579751190164
 30
137.0
  0
VERTEX
  5
2B9
  8
DEFAULT
 10
191.6352835185826
 20
145.6364582706609
 30
137.0
  0
VERTEX
  5
2BA
  8
DEFAULT
 10
191.6104734539986
 20
145.6143933352449
 30
137.0
  0
VERTEX
  5
2BB
  8
DEFAULT
 10
191.5862121470273
 20
145.5917796422162
 30
137.0
  0
VERTEX
  5
2BC
  8
DEFAULT
 10
191.5625
 20
145.5686167892434
 30
137.0
  0
VERTEX
  5
2BD
  8
DEFAULT
 10
191.5393371470273
 20
145.5449046422162
 30
137.0
  0
VERTEX
  5
2BE
  8
DEFAULT
 10
191.5167234539986
 20
145.5206433352449
 30
137.0
  0
VERTEX
  5
2BF
  8
DEFAULT
 10
191.4946585185826
 20
145.4958332706609
 30
137.0
  0
VERTEX
  5
2C0
  8
DEFAULT
 10
191.4731416702271
 20
145.4704751190164
 30
137.0
  0
VERTEX
  5
2C1
  8
DEFAULT
 10
191.4521719701588
 20
145.4445698190846
 30
137.0
  0
VERTEX
  5
2C2
  8
DEFAULT
 10
191.4317482113838
 20
145.4181185778596
 30
137.0
  0
VERTEX
  5
2C3
  8
DEFAULT
 10
191.4118689186871
 20
145.3911228705563
 30
137.0
  0
VERTEX
  5
2C4
  8
DEFAULT
 10
191.3925323486328
 20
145.3635844406106
 30
137.0
  0
VERTEX
  5
2C5
  8
DEFAULT
 10
191.3737364895642
 20
145.3355052996793
 30
137.0
  0
VERTEX
  5
2C6
  8
DEFAULT
 10
191.3554790616035
 20
145.3068877276399
 30
137.0
  0
VERTEX
  5
2C7
  8
DEFAULT
 10
191.3377575166523
 20
145.2777342725911
 30
137.0
  0
VERTEX
  5
2C8
  8
DEFAULT
 10
191.3205690383911
 20
145.2480477508523
 30
137.0
  0
VERTEX
  5
2C9
  8
DEFAULT
 10
191.3039105422795
 20
145.217831246964
 30
137.0
  0
VERTEX
  5
2CA
  8
DEFAULT
 10
191.2877786755562
 20
145.1870881136873
 30
137.0
  0
VERTEX
  5
2CB
  8
DEFAULT
 10
191.272169817239
 20
145.1558219720044
 30
137.0
  0
VERTEX
  5
2CC
  8
DEFAULT
 10
191.257080078125
 20
145.1240367111184
 30
137.0
  0
VERTEX
  5
2CD
  8
DEFAULT
 10
191.2425053007901
 20
145.0917364884534
 30
137.0
  0
VERTEX
  5
2CE
  8
DEFAULT
 10
191.2284410595894
 20
145.058925729654
 30
137.0
  0
VERTEX
  5
2CF
  8
DEFAULT
 10
191.2148826606572
 20
145.0256091285863
 30
137.0
  0
VERTEX
  5
2D0
  8
DEFAULT
 10
191.2018251419067
 20
144.9917916473367
 30
137.0
  0
VERTEX
  5
2D1
  8
DEFAULT
 10
191.1771915555
 20
144.9226752337434
 30
137.0
  0
VERTEX
  5
2D2
  8
DEFAULT
 10
191.1544952392578
 20
144.8516215499856
 30
137.0
  0
VERTEX
  5
2D3
  8
DEFAULT
 10
191.1336868405342
 20
144.7786799487092
 30
137.0
  0
VERTEX
  5
2D4
  8
DEFAULT
 10
191.1147127151489
 20
144.7039040740945
 30
137.0
  0
VERTEX
  5
2D5
  8
DEFAULT
 10
191.0975149273872
 20
144.6273518618562
 30
137.0
  0
VERTEX
  5
2D6
  8
DEFAULT
 10
191.08203125
 20
144.5490855392434
 30
137.0
  0
VERTEX
  5
2D7
  8
DEFAULT
 10
191.0681951642036
 20
144.4691716250398
 30
137.0
  0
VERTEX
  5
2D8
  8
DEFAULT
 10
191.0559358596802
 20
144.3876809295633
 30
137.0
  0
VERTEX
  5
2D9
  8
DEFAULT
 10
191.0451782345772
 20
144.3046885546663
 30
137.0
  0
VERTEX
  5
2DA
  8
DEFAULT
 10
191.0358428955078
 20
144.2202738937356
 30
137.0
  0
VERTEX
  5
2DB
  8
DEFAULT
 10
191.0211000442505
 20
144.0475167449929
 30
137.0
  0
VERTEX
  5
2DC
  8
DEFAULT
 10
191.010986328125
 20
143.8701304611184
 30
137.0
  0
VERTEX
  5
2DD
  8
DEFAULT
 10
191.0014190673828
 20
143.5046977218606
 30
137.0
  0
VERTEX
  5
2DE
  8
DEFAULT
 10
191.0
 20
143.1311167892434
 30
137.0
  0
VERTEX
  5
2DF
  8
DEFAULT
 10
191.0000000000001
 20
116.1311167892433
 30
137.0
  0
VERTEX
  5
2E0
  8
DEFAULT
 10
191.0014190673829
 20
115.7575358566261
 30
137.0
  0
VERTEX
  5
2E1
  8
DEFAULT
 10
191.0109863281251
 20
115.3921031173683
 30
137.0
  0
VERTEX
  5
2E2
  8
DEFAULT
 10
191.0211000442505
 20
115.2147168334938
 30
137.0
  0
VERTEX
  5
2E3
  8
DEFAULT
 10
191.0358428955079
 20
115.0419596847512
 30
137.0
  0
VERTEX
  5
2E4
  8
DEFAULT
 10
191.0451782345772
 20
114.9575450238205
 30
137.0
  0
VERTEX
  5
2E5
  8
DEFAULT
 10
191.0559358596802
 20
114.8745526489235
 30
137.0
  0
VERTEX
  5
2E6
  8
DEFAULT
 10
191.0681951642037
 20
114.793061953447
 30
137.0
  0
VERTEX
  5
2E7
  8
DEFAULT
 10
191.0820312500001
 20
114.7131480392434
 30
137.0
  0
VERTEX
  5
2E8
  8
DEFAULT
 10
191.0975149273874
 20
114.6348817166306
 30
137.0
  0
VERTEX
  5
2E9
  8
DEFAULT
 10
191.114712715149
 20
114.5583295043923
 30
137.0
  0
VERTEX
  5
2EA
  8
DEFAULT
 10
191.1336868405343
 20
114.4835536297776
 30
137.0
  0
VERTEX
  5
2EB
  8
DEFAULT
 10
191.1544952392579
 20
114.4106120285012
 30
137.0
  0
VERTEX
  5
2EC
  8
DEFAULT
 10
191.1771915555001
 20
114.3395583447434
 30
137.0
  0
VERTEX
  5
2ED
  8
DEFAULT
 10
191.2018251419069
 20
114.2704419311501
 30
137.0
  0
VERTEX
  5
2EE
  8
DEFAULT
 10
191.2148826606573
 20
114.2366244499006
 30
137.0
  0
VERTEX
  5
2EF
  8
DEFAULT
 10
191.2284410595895
 20
114.2033078488328
 30
137.0
  0
VERTEX
  5
2F0
  8
DEFAULT
 10
191.2425053007902
 20
114.1704970900335
 30
137.0
  0
VERTEX
  5
2F1
  8
DEFAULT
 10
191.2570800781251
 20
114.1381968673684
 30
137.0
  0
VERTEX
  5
2F2
  8
DEFAULT
 10
191.2721698172392
 20
114.1064116064825
 30
137.0
  0
VERTEX
  5
2F3
  8
DEFAULT
 10
191.2877786755564
 20
114.0751454647996
 30
137.0
  0
VERTEX
  5
2F4
  8
DEFAULT
 10
191.3039105422797
 20
114.0444023315229
 30
137.0
  0
VERTEX
  5
2F5
  8
DEFAULT
 10
191.3205690383913
 20
114.0141858276345
 30
137.0
  0
VERTEX
  5
2F6
  8
DEFAULT
 10
191.3377575166525
 20
113.9844993058958
 30
137.0
  0
VERTEX
  5
2F7
  8
DEFAULT
 10
191.3554790616037
 20
113.955345850847
 30
137.0
  0
VERTEX
  5
2F8
  8
DEFAULT
 10
191.3737364895644
 20
113.9267282788076
 30
137.0
  0
VERTEX
  5
2F9
  8
DEFAULT
 10
191.392532348633
 20
113.8986491378762
 30
137.0
  0
VERTEX
  5
2FA
  8
DEFAULT
 10
191.4118689186873
 20
113.8711107079305
 30
137.0
  0
VERTEX
  5
2FB
  8
DEFAULT
 10
191.431748211384
 20
113.8441150006273
 30
137.0
  0
VERTEX
  5
2FC
  8
DEFAULT
 10
191.452171970159
 20
113.8176637594023
 30
137.0
  0
VERTEX
  5
2FD
  8
DEFAULT
 10
191.4731416702272
 20
113.7917584594705
 30
137.0
  0
VERTEX
  5
2FE
  8
DEFAULT
 10
191.4946585185828
 20
113.766400307826
 30
137.0
  0
VERTEX
  5
2FF
  8
DEFAULT
 10
191.5167234539987
 20
113.741590243242
 30
137.0
  0
VERTEX
  5
300
  8
DEFAULT
 10
191.5393371470274
 20
113.7173289362707
 30
137.0
  0
VERTEX
  5
301
  8
DEFAULT
 10
191.5625000000002
 20
113.6936167892434
 30
137.0
  0
VERTEX
  5
302
  8
DEFAULT
 10
191.5862121470274
 20
113.6704539362707
 30
137.0
  0
VERTEX
  5
303
  8
DEFAULT
 10
191.6104734539987
 20
113.647840243242
 30
137.0
  0
VERTEX
  5
304
  8
DEFAULT
 10
191.6352835185828
 20
113.625775307826
 30
137.0
  0
VERTEX
  5
305
  8
DEFAULT
 10
191.6606416702272
 20
113.6042584594705
 30
137.0
  0
VERTEX
  5
306
  8
DEFAULT
 10
191.686546970159
 20
113.5832887594023
 30
137.0
  0
VERTEX
  5
307
  8
DEFAULT
 10
191.712998211384
 20
113.5628650006273
 30
137.0
  0
VERTEX
  5
308
  8
DEFAULT
 10
191.7399939186873
 20
113.5429857079306
 30
137.0
  0
VERTEX
  5
309
  8
DEFAULT
 10
191.767532348633
 20
113.5236491378763
 30
137.0
  0
VERTEX
  5
30A
  8
DEFAULT
 10
191.7956114895644
 20
113.5048532788076
 30
137.0
  0
VERTEX
  5
30B
  8
DEFAULT
 10
191.8242290616037
 20
113.486595850847
 30
137.0
  0
VERTEX
  5
30C
  8
DEFAULT
 10
191.8533825166525
 20
113.4688743058958
 30
137.0
  0
VERTEX
  5
30D
  8
DEFAULT
 10
191.8830690383913
 20
113.4516858276346
 30
137.0
  0
VERTEX
  5
30E
  8
DEFAULT
 10
191.9132855422797
 20
113.4350273315229
 30
137.0
  0
VERTEX
  5
30F
  8
DEFAULT
 10
191.9440286755564
 20
113.4188954647996
 30
137.0
  0
VERTEX
  5
310
  8
DEFAULT
 10
191.9752948172392
 20
113.4032866064825
 30
137.0
  0
VERTEX
  5
311
  8
DEFAULT
 10
192.0070800781252
 20
113.3881968673685
 30
137.0
  0
VERTEX
  5
312
  8
DEFAULT
 10
192.0393803007902
 20
113.3736220900335
 30
137.0
  0
VERTEX
  5
313
  8
DEFAULT
 10
192.0721910595896
 20
113.3595578488329
 30
137.0
  0
VERTEX
  5
314
  8
DEFAULT
 10
192.1055076606573
 20
113.3459994499006
 30
137.0
  0
VERTEX
  5
315
  8
DEFAULT
 10
192.1393251419069
 20
113.3329419311502
 30
137.0
  0
VERTEX
  5
316
  8
DEFAULT
 10
192.2084415555002
 20
113.3083083447435
 30
137.0
  0
VERTEX
  5
317
  8
DEFAULT
 10
192.279495239258
 20
113.2856120285013
 30
137.0
  0
VERTEX
  5
318
  8
DEFAULT
 10
192.3524368405344
 20
113.2648036297777
 30
137.0
  0
VERTEX
  5
319
  8
DEFAULT
 10
192.4272127151491
 20
113.2458295043924
 30
137.0
  0
VERTEX
  5
31A
  8
DEFAULT
 10
192.5037649273874
 20
113.2286317166307
 30
137.0
  0
VERTEX
  5
31B
  8
DEFAULT
 10
192.5820312500002
 20
113.2131480392435
 30
137.0
  0
VERTEX
  5
31C
  8
DEFAULT
 10
192.6619451642038
 20
113.1993119534471
 30
137.0
  0
VERTEX
  5
31D
  8
DEFAULT
 10
192.7434358596803
 20
113.1870526489237
 30
137.0
  0
VERTEX
  5
31E
  8
DEFAULT
 10
192.8264282345773
 20
113.1762950238207
 30
137.0
  0
VERTEX
  5
31F
  8
DEFAULT
 10
192.910842895508
 20
113.1669596847513
 30
137.0
  0
VERTEX
  5
320
  8
DEFAULT
 10
193.0836000442506
 20
113.152216833494
 30
137.0
  0
VERTEX
  5
321
  8
DEFAULT
 10
193.2609863281251
 20
113.1421031173685
 30
137.0
  0
VERTEX
  5
322
  8
DEFAULT
 10
193.6264190673829
 20
113.1325358566263
 30
137.0
  0
VERTEX
  5
323
  8
DEFAULT
 10
194.0
 20
113.1311167892435
 30
137.0
  0
VERTEX
  5
324
  8
DEFAULT
 10
204.9999999999999
 20
113.1311167892434
 30
137.0
  0
VERTEX
  5
325
  8
DEFAULT
 10
205.3735809326172
 20
113.1325358566262
 30
137.0
  0
VERTEX
  5
326
  8
DEFAULT
 10
205.739013671875
 20
113.1421031173684
 30
137.0
  0
VERTEX
  5
327
  8
DEFAULT
 10
205.9163999557495
 20
113.1522168334939
 30
137.0
  0
VERTEX
  5
328
  8
DEFAULT
 10
206.0891571044922
 20
113.1669596847512
 30
137.0
  0
VERTEX
  5
329
  8
DEFAULT
 10
206.1735717654228
 20
113.1762950238206
 30
137.0
  0
VERTEX
  5
32A
  8
DEFAULT
 10
206.2565641403198
 20
113.1870526489236
 30
137.0
  0
VERTEX
  5
32B
  8
DEFAULT
 10
206.3380548357964
 20
113.1993119534471
 30
137.0
  0
VERTEX
  5
32C
  8
DEFAULT
 10
206.41796875
 20
113.2131480392434
 30
137.0
  0
VERTEX
  5
32D
  8
DEFAULT
 10
206.4962350726128
 20
113.2286317166307
 30
137.0
  0
VERTEX
  5
32E
  8
DEFAULT
 10
206.5727872848511
 20
113.2458295043924
 30
137.0
  0
VERTEX
  5
32F
  8
DEFAULT
 10
206.6475631594658
 20
113.2648036297776
 30
137.0
  0
VERTEX
  5
330
  8
DEFAULT
 10
206.7205047607422
 20
113.2856120285012
 30
137.0
  0
VERTEX
  5
331
  8
DEFAULT
 10
206.7915584445
 20
113.3083083447435
 30
137.0
  0
VERTEX
  5
332
  8
DEFAULT
 10
206.8606748580933
 20
113.3329419311502
 30
137.0
  0
VERTEX
  5
333
  8
DEFAULT
 10
206.8944923393429
 20
113.3459994499006
 30
137.0
  0
VERTEX
  5
334
  8
DEFAULT
 10
206.9278089404107
 20
113.3595578488328
 30
137.0
  0
VERTEX
  5
335
  8
DEFAULT
 10
206.96061969921
 20
113.3736220900335
 30
137.0
  0
VERTEX
  5
336
  8
DEFAULT
 10
206.992919921875
 20
113.3881968673684
 30
137.0
  0
VERTEX
  5
337
  8
DEFAULT
 10
207.024705182761
 20
113.4032866064825
 30
137.0
  0
VERTEX
  5
338
  8
DEFAULT
 10
207.0559713244438
 20
113.4188954647996
 30
137.0
  0
VERTEX
  5
339
  8
DEFAULT
 10
207.0867144577205
 20
113.4350273315229
 30
137.0
  0
VERTEX
  5
33A
  8
DEFAULT
 10
207.1169309616089
 20
113.4516858276346
 30
137.0
  0
VERTEX
  5
33B
  8
DEFAULT
 10
207.1466174833477
 20
113.4688743058958
 30
137.0
  0
VERTEX
  5
33C
  8
DEFAULT
 10
207.1757709383965
 20
113.486595850847
 30
137.0
  0
VERTEX
  5
33D
  8
DEFAULT
 10
207.2043885104358
 20
113.5048532788076
 30
137.0
  0
VERTEX
  5
33E
  8
DEFAULT
 10
207.2324676513672
 20
113.5236491378763
 30
137.0
  0
VERTEX
  5
33F
  8
DEFAULT
 10
207.2600060813129
 20
113.5429857079306
 30
137.0
  0
VERTEX
  5
340
  8
DEFAULT
 10
207.2870017886162
 20
113.5628650006273
 30
137.0
  0
VERTEX
  5
341
  8
DEFAULT
 10
207.3134530298412
 20
113.5832887594023
 30
137.0
  0
VERTEX
  5
342
  8
DEFAULT
 10
207.3393583297729
 20
113.6042584594705
 30
137.0
  0
VERTEX
  5
343
  8
DEFAULT
 10
207.3647164814174
 20
113.625775307826
 30
137.0
  0
VERTEX
  5
344
  8
DEFAULT
 10
207.3895265460015
 20
113.6478402432421
 30
137.0
  0
VERTEX
  5
345
  8
DEFAULT
 10
207.4137878529728
 20
113.6704539362707
 30
137.0
  0
VERTEX
  5
346
  8
DEFAULT
 10
207.4375
 20
113.6936167892435
 30
137.0
  0
VERTEX
  5
347
  8
DEFAULT
 10
207.4606628529727
 20
113.7173289362707
 30
137.0
  0
VERTEX
  5
348
  8
DEFAULT
 10
207.4832765460014
 20
113.741590243242
 30
137.0
  0
VERTEX
  5
349
  8
DEFAULT
 10
207.5053414814174
 20
113.766400307826
 30
137.0
  0
VERTEX
  5
34A
  8
DEFAULT
 10
207.526858329773
 20
113.7917584594705
 30
137.0
  0
VERTEX
  5
34B
  8
DEFAULT
 10
207.5478280298412
 20
113.8176637594023
 30
137.0
  0
VERTEX
  5
34C
  8
DEFAULT
 10
207.5682517886162
 20
113.8441150006273
 30
137.0
  0
VERTEX
  5
34D
  8
DEFAULT
 10
207.588131081313
 20
113.8711107079306
 30
137.0
  0
VERTEX
  5
34E
  8
DEFAULT
 10
207.6074676513672
 20
113.8986491378763
 30
137.0
  0
VERTEX
  5
34F
  8
DEFAULT
 10
207.6262635104358
 20
113.9267282788077
 30
137.0
  0
VERTEX
  5
350
  8
DEFAULT
 10
207.6445209383965
 20
113.955345850847
 30
137.0
  0
VERTEX
  5
351
  8
DEFAULT
 10
207.6622424833477
 20
113.9844993058958
 30
137.0
  0
VERTEX
  5
352
  8
DEFAULT
 10
207.6794309616089
 20
114.0141858276346
 30
137.0
  0
VERTEX
  5
353
  8
DEFAULT
 10
207.6960894577205
 20
114.044402331523
 30
137.0
  0
VERTEX
  5
354
  8
DEFAULT
 10
207.7122213244438
 20
114.0751454647997
 30
137.0
  0
VERTEX
  5
355
  8
DEFAULT
 10
207.727830182761
 20
114.1064116064825
 30
137.0
  0
VERTEX
  5
356
  8
DEFAULT
 10
207.742919921875
 20
114.1381968673685
 30
137.0
  0
VERTEX
  5
357
  8
DEFAULT
 10
207.7574946992099
 20
114.1704970900336
 30
137.0
  0
VERTEX
  5
358
  8
DEFAULT
 10
207.7715589404106
 20
114.2033078488329
 30
137.0
  0
VERTEX
  5
359
  8
DEFAULT
 10
207.7851173393428
 20
114.2366244499007
 30
137.0
  0
VERTEX
  5
35A
  8
DEFAULT
 10
207.7981748580933
 20
114.2704419311503
 30
137.0
  0
VERTEX
  5
35B
  8
DEFAULT
 10
207.8228084445
 20
114.3395583447436
 30
137.0
  0
VERTEX
  5
35C
  8
DEFAULT
 10
207.8455047607422
 20
114.4106120285013
 30
137.0
  0
VERTEX
  5
35D
  8
DEFAULT
 10
207.8663131594658
 20
114.4835536297777
 30
137.0
  0
VERTEX
  5
35E
  8
DEFAULT
 10
207.8852872848511
 20
114.5583295043925
 30
137.0
  0
VERTEX
  5
35F
  8
DEFAULT
 10
207.9024850726128
 20
114.6348817166308
 30
137.0
  0
VERTEX
  5
360
  8
DEFAULT
 10
207.91796875
 20
114.7131480392435
 30
137.0
  0
VERTEX
  5
361
  8
DEFAULT
 10
207.9318048357964
 20
114.7930619534472
 30
137.0
  0
VERTEX
  5
362
  8
DEFAULT
 10
207.9440641403198
 20
114.8745526489237
 30
137.0
  0
VERTEX
  5
363
  8
DEFAULT
 10
207.9548217654228
 20
114.9575450238207
 30
137.0
  0
VERTEX
  5
364
  8
DEFAULT
 10
207.9641571044922
 20
115.0419596847514
 30
137.0
  0
VERTEX
  5
365
  8
DEFAULT
 10
207.9788999557495
 20
115.214716833494
 30
137.0
  0
VERTEX
  5
366
  8
DEFAULT
 10
207.9890136718749
 20
115.3921031173685
 30
137.0
  0
VERTEX
  5
367
  8
DEFAULT
 10
207.9985809326171
 20
115.7575358566264
 30
137.0
  0
VERTEX
  5
368
  8
DEFAULT
 10
207.9999999999999
 20
116.1311167892435
 30
137.0
  0
VERTEX
  5
369
  8
DEFAULT
 10
199.5
 20
116.1311167892434
 30
137.0
  0
VERTEX
  5
36A
  8
DEFAULT
 10
199.5
 20
119.1311167892434
 30
137.0
  0
VERTEX
  5
36B
  8
DEFAULT
 10
208.0
 20
119.1311167892434
 30
137.0
  0
VERTEX
  5
36C
  8
DEFAULT
 10
208.0
 20
140.1311167892434
 30
137.0
  0
VERTEX
  5
36D
  8
DEFAULT
 10
199.5
 20
140.1311167892434
 30
137.0
  0
VERTEX
  5
36E
  8
DEFAULT
 10
199.5
 20
143.1311167892434
 30
137.0
  0
VERTEX
  5
36F
  8
DEFAULT
 10
208.0
 20
143.1311167892435
 30
137.0
  0
VERTEX
  5
370
  8
DEFAULT
 10
207.9985809326171
 20
143.5046977218607
 30
137.0
  0
VERTEX
  5
371
  8
DEFAULT
 10
207.9890136718749
 20
143.8701304611185
 30
137.0
  0
VERTEX
  5
372
  8
DEFAULT
 10
207.9788999557495
 20
144.047516744993
 30
137.0
  0
VERTEX
  5
373
  8
DEFAULT
 10
207.9641571044921
 20
144.2202738937357
 30
137.0
  0
VERTEX
  5
374
  8
DEFAULT
 10
207.9548217654228
 20
144.3046885546663
 30
137.0
  0
VERTEX
  5
375
  8
DEFAULT
 10
207.9440641403198
 20
144.3876809295633
 30
137.0
  0
VERTEX
  5
376
  8
DEFAULT
 10
207.9318048357963
 20
144.4691716250398
 30
137.0
  0
VERTEX
  5
377
  8
DEFAULT
 10
207.9179687499999
 20
144.5490855392435
 30
137.0
  0
VERTEX
  5
378
  8
DEFAULT
 10
207.9024850726127
 20
144.6273518618563
 30
137.0
  0
VERTEX
  5
379
  8
DEFAULT
 10
207.885287284851
 20
144.7039040740946
 30
137.0
  0
VERTEX
  5
37A
  8
DEFAULT
 10
207.8663131594657
 20
144.7786799487093
 30
137.0
  0
VERTEX
  5
37B
  8
DEFAULT
 10
207.8455047607421
 20
144.8516215499857
 30
137.0
  0
VERTEX
  5
37C
  8
DEFAULT
 10
207.8228084444999
 20
144.9226752337435
 30
137.0
  0
VERTEX
  5
37D
  8
DEFAULT
 10
207.7981748580931
 20
144.9917916473368
 30
137.0
  0
VERTEX
  5
37E
  8
DEFAULT
 10
207.7851173393427
 20
145.0256091285863
 30
137.0
  0
VERTEX
  5
37F
  8
DEFAULT
 10
207.7715589404105
 20
145.0589257296541
 30
137.0
  0
VERTEX
  5
380
  8
DEFAULT
 10
207.7574946992098
 20
145.0917364884534
 30
137.0
  0
VERTEX
  5
381
  8
DEFAULT
 10
207.7429199218749
 20
145.1240367111185
 30
137.0
  0
VERTEX
  5
382
  8
DEFAULT
 10
207.7278301827608
 20
145.1558219720044
 30
137.0
  0
VERTEX
  5
383
  8
DEFAULT
 10
207.7122213244437
 20
145.1870881136873
 30
137.0
  0
VERTEX
  5
384
  8
DEFAULT
 10
207.6960894577204
 20
145.217831246964
 30
137.0
  0
VERTEX
  5
385
  8
DEFAULT
 10
207.6794309616088
 20
145.2480477508524
 30
137.0
  0
VERTEX
  5
386
  8
DEFAULT
 10
207.6622424833475
 20
145.2777342725911
 30
137.0
  0
VERTEX
  5
387
  8
DEFAULT
 10
207.6445209383963
 20
145.3068877276399
 30
137.0
  0
VERTEX
  5
388
  8
DEFAULT
 10
207.6262635104357
 20
145.3355052996793
 30
137.0
  0
VERTEX
  5
389
  8
DEFAULT
 10
207.6074676513671
 20
145.3635844406107
 30
137.0
  0
VERTEX
  5
38A
  8
DEFAULT
 10
207.5881310813128
 20
145.3911228705564
 30
137.0
  0
VERTEX
  5
38B
  8
DEFAULT
 10
207.5682517886161
 20
145.4181185778596
 30
137.0
  0
VERTEX
  5
38C
  8
DEFAULT
 10
207.5478280298411
 20
145.4445698190846
 30
137.0
  0
VERTEX
  5
38D
  8
DEFAULT
 10
207.5268583297728
 20
145.4704751190164
 30
137.0
  0
VERTEX
  5
38E
  8
DEFAULT
 10
207.5053414814173
 20
145.4958332706609
 30
137.0
  0
VERTEX
  5
38F
  8
DEFAULT
 10
207.4832765460013
 20
145.5206433352449
 30
137.0
  0
VERTEX
  5
390
  8
DEFAULT
 10
207.4606628529726
 20
145.5449046422162
 30
137.0
  0
VERTEX
  5
391
  8
DEFAULT
 10
207.4374999999999
 20
145.5686167892435
 30
137.0
  0
VERTEX
  5
392
  8
DEFAULT
 10
207.4137878529726
 20
145.5917796422162
 30
137.0
  0
VERTEX
  5
393
  8
DEFAULT
 10
207.3895265460013
 20
145.6143933352449
 30
137.0
  0
VERTEX
  5
394
  8
DEFAULT
 10
207.3647164814173
 20
145.6364582706609
 30
137.0
  0
VERTEX
  5
395
  8
DEFAULT
 10
207.3393583297728
 20
145.6579751190164
 30
137.0
  0
VERTEX
  5
396
  8
DEFAULT
 10
207.3134530298411
 20
145.6789448190847
 30
137.0
  0
VERTEX
  5
397
  8
DEFAULT
 10
207.2870017886161
 20
145.6993685778597
 30
137.0
  0
VERTEX
  5
398
  8
DEFAULT
 10
207.2600060813128
 20
145.7192478705564
 30
137.0
  0
VERTEX
  5
399
  8
DEFAULT
 10
207.2324676513671
 20
145.7385844406107
 30
137.0
  0
VERTEX
  5
39A
  8
DEFAULT
 10
207.2043885104357
 20
145.7573802996793
 30
137.0
  0
VERTEX
  5
39B
  8
DEFAULT
 10
207.1757709383963
 20
145.7756377276399
 30
137.0
  0
VERTEX
  5
39C
  8
DEFAULT
 10
207.1466174833475
 20
145.7933592725911
 30
137.0
  0
VERTEX
  5
39D
  8
DEFAULT
 10
207.1169309616088
 20
145.8105477508523
 30
137.0
  0
VERTEX
  5
39E
  8
DEFAULT
 10
207.0867144577204
 20
145.827206246964
 30
137.0
  0
VERTEX
  5
39F
  8
DEFAULT
 10
207.0559713244437
 20
145.8433381136873
 30
137.0
  0
VERTEX
  5
3A0
  8
DEFAULT
 10
207.0247051827608
 20
145.8589469720044
 30
137.0
  0
VERTEX
  5
3A1
  8
DEFAULT
 10
206.9929199218749
 20
145.8740367111184
 30
137.0
  0
VERTEX
  5
3A2
  8
DEFAULT
 10
206.9606196992099
 20
145.8886114884534
 30
137.0
  0
VERTEX
  5
3A3
  8
DEFAULT
 10
206.9278089404106
 20
145.902675729654
 30
137.0
  0
VERTEX
  5
3A4
  8
DEFAULT
 10
206.8944923393428
 20
145.9162341285863
 30
137.0
  0
VERTEX
  5
3A5
  8
DEFAULT
 10
206.8606748580932
 20
145.9292916473367
 30
137.0
  0
VERTEX
  5
3A6
  8
DEFAULT
 10
206.7915584444999
 20
145.9539252337434
 30
137.0
  0
VERTEX
  5
3A7
  8
DEFAULT
 10
206.7205047607421
 20
145.9766215499856
 30
137.0
  0
VERTEX
  5
3A8
  8
DEFAULT
 10
206.6475631594657
 20
145.9974299487092
 30
137.0
  0
VERTEX
  5
3A9
  8
DEFAULT
 10
206.572787284851
 20
146.0164040740945
 30
137.0
  0
VERTEX
  5
3AA
  8
DEFAULT
 10
206.4962350726127
 20
146.0336018618562
 30
137.0
  0
VERTEX
  5
3AB
  8
DEFAULT
 10
206.4179687499999
 20
146.0490855392434
 30
137.0
  0
VERTEX
  5
3AC
  8
DEFAULT
 10
206.3380548357963
 20
146.0629216250398
 30
137.0
  0
VERTEX
  5
3AD
  8
DEFAULT
 10
206.2565641403198
 20
146.0751809295633
 30
137.0
  0
VERTEX
  5
3AE
  8
DEFAULT
 10
206.1735717654228
 20
146.0859385546663
 30
137.0
  0
VERTEX
  5
3AF
  8
DEFAULT
 10
206.0891571044922
 20
146.0952738937356
 30
137.0
  0
VERTEX
  5
3B0
  8
DEFAULT
 10
205.9163999557495
 20
146.1100167449929
 30
137.0
  0
VERTEX
  5
3B1
  8
DEFAULT
 10
205.739013671875
 20
146.1201304611184
 30
137.0
  0
VERTEX
  5
3B2
  8
DEFAULT
 10
205.3735809326172
 20
146.1296977218606
 30
137.0
  0
SEQEND
  5
3B3
  8
DEFAULT
  0
POLYLINE
  5
3B4
  8
DEFAULT
 66
     1
 10
0.0
 20
0.0
 30
137.0
 70
     1
  0
VERTEX
  5
3B5
  8
DEFAULT
 10
213.0000000000001
 20
146.5
 30
137.0
  0
VERTEX
  5
3B6
  8
DEFAULT
 10
213.0
 20
130.0
 30
137.0
  0
VERTEX
  5
3B7
  8
DEFAULT
 10
216.0
 20
130.0
 30
137.0
  0
VERTEX
  5
3B8
  8
DEFAULT
 10
216.0
 20
146.5
 30
137.0
  0
VERTEX
  5
3B9
  8
DEFAULT
 10
237.0
 20
146.5
 30
137.0
  0
VERTEX
  5
3BA
  8
DEFAULT
 10
237.0
 20
130.0
 30
137.0
  0
VERTEX
  5
3BB
  8
DEFAULT
 10
240.0
 20
130.0
 30
137.0
  0
VERTEX
  5
3BC
  8
DEFAULT
 10
239.9999999999999
 20
146.5
 30
137.0
  0
VERTEX
  5
3BD
  8
DEFAULT
 10
240.3735809326171
 20
146.4985809326172
 30
137.0
  0
VERTEX
  5
3BE
  8
DEFAULT
 10
240.7390136718749
 20
146.489013671875
 30
137.0
  0
VERTEX
  5
3BF
  8
DEFAULT
 10
240.9163999557495
 20
146.4788999557495
 30
137.0
  0
VERTEX
  5
3C0
  8
DEFAULT
 10
241.0891571044921
 20
146.4641571044922
 30
137.0
  0
VERTEX
  5
3C1
  8
DEFAULT
 10
241.1735717654228
 20
146.4548217654228
 30
137.0
  0
VERTEX
  5
3C2
  8
DEFAULT
 10
241.2565641403198
 20
146.4440641403198
 30
137.0
  0
VERTEX
  5
3C3
  8
DEFAULT
 10
241.3380548357963
 20
146.4318048357964
 30
137.0
  0
VERTEX
  5
3C4
  8
DEFAULT
 10
241.4179687499999
 20
146.41796875
 30
137.0
  0
VERTEX
  5
3C5
  8
DEFAULT
 10
241.4962350726127
 20
146.4024850726128
 30
137.0
  0
VERTEX
  5
3C6
  8
DEFAULT
 10
241.572787284851
 20
146.3852872848511
 30
137.0
  0
VERTEX
  5
3C7
  8
DEFAULT
 10
241.6475631594657
 20
146.3663131594658
 30
137.0
  0
VERTEX
  5
3C8
  8
DEFAULT
 10
241.7205047607421
 20
146.3455047607422
 30
137.0
  0
VERTEX
  5
3C9
  8
DEFAULT
 10
241.7915584444999
 20
146.3228084445
 30
137.0
  0
VERTEX
  5
3CA
  8
DEFAULT
 10
241.8606748580932
 20
146.2981748580933
 30
137.0
  0
VERTEX
  5
3CB
  8
DEFAULT
 10
241.8944923393428
 20
146.2851173393428
 30
137.0
  0
VERTEX
  5
3CC
  8
DEFAULT
 10
241.9278089404106
 20
146.2715589404106
 30
137.0
  0
VERTEX
  5
3CD
  8
DEFAULT
 10
241.9606196992099
 20
146.2574946992099
 30
137.0
  0
VERTEX
  5
3CE
  8
DEFAULT
 10
241.9929199218749
 20
146.242919921875
 30
137.0
  0
VERTEX
  5
3CF
  8
DEFAULT
 10
242.0247051827609
 20
146.227830182761
 30
137.0
  0
VERTEX
  5
3D0
  8
DEFAULT
 10
242.0559713244438
 20
146.2122213244438
 30
137.0
  0
VERTEX
  5
3D1
  8
DEFAULT
 10
242.0867144577205
 20
146.1960894577205
 30
137.0
  0
VERTEX
  5
3D2
  8
DEFAULT
 10
242.1169309616088
 20
146.1794309616089
 30
137.0
  0
VERTEX
  5
3D3
  8
DEFAULT
 10
242.1466174833476
 20
146.1622424833477
 30
137.0
  0
VERTEX
  5
3D4
  8
DEFAULT
 10
242.1757709383964
 20
146.1445209383965
 30
137.0
  0
VERTEX
  5
3D5
  8
DEFAULT
 10
242.2043885104358
 20
146.1262635104358
 30
137.0
  0
VERTEX
  5
3D6
  8
DEFAULT
 10
242.2324676513671
 20
146.1074676513672
 30
137.0
  0
VERTEX
  5
3D7
  8
DEFAULT
 10
242.2600060813128
 20
146.0881310813129
 30
137.0
  0
VERTEX
  5
3D8
  8
DEFAULT
 10
242.2870017886161
 20
146.0682517886162
 30
137.0
  0
VERTEX
  5
3D9
  8
DEFAULT
 10
242.3134530298411
 20
146.0478280298412
 30
137.0
  0
VERTEX
  5
3DA
  8
DEFAULT
 10
242.3393583297729
 20
146.0268583297729
 30
137.0
  0
VERTEX
  5
3DB
  8
DEFAULT
 10
242.3647164814174
 20
146.0053414814174
 30
137.0
  0
VERTEX
  5
3DC
  8
DEFAULT
 10
242.3895265460014
 20
145.9832765460014
 30
137.0
  0
VERTEX
  5
3DD
  8
DEFAULT
 10
242.4137878529727
 20
145.9606628529727
 30
137.0
  0
VERTEX
  5
3DE
  8
DEFAULT
 10
242.4374999999999
 20
145.9375
 30
137.0
  0
VERTEX
  5
3DF
  8
DEFAULT
 10
242.4606628529727
 20
145.9137878529727
 30
137.0
  0
VERTEX
  5
3E0
  8
DEFAULT
 10
242.4832765460014
 20
145.8895265460014
 30
137.0
  0
VERTEX
  5
3E1
  8
DEFAULT
 10
242.5053414814174
 20
145.8647164814174
 30
137.0
  0
VERTEX
  5
3E2
  8
DEFAULT
 10
242.5268583297729
 20
145.8393583297729
 30
137.0
  0
VERTEX
  5
3E3
  8
DEFAULT
 10
242.5478280298411
 20
145.8134530298412
 30
137.0
  0
VERTEX
  5
3E4
  8
DEFAULT
 10
242.5682517886161
 20
145.7870017886162
 30
137.0
  0
VERTEX
  5
3E5
  8
DEFAULT
 10
242.5881310813128
 20
145.7600060813129
 30
137.0
  0
VERTEX
  5
3E6
  8
DEFAULT
 10
242.6074676513671
 20
145.7324676513672
 30
137.0
  0
VERTEX
  5
3E7
  8
DEFAULT
 10
242.6262635104358
 20
145.7043885104358
 30
137.0
  0
VERTEX
  5
3E8
  8
DEFAULT
 10
242.6445209383964
 20
145.6757709383965
 30
137.0
  0
VERTEX
  5
3E9
  8
DEFAULT
 10
242.6622424833476
 20
145.6466174833477
 30
137.0
  0
VERTEX
  5
3EA
  8
DEFAULT
 10
242.6794309616088
 20
145.6169309616089
 30
137.0
  0
VERTEX
  5
3EB
  8
DEFAULT
 10
242.6960894577205
 20
145.5867144577205
 30
137.0
  0
VERTEX
  5
3EC
  8
DEFAULT
 10
242.7122213244438
 20
145.5559713244438
 30
137.0
  0
VERTEX
  5
3ED
  8
DEFAULT
 10
242.7278301827609
 20
145.524705182761
 30
137.0
  0
VERTEX
  5
3EE
  8
DEFAULT
 10
242.7429199218749
 20
145.492919921875
 30
137.0
  0
VERTEX
  5
3EF
  8
DEFAULT
 10
242.7574946992099
 20
145.46061969921
 30
137.0
  0
VERTEX
  5
3F0
  8
DEFAULT
 10
242.7715589404106
 20
145.4278089404107
 30
137.0
  0
VERTEX
  5
3F1
  8
DEFAULT
 10
242.7851173393428
 20
145.3944923393429
 30
137.0
  0
VERTEX
  5
3F2
  8
DEFAULT
 10
242.7981748580932
 20
145.3606748580933
 30
137.0
  0
VERTEX
  5
3F3
  8
DEFAULT
 10
242.8228084444999
 20
145.2915584445
 30
137.0
  0
VERTEX
  5
3F4
  8
DEFAULT
 10
242.8455047607421
 20
145.2205047607422
 30
137.0
  0
VERTEX
  5
3F5
  8
DEFAULT
 10
242.8663131594657
 20
145.1475631594658
 30
137.0
  0
VERTEX
  5
3F6
  8
DEFAULT
 10
242.885287284851
 20
145.0727872848511
 30
137.0
  0
VERTEX
  5
3F7
  8
DEFAULT
 10
242.9024850726127
 20
144.9962350726128
 30
137.0
  0
VERTEX
  5
3F8
  8
DEFAULT
 10
242.9179687499999
 20
144.9179687500001
 30
137.0
  0
VERTEX
  5
3F9
  8
DEFAULT
 10
242.9318048357963
 20
144.8380548357964
 30
137.0
  0
VERTEX
  5
3FA
  8
DEFAULT
 10
242.9440641403198
 20
144.7565641403199
 30
137.0
  0
VERTEX
  5
3FB
  8
DEFAULT
 10
242.9548217654228
 20
144.6735717654228
 30
137.0
  0
VERTEX
  5
3FC
  8
DEFAULT
 10
242.9641571044921
 20
144.5891571044922
 30
137.0
  0
VERTEX
  5
3FD
  8
DEFAULT
 10
242.9788999557495
 20
144.4163999557495
 30
137.0
  0
VERTEX
  5
3FE
  8
DEFAULT
 10
242.9890136718749
 20
144.239013671875
 30
137.0
  0
VERTEX
  5
3FF
  8
DEFAULT
 10
242.9985809326171
 20
143.8735809326172
 30
137.0
  0
VERTEX
  5
400
  8
DEFAULT
 10
242.9999999999999
 20
143.5
 30
137.0
  0
VERTEX
  5
401
  8
DEFAULT
 10
243.0000000000001
 20
115.5
 30
137.0
  0
VERTEX
  5
402
  8
DEFAULT
 10
242.9985809326172
 20
115.1264190673828
 30
137.0
  0
VERTEX
  5
403
  8
DEFAULT
 10
242.9890136718751
 20
114.7609863281249
 30
137.0
  0
VERTEX
  5
404
  8
DEFAULT
 10
242.9788999557496
 20
114.5836000442504
 30
137.0
  0
VERTEX
  5
405
  8
DEFAULT
 10
242.9641571044922
 20
114.4108428955077
 30
137.0
  0
VERTEX
  5
406
  8
DEFAULT
 10
242.9548217654229
 20
114.3264282345771
 30
137.0
  0
VERTEX
  5
407
  8
DEFAULT
 10
242.9440641403199
 20
114.2434358596801
 30
137.0
  0
VERTEX
  5
408
  8
DEFAULT
 10
242.9318048357964
 20
114.1619451642036
 30
137.0
  0
VERTEX
  5
409
  8
DEFAULT
 10
242.9179687500001
 20
114.0820312499999
 30
137.0
  0
VERTEX
  5
40A
  8
DEFAULT
 10
242.9024850726128
 20
114.0037649273872
 30
137.0
  0
VERTEX
  5
40B
  8
DEFAULT
 10
242.8852872848511
 20
113.9272127151488
 30
137.0
  0
VERTEX
  5
40C
  8
DEFAULT
 10
242.8663131594658
 20
113.8524368405341
 30
137.0
  0
VERTEX
  5
40D
  8
DEFAULT
 10
242.8455047607422
 20
113.7794952392577
 30
137.0
  0
VERTEX
  5
40E
  8
DEFAULT
 10
242.8228084445
 20
113.7084415554999
 30
137.0
  0
VERTEX
  5
40F
  8
DEFAULT
 10
242.7981748580933
 20
113.6393251419066
 30
137.0
  0
VERTEX
  5
410
  8
DEFAULT
 10
242.7851173393429
 20
113.6055076606571
 30
137.0
  0
VERTEX
  5
411
  8
DEFAULT
 10
242.7715589404107
 20
113.5721910595893
 30
137.0
  0
VERTEX
  5
412
  8
DEFAULT
 10
242.75749469921
 20
113.53938030079
 30
137.0
  0
VERTEX
  5
413
  8
DEFAULT
 10
242.7429199218751
 20
113.5070800781249
 30
137.0
  0
VERTEX
  5
414
  8
DEFAULT
 10
242.727830182761
 20
113.4752948172389
 30
137.0
  0
VERTEX
  5
415
  8
DEFAULT
 10
242.7122213244439
 20
113.4440286755561
 30
137.0
  0
VERTEX
  5
416
  8
DEFAULT
 10
242.6960894577206
 20
113.4132855422794
 30
137.0
  0
VERTEX
  5
417
  8
DEFAULT
 10
242.6794309616089
 20
113.383069038391
 30
137.0
  0
VERTEX
  5
418
  8
DEFAULT
 10
242.6622424833477
 20
113.3533825166522
 30
137.0
  0
VERTEX
  5
419
  8
DEFAULT
 10
242.6445209383965
 20
113.3242290616035
 30
137.0
  0
VERTEX
  5
41A
  8
DEFAULT
 10
242.6262635104359
 20
113.2956114895641
 30
137.0
  0
VERTEX
  5
41B
  8
DEFAULT
 10
242.6074676513672
 20
113.2675323486327
 30
137.0
  0
VERTEX
  5
41C
  8
DEFAULT
 10
242.588131081313
 20
113.239993918687
 30
137.0
  0
VERTEX
  5
41D
  8
DEFAULT
 10
242.5682517886162
 20
113.2129982113837
 30
137.0
  0
VERTEX
  5
41E
  8
DEFAULT
 10
242.5478280298412
 20
113.1865469701587
 30
137.0
  0
VERTEX
  5
41F
  8
DEFAULT
 10
242.526858329773
 20
113.160641670227
 30
137.0
  0
VERTEX
  5
420
  8
DEFAULT
 10
242.5053414814174
 20
113.1352835185825
 30
137.0
  0
VERTEX
  5
421
  8
DEFAULT
 10
242.4832765460014
 20
113.1104734539985
 30
137.0
  0
VERTEX
  5
422
  8
DEFAULT
 10
242.4606628529727
 20
113.0862121470272
 30
137.0
  0
VERTEX
  5
423
  8
DEFAULT
 10
242.4375
 20
113.0624999999999
 30
137.0
  0
VERTEX
  5
424
  8
DEFAULT
 10
242.4137878529727
 20
113.0393371470272
 30
137.0
  0
VERTEX
  5
425
  8
DEFAULT
 10
242.3895265460014
 20
113.0167234539985
 30
137.0
  0
VERTEX
  5
426
  8
DEFAULT
 10
242.3647164814174
 20
112.9946585185825
 30
137.0
  0
VERTEX
  5
427
  8
DEFAULT
 10
242.3393583297729
 20
112.973141670227
 30
137.0
  0
VERTEX
  5
428
  8
DEFAULT
 10
242.3134530298412
 20
112.9521719701587
 30
137.0
  0
VERTEX
  5
429
  8
DEFAULT
 10
242.2870017886162
 20
112.9317482113837
 30
137.0
  0
VERTEX
  5
42A
  8
DEFAULT
 10
242.2600060813129
 20
112.911868918687
 30
137.0
  0
VERTEX
  5
42B
  8
DEFAULT
 10
242.2324676513672
 20
112.8925323486328
 30
137.0
  0
VERTEX
  5
42C
  8
DEFAULT
 10
242.2043885104358
 20
112.8737364895641
 30
137.0
  0
VERTEX
  5
42D
  8
DEFAULT
 10
242.1757709383965
 20
112.8554790616035
 30
137.0
  0
VERTEX
  5
42E
  8
DEFAULT
 10
242.1466174833477
 20
112.8377575166523
 30
137.0
  0
VERTEX
  5
42F
  8
DEFAULT
 10
242.1169309616089
 20
112.8205690383911
 30
137.0
  0
VERTEX
  5
430
  8
DEFAULT
 10
242.0867144577205
 20
112.8039105422794
 30
137.0
  0
VERTEX
  5
431
  8
DEFAULT
 10
242.0559713244438
 20
112.7877786755561
 30
137.0
  0
VERTEX
  5
432
  8
DEFAULT
 10
242.024705182761
 20
112.772169817239
 30
137.0
  0
VERTEX
  5
433
  8
DEFAULT
 10
241.992919921875
 20
112.7570800781249
 30
137.0
  0
VERTEX
  5
434
  8
DEFAULT
 10
241.9606196992099
 20
112.74250530079
 30
137.0
  0
VERTEX
  5
435
  8
DEFAULT
 10
241.9278089404106
 20
112.7284410595893
 30
137.0
  0
VERTEX
  5
436
  8
DEFAULT
 10
241.8944923393428
 20
112.7148826606571
 30
137.0
  0
VERTEX
  5
437
  8
DEFAULT
 10
241.8606748580933
 20
112.7018251419067
 30
137.0
  0
VERTEX
  5
438
  8
DEFAULT
 10
241.7915584445
 20
112.6771915555
 30
137.0
  0
VERTEX
  5
439
  8
DEFAULT
 10
241.7205047607422
 20
112.6544952392578
 30
137.0
  0
VERTEX
  5
43A
  8
DEFAULT
 10
241.6475631594657
 20
112.6336868405342
 30
137.0
  0
VERTEX
  5
43B
  8
DEFAULT
 10
241.572787284851
 20
112.6147127151489
 30
137.0
  0
VERTEX
  5
43C
  8
DEFAULT
 10
241.4962350726127
 20
112.5975149273872
 30
137.0
  0
VERTEX
  5
43D
  8
DEFAULT
 10
241.4179687499999
 20
112.58203125
 30
137.0
  0
VERTEX
  5
43E
  8
DEFAULT
 10
241.3380548357963
 20
112.5681951642036
 30
137.0
  0
VERTEX
  5
43F
  8
DEFAULT
 10
241.2565641403198
 20
112.5559358596802
 30
137.0
  0
VERTEX
  5
440
  8
DEFAULT
 10
241.1735717654228
 20
112.5451782345772
 30
137.0
  0
VERTEX
  5
441
  8
DEFAULT
 10
241.0891571044921
 20
112.5358428955078
 30
137.0
  0
VERTEX
  5
442
  8
DEFAULT
 10
240.9163999557495
 20
112.5211000442505
 30
137.0
  0
VERTEX
  5
443
  8
DEFAULT
 10
240.7390136718749
 20
112.510986328125
 30
137.0
  0
VERTEX
  5
444
  8
DEFAULT
 10
240.3735809326171
 20
112.5014190673828
 30
137.0
  0
VERTEX
  5
445
  8
DEFAULT
 10
239.9999999999999
 20
112.5
 30
137.0
  0
VERTEX
  5
446
  8
DEFAULT
 10
213.0
 20
112.5
 30
137.0
  0
VERTEX
  5
447
  8
DEFAULT
 10
212.6264190673828
 20
112.5014190673828
 30
137.0
  0
VERTEX
  5
448
  8
DEFAULT
 10
212.260986328125
 20
112.510986328125
 30
137.0
  0
VERTEX
  5
449
  8
DEFAULT
 10
212.0836000442505
 20
112.5211000442505
 30
137.0
  0
VERTEX
  5
44A
  8
DEFAULT
 10
211.9108428955078
 20
112.5358428955078
 30
137.0
  0
VERTEX
  5
44B
  8
DEFAULT
 10
211.8264282345772
 20
112.5451782345772
 30
137.0
  0
VERTEX
  5
44C
  8
DEFAULT
 10
211.7434358596802
 20
112.5559358596802
 30
137.0
  0
VERTEX
  5
44D
  8
DEFAULT
 10
211.6619451642036
 20
112.5681951642036
 30
137.0
  0
VERTEX
  5
44E
  8
DEFAULT
 10
211.58203125
 20
112.58203125
 30
137.0
  0
VERTEX
  5
44F
  8
DEFAULT
 10
211.5037649273872
 20
112.5975149273872
 30
137.0
  0
VERTEX
  5
450
  8
DEFAULT
 10
211.4272127151489
 20
112.6147127151489
 30
137.0
  0
VERTEX
  5
451
  8
DEFAULT
 10
211.3524368405342
 20
112.6336868405342
 30
137.0
  0
VERTEX
  5
452
  8
DEFAULT
 10
211.2794952392578
 20
112.6544952392578
 30
137.0
  0
VERTEX
  5
453
  8
DEFAULT
 10
211.2084415555
 20
112.6771915555
 30
137.0
  0
VERTEX
  5
454
  8
DEFAULT
 10
211.1393251419067
 20
112.7018251419067
 30
137.0
  0
VERTEX
  5
455
  8
DEFAULT
 10
211.1055076606572
 20
112.7148826606572
 30
137.0
  0
VERTEX
  5
456
  8
DEFAULT
 10
211.0721910595894
 20
112.7284410595894
 30
137.0
  0
VERTEX
  5
457
  8
DEFAULT
 10
211.0393803007901
 20
112.74250530079
 30
137.0
  0
VERTEX
  5
458
  8
DEFAULT
 10
211.007080078125
 20
112.757080078125
 30
137.0
  0
VERTEX
  5
459
  8
DEFAULT
 10
210.975294817239
 20
112.772169817239
 30
137.0
  0
VERTEX
  5
45A
  8
DEFAULT
 10
210.9440286755562
 20
112.7877786755562
 30
137.0
  0
VERTEX
  5
45B
  8
DEFAULT
 10
210.9132855422795
 20
112.8039105422795
 30
137.0
  0
VERTEX
  5
45C
  8
DEFAULT
 10
210.8830690383911
 20
112.8205690383911
 30
137.0
  0
VERTEX
  5
45D
  8
DEFAULT
 10
210.8533825166523
 20
112.8377575166523
 30
137.0
  0
VERTEX
  5
45E
  8
DEFAULT
 10
210.8242290616035
 20
112.8554790616035
 30
137.0
  0
VERTEX
  5
45F
  8
DEFAULT
 10
210.7956114895642
 20
112.8737364895642
 30
137.0
  0
VERTEX
  5
460
  8
DEFAULT
 10
210.7675323486328
 20
112.8925323486328
 30
137.0
  0
VERTEX
  5
461
  8
DEFAULT
 10
210.7399939186871
 20
112.9118689186871
 30
137.0
  0
VERTEX
  5
462
  8
DEFAULT
 10
210.7129982113838
 20
112.9317482113838
 30
137.0
  0
VERTEX
  5
463
  8
DEFAULT
 10
210.6865469701588
 20
112.9521719701588
 30
137.0
  0
VERTEX
  5
464
  8
DEFAULT
 10
210.6606416702271
 20
112.973141670227
 30
137.0
  0
VERTEX
  5
465
  8
DEFAULT
 10
210.6352835185826
 20
112.9946585185825
 30
137.0
  0
VERTEX
  5
466
  8
DEFAULT
 10
210.6104734539986
 20
113.0167234539985
 30
137.0
  0
VERTEX
  5
467
  8
DEFAULT
 10
210.5862121470273
 20
113.0393371470272
 30
137.0
  0
VERTEX
  5
468
  8
DEFAULT
 10
210.5625
 20
113.0624999999999
 30
137.0
  0
VERTEX
  5
469
  8
DEFAULT
 10
210.5393371470273
 20
113.0862121470272
 30
137.0
  0
VERTEX
  5
46A
  8
DEFAULT
 10
210.5167234539986
 20
113.1104734539985
 30
137.0
  0
VERTEX
  5
46B
  8
DEFAULT
 10
210.4946585185826
 20
113.1352835185825
 30
137.0
  0
VERTEX
  5
46C
  8
DEFAULT
 10
210.4731416702271
 20
113.160641670227
 30
137.0
  0
VERTEX
  5
46D
  8
DEFAULT
 10
210.4521719701588
 20
113.1865469701588
 30
137.0
  0
VERTEX
  5
46E
  8
DEFAULT
 10
210.4317482113838
 20
113.2129982113838
 30
137.0
  0
VERTEX
  5
46F
  8
DEFAULT
 10
210.4118689186871
 20
113.239993918687
 30
137.0
  0
VERTEX
  5
470
  8
DEFAULT
 10
210.3925323486328
 20
113.2675323486328
 30
137.0
  0
VERTEX
  5
471
  8
DEFAULT
 10
210.3737364895642
 20
113.2956114895641
 30
137.0
  0
VERTEX
  5
472
  8
DEFAULT
 10
210.3554790616035
 20
113.3242290616035
 30
137.0
  0
VERTEX
  5
473
  8
DEFAULT
 10
210.3377575166523
 20
113.3533825166523
 30
137.0
  0
VERTEX
  5
474
  8
DEFAULT
 10
210.3205690383911
 20
113.3830690383911
 30
137.0
  0
VERTEX
  5
475
  8
DEFAULT
 10
210.3039105422795
 20
113.4132855422794
 30
137.0
  0
VERTEX
  5
476
  8
DEFAULT
 10
210.2877786755562
 20
113.4440286755561
 30
137.0
  0
VERTEX
  5
477
  8
DEFAULT
 10
210.272169817239
 20
113.475294817239
 30
137.0
  0
VERTEX
  5
478
  8
DEFAULT
 10
210.257080078125
 20
113.5070800781249
 30
137.0
  0
VERTEX
  5
479
  8
DEFAULT
 10
210.2425053007901
 20
113.53938030079
 30
137.0
  0
VERTEX
  5
47A
  8
DEFAULT
 10
210.2284410595894
 20
113.5721910595893
 30
137.0
  0
VERTEX
  5
47B
  8
DEFAULT
 10
210.2148826606572
 20
113.6055076606571
 30
137.0
  0
VERTEX
  5
47C
  8
DEFAULT
 10
210.2018251419067
 20
113.6393251419067
 30
137.0
  0
VERTEX
  5
47D
  8
DEFAULT
 10
210.1771915555
 20
113.7084415555
 30
137.0
  0
VERTEX
  5
47E
  8
DEFAULT
 10
210.1544952392578
 20
113.7794952392577
 30
137.0
  0
VERTEX
  5
47F
  8
DEFAULT
 10
210.1336868405342
 20
113.8524368405342
 30
137.0
  0
VERTEX
  5
480
  8
DEFAULT
 10
210.1147127151489
 20
113.9272127151489
 30
137.0
  0
VERTEX
  5
481
  8
DEFAULT
 10
210.0975149273872
 20
114.0037649273872
 30
137.0
  0
VERTEX
  5
482
  8
DEFAULT
 10
210.08203125
 20
114.0820312499999
 30
137.0
  0
VERTEX
  5
483
  8
DEFAULT
 10
210.0681951642036
 20
114.1619451642036
 30
137.0
  0
VERTEX
  5
484
  8
DEFAULT
 10
210.0559358596802
 20
114.2434358596801
 30
137.0
  0
VERTEX
  5
485
  8
DEFAULT
 10
210.0451782345772
 20
114.3264282345771
 30
137.0
  0
VERTEX
  5
486
  8
DEFAULT
 10
210.0358428955078
 20
114.4108428955078
 30
137.0
  0
VERTEX
  5
487
  8
DEFAULT
 10
210.0211000442505
 20
114.5836000442504
 30
137.0
  0
VERTEX
  5
488
  8
DEFAULT
 10
210.010986328125
 20
114.7609863281249
 30
137.0
  0
VERTEX
  5
489
  8
DEFAULT
 10
210.0014190673828
 20
115.1264190673828
 30
137.0
  0
VERTEX
  5
48A
  8
DEFAULT
 10
210.0
 20
115.5
 30
137.0
  0
VERTEX
  5
48B
  8
DEFAULT
 10
210.0
 20
143.5
 30
137.0
  0
VERTEX
  5
48C
  8
DEFAULT
 10
210.0014190673828
 20
143.8735809326172
 30
137.0
  0
VERTEX
  5
48D
  8
DEFAULT
 10
210.010986328125
 20
144.2390136718751
 30
137.0
  0
VERTEX
  5
48E
  8
DEFAULT
 10
210.0211000442505
 20
144.4163999557496
 30
137.0
  0
VERTEX
  5
48F
  8
DEFAULT
 10
210.0358428955078
 20
144.5891571044922
 30
137.0
  0
VERTEX
  5
490
  8
DEFAULT
 10
210.0451782345771
 20
144.6735717654229
 30
137.0
  0
VERTEX
  5
491
  8
DEFAULT
 10
210.0559358596802
 20
144.7565641403199
 30
137.0
  0
VERTEX
  5
492
  8
DEFAULT
 10
210.0681951642036
 20
144.8380548357964
 30
137.0
  0
VERTEX
  5
493
  8
DEFAULT
 10
210.08203125
 20
144.9179687500001
 30
137.0
  0
VERTEX
  5
494
  8
DEFAULT
 10
210.0975149273872
 20
144.9962350726128
 30
137.0
  0
VERTEX
  5
495
  8
DEFAULT
 10
210.1147127151489
 20
145.0727872848512
 30
137.0
  0
VERTEX
  5
496
  8
DEFAULT
 10
210.1336868405342
 20
145.1475631594659
 30
137.0
  0
VERTEX
  5
497
  8
DEFAULT
 10
210.1544952392578
 20
145.2205047607423
 30
137.0
  0
VERTEX
  5
498
  8
DEFAULT
 10
210.1771915555
 20
145.2915584445001
 30
137.0
  0
VERTEX
  5
499
  8
DEFAULT
 10
210.2018251419067
 20
145.3606748580934
 30
137.0
  0
VERTEX
  5
49A
  8
DEFAULT
 10
210.2148826606572
 20
145.3944923393429
 30
137.0
  0
VERTEX
  5
49B
  8
DEFAULT
 10
210.2284410595894
 20
145.4278089404107
 30
137.0
  0
VERTEX
  5
49C
  8
DEFAULT
 10
210.2425053007901
 20
145.46061969921
 30
137.0
  0
VERTEX
  5
49D
  8
DEFAULT
 10
210.257080078125
 20
145.4929199218751
 30
137.0
  0
VERTEX
  5
49E
  8
DEFAULT
 10
210.272169817239
 20
145.524705182761
 30
137.0
  0
VERTEX
  5
49F
  8
DEFAULT
 10
210.2877786755562
 20
145.5559713244439
 30
137.0
  0
VERTEX
  5
4A0
  8
DEFAULT
 10
210.3039105422795
 20
145.5867144577206
 30
137.0
  0
VERTEX
  5
4A1
  8
DEFAULT
 10
210.3205690383911
 20
145.6169309616089
 30
137.0
  0
VERTEX
  5
4A2
  8
DEFAULT
 10
210.3377575166523
 20
145.6466174833477
 30
137.0
  0
VERTEX
  5
4A3
  8
DEFAULT
 10
210.3554790616035
 20
145.6757709383965
 30
137.0
  0
VERTEX
  5
4A4
  8
DEFAULT
 10
210.3737364895642
 20
145.7043885104359
 30
137.0
  0
VERTEX
  5
4A5
  8
DEFAULT
 10
210.3925323486328
 20
145.7324676513672
 30
137.0
  0
VERTEX
  5
4A6
  8
DEFAULT
 10
210.4118689186871
 20
145.760006081313
 30
137.0
  0
VERTEX
  5
4A7
  8
DEFAULT
 10
210.4317482113838
 20
145.7870017886162
 30
137.0
  0
VERTEX
  5
4A8
  8
DEFAULT
 10
210.4521719701588
 20
145.8134530298412
 30
137.0
  0
VERTEX
  5
4A9
  8
DEFAULT
 10
210.4731416702271
 20
145.839358329773
 30
137.0
  0
VERTEX
  5
4AA
  8
DEFAULT
 10
210.4946585185826
 20
145.8647164814175
 30
137.0
  0
VERTEX
  5
4AB
  8
DEFAULT
 10
210.5167234539986
 20
145.8895265460015
 30
137.0
  0
VERTEX
  5
4AC
  8
DEFAULT
 10
210.5393371470273
 20
145.9137878529728
 30
137.0
  0
VERTEX
  5
4AD
  8
DEFAULT
 10
210.5625
 20
145.9375000000001
 30
137.0
  0
VERTEX
  5
4AE
  8
DEFAULT
 10
210.5862121470273
 20
145.9606628529728
 30
137.0
  0
VERTEX
  5
4AF
  8
DEFAULT
 10
210.6104734539986
 20
145.9832765460015
 30
137.0
  0
VERTEX
  5
4B0
  8
DEFAULT
 10
210.6352835185826
 20
146.0053414814175
 30
137.0
  0
VERTEX
  5
4B1
  8
DEFAULT
 10
210.6606416702271
 20
146.026858329773
 30
137.0
  0
VERTEX
  5
4B2
  8
DEFAULT
 10
210.6865469701589
 20
146.0478280298412
 30
137.0
  0
VERTEX
  5
4B3
  8
DEFAULT
 10
210.7129982113839
 20
146.0682517886162
 30
137.0
  0
VERTEX
  5
4B4
  8
DEFAULT
 10
210.7399939186872
 20
146.088131081313
 30
137.0
  0
VERTEX
  5
4B5
  8
DEFAULT
 10
210.7675323486329
 20
146.1074676513672
 30
137.0
  0
VERTEX
  5
4B6
  8
DEFAULT
 10
210.7956114895642
 20
146.1262635104358
 30
137.0
  0
VERTEX
  5
4B7
  8
DEFAULT
 10
210.8242290616036
 20
146.1445209383965
 30
137.0
  0
VERTEX
  5
4B8
  8
DEFAULT
 10
210.8533825166524
 20
146.1622424833477
 30
137.0
  0
VERTEX
  5
4B9
  8
DEFAULT
 10
210.8830690383912
 20
146.1794309616089
 30
137.0
  0
VERTEX
  5
4BA
  8
DEFAULT
 10
210.9132855422795
 20
146.1960894577205
 30
137.0
  0
VERTEX
  5
4BB
  8
DEFAULT
 10
210.9440286755562
 20
146.2122213244438
 30
137.0
  0
VERTEX
  5
4BC
  8
DEFAULT
 10
210.9752948172391
 20
146.227830182761
 30
137.0
  0
VERTEX
  5
4BD
  8
DEFAULT
 10
211.0070800781251
 20
146.242919921875
 30
137.0
  0
VERTEX
  5
4BE
  8
DEFAULT
 10
211.0393803007901
 20
146.2574946992099
 30
137.0
  0
VERTEX
  5
4BF
  8
DEFAULT
 10
211.0721910595894
 20
146.2715589404106
 30
137.0
  0
VERTEX
  5
4C0
  8
DEFAULT
 10
211.1055076606572
 20
146.2851173393428
 30
137.0
  0
VERTEX
  5
4C1
  8
DEFAULT
 10
211.1393251419068
 20
146.2981748580933
 30
137.0
  0
VERTEX
  5
4C2
  8
DEFAULT
 10
211.2084415555001
 20
146.3228084445
 30
137.0
  0
VERTEX
  5
4C3
  8
DEFAULT
 10
211.2794952392579
 20
146.3455047607422
 30
137.0
  0
VERTEX
  5
4C4
  8
DEFAULT
 10
211.3524368405343
 20
146.3663131594658
 30
137.0
  0
VERTEX
  5
4C5
  8
DEFAULT
 10
211.427212715149
 20
146.3852872848511
 30
137.0
  0
VERTEX
  5
4C6
  8
DEFAULT
 10
211.5037649273873
 20
146.4024850726128
 30
137.0
  0
VERTEX
  5
4C7
  8
DEFAULT
 10
211.5820312500001
 20
146.41796875
 30
137.0
  0
VERTEX
  5
4C8
  8
DEFAULT
 10
211.6619451642037
 20
146.4318048357964
 30
137.0
  0
VERTEX
  5
4C9
  8
DEFAULT
 10
211.7434358596802
 20
146.4440641403198
 30
137.0
  0
VERTEX
  5
4CA
  8
DEFAULT
 10
211.8264282345772
 20
146.4548217654228
 30
137.0
  0
VERTEX
  5
4CB
  8
DEFAULT
 10
211.9108428955079
 20
146.4641571044922
 30
137.0
  0
VERTEX
  5
4CC
  8
DEFAULT
 10
212.0836000442505
 20
146.4788999557495
 30
137.0
  0
VERTEX
  5
4CD
  8
DEFAULT
 10
212.2609863281251
 20
146.489013671875
 30
137.0
  0
VERTEX
  5
4CE
  8
DEFAULT
 10
212.6264190673829
 20
146.4985809326172
 30
137.0
  0
SEQEND
  5
4CF
  8
DEFAULT
  0
POLYLINE
  5
4D0
  8
DEFAULT
 66
     1
 10
0.0
 20
0.0
 30
137.0
 70
     1
  0
VERTEX
  5
4D1
  8
DEFAULT
 10
396.0
 20
71.99999999999977
 30
137.0
  0
VERTEX
  5
4D2
  8
DEFAULT
 10
396.0
 20
73.28581707758269
 30
137.0
  0
VERTEX
  5
4D3
  8
DEFAULT
 10
387.5
 20
73.28581707758258
 30
137.0
  0
VERTEX
  5
4D4
  8
DEFAULT
 10
387.5
 20
76.28581707758258
 30
137.0
  0
VERTEX
  5
4D5
  8
DEFAULT
 10
396.0
 20
76.28581707758269
 30
137.0
  0
VERTEX
  5
4D6
  8
DEFAULT
 10
396.0
 20
105.4999999999999
 30
137.0
  0
VERTEX
  5
4D7
  8
DEFAULT
 10
387.5
 20
105.5
 30
137.0
  0
VERTEX
  5
4D8
  8
DEFAULT
 10
387.5
 20
108.5
 30
137.0
  0
VERTEX
  5
4D9
  8
DEFAULT
 10
396.0
 20
108.5
 30
137.0
  0
VERTEX
  5
4DA
  8
DEFAULT
 10
396.0
 20
137.7141829224174
 30
137.0
  0
VERTEX
  5
4DB
  8
DEFAULT
 10
387.5
 20
137.7141829224174
 30
137.0
  0
VERTEX
  5
4DC
  8
DEFAULT
 10
387.5
 20
140.7141829224174
 30
137.0
  0
VERTEX
  5
4DD
  8
DEFAULT
 10
396.0
 20
140.7141829224176
 30
137.0
  0
VERTEX
  5
4DE
  8
DEFAULT
 10
396.0
 20
144.0
 30
137.0
 42
0.4142135623730872
  0
VERTEX
  5
4DF
  8
DEFAULT
 10
393.0
 20
147.0000000000001
 30
137.0
  0
VERTEX
  5
4E0
  8
DEFAULT
 10
382.0
 20
147.0
 30
137.0
 42
0.4142135623730797
  0
VERTEX
  5
4E1
  8
DEFAULT
 10
379.0
 20
144.0
 30
137.0
  0
VERTEX
  5
4E2
  8
DEFAULT
 10
379.0
 20
102.0
 30
137.0
  0
VERTEX
  5
4E3
  8
DEFAULT
 10
361.0
 20
102.0
 30
137.0
  0
VERTEX
  5
4E4
  8
DEFAULT
 10
361.0
 20
144.0
 30
137.0
 42
0.4142135623730872
  0
VERTEX
  5
4E5
  8
DEFAULT
 10
358.0
 20
147.0000000000001
 30
137.0
  0
VERTEX
  5
4E6
  8
DEFAULT
 10
284.0
 20
147.0
 30
137.0
 42
0.4142135623730836
  0
VERTEX
  5
4E7
  8
DEFAULT
 10
281.0
 20
144.0
 30
137.0
  0
VERTEX
  5
4E8
  8
DEFAULT
 10
281.0
 20
102.0
 30
137.0
  0
VERTEX
  5
4E9
  8
DEFAULT
 10
263.0
 20
102.0
 30
137.0
  0
VERTEX
  5
4EA
  8
DEFAULT
 10
263.0
 20
144.0
 30
137.0
 42
0.414213562373091
  0
VERTEX
  5
4EB
  8
DEFAULT
 10
260.0
 20
147.0
 30
137.0
  0
VERTEX
  5
4EC
  8
DEFAULT
 10
249.0
 20
147.0
 30
137.0
 42
0.414213562373093
  0
VERTEX
  5
4ED
  8
DEFAULT
 10
246.0
 20
144.0
 30
137.0
  0
VERTEX
  5
4EE
  8
DEFAULT
 10
246.0
 20
140.7141829224174
 30
137.0
  0
VERTEX
  5
4EF
  8
DEFAULT
 10
254.5
 20
140.7141829224174
 30
137.0
  0
VERTEX
  5
4F0
  8
DEFAULT
 10
254.5
 20
137.7141829224174
 30
137.0
  0
VERTEX
  5
4F1
  8
DEFAULT
 10
246.0
 20
137.7141829224174
 30
137.0
  0
VERTEX
  5
4F2
  8
DEFAULT
 10
246.0
 20
108.5
 30
137.0
  0
VERTEX
  5
4F3
  8
DEFAULT
 10
254.5
 20
108.5
 30
137.0
  0
VERTEX
  5
4F4
  8
DEFAULT
 10
254.5
 20
105.5
 30
137.0
  0
VERTEX
  5
4F5
  8
DEFAULT
 10
246.0
 20
105.5
 30
137.0
  0
VERTEX
  5
4F6
  8
DEFAULT
 10
246.0
 20
76.28581707758258
 30
137.0
  0
VERTEX
  5
4F7
  8
DEFAULT
 10
254.5
 20
76.28581707758258
 30
137.0
  0
VERTEX
  5
4F8
  8
DEFAULT
 10
254.5
 20
73.28581707758258
 30
137.0
  0
VERTEX
  5
4F9
  8
DEFAULT
 10
246.0
 20
73.28581707758258
 30
137.0
  0
VERTEX
  5
4FA
  8
DEFAULT
 10
246.0
 20
72.0
 30
137.0
 42
0.4142135623730897
  0
VERTEX
  5
4FB
  8
DEFAULT
 10
251.0
 20
66.99999999999997
 30
137.0
  0
VERTEX
  5
4FC
  8
DEFAULT
 10
274.621054823855
 20
67.0
 30
137.0
  0
VERTEX
  5
4FD
  8
DEFAULT
 10
274.621054823855
 20
84.5
 30
137.0
  0
VERTEX
  5
4FE
  8
DEFAULT
 10
277.621054823855
 20
84.5
 30
137.0
  0
VERTEX
  5
4FF
  8
DEFAULT
 10
277.621054823855
 20
67.0
 30
137.0
  0
VERTEX
  5
500
  8
DEFAULT
 10
301.3763490696445
 20
67.0
 30
137.0
  0
VERTEX
  5
501
  8
DEFAULT
 10
301.3763490696443
 20
84.5
 30
137.0
  0
VERTEX
  5
502
  8
DEFAULT
 10
304.3763490696443
 20
84.5
 30
137.0
  0
VERTEX
  5
503
  8
DEFAULT
 10
304.3763490696443
 20
67.0
 30
137.0
  0
VERTEX
  5
504
  8
DEFAULT
 10
337.758471564215
 20
67.0
 30
137.0
  0
VERTEX
  5
505
  8
DEFAULT
 10
337.7584715642151
 20
84.5
 30
137.0
  0
VERTEX
  5
506
  8
DEFAULT
 10
340.7584715642151
 20
84.5
 30
137.0
  0
VERTEX
  5
507
  8
DEFAULT
 10
340.7584715642153
 20
67.0
 30
137.0
  0
VERTEX
  5
508
  8
DEFAULT
 10
364.5137658100043
 20
67.00000000000003
 30
137.0
  0
VERTEX
  5
509
  8
DEFAULT
 10
364.5137658100044
 20
84.5
 30
137.0
  0
VERTEX
  5
50A
  8
DEFAULT
 10
367.5137658100044
 20
84.5
 30
137.0
  0
VERTEX
  5
50B
  8
DEFAULT
 10
367.5137658100044
 20
67.00000000000003
 30
137.0
  0
VERTEX
  5
50C
  8
DEFAULT
 10
391.0
 20
67.00000000000003
 30
137.0
 42
0.414213562373084
  0
SEQEND
  5
50D
  8
DEFAULT
  0
ENDSEC
  0
EOF
