  0
SECTION
  2
HEADER
  9
$ACADVER
  1
AC1009
  9
$DWGCODEPAGE
  3
ansi_1252
  9
$INSBASE
 10
0.0
 20
0.0
 30
0.0
  9
$EXTMIN
 10
-70.00000000000004
 20
-186.0
 30
0.0
  9
$EXTMAX
 10
70.00000000000001
 20
-54.99999999999999
 30
0.0
  9
$LIMMIN
 10
0.0
 20
0.0
  9
$LIMMAX
 10
12.0
 20
9.0
  9
$ORTHOMODE
 70
     0
  9
$REGENMODE
 70
     1
  9
$FILLMODE
 70
     1
  9
$QTEXTMODE
 70
     0
  9
$MIRRTEXT
 70
     1
  9
$DRAGMODE
 70
     2
  9
$LTSCALE
 40
1.0
  9
$OSMODE
 70
    37
  9
$ATTMODE
 70
     1
  9
$TEXTSIZE
 40
0.2
  9
$TRACEWID
 40
0.05
  9
$TEXTSTYLE
  7
STANDARD
  9
$CLAYER
  8
DEFAULT
  9
$CELTYPE
  6
BYLAYER
  9
$CECOLOR
 62
   256
  9
$DIMSCALE
 40
1.0
  9
$DIMASZ
 40
0.18
  9
$DIMEXO
 40
0.0625
  9
$DIMDLI
 40
0.38
  9
$DIMRND
 40
0.0
  9
$DIMDLE
 40
0.0
  9
$DIMEXE
 40
0.18
  9
$DIMTP
 40
0.0
  9
$DIMTM
 40
0.0
  9
$DIMTXT
 40
0.18
  9
$DIMCEN
 40
0.09
  9
$DIMTSZ
 40
0.0
  9
$DIMTOL
 70
     0
  9
$DIMLIM
 70
     0
  9
$DIMTIH
 70
     1
  9
$DIMTOH
 70
     1
  9
$DIMSE1
 70
     0
  9
$DIMSE2
 70
     0
  9
$DIMTAD
 70
     0
  9
$DIMZIN
 70
     0
  9
$DIMBLK
  1

  9
$DIMASO
 70
     1
  9
$DIMSHO
 70
     1
  9
$DIMPOST
  1

  9
$DIMAPOST
  1

  9
$DIMALT
 70
     0
  9
$DIMALTD
 70
     2
  9
$DIMALTF
 40
25.4
  9
$DIMLFAC
 40
1.0
  9
$DIMTOFL
 70
     0
  9
$DIMTVP
 40
0.0
  9
$DIMTIX
 70
     0
  9
$DIMSOXD
 70
     0
  9
$DIMSAH
 70
     0
  9
$DIMBLK1
  1

  9
$DIMBLK2
  1

  9
$DIMSTYLE
  2
STANDARD_ACAD
  9
$DIMCLRD
 70
     0
  9
$DIMCLRE
 70
     0
  9
$DIMCLRT
 70
     0
  9
$DIMTFAC
 40
1.0
  9
$DIMGAP
 40
0.09
  9
$LUNITS
 70
     2
  9
$LUPREC
 70
     3
  9
$SKETCHINC
 40
0.1
  9
$FILLETRAD
 40
0.0
  9
$AUNITS
 70
     0
  9
$AUPREC
 70
     0
  9
$MENU
  1
.
  9
$ELEVATION
 40
0.0
  9
$PELEVATION
 40
0.0
  9
$THICKNESS
 40
0.0
  9
$LIMCHECK
 70
     0
  9
$CHAMFERA
 40
0.0
  9
$CHAMFERB
 40
0.0
  9
$SKPOLY
 70
     0
  9
$TDCREATE
 40
2460413.784066377
  9
$TDUPDATE
 40
2460413.784078692
  9
$TDINDWG
 40
0.0000000116
  9
$TDUSRTIMER
 40
0.0000000116
  9
$USRTIMER
 70
     1
  9
$ANGBASE
 50
0.0
  9
$ANGDIR
 70
     0
  9
$PDMODE
 70
     0
  9
$PDSIZE
 40
0.0
  9
$PLINEWID
 40
0.0
  9
$COORDS
 70
     1
  9
$SPLFRAME
 70
     0
  9
$SPLINETYPE
 70
     6
  9
$SPLINESEGS
 70
     8
  9
$ATTDIA
 70
     0
  9
$ATTREQ
 70
     1
  9
$HANDLING
 70
     1
  9
$HANDSEED
  5
11F
  9
$SURFTAB1
 70
     6
  9
$SURFTAB2
 70
     6
  9
$SURFTYPE
 70
     6
  9
$SURFU
 70
     6
  9
$SURFV
 70
     6
  9
$UCSNAME
  2

  9
$UCSORG
 10
0.0
 20
0.0
 30
0.0
  9
$UCSXDIR
 10
1.0
 20
0.0
 30
0.0
  9
$UCSYDIR
 10
0.0
 20
1.0
 30
0.0
  9
$PUCSNAME
  2

  9
$PUCSORG
 10
0.0
 20
0.0
 30
0.0
  9
$PUCSXDIR
 10
1.0
 20
0.0
 30
0.0
  9
$PUCSYDIR
 10
0.0
 20
1.0
 30
0.0
  9
$USERI1
 70
     0
  9
$USERI2
 70
     0
  9
$USERI3
 70
     0
  9
$USERI4
 70
     0
  9
$USERI5
 70
     0
  9
$USERR1
 40
0.0
  9
$USERR2
 40
0.0
  9
$USERR3
 40
0.0
  9
$USERR4
 40
0.0
  9
$USERR5
 40
0.0
  9
$WORLDVIEW
 70
     1
  9
$SHADEDGE
 70
     3
  9
$SHADEDIF
 70
    70
  9
$TILEMODE
 70
     1
  9
$MAXACTVP
 70
    64
  9
$PLIMCHECK
 70
     0
  9
$PEXTMIN
 10
1.000000000000000E+20
 20
1.000000000000000E+20
 30
1.000000000000000E+20
  9
$PEXTMAX
 10
-1.000000000000000E+20
 20
-1.000000000000000E+20
 30
-1.000000000000000E+20
  9
$PLIMMIN
 10
0.0
 20
0.0
  9
$PLIMMAX
 10
12.0
 20
9.0
  9
$UNITMODE
 70
     0
  9
$VISRETAIN
 70
     1
  9
$PLINEGEN
 70
     0
  9
$PSLTSCALE
 70
     1
  0
ENDSEC
  0
SECTION
  2
TABLES
  0
TABLE
  2
VPORT
 70
     1
  0
VPORT
  2
*ACTIVE
 70
     0
 10
0.0
 20
0.0
 11
1.0
 21
1.0
 12
10.42990654205607
 22
4.5
 13
0.0
 23
0.0
 14
0.5
 24
0.5
 15
0.5
 25
0.5
 16
0.0
 26
0.0
 36
1.0
 17
0.0
 27
0.0
 37
0.0
 40
9.0
 41
1.972972972850329
 42
50.0
 43
0.0
 44
0.0
 50
0.0
 51
0.0
 71
     0
 72
   100
 73
     1
 74
     3
 75
     0
 76
     0
 77
     0
 78
     0
  0
ENDTAB
  0
TABLE
  2
LTYPE
 70
     1
  0
LTYPE
  2
CONTINUOUS
 70
     0
  3
Solid line
 72
    65
 73
     0
 40
0.0
  0
ENDTAB
  0
TABLE
  2
LAYER
 70
     2
  0
LAYER
  2
0
 70
     0
 62
     7
  6
CONTINUOUS
  0
LAYER
  2
DEFAULT
 70
     0
 62
     7
  6
CONTINUOUS
  0
ENDTAB
  0
TABLE
  2
STYLE
 70
     1
  0
STYLE
  2
STANDARD
 70
     0
 40
0.0
 41
1.0
 50
0.0
 71
     0
 42
0.2
  3
txt
  4

  0
ENDTAB
  0
TABLE
  2
VIEW
 70
     0
  0
ENDTAB
  0
TABLE
  2
UCS
 70
     0
  0
ENDTAB
  0
TABLE
  2
APPID
 70
     2
  0
APPID
  2
ACAD
 70
     0
  0
APPID
  2
RHINO
 70
     0
  0
ENDTAB
  0
TABLE
  2
DIMSTYLE
 70
     1
  0
DIMSTYLE
  2
STANDARD_ACAD
 70
     0
  3

  4

  5

  6

  7

 40
1.0
 41
0.18
 42
0.0625
 43
0.38
 44
0.18
 45
0.0
 46
0.0
 47
0.0
 48
0.0
140
0.18
141
0.09
142
0.0
143
25.4
144
1.0
145
0.0
146
1.0
147
0.09
 71
     0
 72
     0
 73
     1
 74
     1
 75
     0
 76
     0
 77
     0
 78
     0
170
     0
171
     2
172
     0
173
     0
174
     0
175
     0
176
     0
177
     0
178
     0
  0
ENDTAB
  0
ENDSEC
  0
SECTION
  2
BLOCKS
  0
BLOCK
  8
0
  2
$MODEL_SPACE
 70
     0
 10
0.0
 20
0.0
 30
0.0
  3
$MODEL_SPACE
  1

  0
ENDBLK
  5
21
  8
0
  0
BLOCK
 67
     1
  8
0
  2
$PAPER_SPACE
 70
     0
 10
0.0
 20
0.0
 30
0.0
  3
$PAPER_SPACE
  1

  0
ENDBLK
  5
1D
 67
     1
  8
0
  0
ENDSEC
  0
SECTION
  2
ENTITIES
  0
CIRCLE
  5
60
  8
DEFAULT
 10
54.90030000000024
 20
-110.0
 30
0.0
 40
1.629299999999596
210
0.0
220
0.0
230
-1.0
  0
CIRCLE
  5
61
  8
DEFAULT
 10
5.099700000000156
 20
-120.0000000000004
 30
0.0
 40
1.629300000000058
210
0.0
220
0.0
230
-1.0
  0
CIRCLE
  5
62
  8
DEFAULT
 10
5.099700000000156
 20
-110.0000000000005
 30
0.0
 40
1.629300000000058
210
0.0
220
0.0
230
-1.0
  0
CIRCLE
  5
63
  8
DEFAULT
 10
54.90030000000024
 20
-120.0
 30
0.0
 40
1.629299999999596
210
0.0
220
0.0
230
-1.0
  0
CIRCLE
  5
64
  8
DEFAULT
 10
-54.90030000000024
 20
-110.0
 30
0.0
 40
1.629299999999603
210
0.0
220
0.0
230
-1.0
  0
CIRCLE
  5
65
  8
DEFAULT
 10
-5.099700000000156
 20
-120.0000000000004
 30
0.0
 40
1.629300000000058
210
0.0
220
0.0
230
-1.0
  0
CIRCLE
  5
66
  8
DEFAULT
 10
-5.099700000000146
 20
-110.0000000000005
 30
0.0
 40
1.629300000000049
210
0.0
220
0.0
230
-1.0
  0
CIRCLE
  5
67
  8
DEFAULT
 10
-54.90030000000024
 20
-120.0
 30
0.0
 40
1.629299999999596
210
0.0
220
0.0
230
-1.0
  0
ARC
  5
68
  8
DEFAULT
 10
-58.55051025721681
 20
-106.4494897427832
 30
0.0
 40
6.4494897427832
 50
90.00000000000006
 51
179.9999999999999
  0
LINE
  5
69
  8
DEFAULT
 10
-65.0
 20
-106.4494897427832
 30
0.0
 11
-65.0
 21
-110.0
 31
0.0
  0
LINE
  5
6A
  8
DEFAULT
 10
-65.0
 20
-110.0
 30
0.0
 11
-62.0
 21
-110.0
 31
0.0
  0
LINE
  5
6B
  8
DEFAULT
 10
-62.0
 20
-110.0
 30
0.0
 11
-62.0
 21
-120.0
 31
0.0
  0
LINE
  5
6C
  8
DEFAULT
 10
-62.0
 20
-120.0
 30
0.0
 11
-65.0
 21
-120.0
 31
0.0
  0
LINE
  5
6D
  8
DEFAULT
 10
-65.0
 20
-120.0
 30
0.0
 11
-65.0
 21
-123.5505102572168
 31
0.0
  0
ARC
  5
6E
  8
DEFAULT
 10
-58.55051025721683
 20
-123.5505102572168
 30
0.0
 40
6.449489742783172
 50
180.0
 51
270.0000000000001
  0
LINE
  5
6F
  8
DEFAULT
 10
-58.55051025721682
 20
-130.0
 30
0.0
 11
-10.0
 21
-130.0
 31
0.0
  0
LINE
  5
70
  8
DEFAULT
 10
-10.0
 20
-130.0
 30
0.0
 11
-9.999999999999979
 21
-127.0
 31
0.0
  0
LINE
  5
71
  8
DEFAULT
 10
-9.999999999999979
 20
-127.0
 30
0.0
 11
9.999999999999986
 21
-127.0
 31
0.0
  0
LINE
  5
72
  8
DEFAULT
 10
9.999999999999986
 20
-127.0
 30
0.0
 11
9.999999999999915
 21
-130.0
 31
0.0
  0
LINE
  5
73
  8
DEFAULT
 10
9.999999999999915
 20
-130.0
 30
0.0
 11
58.55051025721681
 21
-130.0
 31
0.0
  0
ARC
  5
74
  8
DEFAULT
 10
58.55051025721685
 20
-123.5505102572169
 30
0.0
 40
6.449489742783143
 50
269.9999999999997
 51
0.0000000000003787
  0
LINE
  5
75
  8
DEFAULT
 10
65.0
 20
-123.5505102572168
 30
0.0
 11
65.0
 21
-120.0
 31
0.0
  0
LINE
  5
76
  8
DEFAULT
 10
65.0
 20
-120.0
 30
0.0
 11
62.0
 21
-120.0
 31
0.0
  0
LINE
  5
77
  8
DEFAULT
 10
62.0
 20
-120.0
 30
0.0
 11
62.0
 21
-110.0
 31
0.0
  0
LINE
  5
78
  8
DEFAULT
 10
62.0
 20
-110.0
 30
0.0
 11
65.0
 21
-110.0
 31
0.0
  0
LINE
  5
79
  8
DEFAULT
 10
65.0
 20
-110.0
 30
0.0
 11
65.0
 21
-106.4494897427832
 31
0.0
  0
ARC
  5
7A
  8
DEFAULT
 10
58.55051025721684
 20
-106.4494897427832
 30
0.0
 40
6.449489742783165
 50
359.9999999999998
 51
90.0000000000002
  0
LINE
  5
7B
  8
DEFAULT
 10
58.55051025721681
 20
-100.0
 30
0.0
 11
10.00000000000001
 21
-100.0
 31
0.0
  0
LINE
  5
7C
  8
DEFAULT
 10
10.00000000000001
 20
-100.0
 30
0.0
 11
9.999999999999972
 21
-103.0
 31
0.0
  0
LINE
  5
7D
  8
DEFAULT
 10
9.999999999999972
 20
-103.0
 30
0.0
 11
-10.0
 21
-103.0
 31
0.0
  0
LINE
  5
7E
  8
DEFAULT
 10
-10.0
 20
-103.0
 30
0.0
 11
-9.999999999999964
 21
-100.0
 31
0.0
  0
LINE
  5
7F
  8
DEFAULT
 10
-9.999999999999964
 20
-100.0
 30
0.0
 11
-58.55051025721682
 21
-100.0
 31
0.0
  0
ARC
  5
80
  8
DEFAULT
 10
40.87450016648894
 20
-115.6410658267423
 30
0.0
 40
9.359774248218512
 50
270.7676569953183
 51
334.7314060083515
210
0.0
220
0.0
230
-1.0
  0
LINE
  5
81
  8
DEFAULT
 10
-49.33870000000026
 20
-119.6364000000001
 30
0.0
 11
-49.33870000000024
 21
-110.3264000000001
 31
0.0
  0
ARC
  5
82
  8
DEFAULT
 10
40.82847180398812
 20
-114.3700761058052
 30
0.0
 40
9.422064550662878
 50
25.41495610737218
 51
83.97831682759998
210
0.0
220
0.0
230
-1.0
  0
LINE
  5
83
  8
DEFAULT
 10
-41.81689184034849
 20
-105.0000000000001
 30
0.0
 11
-29.45859999999999
 21
-105.0
 31
0.0
  0
LINE
  5
84
  8
DEFAULT
 10
-29.45859999999999
 20
-105.0
 30
0.0
 11
-29.45859999999999
 21
-106.1000000000001
 31
0.0
  0
LINE
  5
85
  8
DEFAULT
 10
-29.45859999999999
 20
-106.1000000000001
 30
0.0
 11
-15.74380000000019
 21
-106.1000000000001
 31
0.0
  0
LINE
  5
86
  8
DEFAULT
 10
-15.74380000000019
 20
-106.1000000000001
 30
0.0
 11
-15.74380000000019
 21
-108.7000000000001
 31
0.0
  0
LINE
  5
87
  8
DEFAULT
 10
-15.74380000000019
 20
-108.7000000000001
 30
0.0
 11
-13.48689999999988
 21
-108.7000000000001
 31
0.0
  0
LINE
  5
88
  8
DEFAULT
 10
-13.48689999999988
 20
-108.7000000000001
 30
0.0
 11
-13.48689999999988
 21
-121.3
 31
0.0
  0
LINE
  5
89
  8
DEFAULT
 10
-13.48689999999988
 20
-121.3
 30
0.0
 11
-15.74380000000019
 21
-121.3
 31
0.0
  0
LINE
  5
8A
  8
DEFAULT
 10
-15.74380000000019
 20
-121.3
 30
0.0
 11
-15.74380000000019
 21
-123.8999999999999
 31
0.0
  0
LINE
  5
8B
  8
DEFAULT
 10
-15.74380000000019
 20
-123.8999999999999
 30
0.0
 11
-29.45859999999999
 21
-123.8999999999999
 31
0.0
  0
LINE
  5
8C
  8
DEFAULT
 10
-29.45859999999999
 20
-123.8999999999999
 30
0.0
 11
-29.45859999999999
 21
-125.0
 31
0.0
  0
LINE
  5
8D
  8
DEFAULT
 10
-29.45859999999999
 20
-125.0
 30
0.0
 11
-40.99989999999985
 21
-125.0
 31
0.0
  0
LINE
  5
8E
  8
DEFAULT
 10
40.99989999999985
 20
-125.0
 30
0.0
 11
29.45859999999999
 21
-125.0
 31
0.0
  0
LINE
  5
8F
  8
DEFAULT
 10
29.45859999999999
 20
-125.0
 30
0.0
 11
29.45859999999999
 21
-123.8999999999999
 31
0.0
  0
LINE
  5
90
  8
DEFAULT
 10
29.45859999999999
 20
-123.8999999999999
 30
0.0
 11
15.74380000000019
 21
-123.8999999999999
 31
0.0
  0
LINE
  5
91
  8
DEFAULT
 10
15.74380000000019
 20
-123.8999999999999
 30
0.0
 11
15.74380000000019
 21
-121.3
 31
0.0
  0
LINE
  5
92
  8
DEFAULT
 10
15.74380000000019
 20
-121.3
 30
0.0
 11
13.48689999999988
 21
-121.3
 31
0.0
  0
LINE
  5
93
  8
DEFAULT
 10
13.48689999999988
 20
-121.3
 30
0.0
 11
13.48689999999988
 21
-108.7000000000001
 31
0.0
  0
LINE
  5
94
  8
DEFAULT
 10
13.48689999999988
 20
-108.7000000000001
 30
0.0
 11
15.74380000000019
 21
-108.7000000000001
 31
0.0
  0
LINE
  5
95
  8
DEFAULT
 10
15.74380000000019
 20
-108.7000000000001
 30
0.0
 11
15.74380000000019
 21
-106.1000000000001
 31
0.0
  0
LINE
  5
96
  8
DEFAULT
 10
15.74380000000019
 20
-106.1000000000001
 30
0.0
 11
29.45859999999999
 21
-106.1000000000001
 31
0.0
  0
LINE
  5
97
  8
DEFAULT
 10
29.45859999999999
 20
-106.1000000000001
 30
0.0
 11
29.45859999999999
 21
-105.0
 31
0.0
  0
LINE
  5
98
  8
DEFAULT
 10
29.45859999999999
 20
-105.0
 30
0.0
 11
41.81689184034849
 21
-105.0000000000001
 31
0.0
  0
ARC
  5
99
  8
DEFAULT
 10
-40.82847180398824
 20
-114.370076105805
 30
0.0
 40
9.422064550662691
 50
96.02168317239945
 51
154.5850438926284
210
0.0
220
0.0
230
-1.0
  0
LINE
  5
9A
  8
DEFAULT
 10
49.33870000000024
 20
-110.3264000000001
 30
0.0
 11
49.33870000000024
 21
-119.6364000000001
 31
0.0
  0
ARC
  5
9B
  8
DEFAULT
 10
-40.87450016648888
 20
-115.6410658267423
 30
0.0
 40
9.35977424821858
 50
205.2685939916488
 51
269.2323430046814
210
0.0
220
0.0
230
-1.0
  0
LINE
  5
9C
  8
DEFAULT
 10
11.49999999999991
 20
-179.5000000000001
 30
0.0
 11
11.49999999999991
 21
-176.5
 31
0.0
  0
LINE
  5
9D
  8
DEFAULT
 10
11.49999999999991
 20
-176.5
 30
0.0
 11
14.49999999999991
 21
-176.5
 31
0.0
  0
LINE
  5
9E
  8
DEFAULT
 10
14.49999999999991
 20
-176.5
 30
0.0
 11
14.49999999999994
 21
-156.5000000000001
 31
0.0
  0
LINE
  5
9F
  8
DEFAULT
 10
14.49999999999994
 20
-156.5000000000001
 30
0.0
 11
11.49999999999994
 21
-156.5000000000001
 31
0.0
  0
LINE
  5
A0
  8
DEFAULT
 10
11.49999999999994
 20
-156.5000000000001
 30
0.0
 11
11.49999999999994
 21
-153.5000000000001
 31
0.0
  0
LINE
  5
A1
  8
DEFAULT
 10
11.49999999999994
 20
-153.5000000000001
 30
0.0
 11
-62.50000000000006
 21
-153.5
 31
0.0
  0
LINE
  5
A2
  8
DEFAULT
 10
-62.50000000000006
 20
-153.5
 30
0.0
 11
-62.50000000000006
 21
-156.5
 31
0.0
  0
LINE
  5
A3
  8
DEFAULT
 10
-62.50000000000006
 20
-156.5
 30
0.0
 11
-65.50000000000006
 21
-156.5
 31
0.0
  0
LINE
  5
A4
  8
DEFAULT
 10
-65.50000000000006
 20
-156.5
 30
0.0
 11
-65.50000000000009
 21
-176.5
 31
0.0
  0
LINE
  5
A5
  8
DEFAULT
 10
-65.50000000000009
 20
-176.5
 30
0.0
 11
-62.50000000000009
 21
-176.5
 31
0.0
  0
LINE
  5
A6
  8
DEFAULT
 10
-62.50000000000009
 20
-176.5
 30
0.0
 11
-62.50000000000009
 21
-179.5
 31
0.0
  0
LINE
  5
A7
  8
DEFAULT
 10
-62.50000000000009
 20
-179.5
 30
0.0
 11
11.49999999999991
 21
-179.5000000000001
 31
0.0
  0
LINE
  5
A8
  8
DEFAULT
 10
11.49999999999994
 20
-150.5
 30
0.0
 11
11.49999999999994
 21
-147.5
 31
0.0
  0
LINE
  5
A9
  8
DEFAULT
 10
11.49999999999994
 20
-147.5
 30
0.0
 11
14.49999999999994
 21
-147.5
 31
0.0
  0
LINE
  5
AA
  8
DEFAULT
 10
14.49999999999994
 20
-147.5
 30
0.0
 11
14.49999999999991
 21
-137.5
 31
0.0
  0
LINE
  5
AB
  8
DEFAULT
 10
14.49999999999991
 20
-137.5
 30
0.0
 11
11.49999999999991
 21
-137.5
 31
0.0
  0
LINE
  5
AC
  8
DEFAULT
 10
11.49999999999991
 20
-137.5
 30
0.0
 11
11.49999999999991
 21
-134.5
 31
0.0
  0
LINE
  5
AD
  8
DEFAULT
 10
11.49999999999991
 20
-134.5
 30
0.0
 11
-62.50000000000009
 21
-134.5000000000001
 31
0.0
  0
LINE
  5
AE
  8
DEFAULT
 10
-62.50000000000009
 20
-134.5000000000001
 30
0.0
 11
-62.50000000000009
 21
-137.5000000000001
 31
0.0
  0
LINE
  5
AF
  8
DEFAULT
 10
-62.50000000000009
 20
-137.5000000000001
 30
0.0
 11
-65.50000000000009
 21
-137.5000000000001
 31
0.0
  0
LINE
  5
B0
  8
DEFAULT
 10
-65.50000000000009
 20
-137.5000000000001
 30
0.0
 11
-65.50000000000006
 21
-147.5000000000001
 31
0.0
  0
LINE
  5
B1
  8
DEFAULT
 10
-65.50000000000006
 20
-147.5000000000001
 30
0.0
 11
-62.50000000000006
 21
-147.5000000000001
 31
0.0
  0
LINE
  5
B2
  8
DEFAULT
 10
-62.50000000000006
 20
-147.5000000000001
 30
0.0
 11
-62.50000000000006
 21
-150.5000000000001
 31
0.0
  0
LINE
  5
B3
  8
DEFAULT
 10
-62.50000000000006
 20
-150.5000000000001
 30
0.0
 11
11.49999999999994
 21
-150.5
 31
0.0
  0
LINE
  5
B4
  8
DEFAULT
 10
9.999999999999986
 20
-93.0
 30
0.0
 11
9.999999999999915
 21
-96.0
 31
0.0
  0
LINE
  5
B5
  8
DEFAULT
 10
9.999999999999915
 20
-96.0
 30
0.0
 11
58.55051025721681
 21
-96.0
 31
0.0
  0
ARC
  5
B6
  8
DEFAULT
 10
58.55051025721676
 20
-89.55051025721677
 30
0.0
 40
6.449489742783229
 50
270.0000000000004
 51
359.9999999999998
  0
LINE
  5
B7
  8
DEFAULT
 10
65.0
 20
-89.55051025721681
 30
0.0
 11
65.0
 21
-86.0
 31
0.0
  0
LINE
  5
B8
  8
DEFAULT
 10
65.0
 20
-86.0
 30
0.0
 11
62.0
 21
-86.0
 31
0.0
  0
LINE
  5
B9
  8
DEFAULT
 10
62.0
 20
-86.0
 30
0.0
 11
62.0
 21
-76.0
 31
0.0
  0
LINE
  5
BA
  8
DEFAULT
 10
62.0
 20
-76.0
 30
0.0
 11
65.0
 21
-76.00000000000001
 31
0.0
  0
LINE
  5
BB
  8
DEFAULT
 10
65.0
 20
-76.00000000000001
 30
0.0
 11
69.39199321602035
 21
-68.97281085436745
 31
0.0
  0
ARC
  5
BC
  8
DEFAULT
 10
66.00000000000034
 20
-66.85281509435481
 30
0.0
 40
3.99999999999967
 50
327.9946167919148
 51
0.0000000000016284
  0
LINE
  5
BD
  8
DEFAULT
 10
70.00000000000001
 20
-66.8528150943547
 30
0.0
 11
70.0
 21
-59.0
 31
0.0
  0
ARC
  5
BE
  8
DEFAULT
 10
65.99999999999999
 20
-59.00000000000001
 30
0.0
 40
4.000000000000014
 50
0.0000000000001018
 51
89.9999999999998
  0
LINE
  5
BF
  8
DEFAULT
 10
66.0
 20
-55.0
 30
0.0
 11
56.38345229627812
 21
-55.0
 31
0.0
  0
ARC
  5
C0
  8
DEFAULT
 10
56.38345229627809
 20
-58.99999999999989
 30
0.0
 40
3.999999999999886
 50
89.99999999999949
 51
128.1572265873695
  0
LINE
  5
C1
  8
DEFAULT
 10
53.91216608855052
 20
-55.8547266447103
 30
0.0
 11
42.0878339114495
 21
-65.1452733552897
 31
0.0
  0
ARC
  5
C2
  8
DEFAULT
 10
-39.61654770372174
 20
-61.99999999999959
 30
0.0
 40
4.000000000000423
 50
231.8427734126331
 51
269.9999999999966
210
0.0
220
0.0
230
-1.0
  0
LINE
  5
C3
  8
DEFAULT
 10
39.61654770372198
 20
-66.00000000000001
 30
0.0
 11
10.00000000000001
 21
-66.0
 31
0.0
  0
LINE
  5
C4
  8
DEFAULT
 10
10.00000000000001
 20
-66.0
 30
0.0
 11
9.999999999999972
 21
-69.0
 31
0.0
  0
LINE
  5
C5
  8
DEFAULT
 10
9.999999999999972
 20
-69.0
 30
0.0
 11
-10.0
 21
-69.0
 31
0.0
  0
LINE
  5
C6
  8
DEFAULT
 10
-10.0
 20
-69.0
 30
0.0
 11
-10.00000000000004
 21
-66.0
 31
0.0
  0
LINE
  5
C7
  8
DEFAULT
 10
-10.00000000000004
 20
-66.0
 30
0.0
 11
-39.61654770372201
 21
-66.00000000000001
 31
0.0
  0
ARC
  5
C8
  8
DEFAULT
 10
39.61654770372176
 20
-61.99999999999958
 30
0.0
 40
4.000000000000433
 50
270.0000000000035
 51
308.1572265873669
210
0.0
220
0.0
230
-1.0
  0
LINE
  5
C9
  8
DEFAULT
 10
-42.08783391144953
 20
-65.1452733552897
 30
0.0
 11
-53.91216608855055
 21
-55.8547266447103
 31
0.0
  0
ARC
  5
CA
  8
DEFAULT
 10
-56.38345229627812
 20
-58.99999999999986
 30
0.0
 40
3.999999999999868
 50
51.84277341263034
 51
90.0000000000005
  0
LINE
  5
CB
  8
DEFAULT
 10
-56.38345229627815
 20
-55.0
 30
0.0
 11
-66.00000000000003
 21
-55.0
 31
0.0
  0
ARC
  5
CC
  8
DEFAULT
 10
-66.00000000000001
 20
-59.00000000000001
 30
0.0
 40
4.000000000000014
 50
90.0000000000002
 51
179.9999999999998
  0
LINE
  5
CD
  8
DEFAULT
 10
-70.00000000000003
 20
-59.0
 30
0.0
 11
-70.00000000000004
 21
-66.8528150943547
 31
0.0
  0
ARC
  5
CE
  8
DEFAULT
 10
-66.00000000000037
 20
-66.8528150943548
 30
0.0
 40
3.999999999999673
 50
179.9999999999986
 51
212.0053832080853
  0
LINE
  5
CF
  8
DEFAULT
 10
-69.39199321602038
 20
-68.97281085436745
 30
0.0
 11
-65.00000000000003
 21
-76.00000000000001
 31
0.0
  0
LINE
  5
D0
  8
DEFAULT
 10
-65.00000000000003
 20
-76.00000000000001
 30
0.0
 11
-62.00000000000003
 21
-76.0
 31
0.0
  0
LINE
  5
D1
  8
DEFAULT
 10
-62.00000000000003
 20
-76.0
 30
0.0
 11
-62.00000000000003
 21
-86.0
 31
0.0
  0
LINE
  5
D2
  8
DEFAULT
 10
-62.00000000000003
 20
-86.0
 30
0.0
 11
-65.00000000000003
 21
-86.0
 31
0.0
  0
LINE
  5
D3
  8
DEFAULT
 10
-65.00000000000003
 20
-86.0
 30
0.0
 11
-65.00000000000003
 21
-89.55051025721681
 31
0.0
  0
ARC
  5
D4
  8
DEFAULT
 10
-58.55051025721681
 20
-89.55051025721679
 30
0.0
 40
6.449489742783214
 50
180.0000000000002
 51
269.9999999999998
  0
LINE
  5
D5
  8
DEFAULT
 10
-58.55051025721684
 20
-96.0
 30
0.0
 11
-9.999999999999943
 21
-96.0
 31
0.0
  0
LINE
  5
D6
  8
DEFAULT
 10
-9.999999999999943
 20
-96.0
 30
0.0
 11
-10.00000000000001
 21
-93.0
 31
0.0
  0
LINE
  5
D7
  8
DEFAULT
 10
-10.00000000000001
 20
-93.0
 30
0.0
 11
9.999999999999986
 21
-93.0
 31
0.0
  0
CIRCLE
  5
D8
  8
DEFAULT
 10
-64.5
 20
-60.0
 30
0.0
 40
1.5
  0
CIRCLE
  5
D9
  8
DEFAULT
 10
-55.5
 20
-60.0
 30
0.0
 40
1.5
  0
LINE
  5
DA
  8
DEFAULT
 10
-40.99989999999988
 20
-90.99999999999997
 30
0.0
 11
-29.45860000000002
 21
-91.0
 31
0.0
  0
LINE
  5
DB
  8
DEFAULT
 10
-29.45860000000002
 20
-91.0
 30
0.0
 11
-29.45860000000002
 21
-89.89999999999989
 31
0.0
  0
LINE
  5
DC
  8
DEFAULT
 10
-29.45860000000002
 20
-89.89999999999989
 30
0.0
 11
-15.74380000000022
 21
-89.89999999999989
 31
0.0
  0
LINE
  5
DD
  8
DEFAULT
 10
-15.74380000000022
 20
-89.89999999999989
 30
0.0
 11
-15.74380000000022
 21
-87.29999999999998
 31
0.0
  0
LINE
  5
DE
  8
DEFAULT
 10
-15.74380000000022
 20
-87.29999999999998
 30
0.0
 11
-13.48689999999991
 21
-87.29999999999998
 31
0.0
  0
LINE
  5
DF
  8
DEFAULT
 10
-13.48689999999991
 20
-87.29999999999998
 30
0.0
 11
-13.48689999999991
 21
-74.7000000000001
 31
0.0
  0
LINE
  5
E0
  8
DEFAULT
 10
-13.48689999999991
 20
-74.7000000000001
 30
0.0
 11
-15.74380000000022
 21
-74.7000000000001
 31
0.0
  0
LINE
  5
E1
  8
DEFAULT
 10
-15.74380000000022
 20
-74.7000000000001
 30
0.0
 11
-15.74380000000022
 21
-72.10000000000008
 31
0.0
  0
LINE
  5
E2
  8
DEFAULT
 10
-15.74380000000022
 20
-72.10000000000008
 30
0.0
 11
-29.45860000000002
 21
-72.10000000000008
 31
0.0
  0
LINE
  5
E3
  8
DEFAULT
 10
-29.45860000000002
 20
-72.10000000000008
 30
0.0
 11
-29.45860000000002
 21
-71.0
 31
0.0
  0
LINE
  5
E4
  8
DEFAULT
 10
-29.45860000000002
 20
-71.0
 30
0.0
 11
-41.81689184034852
 21
-71.00000000000007
 31
0.0
  0
ARC
  5
E5
  8
DEFAULT
 10
-40.82847180398826
 20
-80.370076105805
 30
0.0
 40
9.422064550662705
 50
96.02168317239949
 51
154.5850438926284
  0
LINE
  5
E6
  8
DEFAULT
 10
-49.33870000000027
 20
-76.32640000000015
 30
0.0
 11
-49.33870000000027
 21
-85.6364000000001
 31
0.0
  0
ARC
  5
E7
  8
DEFAULT
 10
-40.87450016648894
 20
-81.64106582674229
 30
0.0
 40
9.35977424821854
 50
205.2685939916487
 51
269.2323430046815
  0
CIRCLE
  5
E8
  8
DEFAULT
 10
-54.90030000000026
 20
-85.99999999999996
 30
0.0
 40
1.629299999999589
  0
CIRCLE
  5
E9
  8
DEFAULT
 10
-5.099700000000191
 20
-76.00000000000048
 30
0.0
 40
1.629300000000065
  0
CIRCLE
  5
EA
  8
DEFAULT
 10
-5.099700000000181
 20
-86.0000000000004
 30
0.0
 40
1.629300000000055
  0
CIRCLE
  5
EB
  8
DEFAULT
 10
-54.90030000000027
 20
-76.0
 30
0.0
 40
1.629299999999603
  0
CIRCLE
  5
EC
  8
DEFAULT
 10
-64.49999999999997
 20
-60.0
 30
0.0
 40
1.5
210
0.0
220
0.0
230
-1.0
  0
CIRCLE
  5
ED
  8
DEFAULT
 10
-55.49999999999997
 20
-60.0
 30
0.0
 40
1.5
210
0.0
220
0.0
230
-1.0
  0
LINE
  5
EE
  8
DEFAULT
 10
40.99989999999985
 20
-90.99999999999997
 30
0.0
 11
29.45859999999999
 21
-91.0
 31
0.0
  0
LINE
  5
EF
  8
DEFAULT
 10
29.45859999999999
 20
-91.0
 30
0.0
 11
29.45859999999999
 21
-89.89999999999989
 31
0.0
  0
LINE
  5
F0
  8
DEFAULT
 10
29.45859999999999
 20
-89.89999999999989
 30
0.0
 11
15.74380000000019
 21
-89.89999999999989
 31
0.0
  0
LINE
  5
F1
  8
DEFAULT
 10
15.74380000000019
 20
-89.89999999999989
 30
0.0
 11
15.74380000000019
 21
-87.29999999999998
 31
0.0
  0
LINE
  5
F2
  8
DEFAULT
 10
15.74380000000019
 20
-87.29999999999998
 30
0.0
 11
13.48689999999988
 21
-87.29999999999998
 31
0.0
  0
LINE
  5
F3
  8
DEFAULT
 10
13.48689999999988
 20
-87.29999999999998
 30
0.0
 11
13.48689999999988
 21
-74.7000000000001
 31
0.0
  0
LINE
  5
F4
  8
DEFAULT
 10
13.48689999999988
 20
-74.7000000000001
 30
0.0
 11
15.74380000000019
 21
-74.7000000000001
 31
0.0
  0
LINE
  5
F5
  8
DEFAULT
 10
15.74380000000019
 20
-74.7000000000001
 30
0.0
 11
15.74380000000019
 21
-72.10000000000008
 31
0.0
  0
LINE
  5
F6
  8
DEFAULT
 10
15.74380000000019
 20
-72.10000000000008
 30
0.0
 11
29.45859999999999
 21
-72.10000000000008
 31
0.0
  0
LINE
  5
F7
  8
DEFAULT
 10
29.45859999999999
 20
-72.10000000000008
 30
0.0
 11
29.45859999999999
 21
-71.0
 31
0.0
  0
LINE
  5
F8
  8
DEFAULT
 10
29.45859999999999
 20
-71.0
 30
0.0
 11
41.81689184034849
 21
-71.00000000000007
 31
0.0
  0
ARC
  5
F9
  8
DEFAULT
 10
-40.82847180398823
 20
-80.37007610580501
 30
0.0
 40
9.42206455066272
 50
96.02168317239953
 51
154.5850438926283
210
0.0
220
0.0
230
-1.0
  0
LINE
  5
FA
  8
DEFAULT
 10
49.33870000000024
 20
-76.32640000000015
 30
0.0
 11
49.33870000000024
 21
-85.6364000000001
 31
0.0
  0
ARC
  5
FB
  8
DEFAULT
 10
-40.87450016648893
 20
-81.64106582674233
 30
0.0
 40
9.359774248218503
 50
205.2685939916485
 51
269.2323430046816
210
0.0
220
0.0
230
-1.0
  0
CIRCLE
  5
FC
  8
DEFAULT
 10
-54.90030000000024
 20
-85.99999999999996
 30
0.0
 40
1.629299999999596
210
0.0
220
0.0
230
-1.0
  0
CIRCLE
  5
FD
  8
DEFAULT
 10
-5.099700000000156
 20
-76.00000000000048
 30
0.0
 40
1.629300000000058
210
0.0
220
0.0
230
-1.0
  0
CIRCLE
  5
FE
  8
DEFAULT
 10
-5.099700000000156
 20
-86.0000000000004
 30
0.0
 40
1.629300000000058
210
0.0
220
0.0
230
-1.0
  0
CIRCLE
  5
FF
  8
DEFAULT
 10
-54.90030000000024
 20
-76.0
 30
0.0
 40
1.629299999999603
210
0.0
220
0.0
230
-1.0
  0
CIRCLE
  5
100
  8
DEFAULT
 10
56.0
 20
-144.0
 30
0.0
 40
1.5
  0
LINE
  5
101
  8
DEFAULT
 10
57.0
 20
-159.0
 30
0.0
 11
57.0
 21
-151.0
 31
0.0
  0
ARC
  5
102
  8
DEFAULT
 10
56.0
 20
-151.0
 30
0.0
 40
1.0
 50
0.0
 51
180.0
  0
LINE
  5
103
  8
DEFAULT
 10
55.0
 20
-151.0
 30
0.0
 11
55.0
 21
-159.0
 31
0.0
  0
ARC
  5
104
  8
DEFAULT
 10
56.0
 20
-159.0
 30
0.0
 40
1.0
 50
180.0
 51
0.0
  0
CIRCLE
  5
105
  8
DEFAULT
 10
56.0
 20
-180.0
 30
0.0
 40
2.5
  0
LINE
  5
106
  8
DEFAULT
 10
62.0
 20
-180.0
 30
0.0
 11
62.0
 21
-142.0
 31
0.0
  0
ARC
  5
107
  8
DEFAULT
 10
56.0
 20
-142.0
 30
0.0
 40
6.0
 50
0.0
 51
180.0
  0
LINE
  5
108
  8
DEFAULT
 10
49.99999999999999
 20
-142.0
 30
0.0
 11
50.00000000000001
 21
-180.0
 31
0.0
  0
ARC
  5
109
  8
DEFAULT
 10
56.0
 20
-180.0
 30
0.0
 40
6.0
 50
180.0
 51
0.0
  0
CIRCLE
  5
10A
  8
DEFAULT
 10
51.75000000007311
 20
-169.5
 30
0.0
 40
0.75
  0
CIRCLE
  5
10B
  8
DEFAULT
 10
51.75000000007311
 20
-163.5
 30
0.0
 40
0.75
  0
CIRCLE
  5
10C
  8
DEFAULT
 10
-60.24999999992689
 20
-169.5
 30
0.0
 40
0.75
210
0.0
220
0.0
230
-1.0
  0
CIRCLE
  5
10D
  8
DEFAULT
 10
-60.24999999992689
 20
-163.5
 30
0.0
 40
0.75
210
0.0
220
0.0
230
-1.0
  0
CIRCLE
  5
10E
  8
DEFAULT
 10
39.99999999999999
 20
-144.0
 30
0.0
 40
1.5
  0
LINE
  5
10F
  8
DEFAULT
 10
41.0
 20
-159.0
 30
0.0
 11
41.0
 21
-151.0
 31
0.0
  0
ARC
  5
110
  8
DEFAULT
 10
40.0
 20
-151.0
 30
0.0
 40
1.0
 50
0.0
 51
180.0
  0
LINE
  5
111
  8
DEFAULT
 10
39.0
 20
-151.0
 30
0.0
 11
39.0
 21
-159.0
 31
0.0
  0
ARC
  5
112
  8
DEFAULT
 10
40.0
 20
-159.0
 30
0.0
 40
1.0
 50
180.0
 51
0.0
  0
CIRCLE
  5
113
  8
DEFAULT
 10
40.00000000000001
 20
-180.0
 30
0.0
 40
2.5
  0
LINE
  5
114
  8
DEFAULT
 10
46.00000000000001
 20
-180.0
 30
0.0
 11
45.99999999999999
 21
-142.0
 31
0.0
  0
ARC
  5
115
  8
DEFAULT
 10
39.99999999999999
 20
-142.0
 30
0.0
 40
6.0
 50
0.0
 51
180.0
  0
LINE
  5
116
  8
DEFAULT
 10
33.99999999999999
 20
-142.0
 30
0.0
 11
34.00000000000001
 21
-180.0
 31
0.0
  0
ARC
  5
117
  8
DEFAULT
 10
40.00000000000001
 20
-180.0
 30
0.0
 40
6.0
 50
180.0
 51
0.0
  0
ENDSEC
  0
EOF
