  0
SECTION
  2
HEADER
  9
$ACADVER
  1
AC1009
  9
$DWGCODEPAGE
  3
ansi_1252
  9
$INSBASE
 10
0.0
 20
0.0
 30
0.0
  9
$EXTMIN
 10
220.9964417932929
 20
-425.0000000000318
 30
-0.4174487081813854
  9
$EXTMAX
 10
650.0
 20
-249.4275506348171
 30
5.499999365285866
  9
$LIMMIN
 10
0.0
 20
0.0
  9
$LIMMAX
 10
12.0
 20
9.0
  9
$ORTHOMODE
 70
     0
  9
$REGENMODE
 70
     1
  9
$FILLMODE
 70
     1
  9
$QTEXTMODE
 70
     0
  9
$MIRRTEXT
 70
     1
  9
$DRAGMODE
 70
     2
  9
$LTSCALE
 40
1.0
  9
$OSMODE
 70
    37
  9
$ATTMODE
 70
     1
  9
$TEXTSIZE
 40
0.2
  9
$TRACEWID
 40
0.05
  9
$TEXTSTYLE
  7
STANDARD
  9
$CLAYER
  8
ASSEMBLY
  9
$CELTYPE
  6
BYLAYER
  9
$CECOLOR
 62
   256
  9
$DIMSCALE
 40
1.0
  9
$DIMASZ
 40
0.18
  9
$DIMEXO
 40
0.0625
  9
$DIMDLI
 40
0.38
  9
$DIMRND
 40
0.0
  9
$DIMDLE
 40
0.0
  9
$DIMEXE
 40
0.18
  9
$DIMTP
 40
0.0
  9
$DIMTM
 40
0.0
  9
$DIMTXT
 40
0.18
  9
$DIMCEN
 40
0.09
  9
$DIMTSZ
 40
0.0
  9
$DIMTOL
 70
     0
  9
$DIMLIM
 70
     0
  9
$DIMTIH
 70
     1
  9
$DIMTOH
 70
     1
  9
$DIMSE1
 70
     0
  9
$DIMSE2
 70
     0
  9
$DIMTAD
 70
     0
  9
$DIMZIN
 70
     0
  9
$DIMBLK
  1

  9
$DIMASO
 70
     1
  9
$DIMSHO
 70
     1
  9
$DIMPOST
  1

  9
$DIMAPOST
  1

  9
$DIMALT
 70
     0
  9
$DIMALTD
 70
     2
  9
$DIMALTF
 40
25.4
  9
$DIMLFAC
 40
1.0
  9
$DIMTOFL
 70
     0
  9
$DIMTVP
 40
0.0
  9
$DIMTIX
 70
     0
  9
$DIMSOXD
 70
     0
  9
$DIMSAH
 70
     0
  9
$DIMBLK1
  1

  9
$DIMBLK2
  1

  9
$DIMSTYLE
  2
STANDARD_ACAD
  9
$DIMCLRD
 70
     0
  9
$DIMCLRE
 70
     0
  9
$DIMCLRT
 70
     0
  9
$DIMTFAC
 40
1.0
  9
$DIMGAP
 40
0.09
  9
$LUNITS
 70
     2
  9
$LUPREC
 70
     3
  9
$SKETCHINC
 40
0.1
  9
$FILLETRAD
 40
0.0
  9
$AUNITS
 70
     0
  9
$AUPREC
 70
     0
  9
$MENU
  1
.
  9
$ELEVATION
 40
0.0
  9
$PELEVATION
 40
0.0
  9
$THICKNESS
 40
0.0
  9
$LIMCHECK
 70
     0
  9
$CHAMFERA
 40
0.0
  9
$CHAMFERB
 40
0.0
  9
$SKPOLY
 70
     0
  9
$TDCREATE
 40
2460341.770419051
  9
$TDUPDATE
 40
2460341.770431296
  9
$TDINDWG
 40
0.0000000116
  9
$TDUSRTIMER
 40
0.0000000116
  9
$USRTIMER
 70
     1
  9
$ANGBASE
 50
0.0
  9
$ANGDIR
 70
     0
  9
$PDMODE
 70
     0
  9
$PDSIZE
 40
0.0
  9
$PLINEWID
 40
0.0
  9
$COORDS
 70
     1
  9
$SPLFRAME
 70
     0
  9
$SPLINETYPE
 70
     6
  9
$SPLINESEGS
 70
     8
  9
$ATTDIA
 70
     0
  9
$ATTREQ
 70
     1
  9
$HANDLING
 70
     1
  9
$HANDSEED
  5
27D
  9
$SURFTAB1
 70
     6
  9
$SURFTAB2
 70
     6
  9
$SURFTYPE
 70
     6
  9
$SURFU
 70
     6
  9
$SURFV
 70
     6
  9
$UCSNAME
  2

  9
$UCSORG
 10
0.0
 20
0.0
 30
0.0
  9
$UCSXDIR
 10
1.0
 20
0.0
 30
0.0
  9
$UCSYDIR
 10
0.0
 20
1.0
 30
0.0
  9
$PUCSNAME
  2

  9
$PUCSORG
 10
0.0
 20
0.0
 30
0.0
  9
$PUCSXDIR
 10
1.0
 20
0.0
 30
0.0
  9
$PUCSYDIR
 10
0.0
 20
1.0
 30
0.0
  9
$USERI1
 70
     0
  9
$USERI2
 70
     0
  9
$USERI3
 70
     0
  9
$USERI4
 70
     0
  9
$USERI5
 70
     0
  9
$USERR1
 40
0.0
  9
$USERR2
 40
0.0
  9
$USERR3
 40
0.0
  9
$USERR4
 40
0.0
  9
$USERR5
 40
0.0
  9
$WORLDVIEW
 70
     1
  9
$SHADEDGE
 70
     3
  9
$SHADEDIF
 70
    70
  9
$TILEMODE
 70
     1
  9
$MAXACTVP
 70
    64
  9
$PLIMCHECK
 70
     0
  9
$PEXTMIN
 10
1.000000000000000E+20
 20
1.000000000000000E+20
 30
1.000000000000000E+20
  9
$PEXTMAX
 10
-1.000000000000000E+20
 20
-1.000000000000000E+20
 30
-1.000000000000000E+20
  9
$PLIMMIN
 10
0.0
 20
0.0
  9
$PLIMMAX
 10
12.0
 20
9.0
  9
$UNITMODE
 70
     0
  9
$VISRETAIN
 70
     1
  9
$PLINEGEN
 70
     0
  9
$PSLTSCALE
 70
     1
  0
ENDSEC
  0
SECTION
  2
TABLES
  0
TABLE
  2
VPORT
 70
     1
  0
VPORT
  2
*ACTIVE
 70
     0
 10
0.0
 20
0.0
 11
1.0
 21
1.0
 12
10.42990654205607
 22
4.5
 13
0.0
 23
0.0
 14
0.5
 24
0.5
 15
0.5
 25
0.5
 16
0.0
 26
0.0
 36
1.0
 17
0.0
 27
0.0
 37
0.0
 40
9.0
 41
1.972972972850329
 42
50.0
 43
0.0
 44
0.0
 50
0.0
 51
0.0
 71
     0
 72
   100
 73
     1
 74
     3
 75
     0
 76
     0
 77
     0
 78
     0
  0
ENDTAB
  0
TABLE
  2
LTYPE
 70
     1
  0
LTYPE
  2
CONTINUOUS
 70
     0
  3
Solid line
 72
    65
 73
     0
 40
0.0
  0
ENDTAB
  0
TABLE
  2
LAYER
 70
     3
  0
LAYER
  2
0
 70
     0
 62
     7
  6
CONTINUOUS
  0
LAYER
  2
ASSEMBLY
 70
     0
 62
     7
  6
CONTINUOUS
  0
LAYER
  2
PLATFORM$CURVES
 70
     0
 62
     7
  6
CONTINUOUS
  0
ENDTAB
  0
TABLE
  2
STYLE
 70
     1
  0
STYLE
  2
STANDARD
 70
     0
 40
0.0
 41
1.0
 50
0.0
 71
     0
 42
0.2
  3
txt
  4

  0
ENDTAB
  0
TABLE
  2
VIEW
 70
     0
  0
ENDTAB
  0
TABLE
  2
UCS
 70
     0
  0
ENDTAB
  0
TABLE
  2
APPID
 70
     2
  0
APPID
  2
ACAD
 70
     0
  0
APPID
  2
RHINO
 70
     0
  0
ENDTAB
  0
TABLE
  2
DIMSTYLE
 70
     1
  0
DIMSTYLE
  2
STANDARD_ACAD
 70
     0
  3

  4

  5

  6

  7

 40
1.0
 41
0.18
 42
0.0625
 43
0.38
 44
0.18
 45
0.0
 46
0.0
 47
0.0
 48
0.0
140
0.18
141
0.09
142
0.0
143
25.4
144
1.0
145
0.0
146
1.0
147
0.09
 71
     0
 72
     0
 73
     1
 74
     1
 75
     0
 76
     0
 77
     0
 78
     0
170
     0
171
     2
172
     0
173
     0
174
     0
175
     0
176
     0
177
     0
178
     0
  0
ENDTAB
  0
ENDSEC
  0
SECTION
  2
BLOCKS
  0
BLOCK
  8
0
  2
$MODEL_SPACE
 70
     0
 10
0.0
 20
0.0
 30
0.0
  3
$MODEL_SPACE
  1

  0
ENDBLK
  5
21
  8
0
  0
BLOCK
 67
     1
  8
0
  2
$PAPER_SPACE
 70
     0
 10
0.0
 20
0.0
 30
0.0
  3
$PAPER_SPACE
  1

  0
ENDBLK
  5
1D
 67
     1
  8
0
  0
ENDSEC
  0
SECTION
  2
ENTITIES
  0
LINE
  5
60
  8
ASSEMBLY
 10
332.4375554869067
 20
-425.0000000000002
 30
0.0
 11
379.265788999994
 21
-424.9999999999999
 31
0.0
  0
LINE
  5
61
  8
ASSEMBLY
 10
379.265788999994
 20
-424.9999999999999
 30
0.0
 11
379.3647430741343
 21
-424.9924324353036
 31
0.0
  0
LINE
  5
62
  8
ASSEMBLY
 10
379.3647430741343
 20
-424.9924324353036
 30
0.0
 11
379.4633742917673
 21
-424.9814297205313
 31
0.0
  0
LINE
  5
63
  8
ASSEMBLY
 10
379.4633742917673
 20
-424.9814297205313
 30
0.0
 11
379.5615634394223
 21
-424.9670051544319
 31
0.0
  0
LINE
  5
64
  8
ASSEMBLY
 10
379.5615634394223
 20
-424.9670051544319
 30
0.0
 11
379.6591918379457
 21
-424.9491761716747
 31
0.0
  0
LINE
  5
65
  8
ASSEMBLY
 10
379.6591918379457
 20
-424.9491761716747
 30
0.0
 11
379.7561414859479
 21
-424.9279643217757
 31
0.0
  0
LINE
  5
66
  8
ASSEMBLY
 10
379.7561414859479
 20
-424.9279643217757
 30
0.0
 11
379.8522952024396
 21
-424.9033952430493
 31
0.0
  0
LINE
  5
67
  8
ASSEMBLY
 10
379.8522952024396
 20
-424.9033952430493
 30
0.0
 11
379.9475367684449
 21
-424.8754986316244
 31
0.0
  0
LINE
  5
68
  8
ASSEMBLY
 10
379.9475367684449
 20
-424.8754986316244
 30
0.0
 11
380.0417510674934
 21
-424.8443082055465
 31
0.0
  0
LINE
  5
69
  8
ASSEMBLY
 10
380.0417510674934
 20
-424.8443082055465
 30
0.0
 11
380.1348242247508
 21
-424.809861664025
 31
0.0
  0
LINE
  5
6A
  8
ASSEMBLY
 10
380.1348242247508
 20
-424.809861664025
 30
0.0
 11
380.2266437446493
 21
-424.7722006418703
 31
0.0
  0
LINE
  5
6B
  8
ASSEMBLY
 10
380.2266437446493
 20
-424.7722006418703
 30
0.0
 11
380.3170986468747
 21
-424.7313706591642
 31
0.0
  0
LINE
  5
6C
  8
ASSEMBLY
 10
380.3170986468747
 20
-424.7313706591642
 30
0.0
 11
380.4060796004915
 21
-424.6874210662472
 31
0.0
  0
LINE
  5
6D
  8
ASSEMBLY
 10
380.4060796004915
 20
-424.6874210662472
 30
0.0
 11
380.4934790560995
 21
-424.6404049840644
 31
0.0
  0
LINE
  5
6E
  8
ASSEMBLY
 10
380.4934790560995
 20
-424.6404049840644
 30
0.0
 11
380.579191375817
 21
-424.5903792399644
 31
0.0
  0
LINE
  5
6F
  8
ASSEMBLY
 10
380.579191375817
 20
-424.5903792399644
 30
0.0
 11
380.6631129609727
 21
-424.5374042990078
 31
0.0
  0
LINE
  5
70
  8
ASSEMBLY
 10
380.6631129609727
 20
-424.5374042990078
 30
0.0
 11
380.7451423773138
 21
-424.4815441908905
 31
0.0
  0
LINE
  5
71
  8
ASSEMBLY
 10
380.7451423773138
 20
-424.4815441908905
 30
0.0
 11
380.8251804776162
 21
-424.4228664325458
 31
0.0
  0
LINE
  5
72
  8
ASSEMBLY
 10
380.8251804776162
 20
-424.4228664325458
 30
0.0
 11
380.9031305215148
 21
-424.3614419465439
 31
0.0
  0
LINE
  5
73
  8
ASSEMBLY
 10
380.9031305215148
 20
-424.3614419465439
 30
0.0
 11
380.9788982924338
 21
-424.2973449753666
 31
0.0
  0
LINE
  5
74
  8
ASSEMBLY
 10
380.9788982924338
 20
-424.2973449753666
 30
0.0
 11
381.052392211468
 21
-424.2306529916701
 31
0.0
  0
LINE
  5
75
  8
ASSEMBLY
 10
381.052392211468
 20
-424.2306529916701
 30
0.0
 11
381.1235234480652
 21
-424.1614466046506
 31
0.0
  0
LINE
  5
76
  8
ASSEMBLY
 10
381.1235234480652
 20
-424.1614466046506
 30
0.0
 11
381.192206027402
 21
-424.0898094626062
 31
0.0
  0
LINE
  5
77
  8
ASSEMBLY
 10
381.192206027402
 20
-424.0898094626062
 30
0.0
 11
381.2583569342894
 21
-424.0158281518439
 31
0.0
  0
LINE
  5
78
  8
ASSEMBLY
 10
381.2583569342894
 20
-424.0158281518439
 30
0.0
 11
381.3218962135227
 21
-423.9395920920124
 31
0.0
  0
LINE
  5
79
  8
ASSEMBLY
 10
381.3218962135227
 20
-423.9395920920124
 30
0.0
 11
381.3827470665156
 21
-423.8611934280287
 31
0.0
  0
LINE
  5
7A
  8
ASSEMBLY
 10
381.3827470665156
 20
-423.8611934280287
 30
0.0
 11
381.4408359441242
 21
-423.7807269187061
 31
0.0
  0
LINE
  5
7B
  8
ASSEMBLY
 10
381.4408359441242
 20
-423.7807269187061
 30
0.0
 11
381.4960926355461
 21
-423.698289822219
 31
0.0
  0
LINE
  5
7C
  8
ASSEMBLY
 10
381.4960926355461
 20
-423.698289822219
 30
0.0
 11
381.5484503531848
 21
-423.6139817785455
 31
0.0
  0
LINE
  5
7D
  8
ASSEMBLY
 10
381.5484503531848
 20
-423.6139817785455
 30
0.0
 11
381.5978458133696
 21
-423.5279046890428
 31
0.0
  0
LINE
  5
7E
  8
ASSEMBLY
 10
381.5978458133696
 20
-423.5279046890428
 30
0.0
 11
381.6442193128506
 21
-423.4401625932718
 31
0.0
  0
LINE
  5
7F
  8
ASSEMBLY
 10
381.6442193128506
 20
-423.4401625932718
 30
0.0
 11
381.687514800956
 21
-423.350861543255
 31
0.0
  0
LINE
  5
80
  8
ASSEMBLY
 10
381.687514800956
 20
-423.350861543255
 30
0.0
 11
381.7276799473415
 21
-423.2601094752898
 31
0.0
  0
LINE
  5
81
  8
ASSEMBLY
 10
381.7276799473415
 20
-423.2601094752898
 30
0.0
 11
381.7646662052427
 21
-423.168016079485
 31
0.0
  0
LINE
  5
82
  8
ASSEMBLY
 10
381.7646662052427
 20
-423.168016079485
 30
0.0
 11
381.7984288701485
 21
-423.0746926671889
 31
0.0
  0
LINE
  5
83
  8
ASSEMBLY
 10
381.7984288701485
 20
-423.0746926671889
 30
0.0
 11
381.8289271338385
 21
-422.9802520364398
 31
0.0
  0
LINE
  5
84
  8
ASSEMBLY
 10
381.8289271338385
 20
-422.9802520364398
 30
0.0
 11
381.856124133704
 21
-422.8848083356382
 31
0.0
  0
LINE
  5
85
  8
ASSEMBLY
 10
381.856124133704
 20
-422.8848083356382
 30
0.0
 11
381.8799869973043
 21
-422.7884769255742
 31
0.0
  0
LINE
  5
86
  8
ASSEMBLY
 10
381.8799869973043
 20
-422.7884769255742
 30
0.0
 11
381.9004868821
 21
-422.6913742399896
 31
0.0
  0
LINE
  5
87
  8
ASSEMBLY
 10
381.9004868821
 20
-422.6913742399896
 30
0.0
 11
381.9175990103121
 21
-422.5936176448556
 31
0.0
  0
LINE
  5
88
  8
ASSEMBLY
 10
381.9175990103121
 20
-422.5936176448556
 30
0.0
 11
381.9313026988722
 21
-422.4953252965053
 31
0.0
  0
LINE
  5
89
  8
ASSEMBLY
 10
381.9313026988722
 20
-422.4953252965053
 30
0.0
 11
381.9415813844208
 21
-422.3966159988301
 31
0.0
  0
LINE
  5
8A
  8
ASSEMBLY
 10
381.9415813844208
 20
-422.3966159988301
 30
0.0
 11
381.9484226433275
 21
-422.2976090596745
 31
0.0
  0
LINE
  5
8B
  8
ASSEMBLY
 10
381.9484226433275
 20
-422.2976090596745
 30
0.0
 11
381.9518182067067
 21
-422.1984241466397
 31
0.0
  0
LINE
  5
8C
  8
ASSEMBLY
 10
381.9518182067067
 20
-422.1984241466397
 30
0.0
 11
381.9517639704127
 21
-422.0991811424388
 31
0.0
  0
LINE
  5
8D
  8
ASSEMBLY
 10
381.9517639704127
 20
-422.0991811424388
 30
0.0
 11
381.9482599999997
 21
-421.9999999999999
 31
0.0
  0
LINE
  5
8E
  8
ASSEMBLY
 10
381.9482599999997
 20
-421.9999999999999
 30
0.0
 11
381.9482600000001
 21
-294.8550999999736
 31
0.0
  0
LINE
  5
8F
  8
ASSEMBLY
 10
381.9482600000001
 20
-294.8550999999736
 30
0.0
 11
381.9517639704131
 21
-294.7559188575335
 31
0.0
  0
LINE
  5
90
  8
ASSEMBLY
 10
381.9517639704131
 20
-294.7559188575335
 30
0.0
 11
381.9518182067071
 21
-294.6566758533339
 31
0.0
  0
LINE
  5
91
  8
ASSEMBLY
 10
381.9518182067071
 20
-294.6566758533339
 30
0.0
 11
381.9484226433278
 21
-294.5574909402991
 31
0.0
  0
LINE
  5
92
  8
ASSEMBLY
 10
381.9484226433278
 20
-294.5574909402991
 30
0.0
 11
381.9415813844212
 21
-294.4584840011448
 31
0.0
  0
LINE
  5
93
  8
ASSEMBLY
 10
381.9415813844212
 20
-294.4584840011448
 30
0.0
 11
381.9313026988726
 21
-294.3597747034685
 31
0.0
  0
LINE
  5
94
  8
ASSEMBLY
 10
381.9313026988726
 20
-294.3597747034685
 30
0.0
 11
381.9175990103123
 21
-294.2614823551181
 31
0.0
  0
LINE
  5
95
  8
ASSEMBLY
 10
381.9175990103123
 20
-294.2614823551181
 30
0.0
 11
381.9004868821003
 21
-294.1637257599841
 31
0.0
  0
LINE
  5
96
  8
ASSEMBLY
 10
381.9004868821003
 20
-294.1637257599841
 30
0.0
 11
381.8799869973046
 21
-294.0666230743996
 31
0.0
  0
LINE
  5
97
  8
ASSEMBLY
 10
381.8799869973046
 20
-294.0666230743996
 30
0.0
 11
381.8561241337039
 21
-293.9702916643344
 31
0.0
  0
LINE
  5
98
  8
ASSEMBLY
 10
381.8561241337039
 20
-293.9702916643344
 30
0.0
 11
381.8289271338388
 21
-293.874847963534
 31
0.0
  0
LINE
  5
99
  8
ASSEMBLY
 10
381.8289271338388
 20
-293.874847963534
 30
0.0
 11
381.7984288701488
 21
-293.7804073327849
 31
0.0
  0
LINE
  5
9A
  8
ASSEMBLY
 10
381.7984288701488
 20
-293.7804073327849
 30
0.0
 11
381.7646662052425
 21
-293.6870839204877
 31
0.0
  0
LINE
  5
9B
  8
ASSEMBLY
 10
381.7646662052425
 20
-293.6870839204877
 30
0.0
 11
381.7276799473418
 21
-293.5949905246841
 31
0.0
  0
LINE
  5
9C
  8
ASSEMBLY
 10
381.7276799473418
 20
-293.5949905246841
 30
0.0
 11
381.6875148009563
 21
-293.504238456719
 31
0.0
  0
LINE
  5
9D
  8
ASSEMBLY
 10
381.6875148009563
 20
-293.504238456719
 30
0.0
 11
381.644219312851
 21
-293.4149374067022
 31
0.0
  0
LINE
  5
9E
  8
ASSEMBLY
 10
381.644219312851
 20
-293.4149374067022
 30
0.0
 11
381.59784581337
 21
-293.3271953109312
 31
0.0
  0
LINE
  5
9F
  8
ASSEMBLY
 10
381.59784581337
 20
-293.3271953109312
 30
0.0
 11
381.5484503531845
 21
-293.2411182214275
 31
0.0
  0
LINE
  5
A0
  8
ASSEMBLY
 10
381.5484503531845
 20
-293.2411182214275
 30
0.0
 11
381.4960926355465
 21
-293.1568101777552
 31
0.0
  0
LINE
  5
A1
  8
ASSEMBLY
 10
381.4960926355465
 20
-293.1568101777552
 30
0.0
 11
381.4408359441238
 21
-293.0743730812669
 31
0.0
  0
LINE
  5
A2
  8
ASSEMBLY
 10
381.4408359441238
 20
-293.0743730812669
 30
0.0
 11
381.3827470665161
 21
-292.9939065719454
 31
0.0
  0
LINE
  5
A3
  8
ASSEMBLY
 10
381.3827470665161
 20
-292.9939065719454
 30
0.0
 11
381.3218962135232
 21
-292.9155079079618
 31
0.0
  0
LINE
  5
A4
  8
ASSEMBLY
 10
381.3218962135232
 20
-292.9155079079618
 30
0.0
 11
381.2583569342891
 21
-292.8392718481293
 31
0.0
  0
LINE
  5
A5
  8
ASSEMBLY
 10
381.2583569342891
 20
-292.8392718481293
 30
0.0
 11
381.1922060274017
 21
-292.765290537367
 31
0.0
  0
LINE
  5
A6
  8
ASSEMBLY
 10
381.1922060274017
 20
-292.765290537367
 30
0.0
 11
381.1235234480657
 21
-292.6936533953236
 31
0.0
  0
LINE
  5
A7
  8
ASSEMBLY
 10
381.1235234480657
 20
-292.6936533953236
 30
0.0
 11
381.0523922114677
 21
-292.6244470083032
 31
0.0
  0
LINE
  5
A8
  8
ASSEMBLY
 10
381.0523922114677
 20
-292.6244470083032
 30
0.0
 11
380.9788982924345
 21
-292.5577550246076
 31
0.0
  0
LINE
  5
A9
  8
ASSEMBLY
 10
380.9788982924345
 20
-292.5577550246076
 30
0.0
 11
380.9031305215145
 21
-292.4936580534296
 31
0.0
  0
LINE
  5
AA
  8
ASSEMBLY
 10
380.9031305215145
 20
-292.4936580534296
 30
0.0
 11
380.825180477617
 21
-292.4322335674284
 31
0.0
  0
LINE
  5
AB
  8
ASSEMBLY
 10
380.825180477617
 20
-292.4322335674284
 30
0.0
 11
380.7451423773146
 21
-292.3735558090837
 31
0.0
  0
LINE
  5
AC
  8
ASSEMBLY
 10
380.7451423773146
 20
-292.3735558090837
 30
0.0
 11
380.6631129609736
 21
-292.3176957009663
 31
0.0
  0
LINE
  5
AD
  8
ASSEMBLY
 10
380.6631129609736
 20
-292.3176957009663
 30
0.0
 11
380.5791913758168
 21
-292.2647207600091
 31
0.0
  0
LINE
  5
AE
  8
ASSEMBLY
 10
380.5791913758168
 20
-292.2647207600091
 30
0.0
 11
380.4934790560993
 21
-292.2146950159092
 31
0.0
  0
LINE
  5
AF
  8
ASSEMBLY
 10
380.4934790560993
 20
-292.2146950159092
 30
0.0
 11
380.4060796004914
 21
-292.1676789337264
 31
0.0
  0
LINE
  5
B0
  8
ASSEMBLY
 10
380.4060796004914
 20
-292.1676789337264
 30
0.0
 11
380.3170986468746
 21
-292.1237293408094
 31
0.0
  0
LINE
  5
B1
  8
ASSEMBLY
 10
380.3170986468746
 20
-292.1237293408094
 30
0.0
 11
380.2266437446492
 21
-292.0828993581034
 31
0.0
  0
LINE
  5
B2
  8
ASSEMBLY
 10
380.2266437446492
 20
-292.0828993581034
 30
0.0
 11
380.1348242247507
 21
-292.0452383359486
 31
0.0
  0
LINE
  5
B3
  8
ASSEMBLY
 10
380.1348242247507
 20
-292.0452383359486
 30
0.0
 11
380.0417510674946
 21
-292.0107917944276
 31
0.0
  0
LINE
  5
B4
  8
ASSEMBLY
 10
380.0417510674946
 20
-292.0107917944276
 30
0.0
 11
379.9475367684449
 21
-291.9796013683492
 31
0.0
  0
LINE
  5
B5
  8
ASSEMBLY
 10
379.9475367684449
 20
-291.9796013683492
 30
0.0
 11
379.8522952024383
 21
-291.951704756924
 31
0.0
  0
LINE
  5
B6
  8
ASSEMBLY
 10
379.8522952024383
 20
-291.951704756924
 30
0.0
 11
379.7561414859504
 21
-291.9271356781985
 31
0.0
  0
LINE
  5
B7
  8
ASSEMBLY
 10
379.7561414859504
 20
-291.9271356781985
 30
0.0
 11
379.6591918379445
 21
-291.9059238282987
 31
0.0
  0
LINE
  5
B8
  8
ASSEMBLY
 10
379.6591918379445
 20
-291.9059238282987
 30
0.0
 11
379.5615634394225
 21
-291.8880948455417
 31
0.0
  0
LINE
  5
B9
  8
ASSEMBLY
 10
379.5615634394225
 20
-291.8880948455417
 30
0.0
 11
379.4633742917674
 21
-291.8736702794424
 31
0.0
  0
LINE
  5
BA
  8
ASSEMBLY
 10
379.4633742917674
 20
-291.8736702794424
 30
0.0
 11
379.3647430741332
 21
-291.8626675646699
 31
0.0
  0
LINE
  5
BB
  8
ASSEMBLY
 10
379.3647430741332
 20
-291.8626675646699
 30
0.0
 11
379.2657889999942
 21
-291.8550999999737
 31
0.0
  0
LINE
  5
BC
  8
ASSEMBLY
 10
379.2657889999942
 20
-291.8550999999737
 30
0.0
 11
332.437555486906
 21
-291.8550999999737
 31
0.0
  0
ARC
  5
BD
  8
ASSEMBLY
 10
332.4375554869058
 20
-295.8550999999736
 30
0.0
 40
3.999999999999886
 50
89.99999999999756
 51
179.9999999999992
  0
LINE
  5
BE
  8
ASSEMBLY
 10
328.4375554869059
 20
-295.8550999999735
 30
0.0
 11
328.4375554869059
 21
-328.8550999999737
 31
0.0
  0
ARC
  5
BF
  8
ASSEMBLY
 10
-324.4375554869059
 20
-328.8550999999738
 30
0.0
 40
3.999999999999943
 50
179.9999999999976
 51
270.0000000000008
210
0.0
220
0.0
230
-1.0
  0
LINE
  5
C0
  8
ASSEMBLY
 10
324.4375554869059
 20
-332.8550999999738
 30
0.0
 11
278.5107045130941
 21
-332.8550999999738
 31
0.0
  0
ARC
  5
C1
  8
ASSEMBLY
 10
-278.510704513094
 20
-328.855099999974
 30
0.0
 40
3.999999999999829
 50
269.9999999999976
 51
0.0000000000024427
210
0.0
220
0.0
230
-1.0
  0
LINE
  5
C2
  8
ASSEMBLY
 10
274.5107045130941
 20
-328.8550999999738
 30
0.0
 11
274.5107045130942
 21
-295.8550999999737
 31
0.0
  0
ARC
  5
C3
  8
ASSEMBLY
 10
270.5107045130943
 20
-295.8550999999737
 30
0.0
 40
3.999999999999943
 50
0.0
 51
89.99999999999919
  0
LINE
  5
C4
  8
ASSEMBLY
 10
270.5107045130943
 20
-291.8550999999737
 30
0.0
 11
223.6824710000061
 21
-291.8550999999737
 31
0.0
  0
LINE
  5
C5
  8
ASSEMBLY
 10
223.6824710000061
 20
-291.8550999999737
 30
0.0
 11
223.5835169258671
 21
-291.8626675646698
 31
0.0
  0
LINE
  5
C6
  8
ASSEMBLY
 10
223.5835169258671
 20
-291.8626675646698
 30
0.0
 11
223.4848857082316
 21
-291.8736702794425
 31
0.0
  0
LINE
  5
C7
  8
ASSEMBLY
 10
223.4848857082316
 20
-291.8736702794425
 30
0.0
 11
223.3866965605777
 21
-291.8880948455417
 31
0.0
  0
LINE
  5
C8
  8
ASSEMBLY
 10
223.3866965605777
 20
-291.8880948455417
 30
0.0
 11
223.2890681620557
 21
-291.9059238282986
 31
0.0
  0
LINE
  5
C9
  8
ASSEMBLY
 10
223.2890681620557
 20
-291.9059238282986
 30
0.0
 11
223.1921185140523
 21
-291.9271356781978
 31
0.0
  0
LINE
  5
CA
  8
ASSEMBLY
 10
223.1921185140523
 20
-291.9271356781978
 30
0.0
 11
223.0959647975605
 21
-291.9517047569242
 31
0.0
  0
LINE
  5
CB
  8
ASSEMBLY
 10
223.0959647975605
 20
-291.9517047569242
 30
0.0
 11
223.0007232315552
 21
-291.9796013683491
 31
0.0
  0
LINE
  5
CC
  8
ASSEMBLY
 10
223.0007232315552
 20
-291.9796013683491
 30
0.0
 11
222.9065089325066
 21
-292.0107917944271
 31
0.0
  0
LINE
  5
CD
  8
ASSEMBLY
 10
222.9065089325066
 20
-292.0107917944271
 30
0.0
 11
222.8134357752493
 21
-292.0452383359486
 31
0.0
  0
LINE
  5
CE
  8
ASSEMBLY
 10
222.8134357752493
 20
-292.0452383359486
 30
0.0
 11
222.7216162553508
 21
-292.0828993581033
 31
0.0
  0
LINE
  5
CF
  8
ASSEMBLY
 10
222.7216162553508
 20
-292.0828993581033
 30
0.0
 11
222.6311613531253
 21
-292.1237293408093
 31
0.0
  0
LINE
  5
D0
  8
ASSEMBLY
 10
222.6311613531253
 20
-292.1237293408093
 30
0.0
 11
222.5421803995073
 21
-292.167678933727
 31
0.0
  0
LINE
  5
D1
  8
ASSEMBLY
 10
222.5421803995073
 20
-292.167678933727
 30
0.0
 11
222.4547809439005
 21
-292.2146950159091
 31
0.0
  0
LINE
  5
D2
  8
ASSEMBLY
 10
222.4547809439005
 20
-292.2146950159091
 30
0.0
 11
222.3690686241829
 21
-292.2647207600092
 31
0.0
  0
LINE
  5
D3
  8
ASSEMBLY
 10
222.3690686241829
 20
-292.2647207600092
 30
0.0
 11
222.2851470390272
 21
-292.3176957009657
 31
0.0
  0
LINE
  5
D4
  8
ASSEMBLY
 10
222.2851470390272
 20
-292.3176957009657
 30
0.0
 11
222.2031176226862
 21
-292.373555809083
 31
0.0
  0
LINE
  5
D5
  8
ASSEMBLY
 10
222.2031176226862
 20
-292.373555809083
 30
0.0
 11
222.1230795223837
 21
-292.4322335674277
 31
0.0
  0
LINE
  5
D6
  8
ASSEMBLY
 10
222.1230795223837
 20
-292.4322335674277
 30
0.0
 11
222.0451294784852
 21
-292.4936580534297
 31
0.0
  0
LINE
  5
D7
  8
ASSEMBLY
 10
222.0451294784852
 20
-292.4936580534297
 30
0.0
 11
221.9693617075661
 21
-292.5577550246069
 31
0.0
  0
LINE
  5
D8
  8
ASSEMBLY
 10
221.9693617075661
 20
-292.5577550246069
 30
0.0
 11
221.8958677885319
 21
-292.6244470083034
 31
0.0
  0
LINE
  5
D9
  8
ASSEMBLY
 10
221.8958677885319
 20
-292.6244470083034
 30
0.0
 11
221.8247365519347
 21
-292.6936533953229
 31
0.0
  0
LINE
  5
DA
  8
ASSEMBLY
 10
221.8247365519347
 20
-292.6936533953229
 30
0.0
 11
221.7560539725987
 21
-292.7652905373663
 31
0.0
  0
LINE
  5
DB
  8
ASSEMBLY
 10
221.7560539725987
 20
-292.7652905373663
 30
0.0
 11
221.6899030657105
 21
-292.8392718481296
 31
0.0
  0
LINE
  5
DC
  8
ASSEMBLY
 10
221.6899030657105
 20
-292.8392718481296
 30
0.0
 11
221.6263637864772
 21
-292.9155079079611
 31
0.0
  0
LINE
  5
DD
  8
ASSEMBLY
 10
221.6263637864772
 20
-292.9155079079611
 30
0.0
 11
221.5655129334843
 21
-292.9939065719448
 31
0.0
  0
LINE
  5
DE
  8
ASSEMBLY
 10
221.5655129334843
 20
-292.9939065719448
 30
0.0
 11
221.5074240558757
 21
-293.0743730812674
 31
0.0
  0
LINE
  5
DF
  8
ASSEMBLY
 10
221.5074240558757
 20
-293.0743730812674
 30
0.0
 11
221.4521673644538
 21
-293.1568101777546
 31
0.0
  0
LINE
  5
E0
  8
ASSEMBLY
 10
221.4521673644538
 20
-293.1568101777546
 30
0.0
 11
221.399809646815
 21
-293.2411182214281
 31
0.0
  0
LINE
  5
E1
  8
ASSEMBLY
 10
221.399809646815
 20
-293.2411182214281
 30
0.0
 11
221.3504141866302
 21
-293.3271953109307
 31
0.0
  0
LINE
  5
E2
  8
ASSEMBLY
 10
221.3504141866302
 20
-293.3271953109307
 30
0.0
 11
221.3040406871492
 21
-293.4149374067017
 31
0.0
  0
LINE
  5
E3
  8
ASSEMBLY
 10
221.3040406871492
 20
-293.4149374067017
 30
0.0
 11
221.2607451990438
 21
-293.5042384567186
 31
0.0
  0
LINE
  5
E4
  8
ASSEMBLY
 10
221.2607451990438
 20
-293.5042384567186
 30
0.0
 11
221.2205800526583
 21
-293.5949905246837
 31
0.0
  0
LINE
  5
E5
  8
ASSEMBLY
 10
221.2205800526583
 20
-293.5949905246837
 30
0.0
 11
221.1835937947571
 21
-293.6870839204885
 31
0.0
  0
LINE
  5
E6
  8
ASSEMBLY
 10
221.1835937947571
 20
-293.6870839204885
 30
0.0
 11
221.1498311298513
 21
-293.7804073327846
 31
0.0
  0
LINE
  5
E7
  8
ASSEMBLY
 10
221.1498311298513
 20
-293.7804073327846
 30
0.0
 11
221.1193328661613
 21
-293.8748479635336
 31
0.0
  0
LINE
  5
E8
  8
ASSEMBLY
 10
221.1193328661613
 20
-293.8748479635336
 30
0.0
 11
221.0921358662958
 21
-293.9702916643353
 31
0.0
  0
LINE
  5
E9
  8
ASSEMBLY
 10
221.0921358662958
 20
-293.9702916643353
 30
0.0
 11
221.0682730026954
 21
-294.0666230743993
 31
0.0
  0
LINE
  5
EA
  8
ASSEMBLY
 10
221.0682730026954
 20
-294.0666230743993
 30
0.0
 11
221.0477731178997
 21
-294.1637257599839
 31
0.0
  0
LINE
  5
EB
  8
ASSEMBLY
 10
221.0477731178997
 20
-294.1637257599839
 30
0.0
 11
221.0306609896876
 21
-294.2614823551179
 31
0.0
  0
LINE
  5
EC
  8
ASSEMBLY
 10
221.0306609896876
 20
-294.2614823551179
 30
0.0
 11
221.0169573011275
 21
-294.3597747034683
 31
0.0
  0
LINE
  5
ED
  8
ASSEMBLY
 10
221.0169573011275
 20
-294.3597747034683
 30
0.0
 11
221.0066786155788
 21
-294.4584840011448
 31
0.0
  0
LINE
  5
EE
  8
ASSEMBLY
 10
221.0066786155788
 20
-294.4584840011448
 30
0.0
 11
220.9998373566722
 21
-294.5574909402991
 31
0.0
  0
LINE
  5
EF
  8
ASSEMBLY
 10
220.9998373566722
 20
-294.5574909402991
 30
0.0
 11
220.9964417932929
 21
-294.6566758533339
 31
0.0
  0
LINE
  5
F0
  8
ASSEMBLY
 10
220.9964417932929
 20
-294.6566758533339
 30
0.0
 11
220.996496029587
 21
-294.7559188575335
 31
0.0
  0
LINE
  5
F1
  8
ASSEMBLY
 10
220.996496029587
 20
-294.7559188575335
 30
0.0
 11
220.9999999999999
 21
-294.8550999999736
 31
0.0
  0
LINE
  5
F2
  8
ASSEMBLY
 10
220.9999999999999
 20
-294.8550999999736
 30
0.0
 11
221.0
 21
-421.9999999999999
 31
0.0
  0
LINE
  5
F3
  8
ASSEMBLY
 10
221.0
 20
-421.9999999999999
 30
0.0
 11
220.996496029587
 21
-422.0991811424388
 31
0.0
  0
LINE
  5
F4
  8
ASSEMBLY
 10
220.996496029587
 20
-422.0991811424388
 30
0.0
 11
220.9964417932929
 21
-422.1984241466396
 31
0.0
  0
LINE
  5
F5
  8
ASSEMBLY
 10
220.9964417932929
 20
-422.1984241466396
 30
0.0
 11
220.9998373566721
 21
-422.2976090596732
 31
0.0
  0
LINE
  5
F6
  8
ASSEMBLY
 10
220.9998373566721
 20
-422.2976090596732
 30
0.0
 11
221.0066786155788
 21
-422.39661599883
 31
0.0
  0
LINE
  5
F7
  8
ASSEMBLY
 10
221.0066786155788
 20
-422.39661599883
 30
0.0
 11
221.0169573011274
 21
-422.4953252965052
 31
0.0
  0
LINE
  5
F8
  8
ASSEMBLY
 10
221.0169573011274
 20
-422.4953252965052
 30
0.0
 11
221.0306609896875
 21
-422.5936176448556
 31
0.0
  0
LINE
  5
F9
  8
ASSEMBLY
 10
221.0306609896875
 20
-422.5936176448556
 30
0.0
 11
221.0477731178995
 21
-422.6913742399896
 31
0.0
  0
LINE
  5
FA
  8
ASSEMBLY
 10
221.0477731178995
 20
-422.6913742399896
 30
0.0
 11
221.0682730026952
 21
-422.7884769255742
 31
0.0
  0
LINE
  5
FB
  8
ASSEMBLY
 10
221.0682730026952
 20
-422.7884769255742
 30
0.0
 11
221.0921358662959
 21
-422.8848083356395
 31
0.0
  0
LINE
  5
FC
  8
ASSEMBLY
 10
221.0921358662959
 20
-422.8848083356395
 30
0.0
 11
221.119332866161
 21
-422.9802520364398
 31
0.0
  0
LINE
  5
FD
  8
ASSEMBLY
 10
221.119332866161
 20
-422.9802520364398
 30
0.0
 11
221.149831129851
 21
-423.0746926671889
 31
0.0
  0
LINE
  5
FE
  8
ASSEMBLY
 10
221.149831129851
 20
-423.0746926671889
 30
0.0
 11
221.1835937947568
 21
-423.168016079485
 31
0.0
  0
LINE
  5
FF
  8
ASSEMBLY
 10
221.1835937947568
 20
-423.168016079485
 30
0.0
 11
221.2205800526575
 21
-423.2601094752886
 31
0.0
  0
LINE
  5
100
  8
ASSEMBLY
 10
221.2205800526575
 20
-423.2601094752886
 30
0.0
 11
221.260745199044
 21
-423.3508615432561
 31
0.0
  0
LINE
  5
101
  8
ASSEMBLY
 10
221.260745199044
 20
-423.3508615432561
 30
0.0
 11
221.3040406871488
 21
-423.4401625932718
 31
0.0
  0
LINE
  5
102
  8
ASSEMBLY
 10
221.3040406871488
 20
-423.4401625932718
 30
0.0
 11
221.3504141866291
 21
-423.5279046890416
 31
0.0
  0
LINE
  5
103
  8
ASSEMBLY
 10
221.3504141866291
 20
-423.5279046890416
 30
0.0
 11
221.3998096468146
 21
-423.6139817785455
 31
0.0
  0
LINE
  5
104
  8
ASSEMBLY
 10
221.3998096468146
 20
-423.6139817785455
 30
0.0
 11
221.4521673644534
 21
-423.6982898222189
 31
0.0
  0
LINE
  5
105
  8
ASSEMBLY
 10
221.4521673644534
 20
-423.6982898222189
 30
0.0
 11
221.5074240558752
 21
-423.7807269187061
 31
0.0
  0
LINE
  5
106
  8
ASSEMBLY
 10
221.5074240558752
 20
-423.7807269187061
 30
0.0
 11
221.5655129334838
 21
-423.8611934280287
 31
0.0
  0
LINE
  5
107
  8
ASSEMBLY
 10
221.5655129334838
 20
-423.8611934280287
 30
0.0
 11
221.6263637864767
 21
-423.9395920920124
 31
0.0
  0
LINE
  5
108
  8
ASSEMBLY
 10
221.6263637864767
 20
-423.9395920920124
 30
0.0
 11
221.68990306571
 21
-424.0158281518439
 31
0.0
  0
LINE
  5
109
  8
ASSEMBLY
 10
221.68990306571
 20
-424.0158281518439
 30
0.0
 11
221.7560539725982
 21
-424.0898094626072
 31
0.0
  0
LINE
  5
10A
  8
ASSEMBLY
 10
221.7560539725982
 20
-424.0898094626072
 30
0.0
 11
221.8247365519333
 21
-424.1614466046497
 31
0.0
  0
LINE
  5
10B
  8
ASSEMBLY
 10
221.8247365519333
 20
-424.1614466046497
 30
0.0
 11
221.8958677885313
 21
-424.2306529916701
 31
0.0
  0
LINE
  5
10C
  8
ASSEMBLY
 10
221.8958677885313
 20
-424.2306529916701
 30
0.0
 11
221.9693617075646
 21
-424.2973449753658
 31
0.0
  0
LINE
  5
10D
  8
ASSEMBLY
 10
221.9693617075646
 20
-424.2973449753658
 30
0.0
 11
222.0451294784845
 21
-424.3614419465438
 31
0.0
  0
LINE
  5
10E
  8
ASSEMBLY
 10
222.0451294784845
 20
-424.3614419465438
 30
0.0
 11
222.123079522383
 21
-424.4228664325458
 31
0.0
  0
LINE
  5
10F
  8
ASSEMBLY
 10
222.123079522383
 20
-424.4228664325458
 30
0.0
 11
222.2031176226845
 21
-424.4815441908898
 31
0.0
  0
LINE
  5
110
  8
ASSEMBLY
 10
222.2031176226845
 20
-424.4815441908898
 30
0.0
 11
222.2851470390265
 21
-424.5374042990078
 31
0.0
  0
LINE
  5
111
  8
ASSEMBLY
 10
222.2851470390265
 20
-424.5374042990078
 30
0.0
 11
222.3690686241822
 21
-424.5903792399644
 31
0.0
  0
LINE
  5
112
  8
ASSEMBLY
 10
222.3690686241822
 20
-424.5903792399644
 30
0.0
 11
222.4547809438998
 21
-424.6404049840644
 31
0.0
  0
LINE
  5
113
  8
ASSEMBLY
 10
222.4547809438998
 20
-424.6404049840644
 30
0.0
 11
222.5421803995066
 21
-424.6874210662467
 31
0.0
  0
LINE
  5
114
  8
ASSEMBLY
 10
222.5421803995066
 20
-424.6874210662467
 30
0.0
 11
222.6311613531257
 21
-424.7313706591647
 31
0.0
  0
LINE
  5
115
  8
ASSEMBLY
 10
222.6311613531257
 20
-424.7313706591647
 30
0.0
 11
222.72161625535
 21
-424.7722006418703
 31
0.0
  0
LINE
  5
116
  8
ASSEMBLY
 10
222.72161625535
 20
-424.7722006418703
 30
0.0
 11
222.8134357752497
 21
-424.8098616640255
 31
0.0
  0
LINE
  5
117
  8
ASSEMBLY
 10
222.8134357752497
 20
-424.8098616640255
 30
0.0
 11
222.9065089325046
 21
-424.8443082055461
 31
0.0
  0
LINE
  5
118
  8
ASSEMBLY
 10
222.9065089325046
 20
-424.8443082055461
 30
0.0
 11
223.0007232315544
 21
-424.8754986316245
 31
0.0
  0
LINE
  5
119
  8
ASSEMBLY
 10
223.0007232315544
 20
-424.8754986316245
 30
0.0
 11
223.0959647975596
 21
-424.9033952430494
 31
0.0
  0
LINE
  5
11A
  8
ASSEMBLY
 10
223.0959647975596
 20
-424.9033952430494
 30
0.0
 11
223.1921185140489
 21
-424.9279643217752
 31
0.0
  0
LINE
  5
11B
  8
ASSEMBLY
 10
223.1921185140489
 20
-424.9279643217752
 30
0.0
 11
223.2890681620535
 21
-424.9491761716748
 31
0.0
  0
LINE
  5
11C
  8
ASSEMBLY
 10
223.2890681620535
 20
-424.9491761716748
 30
0.0
 11
223.3866965605781
 21
-424.9670051544322
 31
0.0
  0
LINE
  5
11D
  8
ASSEMBLY
 10
223.3866965605781
 20
-424.9670051544322
 30
0.0
 11
223.484885708232
 21
-424.9814297205313
 31
0.0
  0
LINE
  5
11E
  8
ASSEMBLY
 10
223.484885708232
 20
-424.9814297205313
 30
0.0
 11
223.583516925865
 21
-424.9924324353036
 31
0.0
  0
LINE
  5
11F
  8
ASSEMBLY
 10
223.583516925865
 20
-424.9924324353036
 30
0.0
 11
223.6824710000052
 21
-425.0
 31
0.0
  0
LINE
  5
120
  8
ASSEMBLY
 10
223.6824710000052
 20
-425.0
 30
0.0
 11
270.5107045130933
 21
-425.0
 31
0.0
  0
ARC
  5
121
  8
ASSEMBLY
 10
270.5107045130935
 20
-421.0000000000001
 30
0.0
 40
3.999999999999886
 50
269.9999999999984
 51
0.0000000000065138
  0
LINE
  5
122
  8
ASSEMBLY
 10
274.5107045130933
 20
-420.9999999999997
 30
0.0
 11
274.5107045130941
 21
-388.0
 31
0.0
  0
ARC
  5
123
  8
ASSEMBLY
 10
-278.5107045130941
 20
-388.0
 30
0.0
 40
3.999999999999943
 50
0.0
 51
90.00000000000082
210
0.0
220
0.0
230
-1.0
  0
LINE
  5
124
  8
ASSEMBLY
 10
278.5107045130941
 20
-384.0
 30
0.0
 11
324.4375554869059
 21
-384.0
 31
0.0
  0
ARC
  5
125
  8
ASSEMBLY
 10
-324.4375554869059
 20
-388.0
 30
0.0
 40
4.0
 50
90.0
 51
180.0000000000057
210
0.0
220
0.0
230
-1.0
  0
LINE
  5
126
  8
ASSEMBLY
 10
328.4375554869059
 20
-388.0000000000004
 30
0.0
 11
328.4375554869059
 21
-421.0000000000003
 31
0.0
  0
ARC
  5
127
  8
ASSEMBLY
 10
332.4375554869059
 20
-421.0000000000002
 30
0.0
 40
4.000000000000057
 50
180.0000000000008
 51
270.0000000000106
  0
LINE
  5
128
  8
ASSEMBLY
 10
254.0
 20
-360.9275499999868
 30
0.0
 11
270.0
 21
-360.9275499999868
 31
0.0
  0
ARC
  5
129
  8
ASSEMBLY
 10
270.0
 20
-358.4275499999868
 30
0.0
 40
2.5
 50
270.0
 51
90.0
  0
LINE
  5
12A
  8
ASSEMBLY
 10
270.0
 20
-355.9275499999868
 30
0.0
 11
254.0
 21
-355.9275499999868
 31
0.0
  0
ARC
  5
12B
  8
ASSEMBLY
 10
254.0
 20
-358.4275499999868
 30
0.0
 40
2.5
 50
90.0
 51
270.0
  0
CIRCLE
  5
12D
  8
PLATFORM$CURVES
 62
     1
 10
-378.4741299999989
 20
-420.9275500000011
 30
0.0
 40
1.5
210
0.0
220
0.0
230
-1.0
  0
CIRCLE
  5
12E
  8
PLATFORM$CURVES
 62
     1
 10
342.4741299999989
 20
-420.9275500000006
 30
0.0
 40
1.5
  0
CIRCLE
  5
12F
  8
PLATFORM$CURVES
 62
     1
 10
378.4741299999991
 20
-399.9275500000011
 30
0.0
 40
1.500000000000057
  0
CIRCLE
  5
130
  8
PLATFORM$CURVES
 62
     1
 10
342.4741299999991
 20
-399.9275500000006
 30
0.0
 40
1.500000000000057
  0
CIRCLE
  5
131
  8
PLATFORM$CURVES
 62
     1
 10
378.4741300000007
 20
-295.9275500000011
 30
0.0
 40
1.5
  0
CIRCLE
  5
132
  8
PLATFORM$CURVES
 62
     1
 10
-378.4741300000003
 20
-316.9275500000011
 30
0.0
 40
1.5
210
0.0
220
0.0
230
-1.0
  0
CIRCLE
  5
133
  8
PLATFORM$CURVES
 62
     1
 10
-342.4741300000004
 20
-316.9275500000006
 30
0.0
 40
1.5
210
0.0
220
0.0
230
-1.0
  0
CIRCLE
  5
134
  8
PLATFORM$CURVES
 62
     1
 10
-342.4741300000007
 20
-295.9275500000006
 30
0.0
 40
1.5
210
0.0
220
0.0
230
-1.0
  0
CIRCLE
  5
135
  8
PLATFORM$CURVES
 62
     1
 10
224.47413
 20
-420.92755
 30
0.0
 40
1.5
  0
CIRCLE
  5
136
  8
PLATFORM$CURVES
 62
     1
 10
-260.4741299999999
 20
-420.92755
 30
0.0
 40
1.5
210
0.0
220
0.0
230
-1.0
  0
CIRCLE
  5
137
  8
PLATFORM$CURVES
 62
     1
 10
-224.47413
 20
-399.92755
 30
0.0
 40
1.5
210
0.0
220
0.0
230
-1.0
  0
CIRCLE
  5
138
  8
PLATFORM$CURVES
 62
     1
 10
-260.4741299999999
 20
-399.92755
 30
0.0
 40
1.5
210
0.0
220
0.0
230
-1.0
  0
CIRCLE
  5
139
  8
PLATFORM$CURVES
 62
     1
 10
-224.4741299999999
 20
-295.9275499999999
 30
0.0
 40
1.5
210
0.0
220
0.0
230
-1.0
  0
CIRCLE
  5
13A
  8
PLATFORM$CURVES
 62
     1
 10
224.4741299999999
 20
-316.92755
 30
0.0
 40
1.5
  0
CIRCLE
  5
13B
  8
PLATFORM$CURVES
 62
     1
 10
260.4741299999999
 20
-316.92755
 30
0.0
 40
1.5
  0
CIRCLE
  5
13C
  8
PLATFORM$CURVES
 62
     1
 10
260.47413
 20
-295.92755
 30
0.0
 40
1.500000000000057
  0
LINE
  5
13D
  8
ASSEMBLY
 10
347.9482599999998
 20
-360.9275499999861
 30
0.0
 11
331.9482599999998
 21
-360.9275499999863
 31
0.0
  0
ARC
  5
13E
  8
ASSEMBLY
 10
-331.9482599999998
 20
-358.4275499999863
 30
0.0
 40
2.5
 50
269.9999999999987
 51
89.9999999999987
210
0.0
220
0.0
230
-1.0
  0
LINE
  5
13F
  8
ASSEMBLY
 10
331.9482599999998
 20
-355.9275499999863
 30
0.0
 11
347.9482599999998
 21
-355.9275499999861
 31
0.0
  0
ARC
  5
140
  8
ASSEMBLY
 10
-347.9482599999998
 20
-358.4275499999861
 30
0.0
 40
2.5
 50
89.9999999999987
 51
269.9999999999987
210
0.0
220
0.0
230
-1.0
  0
CIRCLE
  5
141
  8
PLATFORM$CURVES
 62
     1
 10
412.47413
 20
-419.92755
 30
0.0
 40
1.5
  0
CIRCLE
  5
142
  8
PLATFORM$CURVES
 62
     1
 10
-448.47413
 20
-419.9275499999999
 30
0.0
 40
1.500000000000057
210
0.0
220
0.0
230
-1.0
  0
CIRCLE
  5
143
  8
PLATFORM$CURVES
 62
     1
 10
-412.4741299999999
 20
-398.92755
 30
0.0
 40
1.5
210
0.0
220
0.0
230
-1.0
  0
CIRCLE
  5
144
  8
PLATFORM$CURVES
 62
     1
 10
-448.4741299999999
 20
-398.9275500000001
 30
0.0
 40
1.499999999999943
210
0.0
220
0.0
230
-1.0
  0
CIRCLE
  5
145
  8
PLATFORM$CURVES
 62
     1
 10
-412.4741299999999
 20
-294.9275499999999
 30
0.0
 40
1.5
210
0.0
220
0.0
230
-1.0
  0
CIRCLE
  5
146
  8
PLATFORM$CURVES
 62
     1
 10
412.4741299999999
 20
-315.92755
 30
0.0
 40
1.5
  0
CIRCLE
  5
147
  8
PLATFORM$CURVES
 62
     1
 10
448.4741299999999
 20
-315.92755
 30
0.0
 40
1.5
  0
CIRCLE
  5
148
  8
PLATFORM$CURVES
 62
     1
 10
448.47413
 20
-294.92755
 30
0.0
 40
1.500000000000057
  0
LINE
  5
149
  8
ASSEMBLY
 10
460.4741300000102
 20
-425.0000000000318
 30
0.0
 11
460.4741299999212
 21
-289.8550999999403
 31
0.0
  0
LINE
  5
14A
  8
ASSEMBLY
 10
460.4741299999212
 20
-289.8550999999403
 30
0.0
 11
400.4741300000576
 21
-289.8550999999284
 31
0.0
  0
LINE
  5
14B
  8
ASSEMBLY
 10
400.4741300000576
 20
-289.8550999999284
 30
0.0
 11
400.4741300000794
 21
-425.0000000000197
 31
0.0
  0
LINE
  5
14C
  8
ASSEMBLY
 10
400.4741300000794
 20
-425.0000000000197
 30
0.0
 11
460.4741300000102
 21
-425.0000000000318
 31
0.0
  0
LINE
  5
14D
  8
ASSEMBLY
 10
536.0
 20
-360.9275499999868
 30
0.0
 11
552.0
 21
-360.9275499999868
 31
0.0
  0
ARC
  5
14E
  8
ASSEMBLY
 10
552.0
 20
-358.4275499999868
 30
0.0
 40
2.5
 50
270.0
 51
90.0
  0
LINE
  5
14F
  8
ASSEMBLY
 10
552.0
 20
-355.9275499999868
 30
0.0
 11
536.0
 21
-355.9275499999868
 31
0.0
  0
ARC
  5
150
  8
ASSEMBLY
 10
536.0
 20
-358.4275499999868
 30
0.0
 40
2.5
 50
90.0
 51
270.0
  0
LINE
  5
151
  8
ASSEMBLY
 10
611.9482599999998
 20
-360.9275499999861
 30
0.0
 11
595.9482599999998
 21
-360.9275499999863
 31
0.0
  0
ARC
  5
152
  8
ASSEMBLY
 10
-595.9482599999998
 20
-358.4275499999863
 30
0.0
 40
2.5
 50
270.0
 51
90.0
210
0.0
220
0.0
230
-1.0
  0
LINE
  5
153
  8
ASSEMBLY
 10
595.9482599999998
 20
-355.9275499999863
 30
0.0
 11
611.9482599999998
 21
-355.9275499999861
 31
0.0
  0
ARC
  5
154
  8
ASSEMBLY
 10
-611.9482599999998
 20
-358.4275499999861
 30
0.0
 40
2.5
 50
90.0
 51
270.0
210
0.0
220
0.0
230
-1.0
  0
CIRCLE
  5
155
  8
ASSEMBLY
 10
517.9999999996937
 20
-358.4275506380226
 30
-0.4174487081813854
 40
2.5
  0
CIRCLE
  5
156
  8
ASSEMBLY
 10
596.625
 20
-267.5864211040781
 30
5.499999365285856
 40
2.750000000000007
  0
CIRCLE
  5
157
  8
ASSEMBLY
 10
643.9999999999999
 20
-256.4275506348172
 30
5.499999365285845
 40
2.500000000000114
  0
CIRCLE
  5
158
  8
ASSEMBLY
 10
625.0
 20
-256.4275506348172
 30
5.499999365285845
 40
2.5
  0
LINE
  5
159
  8
ASSEMBLY
 10
587.0
 20
-276.4275506348171
 30
5.499999365285866
 11
587.0
 21
-260.4275506348171
 31
5.499999365285845
  0
LINE
  5
15A
  8
ASSEMBLY
 10
587.0
 20
-260.4275506348171
 30
5.499999365285845
 11
617.0
 21
-249.4275506348171
 31
5.499999365285838
  0
LINE
  5
15B
  8
ASSEMBLY
 10
617.0
 20
-249.4275506348171
 30
5.499999365285838
 11
649.9999999996937
 21
-249.4275506348171
 31
5.499999365285838
  0
LINE
  5
15C
  8
ASSEMBLY
 10
649.9999999996937
 20
-249.4275506348171
 30
5.499999365285838
 11
650.0
 21
-264.8449993429984
 31
5.499999365285852
  0
LINE
  5
15D
  8
ASSEMBLY
 10
650.0
 20
-264.8449993429984
 30
5.499999365285852
 11
618.0
 21
-264.8449993436343
 31
5.499999365285852
  0
LINE
  5
15E
  8
ASSEMBLY
 10
618.0
 20
-264.8449993436343
 30
5.499999365285852
 11
603.0
 21
-276.4275506348171
 31
5.499999365285866
  0
LINE
  5
15F
  8
ASSEMBLY
 10
603.0
 20
-276.4275506348171
 30
5.499999365285866
 11
587.0
 21
-276.4275506348171
 31
5.499999365285866
  0
CIRCLE
  5
160
  8
ASSEMBLY
 10
500.9999999999999
 20
-349.0
 30
-0.4174487081813854
 40
2.500000000000114
  0
CIRCLE
  5
161
  8
ASSEMBLY
 10
501.0
 20
-367.8551000002051
 30
-0.4174487081813854
 40
2.5
  0
LINE
  5
162
  8
ASSEMBLY
 10
487.6824710000052
 20
-425.0
 30
0.0
 11
643.265788999994
 21
-424.9999999999999
 31
0.0
  0
LINE
  5
163
  8
ASSEMBLY
 10
643.265788999994
 20
-424.9999999999999
 30
0.0
 11
643.5068209238765
 21
-424.9958296201535
 31
0.0
  0
LINE
  5
164
  8
ASSEMBLY
 10
643.5068209238765
 20
-424.9958296201535
 30
0.0
 11
643.6297879532701
 21
-424.9904641235037
 31
0.0
  0
LINE
  5
165
  8
ASSEMBLY
 10
643.6297879532701
 20
-424.9904641235037
 30
0.0
 11
643.7538996111621
 21
-424.9827882862372
 31
0.0
  0
LINE
  5
166
  8
ASSEMBLY
 10
643.7538996111621
 20
-424.9827882862372
 30
0.0
 11
643.878747471501
 21
-424.9727232401439
 31
0.0
  0
LINE
  5
167
  8
ASSEMBLY
 10
643.878747471501
 20
-424.9727232401439
 30
0.0
 11
644.0038929317302
 21
-424.9602033696097
 31
0.0
  0
LINE
  5
168
  8
ASSEMBLY
 10
644.0038929317302
 20
-424.9602033696097
 30
0.0
 11
644.1288705830948
 21
-424.9451781146818
 31
0.0
  0
LINE
  5
169
  8
ASSEMBLY
 10
644.1288705830948
 20
-424.9451781146818
 30
0.0
 11
644.2531923836493
 21
-424.9276136368228
 31
0.0
  0
LINE
  5
16A
  8
ASSEMBLY
 10
644.2531923836493
 20
-424.9276136368228
 30
0.0
 11
644.3763525968084
 21
-424.907494288861
 31
0.0
  0
LINE
  5
16B
  8
ASSEMBLY
 10
644.3763525968084
 20
-424.907494288861
 30
0.0
 11
644.4978334263262
 21
-424.8848238316878
 31
0.0
  0
LINE
  5
16C
  8
ASSEMBLY
 10
644.4978334263262
 20
-424.8848238316878
 30
0.0
 11
644.6171112463358
 21
-424.8596263441571
 31
0.0
  0
LINE
  5
16D
  8
ASSEMBLY
 10
644.6171112463358
 20
-424.8596263441571
 30
0.0
 11
644.73366329437
 21
-424.831946779483
 31
0.0
  0
LINE
  5
16E
  8
ASSEMBLY
 10
644.73366329437
 20
-424.831946779483
 30
0.0
 11
644.8469746681583
 21
-424.8018511311369
 31
0.0
  0
LINE
  5
16F
  8
ASSEMBLY
 10
644.8469746681583
 20
-424.8018511311369
 30
0.0
 11
644.9565454454179
 21
-424.769426183491
 31
0.0
  0
LINE
  5
170
  8
ASSEMBLY
 10
644.9565454454179
 20
-424.769426183491
 30
0.0
 11
645.0618977315406
 21
-424.7347788366983
 31
0.0
  0
LINE
  5
171
  8
ASSEMBLY
 10
645.0618977315406
 20
-424.7347788366983
 30
0.0
 11
645.1625824344344
 21
-424.698035010832
 31
0.0
  0
LINE
  5
172
  8
ASSEMBLY
 10
645.1625824344344
 20
-424.698035010832
 30
0.0
 11
645.2110435408583
 21
-424.6789211086178
 31
0.0
  0
LINE
  5
173
  8
ASSEMBLY
 10
645.2110435408583
 20
-424.6789211086178
 30
0.0
 11
645.2581855695386
 21
-424.6593381502479
 31
0.0
  0
LINE
  5
174
  8
ASSEMBLY
 10
645.2581855695386
 20
-424.6593381502479
 30
0.0
 11
645.303963185617
 21
-424.6393064992756
 31
0.0
  0
LINE
  5
175
  8
ASSEMBLY
 10
645.303963185617
 20
-424.6393064992756
 30
0.0
 11
645.3483339114256
 21
-424.6188473645464
 31
0.0
  0
LINE
  5
176
  8
ASSEMBLY
 10
645.3483339114256
 20
-424.6188473645464
 30
0.0
 11
645.391258256318
 21
-424.5979827258979
 31
0.0
  0
LINE
  5
177
  8
ASSEMBLY
 10
645.391258256318
 20
-424.5979827258979
 30
0.0
 11
645.4326998307997
 21
-424.5767352564521
 31
0.0
  0
LINE
  5
178
  8
ASSEMBLY
 10
645.4326998307997
 20
-424.5767352564521
 30
0.0
 11
645.472625444285
 21
-424.5551282420706
 31
0.0
  0
LINE
  5
179
  8
ASSEMBLY
 10
645.472625444285
 20
-424.5551282420706
 30
0.0
 11
645.511005185973
 21
-424.5331854985639
 31
0.0
  0
LINE
  5
17A
  8
ASSEMBLY
 10
645.511005185973
 20
-424.5331854985639
 30
0.0
 11
645.5478124884975
 21
-424.510931287259
 31
0.0
  0
LINE
  5
17B
  8
ASSEMBLY
 10
645.5478124884975
 20
-424.510931287259
 30
0.0
 11
645.5830241741645
 21
-424.4883902295315
 31
0.0
  0
LINE
  5
17C
  8
ASSEMBLY
 10
645.5830241741645
 20
-424.4883902295315
 30
0.0
 11
645.6166204837622
 21
-424.4655872209131
 31
0.0
  0
LINE
  5
17D
  8
ASSEMBLY
 10
645.6166204837622
 20
-424.4655872209131
 30
0.0
 11
645.6485850880837
 21
-424.4425473453692
 31
0.0
  0
LINE
  5
17E
  8
ASSEMBLY
 10
645.6485850880837
 20
-424.4425473453692
 30
0.0
 11
645.6789050824573
 21
-424.4192957903331
 31
0.0
  0
LINE
  5
17F
  8
ASSEMBLY
 10
645.6789050824573
 20
-424.4192957903331
 30
0.0
 11
645.7075709647283
 21
-424.3958577630555
 31
0.0
  0
LINE
  5
180
  8
ASSEMBLY
 10
645.7075709647283
 20
-424.3958577630555
 30
0.0
 11
645.7345765972717
 21
-424.3722584088031
 31
0.0
  0
LINE
  5
181
  8
ASSEMBLY
 10
645.7345765972717
 20
-424.3722584088031
 30
0.0
 11
645.7474558090711
 21
-424.3604060553999
 31
0.0
  0
LINE
  5
182
  8
ASSEMBLY
 10
645.7474558090711
 20
-424.3604060553999
 30
0.0
 11
645.7599191537385
 21
-424.3485227314058
 31
0.0
  0
LINE
  5
183
  8
ASSEMBLY
 10
645.7599191537385
 20
-424.3485227314058
 30
0.0
 11
645.7719667842583
 21
-424.3366115276251
 31
0.0
  0
LINE
  5
184
  8
ASSEMBLY
 10
645.7719667842583
 20
-424.3366115276251
 30
0.0
 11
645.7835990513588
 21
-424.3246755166153
 31
0.0
  0
LINE
  5
185
  8
ASSEMBLY
 10
645.7835990513588
 20
-424.3246755166153
 30
0.0
 11
645.7948165006738
 21
-424.3127177504762
 31
0.0
  0
LINE
  5
186
  8
ASSEMBLY
 10
645.7948165006738
 20
-424.3127177504762
 30
0.0
 11
645.8056198697144
 21
-424.300741258696
 31
0.0
  0
LINE
  5
187
  8
ASSEMBLY
 10
645.8056198697144
 20
-424.300741258696
 30
0.0
 11
645.8160100846616
 21
-424.2887490460603
 31
0.0
  0
LINE
  5
188
  8
ASSEMBLY
 10
645.8160100846616
 20
-424.2887490460603
 30
0.0
 11
645.8259882569896
 21
-424.2767440906247
 31
0.0
  0
LINE
  5
189
  8
ASSEMBLY
 10
645.8259882569896
 20
-424.2767440906247
 30
0.0
 11
645.8355556799273
 21
-424.2647293417539
 31
0.0
  0
LINE
  5
18A
  8
ASSEMBLY
 10
645.8355556799273
 20
-424.2647293417539
 30
0.0
 11
645.8447138247665
 21
-424.2527077182278
 31
0.0
  0
LINE
  5
18B
  8
ASSEMBLY
 10
645.8447138247665
 20
-424.2527077182278
 30
0.0
 11
645.8534643370284
 21
-424.2406821064184
 31
0.0
  0
LINE
  5
18C
  8
ASSEMBLY
 10
645.8534643370284
 20
-424.2406821064184
 30
0.0
 11
645.8618090324952
 21
-424.228655358537
 31
0.0
  0
LINE
  5
18D
  8
ASSEMBLY
 10
645.8618090324952
 20
-424.228655358537
 30
0.0
 11
645.8697498931182
 21
-424.2166302909552
 31
0.0
  0
LINE
  5
18E
  8
ASSEMBLY
 10
645.8697498931182
 20
-424.2166302909552
 30
0.0
 11
645.8772890628085
 21
-424.2046096825974
 31
0.0
  0
LINE
  5
18F
  8
ASSEMBLY
 10
645.8772890628085
 20
-424.2046096825974
 30
0.0
 11
645.8844288431247
 21
-424.1925962734106
 31
0.0
  0
LINE
  5
190
  8
ASSEMBLY
 10
645.8844288431247
 20
-424.1925962734106
 30
0.0
 11
645.8911716888634
 21
-424.1805927629074
 31
0.0
  0
LINE
  5
191
  8
ASSEMBLY
 10
645.8911716888634
 20
-424.1805927629074
 30
0.0
 11
645.8975202035615
 21
-424.1686018087864
 31
0.0
  0
LINE
  5
192
  8
ASSEMBLY
 10
645.8975202035615
 20
-424.1686018087864
 30
0.0
 11
645.9034771349213
 21
-424.1566260256278
 31
0.0
  0
LINE
  5
193
  8
ASSEMBLY
 10
645.9034771349213
 20
-424.1566260256278
 30
0.0
 11
645.9090453701695
 21
-424.1446679836671
 31
0.0
  0
LINE
  5
194
  8
ASSEMBLY
 10
645.9090453701695
 20
-424.1446679836671
 30
0.0
 11
645.9142279313526
 21
-424.1327302076443
 31
0.0
  0
LINE
  5
195
  8
ASSEMBLY
 10
645.9142279313526
 20
-424.1327302076443
 30
0.0
 11
645.919027970585
 21
-424.1208151757297
 31
0.0
  0
LINE
  5
196
  8
ASSEMBLY
 10
645.919027970585
 20
-424.1208151757297
 30
0.0
 11
645.9234487652548
 21
-424.1089253185266
 31
0.0
  0
LINE
  5
197
  8
ASSEMBLY
 10
645.9234487652548
 20
-424.1089253185266
 30
0.0
 11
645.9274937131954
 21
-424.0970630181505
 31
0.0
  0
LINE
  5
198
  8
ASSEMBLY
 10
645.9274937131954
 20
-424.0970630181505
 30
0.0
 11
645.931166327834
 21
-424.085230607381
 31
0.0
  0
LINE
  5
199
  8
ASSEMBLY
 10
645.931166327834
 20
-424.085230607381
 30
0.0
 11
645.9344702333227
 21
-424.073430368892
 31
0.0
  0
LINE
  5
19A
  8
ASSEMBLY
 10
645.9344702333227
 20
-424.073430368892
 30
0.0
 11
645.9374091596615
 21
-424.0616645345534
 31
0.0
  0
LINE
  5
19B
  8
ASSEMBLY
 10
645.9374091596615
 20
-424.0616645345534
 30
0.0
 11
645.939986937821
 21
-424.0499352848053
 31
0.0
  0
LINE
  5
19C
  8
ASSEMBLY
 10
645.939986937821
 20
-424.0499352848053
 30
0.0
 11
645.9422074948724
 21
-424.038244748106
 31
0.0
  0
LINE
  5
19D
  8
ASSEMBLY
 10
645.9422074948724
 20
-424.038244748106
 30
0.0
 11
645.9440748491305
 21
-424.0265950004489
 31
0.0
  0
LINE
  5
19E
  8
ASSEMBLY
 10
645.9440748491305
 20
-424.0265950004489
 30
0.0
 11
645.9455931053193
 21
-424.0149880649499
 31
0.0
  0
LINE
  5
19F
  8
ASSEMBLY
 10
645.9455931053193
 20
-424.0149880649499
 30
0.0
 11
645.9467664497647
 21
-424.0034259115006
 31
0.0
  0
LINE
  5
1A0
  8
ASSEMBLY
 10
645.9467664497647
 20
-424.0034259115006
 30
0.0
 11
645.9475991456222
 21
-423.9919104564914
 31
0.0
  0
LINE
  5
1A1
  8
ASSEMBLY
 10
645.9475991456222
 20
-423.9919104564914
 30
0.0
 11
645.9480955281454
 21
-423.9804435625959
 31
0.0
  0
LINE
  5
1A2
  8
ASSEMBLY
 10
645.9480955281454
 20
-423.9804435625959
 30
0.0
 11
645.9482599999998
 21
-423.9690270386209
 31
0.0
  0
LINE
  5
1A3
  8
ASSEMBLY
 10
645.9482599999998
 20
-423.9690270386209
 30
0.0
 11
645.9482600000001
 21
-292.8860729613527
 31
0.0
  0
LINE
  5
1A4
  8
ASSEMBLY
 10
645.9482600000001
 20
-292.8860729613527
 30
0.0
 11
645.9480955281457
 21
-292.8746564373777
 31
0.0
  0
LINE
  5
1A5
  8
ASSEMBLY
 10
645.9480955281457
 20
-292.8746564373777
 30
0.0
 11
645.9475991456225
 21
-292.8631895434822
 31
0.0
  0
LINE
  5
1A6
  8
ASSEMBLY
 10
645.9475991456225
 20
-292.8631895434822
 30
0.0
 11
645.9467664497649
 21
-292.851674088473
 31
0.0
  0
LINE
  5
1A7
  8
ASSEMBLY
 10
645.9467664497649
 20
-292.851674088473
 30
0.0
 11
645.9455931053195
 21
-292.8401119350237
 31
0.0
  0
LINE
  5
1A8
  8
ASSEMBLY
 10
645.9455931053195
 20
-292.8401119350237
 30
0.0
 11
645.9440748491309
 21
-292.8285049995246
 31
0.0
  0
LINE
  5
1A9
  8
ASSEMBLY
 10
645.9440748491309
 20
-292.8285049995246
 30
0.0
 11
645.9422074948728
 21
-292.8168552518677
 31
0.0
  0
LINE
  5
1AA
  8
ASSEMBLY
 10
645.9422074948728
 20
-292.8168552518677
 30
0.0
 11
645.9399869378212
 21
-292.8051647151683
 31
0.0
  0
LINE
  5
1AB
  8
ASSEMBLY
 10
645.9399869378212
 20
-292.8051647151683
 30
0.0
 11
645.9374091596617
 21
-292.7934354654202
 31
0.0
  0
LINE
  5
1AC
  8
ASSEMBLY
 10
645.9374091596617
 20
-292.7934354654202
 30
0.0
 11
645.9344702333229
 21
-292.7816696310815
 31
0.0
  0
LINE
  5
1AD
  8
ASSEMBLY
 10
645.9344702333229
 20
-292.7816696310815
 30
0.0
 11
645.9311663278344
 21
-292.7698693925926
 31
0.0
  0
LINE
  5
1AE
  8
ASSEMBLY
 10
645.9311663278344
 20
-292.7698693925926
 30
0.0
 11
645.9274937131959
 21
-292.7580369818232
 31
0.0
  0
LINE
  5
1AF
  8
ASSEMBLY
 10
645.9274937131959
 20
-292.7580369818232
 30
0.0
 11
645.9234487652551
 21
-292.7461746814469
 31
0.0
  0
LINE
  5
1B0
  8
ASSEMBLY
 10
645.9234487652551
 20
-292.7461746814469
 30
0.0
 11
645.9190279705853
 21
-292.7342848242439
 31
0.0
  0
LINE
  5
1B1
  8
ASSEMBLY
 10
645.9190279705853
 20
-292.7342848242439
 30
0.0
 11
645.9142279313528
 21
-292.7223697923293
 31
0.0
  0
LINE
  5
1B2
  8
ASSEMBLY
 10
645.9142279313528
 20
-292.7223697923293
 30
0.0
 11
645.9090453701699
 21
-292.7104320163065
 31
0.0
  0
LINE
  5
1B3
  8
ASSEMBLY
 10
645.9090453701699
 20
-292.7104320163065
 30
0.0
 11
645.9034771349217
 21
-292.6984739743457
 31
0.0
  0
LINE
  5
1B4
  8
ASSEMBLY
 10
645.9034771349217
 20
-292.6984739743457
 30
0.0
 11
645.8975202035618
 21
-292.6864981911873
 31
0.0
  0
LINE
  5
1B5
  8
ASSEMBLY
 10
645.8975202035618
 20
-292.6864981911873
 30
0.0
 11
645.8911716888638
 21
-292.6745072370661
 31
0.0
  0
LINE
  5
1B6
  8
ASSEMBLY
 10
645.8911716888638
 20
-292.6745072370661
 30
0.0
 11
645.884428843125
 21
-292.6625037265629
 31
0.0
  0
LINE
  5
1B7
  8
ASSEMBLY
 10
645.884428843125
 20
-292.6625037265629
 30
0.0
 11
645.8772890628085
 21
-292.6504903173761
 31
0.0
  0
LINE
  5
1B8
  8
ASSEMBLY
 10
645.8772890628085
 20
-292.6504903173761
 30
0.0
 11
645.8697498931183
 21
-292.6384697090185
 31
0.0
  0
LINE
  5
1B9
  8
ASSEMBLY
 10
645.8697498931183
 20
-292.6384697090185
 30
0.0
 11
645.8618090324956
 21
-292.6264446414366
 31
0.0
  0
LINE
  5
1BA
  8
ASSEMBLY
 10
645.8618090324956
 20
-292.6264446414366
 30
0.0
 11
645.8534643370286
 21
-292.6144178935554
 31
0.0
  0
LINE
  5
1BB
  8
ASSEMBLY
 10
645.8534643370286
 20
-292.6144178935554
 30
0.0
 11
645.8447138247667
 21
-292.6023922817459
 31
0.0
  0
LINE
  5
1BC
  8
ASSEMBLY
 10
645.8447138247667
 20
-292.6023922817459
 30
0.0
 11
645.8355556799274
 21
-292.5903706582197
 31
0.0
  0
LINE
  5
1BD
  8
ASSEMBLY
 10
645.8355556799274
 20
-292.5903706582197
 30
0.0
 11
645.82598825699
 21
-292.5783559093489
 31
0.0
  0
LINE
  5
1BE
  8
ASSEMBLY
 10
645.82598825699
 20
-292.5783559093489
 30
0.0
 11
645.8160100846619
 21
-292.5663509539135
 31
0.0
  0
LINE
  5
1BF
  8
ASSEMBLY
 10
645.8160100846619
 20
-292.5663509539135
 30
0.0
 11
645.8056198697146
 21
-292.5543587412777
 31
0.0
  0
LINE
  5
1C0
  8
ASSEMBLY
 10
645.8056198697146
 20
-292.5543587412777
 30
0.0
 11
645.7948165006738
 21
-292.5423822494975
 31
0.0
  0
LINE
  5
1C1
  8
ASSEMBLY
 10
645.7948165006738
 20
-292.5423822494975
 30
0.0
 11
645.7835990513589
 21
-292.5304244833584
 31
0.0
  0
LINE
  5
1C2
  8
ASSEMBLY
 10
645.7835990513589
 20
-292.5304244833584
 30
0.0
 11
645.7719667842584
 21
-292.5184884723487
 31
0.0
  0
LINE
  5
1C3
  8
ASSEMBLY
 10
645.7719667842584
 20
-292.5184884723487
 30
0.0
 11
645.7599191537388
 21
-292.5065772685678
 31
0.0
  0
LINE
  5
1C4
  8
ASSEMBLY
 10
645.7599191537388
 20
-292.5065772685678
 30
0.0
 11
645.7474558090713
 21
-292.4946939445737
 31
0.0
  0
LINE
  5
1C5
  8
ASSEMBLY
 10
645.7474558090713
 20
-292.4946939445737
 30
0.0
 11
645.7345765972719
 21
-292.4828415911704
 31
0.0
  0
LINE
  5
1C6
  8
ASSEMBLY
 10
645.7345765972719
 20
-292.4828415911704
 30
0.0
 11
645.7075709647286
 21
-292.459242236918
 31
0.0
  0
LINE
  5
1C7
  8
ASSEMBLY
 10
645.7075709647286
 20
-292.459242236918
 30
0.0
 11
645.6789050824574
 21
-292.4358042096405
 31
0.0
  0
LINE
  5
1C8
  8
ASSEMBLY
 10
645.6789050824574
 20
-292.4358042096405
 30
0.0
 11
645.6485850880839
 21
-292.4125526546044
 31
0.0
  0
LINE
  5
1C9
  8
ASSEMBLY
 10
645.6485850880839
 20
-292.4125526546044
 30
0.0
 11
645.6166204837625
 21
-292.3895127790604
 31
0.0
  0
LINE
  5
1CA
  8
ASSEMBLY
 10
645.6166204837625
 20
-292.3895127790604
 30
0.0
 11
645.5830241741647
 21
-292.366709770442
 31
0.0
  0
LINE
  5
1CB
  8
ASSEMBLY
 10
645.5830241741647
 20
-292.366709770442
 30
0.0
 11
645.5478124884977
 21
-292.3441687127147
 31
0.0
  0
LINE
  5
1CC
  8
ASSEMBLY
 10
645.5478124884977
 20
-292.3441687127147
 30
0.0
 11
645.5110051859732
 21
-292.3219145014098
 31
0.0
  0
LINE
  5
1CD
  8
ASSEMBLY
 10
645.5110051859732
 20
-292.3219145014098
 30
0.0
 11
645.472625444285
 21
-292.2999717579031
 31
0.0
  0
LINE
  5
1CE
  8
ASSEMBLY
 10
645.472625444285
 20
-292.2999717579031
 30
0.0
 11
645.4326998307998
 21
-292.2783647435215
 31
0.0
  0
LINE
  5
1CF
  8
ASSEMBLY
 10
645.4326998307998
 20
-292.2783647435215
 30
0.0
 11
645.3912582563181
 21
-292.2571172740757
 31
0.0
  0
LINE
  5
1D0
  8
ASSEMBLY
 10
645.3912582563181
 20
-292.2571172740757
 30
0.0
 11
645.3483339114257
 21
-292.2362526354273
 31
0.0
  0
LINE
  5
1D1
  8
ASSEMBLY
 10
645.3483339114257
 20
-292.2362526354273
 30
0.0
 11
645.3039631856169
 21
-292.2157935006981
 31
0.0
  0
LINE
  5
1D2
  8
ASSEMBLY
 10
645.3039631856169
 20
-292.2157935006981
 30
0.0
 11
645.2581855695386
 21
-292.1957618497256
 31
0.0
  0
LINE
  5
1D3
  8
ASSEMBLY
 10
645.2581855695386
 20
-292.1957618497256
 30
0.0
 11
645.2110435408582
 21
-292.1761788913559
 31
0.0
  0
LINE
  5
1D4
  8
ASSEMBLY
 10
645.2110435408582
 20
-292.1761788913559
 30
0.0
 11
645.1625824344344
 21
-292.1570649891417
 31
0.0
  0
LINE
  5
1D5
  8
ASSEMBLY
 10
645.1625824344344
 20
-292.1570649891417
 30
0.0
 11
645.0618977315409
 21
-292.1203211632754
 31
0.0
  0
LINE
  5
1D6
  8
ASSEMBLY
 10
645.0618977315409
 20
-292.1203211632754
 30
0.0
 11
644.956545445418
 21
-292.0856738164827
 31
0.0
  0
LINE
  5
1D7
  8
ASSEMBLY
 10
644.956545445418
 20
-292.0856738164827
 30
0.0
 11
644.8469746681583
 21
-292.0532488688368
 31
0.0
  0
LINE
  5
1D8
  8
ASSEMBLY
 10
644.8469746681583
 20
-292.0532488688368
 30
0.0
 11
644.7336632943699
 21
-292.0231532204907
 31
0.0
  0
LINE
  5
1D9
  8
ASSEMBLY
 10
644.7336632943699
 20
-292.0231532204907
 30
0.0
 11
644.6171112463359
 21
-291.9954736558165
 31
0.0
  0
LINE
  5
1DA
  8
ASSEMBLY
 10
644.6171112463359
 20
-291.9954736558165
 30
0.0
 11
644.4978334263261
 21
-291.9702761682858
 31
0.0
  0
LINE
  5
1DB
  8
ASSEMBLY
 10
644.4978334263261
 20
-291.9702761682858
 30
0.0
 11
644.3763525968085
 21
-291.9476057111126
 31
0.0
  0
LINE
  5
1DC
  8
ASSEMBLY
 10
644.3763525968085
 20
-291.9476057111126
 30
0.0
 11
644.2531923836493
 21
-291.9274863631508
 31
0.0
  0
LINE
  5
1DD
  8
ASSEMBLY
 10
644.2531923836493
 20
-291.9274863631508
 30
0.0
 11
644.1288705830946
 21
-291.9099218852919
 31
0.0
  0
LINE
  5
1DE
  8
ASSEMBLY
 10
644.1288705830946
 20
-291.9099218852919
 30
0.0
 11
644.0038929317302
 21
-291.8948966303639
 31
0.0
  0
LINE
  5
1DF
  8
ASSEMBLY
 10
644.0038929317302
 20
-291.8948966303639
 30
0.0
 11
643.878747471501
 21
-291.8823767598297
 31
0.0
  0
LINE
  5
1E0
  8
ASSEMBLY
 10
643.878747471501
 20
-291.8823767598297
 30
0.0
 11
643.7538996111623
 21
-291.8723117137363
 31
0.0
  0
LINE
  5
1E1
  8
ASSEMBLY
 10
643.7538996111623
 20
-291.8723117137363
 30
0.0
 11
643.6297879532704
 21
-291.8646358764698
 31
0.0
  0
LINE
  5
1E2
  8
ASSEMBLY
 10
643.6297879532704
 20
-291.8646358764698
 30
0.0
 11
643.5068209238766
 21
-291.8592703798201
 31
0.0
  0
LINE
  5
1E3
  8
ASSEMBLY
 10
643.5068209238766
 20
-291.8592703798201
 30
0.0
 11
643.2657889999942
 21
-291.8550999999737
 31
0.0
  0
LINE
  5
1E4
  8
ASSEMBLY
 10
643.2657889999942
 20
-291.8550999999737
 30
0.0
 11
487.6824710000061
 21
-291.8550999999737
 31
0.0
  0
LINE
  5
1E5
  8
ASSEMBLY
 10
487.6824710000061
 20
-291.8550999999737
 30
0.0
 11
487.4414390761236
 21
-291.8592703798201
 31
0.0
  0
LINE
  5
1E6
  8
ASSEMBLY
 10
487.4414390761236
 20
-291.8592703798201
 30
0.0
 11
487.3184720467299
 21
-291.8646358764698
 31
0.0
  0
LINE
  5
1E7
  8
ASSEMBLY
 10
487.3184720467299
 20
-291.8646358764698
 30
0.0
 11
487.194360388838
 21
-291.8723117137364
 31
0.0
  0
LINE
  5
1E8
  8
ASSEMBLY
 10
487.194360388838
 20
-291.8723117137364
 30
0.0
 11
487.0695125284992
 21
-291.8823767598297
 31
0.0
  0
LINE
  5
1E9
  8
ASSEMBLY
 10
487.0695125284992
 20
-291.8823767598297
 30
0.0
 11
486.9443670682699
 21
-291.8948966303639
 31
0.0
  0
LINE
  5
1EA
  8
ASSEMBLY
 10
486.9443670682699
 20
-291.8948966303639
 30
0.0
 11
486.8193894169055
 21
-291.9099218852919
 31
0.0
  0
LINE
  5
1EB
  8
ASSEMBLY
 10
486.8193894169055
 20
-291.9099218852919
 30
0.0
 11
486.6950676163508
 21
-291.9274863631508
 31
0.0
  0
LINE
  5
1EC
  8
ASSEMBLY
 10
486.6950676163508
 20
-291.9274863631508
 30
0.0
 11
486.5719074031916
 21
-291.9476057111125
 31
0.0
  0
LINE
  5
1ED
  8
ASSEMBLY
 10
486.5719074031916
 20
-291.9476057111125
 30
0.0
 11
486.4504265736738
 21
-291.9702761682858
 31
0.0
  0
LINE
  5
1EE
  8
ASSEMBLY
 10
486.4504265736738
 20
-291.9702761682858
 30
0.0
 11
486.331148753664
 21
-291.9954736558164
 31
0.0
  0
LINE
  5
1EF
  8
ASSEMBLY
 10
486.331148753664
 20
-291.9954736558164
 30
0.0
 11
486.21459670563
 21
-292.0231532204907
 31
0.0
  0
LINE
  5
1F0
  8
ASSEMBLY
 10
486.21459670563
 20
-292.0231532204907
 30
0.0
 11
486.1012853318416
 21
-292.0532488688368
 31
0.0
  0
LINE
  5
1F1
  8
ASSEMBLY
 10
486.1012853318416
 20
-292.0532488688368
 30
0.0
 11
485.9917145545821
 21
-292.0856738164827
 31
0.0
  0
LINE
  5
1F2
  8
ASSEMBLY
 10
485.9917145545821
 20
-292.0856738164827
 30
0.0
 11
485.886362268459
 21
-292.1203211632753
 31
0.0
  0
LINE
  5
1F3
  8
ASSEMBLY
 10
485.886362268459
 20
-292.1203211632753
 30
0.0
 11
485.7856775655656
 21
-292.1570649891416
 31
0.0
  0
LINE
  5
1F4
  8
ASSEMBLY
 10
485.7856775655656
 20
-292.1570649891416
 30
0.0
 11
485.7372164591416
 21
-292.1761788913558
 31
0.0
  0
LINE
  5
1F5
  8
ASSEMBLY
 10
485.7372164591416
 20
-292.1761788913558
 30
0.0
 11
485.6900744304612
 21
-292.1957618497256
 31
0.0
  0
LINE
  5
1F6
  8
ASSEMBLY
 10
485.6900744304612
 20
-292.1957618497256
 30
0.0
 11
485.6442968143828
 21
-292.215793500698
 31
0.0
  0
LINE
  5
1F7
  8
ASSEMBLY
 10
485.6442968143828
 20
-292.215793500698
 30
0.0
 11
485.5999260885743
 21
-292.2362526354273
 31
0.0
  0
LINE
  5
1F8
  8
ASSEMBLY
 10
485.5999260885743
 20
-292.2362526354273
 30
0.0
 11
485.5570017436817
 21
-292.2571172740757
 31
0.0
  0
LINE
  5
1F9
  8
ASSEMBLY
 10
485.5570017436817
 20
-292.2571172740757
 30
0.0
 11
485.5155601692001
 21
-292.2783647435215
 31
0.0
  0
LINE
  5
1FA
  8
ASSEMBLY
 10
485.5155601692001
 20
-292.2783647435215
 30
0.0
 11
485.4756345557149
 21
-292.2999717579031
 31
0.0
  0
LINE
  5
1FB
  8
ASSEMBLY
 10
485.4756345557149
 20
-292.2999717579031
 30
0.0
 11
485.4372548140268
 21
-292.3219145014098
 31
0.0
  0
LINE
  5
1FC
  8
ASSEMBLY
 10
485.4372548140268
 20
-292.3219145014098
 30
0.0
 11
485.4004475115024
 21
-292.3441687127147
 31
0.0
  0
LINE
  5
1FD
  8
ASSEMBLY
 10
485.4004475115024
 20
-292.3441687127147
 30
0.0
 11
485.3652358258353
 21
-292.366709770442
 31
0.0
  0
LINE
  5
1FE
  8
ASSEMBLY
 10
485.3652358258353
 20
-292.366709770442
 30
0.0
 11
485.3316395162375
 21
-292.3895127790604
 31
0.0
  0
LINE
  5
1FF
  8
ASSEMBLY
 10
485.3316395162375
 20
-292.3895127790604
 30
0.0
 11
485.2996749119162
 21
-292.4125526546044
 31
0.0
  0
LINE
  5
200
  8
ASSEMBLY
 10
485.2996749119162
 20
-292.4125526546044
 30
0.0
 11
485.2693549175426
 21
-292.4358042096405
 31
0.0
  0
LINE
  5
201
  8
ASSEMBLY
 10
485.2693549175426
 20
-292.4358042096405
 30
0.0
 11
485.2406890352714
 21
-292.459242236918
 31
0.0
  0
LINE
  5
202
  8
ASSEMBLY
 10
485.2406890352714
 20
-292.459242236918
 30
0.0
 11
485.213683402728
 21
-292.4828415911704
 31
0.0
  0
LINE
  5
203
  8
ASSEMBLY
 10
485.213683402728
 20
-292.4828415911704
 30
0.0
 11
485.2008041909287
 21
-292.4946939445737
 31
0.0
  0
LINE
  5
204
  8
ASSEMBLY
 10
485.2008041909287
 20
-292.4946939445737
 30
0.0
 11
485.1883408462613
 21
-292.5065772685678
 31
0.0
  0
LINE
  5
205
  8
ASSEMBLY
 10
485.1883408462613
 20
-292.5065772685678
 30
0.0
 11
485.1762932157416
 21
-292.5184884723487
 31
0.0
  0
LINE
  5
206
  8
ASSEMBLY
 10
485.1762932157416
 20
-292.5184884723487
 30
0.0
 11
485.1646609486411
 21
-292.5304244833584
 31
0.0
  0
LINE
  5
207
  8
ASSEMBLY
 10
485.1646609486411
 20
-292.5304244833584
 30
0.0
 11
485.1534434993261
 21
-292.5423822494976
 31
0.0
  0
LINE
  5
208
  8
ASSEMBLY
 10
485.1534434993261
 20
-292.5423822494976
 30
0.0
 11
485.1426401302854
 21
-292.5543587412777
 31
0.0
  0
LINE
  5
209
  8
ASSEMBLY
 10
485.1426401302854
 20
-292.5543587412777
 30
0.0
 11
485.1322499153381
 21
-292.5663509539134
 31
0.0
  0
LINE
  5
20A
  8
ASSEMBLY
 10
485.1322499153381
 20
-292.5663509539134
 30
0.0
 11
485.12227174301
 21
-292.5783559093489
 31
0.0
  0
LINE
  5
20B
  8
ASSEMBLY
 10
485.12227174301
 20
-292.5783559093489
 30
0.0
 11
485.1127043200724
 21
-292.5903706582197
 31
0.0
  0
LINE
  5
20C
  8
ASSEMBLY
 10
485.1127043200724
 20
-292.5903706582197
 30
0.0
 11
485.1035461752333
 21
-292.6023922817458
 31
0.0
  0
LINE
  5
20D
  8
ASSEMBLY
 10
485.1035461752333
 20
-292.6023922817458
 30
0.0
 11
485.0947956629715
 21
-292.6144178935554
 31
0.0
  0
LINE
  5
20E
  8
ASSEMBLY
 10
485.0947956629715
 20
-292.6144178935554
 30
0.0
 11
485.0864509675044
 21
-292.6264446414366
 31
0.0
  0
LINE
  5
20F
  8
ASSEMBLY
 10
485.0864509675044
 20
-292.6264446414366
 30
0.0
 11
485.0785101068815
 21
-292.6384697090185
 31
0.0
  0
LINE
  5
210
  8
ASSEMBLY
 10
485.0785101068815
 20
-292.6384697090185
 30
0.0
 11
485.0709709371913
 21
-292.6504903173762
 31
0.0
  0
LINE
  5
211
  8
ASSEMBLY
 10
485.0709709371913
 20
-292.6504903173762
 30
0.0
 11
485.063831156875
 21
-292.662503726563
 31
0.0
  0
LINE
  5
212
  8
ASSEMBLY
 10
485.063831156875
 20
-292.662503726563
 30
0.0
 11
485.0570883111363
 21
-292.6745072370662
 31
0.0
  0
LINE
  5
213
  8
ASSEMBLY
 10
485.0570883111363
 20
-292.6745072370662
 30
0.0
 11
485.0507397964383
 21
-292.6864981911873
 31
0.0
  0
LINE
  5
214
  8
ASSEMBLY
 10
485.0507397964383
 20
-292.6864981911873
 30
0.0
 11
485.0447828650783
 21
-292.6984739743459
 31
0.0
  0
LINE
  5
215
  8
ASSEMBLY
 10
485.0447828650783
 20
-292.6984739743459
 30
0.0
 11
485.0392146298302
 21
-292.7104320163065
 31
0.0
  0
LINE
  5
216
  8
ASSEMBLY
 10
485.0392146298302
 20
-292.7104320163065
 30
0.0
 11
485.0340320686472
 21
-292.7223697923293
 31
0.0
  0
LINE
  5
217
  8
ASSEMBLY
 10
485.0340320686472
 20
-292.7223697923293
 30
0.0
 11
485.0292320294147
 21
-292.734284824244
 31
0.0
  0
LINE
  5
218
  8
ASSEMBLY
 10
485.0292320294147
 20
-292.734284824244
 30
0.0
 11
485.024811234745
 21
-292.746174681447
 31
0.0
  0
LINE
  5
219
  8
ASSEMBLY
 10
485.024811234745
 20
-292.746174681447
 30
0.0
 11
485.0207662868042
 21
-292.7580369818232
 31
0.0
  0
LINE
  5
21A
  8
ASSEMBLY
 10
485.0207662868042
 20
-292.7580369818232
 30
0.0
 11
485.0170936721656
 21
-292.7698693925927
 31
0.0
  0
LINE
  5
21B
  8
ASSEMBLY
 10
485.0170936721656
 20
-292.7698693925927
 30
0.0
 11
485.013789766677
 21
-292.7816696310816
 31
0.0
  0
LINE
  5
21C
  8
ASSEMBLY
 10
485.013789766677
 20
-292.7816696310816
 30
0.0
 11
485.0108508403384
 21
-292.7934354654203
 31
0.0
  0
LINE
  5
21D
  8
ASSEMBLY
 10
485.0108508403384
 20
-292.7934354654203
 30
0.0
 11
485.0082730621788
 21
-292.8051647151684
 31
0.0
  0
LINE
  5
21E
  8
ASSEMBLY
 10
485.0082730621788
 20
-292.8051647151684
 30
0.0
 11
485.0060525051273
 21
-292.8168552518676
 31
0.0
  0
LINE
  5
21F
  8
ASSEMBLY
 10
485.0060525051273
 20
-292.8168552518676
 30
0.0
 11
485.0041851508691
 21
-292.8285049995246
 31
0.0
  0
LINE
  5
220
  8
ASSEMBLY
 10
485.0041851508691
 20
-292.8285049995246
 30
0.0
 11
485.0026668946804
 21
-292.8401119350237
 31
0.0
  0
LINE
  5
221
  8
ASSEMBLY
 10
485.0026668946804
 20
-292.8401119350237
 30
0.0
 11
485.0014935502351
 21
-292.851674088473
 31
0.0
  0
LINE
  5
222
  8
ASSEMBLY
 10
485.0014935502351
 20
-292.851674088473
 30
0.0
 11
485.0006608543775
 21
-292.8631895434822
 31
0.0
  0
LINE
  5
223
  8
ASSEMBLY
 10
485.0006608543775
 20
-292.8631895434822
 30
0.0
 11
485.0001644718544
 21
-292.8746564373777
 31
0.0
  0
LINE
  5
224
  8
ASSEMBLY
 10
485.0001644718544
 20
-292.8746564373777
 30
0.0
 11
485.0
 21
-292.8860729613527
 31
0.0
  0
LINE
  5
225
  8
ASSEMBLY
 10
485.0
 20
-292.8860729613527
 30
0.0
 11
485.0
 21
-423.9690270386209
 31
0.0
  0
LINE
  5
226
  8
ASSEMBLY
 10
485.0
 20
-423.9690270386209
 30
0.0
 11
485.0001644718544
 21
-423.9804435625959
 31
0.0
  0
LINE
  5
227
  8
ASSEMBLY
 10
485.0001644718544
 20
-423.9804435625959
 30
0.0
 11
485.0006608543776
 21
-423.9919104564914
 31
0.0
  0
LINE
  5
228
  8
ASSEMBLY
 10
485.0006608543776
 20
-423.9919104564914
 30
0.0
 11
485.0014935502351
 21
-424.0034259115006
 31
0.0
  0
LINE
  5
229
  8
ASSEMBLY
 10
485.0014935502351
 20
-424.0034259115006
 30
0.0
 11
485.0026668946804
 21
-424.0149880649498
 31
0.0
  0
LINE
  5
22A
  8
ASSEMBLY
 10
485.0026668946804
 20
-424.0149880649498
 30
0.0
 11
485.0041851508692
 21
-424.0265950004489
 31
0.0
  0
LINE
  5
22B
  8
ASSEMBLY
 10
485.0041851508692
 20
-424.0265950004489
 30
0.0
 11
485.0060525051272
 21
-424.0382447481059
 31
0.0
  0
LINE
  5
22C
  8
ASSEMBLY
 10
485.0060525051272
 20
-424.0382447481059
 30
0.0
 11
485.0082730621787
 21
-424.0499352848053
 31
0.0
  0
LINE
  5
22D
  8
ASSEMBLY
 10
485.0082730621787
 20
-424.0499352848053
 30
0.0
 11
485.0108508403383
 21
-424.0616645345534
 31
0.0
  0
LINE
  5
22E
  8
ASSEMBLY
 10
485.0108508403383
 20
-424.0616645345534
 30
0.0
 11
485.013789766677
 21
-424.073430368892
 31
0.0
  0
LINE
  5
22F
  8
ASSEMBLY
 10
485.013789766677
 20
-424.073430368892
 30
0.0
 11
485.0170936721656
 21
-424.0852306073809
 31
0.0
  0
LINE
  5
230
  8
ASSEMBLY
 10
485.0170936721656
 20
-424.0852306073809
 30
0.0
 11
485.0207662868042
 21
-424.0970630181504
 31
0.0
  0
LINE
  5
231
  8
ASSEMBLY
 10
485.0207662868042
 20
-424.0970630181504
 30
0.0
 11
485.0248112347449
 21
-424.1089253185266
 31
0.0
  0
LINE
  5
232
  8
ASSEMBLY
 10
485.0248112347449
 20
-424.1089253185266
 30
0.0
 11
485.0292320294147
 21
-424.1208151757296
 31
0.0
  0
LINE
  5
233
  8
ASSEMBLY
 10
485.0292320294147
 20
-424.1208151757296
 30
0.0
 11
485.0340320686472
 21
-424.1327302076443
 31
0.0
  0
LINE
  5
234
  8
ASSEMBLY
 10
485.0340320686472
 20
-424.1327302076443
 30
0.0
 11
485.0392146298302
 21
-424.1446679836671
 31
0.0
  0
LINE
  5
235
  8
ASSEMBLY
 10
485.0392146298302
 20
-424.1446679836671
 30
0.0
 11
485.0447828650783
 21
-424.1566260256278
 31
0.0
  0
LINE
  5
236
  8
ASSEMBLY
 10
485.0447828650783
 20
-424.1566260256278
 30
0.0
 11
485.0507397964382
 21
-424.1686018087864
 31
0.0
  0
LINE
  5
237
  8
ASSEMBLY
 10
485.0507397964382
 20
-424.1686018087864
 30
0.0
 11
485.0570883111359
 21
-424.1805927629074
 31
0.0
  0
LINE
  5
238
  8
ASSEMBLY
 10
485.0570883111359
 20
-424.1805927629074
 30
0.0
 11
485.0638311568748
 21
-424.1925962734106
 31
0.0
  0
LINE
  5
239
  8
ASSEMBLY
 10
485.0638311568748
 20
-424.1925962734106
 30
0.0
 11
485.0709709371911
 21
-424.2046096825974
 31
0.0
  0
LINE
  5
23A
  8
ASSEMBLY
 10
485.0709709371911
 20
-424.2046096825974
 30
0.0
 11
485.0785101068814
 21
-424.2166302909552
 31
0.0
  0
LINE
  5
23B
  8
ASSEMBLY
 10
485.0785101068814
 20
-424.2166302909552
 30
0.0
 11
485.0864509675042
 21
-424.228655358537
 31
0.0
  0
LINE
  5
23C
  8
ASSEMBLY
 10
485.0864509675042
 20
-424.228655358537
 30
0.0
 11
485.0947956629713
 21
-424.2406821064183
 31
0.0
  0
LINE
  5
23D
  8
ASSEMBLY
 10
485.0947956629713
 20
-424.2406821064183
 30
0.0
 11
485.1035461752332
 21
-424.2527077182278
 31
0.0
  0
LINE
  5
23E
  8
ASSEMBLY
 10
485.1035461752332
 20
-424.2527077182278
 30
0.0
 11
485.1127043200723
 21
-424.2647293417538
 31
0.0
  0
LINE
  5
23F
  8
ASSEMBLY
 10
485.1127043200723
 20
-424.2647293417538
 30
0.0
 11
485.1222717430099
 21
-424.2767440906246
 31
0.0
  0
LINE
  5
240
  8
ASSEMBLY
 10
485.1222717430099
 20
-424.2767440906246
 30
0.0
 11
485.132249915338
 21
-424.2887490460602
 31
0.0
  0
LINE
  5
241
  8
ASSEMBLY
 10
485.132249915338
 20
-424.2887490460602
 30
0.0
 11
485.1426401302853
 21
-424.3007412586959
 31
0.0
  0
LINE
  5
242
  8
ASSEMBLY
 10
485.1426401302853
 20
-424.3007412586959
 30
0.0
 11
485.1534434993259
 21
-424.3127177504761
 31
0.0
  0
LINE
  5
243
  8
ASSEMBLY
 10
485.1534434993259
 20
-424.3127177504761
 30
0.0
 11
485.164660948641
 21
-424.3246755166152
 31
0.0
  0
LINE
  5
244
  8
ASSEMBLY
 10
485.164660948641
 20
-424.3246755166152
 30
0.0
 11
485.1762932157414
 21
-424.3366115276249
 31
0.0
  0
LINE
  5
245
  8
ASSEMBLY
 10
485.1762932157414
 20
-424.3366115276249
 30
0.0
 11
485.188340846261
 21
-424.3485227314058
 31
0.0
  0
LINE
  5
246
  8
ASSEMBLY
 10
485.188340846261
 20
-424.3485227314058
 30
0.0
 11
485.2008041909284
 21
-424.3604060553998
 31
0.0
  0
LINE
  5
247
  8
ASSEMBLY
 10
485.2008041909284
 20
-424.3604060553998
 30
0.0
 11
485.2136834027277
 21
-424.3722584088032
 31
0.0
  0
LINE
  5
248
  8
ASSEMBLY
 10
485.2136834027277
 20
-424.3722584088032
 30
0.0
 11
485.2406890352709
 21
-424.3958577630554
 31
0.0
  0
LINE
  5
249
  8
ASSEMBLY
 10
485.2406890352709
 20
-424.3958577630554
 30
0.0
 11
485.2693549175422
 21
-424.419295790333
 31
0.0
  0
LINE
  5
24A
  8
ASSEMBLY
 10
485.2693549175422
 20
-424.419295790333
 30
0.0
 11
485.2996749119158
 21
-424.4425473453692
 31
0.0
  0
LINE
  5
24B
  8
ASSEMBLY
 10
485.2996749119158
 20
-424.4425473453692
 30
0.0
 11
485.3316395162371
 21
-424.4655872209132
 31
0.0
  0
LINE
  5
24C
  8
ASSEMBLY
 10
485.3316395162371
 20
-424.4655872209132
 30
0.0
 11
485.3652358258349
 21
-424.4883902295315
 31
0.0
  0
LINE
  5
24D
  8
ASSEMBLY
 10
485.3652358258349
 20
-424.4883902295315
 30
0.0
 11
485.4004475115019
 21
-424.5109312872589
 31
0.0
  0
LINE
  5
24E
  8
ASSEMBLY
 10
485.4004475115019
 20
-424.5109312872589
 30
0.0
 11
485.4372548140265
 21
-424.5331854985639
 31
0.0
  0
LINE
  5
24F
  8
ASSEMBLY
 10
485.4372548140265
 20
-424.5331854985639
 30
0.0
 11
485.4756345557145
 21
-424.5551282420705
 31
0.0
  0
LINE
  5
250
  8
ASSEMBLY
 10
485.4756345557145
 20
-424.5551282420705
 30
0.0
 11
485.5155601691997
 21
-424.5767352564521
 31
0.0
  0
LINE
  5
251
  8
ASSEMBLY
 10
485.5155601691997
 20
-424.5767352564521
 30
0.0
 11
485.5570017436814
 21
-424.5979827258979
 31
0.0
  0
LINE
  5
252
  8
ASSEMBLY
 10
485.5570017436814
 20
-424.5979827258979
 30
0.0
 11
485.5999260885739
 21
-424.6188473645462
 31
0.0
  0
LINE
  5
253
  8
ASSEMBLY
 10
485.5999260885739
 20
-424.6188473645462
 30
0.0
 11
485.6442968143824
 21
-424.6393064992755
 31
0.0
  0
LINE
  5
254
  8
ASSEMBLY
 10
485.6442968143824
 20
-424.6393064992755
 30
0.0
 11
485.6900744304608
 21
-424.6593381502479
 31
0.0
  0
LINE
  5
255
  8
ASSEMBLY
 10
485.6900744304608
 20
-424.6593381502479
 30
0.0
 11
485.737216459141
 21
-424.6789211086177
 31
0.0
  0
LINE
  5
256
  8
ASSEMBLY
 10
485.737216459141
 20
-424.6789211086177
 30
0.0
 11
485.7856775655651
 21
-424.6980350108319
 31
0.0
  0
LINE
  5
257
  8
ASSEMBLY
 10
485.7856775655651
 20
-424.6980350108319
 30
0.0
 11
485.8863622684586
 21
-424.7347788366981
 31
0.0
  0
LINE
  5
258
  8
ASSEMBLY
 10
485.8863622684586
 20
-424.7347788366981
 30
0.0
 11
485.9917145545814
 21
-424.7694261834909
 31
0.0
  0
LINE
  5
259
  8
ASSEMBLY
 10
485.9917145545814
 20
-424.7694261834909
 30
0.0
 11
486.1012853318409
 21
-424.8018511311368
 31
0.0
  0
LINE
  5
25A
  8
ASSEMBLY
 10
486.1012853318409
 20
-424.8018511311368
 30
0.0
 11
486.2145967056294
 21
-424.8319467794829
 31
0.0
  0
LINE
  5
25B
  8
ASSEMBLY
 10
486.2145967056294
 20
-424.8319467794829
 30
0.0
 11
486.3311487536633
 21
-424.8596263441571
 31
0.0
  0
LINE
  5
25C
  8
ASSEMBLY
 10
486.3311487536633
 20
-424.8596263441571
 30
0.0
 11
486.4504265736731
 21
-424.8848238316877
 31
0.0
  0
LINE
  5
25D
  8
ASSEMBLY
 10
486.4504265736731
 20
-424.8848238316877
 30
0.0
 11
486.5719074031908
 21
-424.9074942888608
 31
0.0
  0
LINE
  5
25E
  8
ASSEMBLY
 10
486.5719074031908
 20
-424.9074942888608
 30
0.0
 11
486.6950676163499
 21
-424.9276136368227
 31
0.0
  0
LINE
  5
25F
  8
ASSEMBLY
 10
486.6950676163499
 20
-424.9276136368227
 30
0.0
 11
486.8193894169047
 21
-424.9451781146817
 31
0.0
  0
LINE
  5
260
  8
ASSEMBLY
 10
486.8193894169047
 20
-424.9451781146817
 30
0.0
 11
486.9443670682692
 21
-424.9602033696097
 31
0.0
  0
LINE
  5
261
  8
ASSEMBLY
 10
486.9443670682692
 20
-424.9602033696097
 30
0.0
 11
487.0695125284983
 21
-424.9727232401439
 31
0.0
  0
LINE
  5
262
  8
ASSEMBLY
 10
487.0695125284983
 20
-424.9727232401439
 30
0.0
 11
487.1943603888371
 21
-424.9827882862373
 31
0.0
  0
LINE
  5
263
  8
ASSEMBLY
 10
487.1943603888371
 20
-424.9827882862373
 30
0.0
 11
487.3184720467289
 21
-424.9904641235037
 31
0.0
  0
LINE
  5
264
  8
ASSEMBLY
 10
487.3184720467289
 20
-424.9904641235037
 30
0.0
 11
487.4414390761228
 21
-424.9958296201536
 31
0.0
  0
LINE
  5
265
  8
ASSEMBLY
 10
487.4414390761228
 20
-424.9958296201536
 30
0.0
 11
487.6824710000052
 21
-425.0
 31
0.0
  0
CIRCLE
  5
266
  8
PLATFORM$CURVES
 62
     1
 10
524.4741300000001
 20
-295.92755
 30
0.0
 40
1.500000000000057
  0
CIRCLE
  5
267
  8
PLATFORM$CURVES
 62
     1
 10
524.47413
 20
-316.9275500000001
 30
0.0
 40
1.500000000000057
  0
CIRCLE
  5
268
  8
PLATFORM$CURVES
 62
     1
 10
488.4741299999999
 20
-316.9275500000001
 30
0.0
 40
1.500000000000057
  0
CIRCLE
  5
269
  8
PLATFORM$CURVES
 62
     1
 10
-488.4741299999999
 20
-295.92755
 30
0.0
 40
1.499999999999943
210
0.0
220
0.0
230
-1.0
  0
CIRCLE
  5
26A
  8
PLATFORM$CURVES
 62
     1
 10
-524.47413
 20
-399.9275499999999
 30
0.0
 40
1.500000000000114
210
0.0
220
0.0
230
-1.0
  0
CIRCLE
  5
26B
  8
PLATFORM$CURVES
 62
     1
 10
-488.47413
 20
-399.9275499999999
 30
0.0
 40
1.500000000000057
210
0.0
220
0.0
230
-1.0
  0
CIRCLE
  5
26C
  8
PLATFORM$CURVES
 62
     1
 10
-524.47413
 20
-420.9275499999999
 30
0.0
 40
1.500000000000114
210
0.0
220
0.0
230
-1.0
  0
CIRCLE
  5
26D
  8
PLATFORM$CURVES
 62
     1
 10
488.47413
 20
-420.9275500000001
 30
0.0
 40
1.500000000000057
  0
CIRCLE
  5
26E
  8
PLATFORM$CURVES
 62
     1
 10
-606.4741300000007
 20
-295.9275500000006
 30
0.0
 40
1.5
210
0.0
220
0.0
230
-1.0
  0
CIRCLE
  5
26F
  8
PLATFORM$CURVES
 62
     1
 10
-606.4741300000004
 20
-316.9275500000006
 30
0.0
 40
1.5
210
0.0
220
0.0
230
-1.0
  0
CIRCLE
  5
270
  8
PLATFORM$CURVES
 62
     1
 10
-642.4741300000004
 20
-316.9275500000012
 30
0.0
 40
1.500000000000057
210
0.0
220
0.0
230
-1.0
  0
CIRCLE
  5
271
  8
PLATFORM$CURVES
 62
     1
 10
642.4741300000007
 20
-295.9275500000011
 30
0.0
 40
1.499999999999943
  0
CIRCLE
  5
272
  8
PLATFORM$CURVES
 62
     1
 10
606.4741299999991
 20
-399.9275500000006
 30
0.0
 40
1.500000000000057
  0
CIRCLE
  5
273
  8
PLATFORM$CURVES
 62
     1
 10
642.474129999999
 20
-399.9275500000011
 30
0.0
 40
1.5
  0
CIRCLE
  5
274
  8
PLATFORM$CURVES
 62
     1
 10
606.474129999999
 20
-420.9275500000006
 30
0.0
 40
1.5
  0
CIRCLE
  5
275
  8
PLATFORM$CURVES
 62
     1
 10
-642.4741299999989
 20
-420.9275500000011
 30
0.0
 40
1.5
210
0.0
220
0.0
230
-1.0
  0
ENDSEC
  0
EOF
